<svg xmlns="http://www.w3.org/2000/svg" width="505" height="379" viewBox="0 0 505 379">
  <g id="Grupo_890298" data-name="Grupo 890298" transform="translate(7253.5 8163.278)">
    <path id="Trazado_605277" data-name="Trazado 605277" d="M13,0H492a13,13,0,0,1,13,13V366a13,13,0,0,1-13,13H13A13,13,0,0,1,0,366V13A13,13,0,0,1,13,0Z" transform="translate(-7253.5 -8163.278)" fill="#fff"/>
    <g id="Trazado_604126" data-name="Trazado 604126" transform="translate(-7054.5 -8128.699)" fill="#fff">
      <path d="M 110 31 L 6 31 C 3.242984533309937 31 1 28.75701522827148 1 26 L 1 6 C 1 3.242984533309937 3.242984533309937 1 6 1 L 110 1 C 112.7570190429688 1 115 3.242984533309937 115 6 L 115 26 C 115 28.75701522827148 112.7570190429688 31 110 31 Z" stroke="none"/>
      <path d="M 6 2 C 3.794403076171875 2 2 3.794399261474609 2 6 L 2 26 C 2 28.20560073852539 3.794403076171875 30 6 30 L 110 30 C 112.2055969238281 30 114 28.20560073852539 114 26 L 114 6 C 114 3.794399261474609 112.2055969238281 2 110 2 L 6 2 M 6 0 L 110 0 C 113.3136978149414 0 116 2.686283111572266 116 6 L 116 26 C 116 29.31371688842773 113.3136978149414 32 110 32 L 6 32 C 2.686302185058594 32 0 29.31371688842773 0 26 L 0 6 C 0 2.686283111572266 2.686302185058594 0 6 0 Z" stroke="none" fill="#26aab7"/>
    </g>
    <path id="Trazado_604131" data-name="Trazado 604131" d="M4.088-4.437A6.172,6.172,0,0,1,1.63-5.629,2.279,2.279,0,0,1,.861-7.376,2.408,2.408,0,0,1,1.8-9.321a3.736,3.736,0,0,1,2.444-.769,4.078,4.078,0,0,1,1.829.4A3.007,3.007,0,0,1,7.318-8.6a2.8,2.8,0,0,1,.441,1.524H6.439a1.81,1.81,0,0,0-.574-1.418,2.34,2.34,0,0,0-1.62-.516,2.394,2.394,0,0,0-1.514.427A1.424,1.424,0,0,0,2.188-7.4,1.281,1.281,0,0,0,2.7-6.368,5.066,5.066,0,0,0,4.46-5.6,8.136,8.136,0,0,1,6.4-4.83a2.946,2.946,0,0,1,1.039.981,2.5,2.5,0,0,1,.338,1.319A2.326,2.326,0,0,1,6.836-.591,4.022,4.022,0,0,1,4.313.137,4.678,4.678,0,0,1,2.4-.256,3.221,3.221,0,0,1,1.029-1.333,2.627,2.627,0,0,1,.547-2.885H1.866a1.714,1.714,0,0,0,.667,1.425,2.806,2.806,0,0,0,1.781.523A2.58,2.58,0,0,0,5.906-1.36,1.377,1.377,0,0,0,6.46-2.516a1.351,1.351,0,0,0-.513-1.131A5.911,5.911,0,0,0,4.088-4.437ZM10.637,0H9.372V-7.4h1.265ZM9.27-9.358a.755.755,0,0,1,.188-.52.706.706,0,0,1,.557-.212.717.717,0,0,1,.561.212.747.747,0,0,1,.191.52.722.722,0,0,1-.191.513.73.73,0,0,1-.561.205.718.718,0,0,1-.557-.205A.73.73,0,0,1,9.27-9.358Zm5.106.171V-7.4h1.381v.978H14.376v4.587a1.024,1.024,0,0,0,.185.667.777.777,0,0,0,.629.222,3.062,3.062,0,0,0,.6-.082V0a3.666,3.666,0,0,1-.971.137,1.575,1.575,0,0,1-1.278-.513,2.2,2.2,0,0,1-.431-1.456V-6.419H11.765V-7.4h1.347V-9.187ZM18.607,0H17.343V-7.4h1.265ZM17.24-9.358a.755.755,0,0,1,.188-.52.706.706,0,0,1,.557-.212.717.717,0,0,1,.561.212.747.747,0,0,1,.191.52.722.722,0,0,1-.191.513.73.73,0,0,1-.561.205.718.718,0,0,1-.557-.205A.73.73,0,0,1,17.24-9.358ZM20.3-3.767a4.369,4.369,0,0,1,.427-1.955,3.187,3.187,0,0,1,1.189-1.34,3.238,3.238,0,0,1,1.74-.472A3.119,3.119,0,0,1,26.1-6.487a4.024,4.024,0,0,1,.933,2.782v.089a4.407,4.407,0,0,1-.414,1.938A3.14,3.14,0,0,1,25.433-.342a3.275,3.275,0,0,1-1.767.479A3.111,3.111,0,0,1,21.229-.909,4,4,0,0,1,20.3-3.678Zm1.271.15a3.164,3.164,0,0,0,.571,1.976A1.827,1.827,0,0,0,23.666-.9,1.816,1.816,0,0,0,25.2-1.651a3.46,3.46,0,0,0,.567-2.116,3.159,3.159,0,0,0-.578-1.972,1.836,1.836,0,0,0-1.535-.755,1.816,1.816,0,0,0-1.511.745A3.434,3.434,0,0,0,21.567-3.616ZM38.63-1.743,40.052-7.4h1.265L39.163,0H38.138l-1.8-5.605L34.59,0H33.564L31.418-7.4h1.258l1.456,5.537L35.854-7.4h1.019ZM45.671.137a3.232,3.232,0,0,1-2.447-.988,3.666,3.666,0,0,1-.943-2.642v-.232a4.438,4.438,0,0,1,.42-1.965,3.28,3.28,0,0,1,1.176-1.354,2.956,2.956,0,0,1,1.637-.489,2.77,2.77,0,0,1,2.242.95,4.114,4.114,0,0,1,.8,2.721v.526H43.545a2.629,2.629,0,0,0,.639,1.767A2.009,2.009,0,0,0,45.739-.9a2.2,2.2,0,0,0,1.135-.273,2.851,2.851,0,0,0,.813-.725l.772.6A3.106,3.106,0,0,1,45.671.137Zm-.157-6.631a1.687,1.687,0,0,0-1.285.557,2.708,2.708,0,0,0-.643,1.562h3.705v-.1a2.409,2.409,0,0,0-.52-1.494A1.588,1.588,0,0,0,45.514-6.494ZM56.28-3.616A4.4,4.4,0,0,1,55.5-.892,2.49,2.49,0,0,1,53.409.137a2.578,2.578,0,0,1-2.167-.991L51.181,0H50.019V-10.5h1.265v3.917a2.564,2.564,0,0,1,2.112-.95,2.505,2.505,0,0,1,2.116,1.019,4.53,4.53,0,0,1,.769,2.789ZM55.016-3.76a3.417,3.417,0,0,0-.5-2,1.652,1.652,0,0,0-1.436-.7,1.857,1.857,0,0,0-1.8,1.162v3.2A1.909,1.909,0,0,0,53.095-.937a1.643,1.643,0,0,0,1.415-.7A3.634,3.634,0,0,0,55.016-3.76Z" transform="translate(-7024.5 -8107.278)" fill="#00223d"/>
    <g id="Trazado_604127" data-name="Trazado 604127" transform="translate(-7073.5 -8060.699)" fill="#fff">
      <path d="M 149 31 L 6 31 C 3.243000030517578 31 1 28.75699996948242 1 26 L 1 6 C 1 3.243000030517578 3.243000030517578 1 6 1 L 149 1 C 151.7570037841797 1 154 3.243000030517578 154 6 L 154 26 C 154 28.75699996948242 151.7570037841797 31 149 31 Z" stroke="none"/>
      <path d="M 6 2 C 3.794403076171875 2 2 3.794395446777344 2 6 L 2 26 C 2 28.20560455322266 3.794403076171875 30 6 30 L 149 30 C 151.2055969238281 30 153 28.20560455322266 153 26 L 153 6 C 153 3.794395446777344 151.2055969238281 2 149 2 L 6 2 M 6 0 L 149 0 C 152.3137054443359 0 155 2.686290740966797 155 6 L 155 26 C 155 29.3137092590332 152.3137054443359 32 149 32 L 6 32 C 2.686294555664062 32 0 29.3137092590332 0 26 L 0 6 C 0 2.686290740966797 2.686294555664062 0 6 0 Z" stroke="none" fill="#fb8c00"/>
    </g>
    <path id="Trazado_604128" data-name="Trazado 604128" d="M2.468-3.9V0H1.155V-9.953H4.826a3.688,3.688,0,0,1,2.56.834,2.827,2.827,0,0,1,.926,2.208,2.79,2.79,0,0,1-.906,2.232A3.853,3.853,0,0,1,4.813-3.9Zm0-1.073H4.826a2.361,2.361,0,0,0,1.613-.5A1.811,1.811,0,0,0,7-6.9a1.871,1.871,0,0,0-.561-1.422A2.212,2.212,0,0,0,4.9-8.873H2.468ZM14.28,0A2.657,2.657,0,0,1,14.1-.779,2.822,2.822,0,0,1,12,.137,2.611,2.611,0,0,1,10.2-.482a2,2,0,0,1-.7-1.569,2.091,2.091,0,0,1,.878-1.794,4.142,4.142,0,0,1,2.471-.639h1.23v-.581a1.42,1.42,0,0,0-.4-1.056,1.593,1.593,0,0,0-1.169-.393,1.844,1.844,0,0,0-1.135.342,1.007,1.007,0,0,0-.458.827H9.652a1.745,1.745,0,0,1,.393-1.07,2.683,2.683,0,0,1,1.066-.817,3.588,3.588,0,0,1,1.48-.3,2.924,2.924,0,0,1,2,.639,2.306,2.306,0,0,1,.752,1.76v3.4a4.162,4.162,0,0,0,.26,1.62V0Zm-2.1-.964a2.223,2.223,0,0,0,1.128-.308,1.861,1.861,0,0,0,.772-.8V-3.589h-.991q-2.324,0-2.324,1.36a1.151,1.151,0,0,0,.4.93A1.524,1.524,0,0,0,12.182-.964ZM13.351-10.5h1.531L13.05-8.49H12.031Zm3.678,6.74a4.347,4.347,0,0,1,.8-2.751,2.558,2.558,0,0,1,2.119-1.022,2.544,2.544,0,0,1,2.112.957l.062-.82h1.155V-.178a3.009,3.009,0,0,1-.851,2.263,3.141,3.141,0,0,1-2.287.827,3.8,3.8,0,0,1-1.565-.342A2.7,2.7,0,0,1,17.4,1.634l.656-.759a2.473,2.473,0,0,0,1.989,1,1.938,1.938,0,0,0,1.439-.52A1.986,1.986,0,0,0,22-.1V-.738a2.6,2.6,0,0,1-2.071.875,2.527,2.527,0,0,1-2.1-1.046A4.571,4.571,0,0,1,17.028-3.76Zm1.271.144a3.316,3.316,0,0,0,.513,1.965,1.666,1.666,0,0,0,1.436.714A1.852,1.852,0,0,0,22-2.023V-5.4a1.874,1.874,0,0,0-1.743-1.06,1.681,1.681,0,0,0-1.442.718A3.612,3.612,0,0,0,18.3-3.616ZM26.558,0H25.293V-7.4h1.265ZM25.19-9.358a.755.755,0,0,1,.188-.52.706.706,0,0,1,.557-.212.717.717,0,0,1,.561.212.747.747,0,0,1,.191.52.722.722,0,0,1-.191.513.73.73,0,0,1-.561.205.718.718,0,0,1-.557-.205A.73.73,0,0,1,25.19-9.358ZM29.777-7.4l.041.93a2.7,2.7,0,0,1,2.215-1.066q2.345,0,2.365,2.646V0H33.134V-4.895a1.7,1.7,0,0,0-.366-1.183A1.466,1.466,0,0,0,31.65-6.46a1.825,1.825,0,0,0-1.08.328,2.228,2.228,0,0,0-.725.861V0H28.581V-7.4ZM40.872,0a2.657,2.657,0,0,1-.178-.779,2.822,2.822,0,0,1-2.105.916,2.611,2.611,0,0,1-1.794-.619,2,2,0,0,1-.7-1.569,2.091,2.091,0,0,1,.878-1.794,4.142,4.142,0,0,1,2.471-.639h1.23v-.581a1.42,1.42,0,0,0-.4-1.056,1.593,1.593,0,0,0-1.169-.393,1.844,1.844,0,0,0-1.135.342,1.007,1.007,0,0,0-.458.827H36.244a1.745,1.745,0,0,1,.393-1.07A2.683,2.683,0,0,1,37.7-7.232a3.588,3.588,0,0,1,1.48-.3,2.924,2.924,0,0,1,2,.639,2.306,2.306,0,0,1,.752,1.76v3.4a4.162,4.162,0,0,0,.26,1.62V0Zm-2.1-.964A2.223,2.223,0,0,0,39.9-1.271a1.861,1.861,0,0,0,.772-.8V-3.589h-.991q-2.324,0-2.324,1.36a1.151,1.151,0,0,0,.4.93A1.524,1.524,0,0,0,38.773-.964Zm8.306-2.8A4.333,4.333,0,0,1,47.886-6.5,2.551,2.551,0,0,1,50-7.533a2.565,2.565,0,0,1,2.058.889V-10.5H53.32V0H52.158L52.1-.793a2.575,2.575,0,0,1-2.112.93,2.526,2.526,0,0,1-2.1-1.053,4.382,4.382,0,0,1-.81-2.748Zm1.265.144a3.281,3.281,0,0,0,.52,1.969A1.68,1.68,0,0,0,50.3-.937a1.845,1.845,0,0,0,1.757-1.08v-3.4A1.859,1.859,0,0,0,50.313-6.46a1.687,1.687,0,0,0-1.449.718A3.612,3.612,0,0,0,48.344-3.616ZM58.352.137A3.232,3.232,0,0,1,55.9-.851a3.666,3.666,0,0,1-.943-2.642v-.232a4.438,4.438,0,0,1,.42-1.965,3.28,3.28,0,0,1,1.176-1.354,2.956,2.956,0,0,1,1.637-.489,2.77,2.77,0,0,1,2.242.95,4.114,4.114,0,0,1,.8,2.721v.526H56.226a2.629,2.629,0,0,0,.639,1.767A2.009,2.009,0,0,0,58.42-.9a2.2,2.2,0,0,0,1.135-.273,2.851,2.851,0,0,0,.813-.725l.772.6A3.106,3.106,0,0,1,58.352.137Zm-.157-6.631a1.687,1.687,0,0,0-1.285.557,2.708,2.708,0,0,0-.643,1.562h3.705v-.1a2.409,2.409,0,0,0-.52-1.494A1.588,1.588,0,0,0,58.194-6.494ZM67.771,0H66.459V-9.953h1.313Zm3.4-7.4.041.93a2.7,2.7,0,0,1,2.215-1.066q2.345,0,2.365,2.646V0H74.525V-4.895a1.7,1.7,0,0,0-.366-1.183,1.466,1.466,0,0,0-1.118-.383,1.825,1.825,0,0,0-1.08.328,2.228,2.228,0,0,0-.725.861V0H69.973V-7.4Zm7.9,7.4H77.807V-7.4h1.265ZM77.7-9.358a.755.755,0,0,1,.188-.52.706.706,0,0,1,.557-.212.717.717,0,0,1,.561.212.747.747,0,0,1,.191.52.722.722,0,0,1-.191.513.73.73,0,0,1-.561.205.718.718,0,0,1-.557-.205A.73.73,0,0,1,77.7-9.358ZM84.062-.9a1.822,1.822,0,0,0,1.183-.41A1.443,1.443,0,0,0,85.8-2.331H87a2.293,2.293,0,0,1-.437,1.21,2.882,2.882,0,0,1-1.077.916,3.107,3.107,0,0,1-1.425.342,3.047,3.047,0,0,1-2.4-1.008,4.016,4.016,0,0,1-.892-2.758v-.212a4.453,4.453,0,0,1,.4-1.921A3.02,3.02,0,0,1,82.3-7.068a3.233,3.233,0,0,1,1.753-.465,2.966,2.966,0,0,1,2.068.745A2.663,2.663,0,0,1,87-4.854H85.8a1.743,1.743,0,0,0-.543-1.179,1.691,1.691,0,0,0-1.207-.461,1.77,1.77,0,0,0-1.494.694,3.259,3.259,0,0,0-.53,2.006v.239a3.194,3.194,0,0,0,.526,1.969A1.779,1.779,0,0,0,84.062-.9ZM89.8,0H88.532V-7.4H89.8ZM88.43-9.358a.755.755,0,0,1,.188-.52.706.706,0,0,1,.557-.212.717.717,0,0,1,.561.212.747.747,0,0,1,.191.52.722.722,0,0,1-.191.513.73.73,0,0,1-.561.205.718.718,0,0,1-.557-.205A.73.73,0,0,1,88.43-9.358Zm3.056,5.592a4.369,4.369,0,0,1,.427-1.955A3.187,3.187,0,0,1,93.1-7.062a3.238,3.238,0,0,1,1.74-.472,3.119,3.119,0,0,1,2.444,1.046,4.024,4.024,0,0,1,.933,2.782v.089a4.407,4.407,0,0,1-.414,1.938A3.14,3.14,0,0,1,96.623-.342a3.275,3.275,0,0,1-1.767.479A3.111,3.111,0,0,1,92.418-.909a4,4,0,0,1-.933-2.769Zm1.271.15a3.164,3.164,0,0,0,.571,1.976A1.827,1.827,0,0,0,94.855-.9a1.816,1.816,0,0,0,1.531-.755,3.46,3.46,0,0,0,.567-2.116,3.159,3.159,0,0,0-.578-1.972,1.836,1.836,0,0,0-1.535-.755,1.816,1.816,0,0,0-1.511.745A3.434,3.434,0,0,0,92.757-3.616Z" transform="translate(-7046.5 -8039.278)" fill="#00223d"/>
    <g id="Trazado_604137" data-name="Trazado 604137" transform="translate(-7228.5 -7989.699)" fill="#fff">
      <path d="M 99 54 L 6 54 C 3.242985725402832 54 1 51.75701522827148 1 49 L 1 6 C 1 3.242985725402832 3.242985725402832 1 6 1 L 99 1 C 101.7570114135742 1 104 3.242985725402832 104 6 L 104 49 C 104 51.75701522827148 101.7570114135742 54 99 54 Z" stroke="none"/>
      <path d="M 6 2 C 3.794403076171875 2 2 3.794399261474609 2 6 L 2 49 C 2 51.20560073852539 3.794403076171875 53 6 53 L 99 53 C 101.2055969238281 53 103 51.20560073852539 103 49 L 103 6 C 103 3.794399261474609 101.2055969238281 2 99 2 L 6 2 M 6 0 L 99 0 C 102.3137054443359 0 105 2.686290740966797 105 6 L 105 49 C 105 52.3137092590332 102.3137054443359 55 99 55 L 6 55 C 2.686294555664062 55 0 52.3137092590332 0 49 L 0 6 C 0 2.686290740966797 2.686294555664062 0 6 0 Z" stroke="none" fill="#fb8c00"/>
    </g>
    <path id="Trazado_604138" data-name="Trazado 604138" d="M-18.235-4.655a6.147,6.147,0,0,1-.458,2.485A3.84,3.84,0,0,1-19.978-.54L-18.2.854l-.9.827-2.1-1.668a4.27,4.27,0,0,1-1.039.123,3.8,3.8,0,0,1-2.085-.578A3.817,3.817,0,0,1-25.73-2.088a5.908,5.908,0,0,1-.516-2.478v-.718a6.084,6.084,0,0,1,.5-2.536,3.8,3.8,0,0,1,1.412-1.685,3.788,3.788,0,0,1,2.088-.584,3.854,3.854,0,0,1,2.116.581,3.748,3.748,0,0,1,1.4,1.671,6.139,6.139,0,0,1,.492,2.546ZM-19.547-5.3a4.517,4.517,0,0,0-.7-2.71,2.332,2.332,0,0,0-2-.954,2.313,2.313,0,0,0-1.952.947,4.371,4.371,0,0,0-.735,2.628v.731a4.5,4.5,0,0,0,.714,2.693,2.316,2.316,0,0,0,1.986.984A2.32,2.32,0,0,0-20.265-1.9a4.444,4.444,0,0,0,.718-2.656Zm7.7,4.566A2.686,2.686,0,0,1-14.01.137a2.3,2.3,0,0,1-1.8-.687,2.974,2.974,0,0,1-.625-2.034V-7.4h1.265v4.778q0,1.682,1.367,1.682a1.893,1.893,0,0,0,1.928-1.08V-7.4h1.265V0h-1.2ZM-7.318,0H-8.583V-7.4h1.265ZM-8.685-9.358a.755.755,0,0,1,.188-.52.706.706,0,0,1,.557-.212.717.717,0,0,1,.561.212.747.747,0,0,1,.191.52.722.722,0,0,1-.191.513.73.73,0,0,1-.561.205A.718.718,0,0,1-8.5-8.846.73.73,0,0,1-8.685-9.358Zm6.46,9.5A3.232,3.232,0,0,1-4.672-.851a3.666,3.666,0,0,1-.943-2.642v-.232A4.438,4.438,0,0,1-5.2-5.691,3.28,3.28,0,0,1-4.02-7.044a2.956,2.956,0,0,1,1.637-.489,2.77,2.77,0,0,1,2.242.95,4.114,4.114,0,0,1,.8,2.721v.526H-4.351a2.629,2.629,0,0,0,.639,1.767A2.009,2.009,0,0,0-2.157-.9a2.2,2.2,0,0,0,1.135-.273,2.851,2.851,0,0,0,.813-.725l.772.6A3.106,3.106,0,0,1-2.225.137Zm-.157-6.631a1.687,1.687,0,0,0-1.285.557A2.708,2.708,0,0,0-4.31-4.375H-.6v-.1a2.409,2.409,0,0,0-.52-1.494A1.588,1.588,0,0,0-2.382-6.494Zm5.7-.9.041.93A2.7,2.7,0,0,1,5.575-7.533q2.345,0,2.365,2.646V0H6.675V-4.895A1.7,1.7,0,0,0,6.31-6.077,1.466,1.466,0,0,0,5.192-6.46a1.825,1.825,0,0,0-1.08.328,2.228,2.228,0,0,0-.725.861V0H2.123V-7.4Zm9.6,7.533a3.232,3.232,0,0,1-2.447-.988,3.666,3.666,0,0,1-.943-2.642v-.232a4.438,4.438,0,0,1,.42-1.965,3.28,3.28,0,0,1,1.176-1.354,2.956,2.956,0,0,1,1.637-.489A2.77,2.77,0,0,1,15-6.583a4.114,4.114,0,0,1,.8,2.721v.526H10.791a2.629,2.629,0,0,0,.639,1.767A2.009,2.009,0,0,0,12.985-.9a2.2,2.2,0,0,0,1.135-.273,2.851,2.851,0,0,0,.813-.725l.772.6A3.106,3.106,0,0,1,12.917.137Zm-.157-6.631a1.687,1.687,0,0,0-1.285.557,2.708,2.708,0,0,0-.643,1.562h3.705v-.1a2.409,2.409,0,0,0-.52-1.494A1.588,1.588,0,0,0,12.759-6.494Zm8.812,4.532a.931.931,0,0,0-.386-.8,3.718,3.718,0,0,0-1.347-.489,6.367,6.367,0,0,1-1.524-.492,2.169,2.169,0,0,1-.834-.684,1.635,1.635,0,0,1-.27-.943A1.919,1.919,0,0,1,17.979-6.9a3,3,0,0,1,1.965-.629,3.091,3.091,0,0,1,2.041.649,2.063,2.063,0,0,1,.783,1.661H21.5a1.142,1.142,0,0,0-.441-.9,1.652,1.652,0,0,0-1.111-.376,1.729,1.729,0,0,0-1.08.3.947.947,0,0,0-.39.786.767.767,0,0,0,.362.69,4.458,4.458,0,0,0,1.309.444,6.821,6.821,0,0,1,1.535.506,2.239,2.239,0,0,1,.872.708,1.74,1.74,0,0,1,.284,1.008,1.893,1.893,0,0,1-.793,1.589,3.326,3.326,0,0,1-2.058.6,3.725,3.725,0,0,1-1.572-.314,2.557,2.557,0,0,1-1.07-.878,2.117,2.117,0,0,1-.386-1.22h1.265a1.309,1.309,0,0,0,.509,1.008A1.976,1.976,0,0,0,19.985-.9a2.039,2.039,0,0,0,1.152-.291A.893.893,0,0,0,21.571-1.962ZM-17.794,15.563a6.172,6.172,0,0,1-2.458-1.193,2.279,2.279,0,0,1-.769-1.747,2.408,2.408,0,0,1,.94-1.945,3.736,3.736,0,0,1,2.444-.769,4.078,4.078,0,0,1,1.829.4A3.007,3.007,0,0,1-14.564,11.4a2.8,2.8,0,0,1,.441,1.524h-1.319a1.81,1.81,0,0,0-.574-1.418,2.34,2.34,0,0,0-1.62-.516,2.394,2.394,0,0,0-1.514.427,1.424,1.424,0,0,0-.543,1.186,1.281,1.281,0,0,0,.516,1.029,5.066,5.066,0,0,0,1.757.769,8.136,8.136,0,0,1,1.941.769,2.946,2.946,0,0,1,1.039.981,2.5,2.5,0,0,1,.338,1.319,2.326,2.326,0,0,1-.943,1.938,4.022,4.022,0,0,1-2.522.728,4.678,4.678,0,0,1-1.914-.393,3.221,3.221,0,0,1-1.371-1.077,2.627,2.627,0,0,1-.482-1.552h1.319a1.714,1.714,0,0,0,.667,1.425,2.806,2.806,0,0,0,1.781.523,2.58,2.58,0,0,0,1.593-.424,1.377,1.377,0,0,0,.554-1.155,1.351,1.351,0,0,0-.513-1.131A5.911,5.911,0,0,0-17.794,15.563Zm4.84.67a4.369,4.369,0,0,1,.427-1.955,3.187,3.187,0,0,1,1.189-1.34,3.238,3.238,0,0,1,1.74-.472,3.119,3.119,0,0,1,2.444,1.046,4.024,4.024,0,0,1,.933,2.782v.089a4.407,4.407,0,0,1-.414,1.938,3.14,3.14,0,0,1-1.183,1.336,3.275,3.275,0,0,1-1.767.479,3.111,3.111,0,0,1-2.437-1.046,4,4,0,0,1-.933-2.769Zm1.271.15a3.164,3.164,0,0,0,.571,1.976,1.827,1.827,0,0,0,1.528.745,1.816,1.816,0,0,0,1.531-.755,3.46,3.46,0,0,0,.567-2.116,3.159,3.159,0,0,0-.578-1.972A1.836,1.836,0,0,0-9.6,13.506a1.816,1.816,0,0,0-1.511.745A3.435,3.435,0,0,0-11.683,16.384Zm8.237-3.78.034.82a2.732,2.732,0,0,1,2.194-.957A2.115,2.115,0,0,1,.9,13.656a2.8,2.8,0,0,1,.96-.861,2.837,2.837,0,0,1,1.4-.328q2.434,0,2.475,2.577V20H4.464V15.119A1.7,1.7,0,0,0,4.1,13.933a1.6,1.6,0,0,0-1.217-.393,1.677,1.677,0,0,0-1.169.42,1.706,1.706,0,0,0-.54,1.131V20H-.1V15.153A1.411,1.411,0,0,0-1.675,13.54a1.692,1.692,0,0,0-1.7,1.06V20H-4.642V12.6ZM7.3,16.233a4.369,4.369,0,0,1,.427-1.955,3.187,3.187,0,0,1,1.189-1.34,3.238,3.238,0,0,1,1.74-.472A3.119,3.119,0,0,1,13.1,13.513a4.024,4.024,0,0,1,.933,2.782v.089a4.407,4.407,0,0,1-.414,1.938,3.14,3.14,0,0,1-1.183,1.336,3.275,3.275,0,0,1-1.767.479,3.111,3.111,0,0,1-2.437-1.046A4,4,0,0,1,7.3,16.322Zm1.271.15a3.164,3.164,0,0,0,.571,1.976,1.827,1.827,0,0,0,1.528.745,1.816,1.816,0,0,0,1.531-.755,3.46,3.46,0,0,0,.567-2.116,3.159,3.159,0,0,0-.578-1.972,1.836,1.836,0,0,0-1.535-.755,1.816,1.816,0,0,0-1.511.745A3.435,3.435,0,0,0,8.572,16.384Zm11.354,1.654a.931.931,0,0,0-.386-.8,3.718,3.718,0,0,0-1.347-.489,6.367,6.367,0,0,1-1.524-.492,2.169,2.169,0,0,1-.834-.684,1.635,1.635,0,0,1-.27-.943,1.919,1.919,0,0,1,.769-1.538,3,3,0,0,1,1.965-.629,3.091,3.091,0,0,1,2.041.649,2.063,2.063,0,0,1,.783,1.661H19.852a1.142,1.142,0,0,0-.441-.9,1.652,1.652,0,0,0-1.111-.376,1.729,1.729,0,0,0-1.08.3.947.947,0,0,0-.39.786.767.767,0,0,0,.362.69,4.458,4.458,0,0,0,1.309.444,6.821,6.821,0,0,1,1.535.506,2.239,2.239,0,0,1,.872.708,1.74,1.74,0,0,1,.284,1.008,1.893,1.893,0,0,1-.793,1.589,3.326,3.326,0,0,1-2.058.6,3.725,3.725,0,0,1-1.572-.314,2.557,2.557,0,0,1-1.07-.878,2.117,2.117,0,0,1-.386-1.22h1.265a1.309,1.309,0,0,0,.509,1.008,1.976,1.976,0,0,0,1.254.373,2.039,2.039,0,0,0,1.152-.291A.893.893,0,0,0,19.927,18.038Z" transform="translate(-7176.5 -7968.278)" fill="#00223d"/>
    <g id="Trazado_604133" data-name="Trazado 604133" transform="translate(-7109.5 -7989.699)" fill="#fff">
      <path d="M 99 54 L 6 54 C 3.242985725402832 54 1 51.75701522827148 1 49 L 1 6 C 1 3.242985725402832 3.242985725402832 1 6 1 L 99 1 C 101.7570114135742 1 104 3.242985725402832 104 6 L 104 49 C 104 51.75701522827148 101.7570114135742 54 99 54 Z" stroke="none"/>
      <path d="M 6 2 C 3.794403076171875 2 2 3.794399261474609 2 6 L 2 49 C 2 51.20560073852539 3.794403076171875 53 6 53 L 99 53 C 101.2055969238281 53 103 51.20560073852539 103 49 L 103 6 C 103 3.794399261474609 101.2055969238281 2 99 2 L 6 2 M 6 0 L 99 0 C 102.3137054443359 0 105 2.686290740966797 105 6 L 105 49 C 105 52.3137092590332 102.3137054443359 55 99 55 L 6 55 C 2.686294555664062 55 0 52.3137092590332 0 49 L 0 6 C 0 2.686290740966797 2.686294555664062 0 6 0 Z" stroke="none" fill="#fb8c00"/>
    </g>
    <path id="Trazado_604136" data-name="Trazado 604136" d="M-24.257-4.437a6.172,6.172,0,0,1-2.458-1.193,2.279,2.279,0,0,1-.769-1.747,2.408,2.408,0,0,1,.94-1.945A3.736,3.736,0,0,1-24.1-10.09a4.078,4.078,0,0,1,1.829.4A3.007,3.007,0,0,1-21.027-8.6a2.8,2.8,0,0,1,.441,1.524h-1.319a1.81,1.81,0,0,0-.574-1.418A2.34,2.34,0,0,0-24.1-9.01a2.394,2.394,0,0,0-1.514.427A1.424,1.424,0,0,0-26.158-7.4a1.281,1.281,0,0,0,.516,1.029,5.066,5.066,0,0,0,1.757.769,8.136,8.136,0,0,1,1.941.769,2.946,2.946,0,0,1,1.039.981,2.5,2.5,0,0,1,.338,1.319,2.326,2.326,0,0,1-.943,1.938,4.022,4.022,0,0,1-2.522.728,4.678,4.678,0,0,1-1.914-.393,3.221,3.221,0,0,1-1.371-1.077A2.627,2.627,0,0,1-27.8-2.885h1.319a1.714,1.714,0,0,0,.667,1.425,2.806,2.806,0,0,0,1.781.523,2.58,2.58,0,0,0,1.593-.424,1.377,1.377,0,0,0,.554-1.155A1.351,1.351,0,0,0-22.4-3.647,5.911,5.911,0,0,0-24.257-4.437ZM-16.013.137A3.232,3.232,0,0,1-18.46-.851,3.666,3.666,0,0,1-19.4-3.493v-.232a4.438,4.438,0,0,1,.42-1.965,3.28,3.28,0,0,1,1.176-1.354,2.956,2.956,0,0,1,1.637-.489,2.77,2.77,0,0,1,2.242.95,4.114,4.114,0,0,1,.8,2.721v.526h-5.011A2.629,2.629,0,0,0-17.5-1.569,2.009,2.009,0,0,0-15.945-.9a2.2,2.2,0,0,0,1.135-.273A2.851,2.851,0,0,0-14-1.894l.772.6A3.106,3.106,0,0,1-16.013.137Zm-.157-6.631a1.687,1.687,0,0,0-1.285.557A2.708,2.708,0,0,0-18.1-4.375h3.705v-.1a2.409,2.409,0,0,0-.52-1.494A1.588,1.588,0,0,0-16.17-6.494Zm8.08.232a3.79,3.79,0,0,0-.622-.048A1.667,1.667,0,0,0-10.4-5.25V0h-1.265V-7.4h1.23l.021.854a1.969,1.969,0,0,1,1.764-.991,1.292,1.292,0,0,1,.561.1Zm3.726,4.546L-2.533-7.4h1.292L-3.893,0h-.964l-2.68-7.4h1.292ZM1.35,0H.085V-7.4H1.35ZM-.017-9.358a.755.755,0,0,1,.188-.52.706.706,0,0,1,.557-.212.717.717,0,0,1,.561.212.747.747,0,0,1,.191.52.722.722,0,0,1-.191.513.73.73,0,0,1-.561.205.718.718,0,0,1-.557-.205A.73.73,0,0,1-.017-9.358ZM6.34-.9a1.822,1.822,0,0,0,1.183-.41,1.443,1.443,0,0,0,.561-1.025h1.2a2.293,2.293,0,0,1-.437,1.21,2.881,2.881,0,0,1-1.077.916A3.107,3.107,0,0,1,6.34.137a3.047,3.047,0,0,1-2.4-1.008A4.016,4.016,0,0,1,3.045-3.63v-.212a4.453,4.453,0,0,1,.4-1.921A3.02,3.02,0,0,1,4.58-7.068a3.233,3.233,0,0,1,1.753-.465A2.966,2.966,0,0,1,8.4-6.788,2.663,2.663,0,0,1,9.28-4.854h-1.2A1.743,1.743,0,0,0,7.54-6.033a1.691,1.691,0,0,0-1.207-.461A1.77,1.77,0,0,0,4.84-5.8a3.259,3.259,0,0,0-.53,2.006v.239a3.194,3.194,0,0,0,.526,1.969A1.779,1.779,0,0,0,6.34-.9Zm5.735.9H10.811V-7.4h1.265ZM10.708-9.358a.755.755,0,0,1,.188-.52.706.706,0,0,1,.557-.212.717.717,0,0,1,.561.212.747.747,0,0,1,.191.52.722.722,0,0,1-.191.513.73.73,0,0,1-.561.205.718.718,0,0,1-.557-.205A.73.73,0,0,1,10.708-9.358Zm3.056,5.592a4.369,4.369,0,0,1,.427-1.955,3.187,3.187,0,0,1,1.189-1.34,3.238,3.238,0,0,1,1.74-.472,3.119,3.119,0,0,1,2.444,1.046A4.024,4.024,0,0,1,20.5-3.705v.089a4.407,4.407,0,0,1-.414,1.938A3.14,3.14,0,0,1,18.9-.342a3.275,3.275,0,0,1-1.767.479A3.111,3.111,0,0,1,14.7-.909a4,4,0,0,1-.933-2.769Zm1.271.15a3.164,3.164,0,0,0,.571,1.976A1.827,1.827,0,0,0,17.134-.9a1.816,1.816,0,0,0,1.531-.755,3.46,3.46,0,0,0,.567-2.116,3.159,3.159,0,0,0-.578-1.972,1.836,1.836,0,0,0-1.535-.755,1.816,1.816,0,0,0-1.511.745A3.434,3.434,0,0,0,15.036-3.616ZM26.39-1.962a.931.931,0,0,0-.386-.8,3.718,3.718,0,0,0-1.347-.489,6.367,6.367,0,0,1-1.524-.492,2.169,2.169,0,0,1-.834-.684,1.635,1.635,0,0,1-.27-.943A1.919,1.919,0,0,1,22.8-6.9a3,3,0,0,1,1.965-.629,3.091,3.091,0,0,1,2.041.649,2.063,2.063,0,0,1,.783,1.661H26.315a1.142,1.142,0,0,0-.441-.9,1.652,1.652,0,0,0-1.111-.376,1.729,1.729,0,0,0-1.08.3.947.947,0,0,0-.39.786.767.767,0,0,0,.362.69,4.458,4.458,0,0,0,1.309.444,6.821,6.821,0,0,1,1.535.506,2.239,2.239,0,0,1,.872.708,1.74,1.74,0,0,1,.284,1.008,1.893,1.893,0,0,1-.793,1.589,3.326,3.326,0,0,1-2.058.6,3.725,3.725,0,0,1-1.572-.314,2.557,2.557,0,0,1-1.07-.878,2.117,2.117,0,0,1-.386-1.22h1.265a1.309,1.309,0,0,0,.509,1.008A1.976,1.976,0,0,0,24.8-.9a2.039,2.039,0,0,0,1.152-.291A.893.893,0,0,0,26.39-1.962Z" transform="translate(-7055.5 -7959.778)" fill="#00223d"/>
    <g id="Trazado_604125" data-name="Trazado 604125" transform="translate(-6992.5 -7989.699)" fill="#fff">
      <path d="M 99 54 L 6 54 C 3.242985725402832 54 1 51.75701522827148 1 49 L 1 6 C 1 3.242985725402832 3.242985725402832 1 6 1 L 99 1 C 101.7570114135742 1 104 3.242985725402832 104 6 L 104 49 C 104 51.75701522827148 101.7570114135742 54 99 54 Z" stroke="none"/>
      <path d="M 6 2 C 3.794403076171875 2 2 3.794399261474609 2 6 L 2 49 C 2 51.20560073852539 3.794403076171875 53 6 53 L 99 53 C 101.2055969238281 53 103 51.20560073852539 103 49 L 103 6 C 103 3.794399261474609 101.2055969238281 2 99 2 L 6 2 M 6 0 L 99 0 C 102.3137054443359 0 105 2.686290740966797 105 6 L 105 49 C 105 52.3137092590332 102.3137054443359 55 99 55 L 6 55 C 2.686294555664062 55 0 52.3137092590332 0 49 L 0 6 C 0 2.686290740966797 2.686294555664062 0 6 0 Z" stroke="none" fill="#fb8c00"/>
    </g>
    <path id="Trazado_604129" data-name="Trazado 604129" d="M-29.531-3.9V0h-1.312V-9.953h3.671a3.688,3.688,0,0,1,2.56.834,2.827,2.827,0,0,1,.926,2.208,2.79,2.79,0,0,1-.906,2.232,3.853,3.853,0,0,1-2.594.783Zm0-1.073h2.358a2.361,2.361,0,0,0,1.613-.5A1.811,1.811,0,0,0-25-6.9a1.871,1.871,0,0,0-.561-1.422A2.212,2.212,0,0,0-27.1-8.873h-2.434Zm10.9-1.292a3.79,3.79,0,0,0-.622-.048,1.667,1.667,0,0,0-1.688,1.06V0H-22.21V-7.4h1.23l.021.854A1.969,1.969,0,0,1-19.2-7.533a1.292,1.292,0,0,1,.561.1Zm.69,2.5a4.369,4.369,0,0,1,.427-1.955,3.187,3.187,0,0,1,1.189-1.34,3.238,3.238,0,0,1,1.74-.472,3.119,3.119,0,0,1,2.444,1.046,4.024,4.024,0,0,1,.933,2.782v.089a4.407,4.407,0,0,1-.414,1.938A3.14,3.14,0,0,1-12.807-.342a3.275,3.275,0,0,1-1.767.479A3.111,3.111,0,0,1-17.011-.909a4,4,0,0,1-.933-2.769Zm1.271.15A3.164,3.164,0,0,0-16.1-1.641,1.827,1.827,0,0,0-14.574-.9a1.816,1.816,0,0,0,1.531-.755,3.46,3.46,0,0,0,.567-2.116,3.159,3.159,0,0,0-.578-1.972,1.836,1.836,0,0,0-1.535-.755,1.816,1.816,0,0,0-1.511.745A3.434,3.434,0,0,0-16.673-3.616Zm6.74-.144A4.333,4.333,0,0,1-9.126-6.5,2.551,2.551,0,0,1-7.014-7.533a2.565,2.565,0,0,1,2.058.889V-10.5h1.265V0H-4.854l-.062-.793a2.575,2.575,0,0,1-2.112.93,2.526,2.526,0,0,1-2.1-1.053,4.382,4.382,0,0,1-.81-2.748Zm1.265.144a3.281,3.281,0,0,0,.52,1.969,1.68,1.68,0,0,0,1.436.711,1.845,1.845,0,0,0,1.757-1.08v-3.4A1.859,1.859,0,0,0-6.7-6.46a1.687,1.687,0,0,0-1.449.718A3.612,3.612,0,0,0-8.668-3.616ZM2.837-.731A2.686,2.686,0,0,1,.67.137a2.3,2.3,0,0,1-1.8-.687,2.974,2.974,0,0,1-.625-2.034V-7.4H-.492v4.778Q-.492-.937.875-.937A1.893,1.893,0,0,0,2.8-2.017V-7.4H4.067V0h-1.2ZM8.955-.9a1.822,1.822,0,0,0,1.183-.41A1.443,1.443,0,0,0,10.7-2.331h1.2a2.293,2.293,0,0,1-.437,1.21,2.881,2.881,0,0,1-1.077.916A3.107,3.107,0,0,1,8.955.137a3.047,3.047,0,0,1-2.4-1.008A4.016,4.016,0,0,1,5.66-3.63v-.212a4.453,4.453,0,0,1,.4-1.921A3.02,3.02,0,0,1,7.195-7.068a3.233,3.233,0,0,1,1.753-.465,2.966,2.966,0,0,1,2.068.745,2.663,2.663,0,0,1,.878,1.935H10.7a1.743,1.743,0,0,0-.543-1.179,1.691,1.691,0,0,0-1.207-.461A1.77,1.77,0,0,0,7.455-5.8a3.259,3.259,0,0,0-.53,2.006v.239a3.194,3.194,0,0,0,.526,1.969A1.779,1.779,0,0,0,8.955-.9Zm6.077-8.292V-7.4h1.381v.978H15.032v4.587a1.024,1.024,0,0,0,.185.667.777.777,0,0,0,.629.222,3.062,3.062,0,0,0,.6-.082V0a3.666,3.666,0,0,1-.971.137A1.575,1.575,0,0,1,14.2-.376a2.2,2.2,0,0,1-.431-1.456V-6.419H12.421V-7.4h1.347V-9.187Zm2.386,5.421a4.369,4.369,0,0,1,.427-1.955,3.187,3.187,0,0,1,1.189-1.34,3.238,3.238,0,0,1,1.74-.472,3.119,3.119,0,0,1,2.444,1.046,4.024,4.024,0,0,1,.933,2.782v.089a4.407,4.407,0,0,1-.414,1.938A3.14,3.14,0,0,1,22.555-.342a3.275,3.275,0,0,1-1.767.479A3.111,3.111,0,0,1,18.351-.909a4,4,0,0,1-.933-2.769Zm1.271.15a3.164,3.164,0,0,0,.571,1.976A1.827,1.827,0,0,0,20.788-.9a1.816,1.816,0,0,0,1.531-.755,3.46,3.46,0,0,0,.567-2.116,3.159,3.159,0,0,0-.578-1.972,1.836,1.836,0,0,0-1.535-.755,1.816,1.816,0,0,0-1.511.745A3.434,3.434,0,0,0,18.689-3.616ZM30.044-1.962a.931.931,0,0,0-.386-.8,3.718,3.718,0,0,0-1.347-.489,6.367,6.367,0,0,1-1.524-.492,2.169,2.169,0,0,1-.834-.684,1.635,1.635,0,0,1-.27-.943A1.919,1.919,0,0,1,26.452-6.9a3,3,0,0,1,1.965-.629,3.091,3.091,0,0,1,2.041.649,2.063,2.063,0,0,1,.783,1.661H29.969a1.142,1.142,0,0,0-.441-.9,1.652,1.652,0,0,0-1.111-.376,1.729,1.729,0,0,0-1.08.3.947.947,0,0,0-.39.786.767.767,0,0,0,.362.69,4.458,4.458,0,0,0,1.309.444,6.821,6.821,0,0,1,1.535.506,2.239,2.239,0,0,1,.872.708,1.74,1.74,0,0,1,.284,1.008,1.893,1.893,0,0,1-.793,1.589,3.326,3.326,0,0,1-2.058.6,3.725,3.725,0,0,1-1.572-.314,2.557,2.557,0,0,1-1.07-.878,2.117,2.117,0,0,1-.386-1.22h1.265A1.309,1.309,0,0,0,27.2-1.268,1.976,1.976,0,0,0,28.458-.9a2.039,2.039,0,0,0,1.152-.291A.893.893,0,0,0,30.044-1.962Z" transform="translate(-6939.5 -7959.778)" fill="#00223d"/>
    <g id="Trazado_604122" data-name="Trazado 604122" transform="translate(-6872.5 -7989.699)" fill="#fff">
      <path d="M 99 54 L 6 54 C 3.242985725402832 54 1 51.75701522827148 1 49 L 1 6 C 1 3.242985725402832 3.242985725402832 1 6 1 L 99 1 C 101.7570114135742 1 104 3.242985725402832 104 6 L 104 49 C 104 51.75701522827148 101.7570114135742 54 99 54 Z" stroke="none"/>
      <path d="M 6 2 C 3.794403076171875 2 2 3.794399261474609 2 6 L 2 49 C 2 51.20560073852539 3.794403076171875 53 6 53 L 99 53 C 101.2055969238281 53 103 51.20560073852539 103 49 L 103 6 C 103 3.794399261474609 101.2055969238281 2 99 2 L 6 2 M 6 0 L 99 0 C 102.3137054443359 0 105 2.686290740966797 105 6 L 105 49 C 105 52.3137092590332 102.3137054443359 55 99 55 L 6 55 C 2.686294555664062 55 0 52.3137092590332 0 49 L 0 6 C 0 2.686290740966797 2.686294555664062 0 6 0 Z" stroke="none" fill="#fb8c00"/>
    </g>
    <path id="Trazado_604123" data-name="Trazado 604123" d="M-28.342-3.9V0h-1.312V-9.953h3.671a3.688,3.688,0,0,1,2.56.834A2.827,2.827,0,0,1-22.5-6.911,2.79,2.79,0,0,1-23.4-4.679,3.853,3.853,0,0,1-26-3.9Zm0-1.073h2.358a2.361,2.361,0,0,0,1.613-.5A1.811,1.811,0,0,0-23.81-6.9a1.871,1.871,0,0,0-.561-1.422,2.212,2.212,0,0,0-1.538-.554h-2.434Zm6.9,1.2a4.369,4.369,0,0,1,.427-1.955,3.187,3.187,0,0,1,1.189-1.34,3.238,3.238,0,0,1,1.74-.472,3.119,3.119,0,0,1,2.444,1.046,4.024,4.024,0,0,1,.933,2.782v.089a4.407,4.407,0,0,1-.414,1.938A3.14,3.14,0,0,1-16.307-.342a3.275,3.275,0,0,1-1.767.479A3.111,3.111,0,0,1-20.511-.909a4,4,0,0,1-.933-2.769Zm1.271.15A3.164,3.164,0,0,0-19.6-1.641,1.827,1.827,0,0,0-18.074-.9a1.816,1.816,0,0,0,1.531-.755,3.46,3.46,0,0,0,.567-2.116,3.159,3.159,0,0,0-.578-1.972,1.836,1.836,0,0,0-1.535-.755,1.816,1.816,0,0,0-1.511.745A3.434,3.434,0,0,0-20.173-3.616ZM-9.55-6.262a3.79,3.79,0,0,0-.622-.048A1.667,1.667,0,0,0-11.86-5.25V0h-1.265V-7.4h1.23l.021.854a1.969,1.969,0,0,1,1.764-.991,1.292,1.292,0,0,1,.561.1Zm3.22-2.926V-7.4h1.381v.978H-6.33v4.587a1.024,1.024,0,0,0,.185.667.777.777,0,0,0,.629.222,3.062,3.062,0,0,0,.6-.082V0a3.666,3.666,0,0,1-.971.137A1.575,1.575,0,0,1-7.164-.376a2.2,2.2,0,0,1-.431-1.456V-6.419H-8.941V-7.4h1.347V-9.187ZM1.094,0A2.657,2.657,0,0,1,.916-.779,2.822,2.822,0,0,1-1.189.137,2.611,2.611,0,0,1-2.984-.482a2,2,0,0,1-.7-1.569,2.091,2.091,0,0,1,.878-1.794A4.142,4.142,0,0,1-.335-4.484H.9v-.581A1.42,1.42,0,0,0,.5-6.122,1.593,1.593,0,0,0-.67-6.515,1.844,1.844,0,0,0-1.8-6.173a1.007,1.007,0,0,0-.458.827H-3.534a1.745,1.745,0,0,1,.393-1.07,2.683,2.683,0,0,1,1.066-.817,3.588,3.588,0,0,1,1.48-.3,2.924,2.924,0,0,1,2,.639,2.306,2.306,0,0,1,.752,1.76v3.4a4.162,4.162,0,0,0,.26,1.62V0ZM-1-.964A2.223,2.223,0,0,0,.123-1.271a1.861,1.861,0,0,0,.772-.8V-3.589H-.1q-2.324,0-2.324,1.36a1.151,1.151,0,0,0,.4.93A1.524,1.524,0,0,0-1-.964ZM4.765,0V-6.419H3.6V-7.4H4.765v-.759A2.519,2.519,0,0,1,5.4-9.994a2.4,2.4,0,0,1,1.8-.649,3.319,3.319,0,0,1,.868.116L8-9.5a3.632,3.632,0,0,0-.684-.062,1.236,1.236,0,0,0-.95.359,1.453,1.453,0,0,0-.335,1.029V-7.4H7.608v.978H6.029V0Zm3.9-3.767A4.369,4.369,0,0,1,9.1-5.722a3.187,3.187,0,0,1,1.189-1.34,3.238,3.238,0,0,1,1.74-.472,3.119,3.119,0,0,1,2.444,1.046A4.024,4.024,0,0,1,15.4-3.705v.089a4.407,4.407,0,0,1-.414,1.938A3.14,3.14,0,0,1,13.805-.342a3.275,3.275,0,0,1-1.767.479A3.111,3.111,0,0,1,9.6-.909a4,4,0,0,1-.933-2.769Zm1.271.15a3.164,3.164,0,0,0,.571,1.976A1.827,1.827,0,0,0,12.038-.9a1.816,1.816,0,0,0,1.531-.755,3.46,3.46,0,0,0,.567-2.116,3.159,3.159,0,0,0-.578-1.972,1.836,1.836,0,0,0-1.535-.755,1.816,1.816,0,0,0-1.511.745A3.434,3.434,0,0,0,9.939-3.616ZM18.361,0H17.1V-10.5h1.265Zm3.4,0H20.494V-7.4h1.265ZM20.392-9.358a.755.755,0,0,1,.188-.52.706.706,0,0,1,.557-.212.717.717,0,0,1,.561.212.747.747,0,0,1,.191.52.722.722,0,0,1-.191.513.73.73,0,0,1-.561.205.718.718,0,0,1-.557-.205A.73.73,0,0,1,20.392-9.358Zm3.056,5.592a4.369,4.369,0,0,1,.427-1.955,3.187,3.187,0,0,1,1.189-1.34,3.238,3.238,0,0,1,1.74-.472,3.119,3.119,0,0,1,2.444,1.046,4.024,4.024,0,0,1,.933,2.782v.089a4.407,4.407,0,0,1-.414,1.938A3.14,3.14,0,0,1,28.584-.342a3.275,3.275,0,0,1-1.767.479A3.111,3.111,0,0,1,24.38-.909a4,4,0,0,1-.933-2.769Zm1.271.15a3.164,3.164,0,0,0,.571,1.976A1.827,1.827,0,0,0,26.817-.9a1.816,1.816,0,0,0,1.531-.755,3.46,3.46,0,0,0,.567-2.116,3.159,3.159,0,0,0-.578-1.972A1.836,1.836,0,0,0,26.8-6.494a1.816,1.816,0,0,0-1.511.745A3.434,3.434,0,0,0,24.719-3.616Z" transform="translate(-6819.5 -7959.778)" fill="#00223d"/>
    <g id="Trazado_604134" data-name="Trazado 604134" transform="translate(-7109.5 -7909.699)" fill="#fff">
      <path d="M 99 54 L 6 54 C 3.242985725402832 54 1 51.75701522827148 1 49 L 1 6 C 1 3.242985725402832 3.242985725402832 1 6 1 L 99 1 C 101.7570114135742 1 104 3.242985725402832 104 6 L 104 49 C 104 51.75701522827148 101.7570114135742 54 99 54 Z" stroke="none"/>
      <path d="M 6 2 C 3.794403076171875 2 2 3.794399261474609 2 6 L 2 49 C 2 51.20560073852539 3.794403076171875 53 6 53 L 99 53 C 101.2055969238281 53 103 51.20560073852539 103 49 L 103 6 C 103 3.794399261474609 101.2055969238281 2 99 2 L 6 2 M 6 0 L 99 0 C 102.3137054443359 0 105 2.686290740966797 105 6 L 105 49 C 105 52.3137092590332 102.3137054443359 55 99 55 L 6 55 C 2.686294555664062 55 0 52.3137092590332 0 49 L 0 6 C 0 2.686290740966797 2.686294555664062 0 6 0 Z" stroke="none" fill="#1565c0"/>
    </g>
    <path id="Trazado_604135" data-name="Trazado 604135" d="M-34.935,0V-9.953h2.81a4.523,4.523,0,0,1,2.3.574,3.884,3.884,0,0,1,1.542,1.634,5.318,5.318,0,0,1,.55,2.434v.636a5.336,5.336,0,0,1-.543,2.468A3.823,3.823,0,0,1-29.832-.581,4.811,4.811,0,0,1-32.18,0Zm1.313-8.873v7.8h1.381a3.006,3.006,0,0,0,2.362-.943A3.9,3.9,0,0,0-29.036-4.7v-.581a3.957,3.957,0,0,0-.8-2.635,2.835,2.835,0,0,0-2.259-.954ZM-24.579,0h-1.265V-7.4h1.265Zm-1.367-9.358a.755.755,0,0,1,.188-.52.706.706,0,0,1,.557-.212.717.717,0,0,1,.561.212.747.747,0,0,1,.191.52.722.722,0,0,1-.191.513.73.73,0,0,1-.561.205.718.718,0,0,1-.557-.205A.73.73,0,0,1-25.946-9.358Zm7.7,7.4a.931.931,0,0,0-.386-.8,3.718,3.718,0,0,0-1.347-.489,6.367,6.367,0,0,1-1.524-.492,2.169,2.169,0,0,1-.834-.684,1.635,1.635,0,0,1-.27-.943A1.919,1.919,0,0,1-21.841-6.9a3,3,0,0,1,1.965-.629,3.091,3.091,0,0,1,2.041.649,2.063,2.063,0,0,1,.783,1.661h-1.271a1.142,1.142,0,0,0-.441-.9,1.652,1.652,0,0,0-1.111-.376,1.729,1.729,0,0,0-1.08.3.947.947,0,0,0-.39.786.767.767,0,0,0,.362.69,4.458,4.458,0,0,0,1.309.444,6.821,6.821,0,0,1,1.535.506,2.239,2.239,0,0,1,.872.708,1.74,1.74,0,0,1,.284,1.008,1.893,1.893,0,0,1-.793,1.589,3.326,3.326,0,0,1-2.058.6,3.725,3.725,0,0,1-1.572-.314,2.557,2.557,0,0,1-1.07-.878,2.117,2.117,0,0,1-.386-1.22H-21.6a1.309,1.309,0,0,0,.509,1.008A1.976,1.976,0,0,0-19.834-.9a2.039,2.039,0,0,0,1.152-.291A.893.893,0,0,0-18.249-1.962Zm5.981,2.1a3.232,3.232,0,0,1-2.447-.988,3.666,3.666,0,0,1-.943-2.642v-.232a4.438,4.438,0,0,1,.42-1.965,3.28,3.28,0,0,1,1.176-1.354,2.956,2.956,0,0,1,1.637-.489,2.77,2.77,0,0,1,2.242.95,4.114,4.114,0,0,1,.8,2.721v.526h-5.011a2.629,2.629,0,0,0,.639,1.767A2.009,2.009,0,0,0-12.2-.9a2.2,2.2,0,0,0,1.135-.273,2.851,2.851,0,0,0,.813-.725l.772.6A3.106,3.106,0,0,1-12.267.137Zm-.157-6.631a1.687,1.687,0,0,0-1.285.557,2.708,2.708,0,0,0-.643,1.562h3.705v-.1a2.409,2.409,0,0,0-.52-1.494A1.588,1.588,0,0,0-12.424-6.494Zm5.7-.9.041.93A2.7,2.7,0,0,1-4.467-7.533q2.345,0,2.365,2.646V0H-3.367V-4.895a1.7,1.7,0,0,0-.366-1.183A1.466,1.466,0,0,0-4.85-6.46a1.825,1.825,0,0,0-1.08.328,2.228,2.228,0,0,0-.725.861V0H-7.919V-7.4Zm4.184-2.885a1.7,1.7,0,0,1-.42,1.2,1.365,1.365,0,0,1-1.049.458A1.54,1.54,0,0,1-4.495-8.7a2.619,2.619,0,0,1-.537-.28,2.324,2.324,0,0,0-.479-.256,1.171,1.171,0,0,0-.338-.044.627.627,0,0,0-.479.215.781.781,0,0,0-.2.55l-.848-.048a1.784,1.784,0,0,1,.414-1.21,1.326,1.326,0,0,1,1.049-.479,1.275,1.275,0,0,1,.431.068,3.139,3.139,0,0,1,.52.267,3.057,3.057,0,0,0,.5.26,1.154,1.154,0,0,0,.386.062.612.612,0,0,0,.489-.232.815.815,0,0,0,.195-.54ZM-.53-3.767A4.369,4.369,0,0,1-.1-5.722a3.187,3.187,0,0,1,1.189-1.34,3.238,3.238,0,0,1,1.74-.472A3.119,3.119,0,0,1,5.271-6.487,4.024,4.024,0,0,1,6.2-3.705v.089A4.407,4.407,0,0,1,5.79-1.678,3.14,3.14,0,0,1,4.607-.342,3.275,3.275,0,0,1,2.84.137,3.111,3.111,0,0,1,.4-.909,4,4,0,0,1-.53-3.678Zm1.271.15a3.164,3.164,0,0,0,.571,1.976A1.827,1.827,0,0,0,2.84-.9a1.816,1.816,0,0,0,1.531-.755,3.46,3.46,0,0,0,.567-2.116,3.159,3.159,0,0,0-.578-1.972,1.836,1.836,0,0,0-1.535-.755,1.816,1.816,0,0,0-1.511.745A3.434,3.434,0,0,0,.742-3.616ZM17.8-1.743,19.226-7.4h1.265L18.337,0H17.312l-1.8-5.605L13.764,0H12.739L10.592-7.4H11.85l1.456,5.537L15.029-7.4h1.019ZM24.845.137A3.232,3.232,0,0,1,22.4-.851a3.666,3.666,0,0,1-.943-2.642v-.232a4.438,4.438,0,0,1,.42-1.965,3.28,3.28,0,0,1,1.176-1.354,2.956,2.956,0,0,1,1.637-.489,2.77,2.77,0,0,1,2.242.95,4.114,4.114,0,0,1,.8,2.721v.526H22.719a2.629,2.629,0,0,0,.639,1.767A2.009,2.009,0,0,0,24.914-.9a2.2,2.2,0,0,0,1.135-.273,2.851,2.851,0,0,0,.813-.725l.772.6A3.106,3.106,0,0,1,24.845.137Zm-.157-6.631a1.687,1.687,0,0,0-1.285.557,2.708,2.708,0,0,0-.643,1.562h3.705v-.1a2.409,2.409,0,0,0-.52-1.494A1.588,1.588,0,0,0,24.688-6.494ZM35.455-3.616a4.4,4.4,0,0,1-.779,2.724A2.49,2.49,0,0,1,32.583.137a2.578,2.578,0,0,1-2.167-.991L30.355,0H29.193V-10.5h1.265v3.917a2.564,2.564,0,0,1,2.112-.95,2.505,2.505,0,0,1,2.116,1.019,4.53,4.53,0,0,1,.769,2.789ZM34.19-3.76a3.417,3.417,0,0,0-.5-2,1.652,1.652,0,0,0-1.436-.7,1.857,1.857,0,0,0-1.8,1.162v3.2A1.909,1.909,0,0,0,32.269-.937a1.643,1.643,0,0,0,1.415-.7A3.634,3.634,0,0,0,34.19-3.76Z" transform="translate(-7056.5 -7877.778)" fill="#00223d"/>
    <g id="Trazado_604130" data-name="Trazado 604130" transform="translate(-6988.5 -7909.699)" fill="#fff">
      <path d="M 99 54 L 6 54 C 3.242985725402832 54 1 51.75701522827148 1 49 L 1 6 C 1 3.242985725402832 3.242985725402832 1 6 1 L 99 1 C 101.7570114135742 1 104 3.242985725402832 104 6 L 104 49 C 104 51.75701522827148 101.7570114135742 54 99 54 Z" stroke="none"/>
      <path d="M 6 2 C 3.794403076171875 2 2 3.794399261474609 2 6 L 2 49 C 2 51.20560073852539 3.794403076171875 53 6 53 L 99 53 C 101.2055969238281 53 103 51.20560073852539 103 49 L 103 6 C 103 3.794399261474609 101.2055969238281 2 99 2 L 6 2 M 6 0 L 99 0 C 102.3137054443359 0 105 2.686290740966797 105 6 L 105 49 C 105 52.3137092590332 102.3137054443359 55 99 55 L 6 55 C 2.686294555664062 55 0 52.3137092590332 0 49 L 0 6 C 0 2.686290740966797 2.686294555664062 0 6 0 Z" stroke="none" fill="#1565c0"/>
    </g>
    <path id="Trazado_604132" data-name="Trazado 604132" d="M-6.5-3.158A3.662,3.662,0,0,1-7.667-.721a3.82,3.82,0,0,1-2.608.858A3.507,3.507,0,0,1-13.1-1.128a5.088,5.088,0,0,1-1.063-3.384v-.957a5.671,5.671,0,0,1,.5-2.44,3.7,3.7,0,0,1,1.4-1.617,3.911,3.911,0,0,1,2.105-.564A3.6,3.6,0,0,1-7.615-9.2,3.706,3.706,0,0,1-6.5-6.754H-7.82a2.847,2.847,0,0,0-.742-1.723,2.248,2.248,0,0,0-1.6-.533,2.349,2.349,0,0,0-1.972.93,4.265,4.265,0,0,0-.714,2.646v.964a4.384,4.384,0,0,0,.677,2.577,2.187,2.187,0,0,0,1.894.957,2.526,2.526,0,0,0,1.678-.5A2.75,2.75,0,0,0-7.82-3.158Zm5.441-.868H-3.4V0H-4.717V-9.953h3.295a3.9,3.9,0,0,1,2.587.766,2.755,2.755,0,0,1,.906,2.229,2.68,2.68,0,0,1-.5,1.62,3,3,0,0,1-1.4,1.032L2.509-.082V0H1.1ZM-3.4-5.1h2.017A2.277,2.277,0,0,0,.174-5.605,1.709,1.709,0,0,0,.752-6.959,1.8,1.8,0,0,0,.2-8.374a2.333,2.333,0,0,0-1.589-.5H-3.4Zm9-4.854L8.859-1.832l3.254-8.121h1.7V0H12.5V-3.876l.123-4.184L9.358,0h-1L5.093-8.039l.13,4.163V0H3.91V-9.953Z" transform="translate(-6936.5 -7877.778)" fill="#00223d"/>
    <path id="Trazado_602873" data-name="Trazado 602873" d="M-5945.5-8136v36.755" transform="translate(-1050.5 39.301)" fill="none" stroke="#fb8c00" stroke-width="2"/>
    <path id="Trazado_602874" data-name="Trazado 602874" d="M-5945.5-8136v21.588" transform="translate(-1050.5 107.301)" fill="none" stroke="#fb8c00" stroke-width="2"/>
    <path id="Trazado_602875" data-name="Trazado 602875" d="M-6126-8029v-15.812h353.787V-8029" transform="translate(-1050.5 39.301)" fill="none" stroke="#fb8c00" stroke-width="2"/>
    <path id="Trazado_602876" data-name="Trazado 602876" d="M-5945.5-8136v21.588" transform="translate(-1110 202.409)" fill="none" stroke="#1565c0" stroke-width="2"/>
    <path id="Trazado_602877" data-name="Trazado 602877" d="M-5945.5-8136v21.588" transform="translate(-993 202.409)" fill="none" stroke="#1565c0" stroke-width="2"/>
    <path id="Trazado_604124" data-name="Trazado 604124" d="M2.741-3.7V0H1.012V-9.953H4.819a3.853,3.853,0,0,1,2.649.868,2.918,2.918,0,0,1,.981,2.3,2.821,2.821,0,0,1-.96,2.276A4.04,4.04,0,0,1,4.8-3.7Zm0-1.388H4.819A2.047,2.047,0,0,0,6.228-5.52a1.6,1.6,0,0,0,.485-1.254,1.721,1.721,0,0,0-.492-1.289,1.9,1.9,0,0,0-1.354-.5H2.741ZM14.144,0a2.564,2.564,0,0,1-.191-.69,2.586,2.586,0,0,1-1.941.827A2.61,2.61,0,0,1,10.192-.5a2.034,2.034,0,0,1-.7-1.572,2.1,2.1,0,0,1,.878-1.815,4.257,4.257,0,0,1,2.512-.632H13.9V-5a1.3,1.3,0,0,0-.321-.919,1.274,1.274,0,0,0-.978-.345,1.463,1.463,0,0,0-.93.284.878.878,0,0,0-.362.721H9.646a1.844,1.844,0,0,1,.4-1.138,2.687,2.687,0,0,1,1.1-.831,3.854,3.854,0,0,1,1.548-.3,3.1,3.1,0,0,1,2.071.653,2.328,2.328,0,0,1,.793,1.835v3.336a3.781,3.781,0,0,0,.28,1.593V0ZM12.318-1.2a1.89,1.89,0,0,0,.926-.239,1.6,1.6,0,0,0,.653-.643V-3.473H13a2.449,2.449,0,0,0-1.388.321,1.041,1.041,0,0,0-.465.909.971.971,0,0,0,.318.762A1.231,1.231,0,0,0,12.318-1.2Zm4.689-2.557a4.326,4.326,0,0,1,.81-2.751,2.6,2.6,0,0,1,2.15-1.029,2.436,2.436,0,0,1,1.989.882l.075-.745h1.5V-.226a2.981,2.981,0,0,1-.906,2.3,3.45,3.45,0,0,1-2.444.841,3.939,3.939,0,0,1-1.589-.338,2.824,2.824,0,0,1-1.179-.885l.786-1a2.374,2.374,0,0,0,1.887.909,1.835,1.835,0,0,0,1.306-.448,1.716,1.716,0,0,0,.479-1.316v-.5a2.446,2.446,0,0,1-1.914.8A2.594,2.594,0,0,1,17.832-.9,4.466,4.466,0,0,1,17.008-3.753Zm1.654.144a2.978,2.978,0,0,0,.455,1.753,1.462,1.462,0,0,0,1.261.639,1.6,1.6,0,0,0,1.49-.861V-5.332a1.576,1.576,0,0,0-1.477-.841,1.467,1.467,0,0,0-1.275.649A3.334,3.334,0,0,0,18.662-3.609ZM27,0H25.341V-7.4H27ZM25.238-9.317a.882.882,0,0,1,.243-.636.917.917,0,0,1,.694-.253.928.928,0,0,1,.7.253.875.875,0,0,1,.246.636.855.855,0,0,1-.246.625.935.935,0,0,1-.7.25.924.924,0,0,1-.694-.25A.861.861,0,0,1,25.238-9.317ZM30.352-7.4l.048.854a2.659,2.659,0,0,1,2.153-.991q2.311,0,2.352,2.646V0H33.243V-4.792a1.523,1.523,0,0,0-.3-1.042,1.28,1.28,0,0,0-.995-.338,1.6,1.6,0,0,0-1.5.909V0H28.786V-7.4ZM41.016,0a2.564,2.564,0,0,1-.191-.69,2.586,2.586,0,0,1-1.941.827A2.61,2.61,0,0,1,37.064-.5a2.034,2.034,0,0,1-.7-1.572,2.1,2.1,0,0,1,.878-1.815,4.257,4.257,0,0,1,2.512-.632H40.77V-5a1.3,1.3,0,0,0-.321-.919,1.274,1.274,0,0,0-.978-.345,1.463,1.463,0,0,0-.93.284.878.878,0,0,0-.362.721H36.518a1.844,1.844,0,0,1,.4-1.138,2.687,2.687,0,0,1,1.1-.831,3.854,3.854,0,0,1,1.548-.3,3.1,3.1,0,0,1,2.071.653,2.328,2.328,0,0,1,.793,1.835v3.336a3.781,3.781,0,0,0,.28,1.593V0ZM39.19-1.2a1.89,1.89,0,0,0,.926-.239,1.6,1.6,0,0,0,.653-.643V-3.473h-.9a2.449,2.449,0,0,0-1.388.321,1.041,1.041,0,0,0-.465.909.971.971,0,0,0,.318.762A1.231,1.231,0,0,0,39.19-1.2Zm9.126-.813a.753.753,0,0,0-.366-.677,3.89,3.89,0,0,0-1.213-.41,6.237,6.237,0,0,1-1.415-.451,1.889,1.889,0,0,1-1.244-1.743,1.969,1.969,0,0,1,.807-1.6,3.189,3.189,0,0,1,2.051-.643,3.318,3.318,0,0,1,2.143.656,2.082,2.082,0,0,1,.817,1.7H48.234a1.024,1.024,0,0,0-.355-.8,1.362,1.362,0,0,0-.943-.318,1.472,1.472,0,0,0-.892.253.8.8,0,0,0-.345.677.673.673,0,0,0,.321.595,4.418,4.418,0,0,0,1.3.427,6.148,6.148,0,0,1,1.535.513,2.173,2.173,0,0,1,.827.714A1.822,1.822,0,0,1,49.95-2.1a1.927,1.927,0,0,1-.827,1.617,3.527,3.527,0,0,1-2.167.619,3.825,3.825,0,0,1-1.62-.328,2.666,2.666,0,0,1-1.107-.9,2.136,2.136,0,0,1-.4-1.237h1.613a1.17,1.17,0,0,0,.444.906,1.727,1.727,0,0,0,1.087.318,1.68,1.68,0,0,0,1-.25A.772.772,0,0,0,48.316-2.01ZM61.38-2.29,62.556-7.4h1.62L62.159,0H60.792L59.206-5.079,57.647,0H56.28L54.257-7.4h1.62l1.2,5.052L58.591-7.4h1.251ZM68.544.137a3.437,3.437,0,0,1-2.56-.995A3.608,3.608,0,0,1,65-3.507v-.205a4.438,4.438,0,0,1,.427-1.979,3.252,3.252,0,0,1,1.2-1.357,3.172,3.172,0,0,1,1.723-.485,2.9,2.9,0,0,1,2.334.964,4.076,4.076,0,0,1,.824,2.728v.67H66.678a2.221,2.221,0,0,0,.612,1.449,1.837,1.837,0,0,0,1.35.533A2.249,2.249,0,0,0,70.5-2.112l.9.854A2.99,2.99,0,0,1,70.208-.229,3.713,3.713,0,0,1,68.544.137Zm-.2-6.337a1.4,1.4,0,0,0-1.1.479,2.48,2.48,0,0,0-.537,1.333H69.87v-.123a2.019,2.019,0,0,0-.444-1.261A1.388,1.388,0,0,0,68.346-6.2ZM79.29-3.623a4.443,4.443,0,0,1-.769,2.741A2.505,2.505,0,0,1,76.405.137,2.413,2.413,0,0,1,74.382-.8L74.3,0H72.8V-10.5h1.661v3.814a2.4,2.4,0,0,1,1.935-.848,2.534,2.534,0,0,1,2.126,1,4.517,4.517,0,0,1,.772,2.81Zm-1.661-.144a3.14,3.14,0,0,0-.424-1.8,1.411,1.411,0,0,0-1.23-.6,1.542,1.542,0,0,0-1.518.943v3.049a1.558,1.558,0,0,0,1.531.964,1.4,1.4,0,0,0,1.2-.581,3.043,3.043,0,0,0,.438-1.757Z" transform="translate(-6901.713 -8039.278)" fill="#26aab7"/>
  </g>
</svg>
