<svg xmlns="http://www.w3.org/2000/svg" width="190" height="205" viewBox="0 0 190 205">
  <g id="Grupo_890191" data-name="Grupo 890191" transform="translate(-1020 -2751.193)">
    <rect id="Rectángulo_301330" data-name="Rectángulo 301330" width="190" height="205" rx="26" transform="translate(1020 2751.193)" fill="#fff"/>
    <g id="Grupo_890079" data-name="Grupo 890079" transform="translate(198.8 2547.295)">
      <g id="Grupo_890018" data-name="Grupo 890018" transform="translate(852.669 224.574)">
        <g id="Grupo_890014" data-name="Grupo 890014" transform="translate(0 109.522)">
          <circle id="Elipse_8051" data-name="Elipse 8051" cx="9.624" cy="9.624" r="9.624" transform="translate(1.838 1.838)" fill="#26aab7"/>
          <path id="Trazado_605021" data-name="Trazado 605021" d="M864.131,634.869a11.462,11.462,0,1,1,11.462-11.462A11.475,11.475,0,0,1,864.131,634.869Zm0-19.249a7.787,7.787,0,1,0,7.787,7.787A7.8,7.8,0,0,0,864.131,615.621Z" transform="translate(-852.669 -611.945)" fill="#161615"/>
        </g>
        <g id="Grupo_890015" data-name="Grupo 890015" transform="translate(10.288 0)">
          <path id="Trazado_605022" data-name="Trazado 605022" d="M965.528,231.074H918.7a23.142,23.142,0,0,0-23.142,23.142V365.233A23.142,23.142,0,0,0,918.7,388.375h66.808a23.142,23.142,0,0,0,23.142-23.142V274.195Z" transform="translate(-893.718 -229.236)" fill="#fff"/>
          <path id="Trazado_605023" data-name="Trazado 605023" d="M980.844,385.551H914.036a25.008,25.008,0,0,1-24.98-24.98V249.554a25.008,25.008,0,0,1,24.98-24.98h46.83a1.837,1.837,0,0,1,1.3.538l43.121,43.121a1.837,1.837,0,0,1,.538,1.3v91.038A25.008,25.008,0,0,1,980.844,385.551Zm-66.808-157.3a21.329,21.329,0,0,0-21.3,21.3V360.571a21.329,21.329,0,0,0,21.3,21.3h66.808a21.329,21.329,0,0,0,21.3-21.3V270.294L960.1,228.25Z" transform="translate(-889.056 -224.574)" fill="#161615"/>
        </g>
        <g id="Grupo_890016" data-name="Grupo 890016" transform="translate(80.26 0)">
          <path id="Trazado_605024" data-name="Trazado 605024" d="M1143.041,231.074l43.121,43.121h-33.925a9.2,9.2,0,0,1-9.2-9.2Z" transform="translate(-1141.203 -229.236)" fill="#dddddc"/>
          <path id="Trazado_605025" data-name="Trazado 605025" d="M1181.505,271.37h-33.931a11.046,11.046,0,0,1-11.034-11.034V226.412a1.838,1.838,0,0,1,3.137-1.3l43.038,43.038a1.838,1.838,0,0,1-1.211,3.22Zm-41.289-40.522v29.488a7.366,7.366,0,0,0,7.358,7.358h29.488Z" transform="translate(-1136.541 -224.574)" fill="#161615"/>
        </g>
        <g id="Grupo_890017" data-name="Grupo 890017" transform="translate(0.149 63.648)">
          <path id="Trazado_605026" data-name="Trazado 605026" d="M870.046,456.192A10.351,10.351,0,0,0,859.7,466.543v43.344h.19a10.352,10.352,0,0,1,10.161-8.38H974.283V456.192Z" transform="translate(-857.857 -454.354)" fill="#26aab7"/>
          <path id="Trazado_605027" data-name="Trazado 605027" d="M855.223,507.063h-.19a1.838,1.838,0,0,1-1.838-1.838V461.881a12.2,12.2,0,0,1,12.188-12.189H969.62a1.838,1.838,0,0,1,1.838,1.838v45.315a1.838,1.838,0,0,1-1.838,1.838H865.384a8.518,8.518,0,0,0-8.357,6.89A1.838,1.838,0,0,1,855.223,507.063Zm10.161-53.7a8.523,8.523,0,0,0-8.513,8.513v36.6a12.183,12.183,0,0,1,8.513-3.47h102.4v-41.64Z" transform="translate(-853.195 -449.692)" fill="#161615"/>
        </g>
      </g>
    </g>
    <path id="Trazado_605234" data-name="Trazado 605234" d="M13.3-5.833l1.794-9.808h3.738L15.512,0H11.6L9.507-8.916,7.455,0h-3.9L.226-15.641H3.975L5.769-5.833l2.148-9.808h3.2ZM25.427.215A5.975,5.975,0,0,1,21.1-1.38a5.509,5.509,0,0,1-1.654-4.152v-.3A7.138,7.138,0,0,1,20.1-8.98a4.834,4.834,0,0,1,1.928-2.111,5.821,5.821,0,0,1,3.008-.747,5.031,5.031,0,0,1,3.867,1.52A5.973,5.973,0,0,1,30.325-6.08v1.407h-7.2a2.609,2.609,0,0,0,.849,1.536,2.525,2.525,0,0,0,1.7.559,3.254,3.254,0,0,0,2.686-1.2l1.654,1.955A4.624,4.624,0,0,1,28.1-.338,6.48,6.48,0,0,1,25.427.215Zm-.408-9.26q-1.59,0-1.891,2.105H26.78v-.279a1.793,1.793,0,0,0-.44-1.348A1.753,1.753,0,0,0,25.019-9.045Zm17.553,3.33A7.084,7.084,0,0,1,41.39-1.321,3.958,3.958,0,0,1,38.06.215,3.435,3.435,0,0,1,35.2-1.192L35.052,0H31.808V-16.5h3.62v5.812a3.314,3.314,0,0,1,2.61-1.149A3.959,3.959,0,0,1,41.39-10.28,7.121,7.121,0,0,1,42.571-5.9ZM38.94-5.94a4.74,4.74,0,0,0-.446-2.39,1.5,1.5,0,0,0-1.37-.714,1.733,1.733,0,0,0-1.7.935v4.619a1.742,1.742,0,0,0,1.719.924,1.538,1.538,0,0,0,1.622-1.246A8.963,8.963,0,0,0,38.94-5.94Zm10.345-9.7L52.776-4.759l3.48-10.882H61.22V0H57.438V-3.652l.365-7.477L54.022,0H51.53L47.738-11.14,48.1-3.652V0H44.333V-15.641Z" transform="translate(1090 2867.193)" fill="#00223d"/>
  </g>
</svg>
