<svg xmlns="http://www.w3.org/2000/svg" width="525" height="371" viewBox="0 0 525 371">
  <g id="Grupo_890302" data-name="Grupo 890302" transform="translate(-1876 10932)">
    <path id="Trazado_605278" data-name="Trazado 605278" d="M0,0H525V371H0Z" transform="translate(1876 -10932)" fill="#f3f9ff"/>
    <g id="Grupo_890301" data-name="Grupo 890301" transform="translate(-5 -7)">
      <path id="Trazado_605245" data-name="Trazado 605245" d="M0,0H439V85H0Z" transform="translate(1924 -10895)" fill="#fb8c00"/>
      <path id="Trazado_605246" data-name="Trazado 605246" d="M0,0H439V32H0Z" transform="translate(1924 -10803)" fill="#b2ebf2"/>
      <path id="Trazado_605248" data-name="Trazado 605248" d="M0,0H282V105H0Z" transform="translate(1924 -10764)" fill="#b2ebf2"/>
      <path id="Trazado_605249" data-name="Trazado 605249" d="M0,0H149V105H0Z" transform="translate(2215 -10764)" fill="#b2ebf2"/>
      <path id="Trazado_605253" data-name="Trazado 605253" d="M0,0H439V68H0Z" transform="translate(1924 -10652)" fill="#12263f"/>
      <path id="Trazado_605247" data-name="Trazado 605247" d="M-27.018-4.166A4.621,4.621,0,0,1-28.529-.971,5.154,5.154,0,0,1-32.036.176,4.99,4.99,0,0,1-34.73-.549a4.759,4.759,0,0,1-1.8-2.061,7.438,7.438,0,0,1-.659-3.1v-1.2a7.491,7.491,0,0,1,.642-3.19A4.835,4.835,0,0,1-34.7-12.226a5.136,5.136,0,0,1,2.773-.747,4.934,4.934,0,0,1,3.41,1.151,4.81,4.81,0,0,1,1.5,3.252h-2.215a3.161,3.161,0,0,0-.8-1.991,2.658,2.658,0,0,0-1.894-.611,2.6,2.6,0,0,0-2.228,1.059A5.289,5.289,0,0,0-34.954-7v1.134a5.611,5.611,0,0,0,.743,3.164,2.465,2.465,0,0,0,2.175,1.09,2.875,2.875,0,0,0,1.969-.589,3.071,3.071,0,0,0,.835-1.96ZM-19.556,0A3.3,3.3,0,0,1-19.8-.888,3.325,3.325,0,0,1-22.3.176a3.355,3.355,0,0,1-2.338-.817,2.615,2.615,0,0,1-.905-2.021A2.7,2.7,0,0,1-24.412-5a5.473,5.473,0,0,1,3.23-.813h1.31v-.624a1.666,1.666,0,0,0-.413-1.182,1.638,1.638,0,0,0-1.257-.444,1.881,1.881,0,0,0-1.2.365,1.129,1.129,0,0,0-.466.927h-2.136a2.37,2.37,0,0,1,.519-1.463A3.455,3.455,0,0,1-23.41-9.3a4.955,4.955,0,0,1,1.991-.387,3.99,3.99,0,0,1,2.663.839,2.993,2.993,0,0,1,1.02,2.36V-2.2a4.861,4.861,0,0,0,.36,2.048V0ZM-21.9-1.538a2.429,2.429,0,0,0,1.191-.308,2.055,2.055,0,0,0,.839-.826V-4.465h-1.151a3.148,3.148,0,0,0-1.784.413,1.338,1.338,0,0,0-.6,1.169A1.248,1.248,0,0,0-23-1.9,1.583,1.583,0,0,0-21.9-1.538Zm14.748-3.12a5.712,5.712,0,0,1-.989,3.524,3.221,3.221,0,0,1-2.72,1.31,3.1,3.1,0,0,1-2.6-1.2L-13.57,0H-15.5V-13.5h2.136v4.9a3.091,3.091,0,0,1,2.487-1.09A3.258,3.258,0,0,1-8.147-8.394a5.807,5.807,0,0,1,.993,3.612ZM-9.29-4.843a4.037,4.037,0,0,0-.545-2.32,1.815,1.815,0,0,0-1.582-.773,1.983,1.983,0,0,0-1.951,1.213V-2.8A2,2,0,0,0-11.4-1.564a1.8,1.8,0,0,0,1.547-.747A3.912,3.912,0,0,0-9.29-4.57ZM-1.178.176A4.419,4.419,0,0,1-4.469-1.1,4.639,4.639,0,0,1-5.73-4.509v-.264a5.706,5.706,0,0,1,.549-2.544A4.181,4.181,0,0,1-3.639-9.062a4.078,4.078,0,0,1,2.215-.624,3.733,3.733,0,0,1,3,1.239A5.24,5.24,0,0,1,2.637-4.939v.861H-3.577a2.856,2.856,0,0,0,.787,1.863,2.362,2.362,0,0,0,1.736.686A2.892,2.892,0,0,0,1.336-2.716l1.151,1.1A3.845,3.845,0,0,1,.962-.294,4.774,4.774,0,0,1-1.178.176Zm-.255-8.147a1.8,1.8,0,0,0-1.419.615,3.189,3.189,0,0,0-.69,1.714H.527V-5.8A2.6,2.6,0,0,0-.044-7.422,1.785,1.785,0,0,0-1.433-7.972ZM8.2-1.529A1.931,1.931,0,0,0,9.527-2a1.591,1.591,0,0,0,.563-1.151H12.1a3.137,3.137,0,0,1-.554,1.657A3.632,3.632,0,0,1,10.143-.272,4.191,4.191,0,0,1,8.227.176,4.055,4.055,0,0,1,5.063-1.116,5.124,5.124,0,0,1,3.894-4.685V-4.9A5.039,5.039,0,0,1,5.054-8.38,4.018,4.018,0,0,1,8.218-9.686a3.907,3.907,0,0,1,2.764.989A3.542,3.542,0,0,1,12.1-6.1H10.09a1.956,1.956,0,0,0-.558-1.345A1.8,1.8,0,0,0,8.2-7.972a1.879,1.879,0,0,0-1.6.751,3.834,3.834,0,0,0-.571,2.281V-4.6A3.9,3.9,0,0,0,6.587-2.29,1.878,1.878,0,0,0,8.2-1.529ZM17.9.176A4.419,4.419,0,0,1,14.612-1.1a4.639,4.639,0,0,1-1.261-3.406v-.264A5.706,5.706,0,0,1,13.9-7.317a4.181,4.181,0,0,1,1.542-1.745,4.078,4.078,0,0,1,2.215-.624,3.733,3.733,0,0,1,3,1.239,5.24,5.24,0,0,1,1.059,3.507v.861H15.5a2.856,2.856,0,0,0,.787,1.863,2.362,2.362,0,0,0,1.736.686,2.892,2.892,0,0,0,2.391-1.187l1.151,1.1A3.845,3.845,0,0,1,20.043-.294,4.774,4.774,0,0,1,17.9.176Zm-.255-8.147a1.8,1.8,0,0,0-1.419.615,3.189,3.189,0,0,0-.69,1.714h4.069V-5.8a2.6,2.6,0,0,0-.571-1.622A1.785,1.785,0,0,0,17.648-7.972Zm10.705.413a5.285,5.285,0,0,0-.87-.07A1.959,1.959,0,0,0,25.506-6.5V0H23.37V-9.51h2.039l.053,1.063a2.406,2.406,0,0,1,2.145-1.239,2,2,0,0,1,.756.123ZM35.121,0a3.3,3.3,0,0,1-.246-.888,3.325,3.325,0,0,1-2.5,1.063,3.355,3.355,0,0,1-2.338-.817,2.615,2.615,0,0,1-.905-2.021A2.7,2.7,0,0,1,30.265-5,5.473,5.473,0,0,1,33.5-5.81H34.8v-.624a1.666,1.666,0,0,0-.413-1.182,1.638,1.638,0,0,0-1.257-.444,1.881,1.881,0,0,0-1.2.365,1.129,1.129,0,0,0-.466.927H29.338a2.37,2.37,0,0,1,.519-1.463A3.455,3.455,0,0,1,31.267-9.3a4.955,4.955,0,0,1,1.991-.387,3.99,3.99,0,0,1,2.663.839,2.993,2.993,0,0,1,1.02,2.36V-2.2A4.861,4.861,0,0,0,37.3-.149V0ZM32.774-1.538a2.429,2.429,0,0,0,1.191-.308,2.055,2.055,0,0,0,.839-.826V-4.465H33.653a3.148,3.148,0,0,0-1.784.413,1.338,1.338,0,0,0-.6,1.169,1.248,1.248,0,0,0,.409.98A1.583,1.583,0,0,0,32.774-1.538Z" transform="translate(2144 -10845)" fill="#12263f"/>
      <path id="Trazado_605250" data-name="Trazado 605250" d="M-18.532-12.8l3.691,9.809,3.683-9.809h2.874V0H-10.5V-4.219l.22-5.643L-14.058,0h-1.591l-3.771-9.853.22,5.634V0h-2.215V-12.8ZM-1.674.176A4.419,4.419,0,0,1-4.966-1.1,4.639,4.639,0,0,1-6.227-4.509v-.264a5.706,5.706,0,0,1,.549-2.544A4.181,4.181,0,0,1-4.135-9.062,4.078,4.078,0,0,1-1.92-9.686a3.733,3.733,0,0,1,3,1.239A5.24,5.24,0,0,1,2.14-4.939v.861H-4.074a2.856,2.856,0,0,0,.787,1.863,2.362,2.362,0,0,0,1.736.686A2.892,2.892,0,0,0,.839-2.716l1.151,1.1A3.845,3.845,0,0,1,.466-.294,4.774,4.774,0,0,1-1.674.176Zm-.255-8.147a1.8,1.8,0,0,0-1.419.615,3.189,3.189,0,0,0-.69,1.714H.031V-5.8A2.6,2.6,0,0,0-.541-7.422,1.785,1.785,0,0,0-1.929-7.972ZM5.779-9.51l.062,1.1A3.419,3.419,0,0,1,8.609-9.686q2.971,0,3.023,3.4V0H9.5V-6.161A1.958,1.958,0,0,0,9.105-7.5a1.645,1.645,0,0,0-1.279-.435A2.058,2.058,0,0,0,5.9-6.768V0H3.766V-9.51ZM19.569-.932A3.312,3.312,0,0,1,16.9.176a2.952,2.952,0,0,1-2.342-.905,3.851,3.851,0,0,1-.8-2.619V-9.51H15.9v6.135q0,1.811,1.5,1.811a2.111,2.111,0,0,0,2.1-1.116V-9.51h2.136V0H19.622ZM18.347-13.5h2.435l-2.435,2.663H16.633Z" transform="translate(2144 -10780)" fill="#12263f"/>
      <path id="Trazado_605251" data-name="Trazado 605251" d="M-33.618,0h-2.215V-12.8h2.215Zm4.808-1.705h5.063V0h-7.717V-1.4l4.825-6.39h-4.737V-9.51h7.444v1.354Zm6.231-3.129a5.619,5.619,0,0,1,1.02-3.542,3.313,3.313,0,0,1,2.76-1.31,3.114,3.114,0,0,1,2.522,1.116l.123-.94h1.9V3.656h-2.136V-.809a3.188,3.188,0,0,1-2.426.984,3.282,3.282,0,0,1-2.733-1.332A5.884,5.884,0,0,1-22.579-4.834Zm2.136.185a3.968,3.968,0,0,0,.576,2.29,1.835,1.835,0,0,0,1.6.831A2.023,2.023,0,0,0-16.392-2.61V-6.935a2.025,2.025,0,0,0-1.863-1.037,1.866,1.866,0,0,0-1.6.817A4.33,4.33,0,0,0-20.443-4.649ZM-6.2-.932A3.312,3.312,0,0,1-8.868.176,2.952,2.952,0,0,1-11.21-.729a3.851,3.851,0,0,1-.8-2.619V-9.51H-9.87v6.135q0,1.811,1.5,1.811a2.111,2.111,0,0,0,2.1-1.116V-9.51h2.136V0H-6.144ZM.316,0H-1.819V-9.51H.316ZM-1.951-11.979a1.133,1.133,0,0,1,.312-.817,1.179,1.179,0,0,1,.892-.325,1.193,1.193,0,0,1,.9.325,1.125,1.125,0,0,1,.316.817,1.1,1.1,0,0,1-.316.8,1.2,1.2,0,0,1-.9.321,1.188,1.188,0,0,1-.892-.321A1.107,1.107,0,0,1-1.951-11.979ZM6.829.176A4.419,4.419,0,0,1,3.538-1.1,4.639,4.639,0,0,1,2.276-4.509v-.264a5.706,5.706,0,0,1,.549-2.544A4.181,4.181,0,0,1,4.368-9.062a4.078,4.078,0,0,1,2.215-.624,3.733,3.733,0,0,1,3,1.239,5.24,5.24,0,0,1,1.059,3.507v.861H4.43a2.856,2.856,0,0,0,.787,1.863,2.362,2.362,0,0,0,1.736.686A2.892,2.892,0,0,0,9.343-2.716l1.151,1.1A3.845,3.845,0,0,1,8.969-.294,4.774,4.774,0,0,1,6.829.176ZM6.574-7.972a1.8,1.8,0,0,0-1.419.615,3.189,3.189,0,0,0-.69,1.714H8.534V-5.8a2.6,2.6,0,0,0-.571-1.622A1.785,1.785,0,0,0,6.574-7.972Zm10.705.413a5.285,5.285,0,0,0-.87-.07A1.959,1.959,0,0,0,14.432-6.5V0H12.3V-9.51h2.039l.053,1.063a2.406,2.406,0,0,1,2.145-1.239,2,2,0,0,1,.756.123Zm.782,2.733a5.654,5.654,0,0,1,1.02-3.529,3.267,3.267,0,0,1,2.733-1.332,3.1,3.1,0,0,1,2.443,1.055V-13.5h2.136V0H24.46l-.105-.984A3.148,3.148,0,0,1,21.8.176a3.248,3.248,0,0,1-2.7-1.345A5.861,5.861,0,0,1,18.062-4.825Zm2.136.185a3.958,3.958,0,0,0,.558,2.263,1.811,1.811,0,0,0,1.586.813,2.017,2.017,0,0,0,1.916-1.169V-6.794a1.986,1.986,0,0,0-1.9-1.143,1.824,1.824,0,0,0-1.6.822A4.408,4.408,0,0,0,20.2-4.641ZM34.3,0a3.3,3.3,0,0,1-.246-.888,3.325,3.325,0,0,1-2.5,1.063,3.355,3.355,0,0,1-2.338-.817,2.615,2.615,0,0,1-.905-2.021A2.7,2.7,0,0,1,29.448-5a5.473,5.473,0,0,1,3.23-.813h1.31v-.624a1.666,1.666,0,0,0-.413-1.182,1.638,1.638,0,0,0-1.257-.444,1.881,1.881,0,0,0-1.2.365,1.129,1.129,0,0,0-.466.927H28.521a2.37,2.37,0,0,1,.519-1.463A3.455,3.455,0,0,1,30.45-9.3a4.955,4.955,0,0,1,1.991-.387,3.99,3.99,0,0,1,2.663.839,2.993,2.993,0,0,1,1.02,2.36V-2.2a4.861,4.861,0,0,0,.36,2.048V0ZM31.957-1.538a2.429,2.429,0,0,0,1.191-.308,2.055,2.055,0,0,0,.839-.826V-4.465H32.836a3.148,3.148,0,0,0-1.784.413,1.338,1.338,0,0,0-.6,1.169,1.248,1.248,0,0,0,.409.98A1.583,1.583,0,0,0,31.957-1.538Z" transform="translate(2065 -10705)" fill="#12263f"/>
      <path id="Trazado_605252" data-name="Trazado 605252" d="M-31.9,0V-12.8h3.779a5.928,5.928,0,0,1,3.01.756A5.154,5.154,0,0,1-23.071-9.9a6.807,6.807,0,0,1,.721,3.182v.642a6.779,6.779,0,0,1-.725,3.2A5.092,5.092,0,0,1-25.141-.747,6.2,6.2,0,0,1-28.213,0Zm2.224-11v9.229h1.45A3.339,3.339,0,0,0-25.537-2.87a4.766,4.766,0,0,0,.954-3.142v-.712a4.891,4.891,0,0,0-.905-3.182A3.209,3.209,0,0,0-28.116-11ZM-16.154.176A4.419,4.419,0,0,1-19.446-1.1a4.639,4.639,0,0,1-1.261-3.406v-.264a5.706,5.706,0,0,1,.549-2.544,4.181,4.181,0,0,1,1.542-1.745A4.078,4.078,0,0,1-16.4-9.686a3.733,3.733,0,0,1,3,1.239A5.24,5.24,0,0,1-12.34-4.939v.861h-6.214a2.856,2.856,0,0,0,.787,1.863,2.362,2.362,0,0,0,1.736.686,2.892,2.892,0,0,0,2.391-1.187l1.151,1.1A3.845,3.845,0,0,1-14.014-.294,4.774,4.774,0,0,1-16.154.176Zm-.255-8.147a1.8,1.8,0,0,0-1.419.615,3.189,3.189,0,0,0-.69,1.714h4.069V-5.8a2.6,2.6,0,0,0-.571-1.622A1.785,1.785,0,0,0-16.409-7.972ZM-5.7-7.559a5.285,5.285,0,0,0-.87-.07A1.959,1.959,0,0,0-8.552-6.5V0h-2.136V-9.51h2.039L-8.6-8.446A2.406,2.406,0,0,1-6.451-9.686a2,2,0,0,1,.756.123ZM-.334.176A4.419,4.419,0,0,1-3.625-1.1,4.639,4.639,0,0,1-4.887-4.509v-.264a5.706,5.706,0,0,1,.549-2.544A4.181,4.181,0,0,1-2.795-9.062,4.078,4.078,0,0,1-.58-9.686a3.733,3.733,0,0,1,3,1.239A5.24,5.24,0,0,1,3.48-4.939v.861H-2.733a2.856,2.856,0,0,0,.787,1.863,2.362,2.362,0,0,0,1.736.686A2.892,2.892,0,0,0,2.18-2.716l1.151,1.1A3.845,3.845,0,0,1,1.806-.294,4.774,4.774,0,0,1-.334.176ZM-.589-7.972a1.8,1.8,0,0,0-1.419.615A3.189,3.189,0,0,0-2.7-5.643H1.371V-5.8A2.6,2.6,0,0,0,.8-7.422,1.785,1.785,0,0,0-.589-7.972ZM9.044-1.529A1.931,1.931,0,0,0,10.371-2a1.591,1.591,0,0,0,.563-1.151h2.013a3.137,3.137,0,0,1-.554,1.657A3.632,3.632,0,0,1,10.986-.272,4.191,4.191,0,0,1,9.07.176,4.055,4.055,0,0,1,5.906-1.116,5.124,5.124,0,0,1,4.737-4.685V-4.9A5.039,5.039,0,0,1,5.9-8.38,4.018,4.018,0,0,1,9.062-9.686a3.907,3.907,0,0,1,2.764.989,3.542,3.542,0,0,1,1.121,2.6H10.934a1.956,1.956,0,0,0-.558-1.345,1.8,1.8,0,0,0-1.332-.527,1.879,1.879,0,0,0-1.6.751,3.834,3.834,0,0,0-.571,2.281V-4.6A3.9,3.9,0,0,0,7.431-2.29,1.878,1.878,0,0,0,9.044-1.529Zm7.62-6.943A3.343,3.343,0,0,1,19.31-9.686q3.041,0,3.085,3.472V0H20.259V-6.135a1.878,1.878,0,0,0-.426-1.393,1.743,1.743,0,0,0-1.252-.409,2.057,2.057,0,0,0-1.916,1.143V0H14.528V-13.5h2.136ZM30.234,0a3.3,3.3,0,0,1-.246-.888,3.325,3.325,0,0,1-2.5,1.063,3.355,3.355,0,0,1-2.338-.817,2.615,2.615,0,0,1-.905-2.021A2.7,2.7,0,0,1,25.378-5a5.473,5.473,0,0,1,3.23-.813h1.31v-.624A1.666,1.666,0,0,0,29.5-7.616a1.638,1.638,0,0,0-1.257-.444,1.881,1.881,0,0,0-1.2.365,1.129,1.129,0,0,0-.466.927H24.451a2.37,2.37,0,0,1,.519-1.463A3.455,3.455,0,0,1,26.38-9.3a4.955,4.955,0,0,1,1.991-.387,3.99,3.99,0,0,1,2.663.839,2.993,2.993,0,0,1,1.02,2.36V-2.2a4.861,4.861,0,0,0,.36,2.048V0ZM27.888-1.538a2.429,2.429,0,0,0,1.191-.308,2.055,2.055,0,0,0,.839-.826V-4.465H28.767a3.148,3.148,0,0,0-1.784.413,1.338,1.338,0,0,0-.6,1.169,1.248,1.248,0,0,0,.409.98A1.583,1.583,0,0,0,27.888-1.538Z" transform="translate(2290 -10705)" fill="#12263f"/>
      <path id="Trazado_605254" data-name="Trazado 605254" d="M-50.959-4.755V0h-2.224V-12.8h4.9a4.954,4.954,0,0,1,3.406,1.116A3.751,3.751,0,0,1-43.62-8.728,3.627,3.627,0,0,1-44.855-5.8a5.194,5.194,0,0,1-3.458,1.046Zm0-1.784h2.672A2.632,2.632,0,0,0-46.477-7.1a2.051,2.051,0,0,0,.624-1.613,2.213,2.213,0,0,0-.633-1.657A2.439,2.439,0,0,0-48.226-11h-2.733ZM-39.612,0h-2.136V-9.51h2.136ZM-41.88-11.979a1.133,1.133,0,0,1,.312-.817,1.179,1.179,0,0,1,.892-.325,1.193,1.193,0,0,1,.9.325,1.125,1.125,0,0,1,.316.817,1.1,1.1,0,0,1-.316.8,1.2,1.2,0,0,1-.9.321,1.188,1.188,0,0,1-.892-.321A1.107,1.107,0,0,1-41.88-11.979ZM-33.1.176A4.419,4.419,0,0,1-36.391-1.1a4.639,4.639,0,0,1-1.261-3.406v-.264A5.706,5.706,0,0,1-37.1-7.317a4.181,4.181,0,0,1,1.542-1.745,4.078,4.078,0,0,1,2.215-.624,3.733,3.733,0,0,1,3,1.239,5.24,5.24,0,0,1,1.059,3.507v.861H-35.5a2.856,2.856,0,0,0,.787,1.863,2.362,2.362,0,0,0,1.736.686,2.892,2.892,0,0,0,2.391-1.187l1.151,1.1A3.845,3.845,0,0,1-30.959-.294,4.774,4.774,0,0,1-33.1.176Zm-.255-8.147a1.8,1.8,0,0,0-1.419.615,3.189,3.189,0,0,0-.69,1.714h4.069V-5.8a2.6,2.6,0,0,0-.571-1.622A1.785,1.785,0,0,0-33.354-7.972Zm9.809,3.146a5.654,5.654,0,0,1,1.02-3.529,3.267,3.267,0,0,1,2.733-1.332A3.1,3.1,0,0,1-17.35-8.631V-13.5h2.136V0h-1.934l-.105-.984A3.148,3.148,0,0,1-19.811.176a3.248,3.248,0,0,1-2.7-1.345A5.861,5.861,0,0,1-23.546-4.825Zm2.136.185a3.958,3.958,0,0,0,.558,2.263,1.811,1.811,0,0,0,1.586.813A2.017,2.017,0,0,0-17.35-2.733V-6.794a1.986,1.986,0,0,0-1.9-1.143,1.824,1.824,0,0,0-1.6.822A4.408,4.408,0,0,0-21.41-4.641ZM-8.8.176A4.419,4.419,0,0,1-12.089-1.1a4.639,4.639,0,0,1-1.261-3.406v-.264A5.706,5.706,0,0,1-12.8-7.317a4.181,4.181,0,0,1,1.542-1.745,4.078,4.078,0,0,1,2.215-.624,3.733,3.733,0,0,1,3,1.239A5.24,5.24,0,0,1-4.983-4.939v.861H-11.2a2.856,2.856,0,0,0,.787,1.863,2.362,2.362,0,0,0,1.736.686A2.892,2.892,0,0,0-6.284-2.716l1.151,1.1A3.845,3.845,0,0,1-6.658-.294,4.774,4.774,0,0,1-8.8.176Zm-.255-8.147a1.8,1.8,0,0,0-1.419.615,3.189,3.189,0,0,0-.69,1.714h4.069V-5.8a2.6,2.6,0,0,0-.571-1.622A1.785,1.785,0,0,0-9.053-7.972ZM9.483-4.658a5.662,5.662,0,0,1-1,3.52A3.209,3.209,0,0,1,5.792.176a3.23,3.23,0,0,1-2.5-1.028V3.656H1.151V-9.51H3.12l.088.967A3.137,3.137,0,0,1,5.766-9.686a3.242,3.242,0,0,1,2.729,1.3,5.813,5.813,0,0,1,.989,3.6ZM7.356-4.843A3.966,3.966,0,0,0,6.79-7.1a1.843,1.843,0,0,0-1.622-.835A1.965,1.965,0,0,0,3.287-6.855v4.219a1.983,1.983,0,0,0,1.9,1.107,1.841,1.841,0,0,0,1.6-.822A4.366,4.366,0,0,0,7.356-4.843ZM16.972,0a3.3,3.3,0,0,1-.246-.888,3.325,3.325,0,0,1-2.5,1.063,3.355,3.355,0,0,1-2.338-.817,2.615,2.615,0,0,1-.905-2.021A2.7,2.7,0,0,1,12.116-5a5.473,5.473,0,0,1,3.23-.813h1.31v-.624a1.666,1.666,0,0,0-.413-1.182,1.638,1.638,0,0,0-1.257-.444,1.881,1.881,0,0,0-1.2.365,1.129,1.129,0,0,0-.466.927H11.188a2.37,2.37,0,0,1,.519-1.463A3.455,3.455,0,0,1,13.118-9.3a4.955,4.955,0,0,1,1.991-.387,3.99,3.99,0,0,1,2.663.839,2.993,2.993,0,0,1,1.02,2.36V-2.2a4.861,4.861,0,0,0,.36,2.048V0ZM14.625-1.538a2.429,2.429,0,0,0,1.191-.308,2.055,2.055,0,0,0,.839-.826V-4.465H15.5a3.148,3.148,0,0,0-1.784.413,1.338,1.338,0,0,0-.6,1.169,1.248,1.248,0,0,0,.409.98A1.583,1.583,0,0,0,14.625-1.538ZM15.812-13.5h2.435l-2.435,2.663H14.1Zm4.843,8.675A5.562,5.562,0,0,1,21.7-8.363,3.343,3.343,0,0,1,24.46-9.686a3.132,3.132,0,0,1,2.558,1.134l.1-.958h1.925V-.29a3.832,3.832,0,0,1-1.165,2.953,4.436,4.436,0,0,1-3.142,1.081,5.064,5.064,0,0,1-2.043-.435,3.631,3.631,0,0,1-1.516-1.138L22.184.888a3.053,3.053,0,0,0,2.426,1.169,2.359,2.359,0,0,0,1.679-.576A2.206,2.206,0,0,0,26.9-.211V-.853A3.144,3.144,0,0,1,24.442.176a3.335,3.335,0,0,1-2.729-1.327A5.742,5.742,0,0,1,20.654-4.825Zm2.127.185a3.829,3.829,0,0,0,.584,2.254,1.879,1.879,0,0,0,1.622.822A2.055,2.055,0,0,0,26.9-2.672V-6.855A2.026,2.026,0,0,0,25-7.937a1.887,1.887,0,0,0-1.639.835A4.287,4.287,0,0,0,22.781-4.641ZM33.5,0H31.368V-9.51H33.5ZM31.236-11.979a1.133,1.133,0,0,1,.312-.817,1.179,1.179,0,0,1,.892-.325,1.193,1.193,0,0,1,.9.325,1.125,1.125,0,0,1,.316.817,1.1,1.1,0,0,1-.316.8,1.2,1.2,0,0,1-.9.321,1.188,1.188,0,0,1-.892-.321A1.107,1.107,0,0,1,31.236-11.979Zm6.574,2.47.062,1.1a3.419,3.419,0,0,1,2.769-1.274q2.971,0,3.023,3.4V0H41.528V-6.161a1.958,1.958,0,0,0-.391-1.34,1.645,1.645,0,0,0-1.279-.435,2.058,2.058,0,0,0-1.925,1.169V0H35.8V-9.51ZM51.521,0a3.3,3.3,0,0,1-.246-.888,3.325,3.325,0,0,1-2.5,1.063,3.355,3.355,0,0,1-2.338-.817,2.615,2.615,0,0,1-.905-2.021A2.7,2.7,0,0,1,46.666-5,5.473,5.473,0,0,1,49.9-5.81h1.31v-.624a1.666,1.666,0,0,0-.413-1.182,1.638,1.638,0,0,0-1.257-.444,1.881,1.881,0,0,0-1.2.365,1.129,1.129,0,0,0-.466.927H45.738a2.37,2.37,0,0,1,.519-1.463A3.455,3.455,0,0,1,47.667-9.3a4.955,4.955,0,0,1,1.991-.387,3.99,3.99,0,0,1,2.663.839,2.993,2.993,0,0,1,1.02,2.36V-2.2A4.861,4.861,0,0,0,53.7-.149V0ZM49.175-1.538a2.429,2.429,0,0,0,1.191-.308,2.055,2.055,0,0,0,.839-.826V-4.465H50.054a3.148,3.148,0,0,0-1.784.413,1.338,1.338,0,0,0-.6,1.169,1.248,1.248,0,0,0,.409.98A1.583,1.583,0,0,0,49.175-1.538Z" transform="translate(2149 -10611)" fill="#fff"/>
    </g>
  </g>
</svg>
