<svg xmlns="http://www.w3.org/2000/svg" xmlns:xlink="http://www.w3.org/1999/xlink" width="408" height="278" viewBox="0 0 408 278">
  <defs>
    <clipPath id="clip-path">
      <rect id="Rectángulo_300961" data-name="Rectángulo 300961" width="132.094" height="132.094" transform="translate(0 0)" fill="none"/>
    </clipPath>
    <clipPath id="clip-path-2">
      <rect id="Rectángulo_300962" data-name="Rectángulo 300962" width="81.767" height="65.174" fill="#1565c0"/>
    </clipPath>
    <clipPath id="clip-path-3">
      <rect id="Rectángulo_301016" data-name="Rectángulo 301016" width="30.846" height="30.846" fill="#1565c0"/>
    </clipPath>
    <clipPath id="clip-path-4">
      <rect id="Rectángulo_301017" data-name="Rectángulo 301017" width="32.163" height="49.481" fill="#1565c0"/>
    </clipPath>
  </defs>
  <g id="Grupo_893205" data-name="Grupo 893205" transform="translate(6689 12350)">
    <g id="Grupo_893204" data-name="Grupo 893204" transform="translate(-14 -2979)">
      <g id="Grupo_889435" data-name="Grupo 889435">
        <g id="Grupo_889429" data-name="Grupo 889429" transform="translate(-6536.758 -9293.13)">
          <g id="Grupo_889384" data-name="Grupo 889384" transform="translate(0 0)" clip-path="url(#clip-path)">
            <path id="Trazado_604143" data-name="Trazado 604143" d="M66.05,0A65.615,65.615,0,0,0,33.815,8.435c-.006,0-.018,0-.024,0A66.031,66.031,0,0,0,66.051,132.091c1.147,0,2.26-.109,3.393-.167,1.823-.093,3.62-.24,5.4-.478A66.03,66.03,0,0,0,66.05,0Z" transform="translate(0 0.003)" fill="#1565c0"/>
            <path id="Trazado_604144" data-name="Trazado 604144" d="M180.978,40.865a1.018,1.018,0,0,0-.775.259,6.4,6.4,0,0,1-.474.646c-.1.1-.207.388-.474.388-.154,0-.664-.083-.775,0-.205.154-.495.3-.56.56-.083.333-.366.279-.6.517a1.912,1.912,0,0,1-.646.431,3.019,3.019,0,0,1-.775.129,3.4,3.4,0,0,0-.732,0c-.344.086-.524.4-.818.474a.813.813,0,0,0-.517.345,1.126,1.126,0,0,1-.818.344c-.413,0-.43.075-.732.3a1.576,1.576,0,0,1-.861.215,3.022,3.022,0,0,0-1.206.172c-.218.109-.508.151-.6.388-.151.378-.278.419-.646.6a3.949,3.949,0,0,0-.861.431c-.134.134-.208.611-.387.646a2.625,2.625,0,0,0,.344.258,4.051,4.051,0,0,0,.9.043c.357,0,.668.043,1.033.043.314,0,.5-.215.775-.215a4.45,4.45,0,0,1,1.077.086,3.515,3.515,0,0,0,.861.172,2.776,2.776,0,0,0,.775-.086c.348-.087.558-.069.732-.3a2.151,2.151,0,0,1,.474-.474c.153-.115.732-.732.861-.732a3.307,3.307,0,0,0,.861-.172c.21-.053.218-.559.431-.517.125.025.381.336.517.3a1.052,1.052,0,0,1,.388-.043.322.322,0,0,1,.258.258c.072.287.154.278.3.474.072.1.43.521.388.689a1.861,1.861,0,0,0-.043.775,3.324,3.324,0,0,0,.172.689,4.89,4.89,0,0,1,.3.6c.067.27.217.263.345.517.151.3.076.434-.043.732a1.406,1.406,0,0,0-.172.861c.016.064.027.151.043.215.048.193.076.3.129.344s.128.043.344.043c.254,0,.6,0,.732.129.173.173.345.27.345.517,0,.178-.1.652-.258.732-.116.058-.474.369-.474.56,0,.24.043.511.043.732a.844.844,0,0,0,0,.172,4.786,4.786,0,0,0,.258.9,6.087,6.087,0,0,1,.431.646c.1.24.106.6.215.818.121.243.242.442.344.646.121.242.194.71.388.9a4.983,4.983,0,0,1,.517.646,7.173,7.173,0,0,0,.56.689c.157.157.317.36.517.56a4,4,0,0,0,1.163.9c.258.129.557.257.818.388a5.091,5.091,0,0,1,.775.517c.262.2.534.48.9.388a5.815,5.815,0,0,0,1.119-.172,1.042,1.042,0,0,0,.3-.172.316.316,0,0,0,.086-.388,1.36,1.36,0,0,1-.215-.56c0-.353-.086-.67-.086-1.034a2.665,2.665,0,0,1,.043-.689,1.516,1.516,0,0,0,0-.689c-.073-.292-.014-.572-.086-.861a3.649,3.649,0,0,1-.043-.818,2.72,2.72,0,0,1,.043-.689,3.344,3.344,0,0,0,.043-.818,1.64,1.64,0,0,1,.043-.646c.083-.166.192-.566.431-.646.2-.067.9-.219.9-.474a2.828,2.828,0,0,0-.086-.732c-.068-.272-.247-.54-.086-.861.184-.369.546-.469.775-.775a6.76,6.76,0,0,1,.56-.56c.152-.152.487-.285.56-.431a1.771,1.771,0,0,0,.215-.689c0-.154.067-.7-.086-.775-.223-.111-.474-.072-.474-.344,0-.181.2-.6.129-.732a.767.767,0,0,0-.56-.474c-.267-.067-.634-.118-.9-.172-.163-.033-.536-.081-.6-.215-.077-.153-.151-.571-.3-.646a1.8,1.8,0,0,0-.818-.129c-.075,0-1-.223-.689-.3s.3-.135.431-.388c.072-.143.215-.387.086-.56a4.57,4.57,0,0,0-.6-.517,1.837,1.837,0,0,0-1.12-.344.479.479,0,0,1-.129,0,1.331,1.331,0,0,1-.517-.388,2.015,2.015,0,0,0-.9-.388c-.217-.054-.35-.238-.6-.3s-.516-.064-.775-.129c-.338-.085-.7-.149-1.033-.215-.124-.025-1-.09-.947-.3.032-.13.2-.431.388-.431a4.412,4.412,0,0,0,.818,0,5.184,5.184,0,0,1,1.033-.129,5.06,5.06,0,0,1,.99.086c.4.081.851.03,1.249.129a5.367,5.367,0,0,0,1.119.129c.459,0,.994-.043,1.464-.043.718,0,1.36-.172,2.067-.172.409,0,.549-.249.861-.3a.671.671,0,0,0,.344-.129c.052-.057.007-.117-.215-.172-.27-.068-.581.027-.861-.043a3.737,3.737,0,0,0-.775-.129c-.332,0-.617-.043-.947-.043a2.817,2.817,0,0,0-.689.129,3.812,3.812,0,0,1-.947,0h-1.033c-.463,0-.949-.086-1.378-.086-.28,0-.553-.043-.775-.043a3.132,3.132,0,0,1-1.292-.172,3.97,3.97,0,0,0-.9-.345c-.164-.041-.543-.474-.689-.474Zm27.472.517c-.54.112-1.1.177-1.593.3-.628.157-1.015.446-1.593.3-.4-.1-.785-.131-1.206-.215.137.137.071.315-.043.474a1.71,1.71,0,0,1-.388.345c-.013.01-.993.119-1.033.129-.233.058-.142.215,0,.388a1.3,1.3,0,0,0,.431.345,9.3,9.3,0,0,1,1.679.689c.2.1.3.183.344.3s.039.286.086.474c.093.371.147.482.474.646a3.643,3.643,0,0,0,1.249.172,6.369,6.369,0,0,1,1.679.388,3.422,3.422,0,0,1,1.033.689,5.457,5.457,0,0,1,.689.689,2.464,2.464,0,0,0,.947.775c.324.162.83.157,1.033.258a4.61,4.61,0,0,1,1.076.732c.3.3.545.588.775.818.3.3.371.634.732.9a8.453,8.453,0,0,1,.947.775c.326.326.617.488.9.775a1.907,1.907,0,0,0,.818.646c.5.126.822-.195,1.249-.3.209-.052.967.736,1.076.818a2.507,2.507,0,0,1,.6.775,4.063,4.063,0,0,0,.689.732,2.353,2.353,0,0,0,.818.6.68.68,0,0,0,.517.043.449.449,0,0,0,.3-.3,1.624,1.624,0,0,0,.129-.947.975.975,0,0,1,.086-.689c.108-.191.284-.288.6-.129.227.114.372.486.474.689a2.47,2.47,0,0,1,.344,1.077v.991a13.634,13.634,0,0,0,1.852,1.206,5.1,5.1,0,0,0,.818.56,6.92,6.92,0,0,0,.9.6.892.892,0,0,1,.431.56,1.205,1.205,0,0,1,.043.646c-.053.213.127.7.043,1.034a1.656,1.656,0,0,0-.086.6c.027.137.138.2.431.344.425.212.585.549,1.033.818.234.141.418,1.784.56,2.067a1.8,1.8,0,0,1,.258,1.12,4.121,4.121,0,0,0-.258,1.077,5.087,5.087,0,0,1-.3.991c-.068.274-.2.564-.258.775s-.048.351.258.474a4.812,4.812,0,0,0,1.464.345h1.292c.205,0,.413.412.6.861a7.7,7.7,0,0,1,.388,1.12,1.342,1.342,0,0,0,.431.818c.323.324.8.6.9,1.034.123.493.293.619.086,1.034-.1.2-.808.361-1.033.474a8.671,8.671,0,0,1-1.335.345,2.016,2.016,0,0,0-.6.258.515.515,0,0,0-.258.431,1.828,1.828,0,0,0,.345.947,6.116,6.116,0,0,0,.6.991,1.7,1.7,0,0,0,.129.172c.263.263.235.672.474.991a7.533,7.533,0,0,1,.732,1.292c.231.463.754.819,1.033,1.378a3.594,3.594,0,0,1,.431,1.335,4.282,4.282,0,0,0,.258.991,1.275,1.275,0,0,0,.56.646,2.52,2.52,0,0,0,.732.344,5.517,5.517,0,0,0,1.292.043c.446,0,.72-.129,1.12-.129.231,0,.558-.6.689-.775a2.622,2.622,0,0,0,.56-1.034,3.738,3.738,0,0,0,.129-.689.793.793,0,0,0-.215-.646.558.558,0,0,1-.172-.474.871.871,0,0,1,.172-.474A7.824,7.824,0,0,0,241,79.882c0-.042-.547-.729-.646-.861a6.338,6.338,0,0,1-.474-1.077,2.367,2.367,0,0,1-.215-1.163V75.7a1.1,1.1,0,0,0-.474-.9c-.261-.261-.251-.487-.344-.861a.591.591,0,0,1,.043-.517,1.905,1.905,0,0,1,.387-.3,1.208,1.208,0,0,0,.345-.947c0-.238-.075-.478-.086-.646s.026-.3.215-.344c.174-.044.372.1.517.258a3.679,3.679,0,0,1,.3.431,2.588,2.588,0,0,0,.56.689,7.547,7.547,0,0,0,1.292.6,6.249,6.249,0,0,1,.947.56,7.839,7.839,0,0,1,.818.689c.2.2.255.585.431.818s.39.3.6.517a3.431,3.431,0,0,1,.474.9c.125.251.212.348.3.344s.2-.121.388-.215c.119-.06-.185-.956-.215-1.077-.084-.337-.559-.816-.689-1.077-.139-.278-.094-.4,0-.388a.764.764,0,0,1,.344.215c.285.285.557.381.775.818a4.162,4.162,0,0,0,.646.646c.281.281.242.536.344.947a.192.192,0,0,0,.215.172.618.618,0,0,0,.3-.172,2.6,2.6,0,0,0,.474-.56,6.034,6.034,0,0,0,.258-.818,1.37,1.37,0,0,0-.043-.947c-.1-.284-.277-.543-.388-.818a4.93,4.93,0,0,0-.387-.689c-.414-.69-.757-1.342-1.12-2.067l-.043-.086a66.072,66.072,0,0,0-38.412-29.513Zm-42.026,5.685c-.217,0-.563.411-.689.474a6.572,6.572,0,0,0-.818.646c-.262.2-.483.373-.732.56a1.242,1.242,0,0,1-.9.258c-.409,0-.418.187-.732.345a2.637,2.637,0,0,0-.861,1.077,3.758,3.758,0,0,1-.517.818,3.011,3.011,0,0,1-.775.431c-.27.135-.172.669-.172.947,0,.186-.726.215-.775.215a6.669,6.669,0,0,1-.732-.9c-.3-.3-.146-.359-.6-.474-.247-.062-.448-.041-.56-.086s-.172-.167-.172-.474c0-.332.4-.484.56-.646a3.064,3.064,0,0,1,.775-.431c.277-.139.394-.394.6-.6a1.2,1.2,0,0,0,.3-.947c0-.121-.613-.371-.732-.431-.273-.137-.447-.439-.775-.6-.006,0-.037,0-.043,0a66.212,66.212,0,0,0-16.448,13.092,3.66,3.66,0,0,1-.172.775c-.181.362-.434.435-.689.689a5.742,5.742,0,0,0-.431.732c-.2.266-.5.374-.732.6s-.215.727-.215,1.034c0,.29.128.4.258.387s.243-.141.345-.344a4.333,4.333,0,0,1,.99-.818c.322-.242.78-.4.947-.732a3.658,3.658,0,0,0,.388-.861,5.761,5.761,0,0,1,.646-1.206,2.2,2.2,0,0,0,.517.9.6.6,0,0,1,.172.474,1.325,1.325,0,0,1-.172.431,4.607,4.607,0,0,1-.689.689c-.245.245-.38.242-.517.517-.148.3-.394.37-.474.689-.074.3-.227.52-.3.818-.106.425-.036.682-.345.991a2.029,2.029,0,0,0-.388.861,1.122,1.122,0,0,1-.56.732,1.76,1.76,0,0,0-.474.991c-.108.432-.621.9-.818,1.292-.169.338-.3.388-.474.732a5.577,5.577,0,0,0-.215.947,2.856,2.856,0,0,1-.517.99c-.039.052-.127.084-.172.129a1.824,1.824,0,0,0-.388,1.077c0,.294-.4.812-.474,1.12a5.2,5.2,0,0,1-.345,1.077c-.194.389-.378.542-.56.9l-.474.947a2.265,2.265,0,0,0-.129.948,5.17,5.17,0,0,1-.172,1.034,4.909,4.909,0,0,0,0,1.077,1.162,1.162,0,0,1-.388.9,1.623,1.623,0,0,0-.56.861,5.16,5.16,0,0,1-.387.9,4.815,4.815,0,0,1-.474.948,3.083,3.083,0,0,0-.431,1.034,4.559,4.559,0,0,1-.3,1.034,3.95,3.95,0,0,0-.3.947,3.705,3.705,0,0,1-.344.818,4.709,4.709,0,0,0-.258,1.034,5.253,5.253,0,0,0-.129,1.206c0,.331-.172.735-.172,1.12a4.253,4.253,0,0,1-.129,1.077,4.513,4.513,0,0,0-.043,1.077c0,.536-.129,1.048-.129,1.593,0,.419.165.49.258.861.082.327.049.713.129,1.034a1.744,1.744,0,0,1,.086.474c.13.521.474.675.474,1.206a3.225,3.225,0,0,0,.129.947,5.035,5.035,0,0,1,0,1.12,5.2,5.2,0,0,1-.215,1.12.5.5,0,0,0,0,.129c0,.412-.129.848-.129,1.292a4.8,4.8,0,0,0,.344.9,6.1,6.1,0,0,1,.345,1.163,10.951,10.951,0,0,0,.474,1.464c.157.392.175.7.344,1.12.111.276-.017.793.043,1.034a4.612,4.612,0,0,1,.086,1.077c0,.392.086.7.086,1.077a4.153,4.153,0,0,0,.129,1.034,5.637,5.637,0,0,0,.172.947c.219.437.424.532.517.9s.222.715.3,1.034c.093.373.472.684.56,1.034a12.092,12.092,0,0,0,.775,1.421c.136.317.138.706.258.947s.643.429.818.56.163.26.215.388a.49.49,0,0,0,.388.3c.3.074.491.368.689.517.261.2-.136-.631-.215-.947a4.177,4.177,0,0,0-.6-.99c-.144-.241-.02-.815-.129-1.034a4.939,4.939,0,0,1-.431-1.033c-.1-.4-.288-.767-.387-1.163a4.693,4.693,0,0,0-.431-1.034c-.211-.422-.474-.577-.474-1.077a3.453,3.453,0,0,0-.388-1.163,3.461,3.461,0,0,1-.086-1.249c0-.346-.129-.629-.129-.99a5.23,5.23,0,0,0-.215-1.249,4.29,4.29,0,0,1-.215-1.077c0-.288.075-.385.129-.345a.808.808,0,0,1,.086.474c0,.268.363.549.431.818.095.38.161.774.258,1.163.076.306-.083.743,0,1.077a3.685,3.685,0,0,1,.3,1.033c0,.36.129.622.129.947a6.119,6.119,0,0,0,.344.947c.092.37.167.754.258,1.12.077.309.254.713.344,1.077a2.891,2.891,0,0,0,.474.947,5.7,5.7,0,0,1,.345.947c.193.386.285.614.474.991a3.963,3.963,0,0,1,.344.861,6.942,6.942,0,0,0,.56,1.163,4.971,4.971,0,0,1,.388.9,6.27,6.27,0,0,0,.388,1.249l.431.861a3.424,3.424,0,0,0,.689.9,3.934,3.934,0,0,0,1.12.646,1.24,1.24,0,0,1,.775.775,5.026,5.026,0,0,0,.474.947,4.041,4.041,0,0,0,.775.947,8.994,8.994,0,0,0,2.239,1.938,3.828,3.828,0,0,0,.9.344,4.761,4.761,0,0,1,1.033.3,2.154,2.154,0,0,0,1.033.215c.156,0,.551.364.818.431.238.06.625-.081.947,0,.443.111.584-.285,1.033-.172.416.1,1.055,1.06,1.421,1.335.324.243.662.5,1.033.818a2.191,2.191,0,0,0,.99.56,3.311,3.311,0,0,1,.775.258,2.762,2.762,0,0,0,1.077.043c.316,0,.632.46.818.646a15.917,15.917,0,0,1,1.249,1.077,9.553,9.553,0,0,0,.689,1.077c.262.262.629.586.947.9.263.263.563.444.646.775.088.354.513.515.775.646a4.884,4.884,0,0,0,.947.3c.24.06.629.59.818.732.145.108.887-.086,1.12-.086.3,0,.676.442.861.689.211.282.343.517.732.517a1.387,1.387,0,0,0,.99-.431,1.793,1.793,0,0,0,.258-1.033c0-.265.684.339.818.474.21.21.485.529.646.689a5.168,5.168,0,0,1,.861.991c.146.293.061.683.215.991a4.766,4.766,0,0,0,.517.818,1.406,1.406,0,0,1,.215.991c0,.374.086.669.086,1.034,0,.319-.272.443-.344.732a3.54,3.54,0,0,0-.215,1.034c0,.31-.56.621-.56,1.077a6.718,6.718,0,0,0,.431,1.206,6.49,6.49,0,0,0,.388,1.249c.208.417.532.361.646.818.1.392.123.794.215,1.163.087.347.3.487.388.818a1.721,1.721,0,0,0,.474.732,2.192,2.192,0,0,0,.9.517,1.6,1.6,0,0,1,1.033.732,3.8,3.8,0,0,0,.732.947,6.149,6.149,0,0,1,.775.56.962.962,0,0,0,.172.129c.343.229.438.521.861.732.343.172.637.46.947.646.393.236.6.407.99.6.337.169.6.492.9.646a3.556,3.556,0,0,0,.99.388c.33.066.752.188,1.034.258a5.931,5.931,0,0,1,1.162.344,3.758,3.758,0,0,1,.818.689,3.958,3.958,0,0,0,.99.6c.234.117.556.321.775.431.435.218.607.53.99.818a6.854,6.854,0,0,1,.732.732c.286.286.458.674.689.9a1.8,1.8,0,0,1,.474.9,4.529,4.529,0,0,0,.56.991c.165.33.64.523.861.818s.633.418.861.646a6.678,6.678,0,0,1,.818.732,3.964,3.964,0,0,0,.689.6,2.865,2.865,0,0,0,.818.474,1.761,1.761,0,0,0,.172.086c1.823-.093,3.6-.235,5.382-.474.014-.034.076-.045.086-.086.113-.454.668-.808.9-1.163a1.286,1.286,0,0,1,.947-.474c.374-.075.539-.324.818-.6a8.268,8.268,0,0,0,.818-.9c.258-.344.35-.582.56-.861a5.428,5.428,0,0,0,.474-.991,1.758,1.758,0,0,1,.732-.861c.377-.189.485-.477.818-.56.445-.111.638-.289,1.033-.388.321-.08.848-.848,1.033-1.034a6.59,6.59,0,0,0,.732-.818,3.958,3.958,0,0,1,.3-.431c.091-.114.167-.188.258-.3.153-.191.16-.811.215-1.033a5.687,5.687,0,0,1,.388-1.034c.151-.3.1-.72.258-1.034.174-.349.284-.654.431-.947.164-.328.054-.71.215-1.034s.266-.66.388-.9c.175-.349.111-.465.56-.689.24-.12.486-.529.689-.732a3.979,3.979,0,0,0,.388-.947,3.768,3.768,0,0,1,.775-.818c.165-.165.321-.536.474-.689.183-.183.212-.718.258-.9.074-.3.054-.645.129-.947.083-.333-.242-.586-.388-.732a7.584,7.584,0,0,0-.818-.9,7.243,7.243,0,0,1-.689-.517,3.509,3.509,0,0,0-.9-.474,1.737,1.737,0,0,0-.861-.172h-1.12c-.393,0-.6.086-.947.086-.371,0-.619.086-.99.086h-1.033c-.309,0-.542-.172-.9-.172s-.4-.252-.6-.517a1.3,1.3,0,0,0-.947-.3c-.4,0-.779-.043-1.249-.043a1.724,1.724,0,0,0-1.034.345,2.974,2.974,0,0,0-.732.517,2.951,2.951,0,0,1-.9.431,1.783,1.783,0,0,1-1.033,0,.385.385,0,0,1-.3-.345,3.237,3.237,0,0,1,0-.56c0-.4.235-.579.474-.818.156-.156.129-.705.129-.947,0-.481.052-.542-.129-.9-.156-.311-.472-.429-.646-.6-.206-.206-.361-.577-.56-.775a3.563,3.563,0,0,1-.517-.818c-.128-.257-.494-.4-.732-.517a4.918,4.918,0,0,0-.99-.258,4.8,4.8,0,0,0-1.033,0h-.99c-.365,0-.647.086-.99.086-.257,0-.505.172-.861.172-.281,0-.54-.39-.732-.646-.251-.335-.559-.387-.775-.6s-.509-.293-.689-.474a2.8,2.8,0,0,0-1.076-.388,5.107,5.107,0,0,1-1.034-.345c-.393-.2-.408-.385-.6-.775a1.749,1.749,0,0,1-.3-.861,2.63,2.63,0,0,0-.258-.9c-.066-.132-.174-.275-.215-.345a.454.454,0,0,1,.043-.517c.061-.1.083-.151-.172-.215-.031-.008-.628.557-.689.6-.272.2-.477.162-.861.258a1.147,1.147,0,0,1-1.119-.129.717.717,0,0,1-.3-.3c-.063-.077-.122-.12-.431-.043a4.049,4.049,0,0,0-.818.431,3.793,3.793,0,0,0-.732.388c-.278.209-.776.367-1.033.56-.238.178-.868-.154-.99-.215-.323-.162-.332-.724-.388-.947-.075-.3-.161-.338-.258-.258a1.783,1.783,0,0,0-.3.474.5.5,0,0,1-.431.3.743.743,0,0,1-.431-.086,9.89,9.89,0,0,1,.043-1.033c0-.168-.542-.629-.6-.689-.163-.163-.266-.124-.344,0s-.142.327-.215.474a4.745,4.745,0,0,0-.258,1.163,5.533,5.533,0,0,0-.086,1.077c0,.246-.213.429-.388.6s-.188-.063-.172-.388a5.328,5.328,0,0,0,.043-.947c-.073-.363-.212-.678-.3-1.034a4.428,4.428,0,0,0-.172-.818c-.108-.216-.3-.036-.474.215s-.36.594-.431.689c-.275.367-.867.711-1.076.991a3.843,3.843,0,0,1-.818.431,9.774,9.774,0,0,0-1.12.947c-.287.216-.258.828-.258,1.163,0,.422.141.363-.086.818a.286.286,0,0,1-.431.129,1.1,1.1,0,0,1-.3-.258,1.441,1.441,0,0,0-.775-.431,1.875,1.875,0,0,0-.99.172c-.422.106-.807.288-1.206.388a2.541,2.541,0,0,1-1.077-.086c-.241-.06-.471-.385-.689-.6a5.216,5.216,0,0,1-.646-.732,2.668,2.668,0,0,0-.56-.689c-.347-.26-.424-.116-.6-.474a2.507,2.507,0,0,0-.431-.689c-.174-.174-.129-.6-.129-.947s-.086-.758-.086-1.12a4.1,4.1,0,0,0-.129-.947,4.737,4.737,0,0,1-.043-1.034c0-.254-.431-.506-.646-.56a3.9,3.9,0,0,0-1.163-.172h-2.325a.8.8,0,0,1-.474-.129,4.1,4.1,0,0,1-.388-1.033c0-.374-.086-.669-.086-1.034a3.953,3.953,0,0,0-.129-.947c-.07-.281-.047-.619-.129-.947a4.8,4.8,0,0,1,0-1.034c0-.373.086-.552.086-.947,0-.265.043-.636.043-.947a.94.94,0,0,0-.56-.861,2.22,2.22,0,0,0-.99-.086,3.32,3.32,0,0,0-.9.172c-.366.092-.546.5-.689.646a1.918,1.918,0,0,0-.345.947,4.736,4.736,0,0,0-.043,1.034c0,.169-.378.651-.431.861-.1.382-.619.611-.861.732a1.693,1.693,0,0,1-1.249-.172,4.134,4.134,0,0,1-.732-.9,5.445,5.445,0,0,0-.56-.6,5.309,5.309,0,0,1-.689-.689,4.715,4.715,0,0,1-.431-.732c-.163-.327-.209-.546-.388-.9-.162-.324-.375-.664-.56-1.033-.2-.407-.211-.6-.474-.861a1.407,1.407,0,0,1-.344-1.034c0-.382-.129-.784-.129-1.163,0-.346-.129-.672-.129-1.034,0-.346,0-.672,0-1.034,0-.32.215-.583.215-.947,0-.4-.086-.573-.086-.947a2.491,2.491,0,0,1,.215-1.12c.115-.288.447-.506.56-.732a4.543,4.543,0,0,1,.474-.732,1.584,1.584,0,0,1,.818-.517c.318-.1.647-.183.947-.258a2.507,2.507,0,0,1,1.292.043,5.734,5.734,0,0,0,1.421.172.674.674,0,0,1,.474.215.473.473,0,0,0,.474.129c.239-.06.172-.83.172-1.034a4.458,4.458,0,0,0-.086-.474c.009-.1.118-.188.344-.3a1.524,1.524,0,0,1,.947-.258c.435,0,.841.086,1.249.086.241,0,.593.275.818.388a1.269,1.269,0,0,0,.517.129.64.64,0,0,1,.474.3,6.78,6.78,0,0,0,.775.732,3.311,3.311,0,0,0,.9.474c.154.077.129.859.172,1.034a4.51,4.51,0,0,0,.431.9c.21.42.308.878.474,1.292.119.3.23.589.345.818a1.222,1.222,0,0,0,.6.689,3.77,3.77,0,0,0,.818.215c.34.085.616-.218.775-.431a.834.834,0,0,0,.043-.646,2.049,2.049,0,0,0-.215-.6c-.255-.425-.178-.837-.344-1.335a3.888,3.888,0,0,0-.6-1.034,6.974,6.974,0,0,1-.387-1.034,4.111,4.111,0,0,1-.345-.9c-.081-.324-.1-.668-.172-.947a1.144,1.144,0,0,1,.431-1.076,1.042,1.042,0,0,0,.3-.6,4.154,4.154,0,0,0,.732-1.163,2.11,2.11,0,0,0,.258-1.034,1.052,1.052,0,0,1,.431-.646,5.862,5.862,0,0,0,.646-.6,7.661,7.661,0,0,0,.775-1.034c.153-.307.457-.538.56-.947.07-.281.047-.619.129-.947l.258-1.034a1.934,1.934,0,0,0,0-.99,4.584,4.584,0,0,0-.344-.9,2.686,2.686,0,0,0-.6-.732c-.154-.154-.129-.786-.129-1.033,0-.22.659-.215.861-.215a3.734,3.734,0,0,0,.9-.258c.2-.05.482-.533.6-.775a4.4,4.4,0,0,0,.345-.948c.1-.39-.086-.691-.086-1.033a1.02,1.02,0,0,1,.56-.732,1.834,1.834,0,0,1,.947-.3c.4,0,.735.086,1.119.086a.655.655,0,0,0,.732-.474,2.757,2.757,0,0,0,.086-1.034,4.175,4.175,0,0,0-.086-.947,1.249,1.249,0,0,1,.086-.6c-.058-.231.415-.932.474-.99a3.061,3.061,0,0,1,.775-.6,3.312,3.312,0,0,0,.818-.6c.279-.279.518-.6.689-.775.252-.252.288-.5.517-.732.108-.108.059.787,0,.9a.4.4,0,0,0,.043.431,2.154,2.154,0,0,1,.258.431,1.01,1.01,0,0,1-.043.474c-.006.1.041.172.344.172a.615.615,0,0,0,.689-.431c.167-.334.466-.371.775-.6a7.277,7.277,0,0,0,.6-.689,5.36,5.36,0,0,0,.732-.689c.225-.3.526-.306.861-.474.471-.236.255-.559.775-.689a1.064,1.064,0,0,0,.646-.6c.129-.257-.215-.63-.215-.9a1.247,1.247,0,0,0-.345-.9.339.339,0,0,0-.345-.172.509.509,0,0,0-.258.172,4.289,4.289,0,0,0-.431.99c-.18.359-.089.594-.388.818-.218.164-.793-.444-.947-.56a1.774,1.774,0,0,0-1.033-.258.856.856,0,0,0-.431.129c-.1.044-.2.039-.345-.258a4.887,4.887,0,0,1-.129-.947.856.856,0,0,0-.215-.344c-.054-.079-.019-.2.172-.388.25-.25.388-.142.388-.6a.9.9,0,0,1,.56-.732c.336-.168.155-.431.646-.431a2.191,2.191,0,0,0,.9-.215c.2-.1.311-.232.3-.345s-.116-.172-.345-.172c-.431,0-.68.258-1.12.258-.272,0-.708.3-.947.344-.345.069-.674.039-1.033.129s-.656.379-1.034.474a1.585,1.585,0,0,0-.818.9,2.656,2.656,0,0,1-.775,1.12c-.316.316-.469.325-.775.172a11.485,11.485,0,0,1,.56-1.077,3.368,3.368,0,0,1,.689-1.12c.3-.3.612-.482.861-.732.293-.293.433-.593.818-.689a5.279,5.279,0,0,1,1.249-.043c.394,0,.652-.172.99-.172.315,0,.669-.437.947-.646a3.015,3.015,0,0,1,1.206-.3c.418-.084.592-.194.732-.474.154-.308.561-.26.775-.474a.959.959,0,0,0,.215-.431.348.348,0,0,1,.3-.258c.339-.085.712-.06.99-.129a4.406,4.406,0,0,1,.99,0c.242,0,.4-.037.474-.129a.75.75,0,0,0,.086-.431,1.255,1.255,0,0,0-.431-.861,3.132,3.132,0,0,1-.6-.9c-.16-.32-.306-.7-.431-.947-.147-.294-.258-.646-.388-.9a1.242,1.242,0,0,0-.818-.6,2.223,2.223,0,0,1-.818-.56,6.13,6.13,0,0,0-.6-.56c-.286-.215-.422-.24-.56-.517-.131-.261-.312-.495-.474-.818-.126-.251-.308-.4-.431-.646-.131-.261-.038-.678-.129-.861-.124-.247-.216-.647-.344-.9-.145-.29-.237-.344-.388-.646-.192-.385.043-.6-.215-.861s-.26-.453-.56-.6c-.184-.092-.257-.177-.344-.215s-.181-.017-.388.086c-.037.018-.308.658-.345.732-.156.313-.375.375-.689.689a2.808,2.808,0,0,0-.6.775c-.13.259-.649.085-.818.043s-.185-.2-.172-.388a2.011,2.011,0,0,0,0-.56,4.8,4.8,0,0,1,0-1.034c0-.148.162-.152.345-.172a.961.961,0,0,0,.517-.172c.129-.129.206-.2.215-.3s-.05-.222-.215-.388c-.193-.193-.678-.116-.9-.172-.48-.12-.669-.071-1.034-.344a1.364,1.364,0,0,1-.6-.818c-.061-.243-.574-.2-.818-.258a4.413,4.413,0,0,0-1.076-.086c-.323,0-.568.26-.9.344a1.177,1.177,0,0,1-.474-.043c-.126-.011-.23.015-.3.3a4.007,4.007,0,0,1-.388.9,2.383,2.383,0,0,0-.129.947c0,.42-.114.493,0,.947a2.154,2.154,0,0,1-.086.947c-.088.351.087.684,0,1.034-.112.447-.236.6-.043.991.179.358.368.437.474.861.085.341-.129.691-.129,1.034,0,.3-.433.649-.56.818a1.658,1.658,0,0,0-.344.861c0,.236-.561.41-.689.474a2.134,2.134,0,0,0-.732.732,2.045,2.045,0,0,0-.172.991c0,.337-.086.675-.086,1.034v1.034a2.93,2.93,0,0,1,0,.861c-.082.326-.475.539-.689.646a.413.413,0,0,1-.517-.172,1.058,1.058,0,0,1-.215-.517c0-.364,0-.755,0-1.12,0-.291-.086-.635-.086-.947V74.413a3.133,3.133,0,0,0-.215-.947c-.052-.21-.529-.529-.689-.689a3.246,3.246,0,0,0-.818-.56,3.487,3.487,0,0,1-.689-.56,3,3,0,0,1-.689-.775c-.164-.328-.593-.388-.947-.388a1.7,1.7,0,0,1-1.033-.3c-.208-.156-.258-.682-.258-.9a5.584,5.584,0,0,0-.129-1.163,2.679,2.679,0,0,1,.043-1.034c.1-.388.518-.692.646-.947.178-.357.744-.615,1.033-.9s.428-.687.775-.948a8.769,8.769,0,0,1,1.378-.818c.254-.127.288-.489.388-.689a3.4,3.4,0,0,1,.517-.9l.775-.775c.22-.22.836-.172.947-.172.152,0,.429.815.474.9.094.188.166.293.3.344a1.022,1.022,0,0,0,.517,0c.345-.073.742-.255,1.206-.388.259-.074.568-.564.818-.689s.258-.691.258-.99c0-.393-.043-.6-.043-.947,0-.2-.57-.414-.689-.474-.166-.083-.182-.274-.129-.474a1.213,1.213,0,0,1,.258-.474,1.988,1.988,0,0,1,.861-.431,5.2,5.2,0,0,0,.99-.215c.3-.151.383-.34.6-.56a1.6,1.6,0,0,0,.474-.947c.072-.289.034-.738.086-.947a2.667,2.667,0,0,1,.56-.861,1.6,1.6,0,0,1,.258-.344.8.8,0,0,1,.517-.129.927.927,0,0,1,.517.086,1.006,1.006,0,0,1,.258.388,2.777,2.777,0,0,1,.043,1.034c0,.366-.284.5-.474.689-.171.171.6.537.689.6.137.1.061.324-.086.56s-.361.463-.388.517c-.112.225-.4.45-.56.775-.216.433-.259.5-.861.646a4.215,4.215,0,0,0-.947.517.244.244,0,0,0-.129.345,1.147,1.147,0,0,0,.172.344,1.277,1.277,0,0,0,.818.388c.464.116.629-.022.9.345a3.289,3.289,0,0,1,.388.6,4.385,4.385,0,0,1,.474.947c.043.17.682.233.9.345.289.145.74.176.99.3a3.337,3.337,0,0,0,.818.345c.287.072.381.214.732.3.21.052.339.068.431,0a.677.677,0,0,0,.172-.388c.038-.154-.13-.345-.3-.474a1.911,1.911,0,0,0-.388-.215,2.255,2.255,0,0,1-.732-.474.672.672,0,0,1-.258-.474c.013-.122.122-.208.258-.344s.275-.091.431,0a2.3,2.3,0,0,1,.387.3.339.339,0,0,0,.474,0,.8.8,0,0,0,.258-.388,2.877,2.877,0,0,0,.129-.861c0-.426-.285-.5-.172-.947.047-.189-.113-.331-.3-.431s-.409-.178-.517-.258c-.347-.26-.514-.252-.689-.6-.126-.252-.04-.386.086-.431a.734.734,0,0,1,.388,0c.392.1.463.29.732.56.306.307.3.475.646.646s.328.431.689.431c.229,0,.258-.695.258-.9,0-.368-.172-.641-.172-1.034,0-.156.364-.426.431-.56a.492.492,0,0,0,0-.517,2.6,2.6,0,0,0-.344-.344c-.245-.246-.456-.352-.6-.646-.168-.337-.525-.482-.818-.775-.044-.089-.191,0-.344.043s-.3.029-.388-.3a2.411,2.411,0,0,1,.172-1.034c.081-.326.266-.418.344-.732a.719.719,0,0,1,.258-.387c.062-.071.075-.151-.043-.388-.083-.166-.524-.348-.689-.431a2.308,2.308,0,0,1-.6-.517c-.151-.151-.086-.8-.086-1.034a.434.434,0,0,0-.215-.388c-.132-.077-.291-.1-.431-.172a1.993,1.993,0,0,0-.9-.129,5.093,5.093,0,0,1-1.033-.129,2.107,2.107,0,0,0-.947.129,4.8,4.8,0,0,1-1.033,0,2.8,2.8,0,0,1-.818-.215c-.218-.055-.722.382-.9.474s-.264.024-.3-.129a2.434,2.434,0,0,1-.043-.517V47.368c0-.145-.106-.223-.258-.258a2.264,2.264,0,0,0-.474-.043Zm37.332,4.177a.52.52,0,0,0-.388.388c-.058.23-.086.557-.129.732a5.149,5.149,0,0,0-1.335.086,6.634,6.634,0,0,1-.689.258c-.263.066-.184.254-.129.474.069.275.841.329,1.076.388.165.041.387.344.56.517a5.688,5.688,0,0,0,.646.431c.141.106.289.418.474.6a1.712,1.712,0,0,0,.775.344c.307.077.5-.086.818-.086.26,0,.487.129.775.129s.506-.129.775-.129c.219,0,.309-.354.431-.517a1.408,1.408,0,0,0,.172-.818,2.818,2.818,0,0,0-.129-.689c-.055-.219-.487-.329-.6-.56a1.189,1.189,0,0,0-.474-.6,5.806,5.806,0,0,0-.775-.431,3.942,3.942,0,0,1-.646-.388.95.95,0,0,0-.56-.129h-.474A.352.352,0,0,0,203.755,51.244ZM218.912,56.8c-.278.036-.345.455-.344.818s-.491.7-.646.818c-.213.16.862.582.947.6.363.091.665.4,1.033.474a9.56,9.56,0,0,1,1.033.474c.188.075.247.352.3.646a4.8,4.8,0,0,1,.086.775,4.694,4.694,0,0,0,.086,1.12,1.493,1.493,0,0,1,.086.947,2.739,2.739,0,0,0-.086.517.5.5,0,0,0,.172.431c.283.283,1.08.132,1.421.474a13.029,13.029,0,0,1,.99,1.034c.2.239-.018.671.258.947a1.545,1.545,0,0,0,1.033.172c.151-.038.223-.89.258-1.034.045-.18.31-.274.6-.3a1.75,1.75,0,0,1,.775.086c.259.13.286.534.215.818a.5.5,0,0,0,.086.474,1.174,1.174,0,0,0,.388.3,1.353,1.353,0,0,0,.861.043c.316-.079.458-.528.6-.818a2.123,2.123,0,0,0,.172-.474.424.424,0,0,1,.258-.345.561.561,0,0,0,.344-.689,4.7,4.7,0,0,0-.344-.99c-.212-.425-.661-.582-1.033-.861-.284-.214-.255-.29-.345-.646-.06-.239-.47-.429-.732-.56-.241-.121-.4-.544-.689-.689a6.942,6.942,0,0,1-1.206-.56c-.387-.291-.728-.4-1.12-.689a9.881,9.881,0,0,1-1.033-.947c-.318-.318-.629-.457-.861-.689a3.854,3.854,0,0,0-1.033-.6c-.39-.195-.609-.424-.947-.56a7.169,7.169,0,0,0-1.077-.3,1.69,1.69,0,0,1-.387-.215.322.322,0,0,0-.129,0ZM181.278,77.255c-.115.115-.328.013-.474.086s-.223.376-.258.517c-.058.231-.038.447-.086.689a2.6,2.6,0,0,0,.086.947c.046.186-.252.417-.345.6a3.367,3.367,0,0,1-.344.517c-.148.2-.126.629-.172.861-.055.277-.069.491-.129.732a2.261,2.261,0,0,0-.043.56c0,.149.354.242.474.3s.2-.089.258-.258a1.41,1.41,0,0,1,.215-.474.725.725,0,0,1,.6-.3c.188,0,.389-.043.6-.043a1.463,1.463,0,0,1,.474.129,1.666,1.666,0,0,1,.474.345c.167.167.118.363.388.431a2.213,2.213,0,0,0,.6.172H184.9c.262,0,.258-.167.258-.431a2.256,2.256,0,0,1,.086-.6.922.922,0,0,0-.086-.517c-.047-.187-.354-.4-.474-.517-.268-.268-.561-.222-.646-.56a2.741,2.741,0,0,1,.043-.56c0-.164.043-.332.043-.517,0-.22-.138-.32-.215-.474-.095-.19-.272-.172-.474-.172a3.783,3.783,0,0,1-.646-.086c-.212-.042-.33-.028-.474-.172s-.3-.133-.3-.388a2.181,2.181,0,0,0-.129-.431.489.489,0,0,0-.215-.345.845.845,0,0,0-.388-.043Zm64.03,1.637c-.22.032-.227.83-.474,1.077-.228.228-.46.288-.646.474-.32.32-.7.619-1.033.948-.282.282-.328.841-.474,1.206a4.028,4.028,0,0,0,0,1.12c0,.366-.42.942-.56,1.292a.614.614,0,0,1-.3.388,3.6,3.6,0,0,1-.56.129,4.74,4.74,0,0,0-1.033.345c-.245.123-.434.653-.56.9a5.872,5.872,0,0,0-.129,1.034,3.349,3.349,0,0,0,0,1.421c.072.361.129.688.215,1.034a1.807,1.807,0,0,1-.129.947c-.09.362-.215.688-.3,1.034s.345.7.345,1.077a4.482,4.482,0,0,1,0,1.163,1.943,1.943,0,0,0,.215,1.034c.156.386.368.785.431,1.034.043.171-.892,1.3-.99,1.55a7.86,7.86,0,0,1-.517,1.077c-.213.355.043.755.043,1.12,0,.38.086.8.086,1.206,0,.5.086,1.011.086,1.507,0,.447-.453,1.081-.56,1.507a1.985,1.985,0,0,0,.172,1.249c.123.246-.1.875-.172,1.163a6.315,6.315,0,0,0,.129,1.507v.215a15.67,15.67,0,0,0,.689,2.282c.08.4-.144.62-.215.9-.109.437.127.767.215,1.12a2.147,2.147,0,0,1-.215,1.55.932.932,0,0,0-.086.646,3.53,3.53,0,0,0,.215.646c.165.413.017.974.129,1.421a8.1,8.1,0,0,1-.043,1.507,1.25,1.25,0,0,1-.215.646,1.042,1.042,0,0,0-.043.775c.023.091.02.21.043.3a3.766,3.766,0,0,0,1.033,1.206.76.76,0,0,1,.3.474,2.293,2.293,0,0,1,.043.56,1.41,1.41,0,0,0,.387,1.163c.2.2.594.175.818.474a2.8,2.8,0,0,1,.172,1.249,1.587,1.587,0,0,0,.129.818,3.621,3.621,0,0,0,.6.689c.114.114.231.188.344.3.27.271.319.75.6,1.034a4.479,4.479,0,0,0,1.034.775.663.663,0,0,0,.646-.086,5.373,5.373,0,0,0,.517-.388,2.941,2.941,0,0,0,.947-1.034,8.1,8.1,0,0,0,.9-1.809.819.819,0,0,1,.259-.517,3.108,3.108,0,0,1,.56-.3,2.391,2.391,0,0,0,.861-.861.89.89,0,0,1,.947-.474,1.13,1.13,0,0,1,.646.517,2.342,2.342,0,0,1,.345.689c.092.368-.281.82-.431,1.12-.251.5-.134.882-.474,1.335a8.372,8.372,0,0,0-.646,1.378,7.814,7.814,0,0,0-.3,1.852,7.9,7.9,0,0,1-.344,1.034,4.767,4.767,0,0,0-.3,1.378c0,.484-.506.883-.732,1.335-.268.536-.468,1.085-.689,1.637a8.935,8.935,0,0,1-.6,1.249,4.023,4.023,0,0,0-.474,1.077,4.874,4.874,0,0,1-.474.947c-.152.3-.179.616-.345.947a10.455,10.455,0,0,1-1.507,2.2,7.3,7.3,0,0,0-1.249,1.507c-.151.3-.246.535-.388.818-.207.413-.482.879-.732,1.378-.174.349-.476.522-.646.861a3.274,3.274,0,0,0-.3.689,65.651,65.651,0,0,0,11.41-66.493c-.288.023-.8.129-1.12.129a.6.6,0,0,0-.474.344,2.1,2.1,0,0,0-.215.56,2.69,2.69,0,0,0,.6,2.326c.175.175.28.344.258.474s-.152.215-.431.215a1.075,1.075,0,0,1-.6-.129,2.521,2.521,0,0,1-.344-.345,3.519,3.519,0,0,0-.947-.732l-.947-.474c-.221-.111-.41-.733-.517-.947a2.357,2.357,0,0,1-.3-1.077,2.677,2.677,0,0,0-.388-.9c-.133-.266-.318-.55-.474-.861a2.053,2.053,0,0,0-.646-.818c-.04-.03-.055-.048-.086-.043Zm-81.639,35.874a.611.611,0,0,0-.172.129c-.191.191-.146.153-.474-.043a8.623,8.623,0,0,1,1.076,1.292c.084.139.322.182.56.172a3.878,3.878,0,0,0,.6-.086c.3-.061.385-.243.344-.431a.78.78,0,0,0-.344-.474,4.6,4.6,0,0,0-1.033-.431c-.335-.084-.416-.192-.56-.129Zm.775,2.885a1.847,1.847,0,0,0-.775.345c-.108.108-.019.31.086.517s.254.379.3.474c.132.264.914.344,1.206.344.245,0,.356-.111.387-.258a1.111,1.111,0,0,0-.043-.474c-.067-.27-.4-.53-.56-.689s-.019-.037-.388-.258a.547.547,0,0,0-.215,0Zm-3.488,2.326a2.037,2.037,0,0,0-1.421.388,13.688,13.688,0,0,1-1.636,1.421c.085.213.153.4.3.474a.682.682,0,0,0,.6-.043c.376-.188.627-.27.947-.431a2.01,2.01,0,0,1,.947-.3,4.291,4.291,0,0,1,1.163.258,3.939,3.939,0,0,1,.861.345,3.364,3.364,0,0,1,.947.6,7.949,7.949,0,0,0,1.033.6,9.186,9.186,0,0,1,1.033.689,4.122,4.122,0,0,0,.818.689.978.978,0,0,0,.775.043,2.6,2.6,0,0,1,.818-.172c.242,0,.653.024,1.033.043s.714.018.861-.129a1,1,0,0,0,.258-.344c.041-.129,0-.238-.258-.3-.364-.091-.685-.2-1.076-.3-.542-.136-.37-.379-.818-.6a4.644,4.644,0,0,0-1.249-.474,2.775,2.775,0,0,1-1.292-.474c-.285-.285-.438-.8-.732-.947a5.849,5.849,0,0,0-1.507-.732,10.746,10.746,0,0,0-1.938-.3h-.474Zm11.5,3.919a.948.948,0,0,0-.3.043c-.4.1-1.446.006-1.507.129s-.156.226-.215.345c-.138.277-.115.367-.043.431s.208.079.344.215a1,1,0,0,1,.215.388.354.354,0,0,1-.172.431,8.769,8.769,0,0,0-.861.474c.114.227.23.3.732.3a4.96,4.96,0,0,1,1.077.129,3.406,3.406,0,0,0,1.033.129,2.635,2.635,0,0,0,1.335-.646c.3-.3.305-.162.861-.3.192-.048.423-.04.56-.086s.215-.144.215-.388a.688.688,0,0,0-.646-.6,2.366,2.366,0,0,1-.99-.129c-.39-.195-.392-.529-.861-.646a4.593,4.593,0,0,0-.775-.215Zm4.909,1.507c-.136-.034-.208.163-.215.388a2.075,2.075,0,0,0,.086.56c.05.2.751.3.99.3a1.379,1.379,0,0,0,.517-.043c.085-.05.06-.138-.043-.345-.145-.291-.23-.632-.517-.775a1.909,1.909,0,0,0-.818-.086Zm3.875.3a.54.54,0,0,0-.086.431c.024.189.123.354.431.431a2.4,2.4,0,0,0,.947,0c.159-.04.1-.17-.043-.345a1.726,1.726,0,0,0-.474-.431,1.97,1.97,0,0,0-.732-.086C181.262,125.7,181.257,125.69,181.237,125.7Zm-14.08.431c-.057,0-.158.043-.215.043a1.909,1.909,0,0,0-.947.129.887.887,0,0,0-.388.3.491.491,0,0,0,.043.474,4.019,4.019,0,0,1,.172.474c.046.1.133.152.388.215a1.606,1.606,0,0,0,1.162.043,1.032,1.032,0,0,0,.431-.9c0-.416-.116-.643-.474-.732A.611.611,0,0,0,167.156,126.135Zm15.889,1.55c-.22.047-.182.378.043.6a.58.58,0,0,0,.732.086c.2-.1.123-.264-.043-.388a1.769,1.769,0,0,0-.431-.215A.524.524,0,0,0,183.045,127.685Zm1.335,1.895c-.116.09-.474.383-.474.56s.175.167.388.129a2.764,2.764,0,0,0,.474-.129c.2-.1-.161-.414-.345-.56-.007,0-.032-.005-.043,0m.258,1.55c.007.012.035.073.043.086a.132.132,0,0,0,.043-.086A.11.11,0,0,0,184.639,131.131Zm.043.086c-.152.128-.63.452-.689.689-.05.2.841-.033.861-.043C185.054,131.763,184.814,131.426,184.682,131.217Zm1.809.474c-.02.2-.234.761-.043.9.282.211.411.151.474.043a.441.441,0,0,0,0-.388,2.1,2.1,0,0,0-.431-.56Z" transform="translate(-124.28 -38.785)" fill="#b2ebf2"/>
          </g>
        </g>
        <g id="Grupo_889430" data-name="Grupo 889430" transform="translate(-6583.771 -9170.625)">
          <g id="Grupo_889386" data-name="Grupo 889386" clip-path="url(#clip-path-2)">
            <path id="Trazado_604145" data-name="Trazado 604145" d="M119.293,93.725H60.253a1.388,1.388,0,0,1-1.388-1.388V55.856a1.388,1.388,0,0,1,1.388-1.388h5.99a1.388,1.388,0,0,1,0,2.776h-4.6v33.7h56.264v-33.7h-4.6a1.388,1.388,0,1,1,0-2.776h5.991a1.388,1.388,0,0,1,1.388,1.388V92.337a1.388,1.388,0,0,1-1.388,1.388" transform="translate(-48.889 -45.237)" fill="#1565c0"/>
            <path id="Trazado_604146" data-name="Trazado 604146" d="M96.576,71.56H25.889A1.388,1.388,0,0,1,24.5,70.172V25.891a4.96,4.96,0,0,1,4.955-4.954H39.668a1.388,1.388,0,0,1,0,2.776H29.456a2.18,2.18,0,0,0-2.178,2.178V68.783h67.91V25.891a2.18,2.18,0,0,0-2.178-2.178H82.8a1.388,1.388,0,1,1,0-2.776H93.01a4.959,4.959,0,0,1,4.954,4.954V70.172a1.388,1.388,0,0,1-1.388,1.388" transform="translate(-20.349 -17.389)" fill="#1565c0"/>
            <path id="Trazado_604147" data-name="Trazado 604147" d="M75.188,317.033H6.58A6.587,6.587,0,0,1,0,310.455v-5.813a1.388,1.388,0,0,1,1.388-1.388H80.379a1.388,1.388,0,0,1,1.388,1.388v5.813a6.586,6.586,0,0,1-6.58,6.578m-72.412-11v4.425a3.807,3.807,0,0,0,3.8,3.8H75.188a3.807,3.807,0,0,0,3.8-3.8V306.03Z" transform="translate(0 -251.859)" fill="#1565c0"/>
            <path id="Trazado_604148" data-name="Trazado 604148" d="M185.927,311.266H161.055a1.388,1.388,0,0,1-1.388-1.388v-5.236a1.388,1.388,0,0,1,1.388-1.388h24.871a1.388,1.388,0,0,1,1.388,1.388v5.236a1.388,1.388,0,0,1-1.388,1.388m-23.483-2.776h22.1v-2.46h-22.1Z" transform="translate(-132.607 -251.859)" fill="#1565c0"/>
            <path id="Trazado_604149" data-name="Trazado 604149" d="M136.86,44.08H129.6a1.388,1.388,0,0,1-1.388-1.388V37.9a16.424,16.424,0,0,1-2.645-1.1l-3.388,3.388a1.388,1.388,0,0,1-1.963,0l-5.136-5.136a1.388,1.388,0,0,1,0-1.963l3.388-3.388a16.487,16.487,0,0,1-1.1-2.646h-4.79a1.388,1.388,0,0,1-1.388-1.388V18.408a1.388,1.388,0,0,1,1.388-1.388h4.79a16.468,16.468,0,0,1,1.1-2.645l-3.388-3.388a1.388,1.388,0,0,1,0-1.963l5.136-5.136a1.387,1.387,0,0,1,1.963,0l3.388,3.388a16.47,16.47,0,0,1,2.645-1.1V1.388A1.388,1.388,0,0,1,129.6,0h7.264a1.388,1.388,0,0,1,1.388,1.388v4.79a16.434,16.434,0,0,1,2.645,1.1l3.389-3.388a1.387,1.387,0,0,1,1.963,0l5.136,5.136a1.388,1.388,0,0,1,0,1.963l-3.388,3.388a16.446,16.446,0,0,1,1.1,2.645h4.79a1.388,1.388,0,0,1,1.388,1.388v7.264a1.388,1.388,0,0,1-1.388,1.388h-4.79a16.471,16.471,0,0,1-1.1,2.646l3.389,3.388a1.388,1.388,0,0,1,0,1.963l-5.136,5.136a1.388,1.388,0,0,1-1.963,0l-3.389-3.388a16.338,16.338,0,0,1-2.645,1.1v4.79a1.388,1.388,0,0,1-1.388,1.388M130.984,41.3h4.488V36.85A1.386,1.386,0,0,1,136.53,35.5a13.74,13.74,0,0,0,3.879-1.608,1.388,1.388,0,0,1,1.7.2l3.151,3.15,3.173-3.173-3.151-3.151a1.388,1.388,0,0,1-.2-1.7,13.818,13.818,0,0,0,1.609-3.881,1.388,1.388,0,0,1,1.348-1.059h4.454V19.8h-4.454a1.386,1.386,0,0,1-1.348-1.059,13.692,13.692,0,0,0-1.609-3.879,1.389,1.389,0,0,1,.2-1.7l3.151-3.15-3.173-3.173-3.151,3.15a1.39,1.39,0,0,1-1.7.205,13.79,13.79,0,0,0-3.879-1.61,1.387,1.387,0,0,1-1.058-1.348V2.776h-4.488V7.23a1.387,1.387,0,0,1-1.059,1.348,13.789,13.789,0,0,0-3.88,1.61,1.389,1.389,0,0,1-1.7-.205l-3.15-3.15-3.173,3.173,3.15,3.15a1.388,1.388,0,0,1,.205,1.7,13.791,13.791,0,0,0-1.61,3.88,1.387,1.387,0,0,1-1.348,1.059h-4.454v4.487h4.454a1.387,1.387,0,0,1,1.348,1.059,13.812,13.812,0,0,0,1.61,3.881,1.388,1.388,0,0,1-.205,1.7l-3.15,3.151,3.173,3.173,3.15-3.15a1.389,1.389,0,0,1,1.7-.2,13.769,13.769,0,0,0,3.88,1.608,1.387,1.387,0,0,1,1.059,1.348Z" transform="translate(-92.344)" fill="#1565c0"/>
            <path id="Trazado_604150" data-name="Trazado 604150" d="M159.637,65.1a16.651,16.651,0,1,1,16.651-16.651A16.67,16.67,0,0,1,159.637,65.1m0-30.525a13.874,13.874,0,1,0,13.875,13.874,13.89,13.89,0,0,0-13.875-13.874" transform="translate(-118.753 -26.412)" fill="#1565c0"/>
          </g>
        </g>
        <circle id="Elipse_8020" data-name="Elipse 8020" cx="27.5" cy="27.5" r="27.5" transform="translate(-6598 -9281)" fill="#b2ebf2"/>
        <path id="Icon_ionic-md-mail" data-name="Icon ionic-md-mail" d="M30.435,5.625H5.217A2.975,2.975,0,0,0,2.25,8.592V27.135A2.975,2.975,0,0,0,5.217,30.1H30.435A2.975,2.975,0,0,0,33.4,27.135V8.592A2.975,2.975,0,0,0,30.435,5.625Zm-.371,6.3L17.826,20.089,5.588,11.93V8.963l12.238,8.159L30.064,8.963Z" transform="translate(-6589.589 -9271.434)" fill="#1565c0"/>
        <circle id="Elipse_8021" data-name="Elipse 8021" cx="27.5" cy="27.5" r="27.5" transform="translate(-6399 -9281)" fill="#b2ebf2"/>
        <path id="Icon_awesome-wifi" data-name="Icon awesome-wifi" d="M34.693,8.965a25.407,25.407,0,0,0-34.415,0A.869.869,0,0,0,.259,10.22L2.13,12.076a.887.887,0,0,0,1.224.021,20.965,20.965,0,0,1,28.264,0,.888.888,0,0,0,1.224-.021l1.871-1.856a.869.869,0,0,0-.02-1.256ZM17.486,19.736a3.5,3.5,0,1,0,3.5,3.5A3.5,3.5,0,0,0,17.486,19.736ZM28.56,15.168a16.775,16.775,0,0,0-22.149,0,.864.864,0,0,0-.031,1.265L8.262,18.29a.892.892,0,0,0,1.2.044,12.307,12.307,0,0,1,16.037,0,.891.891,0,0,0,1.2-.044l1.882-1.857A.864.864,0,0,0,28.56,15.168Z" transform="translate(-6389.048 -9268.761)" fill="#1565c0"/>
        <g id="Icon_feather-monitor" data-name="Icon feather-monitor" transform="translate(-6579.903 -9218.054)">
          <path id="Trazado_604166" data-name="Trazado 604166" d="M4.628,4.5H17.654a1.628,1.628,0,0,1,1.628,1.628V14.27A1.628,1.628,0,0,1,17.654,15.9H4.628A1.628,1.628,0,0,1,3,14.27V6.128A1.628,1.628,0,0,1,4.628,4.5Z" transform="translate(-3 -4.5)" fill="none" stroke="#1565c0" stroke-linecap="round" stroke-linejoin="round" stroke-width="1"/>
          <path id="Trazado_604167" data-name="Trazado 604167" d="M12,31.5h6.513" transform="translate(-7.115 -16.846)" fill="none" stroke="#1565c0" stroke-linecap="round" stroke-linejoin="round" stroke-width="1"/>
          <path id="Trazado_604168" data-name="Trazado 604168" d="M18,25.5v3.257" transform="translate(-9.859 -14.102)" fill="none" stroke="#1565c0" stroke-linecap="round" stroke-linejoin="round" stroke-width="1"/>
        </g>
        <g id="Icon_feather-smartphone" data-name="Icon feather-smartphone" transform="translate(-6550.547 -9307.553)">
          <path id="Trazado_604183" data-name="Trazado 604183" d="M9.688,3H20.631a2.188,2.188,0,0,1,2.188,2.188V22.7a2.188,2.188,0,0,1-2.188,2.188H9.688A2.188,2.188,0,0,1,7.5,22.7V5.188A2.188,2.188,0,0,1,9.688,3Z" transform="translate(-7.5 -3)" fill="none" stroke="#1565c0" stroke-linecap="round" stroke-linejoin="round" stroke-width="1"/>
          <path id="Trazado_604184" data-name="Trazado 604184" d="M18,27h0" transform="translate(-10.34 -9.492)" fill="none" stroke="#1565c0" stroke-linecap="round" stroke-linejoin="round" stroke-width="1"/>
        </g>
        <path id="Trazado_604197" data-name="Trazado 604197" d="M17.644-5.119A7.124,7.124,0,0,1,16.336-.934,3.866,3.866,0,0,1,13.117.625,2.92,2.92,0,0,1,11.659.268a2.489,2.489,0,0,1-.986-1.011A3.128,3.128,0,0,1,8.027.585,2.658,2.658,0,0,1,6.337.017,3.251,3.251,0,0,1,5.276-1.6,5.837,5.837,0,0,1,5.07-3.972a7.382,7.382,0,0,1,1.62-4.044A4.1,4.1,0,0,1,9.918-9.545a4.612,4.612,0,0,1,2.545.684l.634.422-.513,5.9q-.171,1.4.966,1.4a1.676,1.676,0,0,0,1.433-1.091,6.436,6.436,0,0,0,.639-2.791,7.169,7.169,0,0,0-1.393-5.191,5.693,5.693,0,0,0-4.582-1.831,6.082,6.082,0,0,0-3.415.981A6.747,6.747,0,0,0,3.868-8.282a10.438,10.438,0,0,0-.981,4.089A7.594,7.594,0,0,0,4.3,1.194,5.8,5.8,0,0,0,9,3.06a8.828,8.828,0,0,0,1.791-.2,7.85,7.85,0,0,0,1.539-.458l.372,1.67a5.234,5.234,0,0,1-1.655.649,9.033,9.033,0,0,1-2.087.246A9.455,9.455,0,0,1,4.321,3.92,6.487,6.487,0,0,1,1.5.806a11.21,11.21,0,0,1-.825-5A11.582,11.582,0,0,1,1.957-9.167a8.464,8.464,0,0,1,3.179-3.4,8.719,8.719,0,0,1,4.552-1.2,8.68,8.68,0,0,1,4.376,1.051A6.636,6.636,0,0,1,16.829-9.7,9.674,9.674,0,0,1,17.644-5.119ZM7.585-3.972A3.993,3.993,0,0,0,7.791-2a1.061,1.061,0,0,0,1.021.669,1.181,1.181,0,0,0,.87-.422,3.241,3.241,0,0,0,.659-1.207l.4-4.587a2.41,2.41,0,0,0-.624-.08,1.984,1.984,0,0,0-1.735.88A6.06,6.06,0,0,0,7.585-3.972Z" transform="translate(-6408.729 -9290.638)" fill="#1565c0"/>
        <path id="Icon_awesome-user-alt" data-name="Icon awesome-user-alt" d="M8.57,9.641A4.821,4.821,0,1,0,3.749,4.821,4.822,4.822,0,0,0,8.57,9.641Zm4.285,1.071H11.01a5.827,5.827,0,0,1-4.881,0H4.285A4.285,4.285,0,0,0,0,15v.536A1.607,1.607,0,0,0,1.607,17.14H15.533a1.607,1.607,0,0,0,1.607-1.607V15A4.285,4.285,0,0,0,12.855,10.712Z" transform="translate(-6380.133 -9220.54)" fill="#1565c0"/>
        <ellipse id="Elipse_8022" data-name="Elipse 8022" cx="27" cy="27.5" rx="27" ry="27.5" transform="translate(-6498 -9359)" fill="#b2ebf2"/>
        <g id="Grupo_889432" data-name="Grupo 889432" transform="translate(-6485.61 -9346.631)">
          <g id="Grupo_889431" data-name="Grupo 889431" clip-path="url(#clip-path-3)">
            <path id="Trazado_604198" data-name="Trazado 604198" d="M30.846,15.423A15.441,15.441,0,0,0,15.464,0h-.082A15.423,15.423,0,1,0,30.846,15.423ZM10.5,2.564A15.294,15.294,0,0,0,7.525,8.6a14.734,14.734,0,0,1-3.018-1.53,13.526,13.526,0,0,1,6-4.507M3.556,8.435a16.8,16.8,0,0,0,3.556,1.778,24.48,24.48,0,0,0-.5,4.383H1.654a14.16,14.16,0,0,1,1.9-6.161Zm-1.9,7.815H6.616a27.428,27.428,0,0,0,.455,4.259,17.153,17.153,0,0,0-3.6,1.778A13.563,13.563,0,0,1,1.654,16.25Zm2.77,7.443a14.16,14.16,0,0,1,3.06-1.571A15.91,15.91,0,0,0,10.5,28.283,13.413,13.413,0,0,1,4.424,23.693ZM14.6,29.11c-2.4-.538-4.466-3.473-5.541-7.484A25.914,25.914,0,0,1,14.6,20.8Zm0-9.965a26.8,26.8,0,0,0-5.913.868A22.331,22.331,0,0,1,8.27,16.25H14.6Zm0-4.548H8.27a23.263,23.263,0,0,1,.455-3.887,24.24,24.24,0,0,0,5.872.827Zm0-4.714A23.212,23.212,0,0,1,9.1,9.1c1.075-3.928,3.142-6.822,5.5-7.36ZM27.331,22.328a14.586,14.586,0,0,0-3.6-1.778,27.977,27.977,0,0,0,.455-4.259h4.962a12.872,12.872,0,0,1-1.819,6.037ZM29.192,14.6H24.23a25.43,25.43,0,0,0-.5-4.424A16.8,16.8,0,0,0,27.29,8.394,14.517,14.517,0,0,1,29.192,14.6ZM26.38,7.071A13.738,13.738,0,0,1,23.362,8.6a15.883,15.883,0,0,0-2.977-6.037,14,14,0,0,1,6,4.507M16.25,1.737c2.357.538,4.424,3.432,5.5,7.36a23.227,23.227,0,0,1-5.5.786Zm0,9.8a26.43,26.43,0,0,0,5.872-.868,23.777,23.777,0,0,1,.455,3.887H16.25Zm0,4.714h6.326a21.8,21.8,0,0,1-.414,3.763,26.819,26.819,0,0,0-5.913-.868Zm0,12.86V20.8a23.558,23.558,0,0,1,5.541.827c-1.075,4.011-3.142,6.905-5.541,7.484Zm4.094-.827a15.346,15.346,0,0,0,3.018-6.161,13.314,13.314,0,0,1,3.06,1.571,13.413,13.413,0,0,1-6.078,4.59" transform="translate(0)" fill="#1565c0"/>
          </g>
        </g>
        <g id="Grupo_889434" data-name="Grupo 889434" transform="translate(-6425.898 -9170.625)">
          <g id="Grupo_889433" data-name="Grupo 889433" transform="translate(0 0)" clip-path="url(#clip-path-4)">
            <path id="Trazado_604199" data-name="Trazado 604199" d="M27.215,0H4.948A4.954,4.954,0,0,0,0,4.948V44.533a4.954,4.954,0,0,0,4.948,4.948H27.215a4.953,4.953,0,0,0,4.948-4.948V4.948A4.953,4.953,0,0,0,27.215,0m1.649,44.533a1.651,1.651,0,0,1-1.649,1.649H4.948A1.651,1.651,0,0,1,3.3,44.533V4.948A1.652,1.652,0,0,1,4.948,3.3H27.215a1.651,1.651,0,0,1,1.649,1.65Z" transform="translate(0 0)" fill="#1565c0"/>
            <path id="Trazado_604200" data-name="Trazado 604200" d="M29.7,69.9a1.65,1.65,0,0,1-1.649,1.649H19.8a1.649,1.649,0,0,1,0-3.3h8.247A1.65,1.65,0,0,1,29.7,69.9" transform="translate(-7.842 -29.487)" fill="#1565c0"/>
          </g>
        </g>
        <path id="Icon_awesome-wifi-2" data-name="Icon awesome-wifi" d="M15.823,5.312a11.587,11.587,0,0,0-15.7,0,.4.4,0,0,0-.009.573l.853.847a.4.4,0,0,0,.558.009,9.562,9.562,0,0,1,12.891,0,.4.4,0,0,0,.558-.009l.853-.847a.4.4,0,0,0-.009-.573ZM7.975,10.225A1.595,1.595,0,1,0,9.57,11.82,1.595,1.595,0,0,0,7.975,10.225Zm5.051-2.083a7.651,7.651,0,0,0-10.1,0,.394.394,0,0,0-.014.577l.858.847a.407.407,0,0,0,.55.02,5.613,5.613,0,0,1,7.314,0,.407.407,0,0,0,.55-.02l.858-.847A.394.394,0,0,0,13.026,8.142Z" transform="translate(-6417.792 -9159.3)" fill="#1565c0"/>
      </g>
    </g>
    <rect id="Rectángulo_302249" data-name="Rectángulo 302249" width="408" height="278" transform="translate(-6689 -12350)" fill="none"/>
  </g>
</svg>
