<svg xmlns="http://www.w3.org/2000/svg" xmlns:xlink="http://www.w3.org/1999/xlink" width="1240" height="282.529" viewBox="0 0 1240 282.529">
  <defs>
    <clipPath id="clip-path">
      <rect id="Rectángulo_298361" data-name="Rectángulo 298361" width="265.353" height="182.454" fill="none"/>
    </clipPath>
    <clipPath id="clip-path-3">
      <rect id="Rectángulo_298356" data-name="Rectángulo 298356" width="232.899" height="147.364" fill="none"/>
    </clipPath>
    <clipPath id="clip-path-4">
      <rect id="Rectángulo_298375" data-name="Rectángulo 298375" width="112.483" height="126.265" fill="none"/>
    </clipPath>
  </defs>
  <g id="Grupo_890240" data-name="Grupo 890240" transform="translate(10905 4289.8)">
    <g id="Grupo_887843" data-name="Grupo 887843" transform="translate(-10904.574 -4289.8)">
      <g id="Grupo_887842" data-name="Grupo 887842" transform="translate(0)" clip-path="url(#clip-path)">
        <path id="Trazado_602080" data-name="Trazado 602080" d="M265.353,8.494v9.124H0V8.494A8.492,8.492,0,0,1,8.493,0H256.859a8.493,8.493,0,0,1,8.494,8.494" fill="#e3e3e3"/>
        <path id="Trazado_602081" data-name="Trazado 602081" d="M265.353,128.04V284.382a8.494,8.494,0,0,1-8.494,8.494H8.493A8.493,8.493,0,0,1,0,284.382V128.04Z" transform="translate(0 -110.422)" fill="#fff"/>
        <path id="Trazado_602082" data-name="Trazado 602082" d="M295.04,41.881a3.849,3.849,0,1,1-3.849-3.849,3.849,3.849,0,0,1,3.849,3.849" transform="translate(-247.804 -32.799)" fill="#fff"/>
        <path id="Línea_1982" data-name="Línea 1982" d="M3.727.5H0A.5.5,0,0,1-.5,0,.5.5,0,0,1,0-.5H3.727a.5.5,0,0,1,.5.5A.5.5,0,0,1,3.727.5Z" transform="translate(41.565 9.082)" fill="#808285"/>
        <path id="Trazado_602083" data-name="Trazado 602083" d="M303.892,56.9a.5.5,0,0,1-.354-.146l-1.823-1.823a.5.5,0,0,1,0-.707l1.823-1.823a.5.5,0,0,1,.707.707l-1.469,1.469,1.469,1.469a.5.5,0,0,1-.354.854Z" transform="translate(-260.504 -45.499)" fill="#808285"/>
        <path id="Trazado_602084" data-name="Trazado 602084" d="M377.66,41.881a3.849,3.849,0,1,0,3.849-3.849,3.849,3.849,0,0,0-3.849,3.849" transform="translate(-325.694 -32.799)" fill="#fff"/>
        <path id="Línea_1983" data-name="Línea 1983" d="M3.727.5H0A.5.5,0,0,1-.5,0,.5.5,0,0,1,0-.5H3.727a.5.5,0,0,1,.5.5A.5.5,0,0,1,3.727.5Z" transform="translate(53.912 9.082)" fill="#808285"/>
        <path id="Trazado_602085" data-name="Trazado 602085" d="M405.634,56.9a.5.5,0,0,1-.354-.854l1.469-1.469-1.469-1.469a.5.5,0,0,1,.707-.707l1.823,1.823a.5.5,0,0,1,0,.707l-1.823,1.823A.5.5,0,0,1,405.634,56.9Z" transform="translate(-349.818 -45.499)" fill="#808285"/>
        <path id="Trazado_602086" data-name="Trazado 602086" d="M201.745,50.946a2.4,2.4,0,1,1-2.4-2.4,2.4,2.4,0,0,1,2.4,2.4" transform="translate(-169.84 -41.863)" fill="#29ab7f"/>
        <path id="Trazado_602087" data-name="Trazado 602087" d="M136.221,50.946a2.4,2.4,0,1,1-2.4-2.4,2.4,2.4,0,0,1,2.4,2.4" transform="translate(-113.332 -41.863)" fill="#f4b11d"/>
        <path id="Trazado_602088" data-name="Trazado 602088" d="M70.7,50.946a2.4,2.4,0,1,1-2.4-2.4,2.4,2.4,0,0,1,2.4,2.4" transform="translate(-56.824 -41.863)" fill="#eb3e56"/>
        <path id="Trazado_602089" data-name="Trazado 602089" d="M645.556,45.73H466.867a3.849,3.849,0,1,1,0-7.7H645.556a3.849,3.849,0,1,1,0,7.7" transform="translate(-399.306 -32.799)" fill="#fff"/>
        <path id="Trazado_602090" data-name="Trazado 602090" d="M1775.176,52.2a1.789,1.789,0,1,1-1.789,1.789A1.791,1.791,0,0,1,1775.176,52.2Zm0,2.578a.789.789,0,1,0-.789-.789A.79.79,0,0,0,1775.176,54.773Z" transform="translate(-1529.799 -45.444)" fill="#808285"/>
        <path id="Línea_1984" data-name="Línea 1984" d="M1.45,1.95A.5.5,0,0,1,1.1,1.8L-.354.354a.5.5,0,0,1,0-.707.5.5,0,0,1,.707,0L1.8,1.1a.5.5,0,0,1-.354.854Z" transform="translate(246.168 9.564)" fill="#808285"/>
        <path id="Trazado_602091" data-name="Trazado 602091" d="M1851.106,37.386a.676.676,0,1,1-.676-.676.675.675,0,0,1,.676.676" transform="translate(-1595.228 -31.659)" fill="#fff"/>
        <path id="Trazado_602092" data-name="Trazado 602092" d="M1851.106,61.909a.676.676,0,1,1-.676-.676.675.675,0,0,1,.676.676" transform="translate(-1595.228 -52.807)" fill="#fff"/>
        <path id="Trazado_602093" data-name="Trazado 602093" d="M1851.106,86.433a.676.676,0,1,1-.676-.676.675.675,0,0,1,.676.676" transform="translate(-1595.228 -73.957)" fill="#fff"/>
      </g>
    </g>
    <g id="Grupo_887848" data-name="Grupo 887848" transform="translate(-10222.426 -4289.8)">
      <g id="Grupo_887846" data-name="Grupo 887846" transform="translate(0)">
        <g id="Grupo_887842-2" data-name="Grupo 887842" clip-path="url(#clip-path)">
          <path id="Trazado_602080-2" data-name="Trazado 602080" d="M265.353,8.494v9.124H0V8.494A8.492,8.492,0,0,1,8.493,0H256.859a8.493,8.493,0,0,1,8.494,8.494" fill="#e3e3e3"/>
          <path id="Trazado_602081-2" data-name="Trazado 602081" d="M265.353,128.04V284.382a8.494,8.494,0,0,1-8.494,8.494H8.493A8.493,8.493,0,0,1,0,284.382V128.04Z" transform="translate(0 -110.422)" fill="#12263f"/>
          <path id="Trazado_602082-2" data-name="Trazado 602082" d="M295.04,41.881a3.849,3.849,0,1,1-3.849-3.849,3.849,3.849,0,0,1,3.849,3.849" transform="translate(-247.804 -32.799)" fill="#fff"/>
          <path id="Línea_1982-2" data-name="Línea 1982" d="M3.727.5H0A.5.5,0,0,1-.5,0,.5.5,0,0,1,0-.5H3.727a.5.5,0,0,1,.5.5A.5.5,0,0,1,3.727.5Z" transform="translate(41.565 9.082)" fill="#808285"/>
          <path id="Trazado_602083-2" data-name="Trazado 602083" d="M303.892,56.9a.5.5,0,0,1-.354-.146l-1.823-1.823a.5.5,0,0,1,0-.707l1.823-1.823a.5.5,0,0,1,.707.707l-1.469,1.469,1.469,1.469a.5.5,0,0,1-.354.854Z" transform="translate(-260.504 -45.499)" fill="#808285"/>
          <path id="Trazado_602084-2" data-name="Trazado 602084" d="M377.66,41.881a3.849,3.849,0,1,0,3.849-3.849,3.849,3.849,0,0,0-3.849,3.849" transform="translate(-325.694 -32.799)" fill="#fff"/>
          <path id="Línea_1983-2" data-name="Línea 1983" d="M3.727.5H0A.5.5,0,0,1-.5,0,.5.5,0,0,1,0-.5H3.727a.5.5,0,0,1,.5.5A.5.5,0,0,1,3.727.5Z" transform="translate(53.912 9.082)" fill="#808285"/>
          <path id="Trazado_602085-2" data-name="Trazado 602085" d="M405.634,56.9a.5.5,0,0,1-.354-.854l1.469-1.469-1.469-1.469a.5.5,0,0,1,.707-.707l1.823,1.823a.5.5,0,0,1,0,.707l-1.823,1.823A.5.5,0,0,1,405.634,56.9Z" transform="translate(-349.818 -45.499)" fill="#808285"/>
          <path id="Trazado_602086-2" data-name="Trazado 602086" d="M201.745,50.946a2.4,2.4,0,1,1-2.4-2.4,2.4,2.4,0,0,1,2.4,2.4" transform="translate(-169.84 -41.863)" fill="#29ab7f"/>
          <path id="Trazado_602087-2" data-name="Trazado 602087" d="M136.221,50.946a2.4,2.4,0,1,1-2.4-2.4,2.4,2.4,0,0,1,2.4,2.4" transform="translate(-113.332 -41.863)" fill="#f4b11d"/>
          <path id="Trazado_602088-2" data-name="Trazado 602088" d="M70.7,50.946a2.4,2.4,0,1,1-2.4-2.4,2.4,2.4,0,0,1,2.4,2.4" transform="translate(-56.824 -41.863)" fill="#eb3e56"/>
          <path id="Trazado_602089-2" data-name="Trazado 602089" d="M645.556,45.73H466.867a3.849,3.849,0,1,1,0-7.7H645.556a3.849,3.849,0,1,1,0,7.7" transform="translate(-399.306 -32.799)" fill="#fff"/>
          <path id="Trazado_602090-2" data-name="Trazado 602090" d="M1775.176,52.2a1.789,1.789,0,1,1-1.789,1.789A1.791,1.791,0,0,1,1775.176,52.2Zm0,2.578a.789.789,0,1,0-.789-.789A.79.79,0,0,0,1775.176,54.773Z" transform="translate(-1529.799 -45.444)" fill="#808285"/>
          <path id="Línea_1984-2" data-name="Línea 1984" d="M1.45,1.95A.5.5,0,0,1,1.1,1.8L-.354.354a.5.5,0,0,1,0-.707.5.5,0,0,1,.707,0L1.8,1.1a.5.5,0,0,1-.354.854Z" transform="translate(246.168 9.564)" fill="#808285"/>
          <path id="Trazado_602091-2" data-name="Trazado 602091" d="M1851.106,37.386a.676.676,0,1,1-.676-.676.675.675,0,0,1,.676.676" transform="translate(-1595.228 -31.659)" fill="#fff"/>
          <path id="Trazado_602092-2" data-name="Trazado 602092" d="M1851.106,61.909a.676.676,0,1,1-.676-.676.675.675,0,0,1,.676.676" transform="translate(-1595.228 -52.807)" fill="#fff"/>
          <path id="Trazado_602093-2" data-name="Trazado 602093" d="M1851.106,86.433a.676.676,0,1,1-.676-.676.675.675,0,0,1,.676.676" transform="translate(-1595.228 -73.957)" fill="#fff"/>
        </g>
      </g>
      <g id="Grupo_887847" data-name="Grupo 887847" transform="translate(6.71 27.536)">
        <g id="Grupo_887839" data-name="Grupo 887839" clip-path="url(#clip-path-3)">
          <path id="Trazado_602015" data-name="Trazado 602015" d="M84.75,159.659H47.8a1.888,1.888,0,0,1-1.888-1.888V36.1A1.888,1.888,0,0,1,47.8,34.207H84.75A1.889,1.889,0,0,1,86.638,36.1V157.771a1.888,1.888,0,0,1-1.888,1.888" transform="translate(-35.089 -26.141)" fill="#3b4152"/>
          <path id="Trazado_602016" data-name="Trazado 602016" d="M84.545,72.437H68.4a.662.662,0,0,1-.662-.662V70.4a.662.662,0,0,1,.662-.662H84.544a.662.662,0,0,1,.662.662v1.377a.662.662,0,0,1-.662.662" transform="translate(-51.766 -53.294)" fill="#fff"/>
          <path id="Trazado_602017" data-name="Trazado 602017" d="M93.223,98.423H68.4a.662.662,0,0,1-.662-.662V96.385a.662.662,0,0,1,.662-.662H93.223a.662.662,0,0,1,.662.662v1.377a.662.662,0,0,1-.662.662" transform="translate(-51.765 -73.153)" fill="#fff"/>
          <path id="Trazado_602018" data-name="Trazado 602018" d="M88.718,124.408H68.4a.662.662,0,0,1-.662-.662V122.37a.662.662,0,0,1,.662-.662h20.32a.662.662,0,0,1,.662.662v1.377a.662.662,0,0,1-.662.662" transform="translate(-51.765 -93.011)" fill="#fff"/>
          <path id="Trazado_602019" data-name="Trazado 602019" d="M77.961,150.394H68.337a.6.6,0,0,1-.6-.6v-1.5a.6.6,0,0,1,.6-.6h9.624a.6.6,0,0,1,.6.6v1.5a.6.6,0,0,1-.6.6" transform="translate(-51.766 -112.869)" fill="#fff"/>
          <path id="Trazado_602020" data-name="Trazado 602020" d="M81.468,176.381H68.4a.662.662,0,0,1-.662-.662v-1.377a.662.662,0,0,1,.662-.662H81.468a.662.662,0,0,1,.662.662v1.377a.662.662,0,0,1-.662.662" transform="translate(-51.765 -132.729)" fill="#fff"/>
          <path id="Trazado_602021" data-name="Trazado 602021" d="M87.4,202.367h-19a.662.662,0,0,1-.662-.662v-1.377a.662.662,0,0,1,.662-.662h19a.662.662,0,0,1,.662.662v1.377a.662.662,0,0,1-.662.662" transform="translate(-51.766 -152.588)" fill="#fff"/>
          <path id="Trazado_602022" data-name="Trazado 602022" d="M81.468,228.353H68.4a.661.661,0,0,1-.662-.662v-1.377a.662.662,0,0,1,.662-.662H81.468a.661.661,0,0,1,.662.662v1.377a.661.661,0,0,1-.662.662" transform="translate(-51.766 -172.447)" fill="#fff"/>
          <path id="Trazado_602023" data-name="Trazado 602023" d="M93.993,254.339H68.4a.662.662,0,0,1-.662-.662V252.3a.662.662,0,0,1,.662-.662H93.993a.662.662,0,0,1,.662.662v1.377a.662.662,0,0,1-.662.662" transform="translate(-51.766 -192.306)" fill="#fff"/>
          <path id="Trazado_602024" data-name="Trazado 602024" d="M84.653,280.325H68.4a.661.661,0,0,1-.662-.662v-1.377a.662.662,0,0,1,.662-.662H84.654a.662.662,0,0,1,.662.662v1.377a.662.662,0,0,1-.662.662" transform="translate(-51.765 -212.164)" fill="#fff"/>
          <path id="Trazado_602025" data-name="Trazado 602025" d="M94.651,306.311H68.4a.662.662,0,0,1-.662-.662v-1.377a.662.662,0,0,1,.662-.662H94.651a.662.662,0,0,1,.662.662v1.377a.662.662,0,0,1-.662.662" transform="translate(-51.765 -232.023)" fill="#fff"/>
          <path id="Trazado_602026" data-name="Trazado 602026" d="M86.3,332.3H68.4a.662.662,0,0,1-.662-.662V330.26a.662.662,0,0,1,.662-.662H86.3a.662.662,0,0,1,.662.662v1.377a.662.662,0,0,1-.662.662" transform="translate(-51.765 -251.883)" fill="#fff"/>
          <path id="Trazado_602027" data-name="Trazado 602027" d="M78.548,358.283H68.353a.615.615,0,0,1-.615-.615V356.2a.615.615,0,0,1,.615-.616H78.548a.616.616,0,0,1,.616.616v1.469a.616.616,0,0,1-.615.615" transform="translate(-51.766 -271.741)" fill="#fff"/>
          <path id="Trazado_602028" data-name="Trazado 602028" d="M289.732,72.437h-28.12a.662.662,0,0,1-.662-.662V70.4a.662.662,0,0,1,.662-.662h28.12a.662.662,0,0,1,.662.662v1.377a.662.662,0,0,1-.662.662" transform="translate(-199.421 -53.294)" fill="#fff"/>
          <path id="Trazado_602029" data-name="Trazado 602029" d="M277.074,94.9H259.281a.662.662,0,0,1-.662-.662V92.861a.662.662,0,0,1,.662-.662h17.793a.662.662,0,0,1,.661.662v1.377a.662.662,0,0,1-.662.662" transform="translate(-197.64 -70.46)" fill="#fff"/>
          <path id="Trazado_602030" data-name="Trazado 602030" d="M313.884,120H296.091a.662.662,0,0,1-.662-.662v-1.377a.662.662,0,0,1,.662-.662h17.793a.661.661,0,0,1,.662.661v1.377a.662.662,0,0,1-.662.662" transform="translate(-225.77 -89.646)" fill="#fff"/>
          <path id="Trazado_602031" data-name="Trazado 602031" d="M356.982,142.907H333.367a.662.662,0,0,1-.662-.662v-1.377a.662.662,0,0,1,.662-.662h23.616a.662.662,0,0,1,.662.662v1.377a.662.662,0,0,1-.662.662" transform="translate(-254.257 -107.148)" fill="#fff"/>
          <path id="Trazado_602032" data-name="Trazado 602032" d="M350.641,165.811H331.969a.662.662,0,0,1-.662-.662v-1.377a.662.662,0,0,1,.662-.662h18.672a.662.662,0,0,1,.662.662v1.377a.662.662,0,0,1-.662.662" transform="translate(-253.189 -124.651)" fill="#fff"/>
          <path id="Trazado_602033" data-name="Trazado 602033" d="M314.6,235.841H294.227a.662.662,0,0,1-.662-.662V233.8a.662.662,0,0,1,.662-.662H314.6a.662.662,0,0,1,.662.662v1.377a.662.662,0,0,1-.662.662" transform="translate(-224.346 -178.169)" fill="#fff"/>
          <path id="Trazado_602034" data-name="Trazado 602034" d="M387.5,283.408H370.642a.662.662,0,0,1-.662-.662V281.37a.662.662,0,0,1,.662-.662H387.5a.662.662,0,0,1,.662.662v1.377a.661.661,0,0,1-.662.662" transform="translate(-282.743 -214.52)" fill="#fff"/>
          <path id="Trazado_602035" data-name="Trazado 602035" d="M424.561,307.192H405.743a.662.662,0,0,1-.662-.662v-1.377a.662.662,0,0,1,.662-.662h18.818a.662.662,0,0,1,.662.662v1.377a.662.662,0,0,1-.662.662" transform="translate(-309.568 -232.696)" fill="#9d79b5"/>
          <path id="Trazado_602036" data-name="Trazado 602036" d="M388.218,354.759H369.4a.661.661,0,0,1-.662-.662v-1.377a.662.662,0,0,1,.662-.662h18.819a.662.662,0,0,1,.662.662V354.1a.661.661,0,0,1-.662.662" transform="translate(-281.794 -269.048)" fill="#fff"/>
          <path id="Trazado_602037" data-name="Trazado 602037" d="M356.715,402.328H334.454a.662.662,0,0,1-.662-.662V400.29a.662.662,0,0,1,.662-.662h22.261a.662.662,0,0,1,.662.662v1.377a.662.662,0,0,1-.662.662" transform="translate(-255.088 -305.401)" fill="#fff"/>
          <path id="Trazado_602038" data-name="Trazado 602038" d="M471.337,402.328H449.077a.662.662,0,0,1-.662-.662V400.29a.662.662,0,0,1,.662-.662h22.261a.662.662,0,0,1,.662.662v1.377a.661.661,0,0,1-.662.662" transform="translate(-342.684 -305.401)" fill="#f48e8e"/>
          <path id="Trazado_602039" data-name="Trazado 602039" d="M591.783,402.328H563.7a.662.662,0,0,1-.662-.662V400.29a.662.662,0,0,1,.662-.662h28.083a.662.662,0,0,1,.662.662v1.377a.662.662,0,0,1-.662.662" transform="translate(-430.28 -305.401)" fill="#9d79b5"/>
          <path id="Trazado_602040" data-name="Trazado 602040" d="M429.613,330.976H405.045a.662.662,0,0,1-.662-.662v-1.377a.662.662,0,0,1,.662-.662h24.568a.662.662,0,0,1,.662.662v1.377a.662.662,0,0,1-.662.662" transform="translate(-309.034 -250.872)" fill="#fff"/>
          <path id="Trazado_602041" data-name="Trazado 602041" d="M628.548,330.976H575.581a.662.662,0,0,1-.662-.662v-1.377a.662.662,0,0,1,.662-.662h52.968a.662.662,0,0,1,.662.662v1.377a.662.662,0,0,1-.662.662" transform="translate(-439.36 -250.872)" fill="#fff"/>
          <path id="Trazado_602042" data-name="Trazado 602042" d="M651.943,307.192H633.125a.662.662,0,0,1-.662-.662v-1.377a.662.662,0,0,1,.662-.662h18.819a.662.662,0,0,1,.662.662v1.377a.662.662,0,0,1-.662.662" transform="translate(-483.336 -232.696)" fill="#9d79b5"/>
          <path id="Trazado_602043" data-name="Trazado 602043" d="M531.95,307.192H504.479a.662.662,0,0,1-.662-.662v-1.377a.662.662,0,0,1,.662-.662H531.95a.662.662,0,0,1,.662.662v1.377a.662.662,0,0,1-.662.662" transform="translate(-385.023 -232.696)" fill="#f48e8e"/>
          <path id="Trazado_602044" data-name="Trazado 602044" d="M588.789,283.408H571.93a.662.662,0,0,1-.662-.662V281.37a.662.662,0,0,1,.662-.662h16.859a.662.662,0,0,1,.662.661v1.377a.662.662,0,0,1-.662.662" transform="translate(-436.57 -214.52)" fill="#fff"/>
          <path id="Trazado_602045" data-name="Trazado 602045" d="M483.629,283.408H464.3a.662.662,0,0,1-.662-.662V281.37a.662.662,0,0,1,.662-.662h19.331a.662.662,0,0,1,.662.662v1.377a.662.662,0,0,1-.662.662" transform="translate(-354.316 -214.52)" fill="#f48e8e"/>
          <path id="Trazado_602046" data-name="Trazado 602046" d="M364.84,259.625H332.435a.662.662,0,0,1-.662-.662v-1.377a.662.662,0,0,1,.662-.662H364.84a.661.661,0,0,1,.662.662v1.377a.662.662,0,0,1-.662.662" transform="translate(-253.545 -196.345)" fill="#fff"/>
          <path id="Trazado_602047" data-name="Trazado 602047" d="M501.52,259.625h-8.432a.563.563,0,0,1-.563-.563v-1.574a.563.563,0,0,1,.563-.563h8.432a.563.563,0,0,1,.563.563v1.574a.563.563,0,0,1-.563.563" transform="translate(-376.393 -196.345)" fill="#1d9bc2"/>
          <path id="Trazado_602048" data-name="Trazado 602048" d="M346.625,378.544H334.764a.661.661,0,0,1-.661-.661v-1.378a.661.661,0,0,1,.661-.661h11.861a.661.661,0,0,1,.661.661v1.378a.661.661,0,0,1-.661.661" transform="translate(-255.326 -287.224)" fill="#fff"/>
          <path id="Trazado_602049" data-name="Trazado 602049" d="M383.421,423.029H369.4a.662.662,0,0,1-.662-.662V420.99a.662.662,0,0,1,.662-.661h14.021a.662.662,0,0,1,.662.662v1.377a.662.662,0,0,1-.662.662" transform="translate(-281.794 -321.22)" fill="#fff"/>
          <path id="Trazado_602050" data-name="Trazado 602050" d="M347.706,446.812H334.454a.662.662,0,0,1-.662-.662v-1.377a.661.661,0,0,1,.662-.662h13.252a.662.662,0,0,1,.662.662v1.377a.662.662,0,0,1-.662.662" transform="translate(-255.088 -339.396)" fill="#fff"/>
          <path id="Trazado_602051" data-name="Trazado 602051" d="M345.066,470.6H331.814a.661.661,0,0,1-.662-.662v-1.377a.662.662,0,0,1,.662-.662h13.252a.662.662,0,0,1,.662.662v1.377a.662.662,0,0,1-.662.662" transform="translate(-253.07 -357.572)" fill="#fff"/>
          <path id="Trazado_602052" data-name="Trazado 602052" d="M388.914,493.94H369.4a.662.662,0,0,1-.662-.662V491.9a.662.662,0,0,1,.662-.662h19.514a.662.662,0,0,1,.662.662v1.377a.662.662,0,0,1-.662.662" transform="translate(-281.794 -375.412)" fill="#fff"/>
          <path id="Trazado_602053" data-name="Trazado 602053" d="M422.093,517.283H369.4a.662.662,0,0,1-.662-.662v-1.377a.662.662,0,0,1,.662-.662h52.693a.662.662,0,0,1,.662.662v1.377a.662.662,0,0,1-.662.662" transform="translate(-281.794 -393.251)" fill="#fff"/>
          <path id="Trazado_602054" data-name="Trazado 602054" d="M475.947,493.94h25.7a.662.662,0,0,0,.662-.662V491.9a.662.662,0,0,0-.662-.662h-25.7a.662.662,0,0,0-.662.662v1.377a.662.662,0,0,0,.662.662" transform="translate(-363.219 -375.412)" fill="#f48e8e"/>
          <path id="Trazado_602055" data-name="Trazado 602055" d="M645.589,517.283h36.461a.662.662,0,0,0,.662-.662v-1.377a.662.662,0,0,0-.662-.662H645.589a.662.662,0,0,0-.662.662v1.377a.661.661,0,0,0,.662.662" transform="translate(-492.861 -393.251)" fill="#fff"/>
          <path id="Trazado_602056" data-name="Trazado 602056" d="M605.013,493.94H619.18a.662.662,0,0,0,.662-.662V491.9a.662.662,0,0,0-.662-.662H605.013a.662.662,0,0,0-.662.662v1.377a.662.662,0,0,0,.662.662" transform="translate(-461.852 -375.412)" fill="#fbf393"/>
          <path id="Trazado_602057" data-name="Trazado 602057" d="M435.068,470.6H412.112a.661.661,0,0,1-.662-.662v-1.377a.662.662,0,0,1,.662-.662h22.957a.662.662,0,0,1,.662.662v1.377a.662.662,0,0,1-.662.662" transform="translate(-314.435 -357.572)" fill="#f48e8e"/>
          <path id="Trazado_602058" data-name="Trazado 602058" d="M544.58,470.6H527.666a.662.662,0,0,1-.662-.662v-1.376a.662.662,0,0,1,.662-.662H544.58a.662.662,0,0,1,.662.662v1.377a.662.662,0,0,1-.662.662" transform="translate(-402.743 -357.572)" fill="#2bb99b"/>
          <path id="Trazado_602059" data-name="Trazado 602059" d="M634.813,470.6h-7.486a.532.532,0,0,1-.532-.532v-1.635a.533.533,0,0,1,.532-.533h7.486a.533.533,0,0,1,.532.533v1.635a.532.532,0,0,1-.532.532" transform="translate(-479.004 -357.572)" fill="#1d9bc2"/>
          <path id="Trazado_602060" data-name="Trazado 602060" d="M531.106,423.029H449.843a1.352,1.352,0,1,1,0-2.7h81.263a1.352,1.352,0,1,1,0,2.7" transform="translate(-342.684 -321.22)" fill="#fff"/>
          <path id="Trazado_602061" data-name="Trazado 602061" d="M670.036,283.408H662.79a.662.662,0,0,1-.662-.662V281.37a.662.662,0,0,1,.662-.662h7.246a.661.661,0,0,1,.662.662v1.377a.661.661,0,0,1-.662.662" transform="translate(-506.006 -214.52)" fill="#1d9bc2"/>
          <path id="Trazado_602062" data-name="Trazado 602062" d="M534.446,330.976H527.2a.662.662,0,0,1-.662-.662v-1.377a.662.662,0,0,1,.662-.662h7.246a.662.662,0,0,1,.662.662v1.377a.662.662,0,0,1-.662.662" transform="translate(-402.387 -250.872)" fill="#fff"/>
          <path id="Trazado_602063" data-name="Trazado 602063" d="M741.626,307.192h-6.77a.662.662,0,0,1-.662-.662v-1.377a.662.662,0,0,1,.662-.662h6.77a.662.662,0,0,1,.662.662v1.377a.662.662,0,0,1-.662.662" transform="translate(-561.081 -232.696)" fill="#1d9bc2"/>
          <path id="Trazado_602064" data-name="Trazado 602064" d="M458.007,235.841H409.782a.662.662,0,0,1-.662-.662V233.8a.662.662,0,0,1,.662-.662h48.225a.661.661,0,0,1,.662.662v1.377a.661.661,0,0,1-.662.662" transform="translate(-312.654 -178.169)" fill="#fff"/>
          <path id="Trazado_602065" data-name="Trazado 602065" d="M307.3,213.819H294.227a.662.662,0,0,1-.662-.662V211.78a.662.662,0,0,1,.662-.661H307.3a.662.662,0,0,1,.662.662v1.377a.661.661,0,0,1-.662.662" transform="translate(-224.346 -161.34)" fill="#fff"/>
          <path id="Trazado_602066" data-name="Trazado 602066" d="M671.376,165.811H663.15a.556.556,0,0,1-.556-.556v-1.587a.556.556,0,0,1,.556-.556h8.226a.556.556,0,0,1,.556.556v1.587a.556.556,0,0,1-.556.556" transform="translate(-506.362 -124.651)" fill="#f7f081"/>
          <path id="Trazado_602067" data-name="Trazado 602067" d="M773.418,94.9h-8.226a.556.556,0,0,1-.556-.556V92.755a.557.557,0,0,1,.557-.556h8.225a.556.556,0,0,1,.556.556v1.587a.557.557,0,0,1-.556.556" transform="translate(-584.344 -70.46)" fill="#2bb99b"/>
          <path id="Trazado_602068" data-name="Trazado 602068" d="M732.31,165.811H710.782a.662.662,0,0,1-.662-.662v-1.377a.662.662,0,0,1,.662-.662H732.31a.661.661,0,0,1,.661.662v1.377a.661.661,0,0,1-.661.662" transform="translate(-542.682 -124.651)" fill="#f48e8e"/>
          <path id="Trazado_602069" data-name="Trazado 602069" d="M486.812,165.811H439.136a.662.662,0,0,1-.662-.662v-1.377a.662.662,0,0,1,.662-.662h47.676a.662.662,0,0,1,.662.662v1.377a.662.662,0,0,1-.662.662" transform="translate(-335.087 -124.651)" fill="#f48e8e"/>
          <path id="Trazado_602070" data-name="Trazado 602070" d="M382.857,188.713H332.435a.662.662,0,0,1-.662-.662v-1.377a.662.662,0,0,1,.662-.662h50.423a.662.662,0,0,1,.662.662v1.377a.662.662,0,0,1-.662.662" transform="translate(-253.545 -142.153)" fill="#fff"/>
          <path id="Trazado_602071" data-name="Trazado 602071" d="M472.495,142.907H455.911a.662.662,0,0,1-.662-.662v-1.377a.662.662,0,0,1,.662-.662H472.5a.662.662,0,0,1,.662.662v1.377a.662.662,0,0,1-.662.662" transform="translate(-347.907 -107.148)" fill="#f48e8e"/>
          <path id="Trazado_602072" data-name="Trazado 602072" d="M426.449,94.9H370.643a.662.662,0,0,1-.662-.662V92.861a.662.662,0,0,1,.662-.662h55.806a.662.662,0,0,1,.662.662v1.377a.662.662,0,0,1-.662.662" transform="translate(-282.744 -70.46)" fill="#f48e8e"/>
          <path id="Trazado_602073" data-name="Trazado 602073" d="M653.118,94.9H635.765a.662.662,0,0,1-.662-.662V92.861a.662.662,0,0,1,.662-.662h17.354a.662.662,0,0,1,.662.662v1.377a.662.662,0,0,1-.662.662" transform="translate(-485.353 -70.46)" fill="#fff"/>
          <path id="Trazado_602074" data-name="Trazado 602074" d="M35.936,604.617a1.128,1.128,0,1,1-1.126-1.064,1.1,1.1,0,0,1,1.126,1.064" transform="translate(-25.742 -461.242)" fill="#fff"/>
          <path id="Trazado_602075" data-name="Trazado 602075" d="M51.97,604.617a1.128,1.128,0,1,1-1.126-1.064,1.1,1.1,0,0,1,1.126,1.064" transform="translate(-37.995 -461.242)" fill="#fff"/>
          <path id="Trazado_602076" data-name="Trazado 602076" d="M68,604.617a1.128,1.128,0,1,1-1.126-1.064A1.1,1.1,0,0,1,68,604.617" transform="translate(-50.248 -461.242)" fill="#fff"/>
        </g>
      </g>
    </g>
    <g id="Grupo_887852" data-name="Grupo 887852" transform="translate(-11197.277 -10641.073)">
      <path id="Trazado_602094" data-name="Trazado 602094" d="M-8524.352-5267.141H-8576.5v-3h52.148Z" transform="translate(9137.352 11711)" fill="#fb8c00"/>
      <path id="Polígono_7" data-name="Polígono 7" d="M11,0,22,19H0Z" transform="translate(632 6431.5) rotate(90)" fill="#fb8c00"/>
    </g>
    <g id="Grupo_887851" data-name="Grupo 887851" transform="translate(-9855 -4261.706)">
      <g id="Grupo_887850" data-name="Grupo 887850" clip-path="url(#clip-path-4)">
        <path id="Trazado_602096" data-name="Trazado 602096" d="M0,222.145v25.521c0,8.092,25.18,14.651,56.241,14.651s56.241-6.559,56.241-14.651V222.145Z" transform="translate(0 -136.052)" fill="#1565c0"/>
        <path id="Trazado_602097" data-name="Trazado 602097" d="M112.483,198.651c0,8.092-25.18,14.651-56.241,14.651S0,206.743,0,198.651,25.18,184,56.241,184s56.241,6.559,56.241,14.651" transform="translate(0 -112.69)" fill="#8eb7e5"/>
        <path id="Trazado_602098" data-name="Trazado 602098" d="M10.856,151.668V175.28c0,7.486,23.3,13.555,52.034,13.555s52.035-6.069,52.035-13.555V151.668Z" transform="translate(-6.649 -92.888)" fill="#344954"/>
        <path id="Trazado_602099" data-name="Trazado 602099" d="M0,130.145v25.521c0,8.092,25.18,14.651,56.241,14.651s56.241-6.559,56.241-14.651V130.145Z" transform="translate(0 -79.707)" fill="#1565c0"/>
        <path id="Trazado_602100" data-name="Trazado 602100" d="M112.483,106.651c0,8.092-25.18,14.651-56.241,14.651S0,114.743,0,106.651,25.18,92,56.241,92s56.241,6.559,56.241,14.651" transform="translate(0 -56.345)" fill="#8eb7e5"/>
        <path id="Trazado_602101" data-name="Trazado 602101" d="M10.856,59.668V83.28c0,7.486,23.3,13.555,52.034,13.555s52.035-6.069,52.035-13.555V59.668Z" transform="translate(-6.649 -36.543)" fill="#344954"/>
        <path id="Trazado_602102" data-name="Trazado 602102" d="M0,38.145V63.666c0,8.092,25.18,14.651,56.241,14.651s56.241-6.559,56.241-14.651V38.145Z" transform="translate(0 -23.362)" fill="#1565c0"/>
        <path id="Trazado_602103" data-name="Trazado 602103" d="M112.483,14.651c0,8.092-25.18,14.651-56.241,14.651S0,22.743,0,14.651,25.18,0,56.241,0s56.241,6.559,56.241,14.651" fill="#8eb7e5"/>
      </g>
    </g>
    <g id="Grupo_887853" data-name="Grupo 887853" transform="translate(-11262.574 -10641.073)">
      <path id="Trazado_602105" data-name="Trazado 602105" d="M-8524.352-5267.141H-8576.5v-3h52.148Z" transform="translate(9545.5 11711)" fill="#fb8c00"/>
      <path id="Polígono_9" data-name="Polígono 9" d="M11,0,22,19H0Z" transform="translate(1040.148 6431.5) rotate(90)" fill="#fb8c00"/>
    </g>
    <g id="Grupo_887854" data-name="Grupo 887854" transform="translate(-10927.574 -10641.073)">
      <path id="Trazado_602105-2" data-name="Trazado 602105" d="M-8528-5267.141h-48.5v-3h48.5Z" transform="translate(9549.148 11711)" fill="#fb8c00"/>
      <path id="Polígono_9-2" data-name="Polígono 9" d="M11,0,22,19H0Z" transform="translate(1040.148 6431.5) rotate(90)" fill="#fb8c00"/>
    </g>
    <g id="Grupo_887849" data-name="Grupo 887849" transform="translate(-10558.277 -4289.8)">
      <g id="Grupo_887844" data-name="Grupo 887844" transform="translate(0 0)">
        <g id="Grupo_887842-3" data-name="Grupo 887842" clip-path="url(#clip-path)">
          <path id="Trazado_602080-3" data-name="Trazado 602080" d="M265.353,8.494v9.124H0V8.494A8.492,8.492,0,0,1,8.493,0H256.859a8.493,8.493,0,0,1,8.494,8.494" fill="#e3e3e3"/>
          <path id="Trazado_602081-3" data-name="Trazado 602081" d="M265.353,128.04V284.382a8.494,8.494,0,0,1-8.494,8.494H8.493A8.493,8.493,0,0,1,0,284.382V128.04Z" transform="translate(0 -110.422)" fill="#fff"/>
          <path id="Trazado_602082-3" data-name="Trazado 602082" d="M295.04,41.881a3.849,3.849,0,1,1-3.849-3.849,3.849,3.849,0,0,1,3.849,3.849" transform="translate(-247.804 -32.799)" fill="#fff"/>
          <path id="Línea_1982-3" data-name="Línea 1982" d="M3.727.5H0A.5.5,0,0,1-.5,0,.5.5,0,0,1,0-.5H3.727a.5.5,0,0,1,.5.5A.5.5,0,0,1,3.727.5Z" transform="translate(41.565 9.082)" fill="#808285"/>
          <path id="Trazado_602083-3" data-name="Trazado 602083" d="M303.892,56.9a.5.5,0,0,1-.354-.146l-1.823-1.823a.5.5,0,0,1,0-.707l1.823-1.823a.5.5,0,0,1,.707.707l-1.469,1.469,1.469,1.469a.5.5,0,0,1-.354.854Z" transform="translate(-260.504 -45.499)" fill="#808285"/>
          <path id="Trazado_602084-3" data-name="Trazado 602084" d="M377.66,41.881a3.849,3.849,0,1,0,3.849-3.849,3.849,3.849,0,0,0-3.849,3.849" transform="translate(-325.694 -32.799)" fill="#fff"/>
          <path id="Línea_1983-3" data-name="Línea 1983" d="M3.727.5H0A.5.5,0,0,1-.5,0,.5.5,0,0,1,0-.5H3.727a.5.5,0,0,1,.5.5A.5.5,0,0,1,3.727.5Z" transform="translate(53.912 9.082)" fill="#808285"/>
          <path id="Trazado_602085-3" data-name="Trazado 602085" d="M405.634,56.9a.5.5,0,0,1-.354-.854l1.469-1.469-1.469-1.469a.5.5,0,0,1,.707-.707l1.823,1.823a.5.5,0,0,1,0,.707l-1.823,1.823A.5.5,0,0,1,405.634,56.9Z" transform="translate(-349.818 -45.499)" fill="#808285"/>
          <path id="Trazado_602086-3" data-name="Trazado 602086" d="M201.745,50.946a2.4,2.4,0,1,1-2.4-2.4,2.4,2.4,0,0,1,2.4,2.4" transform="translate(-169.84 -41.863)" fill="#29ab7f"/>
          <path id="Trazado_602087-3" data-name="Trazado 602087" d="M136.221,50.946a2.4,2.4,0,1,1-2.4-2.4,2.4,2.4,0,0,1,2.4,2.4" transform="translate(-113.332 -41.863)" fill="#f4b11d"/>
          <path id="Trazado_602088-3" data-name="Trazado 602088" d="M70.7,50.946a2.4,2.4,0,1,1-2.4-2.4,2.4,2.4,0,0,1,2.4,2.4" transform="translate(-56.824 -41.863)" fill="#eb3e56"/>
          <path id="Trazado_602089-3" data-name="Trazado 602089" d="M645.556,45.73H466.867a3.849,3.849,0,1,1,0-7.7H645.556a3.849,3.849,0,1,1,0,7.7" transform="translate(-399.306 -32.799)" fill="#fff"/>
          <path id="Trazado_602090-3" data-name="Trazado 602090" d="M1775.176,52.2a1.789,1.789,0,1,1-1.789,1.789A1.791,1.791,0,0,1,1775.176,52.2Zm0,2.578a.789.789,0,1,0-.789-.789A.79.79,0,0,0,1775.176,54.773Z" transform="translate(-1529.799 -45.444)" fill="#808285"/>
          <path id="Línea_1984-3" data-name="Línea 1984" d="M1.45,1.95A.5.5,0,0,1,1.1,1.8L-.354.354a.5.5,0,0,1,0-.707.5.5,0,0,1,.707,0L1.8,1.1a.5.5,0,0,1-.354.854Z" transform="translate(246.168 9.564)" fill="#808285"/>
          <path id="Trazado_602091-3" data-name="Trazado 602091" d="M1851.106,37.386a.676.676,0,1,1-.676-.676.675.675,0,0,1,.676.676" transform="translate(-1595.228 -31.659)" fill="#fff"/>
          <path id="Trazado_602092-3" data-name="Trazado 602092" d="M1851.106,61.909a.676.676,0,1,1-.676-.676.675.675,0,0,1,.676.676" transform="translate(-1595.228 -52.807)" fill="#fff"/>
          <path id="Trazado_602093-3" data-name="Trazado 602093" d="M1851.106,86.433a.676.676,0,1,1-.676-.676.675.675,0,0,1,.676.676" transform="translate(-1595.228 -73.957)" fill="#fff"/>
        </g>
      </g>
      <g id="Grupo_887845" data-name="Grupo 887845" transform="translate(63.448 32.527)">
        <rect id="Rectángulo_298362" data-name="Rectángulo 298362" width="150.792" height="50.181" fill="#26aab7"/>
        <rect id="Rectángulo_298363" data-name="Rectángulo 298363" width="95.958" height="3.426" transform="translate(54.833 67.318)" fill="#c7c9cb"/>
        <rect id="Rectángulo_298364" data-name="Rectángulo 298364" width="95.958" height="3.427" transform="translate(54.833 74.172)" fill="#c7c9cb"/>
        <rect id="Rectángulo_298365" data-name="Rectángulo 298365" width="95.958" height="3.427" transform="translate(54.833 81.026)" fill="#c7c9cb"/>
        <rect id="Rectángulo_298366" data-name="Rectángulo 298366" width="82.25" height="3.427" transform="translate(54.833 87.88)" fill="#c7c9cb"/>
        <rect id="Rectángulo_298367" data-name="Rectángulo 298367" width="61.688" height="6.854" transform="translate(54.833 57.036)" fill="#96999c"/>
        <rect id="Rectángulo_298368" data-name="Rectángulo 298368" width="47.788" height="34.271" transform="translate(0 57.036)" fill="#fb8c00"/>
        <rect id="Rectángulo_298369" data-name="Rectángulo 298369" width="95.958" height="3.426" transform="translate(54.833 108.487)" fill="#c7c9cb"/>
        <rect id="Rectángulo_298370" data-name="Rectángulo 298370" width="95.958" height="3.426" transform="translate(54.833 115.341)" fill="#c7c9cb"/>
        <rect id="Rectángulo_298371" data-name="Rectángulo 298371" width="95.958" height="3.426" transform="translate(54.833 122.195)" fill="#c7c9cb"/>
        <rect id="Rectángulo_298372" data-name="Rectángulo 298372" width="82.25" height="3.426" transform="translate(54.833 129.049)" fill="#c7c9cb"/>
        <rect id="Rectángulo_298373" data-name="Rectángulo 298373" width="61.688" height="6.854" transform="translate(54.833 98.205)" fill="#96999c"/>
        <rect id="Rectángulo_298374" data-name="Rectángulo 298374" width="47.788" height="34.271" transform="translate(0 98.205)" fill="#26aab7"/>
      </g>
    </g>
    <path id="Trazado_605270" data-name="Trazado 605270" d="M9,0H257a9,9,0,0,1,9,9V75a9,9,0,0,1-9,9H9a9,9,0,0,1-9-9V9A9,9,0,0,1,9,0Z" transform="translate(-10905 -4091.271)" fill="#c0d2e2"/>
    <path id="Trazado_602109" data-name="Trazado 602109" d="M10.266,0H7.922L3.359-7.484V0H1.016V-11.375H3.359l4.57,7.5v-7.5h2.336Zm6.8,0a2.507,2.507,0,0,1-.227-.758A2.732,2.732,0,0,1,14.7.156a3,3,0,0,1-2.059-.719,2.312,2.312,0,0,1-.816-1.812,2.389,2.389,0,0,1,1-2.062A4.915,4.915,0,0,1,15.7-5.164h1.039v-.484a1.393,1.393,0,0,0-.3-.937,1.183,1.183,0,0,0-.949-.352,1.345,1.345,0,0,0-.895.273.929.929,0,0,0-.324.75H12.016a2.268,2.268,0,0,1,.453-1.359,3,3,0,0,1,1.281-.98,4.669,4.669,0,0,1,1.859-.355,3.689,3.689,0,0,1,2.48.785,2.747,2.747,0,0,1,.918,2.207v3.664a4.041,4.041,0,0,0,.336,1.82V0ZM15.2-1.57a1.945,1.945,0,0,0,.922-.223,1.462,1.462,0,0,0,.625-.6V-3.844H15.9q-1.7,0-1.8,1.172l-.008.133a.9.9,0,0,0,.3.7A1.153,1.153,0,0,0,15.2-1.57Zm8.594-1.187,1.57-5.7h2.359L24.867,0H22.711L19.859-8.453h2.359ZM32.5.156A4.15,4.15,0,0,1,29.473-.984,4.054,4.054,0,0,1,28.3-4.023v-.219A5.106,5.106,0,0,1,28.8-6.52a3.612,3.612,0,0,1,1.395-1.547,3.914,3.914,0,0,1,2.059-.543,3.508,3.508,0,0,1,2.73,1.094,4.444,4.444,0,0,1,1,3.1v.922H30.594a2.1,2.1,0,0,0,.66,1.328,2,2,0,0,0,1.395.5,2.437,2.437,0,0,0,2.039-.945L35.8-1.367A3.389,3.389,0,0,1,34.422-.246,4.511,4.511,0,0,1,32.5.156Zm-.258-6.937a1.414,1.414,0,0,0-1.09.453,2.341,2.341,0,0,0-.535,1.3h3.141v-.18a1.669,1.669,0,0,0-.406-1.16A1.459,1.459,0,0,0,32.242-6.781ZM36.93-4.289a4.954,4.954,0,0,1,.926-3.133,3,3,0,0,1,2.5-1.187,2.631,2.631,0,0,1,2.164.953l.094-.8h2.047V-.281a3.613,3.613,0,0,1-.5,1.93A3.236,3.236,0,0,1,42.734,2.9a4.985,4.985,0,0,1-2.141.43,4.635,4.635,0,0,1-1.812-.371A3.217,3.217,0,0,1,37.445,2l1-1.375a2.645,2.645,0,0,0,2.047.945,1.936,1.936,0,0,0,1.4-.48,1.8,1.8,0,0,0,.5-1.363V-.727a2.612,2.612,0,0,1-2.055.883,2.992,2.992,0,0,1-2.465-1.191A4.953,4.953,0,0,1,36.93-4.2Zm2.258.164a3.076,3.076,0,0,0,.461,1.8,1.467,1.467,0,0,0,1.266.652,1.568,1.568,0,0,0,1.477-.773V-6a1.565,1.565,0,0,0-1.461-.773,1.476,1.476,0,0,0-1.277.664A3.467,3.467,0,0,0,39.188-4.125ZM51.289,0a2.507,2.507,0,0,1-.227-.758A2.732,2.732,0,0,1,48.93.156a3,3,0,0,1-2.059-.719,2.312,2.312,0,0,1-.816-1.812,2.389,2.389,0,0,1,1-2.062,4.915,4.915,0,0,1,2.879-.727h1.039v-.484a1.393,1.393,0,0,0-.3-.937,1.183,1.183,0,0,0-.949-.352,1.345,1.345,0,0,0-.895.273.929.929,0,0,0-.324.75H46.242A2.268,2.268,0,0,1,46.7-7.273a3,3,0,0,1,1.281-.98,4.669,4.669,0,0,1,1.859-.355,3.689,3.689,0,0,1,2.48.785,2.747,2.747,0,0,1,.918,2.207v3.664a4.041,4.041,0,0,0,.336,1.82V0ZM49.422-1.57a1.945,1.945,0,0,0,.922-.223,1.462,1.462,0,0,0,.625-.6V-3.844h-.844q-1.7,0-1.8,1.172l-.008.133a.9.9,0,0,0,.3.7A1.153,1.153,0,0,0,49.422-1.57Zm5.2-2.719A5.094,5.094,0,0,1,55.5-7.437,2.877,2.877,0,0,1,57.93-8.609a2.589,2.589,0,0,1,2.039.922V-12h2.266V0H60.2l-.109-.9A2.657,2.657,0,0,1,57.914.156,2.869,2.869,0,0,1,55.52-1.02,5.258,5.258,0,0,1,54.617-4.289Zm2.258.164a3.328,3.328,0,0,0,.414,1.82,1.349,1.349,0,0,0,1.2.633,1.511,1.511,0,0,0,1.477-.883V-5.891a1.489,1.489,0,0,0-1.461-.883Q56.875-6.773,56.875-4.125Zm6.758-.18a5.013,5.013,0,0,1,.484-2.242A3.546,3.546,0,0,1,65.512-8.07a4.069,4.069,0,0,1,2.113-.539,3.849,3.849,0,0,1,2.793,1.047,4.2,4.2,0,0,1,1.207,2.844l.016.578A4.418,4.418,0,0,1,70.555-1.02,3.775,3.775,0,0,1,67.641.156a3.793,3.793,0,0,1-2.918-1.172A4.5,4.5,0,0,1,63.633-4.2Zm2.258.164a3.151,3.151,0,0,0,.453,1.84,1.5,1.5,0,0,0,1.3.637,1.5,1.5,0,0,0,1.281-.629A3.448,3.448,0,0,0,69.383-4.3a3.12,3.12,0,0,0-.461-1.828,1.5,1.5,0,0,0-1.3-.648,1.475,1.475,0,0,0-1.281.645A3.506,3.506,0,0,0,65.891-4.141Zm11.891-2.2a6.134,6.134,0,0,0-.812-.062,1.654,1.654,0,0,0-1.68.867V0H73.031V-8.453h2.133l.063,1.008a2.092,2.092,0,0,1,1.883-1.164,2.366,2.366,0,0,1,.7.1Z" transform="translate(-10817.426 -4044.936)" fill="#12263f"/>
    <path id="Trazado_605271" data-name="Trazado 605271" d="M9,0H257a9,9,0,0,1,9,9V75a9,9,0,0,1-9,9H9a9,9,0,0,1-9-9V9A9,9,0,0,1,9,0Z" transform="translate(-10561 -4091.271)" fill="#c0d2e2"/>
    <path id="Trazado_602110" data-name="Trazado 602110" d="M7.859-4.648h-4.5V0H1.016V-11.375H8.422v1.9H3.359v2.938h4.5Zm6.32-1.687a6.134,6.134,0,0,0-.812-.062,1.654,1.654,0,0,0-1.68.867V0H9.43V-8.453h2.133l.063,1.008a2.092,2.092,0,0,1,1.883-1.164,2.366,2.366,0,0,1,.7.1ZM14.633-4.3a5.013,5.013,0,0,1,.484-2.242A3.546,3.546,0,0,1,16.512-8.07a4.069,4.069,0,0,1,2.113-.539,3.849,3.849,0,0,1,2.793,1.047,4.2,4.2,0,0,1,1.207,2.844l.016.578A4.418,4.418,0,0,1,21.555-1.02,3.775,3.775,0,0,1,18.641.156a3.793,3.793,0,0,1-2.918-1.172A4.5,4.5,0,0,1,14.633-4.2Zm2.258.164a3.151,3.151,0,0,0,.453,1.84,1.5,1.5,0,0,0,1.3.637,1.5,1.5,0,0,0,1.281-.629A3.448,3.448,0,0,0,20.383-4.3a3.12,3.12,0,0,0-.461-1.828,1.5,1.5,0,0,0-1.3-.648,1.475,1.475,0,0,0-1.281.645A3.506,3.506,0,0,0,16.891-4.141Zm9.219-4.312.07.977a2.951,2.951,0,0,1,2.43-1.133,2.453,2.453,0,0,1,2,.789,3.682,3.682,0,0,1,.672,2.359V0H29.023V-5.406a1.465,1.465,0,0,0-.312-1.043,1.4,1.4,0,0,0-1.039-.324,1.553,1.553,0,0,0-1.43.813V0H23.984V-8.453ZM35.7-10.531v2.078h1.445V-6.8H35.7v4.219a1.007,1.007,0,0,0,.18.672.9.9,0,0,0,.688.2,3.6,3.6,0,0,0,.664-.055V-.047a4.648,4.648,0,0,1-1.367.2,2.156,2.156,0,0,1-2.422-2.4V-6.8H32.2V-8.453h1.234v-2.078ZM42.289.156A4.15,4.15,0,0,1,39.262-.984a4.054,4.054,0,0,1-1.168-3.039v-.219a5.106,5.106,0,0,1,.492-2.277A3.612,3.612,0,0,1,39.98-8.066a3.914,3.914,0,0,1,2.059-.543,3.508,3.508,0,0,1,2.73,1.094,4.444,4.444,0,0,1,1,3.1v.922H40.383a2.1,2.1,0,0,0,.66,1.328,2,2,0,0,0,1.395.5,2.437,2.437,0,0,0,2.039-.945l1.109,1.242A3.389,3.389,0,0,1,44.211-.246,4.511,4.511,0,0,1,42.289.156Zm-.258-6.937a1.414,1.414,0,0,0-1.09.453,2.341,2.341,0,0,0-.535,1.3h3.141v-.18a1.669,1.669,0,0,0-.406-1.16A1.459,1.459,0,0,0,42.031-6.781Zm7.094-1.672.07.977a2.951,2.951,0,0,1,2.43-1.133,2.453,2.453,0,0,1,2,.789A3.682,3.682,0,0,1,54.3-5.461V0H52.039V-5.406a1.465,1.465,0,0,0-.312-1.043,1.4,1.4,0,0,0-1.039-.324,1.553,1.553,0,0,0-1.43.813V0H47V-8.453Zm6.531,4.164a5.094,5.094,0,0,1,.887-3.148,2.877,2.877,0,0,1,2.426-1.172,2.589,2.589,0,0,1,2.039.922V-12h2.266V0H61.234l-.109-.9A2.657,2.657,0,0,1,58.953.156,2.869,2.869,0,0,1,56.559-1.02,5.258,5.258,0,0,1,55.656-4.289Zm2.258.164a3.328,3.328,0,0,0,.414,1.82,1.349,1.349,0,0,0,1.2.633,1.511,1.511,0,0,0,1.477-.883V-5.891a1.489,1.489,0,0,0-1.461-.883Q57.914-6.773,57.914-4.125Z" transform="translate(-10454.016 -4063.271)" fill="#12263f"/>
    <path id="Trazado_605272" data-name="Trazado 605272" d="M9.434,0H8.02V-4.929H2.644V0H1.238V-10.664H2.644v4.585H8.02v-4.585H9.434Zm9.653-9.514H15.659V0h-1.4V-9.514H10.84v-1.15h8.247Zm3.4-1.15,3.486,8.7,3.486-8.7h1.824V0H29.875V-4.153l.132-4.482L26.506,0H25.43L21.936-8.613l.139,4.46V0H20.669V-10.664ZM35.178-1.15h5.054V0H33.765V-10.664h1.414Zm6.4,3.274L40.811,1.6a3.534,3.534,0,0,0,.718-1.978V-1.6h1.326V-.542A3.336,3.336,0,0,1,42.491.938,3.464,3.464,0,0,1,41.58,2.124ZM56.338-3.384A3.923,3.923,0,0,1,55.089-.773a4.093,4.093,0,0,1-2.794.919,3.758,3.758,0,0,1-3.029-1.355,5.451,5.451,0,0,1-1.139-3.625V-5.859a6.076,6.076,0,0,1,.531-2.615,3.966,3.966,0,0,1,1.505-1.732,4.191,4.191,0,0,1,2.256-.6,3.853,3.853,0,0,1,2.725.948,3.971,3.971,0,0,1,1.194,2.626H54.924a3.064,3.064,0,0,0-.795-1.851,2.4,2.4,0,0,0-1.71-.573,2.516,2.516,0,0,0-2.113,1,4.577,4.577,0,0,0-.765,2.837v1.034a4.7,4.7,0,0,0,.725,2.764A2.343,2.343,0,0,0,52.295-1a2.706,2.706,0,0,0,1.8-.531,2.947,2.947,0,0,0,.831-1.849ZM61.4-4.753a6.612,6.612,0,0,1-2.633-1.278A2.442,2.442,0,0,1,57.942-7.9a2.58,2.58,0,0,1,1.007-2.084,4,4,0,0,1,2.618-.824,4.369,4.369,0,0,1,1.959.425A3.222,3.222,0,0,1,64.86-9.214a3,3,0,0,1,.472,1.633H63.918A1.95,1.95,0,0,0,63.3-9.106a2.5,2.5,0,0,0-1.736-.555,2.561,2.561,0,0,0-1.622.459,1.53,1.53,0,0,0-.582,1.273,1.376,1.376,0,0,0,.553,1.1A5.424,5.424,0,0,0,61.8-6a8.734,8.734,0,0,1,2.08.825,3.157,3.157,0,0,1,1.113,1.051,2.683,2.683,0,0,1,.363,1.414A2.492,2.492,0,0,1,64.343-.634a4.31,4.31,0,0,1-2.7.78A5.013,5.013,0,0,1,59.59-.275a3.451,3.451,0,0,1-1.469-1.154A2.815,2.815,0,0,1,57.6-3.091h1.414a1.837,1.837,0,0,0,.714,1.527A3.007,3.007,0,0,0,61.641-1a2.764,2.764,0,0,0,1.707-.454A1.475,1.475,0,0,0,63.94-2.7a1.448,1.448,0,0,0-.549-1.212A6.333,6.333,0,0,0,61.4-4.753Zm8.9,0a6.612,6.612,0,0,1-2.633-1.278A2.442,2.442,0,0,1,66.841-7.9a2.58,2.58,0,0,1,1.007-2.084,4,4,0,0,1,2.618-.824,4.369,4.369,0,0,1,1.959.425,3.222,3.222,0,0,1,1.333,1.172,3,3,0,0,1,.472,1.633H72.817A1.95,1.95,0,0,0,72.2-9.106a2.5,2.5,0,0,0-1.736-.555,2.561,2.561,0,0,0-1.622.459,1.53,1.53,0,0,0-.582,1.273,1.376,1.376,0,0,0,.553,1.1A5.424,5.424,0,0,0,70.7-6a8.734,8.734,0,0,1,2.08.825A3.157,3.157,0,0,1,73.89-4.124a2.683,2.683,0,0,1,.363,1.414A2.492,2.492,0,0,1,73.242-.634a4.31,4.31,0,0,1-2.7.78,5.013,5.013,0,0,1-2.051-.421A3.451,3.451,0,0,1,67.02-1.428,2.815,2.815,0,0,1,66.5-3.091h1.414a1.837,1.837,0,0,0,.714,1.527A3.007,3.007,0,0,0,70.54-1a2.764,2.764,0,0,0,1.707-.454A1.475,1.475,0,0,0,72.839-2.7a1.448,1.448,0,0,0-.549-1.212A6.333,6.333,0,0,0,70.3-4.753Zm5.5,6.877L75.029,1.6a3.534,3.534,0,0,0,.718-1.978V-1.6h1.326V-.542A3.336,3.336,0,0,1,76.71.938,3.464,3.464,0,0,1,75.8,2.124ZM87.18-10.664h1.414v7.551a3.128,3.128,0,0,1-.919,2.4,3.431,3.431,0,0,1-2.45.864,3.527,3.527,0,0,1-2.476-.813,2.936,2.936,0,0,1-.886-2.278h1.406a1.955,1.955,0,0,0,.5,1.428A1.944,1.944,0,0,0,85.225-1a1.886,1.886,0,0,0,1.41-.549,2.128,2.128,0,0,0,.546-1.538ZM95.669,0a2.846,2.846,0,0,1-.19-.835,3.023,3.023,0,0,1-2.256.981A2.8,2.8,0,0,1,91.3-.516,2.145,2.145,0,0,1,90.549-2.2,2.24,2.24,0,0,1,91.49-4.12,4.437,4.437,0,0,1,94.138-4.8h1.318v-.623a1.522,1.522,0,0,0-.425-1.132,1.707,1.707,0,0,0-1.252-.421,1.976,1.976,0,0,0-1.216.366,1.079,1.079,0,0,0-.491.886H90.71a1.87,1.87,0,0,1,.421-1.146,2.874,2.874,0,0,1,1.143-.875,3.844,3.844,0,0,1,1.586-.322,3.133,3.133,0,0,1,2.146.685A2.47,2.47,0,0,1,96.812-5.5v3.647A4.459,4.459,0,0,0,97.09-.117V0ZM93.42-1.033a2.381,2.381,0,0,0,1.208-.33,1.994,1.994,0,0,0,.828-.857V-3.845H94.395q-2.49,0-2.49,1.458a1.234,1.234,0,0,0,.425,1A1.633,1.633,0,0,0,93.42-1.033Zm8.02-.806L103.4-7.925h1.384L101.946,0h-1.033L98.042-7.925h1.384ZM110.874,0a2.846,2.846,0,0,1-.19-.835,3.023,3.023,0,0,1-2.256.981,2.8,2.8,0,0,1-1.923-.663,2.145,2.145,0,0,1-.751-1.681A2.24,2.24,0,0,1,106.7-4.12a4.437,4.437,0,0,1,2.648-.685h1.318v-.623a1.522,1.522,0,0,0-.425-1.132,1.707,1.707,0,0,0-1.252-.421,1.976,1.976,0,0,0-1.216.366,1.079,1.079,0,0,0-.491.886h-1.362a1.87,1.87,0,0,1,.421-1.146,2.874,2.874,0,0,1,1.143-.875,3.844,3.844,0,0,1,1.586-.322,3.133,3.133,0,0,1,2.146.685,2.47,2.47,0,0,1,.806,1.886v3.647a4.459,4.459,0,0,0,.278,1.736V0Zm-2.249-1.033a2.381,2.381,0,0,0,1.208-.33,1.994,1.994,0,0,0,.828-.857V-3.845H109.6q-2.49,0-2.49,1.458a1.234,1.234,0,0,0,.425,1A1.633,1.633,0,0,0,108.625-1.033Zm8.87-3.721a6.612,6.612,0,0,1-2.633-1.278,2.442,2.442,0,0,1-.824-1.871,2.58,2.58,0,0,1,1.007-2.084,4,4,0,0,1,2.618-.824,4.369,4.369,0,0,1,1.959.425,3.222,3.222,0,0,1,1.333,1.172,3,3,0,0,1,.472,1.633h-1.414a1.95,1.95,0,0,0-.615-1.525,2.5,2.5,0,0,0-1.736-.555,2.561,2.561,0,0,0-1.622.459,1.53,1.53,0,0,0-.582,1.273,1.376,1.376,0,0,0,.553,1.1A5.424,5.424,0,0,0,117.894-6a8.734,8.734,0,0,1,2.08.825,3.157,3.157,0,0,1,1.113,1.051,2.683,2.683,0,0,1,.363,1.414,2.492,2.492,0,0,1-1.011,2.076,4.31,4.31,0,0,1-2.7.78,5.013,5.013,0,0,1-2.051-.421,3.451,3.451,0,0,1-1.469-1.154,2.815,2.815,0,0,1-.516-1.663h1.414a1.837,1.837,0,0,0,.714,1.527,3.007,3.007,0,0,0,1.908.56,2.764,2.764,0,0,0,1.707-.454,1.475,1.475,0,0,0,.593-1.238,1.448,1.448,0,0,0-.549-1.212A6.333,6.333,0,0,0,117.5-4.753Zm8.723,3.794a1.952,1.952,0,0,0,1.267-.439,1.546,1.546,0,0,0,.6-1.1h1.282a2.457,2.457,0,0,1-.469,1.3,3.087,3.087,0,0,1-1.154.981,3.329,3.329,0,0,1-1.527.366,3.265,3.265,0,0,1-2.574-1.08,4.3,4.3,0,0,1-.956-2.955v-.227a4.771,4.771,0,0,1,.425-2.058,3.236,3.236,0,0,1,1.219-1.4,3.464,3.464,0,0,1,1.879-.5,3.178,3.178,0,0,1,2.216.8,2.853,2.853,0,0,1,.941,2.073h-1.282a1.867,1.867,0,0,0-.582-1.263,1.811,1.811,0,0,0-1.293-.494,1.9,1.9,0,0,0-1.6.743,3.491,3.491,0,0,0-.568,2.15v.256a3.422,3.422,0,0,0,.564,2.109A1.906,1.906,0,0,0,126.218-.959Zm8.5-5.75a4.061,4.061,0,0,0-.667-.051,1.786,1.786,0,0,0-1.809,1.135V0h-1.355V-7.925h1.318l.022.916a2.11,2.11,0,0,1,1.89-1.062,1.384,1.384,0,0,1,.6.1ZM137.439,0h-1.355V-7.925h1.355Zm-1.465-10.027a.809.809,0,0,1,.2-.557.756.756,0,0,1,.6-.227.768.768,0,0,1,.6.227.8.8,0,0,1,.205.557.774.774,0,0,1-.205.549.782.782,0,0,1-.6.22.77.77,0,0,1-.6-.22A.782.782,0,0,1,135.974-10.027ZM146.3-3.875a4.745,4.745,0,0,1-.828,2.915A2.653,2.653,0,0,1,143.232.146a2.906,2.906,0,0,1-2.271-.916V3.047h-1.355V-7.925h1.238l.066.879a2.791,2.791,0,0,1,2.3-1.025,2.7,2.7,0,0,1,2.26,1.077,4.8,4.8,0,0,1,.831,3Zm-1.355-.154a3.5,3.5,0,0,0-.571-2.117,1.84,1.84,0,0,0-1.567-.776,1.992,1.992,0,0,0-1.846,1.091v3.787a2,2,0,0,0,1.86,1.084,1.832,1.832,0,0,0,1.549-.773A3.822,3.822,0,0,0,144.946-4.028Zm4.915-5.815v1.919h1.479v1.047h-1.479v4.921a1.1,1.1,0,0,0,.2.715.832.832,0,0,0,.674.238,3.281,3.281,0,0,0,.645-.088V0a3.951,3.951,0,0,1-1.04.146,1.687,1.687,0,0,1-1.37-.549,2.36,2.36,0,0,1-.461-1.56V-6.877h-1.443V-7.925h1.443V-9.844Z" transform="translate(-10498 -4034.271)" fill="#00223d"/>
    <path id="Trazado_605273" data-name="Trazado 605273" d="M9,0H257a9,9,0,0,1,9,9V75a9,9,0,0,1-9,9H9a9,9,0,0,1-9-9V9A9,9,0,0,1,9,0Z" transform="translate(-10222 -4091.271)" fill="#c0d2e2"/>
    <path id="Trazado_602111" data-name="Trazado 602111" d="M1.016,0V-11.375H5a5.232,5.232,0,0,1,3.141.793,2.712,2.712,0,0,1,1.07,2.324,2.57,2.57,0,0,1-.43,1.473,2.482,2.482,0,0,1-1.2.934,2.4,2.4,0,0,1,1.379.883,2.61,2.61,0,0,1,.5,1.625A3,3,0,0,1,8.422-.859,4.713,4.713,0,0,1,5.438,0ZM3.359-4.953v3.07H5.367A1.938,1.938,0,0,0,6.66-2.277a1.353,1.353,0,0,0,.465-1.09A1.428,1.428,0,0,0,5.508-4.953Zm0-1.656H5.094q1.773-.031,1.773-1.414a1.307,1.307,0,0,0-.449-1.113A2.363,2.363,0,0,0,5-9.477H3.359ZM15.977,0a2.507,2.507,0,0,1-.227-.758,2.732,2.732,0,0,1-2.133.914,3,3,0,0,1-2.059-.719,2.312,2.312,0,0,1-.816-1.812,2.389,2.389,0,0,1,1-2.062,4.915,4.915,0,0,1,2.879-.727h1.039v-.484a1.393,1.393,0,0,0-.3-.937,1.183,1.183,0,0,0-.949-.352,1.345,1.345,0,0,0-.895.273.929.929,0,0,0-.324.75H10.93a2.268,2.268,0,0,1,.453-1.359,3,3,0,0,1,1.281-.98,4.669,4.669,0,0,1,1.859-.355A3.689,3.689,0,0,1,17-7.824a2.747,2.747,0,0,1,.918,2.207v3.664a4.041,4.041,0,0,0,.336,1.82V0ZM14.109-1.57a1.945,1.945,0,0,0,.922-.223,1.462,1.462,0,0,0,.625-.6V-3.844h-.844q-1.7,0-1.8,1.172L13-2.539a.9.9,0,0,0,.3.7A1.153,1.153,0,0,0,14.109-1.57Zm9.063-.094a1.481,1.481,0,0,0,1.016-.344,1.2,1.2,0,0,0,.406-.914h2.117a2.9,2.9,0,0,1-.469,1.574A3.093,3.093,0,0,1,24.98-.238a3.949,3.949,0,0,1-1.77.395A3.67,3.67,0,0,1,20.352-1,4.56,4.56,0,0,1,19.3-4.18v-.148a4.508,4.508,0,0,1,1.039-3.117A3.627,3.627,0,0,1,23.2-8.609a3.555,3.555,0,0,1,2.543.9,3.2,3.2,0,0,1,.973,2.4H24.594a1.539,1.539,0,0,0-.406-1.066,1.358,1.358,0,0,0-1.031-.41,1.361,1.361,0,0,0-1.191.574,3.324,3.324,0,0,0-.4,1.863v.234a3.366,3.366,0,0,0,.4,1.875A1.378,1.378,0,0,0,23.172-1.664Zm7.9-1.727-.812.813V0H28V-12h2.258v6.648l.438-.562,2.164-2.539H35.57L32.516-4.93,35.836,0H33.242ZM40.281.156A4.15,4.15,0,0,1,37.254-.984a4.054,4.054,0,0,1-1.168-3.039v-.219a5.106,5.106,0,0,1,.492-2.277,3.612,3.612,0,0,1,1.395-1.547,3.914,3.914,0,0,1,2.059-.543,3.508,3.508,0,0,1,2.73,1.094,4.444,4.444,0,0,1,1,3.1v.922H38.375a2.1,2.1,0,0,0,.66,1.328,2,2,0,0,0,1.395.5,2.437,2.437,0,0,0,2.039-.945l1.109,1.242A3.389,3.389,0,0,1,42.2-.246,4.511,4.511,0,0,1,40.281.156Zm-.258-6.937a1.414,1.414,0,0,0-1.09.453,2.341,2.341,0,0,0-.535,1.3h3.141v-.18a1.669,1.669,0,0,0-.406-1.16A1.459,1.459,0,0,0,40.023-6.781Zm7.094-1.672.07.977a2.951,2.951,0,0,1,2.43-1.133,2.453,2.453,0,0,1,2,.789,3.682,3.682,0,0,1,.672,2.359V0H50.031V-5.406a1.465,1.465,0,0,0-.312-1.043,1.4,1.4,0,0,0-1.039-.324,1.553,1.553,0,0,0-1.43.813V0H44.992V-8.453Zm6.531,4.164a5.094,5.094,0,0,1,.887-3.148,2.877,2.877,0,0,1,2.426-1.172A2.589,2.589,0,0,1,59-7.687V-12h2.266V0H59.227l-.109-.9A2.657,2.657,0,0,1,56.945.156,2.869,2.869,0,0,1,54.551-1.02,5.258,5.258,0,0,1,53.648-4.289Zm2.258.164A3.328,3.328,0,0,0,56.32-2.3a1.349,1.349,0,0,0,1.2.633A1.511,1.511,0,0,0,59-2.555V-5.891a1.489,1.489,0,0,0-1.461-.883Q55.906-6.773,55.906-4.125Z" transform="translate(-10115.426 -4063.271)" fill="#12263f"/>
    <path id="Trazado_605274" data-name="Trazado 605274" d="M-55.745-4.753a6.612,6.612,0,0,1-2.633-1.278A2.442,2.442,0,0,1-59.2-7.9a2.58,2.58,0,0,1,1.007-2.084,4,4,0,0,1,2.618-.824,4.369,4.369,0,0,1,1.959.425,3.222,3.222,0,0,1,1.333,1.172,3,3,0,0,1,.472,1.633h-1.414a1.95,1.95,0,0,0-.615-1.525,2.5,2.5,0,0,0-1.736-.555A2.561,2.561,0,0,0-57.2-9.2a1.53,1.53,0,0,0-.582,1.273,1.376,1.376,0,0,0,.553,1.1A5.424,5.424,0,0,0-55.345-6a8.734,8.734,0,0,1,2.08.825,3.157,3.157,0,0,1,1.113,1.051A2.683,2.683,0,0,1-51.79-2.71,2.492,2.492,0,0,1-52.8-.634a4.31,4.31,0,0,1-2.7.78,5.013,5.013,0,0,1-2.051-.421,3.451,3.451,0,0,1-1.469-1.154,2.815,2.815,0,0,1-.516-1.663h1.414a1.837,1.837,0,0,0,.714,1.527A3.007,3.007,0,0,0-55.5-1,2.764,2.764,0,0,0-53.8-1.458,1.475,1.475,0,0,0-53.2-2.7a1.448,1.448,0,0,0-.549-1.212A6.333,6.333,0,0,0-55.745-4.753ZM-48.728,0h-1.355V-7.925h1.355Zm-1.465-10.027a.809.809,0,0,1,.2-.557.756.756,0,0,1,.6-.227.768.768,0,0,1,.6.227.8.8,0,0,1,.205.557.774.774,0,0,1-.205.549.782.782,0,0,1-.6.22.77.77,0,0,1-.6-.22A.782.782,0,0,1-50.193-10.027ZM-41.946-2.1a1,1,0,0,0-.414-.853A3.983,3.983,0,0,0-43.8-3.479a6.822,6.822,0,0,1-1.633-.527,2.324,2.324,0,0,1-.894-.732,1.752,1.752,0,0,1-.289-1.011A2.056,2.056,0,0,1-45.795-7.4a3.218,3.218,0,0,1,2.106-.674,3.311,3.311,0,0,1,2.186.7,2.21,2.21,0,0,1,.839,1.78h-1.362a1.223,1.223,0,0,0-.472-.959,1.77,1.77,0,0,0-1.19-.4,1.852,1.852,0,0,0-1.157.322,1.014,1.014,0,0,0-.417.842.822.822,0,0,0,.388.74,4.776,4.776,0,0,0,1.4.476,7.308,7.308,0,0,1,1.644.542,2.4,2.4,0,0,1,.934.758,1.864,1.864,0,0,1,.3,1.08,2.028,2.028,0,0,1-.85,1.7,3.564,3.564,0,0,1-2.2.641A3.991,3.991,0,0,1-45.33-.19a2.74,2.74,0,0,1-1.146-.941,2.268,2.268,0,0,1-.414-1.307h1.355a1.4,1.4,0,0,0,.546,1.08,2.117,2.117,0,0,0,1.344.4,2.185,2.185,0,0,0,1.234-.311A.956.956,0,0,0-41.946-2.1Zm4.958-7.742v1.919h1.479v1.047h-1.479v4.921a1.1,1.1,0,0,0,.2.715A.832.832,0,0,0-36.116-1a3.281,3.281,0,0,0,.645-.088V0a3.951,3.951,0,0,1-1.04.146A1.687,1.687,0,0,1-37.881-.4a2.36,2.36,0,0,1-.461-1.56V-6.877h-1.443V-7.925h1.443V-9.844Zm6.35,9.99A3.463,3.463,0,0,1-33.259-.912,3.928,3.928,0,0,1-34.27-3.743v-.249A4.756,4.756,0,0,1-33.82-6.1a3.514,3.514,0,0,1,1.26-1.45,3.167,3.167,0,0,1,1.754-.524,2.968,2.968,0,0,1,2.4,1.018,4.408,4.408,0,0,1,.857,2.915v.564h-5.369a2.817,2.817,0,0,0,.685,1.893,2.153,2.153,0,0,0,1.666.721,2.36,2.36,0,0,0,1.216-.293,3.055,3.055,0,0,0,.872-.776l.828.645A3.328,3.328,0,0,1-30.637.146Zm-.168-7.1a1.807,1.807,0,0,0-1.377.6,2.9,2.9,0,0,0-.688,1.674h3.97v-.1a2.581,2.581,0,0,0-.557-1.6A1.7,1.7,0,0,0-30.806-6.958Zm6.1-.967.037.879a2.927,2.927,0,0,1,2.351-1.025A2.266,2.266,0,0,1-20.054-6.8a3,3,0,0,1,1.029-.923,3.039,3.039,0,0,1,1.5-.352q2.607,0,2.651,2.761V0H-16.23V-5.229A1.82,1.82,0,0,0-16.619-6.5a1.71,1.71,0,0,0-1.3-.421,1.8,1.8,0,0,0-1.252.45,1.827,1.827,0,0,0-.579,1.212V0h-1.362V-5.193a1.512,1.512,0,0,0-1.692-1.729,1.813,1.813,0,0,0-1.824,1.135V0h-1.355V-7.925ZM-7.939,0a2.846,2.846,0,0,1-.19-.835,3.023,3.023,0,0,1-2.256.981,2.8,2.8,0,0,1-1.923-.663A2.145,2.145,0,0,1-13.059-2.2a2.24,2.24,0,0,1,.941-1.923A4.437,4.437,0,0,1-9.47-4.8h1.318v-.623a1.522,1.522,0,0,0-.425-1.132A1.707,1.707,0,0,0-9.829-6.98a1.976,1.976,0,0,0-1.216.366,1.079,1.079,0,0,0-.491.886H-12.9a1.87,1.87,0,0,1,.421-1.146,2.874,2.874,0,0,1,1.143-.875,3.844,3.844,0,0,1,1.586-.322A3.133,3.133,0,0,1-7.6-7.386,2.47,2.47,0,0,1-6.8-5.5v3.647A4.459,4.459,0,0,0-6.519-.117V0Zm-2.249-1.033a2.381,2.381,0,0,0,1.208-.33,1.994,1.994,0,0,0,.828-.857V-3.845H-9.214q-2.49,0-2.49,1.458a1.234,1.234,0,0,0,.425,1A1.633,1.633,0,0,0-10.188-1.033Zm8.87-3A4.681,4.681,0,0,1-.861-6.13,3.415,3.415,0,0,1,.414-7.566a3.469,3.469,0,0,1,1.864-.505A3.342,3.342,0,0,1,4.9-6.951a4.311,4.311,0,0,1,1,2.981v.1A4.722,4.722,0,0,1,5.453-1.8,3.365,3.365,0,0,1,4.186-.366,3.509,3.509,0,0,1,2.292.146,3.334,3.334,0,0,1-.319-.974a4.29,4.29,0,0,1-1-2.966Zm1.362.161A3.39,3.39,0,0,0,.656-1.758a1.957,1.957,0,0,0,1.637.8,1.945,1.945,0,0,0,1.641-.809,3.707,3.707,0,0,0,.608-2.267,3.384,3.384,0,0,0-.619-2.113,1.968,1.968,0,0,0-1.644-.809,1.946,1.946,0,0,0-1.619.8A3.68,3.68,0,0,0,.044-3.875Zm14.246,0a4.745,4.745,0,0,1-.828,2.915A2.653,2.653,0,0,1,11.221.146,2.906,2.906,0,0,1,8.95-.769V3.047H7.6V-7.925H8.833l.066.879a2.791,2.791,0,0,1,2.3-1.025,2.7,2.7,0,0,1,2.26,1.077,4.8,4.8,0,0,1,.831,3Zm-1.355-.154a3.5,3.5,0,0,0-.571-2.117A1.84,1.84,0,0,0,10.8-6.921,1.992,1.992,0,0,0,8.95-5.83v3.787a2,2,0,0,0,1.86,1.084,1.832,1.832,0,0,0,1.549-.773A3.822,3.822,0,0,0,12.935-4.028ZM19.3.146A3.463,3.463,0,0,1,16.677-.912a3.928,3.928,0,0,1-1.011-2.831v-.249a4.756,4.756,0,0,1,.45-2.106,3.514,3.514,0,0,1,1.26-1.45,3.167,3.167,0,0,1,1.754-.524,2.968,2.968,0,0,1,2.4,1.018,4.408,4.408,0,0,1,.857,2.915v.564H17.021a2.817,2.817,0,0,0,.685,1.893,2.153,2.153,0,0,0,1.666.721,2.36,2.36,0,0,0,1.216-.293,3.055,3.055,0,0,0,.872-.776l.828.645A3.328,3.328,0,0,1,19.3.146Zm-.168-7.1a1.807,1.807,0,0,0-1.377.6,2.9,2.9,0,0,0-.688,1.674h3.97v-.1a2.581,2.581,0,0,0-.557-1.6A1.7,1.7,0,0,0,19.131-6.958Zm8.657.249a4.061,4.061,0,0,0-.667-.051,1.786,1.786,0,0,0-1.809,1.135V0H23.958V-7.925h1.318l.022.916a2.11,2.11,0,0,1,1.89-1.062,1.384,1.384,0,0,1,.6.1ZM33.633,0a2.846,2.846,0,0,1-.19-.835,3.023,3.023,0,0,1-2.256.981,2.8,2.8,0,0,1-1.923-.663A2.145,2.145,0,0,1,28.513-2.2a2.24,2.24,0,0,1,.941-1.923A4.437,4.437,0,0,1,32.1-4.8H33.42v-.623A1.522,1.522,0,0,0,33-6.559a1.707,1.707,0,0,0-1.252-.421,1.976,1.976,0,0,0-1.216.366,1.079,1.079,0,0,0-.491.886H28.674A1.87,1.87,0,0,1,29.1-6.874a2.874,2.874,0,0,1,1.143-.875,3.844,3.844,0,0,1,1.586-.322,3.133,3.133,0,0,1,2.146.685A2.47,2.47,0,0,1,34.775-5.5v3.647a4.459,4.459,0,0,0,.278,1.736V0ZM31.384-1.033a2.381,2.381,0,0,0,1.208-.33,1.994,1.994,0,0,0,.828-.857V-3.845H32.358q-2.49,0-2.49,1.458a1.234,1.234,0,0,0,.425,1A1.633,1.633,0,0,0,31.384-1.033Zm7.354-8.811v1.919h1.479v1.047H38.738v4.921a1.1,1.1,0,0,0,.2.715A.832.832,0,0,0,39.609-1a3.281,3.281,0,0,0,.645-.088V0a3.951,3.951,0,0,1-1.04.146A1.687,1.687,0,0,1,37.844-.4a2.36,2.36,0,0,1-.461-1.56V-6.877H35.94V-7.925h1.443V-9.844ZM43.271,0H41.917V-7.925h1.355ZM41.807-10.027a.809.809,0,0,1,.2-.557.756.756,0,0,1,.6-.227.768.768,0,0,1,.6.227.8.8,0,0,1,.205.557.774.774,0,0,1-.205.549.782.782,0,0,1-.6.22.77.77,0,0,1-.6-.22A.782.782,0,0,1,41.807-10.027Zm6.248,8.188,1.963-6.086H51.4L48.56,0H47.527L44.656-7.925H46.04Zm4.182-2.2a4.681,4.681,0,0,1,.458-2.095,3.415,3.415,0,0,1,1.274-1.436,3.469,3.469,0,0,1,1.864-.505,3.342,3.342,0,0,1,2.618,1.121,4.311,4.311,0,0,1,1,2.981v.1A4.722,4.722,0,0,1,59.008-1.8,3.365,3.365,0,0,1,57.74-.366a3.509,3.509,0,0,1-1.893.513A3.334,3.334,0,0,1,53.236-.974a4.29,4.29,0,0,1-1-2.966Zm1.362.161a3.39,3.39,0,0,0,.612,2.117,1.957,1.957,0,0,0,1.637.8,1.945,1.945,0,0,0,1.641-.809A3.707,3.707,0,0,0,58.1-4.036a3.384,3.384,0,0,0-.619-2.113,1.968,1.968,0,0,0-1.644-.809,1.946,1.946,0,0,0-1.619.8A3.68,3.68,0,0,0,53.6-3.875Zm-140,19.546a11.324,11.324,0,0,1,.443-3.179,9.234,9.234,0,0,1,1.322-2.769,5.624,5.624,0,0,1,1.824-1.758l.278.894a5.833,5.833,0,0,0-1.754,2.5,10.859,10.859,0,0,0-.751,3.772l-.007.623a10.916,10.916,0,0,0,1.033,4.907,5.861,5.861,0,0,0,1.479,1.948l-.278.828a5.8,5.8,0,0,1-1.86-1.816A10.181,10.181,0,0,1-86.4,15.671Zm6.8,3.179h5.054V20H-81.01V9.336H-79.6ZM-71.678,20h-1.355V12.075h1.355ZM-73.143,9.973a.809.809,0,0,1,.2-.557.756.756,0,0,1,.6-.227.768.768,0,0,1,.6.227.8.8,0,0,1,.205.557.774.774,0,0,1-.205.549.782.782,0,0,1-.6.22.77.77,0,0,1-.6-.22A.782.782,0,0,1-73.143,9.973Zm4.915,2.1.044,1a2.888,2.888,0,0,1,2.373-1.143q2.512,0,2.534,2.834V20h-1.355V14.756a1.824,1.824,0,0,0-.392-1.267,1.57,1.57,0,0,0-1.2-.41,1.956,1.956,0,0,0-1.157.352,2.387,2.387,0,0,0-.776.923V20H-69.51V12.075Zm11.887,7.141a2.878,2.878,0,0,1-2.322.93,2.464,2.464,0,0,1-1.93-.736,3.186,3.186,0,0,1-.67-2.179V12.075h1.355v5.12q0,1.8,1.465,1.8a2.028,2.028,0,0,0,2.065-1.157V12.075h1.355V20h-1.289Zm6.035-4.248,1.758-2.893h1.582l-2.593,3.918L-46.886,20h-1.567l-1.831-2.966L-52.115,20H-53.69l2.673-4.006-2.593-3.918h1.567Zm4.731,7.156-.769-.527a3.534,3.534,0,0,0,.718-1.978V18.4H-44.3v1.062a3.336,3.336,0,0,1-.363,1.479A3.464,3.464,0,0,1-45.575,22.124Zm9.214-5.486.205,1.406.3-1.267,2.109-7.441h1.187l2.058,7.441.293,1.289.227-1.436,1.655-7.295h1.414L-29.5,20H-30.78l-2.2-7.771-.168-.813-.168.813L-35.592,20h-1.282L-39.452,9.336h1.406ZM-24.093,20h-1.355V12.075h1.355ZM-25.558,9.973a.809.809,0,0,1,.2-.557.756.756,0,0,1,.6-.227.768.768,0,0,1,.6.227.8.8,0,0,1,.205.557.774.774,0,0,1-.205.549.782.782,0,0,1-.6.22.77.77,0,0,1-.6-.22A.782.782,0,0,1-25.558,9.973Zm4.915,2.1.044,1a2.888,2.888,0,0,1,2.373-1.143q2.512,0,2.534,2.834V20h-1.355V14.756a1.824,1.824,0,0,0-.392-1.267,1.57,1.57,0,0,0-1.2-.41,1.956,1.956,0,0,0-1.157.352,2.387,2.387,0,0,0-.776.923V20h-1.355V12.075Zm6.665,3.9a4.642,4.642,0,0,1,.864-2.933,2.733,2.733,0,0,1,2.263-1.11,2.748,2.748,0,0,1,2.2.952V8.75h1.355V20H-8.536l-.066-.85a2.759,2.759,0,0,1-2.263,1,2.707,2.707,0,0,1-2.245-1.128,4.7,4.7,0,0,1-.868-2.944Zm1.355.154a3.515,3.515,0,0,0,.557,2.109A1.8,1.8,0,0,0-10.529,19a1.977,1.977,0,0,0,1.882-1.157V14.2a1.992,1.992,0,0,0-1.868-1.121,1.808,1.808,0,0,0-1.553.769A3.87,3.87,0,0,0-12.623,16.125Zm7.075-.161A4.681,4.681,0,0,1-5.09,13.87a3.415,3.415,0,0,1,1.274-1.436,3.469,3.469,0,0,1,1.864-.505A3.342,3.342,0,0,1,.667,13.049a4.311,4.311,0,0,1,1,2.981v.1A4.722,4.722,0,0,1,1.223,18.2,3.365,3.365,0,0,1-.044,19.634a3.509,3.509,0,0,1-1.893.513,3.334,3.334,0,0,1-2.611-1.121,4.29,4.29,0,0,1-1-2.966Zm1.362.161a3.39,3.39,0,0,0,.612,2.117,1.957,1.957,0,0,0,1.637.8A1.945,1.945,0,0,0-.3,18.231a3.707,3.707,0,0,0,.608-2.267,3.384,3.384,0,0,0-.619-2.113,1.968,1.968,0,0,0-1.644-.809,1.946,1.946,0,0,0-1.619.8A3.68,3.68,0,0,0-4.186,16.125Zm14.568,2.007,1.523-6.057H13.26L10.953,20h-1.1L7.928,13.994,6.053,20h-1.1l-2.3-7.925H4l1.56,5.933,1.846-5.933H8.5Zm8.87-.234a1,1,0,0,0-.414-.853,3.983,3.983,0,0,0-1.443-.524,6.822,6.822,0,0,1-1.633-.527,2.324,2.324,0,0,1-.894-.732,1.752,1.752,0,0,1-.289-1.011A2.056,2.056,0,0,1,15.4,12.6a3.218,3.218,0,0,1,2.106-.674,3.311,3.311,0,0,1,2.186.7,2.21,2.21,0,0,1,.839,1.78H19.171a1.223,1.223,0,0,0-.472-.959,1.77,1.77,0,0,0-1.19-.4,1.852,1.852,0,0,0-1.157.322,1.014,1.014,0,0,0-.417.842.822.822,0,0,0,.388.74,4.776,4.776,0,0,0,1.4.476,7.308,7.308,0,0,1,1.644.542,2.4,2.4,0,0,1,.934.758,1.864,1.864,0,0,1,.3,1.08,2.028,2.028,0,0,1-.85,1.7,3.564,3.564,0,0,1-2.2.641,3.991,3.991,0,0,1-1.685-.337,2.74,2.74,0,0,1-1.146-.941,2.268,2.268,0,0,1-.414-1.307h1.355a1.4,1.4,0,0,0,.546,1.08,2.117,2.117,0,0,0,1.344.4,2.185,2.185,0,0,0,1.234-.311A.956.956,0,0,0,19.252,17.9Zm3.076,4.226-.769-.527a3.534,3.534,0,0,0,.718-1.978V18.4H23.6v1.062a3.336,3.336,0,0,1-.363,1.479A3.464,3.464,0,0,1,22.328,22.124ZM30.5,20H29.147V12.075H30.5ZM29.037,9.973a.809.809,0,0,1,.2-.557.756.756,0,0,1,.6-.227.768.768,0,0,1,.6.227.8.8,0,0,1,.205.557.774.774,0,0,1-.205.549.782.782,0,0,1-.6.22.77.77,0,0,1-.6-.22A.782.782,0,0,1,29.037,9.973Zm12.048,5.039a6.6,6.6,0,0,1-.527,2.736,3.994,3.994,0,0,1-1.494,1.783,4.123,4.123,0,0,1-6-1.769,6.33,6.33,0,0,1-.553-2.655v-.769a6.518,6.518,0,0,1,.535-2.717,3.954,3.954,0,0,1,3.75-2.432,4.134,4.134,0,0,1,2.26.619A3.987,3.987,0,0,1,40.558,11.6a6.629,6.629,0,0,1,.527,2.736Zm-1.4-.688a4.781,4.781,0,0,0-.762-2.911A2.512,2.512,0,0,0,36.793,10.4a2.485,2.485,0,0,0-2.1,1.014,4.683,4.683,0,0,0-.787,2.816v.784A4.788,4.788,0,0,0,34.68,17.9a2.708,2.708,0,0,0,4.237.059,4.761,4.761,0,0,0,.769-2.845Zm6.65.923A6.612,6.612,0,0,1,43.7,13.969,2.442,2.442,0,0,1,42.88,12.1a2.58,2.58,0,0,1,1.007-2.084,4,4,0,0,1,2.618-.824,4.369,4.369,0,0,1,1.959.425A3.222,3.222,0,0,1,49.8,10.786a3,3,0,0,1,.472,1.633H48.856a1.95,1.95,0,0,0-.615-1.525,2.5,2.5,0,0,0-1.736-.555,2.561,2.561,0,0,0-1.622.459,1.53,1.53,0,0,0-.582,1.273,1.376,1.376,0,0,0,.553,1.1A5.424,5.424,0,0,0,46.736,14a8.734,8.734,0,0,1,2.08.825,3.157,3.157,0,0,1,1.113,1.051,2.683,2.683,0,0,1,.363,1.414,2.492,2.492,0,0,1-1.011,2.076,4.31,4.31,0,0,1-2.7.78,5.013,5.013,0,0,1-2.051-.421,3.451,3.451,0,0,1-1.469-1.154,2.815,2.815,0,0,1-.516-1.663h1.414a1.837,1.837,0,0,0,.714,1.527,3.007,3.007,0,0,0,1.908.56,2.764,2.764,0,0,0,1.707-.454,1.475,1.475,0,0,0,.593-1.238,1.448,1.448,0,0,0-.549-1.212A6.333,6.333,0,0,0,46.337,15.247Zm5.5,6.877-.769-.527a3.534,3.534,0,0,0,.718-1.978V18.4h1.326v1.062a3.336,3.336,0,0,1-.363,1.479A3.464,3.464,0,0,1,51.837,22.124Zm9.99-1.978a3.463,3.463,0,0,1-2.622-1.058,3.928,3.928,0,0,1-1.011-2.831v-.249a4.756,4.756,0,0,1,.45-2.106,3.514,3.514,0,0,1,1.26-1.45,3.167,3.167,0,0,1,1.754-.524,2.968,2.968,0,0,1,2.4,1.018,4.408,4.408,0,0,1,.857,2.915v.564H59.55a2.817,2.817,0,0,0,.685,1.893,2.153,2.153,0,0,0,1.666.721,2.36,2.36,0,0,0,1.216-.293,3.055,3.055,0,0,0,.872-.776l.828.645A3.328,3.328,0,0,1,61.827,20.146Zm-.168-7.1a1.807,1.807,0,0,0-1.377.6,2.9,2.9,0,0,0-.688,1.674h3.97v-.1a2.581,2.581,0,0,0-.557-1.6A1.7,1.7,0,0,0,61.659,13.042Zm6.665-2.886v1.919H69.8v1.047H68.324v4.921a1.1,1.1,0,0,0,.2.715A.832.832,0,0,0,69.2,19a3.281,3.281,0,0,0,.645-.088V20a3.951,3.951,0,0,1-1.04.146,1.687,1.687,0,0,1-1.37-.549,2.36,2.36,0,0,1-.461-1.56V13.123H65.526V12.075h1.443V10.156Zm6.24,8.884a1.952,1.952,0,0,0,1.267-.439,1.546,1.546,0,0,0,.6-1.1h1.282a2.457,2.457,0,0,1-.469,1.3,3.087,3.087,0,0,1-1.154.981,3.329,3.329,0,0,1-1.527.366,3.265,3.265,0,0,1-2.574-1.08,4.3,4.3,0,0,1-.956-2.955v-.227a4.771,4.771,0,0,1,.425-2.058,3.236,3.236,0,0,1,1.219-1.4,3.464,3.464,0,0,1,1.879-.5,3.178,3.178,0,0,1,2.216.8,2.853,2.853,0,0,1,.941,2.073H76.432a1.867,1.867,0,0,0-.582-1.263,1.811,1.811,0,0,0-1.293-.494,1.9,1.9,0,0,0-1.6.743,3.491,3.491,0,0,0-.568,2.15v.256a3.422,3.422,0,0,0,.564,2.109A1.906,1.906,0,0,0,74.564,19.041Zm4.7.249a.849.849,0,0,1,.209-.586.8.8,0,0,1,.626-.234.819.819,0,0,1,.634.234.831.831,0,0,1,.216.586.786.786,0,0,1-.216.564.834.834,0,0,1-.634.227.753.753,0,0,1-.835-.791Zm7.046-3.545a11.329,11.329,0,0,1-.428,3.131,9.259,9.259,0,0,1-1.311,2.765,5.744,5.744,0,0,1-1.849,1.8l-.286-.828A5.888,5.888,0,0,0,84.25,19.93a11.613,11.613,0,0,0,.7-4.039v-.234a12.057,12.057,0,0,0-.322-2.86,9.653,9.653,0,0,0-.9-2.369,5.473,5.473,0,0,0-1.293-1.633l.286-.828a5.722,5.722,0,0,1,1.842,1.787,9.278,9.278,0,0,1,1.311,2.761A11.591,11.591,0,0,1,86.312,15.745Z" transform="translate(-10087 -4041.271)" fill="#00223d"/>
    <path id="Trazado_605275" data-name="Trazado 605275" d="M9,0H237a9,9,0,0,1,9,9V75a9,9,0,0,1-9,9H9a9,9,0,0,1-9-9V9A9,9,0,0,1,9,0Z" transform="translate(-9911 -4091.271)" fill="#c0d2e2"/>
    <path id="Trazado_604408" data-name="Trazado 604408" d="M-47.2,0V-10.664h3.735a4.9,4.9,0,0,1,2.944.743,2.542,2.542,0,0,1,1,2.179,2.409,2.409,0,0,1-.4,1.381,2.327,2.327,0,0,1-1.121.875,2.251,2.251,0,0,1,1.293.828,2.447,2.447,0,0,1,.472,1.523,2.814,2.814,0,0,1-.981,2.329,4.418,4.418,0,0,1-2.8.806ZM-45-4.644v2.878h1.882a1.816,1.816,0,0,0,1.212-.37,1.268,1.268,0,0,0,.436-1.022,1.339,1.339,0,0,0-1.516-1.487ZM-45-6.2h1.626q1.663-.029,1.663-1.326a1.225,1.225,0,0,0-.421-1.044,2.215,2.215,0,0,0-1.329-.319H-45ZM-33.171,0a2.351,2.351,0,0,1-.212-.71,2.561,2.561,0,0,1-2,.857,2.814,2.814,0,0,1-1.93-.674,2.167,2.167,0,0,1-.765-1.7,2.24,2.24,0,0,1,.934-1.934,4.608,4.608,0,0,1,2.7-.681h.974V-5.3a1.306,1.306,0,0,0-.282-.879,1.109,1.109,0,0,0-.89-.33,1.261,1.261,0,0,0-.839.256.871.871,0,0,0-.3.7H-37.9a2.126,2.126,0,0,1,.425-1.274,2.808,2.808,0,0,1,1.2-.919,4.378,4.378,0,0,1,1.743-.333,3.459,3.459,0,0,1,2.325.736,2.575,2.575,0,0,1,.861,2.069v3.435a3.789,3.789,0,0,0,.315,1.707V0Zm-1.75-1.472a1.823,1.823,0,0,0,.864-.209,1.371,1.371,0,0,0,.586-.56V-3.6h-.791q-1.589,0-1.692,1.1l-.007.125a.847.847,0,0,0,.278.652A1.081,1.081,0,0,0-34.922-1.472Zm9.492-.718a.682.682,0,0,0-.385-.612,4.368,4.368,0,0,0-1.234-.4q-2.827-.593-2.827-2.4A2.178,2.178,0,0,1-29-7.365a3.531,3.531,0,0,1,2.289-.707,3.8,3.8,0,0,1,2.413.71,2.239,2.239,0,0,1,.9,1.846H-25.51a1.024,1.024,0,0,0-.293-.751,1.24,1.24,0,0,0-.916-.3,1.267,1.267,0,0,0-.828.242.763.763,0,0,0-.293.615.652.652,0,0,0,.333.568,3.428,3.428,0,0,0,1.124.374,9.183,9.183,0,0,1,1.333.355,2.19,2.19,0,0,1,1.677,2.131A2.067,2.067,0,0,1-24.3-.524a4.013,4.013,0,0,1-2.4.67,4.191,4.191,0,0,1-1.769-.355,2.968,2.968,0,0,1-1.212-.974,2.263,2.263,0,0,1-.439-1.337h2.007a1.105,1.105,0,0,0,.417.864,1.656,1.656,0,0,0,1.04.3,1.533,1.533,0,0,0,.919-.231A.718.718,0,0,0-25.43-2.19ZM-18.362.146A3.89,3.89,0,0,1-21.2-.923a3.8,3.8,0,0,1-1.095-2.849v-.205a4.787,4.787,0,0,1,.461-2.135,3.386,3.386,0,0,1,1.307-1.45,3.669,3.669,0,0,1,1.93-.509,3.289,3.289,0,0,1,2.56,1.025A4.167,4.167,0,0,1-15.1-4.138v.864h-5.046a1.966,1.966,0,0,0,.619,1.245,1.871,1.871,0,0,0,1.307.469,2.285,2.285,0,0,0,1.912-.886l1.04,1.165A3.178,3.178,0,0,1-16.56-.231,4.229,4.229,0,0,1-18.362.146Zm-.242-6.5a1.326,1.326,0,0,0-1.022.425,2.195,2.195,0,0,0-.5,1.216h2.944v-.168a1.565,1.565,0,0,0-.381-1.088A1.368,1.368,0,0,0-18.6-6.357ZM-10.5-4.021a4.776,4.776,0,0,1,.831-2.952,2.7,2.7,0,0,1,2.274-1.1,2.427,2.427,0,0,1,1.912.864V-11.25h2.124V0H-5.266l-.1-.842A2.491,2.491,0,0,1-7.4.146,2.69,2.69,0,0,1-9.65-.956,4.93,4.93,0,0,1-10.5-4.021Zm2.117.154a3.12,3.12,0,0,0,.388,1.707,1.265,1.265,0,0,0,1.128.593A1.417,1.417,0,0,0-5.479-2.4V-5.522a1.4,1.4,0,0,0-1.37-.828Q-8.379-6.35-8.379-3.867ZM1.934.146A3.89,3.89,0,0,1-.9-.923,3.8,3.8,0,0,1-2-3.772v-.205a4.787,4.787,0,0,1,.461-2.135A3.386,3.386,0,0,1-.231-7.562,3.669,3.669,0,0,1,1.7-8.071a3.289,3.289,0,0,1,2.56,1.025,4.167,4.167,0,0,1,.934,2.908v.864H.146A1.966,1.966,0,0,0,.765-2.029a1.871,1.871,0,0,0,1.307.469,2.285,2.285,0,0,0,1.912-.886l1.04,1.165A3.178,3.178,0,0,1,3.735-.231,4.229,4.229,0,0,1,1.934.146Zm-.242-6.5A1.326,1.326,0,0,0,.67-5.933a2.195,2.195,0,0,0-.5,1.216H3.113v-.168a1.565,1.565,0,0,0-.381-1.088A1.368,1.368,0,0,0,1.692-6.357ZM10.269,0V-10.664H13.55a4.983,4.983,0,0,1,2.516.634,4.418,4.418,0,0,1,1.732,1.8,5.557,5.557,0,0,1,.623,2.655v.491a5.573,5.573,0,0,1-.612,2.644A4.38,4.38,0,0,1,16.084-.645,5.021,5.021,0,0,1,13.572,0Zm2.2-8.884v7.119h1.062a2.386,2.386,0,0,0,1.97-.842,3.806,3.806,0,0,0,.7-2.41v-.564a3.867,3.867,0,0,0-.674-2.465,2.378,2.378,0,0,0-1.97-.839ZM24.47,0a2.351,2.351,0,0,1-.212-.71,2.561,2.561,0,0,1-2,.857,2.814,2.814,0,0,1-1.93-.674,2.167,2.167,0,0,1-.765-1.7A2.24,2.24,0,0,1,20.5-4.16a4.608,4.608,0,0,1,2.7-.681h.974V-5.3a1.306,1.306,0,0,0-.282-.879A1.109,1.109,0,0,0,23-6.5a1.261,1.261,0,0,0-.839.256.871.871,0,0,0-.3.7H19.739a2.126,2.126,0,0,1,.425-1.274,2.808,2.808,0,0,1,1.2-.919,4.378,4.378,0,0,1,1.743-.333,3.459,3.459,0,0,1,2.325.736,2.575,2.575,0,0,1,.861,2.069v3.435a3.789,3.789,0,0,0,.315,1.707V0ZM22.72-1.472a1.823,1.823,0,0,0,.864-.209,1.371,1.371,0,0,0,.586-.56V-3.6h-.791q-1.589,0-1.692,1.1l-.007.125a.847.847,0,0,0,.278.652A1.081,1.081,0,0,0,22.72-1.472Zm7.734-8.4v1.948h1.355v1.553H30.454v3.955a.944.944,0,0,0,.168.63.846.846,0,0,0,.645.19,3.376,3.376,0,0,0,.623-.051v1.6a4.358,4.358,0,0,1-1.282.19A2.021,2.021,0,0,1,28.337-2.1v-4.27H27.18V-7.925h1.157V-9.873Zm1.985,5.837a4.7,4.7,0,0,1,.454-2.1A3.324,3.324,0,0,1,34.2-7.566a3.814,3.814,0,0,1,1.981-.505A3.609,3.609,0,0,1,38.8-7.09a3.939,3.939,0,0,1,1.132,2.666l.015.542A4.142,4.142,0,0,1,38.928-.956,3.539,3.539,0,0,1,36.2.146a3.556,3.556,0,0,1-2.736-1.1A4.215,4.215,0,0,1,32.439-3.94Zm2.117.154a2.954,2.954,0,0,0,.425,1.725,1.4,1.4,0,0,0,1.216.6,1.405,1.405,0,0,0,1.2-.59,3.233,3.233,0,0,0,.432-1.886A2.925,2.925,0,0,0,37.4-5.75a1.405,1.405,0,0,0-1.216-.608,1.382,1.382,0,0,0-1.2.6A3.287,3.287,0,0,0,34.556-3.882ZM45.542-2.19a.682.682,0,0,0-.385-.612,4.368,4.368,0,0,0-1.234-.4Q41.1-3.794,41.1-5.6a2.178,2.178,0,0,1,.875-1.761,3.531,3.531,0,0,1,2.289-.707,3.8,3.8,0,0,1,2.413.71,2.239,2.239,0,0,1,.9,1.846H45.461a1.024,1.024,0,0,0-.293-.751,1.24,1.24,0,0,0-.916-.3,1.267,1.267,0,0,0-.828.242.763.763,0,0,0-.293.615.652.652,0,0,0,.333.568,3.428,3.428,0,0,0,1.124.374,9.183,9.183,0,0,1,1.333.355A2.19,2.19,0,0,1,47.6-2.278a2.067,2.067,0,0,1-.93,1.754,4.013,4.013,0,0,1-2.4.67A4.191,4.191,0,0,1,42.5-.209a2.968,2.968,0,0,1-1.212-.974,2.263,2.263,0,0,1-.439-1.337h2.007a1.105,1.105,0,0,0,.417.864,1.656,1.656,0,0,0,1.04.3,1.533,1.533,0,0,0,.919-.231A.718.718,0,0,0,45.542-2.19Z" transform="translate(-9787.803 -4064.021)" fill="#00223d"/>
    <path id="Trazado_605276" data-name="Trazado 605276" d="M-96.193-10.664l3.486,8.7,3.486-8.7H-87.4V0H-88.8V-4.153l.132-4.482L-92.172,0h-1.077l-3.494-8.613.139,4.46V0h-1.406V-10.664Zm13.66,8.679,1.846-5.94h1.45l-3.186,9.148Q-83.163,3.2-84.774,3.2l-.256-.022-.505-.1v-1.1l.366.029A1.8,1.8,0,0,0-84.1,1.736,2.014,2.014,0,0,0-83.463.718l.3-.806L-85.99-7.925h1.479Zm7.859-2.769a6.612,6.612,0,0,1-2.633-1.278A2.442,2.442,0,0,1-78.131-7.9a2.58,2.58,0,0,1,1.007-2.084,4,4,0,0,1,2.618-.824,4.369,4.369,0,0,1,1.959.425,3.222,3.222,0,0,1,1.333,1.172,3,3,0,0,1,.472,1.633h-1.414a1.95,1.95,0,0,0-.615-1.525,2.5,2.5,0,0,0-1.736-.555,2.561,2.561,0,0,0-1.622.459,1.53,1.53,0,0,0-.582,1.273,1.376,1.376,0,0,0,.553,1.1A5.424,5.424,0,0,0-74.275-6a8.734,8.734,0,0,1,2.08.825,3.157,3.157,0,0,1,1.113,1.051,2.683,2.683,0,0,1,.363,1.414A2.492,2.492,0,0,1-71.73-.634a4.31,4.31,0,0,1-2.7.78,5.013,5.013,0,0,1-2.051-.421,3.451,3.451,0,0,1-1.469-1.154,2.815,2.815,0,0,1-.516-1.663h1.414a1.837,1.837,0,0,0,.714,1.527A3.007,3.007,0,0,0-74.432-1a2.764,2.764,0,0,0,1.707-.454A1.475,1.475,0,0,0-72.133-2.7a1.448,1.448,0,0,0-.549-1.212A6.333,6.333,0,0,0-74.674-4.753Zm13.9-.234a6.587,6.587,0,0,1-.491,2.662A4.114,4.114,0,0,1-62.64-.579l1.9,1.494L-61.7,1.8-63.944.015a4.575,4.575,0,0,1-1.113.132,4.076,4.076,0,0,1-2.234-.619A4.09,4.09,0,0,1-68.8-2.238a6.33,6.33,0,0,1-.553-2.655v-.769a6.518,6.518,0,0,1,.535-2.717,4.075,4.075,0,0,1,1.512-1.805,4.058,4.058,0,0,1,2.238-.626,4.129,4.129,0,0,1,2.267.623A4.016,4.016,0,0,1-61.3-8.4a6.578,6.578,0,0,1,.527,2.728Zm-1.406-.688a4.84,4.84,0,0,0-.751-2.9A2.5,2.5,0,0,0-65.072-9.6a2.478,2.478,0,0,0-2.091,1.014,4.683,4.683,0,0,0-.787,2.816v.784A4.825,4.825,0,0,0-67.185-2.1a2.481,2.481,0,0,0,2.128,1.055,2.486,2.486,0,0,0,2.109-.992,4.761,4.761,0,0,0,.769-2.845Zm4.988,4.526h5.054V0H-58.6V-10.664h1.414Zm6.4,3.274-.769-.527a3.534,3.534,0,0,0,.718-1.978V-1.6h1.326V-.542A3.336,3.336,0,0,1-49.878.938,3.464,3.464,0,0,1-50.79,2.124Zm8.73-12.788,3.486,8.7,3.486-8.7h1.824V0h-1.406V-4.153l.132-4.482L-38.038,0h-1.077l-3.494-8.613.139,4.46V0h-1.406V-10.664Zm10.708,6.628a4.681,4.681,0,0,1,.458-2.095,3.415,3.415,0,0,1,1.274-1.436,3.469,3.469,0,0,1,1.864-.505,3.342,3.342,0,0,1,2.618,1.121,4.311,4.311,0,0,1,1,2.981v.1A4.722,4.722,0,0,1-24.58-1.8,3.365,3.365,0,0,1-25.847-.366,3.509,3.509,0,0,1-27.74.146,3.334,3.334,0,0,1-30.352-.974a4.29,4.29,0,0,1-1-2.966Zm1.362.161a3.39,3.39,0,0,0,.612,2.117,1.957,1.957,0,0,0,1.637.8A1.945,1.945,0,0,0-26.1-1.769a3.707,3.707,0,0,0,.608-2.267,3.384,3.384,0,0,0-.619-2.113,1.968,1.968,0,0,0-1.644-.809,1.946,1.946,0,0,0-1.619.8A3.68,3.68,0,0,0-29.989-3.875Zm8.833-4.05.044,1a2.888,2.888,0,0,1,2.373-1.143q2.512,0,2.534,2.834V0H-17.56V-5.244a1.824,1.824,0,0,0-.392-1.267,1.57,1.57,0,0,0-1.2-.41,1.956,1.956,0,0,0-1.157.352,2.387,2.387,0,0,0-.776.923V0h-1.355V-7.925Zm6.672,3.9a4.658,4.658,0,0,1,.857-2.948,2.741,2.741,0,0,1,2.271-1.095A2.726,2.726,0,0,1-9.093-7.046l.066-.879h1.238V-.19A3.224,3.224,0,0,1-8.7,2.234a3.365,3.365,0,0,1-2.45.886,4.076,4.076,0,0,1-1.677-.366,2.887,2.887,0,0,1-1.252-1l.7-.813a2.65,2.65,0,0,0,2.131,1.077A2.076,2.076,0,0,0-9.7,1.458,2.128,2.128,0,0,0-9.152-.11V-.791a2.785,2.785,0,0,1-2.219.938A2.707,2.707,0,0,1-13.623-.974,4.9,4.9,0,0,1-14.484-4.028Zm1.362.154a3.553,3.553,0,0,0,.549,2.106A1.785,1.785,0,0,0-11.034-1,1.985,1.985,0,0,0-9.152-2.168V-5.786a2.008,2.008,0,0,0-1.868-1.135,1.8,1.8,0,0,0-1.545.769A3.87,3.87,0,0,0-13.121-3.875ZM-6.1-4.036A4.681,4.681,0,0,1-5.647-6.13,3.415,3.415,0,0,1-4.373-7.566a3.469,3.469,0,0,1,1.864-.505A3.342,3.342,0,0,1,.11-6.951a4.311,4.311,0,0,1,1,2.981v.1A4.722,4.722,0,0,1,.667-1.8,3.365,3.365,0,0,1-.6-.366,3.509,3.509,0,0,1-2.494.146,3.334,3.334,0,0,1-5.1-.974a4.29,4.29,0,0,1-1-2.966Zm1.362.161a3.39,3.39,0,0,0,.612,2.117,1.957,1.957,0,0,0,1.637.8A1.945,1.945,0,0,0-.853-1.769,3.707,3.707,0,0,0-.245-4.036,3.384,3.384,0,0,0-.864-6.149a1.968,1.968,0,0,0-1.644-.809,1.946,1.946,0,0,0-1.619.8A3.68,3.68,0,0,0-4.742-3.875ZM3.021,0V-10.664h3.01a4.846,4.846,0,0,1,2.461.615A4.161,4.161,0,0,1,10.144-8.3a5.7,5.7,0,0,1,.59,2.607v.681a5.718,5.718,0,0,1-.582,2.644A4.1,4.1,0,0,1,8.489-.623,5.155,5.155,0,0,1,5.973,0ZM4.427-9.514V-1.15H5.907A3.219,3.219,0,0,0,8.438-2.162a4.18,4.18,0,0,0,.9-2.881v-.623a4.246,4.246,0,0,0-.853-2.826A3.036,3.036,0,0,0,6.068-9.514ZM12.858,0V-10.664h3.486a4.047,4.047,0,0,1,2.611.718,2.587,2.587,0,0,1,.875,2.124A2.166,2.166,0,0,1,19.406-6.5a2.754,2.754,0,0,1-1.157.89,2.473,2.473,0,0,1,1.366.919,2.638,2.638,0,0,1,.5,1.615,2.852,2.852,0,0,1-.93,2.256A3.847,3.847,0,0,1,16.556,0Zm1.406-4.988V-1.15h2.322a2.236,2.236,0,0,0,1.549-.509,1.788,1.788,0,0,0,.568-1.4q0-1.926-2.095-1.926Zm0-1.128h2.124a2.226,2.226,0,0,0,1.476-.462,1.55,1.55,0,0,0,.553-1.255A1.524,1.524,0,0,0,17.9-9.114a2.518,2.518,0,0,0-1.56-.4h-2.08Zm7.676,8.24L21.171,1.6a3.534,3.534,0,0,0,.718-1.978V-1.6h1.326V-.542A3.336,3.336,0,0,1,22.852.938,3.464,3.464,0,0,1,21.94,2.124ZM37.057-4.988a6.6,6.6,0,0,1-.527,2.736A3.994,3.994,0,0,1,35.035-.469,4.111,4.111,0,0,1,32.78.146a4.076,4.076,0,0,1-2.234-.619,4.09,4.09,0,0,1-1.512-1.765,6.33,6.33,0,0,1-.553-2.655v-.769a6.518,6.518,0,0,1,.535-2.717,4.075,4.075,0,0,1,1.512-1.805,4.058,4.058,0,0,1,2.238-.626,4.134,4.134,0,0,1,2.26.619A3.987,3.987,0,0,1,36.53-8.4a6.629,6.629,0,0,1,.527,2.736Zm-1.4-.688A4.781,4.781,0,0,0,34.9-8.588,2.512,2.512,0,0,0,32.765-9.6a2.485,2.485,0,0,0-2.1,1.014,4.683,4.683,0,0,0-.787,2.816v.784A4.788,4.788,0,0,0,30.652-2.1,2.5,2.5,0,0,0,32.78-1.047a2.486,2.486,0,0,0,2.109-.992,4.761,4.761,0,0,0,.769-2.845Zm7.126-1.033a4.061,4.061,0,0,0-.667-.051,1.786,1.786,0,0,0-1.809,1.135V0H38.954V-7.925h1.318l.022.916a2.11,2.11,0,0,1,1.89-1.062,1.384,1.384,0,0,1,.6.1ZM48.629,0a2.846,2.846,0,0,1-.19-.835,3.023,3.023,0,0,1-2.256.981A2.8,2.8,0,0,1,44.26-.516,2.145,2.145,0,0,1,43.51-2.2a2.24,2.24,0,0,1,.941-1.923A4.437,4.437,0,0,1,47.1-4.8h1.318v-.623a1.522,1.522,0,0,0-.425-1.132A1.707,1.707,0,0,0,46.74-6.98a1.976,1.976,0,0,0-1.216.366,1.079,1.079,0,0,0-.491.886H43.671a1.87,1.87,0,0,1,.421-1.146,2.874,2.874,0,0,1,1.143-.875,3.844,3.844,0,0,1,1.586-.322,3.133,3.133,0,0,1,2.146.685A2.47,2.47,0,0,1,49.772-5.5v3.647A4.459,4.459,0,0,0,50.05-.117V0ZM46.381-1.033a2.381,2.381,0,0,0,1.208-.33,1.994,1.994,0,0,0,.828-.857V-3.845H47.355q-2.49,0-2.49,1.458a1.234,1.234,0,0,0,.425,1A1.633,1.633,0,0,0,46.381-1.033Zm8.694.073A1.952,1.952,0,0,0,56.342-1.4a1.546,1.546,0,0,0,.6-1.1h1.282a2.457,2.457,0,0,1-.469,1.3A3.087,3.087,0,0,1,56.6-.22a3.329,3.329,0,0,1-1.527.366A3.265,3.265,0,0,1,52.5-.934a4.3,4.3,0,0,1-.956-2.955v-.227a4.771,4.771,0,0,1,.425-2.058,3.236,3.236,0,0,1,1.219-1.4,3.464,3.464,0,0,1,1.879-.5,3.178,3.178,0,0,1,2.216.8A2.853,2.853,0,0,1,58.224-5.2H56.942a1.867,1.867,0,0,0-.582-1.263,1.811,1.811,0,0,0-1.293-.494,1.9,1.9,0,0,0-1.6.743,3.491,3.491,0,0,0-.568,2.15v.256A3.422,3.422,0,0,0,53.463-1.7,1.906,1.906,0,0,0,55.074-.959ZM61.219,0H59.865V-11.25h1.355Zm5.457.146A3.463,3.463,0,0,1,64.054-.912a3.928,3.928,0,0,1-1.011-2.831v-.249a4.756,4.756,0,0,1,.45-2.106,3.514,3.514,0,0,1,1.26-1.45,3.167,3.167,0,0,1,1.754-.524,2.968,2.968,0,0,1,2.4,1.018,4.408,4.408,0,0,1,.857,2.915v.564H64.4a2.817,2.817,0,0,0,.685,1.893,2.153,2.153,0,0,0,1.666.721,2.36,2.36,0,0,0,1.216-.293,3.055,3.055,0,0,0,.872-.776l.828.645A3.328,3.328,0,0,1,66.676.146Zm-.168-7.1a1.807,1.807,0,0,0-1.377.6,2.9,2.9,0,0,0-.688,1.674h3.97v-.1a2.581,2.581,0,0,0-.557-1.6A1.7,1.7,0,0,0,66.508-6.958ZM71.364-.71a.849.849,0,0,1,.209-.586.8.8,0,0,1,.626-.234.819.819,0,0,1,.634.234.831.831,0,0,1,.216.586.786.786,0,0,1-.216.564A.834.834,0,0,1,72.2.081a.809.809,0,0,1-.626-.227A.8.8,0,0,1,71.364-.71ZM85.236-4.929H80.614V-1.15h5.369V0H79.208V-10.664h6.7v1.15h-5.3v3.435h4.622Zm4.124-4.915v1.919h1.479v1.047H89.359v4.921a1.1,1.1,0,0,0,.2.715A.832.832,0,0,0,90.231-1a3.281,3.281,0,0,0,.645-.088V0a3.951,3.951,0,0,1-1.04.146A1.687,1.687,0,0,1,88.466-.4,2.36,2.36,0,0,1,88-1.963V-6.877H86.561V-7.925H88V-9.844ZM95.6-.959A1.952,1.952,0,0,0,96.866-1.4a1.546,1.546,0,0,0,.6-1.1h1.282a2.457,2.457,0,0,1-.469,1.3,3.087,3.087,0,0,1-1.154.981A3.329,3.329,0,0,1,95.6.146a3.265,3.265,0,0,1-2.574-1.08,4.3,4.3,0,0,1-.956-2.955v-.227a4.771,4.771,0,0,1,.425-2.058,3.236,3.236,0,0,1,1.219-1.4,3.464,3.464,0,0,1,1.879-.5,3.178,3.178,0,0,1,2.216.8A2.853,2.853,0,0,1,98.749-5.2H97.467a1.867,1.867,0,0,0-.582-1.263,1.811,1.811,0,0,0-1.293-.494,1.9,1.9,0,0,0-1.6.743,3.491,3.491,0,0,0-.568,2.15v.256A3.422,3.422,0,0,0,93.988-1.7,1.906,1.906,0,0,0,95.6-.959Z" transform="translate(-9788 -4034.271)" fill="#00223d"/>
  </g>
</svg>
