<svg xmlns="http://www.w3.org/2000/svg" width="505" height="312" viewBox="0 0 505 312">
  <g id="Grupo_887601" data-name="Grupo 887601" transform="translate(9933 6706)">
    <path id="Trazado_601644" data-name="Trazado 601644" d="M13,0H492a13,13,0,0,1,13,13V299a13,13,0,0,1-13,13H13A13,13,0,0,1,0,299V13A13,13,0,0,1,13,0Z" transform="translate(-9933 -6706)" fill="#fff"/>
    <path id="Trazado_601657" data-name="Trazado 601657" d="M9,0H237a9,9,0,0,1,9,9V250a9,9,0,0,1-9,9H9a9,9,0,0,1-9-9V9A9,9,0,0,1,9,0Z" transform="translate(-9709 -6677)" fill="#f5f5f5"/>
    <path id="Trazado_601645" data-name="Trazado 601645" d="M9,0H201a9,9,0,0,1,9,9V250a9,9,0,0,1-9,9H9a9,9,0,0,1-9-9V9A9,9,0,0,1,9,0Z" transform="translate(-9902 -6677)" fill="#ebebeb"/>
    <path id="Trazado_601646" data-name="Trazado 601646" d="M7.021-3.965H3.151V0H.752V-9.953H7.41V-8.1H3.151v2.29H7.021Zm.848.2A4.366,4.366,0,0,1,8.3-5.739a3.08,3.08,0,0,1,1.237-1.33,3.726,3.726,0,0,1,1.894-.465A3.4,3.4,0,0,1,14.048-6.5,3.948,3.948,0,0,1,15-3.705v.082a3.83,3.83,0,0,1-.96,2.745,3.41,3.41,0,0,1-2.6,1.015A3.449,3.449,0,0,1,8.907-.81,3.7,3.7,0,0,1,7.875-3.377Zm2.3.144a2.752,2.752,0,0,0,.321,1.5,1.07,1.07,0,0,0,.95.479q1.23,0,1.258-1.894v-.232q0-1.989-1.271-1.989-1.155,0-1.251,1.716ZM20.494-5.312l-.759-.055a1.363,1.363,0,0,0-1.395.684V0h-2.3V-7.4H18.2l.075.95a1.784,1.784,0,0,1,1.62-1.087,2.247,2.247,0,0,1,.643.082ZM23.5-7.4l.075.868a2.543,2.543,0,0,1,2.112-1,1.872,1.872,0,0,1,1.894,1.114,2.462,2.462,0,0,1,2.174-1.114q2.249,0,2.311,2.721V0H29.757V-4.669a1.41,1.41,0,0,0-.191-.827.815.815,0,0,0-.7-.26,1.091,1.091,0,0,0-1.019.608l.007.1V0H25.546V-4.655a1.482,1.482,0,0,0-.185-.841.812.812,0,0,0-.7-.26,1.1,1.1,0,0,0-1.012.608V0h-2.3V-7.4ZM37.789-.8a2.375,2.375,0,0,1-1.976.937,2.329,2.329,0,0,1-1.842-.708A2.976,2.976,0,0,1,33.346-2.6V-7.4h2.3v4.806a.828.828,0,0,0,.923.95A1.2,1.2,0,0,0,37.7-2.208V-7.4h2.317V0h-2.16Zm5.92.8H41.4V-10.5h2.311Zm5.585,0a2.6,2.6,0,0,1-.219-.663,2.142,2.142,0,0,1-1.777.8A2.624,2.624,0,0,1,45.521-.5a2.013,2.013,0,0,1-.731-1.589A2.069,2.069,0,0,1,45.678-3.9a4.527,4.527,0,0,1,2.584-.615h.711v-.39q0-1.019-.882-1.019a.719.719,0,0,0-.82.807h-2.3a2.068,2.068,0,0,1,.913-1.743,3.832,3.832,0,0,1,2.328-.67,3.363,3.363,0,0,1,2.235.69,2.4,2.4,0,0,1,.841,1.894v3.274A3.353,3.353,0,0,0,51.6-.116V0ZM47.852-1.5a1.285,1.285,0,0,0,.714-.185,1.157,1.157,0,0,0,.407-.417V-3.288H48.3q-1.2,0-1.2,1.08a.659.659,0,0,0,.212.509A.767.767,0,0,0,47.852-1.5Zm9.181-3.808-.759-.055a1.363,1.363,0,0,0-1.395.684V0h-2.3V-7.4h2.16l.075.95a1.784,1.784,0,0,1,1.62-1.087,2.247,2.247,0,0,1,.643.082ZM60.293,0H57.982V-7.4h2.311ZM57.846-9.3a1.028,1.028,0,0,1,.355-.807,1.341,1.341,0,0,1,.923-.314,1.341,1.341,0,0,1,.923.314A1.028,1.028,0,0,1,60.4-9.3a1.028,1.028,0,0,1-.355.807,1.341,1.341,0,0,1-.923.314A1.341,1.341,0,0,1,58.2-8.5,1.028,1.028,0,0,1,57.846-9.3Zm3.575,5.537a4.366,4.366,0,0,1,.431-1.972,3.08,3.08,0,0,1,1.237-1.33,3.726,3.726,0,0,1,1.894-.465A3.4,3.4,0,0,1,67.6-6.5a3.948,3.948,0,0,1,.957,2.8v.082A3.83,3.83,0,0,1,67.6-.878,3.41,3.41,0,0,1,65,.137,3.449,3.449,0,0,1,62.46-.81a3.7,3.7,0,0,1-1.032-2.567Zm2.3.144a2.752,2.752,0,0,0,.321,1.5,1.07,1.07,0,0,0,.95.479q1.23,0,1.258-1.894v-.232q0-1.989-1.271-1.989-1.155,0-1.251,1.716Zm9.044-.13a4.518,4.518,0,0,1,.759-2.769,2.5,2.5,0,0,1,2.119-1.012,2.124,2.124,0,0,1,1.668.779V-10.5h2.311V0H77.554l-.116-.793a2.181,2.181,0,0,1-1.8.93A2.493,2.493,0,0,1,73.541-.875,4.661,4.661,0,0,1,72.769-3.753Zm2.3.144q0,1.969,1.148,1.969a1.134,1.134,0,0,0,1.094-.643V-5.1a1.1,1.1,0,0,0-1.08-.656q-1.066,0-1.155,1.723ZM84.513.137A3.8,3.8,0,0,1,81.758-.878a3.506,3.506,0,0,1-1.053-2.642v-.191a4.542,4.542,0,0,1,.42-2,3.076,3.076,0,0,1,1.227-1.343,3.7,3.7,0,0,1,1.914-.475,3.2,3.2,0,0,1,2.461.967,3.8,3.8,0,0,1,.9,2.7v.9H83.05A1.66,1.66,0,0,0,83.59-2a1.607,1.607,0,0,0,1.08.355,2.07,2.07,0,0,0,1.709-.766l1.053,1.244a2.943,2.943,0,0,1-1.22.947A4.124,4.124,0,0,1,84.513.137Zm-.26-5.893q-1.012,0-1.2,1.34h2.324v-.178a1.141,1.141,0,0,0-.28-.858A1.115,1.115,0,0,0,84.253-5.756ZM100.2-3.37a3.635,3.635,0,0,1-.561,1.835A3.383,3.383,0,0,1,98.2-.3a4.9,4.9,0,0,1-2.116.438A3.908,3.908,0,0,1,93-1.142a5.278,5.278,0,0,1-1.128-3.609v-.492a6.025,6.025,0,0,1,.509-2.56,3.859,3.859,0,0,1,1.466-1.7,4.091,4.091,0,0,1,2.215-.6,4.29,4.29,0,0,1,2.912.954,3.768,3.768,0,0,1,1.251,2.628H97.829a1.783,1.783,0,0,0-.458-1.306,1.884,1.884,0,0,0-1.312-.4,1.433,1.433,0,0,0-1.312.67,4.306,4.306,0,0,0-.437,2.14v.7a4.764,4.764,0,0,0,.4,2.276,1.463,1.463,0,0,0,1.377.684,1.842,1.842,0,0,0,1.265-.39,1.654,1.654,0,0,0,.465-1.237Zm.738-.4a4.366,4.366,0,0,1,.431-1.972,3.08,3.08,0,0,1,1.237-1.33,3.726,3.726,0,0,1,1.894-.465A3.4,3.4,0,0,1,107.119-6.5a3.948,3.948,0,0,1,.957,2.8v.082a3.83,3.83,0,0,1-.96,2.745,3.41,3.41,0,0,1-2.6,1.015,3.449,3.449,0,0,1-2.536-.947,3.7,3.7,0,0,1-1.032-2.567Zm2.3.144a2.752,2.752,0,0,0,.321,1.5,1.07,1.07,0,0,0,.95.479q1.23,0,1.258-1.894v-.232q0-1.989-1.271-1.989-1.155,0-1.251,1.716ZM111.207-7.4l.075.868a2.508,2.508,0,0,1,2.112-1,2.11,2.11,0,0,1,1.726.69,3.287,3.287,0,0,1,.591,2.078V0H113.4V-4.669a1.248,1.248,0,0,0-.226-.824,1.044,1.044,0,0,0-.82-.263,1.1,1.1,0,0,0-1,.533V0h-2.3V-7.4Zm8.463-1.839V-7.4h1.217v1.6H119.67v3.384a.864.864,0,0,0,.15.581.807.807,0,0,0,.595.164,3.379,3.379,0,0,0,.574-.041V-.062a4.252,4.252,0,0,1-1.3.2,2.413,2.413,0,0,1-1.757-.561,2.3,2.3,0,0,1-.567-1.7V-5.8h-.943V-7.4h.943V-9.235ZM125.959,0a2.6,2.6,0,0,1-.219-.663,2.142,2.142,0,0,1-1.777.8A2.624,2.624,0,0,1,122.186-.5a2.013,2.013,0,0,1-.731-1.589,2.069,2.069,0,0,1,.889-1.818,4.527,4.527,0,0,1,2.584-.615h.711v-.39q0-1.019-.882-1.019a.719.719,0,0,0-.82.807h-2.3a2.068,2.068,0,0,1,.913-1.743,3.832,3.832,0,0,1,2.328-.67,3.363,3.363,0,0,1,2.235.69,2.4,2.4,0,0,1,.841,1.894v3.274a3.353,3.353,0,0,0,.314,1.559V0Zm-1.442-1.5a1.285,1.285,0,0,0,.714-.185,1.157,1.157,0,0,0,.407-.417V-3.288h-.67q-1.2,0-1.2,1.08a.659.659,0,0,0,.212.509A.767.767,0,0,0,124.517-1.5Zm7.834-.137A1.025,1.025,0,0,0,133.1-1.9a.965.965,0,0,0,.26-.735h2.16a2.557,2.557,0,0,1-.872,2,3.242,3.242,0,0,1-2.246.779,3.283,3.283,0,0,1-2.543-1.012,3.986,3.986,0,0,1-.93-2.8v-.1a4.505,4.505,0,0,1,.414-1.979,3.011,3.011,0,0,1,1.193-1.319,3.557,3.557,0,0,1,1.846-.461,3.2,3.2,0,0,1,2.29.8,2.837,2.837,0,0,1,.848,2.167h-2.16a1.265,1.265,0,0,0-.28-.882.967.967,0,0,0-.752-.308q-.9,0-1.046,1.142a8.054,8.054,0,0,0-.048,1,3.164,3.164,0,0,0,.267,1.545A.923.923,0,0,0,132.351-1.641Zm6.829-7.595V-7.4H140.4v1.6H139.18v3.384a.864.864,0,0,0,.15.581.807.807,0,0,0,.595.164,3.38,3.38,0,0,0,.574-.041V-.062a4.252,4.252,0,0,1-1.3.2,2.413,2.413,0,0,1-1.757-.561,2.3,2.3,0,0,1-.567-1.7V-5.8h-.943V-7.4h.943V-9.235Zm1.627,5.469a4.366,4.366,0,0,1,.431-1.972,3.08,3.08,0,0,1,1.237-1.33,3.726,3.726,0,0,1,1.894-.465A3.4,3.4,0,0,1,146.986-6.5a3.948,3.948,0,0,1,.957,2.8v.082a3.83,3.83,0,0,1-.96,2.745,3.41,3.41,0,0,1-2.6,1.015,3.449,3.449,0,0,1-2.536-.947,3.7,3.7,0,0,1-1.032-2.567Zm2.3.144a2.752,2.752,0,0,0,.321,1.5,1.07,1.07,0,0,0,.95.479q1.23,0,1.258-1.894v-.232q0-1.989-1.271-1.989-1.155,0-1.251,1.716Z" transform="translate(-9872 -6641)" fill="#26aab7"/>
    <g id="Trazado_601647" data-name="Trazado 601647" transform="translate(-9877 -6627)" fill="#fff">
      <path d="M 156 24.5 L 4 24.5 C 2.070100069046021 24.5 0.5 22.92989921569824 0.5 21 L 0.5 4 C 0.5 2.070100069046021 2.070100069046021 0.5 4 0.5 L 156 0.5 C 157.9299011230469 0.5 159.5 2.070100069046021 159.5 4 L 159.5 21 C 159.5 22.92989921569824 157.9299011230469 24.5 156 24.5 Z" stroke="none"/>
      <path d="M 4 1 C 2.345794677734375 1 1 2.345790863037109 1 4 L 1 21 C 1 22.65420913696289 2.345794677734375 24 4 24 L 156 24 C 157.6542053222656 24 159 22.65420913696289 159 21 L 159 4 C 159 2.345790863037109 157.6542053222656 1 156 1 L 4 1 M 4 0 L 156 0 C 158.2091217041016 0 160 1.790853500366211 160 4 L 160 21 C 160 23.20914649963379 158.2091217041016 25 156 25 L 4 25 C 1.790847778320312 25 0 23.20914649963379 0 21 L 0 4 C 0 1.790853500366211 1.790847778320312 0 4 0 Z" stroke="none" fill="#26aab7"/>
    </g>
    <path id="Trazado_601648" data-name="Trazado 601648" d="M7.547,0H6.416L2.121-6.574V0H.99V-8.531H2.121l4.307,6.6v-6.6H7.547ZM9.088-3.229A3.745,3.745,0,0,1,9.454-4.9a2.732,2.732,0,0,1,1.02-1.148,2.775,2.775,0,0,1,1.491-.4,2.674,2.674,0,0,1,2.095.9,3.449,3.449,0,0,1,.8,2.385V-3.1A3.777,3.777,0,0,1,14.5-1.438,2.692,2.692,0,0,1,13.491-.293a2.807,2.807,0,0,1-1.515.41,2.667,2.667,0,0,1-2.089-.9,3.432,3.432,0,0,1-.8-2.373Zm1.09.129a2.712,2.712,0,0,0,.489,1.693,1.566,1.566,0,0,0,1.31.639,1.556,1.556,0,0,0,1.313-.647,2.966,2.966,0,0,0,.486-1.813,2.708,2.708,0,0,0-.5-1.69,1.574,1.574,0,0,0-1.315-.647,1.557,1.557,0,0,0-1.295.639A2.944,2.944,0,0,0,10.178-3.1Zm7.061-3.24.029.7a2.341,2.341,0,0,1,1.881-.82,1.813,1.813,0,0,1,1.811,1.02,2.4,2.4,0,0,1,.823-.738,2.431,2.431,0,0,1,1.2-.281q2.086,0,2.121,2.209V0H24.018V-4.184A1.456,1.456,0,0,0,23.707-5.2a1.368,1.368,0,0,0-1.043-.337,1.437,1.437,0,0,0-1,.36,1.462,1.462,0,0,0-.463.97V0h-1.09V-4.154a1.209,1.209,0,0,0-1.354-1.383,1.45,1.45,0,0,0-1.459.908V0H16.213V-6.34ZM32.1-3.1a3.77,3.77,0,0,1-.668,2.335,2.134,2.134,0,0,1-1.793.882,2.21,2.21,0,0,1-1.857-.85L27.732,0h-1V-9H27.82v3.357a2.2,2.2,0,0,1,1.811-.814,2.147,2.147,0,0,1,1.813.873A3.883,3.883,0,0,1,32.1-3.193ZM31.02-3.223a2.929,2.929,0,0,0-.428-1.711,1.416,1.416,0,0,0-1.23-.6,1.591,1.591,0,0,0-1.541,1V-1.8a1.636,1.636,0,0,0,1.553,1,1.408,1.408,0,0,0,1.213-.6A3.115,3.115,0,0,0,31.02-3.223Zm5.514-2.145A3.248,3.248,0,0,0,36-5.408a1.428,1.428,0,0,0-1.447.908V0H33.469V-6.34h1.055l.018.732a1.688,1.688,0,0,1,1.512-.85,1.107,1.107,0,0,1,.48.082ZM40.049.117a2.77,2.77,0,0,1-2.1-.847,3.142,3.142,0,0,1-.809-2.265v-.2a3.8,3.8,0,0,1,.36-1.685,2.811,2.811,0,0,1,1.008-1.16,2.534,2.534,0,0,1,1.4-.419,2.374,2.374,0,0,1,1.922.814,3.526,3.526,0,0,1,.686,2.332v.451H38.227a2.254,2.254,0,0,0,.548,1.515,1.722,1.722,0,0,0,1.333.577A1.888,1.888,0,0,0,41.08-1a2.444,2.444,0,0,0,.7-.621l.662.516A2.662,2.662,0,0,1,40.049.117Zm-.135-5.684a1.446,1.446,0,0,0-1.1.478,2.321,2.321,0,0,0-.551,1.339h3.176v-.082a2.065,2.065,0,0,0-.445-1.28A1.361,1.361,0,0,0,39.914-5.566Z" transform="translate(-9868 -6609)" fill="#717171"/>
    <g id="Trazado_601653" data-name="Trazado 601653" transform="translate(-9877 -6536)" fill="#fff">
      <path d="M 154 64.5 L 6 64.5 C 2.96727991104126 64.5 0.5 62.03271865844727 0.5 59 L 0.5 6 C 0.5 2.96727991104126 2.96727991104126 0.5 6 0.5 L 154 0.5 C 157.03271484375 0.5 159.5 2.96727991104126 159.5 6 L 159.5 59 C 159.5 62.03271865844727 157.03271484375 64.5 154 64.5 Z" stroke="none"/>
      <path d="M 6 1 C 3.242996215820312 1 1 3.243000030517578 1 6 L 1 59 C 1 61.75699996948242 3.242996215820312 64 6 64 L 154 64 C 156.7570037841797 64 159 61.75699996948242 159 59 L 159 6 C 159 3.243000030517578 156.7570037841797 1 154 1 L 6 1 M 6 0 L 154 0 C 157.3137054443359 0 160 2.686290740966797 160 6 L 160 59 C 160 62.3137092590332 157.3137054443359 65 154 65 L 6 65 C 2.686294555664062 65 0 62.3137092590332 0 59 L 0 6 C 0 2.686290740966797 2.686294555664062 0 6 0 Z" stroke="none" fill="#26aab7"/>
    </g>
    <path id="Trazado_601654" data-name="Trazado 601654" d="M2.443-8.531,5.232-1.57,8.021-8.531H9.48V0H8.355V-3.322l.105-3.586L5.66,0H4.8L2-6.891l.111,3.568V0H.99V-8.531ZM13.928.117a2.77,2.77,0,0,1-2.1-.847,3.142,3.142,0,0,1-.809-2.265v-.2a3.8,3.8,0,0,1,.36-1.685,2.811,2.811,0,0,1,1.008-1.16,2.534,2.534,0,0,1,1.4-.419,2.374,2.374,0,0,1,1.922.814A3.526,3.526,0,0,1,16.4-3.311v.451H12.105a2.254,2.254,0,0,0,.548,1.515,1.722,1.722,0,0,0,1.333.577A1.888,1.888,0,0,0,14.959-1a2.444,2.444,0,0,0,.7-.621l.662.516A2.662,2.662,0,0,1,13.928.117Zm-.135-5.684a1.446,1.446,0,0,0-1.1.478,2.321,2.321,0,0,0-.551,1.339h3.176v-.082a2.065,2.065,0,0,0-.445-1.28A1.361,1.361,0,0,0,13.793-5.566ZM18.68-6.34l.035.8a2.31,2.31,0,0,1,1.9-.914q2.01,0,2.027,2.268V0H21.557V-4.2a1.459,1.459,0,0,0-.313-1.014,1.256,1.256,0,0,0-.958-.328,1.564,1.564,0,0,0-.926.281,1.91,1.91,0,0,0-.621.738V0H17.654V-6.34Zm9.287,4.658a.8.8,0,0,0-.331-.683,3.187,3.187,0,0,0-1.154-.419,5.457,5.457,0,0,1-1.307-.422,1.859,1.859,0,0,1-.715-.586,1.4,1.4,0,0,1-.231-.809,1.645,1.645,0,0,1,.659-1.318,2.574,2.574,0,0,1,1.685-.539,2.649,2.649,0,0,1,1.749.557,1.768,1.768,0,0,1,.671,1.424H27.9a.979.979,0,0,0-.378-.768,1.416,1.416,0,0,0-.952-.322,1.482,1.482,0,0,0-.926.258.812.812,0,0,0-.334.674.658.658,0,0,0,.311.592,3.821,3.821,0,0,0,1.122.381,5.847,5.847,0,0,1,1.315.434,1.919,1.919,0,0,1,.747.606,1.491,1.491,0,0,1,.243.864A1.623,1.623,0,0,1,28.371-.4a2.851,2.851,0,0,1-1.764.513,3.193,3.193,0,0,1-1.348-.27,2.192,2.192,0,0,1-.917-.753,1.815,1.815,0,0,1-.331-1.046H25.1a1.122,1.122,0,0,0,.437.864,1.693,1.693,0,0,0,1.075.319,1.748,1.748,0,0,0,.987-.249A.765.765,0,0,0,27.967-1.682ZM34.377,0a2.277,2.277,0,0,1-.152-.668,2.419,2.419,0,0,1-1.8.785,2.238,2.238,0,0,1-1.538-.53,1.716,1.716,0,0,1-.6-1.345A1.792,1.792,0,0,1,31.034-3.3a3.55,3.55,0,0,1,2.118-.548h1.055v-.5a1.217,1.217,0,0,0-.34-.905,1.366,1.366,0,0,0-1-.337,1.581,1.581,0,0,0-.973.293.863.863,0,0,0-.393.709H30.41a1.5,1.5,0,0,1,.337-.917,2.3,2.3,0,0,1,.914-.7,3.075,3.075,0,0,1,1.269-.258,2.506,2.506,0,0,1,1.717.548A1.976,1.976,0,0,1,35.291-4.4v2.918a3.567,3.567,0,0,0,.223,1.389V0Zm-1.8-.826a1.905,1.905,0,0,0,.967-.264,1.6,1.6,0,0,0,.662-.686v-1.3h-.85q-1.992,0-1.992,1.166a.987.987,0,0,0,.34.8A1.306,1.306,0,0,0,32.578-.826ZM38.109-6.34V.732q0,1.828-1.658,1.828a2.011,2.011,0,0,1-.662-.105V1.588a2.1,2.1,0,0,0,.492.047.737.737,0,0,0,.554-.2.97.97,0,0,0,.19-.683v-7.1Zm-1.2-1.682a.65.65,0,0,1,.161-.442.592.592,0,0,1,.472-.185.614.614,0,0,1,.48.182.64.64,0,0,1,.164.445.619.619,0,0,1-.164.439.626.626,0,0,1-.48.176.606.606,0,0,1-.475-.176A.632.632,0,0,1,36.914-8.021ZM42.486.117a2.77,2.77,0,0,1-2.1-.847,3.142,3.142,0,0,1-.809-2.265v-.2a3.8,3.8,0,0,1,.36-1.685,2.811,2.811,0,0,1,1.008-1.16,2.534,2.534,0,0,1,1.4-.419,2.374,2.374,0,0,1,1.922.814,3.526,3.526,0,0,1,.686,2.332v.451H40.664a2.254,2.254,0,0,0,.548,1.515,1.722,1.722,0,0,0,1.333.577A1.888,1.888,0,0,0,43.518-1a2.444,2.444,0,0,0,.7-.621l.662.516A2.662,2.662,0,0,1,42.486.117Zm-.135-5.684a1.446,1.446,0,0,0-1.1.478A2.321,2.321,0,0,0,40.7-3.75h3.176v-.082a2.065,2.065,0,0,0-.445-1.28A1.361,1.361,0,0,0,42.352-5.566Z" transform="translate(-9868 -6519)" fill="#717171"/>
    <g id="Trazado_601649" data-name="Trazado 601649" transform="translate(-9877 -6597)" fill="#fff">
      <path d="M 156 24.5 L 4 24.5 C 2.070100069046021 24.5 0.5 22.92989921569824 0.5 21 L 0.5 4 C 0.5 2.070100069046021 2.070100069046021 0.5 4 0.5 L 156 0.5 C 157.9299011230469 0.5 159.5 2.070100069046021 159.5 4 L 159.5 21 C 159.5 22.92989921569824 157.9299011230469 24.5 156 24.5 Z" stroke="none"/>
      <path d="M 4 1 C 2.345794677734375 1 1 2.345790863037109 1 4 L 1 21 C 1 22.65420913696289 2.345794677734375 24 4 24 L 156 24 C 157.6542053222656 24 159 22.65420913696289 159 21 L 159 4 C 159 2.345790863037109 157.6542053222656 1 156 1 L 4 1 M 4 0 L 156 0 C 158.2091217041016 0 160 1.790853500366211 160 4 L 160 21 C 160 23.20914649963379 158.2091217041016 25 156 25 L 4 25 C 1.790847778320312 25 0 23.20914649963379 0 21 L 0 4 C 0 1.790853500366211 1.790847778320312 0 4 0 Z" stroke="none" fill="#26aab7"/>
    </g>
    <path id="Trazado_601650" data-name="Trazado 601650" d="M2.443-8.531,5.232-1.57,8.021-8.531H9.48V0H8.355V-3.322l.105-3.586L5.66,0H4.8L2-6.891l.111,3.568V0H.99V-8.531ZM15.211,0a2.277,2.277,0,0,1-.152-.668,2.419,2.419,0,0,1-1.8.785,2.238,2.238,0,0,1-1.538-.53,1.716,1.716,0,0,1-.6-1.345A1.792,1.792,0,0,1,11.868-3.3a3.55,3.55,0,0,1,2.118-.548h1.055v-.5a1.217,1.217,0,0,0-.34-.905,1.366,1.366,0,0,0-1-.337,1.581,1.581,0,0,0-.973.293.863.863,0,0,0-.393.709h-1.09a1.5,1.5,0,0,1,.337-.917,2.3,2.3,0,0,1,.914-.7,3.075,3.075,0,0,1,1.269-.258,2.506,2.506,0,0,1,1.717.548A1.976,1.976,0,0,1,16.125-4.4v2.918a3.567,3.567,0,0,0,.223,1.389V0Zm-1.8-.826a1.905,1.905,0,0,0,.967-.264,1.6,1.6,0,0,0,.662-.686v-1.3h-.85Q12.2-3.076,12.2-1.91a.987.987,0,0,0,.34.8A1.306,1.306,0,0,0,13.412-.826ZM19,0H17.918V-6.34H19ZM17.83-8.021a.647.647,0,0,1,.161-.445.6.6,0,0,1,.478-.182.614.614,0,0,1,.48.182.64.64,0,0,1,.164.445.619.619,0,0,1-.164.439.626.626,0,0,1-.48.176.616.616,0,0,1-.478-.176A.626.626,0,0,1,17.83-8.021ZM21.914,0H20.83V-9h1.084Z" transform="translate(-9868 -6579)" fill="#717171"/>
    <g id="Trazado_601651" data-name="Trazado 601651" transform="translate(-9877 -6567)" fill="#fff">
      <path d="M 156 24.5 L 4 24.5 C 2.070100069046021 24.5 0.5 22.92989921569824 0.5 21 L 0.5 4 C 0.5 2.070100069046021 2.070100069046021 0.5 4 0.5 L 156 0.5 C 157.9299011230469 0.5 159.5 2.070100069046021 159.5 4 L 159.5 21 C 159.5 22.92989921569824 157.9299011230469 24.5 156 24.5 Z" stroke="none"/>
      <path d="M 4 1 C 2.345794677734375 1 1 2.345790863037109 1 4 L 1 21 C 1 22.65420913696289 2.345794677734375 24 4 24 L 156 24 C 157.6542053222656 24 159 22.65420913696289 159 21 L 159 4 C 159 2.345790863037109 157.6542053222656 1 156 1 L 4 1 M 4 0 L 156 0 C 158.2091217041016 0 160 1.790853500366211 160 4 L 160 21 C 160 23.20914649963379 158.2091217041016 25 156 25 L 4 25 C 1.790847778320312 25 0 23.20914649963379 0 21 L 0 4 C 0 1.790853500366211 1.790847778320312 0 4 0 Z" stroke="none" fill="#26aab7"/>
    </g>
    <path id="Trazado_601652" data-name="Trazado 601652" d="M7.553-3.99A5.277,5.277,0,0,1,7.131-1.8a3.2,3.2,0,0,1-1.2,1.427,3.289,3.289,0,0,1-1.8.492,3.261,3.261,0,0,1-1.787-.5A3.272,3.272,0,0,1,1.134-1.79,5.064,5.064,0,0,1,.691-3.914v-.615A5.215,5.215,0,0,1,1.119-6.7a3.26,3.26,0,0,1,1.21-1.444,3.247,3.247,0,0,1,1.79-.5,3.307,3.307,0,0,1,1.808.5,3.19,3.19,0,0,1,1.2,1.436,5.3,5.3,0,0,1,.422,2.188ZM6.434-4.541A3.825,3.825,0,0,0,5.824-6.87a2.01,2.01,0,0,0-1.705-.812A1.988,1.988,0,0,0,2.44-6.87a3.747,3.747,0,0,0-.63,2.253v.627a3.831,3.831,0,0,0,.618,2.312,2,2,0,0,0,1.7.841,1.989,1.989,0,0,0,1.688-.794,3.809,3.809,0,0,0,.615-2.276Zm8,1.441A3.77,3.77,0,0,1,13.77-.765a2.134,2.134,0,0,1-1.793.882,2.21,2.21,0,0,1-1.857-.85L10.066,0h-1V-9h1.084v3.357a2.2,2.2,0,0,1,1.811-.814,2.147,2.147,0,0,1,1.813.873,3.883,3.883,0,0,1,.659,2.391Zm-1.084-.123a2.929,2.929,0,0,0-.428-1.711,1.416,1.416,0,0,0-1.23-.6,1.591,1.591,0,0,0-1.541,1V-1.8a1.636,1.636,0,0,0,1.553,1,1.408,1.408,0,0,0,1.213-.6A3.115,3.115,0,0,0,13.354-3.223ZM16.922-6.34V.732q0,1.828-1.658,1.828a2.011,2.011,0,0,1-.662-.105V1.588a2.1,2.1,0,0,0,.492.047.737.737,0,0,0,.554-.2.97.97,0,0,0,.19-.683v-7.1Zm-1.2-1.682a.65.65,0,0,1,.161-.442.592.592,0,0,1,.472-.185.614.614,0,0,1,.48.182A.64.64,0,0,1,17-8.021a.619.619,0,0,1-.164.439.626.626,0,0,1-.48.176.606.606,0,0,1-.475-.176A.632.632,0,0,1,15.727-8.021ZM21.3.117a2.77,2.77,0,0,1-2.1-.847,3.142,3.142,0,0,1-.809-2.265v-.2a3.8,3.8,0,0,1,.36-1.685,2.811,2.811,0,0,1,1.008-1.16,2.534,2.534,0,0,1,1.4-.419,2.374,2.374,0,0,1,1.922.814,3.526,3.526,0,0,1,.686,2.332v.451H19.477a2.254,2.254,0,0,0,.548,1.515,1.722,1.722,0,0,0,1.333.577A1.888,1.888,0,0,0,22.33-1a2.444,2.444,0,0,0,.7-.621l.662.516A2.662,2.662,0,0,1,21.3.117Zm-.135-5.684a1.446,1.446,0,0,0-1.1.478,2.321,2.321,0,0,0-.551,1.339h3.176v-.082a2.065,2.065,0,0,0-.445-1.28A1.361,1.361,0,0,0,21.164-5.566ZM26.5-7.875V-6.34H27.68V-5.5H26.5V-1.57A.878.878,0,0,0,26.654-1a.666.666,0,0,0,.539.19,2.624,2.624,0,0,0,.516-.07V0a3.143,3.143,0,0,1-.832.117,1.35,1.35,0,0,1-1.1-.439,1.888,1.888,0,0,1-.369-1.248V-5.5H24.258V-6.34h1.154V-7.875Zm2.045,4.646A3.745,3.745,0,0,1,28.907-4.9a2.732,2.732,0,0,1,1.02-1.148,2.775,2.775,0,0,1,1.491-.4,2.674,2.674,0,0,1,2.095.9,3.449,3.449,0,0,1,.8,2.385V-3.1a3.777,3.777,0,0,1-.354,1.661A2.692,2.692,0,0,1,32.944-.293a2.807,2.807,0,0,1-1.515.41,2.667,2.667,0,0,1-2.089-.9,3.432,3.432,0,0,1-.8-2.373Zm1.09.129a2.712,2.712,0,0,0,.489,1.693,1.566,1.566,0,0,0,1.31.639,1.556,1.556,0,0,0,1.313-.647,2.966,2.966,0,0,0,.486-1.813,2.708,2.708,0,0,0-.5-1.69,1.574,1.574,0,0,0-1.315-.647,1.557,1.557,0,0,0-1.295.639A2.944,2.944,0,0,0,29.631-3.1Z" transform="translate(-9868 -6550)" fill="#717171"/>
    <g id="Trazado_601655" data-name="Trazado 601655" transform="translate(-9781 -6465)" fill="#26aab7">
      <path d="M 58 21.5 L 6 21.5 C 2.967289924621582 21.5 0.5 19.0327091217041 0.5 16 L 0.5 6 C 0.5 2.967289924621582 2.967289924621582 0.5 6 0.5 L 58 0.5 C 61.03271102905273 0.5 63.5 2.967289924621582 63.5 6 L 63.5 16 C 63.5 19.0327091217041 61.03271102905273 21.5 58 21.5 Z" stroke="none"/>
      <path d="M 6 1 C 3.242988586425781 1 1 3.242990493774414 1 6 L 1 16 C 1 18.75700950622559 3.242988586425781 21 6 21 L 58 21 C 60.75701141357422 21 63 18.75700950622559 63 16 L 63 6 C 63 3.242990493774414 60.75701141357422 1 58 1 L 6 1 M 6 0 L 58 0 C 61.3137092590332 0 64 2.686290740966797 64 6 L 64 16 C 64 19.3137092590332 61.3137092590332 22 58 22 L 6 22 C 2.686290740966797 22 0 19.3137092590332 0 16 L 0 6 C 0 2.686290740966797 2.686290740966797 0 6 0 Z" stroke="none" fill="#26aab7"/>
    </g>
    <path id="Trazado_601656" data-name="Trazado 601656" d="M3.5-3.8A5.29,5.29,0,0,1,1.4-4.825a1.954,1.954,0,0,1-.659-1.5,2.064,2.064,0,0,1,.806-1.667,3.2,3.2,0,0,1,2.095-.659,3.5,3.5,0,0,1,1.567.34,2.577,2.577,0,0,1,1.066.938A2.4,2.4,0,0,1,6.65-6.064H5.52A1.552,1.552,0,0,0,5.027-7.28a2.006,2.006,0,0,0-1.389-.442,2.052,2.052,0,0,0-1.3.366A1.221,1.221,0,0,0,1.875-6.34a1.1,1.1,0,0,0,.442.882A4.343,4.343,0,0,0,3.823-4.8a6.973,6.973,0,0,1,1.664.659,2.525,2.525,0,0,1,.891.841,2.146,2.146,0,0,1,.29,1.131A1.993,1.993,0,0,1,5.859-.507,3.448,3.448,0,0,1,3.7.117,4.01,4.01,0,0,1,2.057-.22,2.761,2.761,0,0,1,.882-1.143a2.252,2.252,0,0,1-.413-1.33H1.6a1.469,1.469,0,0,0,.571,1.222A2.4,2.4,0,0,0,3.7-.8a2.211,2.211,0,0,0,1.365-.363,1.18,1.18,0,0,0,.475-.99,1.158,1.158,0,0,0-.439-.97A5.066,5.066,0,0,0,3.5-3.8ZM10.57.117a2.77,2.77,0,0,1-2.1-.847,3.142,3.142,0,0,1-.809-2.265v-.2a3.8,3.8,0,0,1,.36-1.685,2.811,2.811,0,0,1,1.008-1.16,2.534,2.534,0,0,1,1.4-.419,2.374,2.374,0,0,1,1.922.814,3.526,3.526,0,0,1,.686,2.332v.451H8.748A2.254,2.254,0,0,0,9.3-1.345a1.722,1.722,0,0,0,1.333.577A1.888,1.888,0,0,0,11.6-1a2.444,2.444,0,0,0,.7-.621l.662.516A2.662,2.662,0,0,1,10.57.117Zm-.135-5.684a1.446,1.446,0,0,0-1.1.478A2.321,2.321,0,0,0,8.783-3.75h3.176v-.082a2.065,2.065,0,0,0-.445-1.28A1.361,1.361,0,0,0,10.436-5.566Zm4.887-.773.035.8a2.31,2.31,0,0,1,1.9-.914q2.01,0,2.027,2.268V0H18.2V-4.2a1.459,1.459,0,0,0-.313-1.014,1.256,1.256,0,0,0-.958-.328A1.564,1.564,0,0,0,16-5.256a1.91,1.91,0,0,0-.621.738V0H14.3V-6.34Zm5.332,3.117a3.714,3.714,0,0,1,.691-2.347,2.186,2.186,0,0,1,1.811-.888A2.2,2.2,0,0,1,24.92-5.7V-9H26V0h-1l-.053-.68a2.208,2.208,0,0,1-1.811.8,2.165,2.165,0,0,1-1.8-.9,3.756,3.756,0,0,1-.694-2.355Zm1.084.123a2.812,2.812,0,0,0,.445,1.688,1.44,1.44,0,0,0,1.23.609,1.581,1.581,0,0,0,1.506-.926V-4.641a1.593,1.593,0,0,0-1.494-.9,1.446,1.446,0,0,0-1.242.615A3.1,3.1,0,0,0,21.738-3.1Z" transform="translate(-9762 -6450)" fill="#fff"/>
    <path id="Trazado_601658" data-name="Trazado 601658" d="M0,0H188V29H0Z" transform="translate(-9668 -6631)" fill="#e2e2e2"/>
    <path id="Trazado_601659" data-name="Trazado 601659" d="M0,0H188V7H0Z" transform="translate(-9668 -6590)" fill="#e2e2e2"/>
    <path id="Trazado_601660" data-name="Trazado 601660" d="M0,0H188V7H0Z" transform="translate(-9668 -6576)" fill="#e2e2e2"/>
    <path id="Trazado_601661" data-name="Trazado 601661" d="M0,0H188V7H0Z" transform="translate(-9668 -6562)" fill="#e2e2e2"/>
    <path id="Trazado_601662" data-name="Trazado 601662" d="M0,0H188V7H0Z" transform="translate(-9668 -6548)" fill="#e2e2e2"/>
    <path id="Trazado_601663" data-name="Trazado 601663" d="M0,0H126V71H0Z" transform="translate(-9668 -6529)" fill="#e2e2e2"/>
  </g>
</svg>
