<svg xmlns="http://www.w3.org/2000/svg" width="505" height="312" viewBox="0 0 505 312">
  <g id="Grupo_890239" data-name="Grupo 890239" transform="translate(9824 5123.318)">
    <g id="Grupo_887838" data-name="Grupo 887838" transform="translate(109 79)">
      <path id="Trazado_601935" data-name="Trazado 601935" d="M13,0H492a13,13,0,0,1,13,13V299a13,13,0,0,1-13,13H13A13,13,0,0,1,0,299V13A13,13,0,0,1,13,0Z" transform="translate(-9933 -5202.318)" fill="#fff"/>
      <path id="Trazado_601942" data-name="Trazado 601942" d="M0,0H315V52H0Z" transform="translate(-9831 -5113)" fill="#187f89"/>
      <path id="Trazado_601943" data-name="Trazado 601943" d="M1.28-10.34V0h1.7V-6.44a2.468,2.468,0,0,1,.15-.75,2.887,2.887,0,0,1,.48-.87,2.878,2.878,0,0,1,.86-.72,2.539,2.539,0,0,1,1.27-.3,2.286,2.286,0,0,1,.95.17,1.448,1.448,0,0,1,.59.48,1.952,1.952,0,0,1,.31.73,4.394,4.394,0,0,1,.09.92V0h1.7V-6.44a2.6,2.6,0,0,1,.72-1.92,2.676,2.676,0,0,1,1.98-.72,2.425,2.425,0,0,1,1.01.18,1.5,1.5,0,0,1,.61.49,1.838,1.838,0,0,1,.3.73,4.809,4.809,0,0,1,.08.9V0h1.7V-7.58a3.4,3.4,0,0,0-.25-1.37,2.4,2.4,0,0,0-.7-.93,2.924,2.924,0,0,0-1.08-.53,5.413,5.413,0,0,0-1.41-.17,3.865,3.865,0,0,0-1.87.46A3.61,3.61,0,0,0,9.1-8.82,2.24,2.24,0,0,0,8-10.18a3.757,3.757,0,0,0-1.74-.4A3.76,3.76,0,0,0,2.92-8.82H2.88v-1.52ZM25.52-6.16H19.58a3.541,3.541,0,0,1,.26-1.13,3.014,3.014,0,0,1,.6-.93,2.748,2.748,0,0,1,.91-.63,2.96,2.96,0,0,1,1.19-.23,2.908,2.908,0,0,1,1.17.23,2.944,2.944,0,0,1,.92.62,2.914,2.914,0,0,1,.62.93A3.478,3.478,0,0,1,25.52-6.16Zm1.64,2.88H25.48a2.417,2.417,0,0,1-.91,1.52,2.942,2.942,0,0,1-1.77.5,3.521,3.521,0,0,1-1.46-.28,2.862,2.862,0,0,1-1.02-.75,2.922,2.922,0,0,1-.58-1.08,4.1,4.1,0,0,1-.16-1.29h7.74a8.232,8.232,0,0,0-.17-1.98,5.732,5.732,0,0,0-.76-1.92,4.529,4.529,0,0,0-1.46-1.45,4.242,4.242,0,0,0-2.29-.57,4.7,4.7,0,0,0-1.95.4,4.583,4.583,0,0,0-1.54,1.12,5.162,5.162,0,0,0-1.01,1.7,6.222,6.222,0,0,0-.36,2.16,8.288,8.288,0,0,0,.35,2.18,4.758,4.758,0,0,0,.93,1.72A4.239,4.239,0,0,0,20.59-.18a5.311,5.311,0,0,0,2.15.4,4.694,4.694,0,0,0,2.92-.88A4.132,4.132,0,0,0,27.16-3.28Zm4.28-7.06v-3.1h-1.7v3.1H27.98v1.5h1.76v6.58a3.929,3.929,0,0,0,.14,1.16,1.41,1.41,0,0,0,.43.68,1.66,1.66,0,0,0,.76.33A6.1,6.1,0,0,0,32.2,0h1.3V-1.5h-.78a5.67,5.67,0,0,1-.65-.03.84.84,0,0,1-.39-.13.494.494,0,0,1-.19-.28,1.855,1.855,0,0,1-.05-.48V-8.84H33.5v-1.5Zm3.94-3.94V0h1.7V-5.84a4.189,4.189,0,0,1,.19-1.29,2.93,2.93,0,0,1,.57-1.03,2.531,2.531,0,0,1,.95-.68,3.465,3.465,0,0,1,1.35-.24,2.081,2.081,0,0,1,1.54.56A2.054,2.054,0,0,1,42.24-7V0h1.7V-6.8a6.4,6.4,0,0,0-.17-1.53,2.9,2.9,0,0,0-.59-1.19,2.8,2.8,0,0,0-1.1-.78,4.487,4.487,0,0,0-1.7-.28,4.747,4.747,0,0,0-.95.1,4.2,4.2,0,0,0-.94.31,3.182,3.182,0,0,0-.81.54,2.262,2.262,0,0,0-.56.81h-.04v-5.46ZM47.74-5.16a5.144,5.144,0,0,1,.25-1.67,3.6,3.6,0,0,1,.69-1.23,2.938,2.938,0,0,1,1.03-.76,3.066,3.066,0,0,1,1.25-.26,3.066,3.066,0,0,1,1.25.26,2.938,2.938,0,0,1,1.03.76,3.6,3.6,0,0,1,.69,1.23,5.144,5.144,0,0,1,.25,1.67,5.144,5.144,0,0,1-.25,1.67,3.494,3.494,0,0,1-.69,1.22,2.994,2.994,0,0,1-1.03.75,3.066,3.066,0,0,1-1.25.26,3.066,3.066,0,0,1-1.25-.26,2.994,2.994,0,0,1-1.03-.75,3.494,3.494,0,0,1-.69-1.22A5.144,5.144,0,0,1,47.74-5.16Zm-1.8,0a6.792,6.792,0,0,0,.32,2.12,4.839,4.839,0,0,0,.96,1.71A4.416,4.416,0,0,0,48.8-.19a5.358,5.358,0,0,0,2.16.41,5.34,5.34,0,0,0,2.17-.41A4.437,4.437,0,0,0,54.7-1.33a4.839,4.839,0,0,0,.96-1.71,6.792,6.792,0,0,0,.32-2.12,6.887,6.887,0,0,0-.32-2.13,4.826,4.826,0,0,0-.96-1.72,4.545,4.545,0,0,0-1.57-1.15,5.229,5.229,0,0,0-2.17-.42,5.247,5.247,0,0,0-2.16.42,4.522,4.522,0,0,0-1.58,1.15,4.826,4.826,0,0,0-.96,1.72A6.887,6.887,0,0,0,45.94-5.16Zm13.28.08a6.8,6.8,0,0,1,.16-1.48,3.915,3.915,0,0,1,.52-1.28,2.707,2.707,0,0,1,.96-.9,2.919,2.919,0,0,1,1.46-.34,3.155,3.155,0,0,1,1.5.33,2.911,2.911,0,0,1,1.01.87,3.638,3.638,0,0,1,.57,1.25,5.959,5.959,0,0,1,.18,1.47,6,6,0,0,1-.17,1.42,3.721,3.721,0,0,1-.55,1.25,2.926,2.926,0,0,1-.98.89,2.919,2.919,0,0,1-1.46.34,3.036,3.036,0,0,1-1.43-.32,2.842,2.842,0,0,1-1-.86,3.805,3.805,0,0,1-.58-1.23A5.287,5.287,0,0,1,59.22-5.08Zm8,5.08V-14.28h-1.7v5.32h-.04a2.739,2.739,0,0,0-.69-.77,3.92,3.92,0,0,0-.87-.5A4.367,4.367,0,0,0,63-10.5a5.036,5.036,0,0,0-.86-.08,4.706,4.706,0,0,0-2.07.43,4.25,4.25,0,0,0-1.48,1.16,4.9,4.9,0,0,0-.88,1.71,7.3,7.3,0,0,0-.29,2.08,7.068,7.068,0,0,0,.3,2.08,5.142,5.142,0,0,0,.89,1.72A4.3,4.3,0,0,0,60.09-.22a4.664,4.664,0,0,0,2.09.44,5.04,5.04,0,0,0,1.98-.38A2.5,2.5,0,0,0,65.48-1.4h.04V0Zm7.86-3.72v1.36H85.16V-3.72ZM85.16-6.4V-7.76H75.08V-6.4Zm2.28-7.88v2.22h1.18a4.875,4.875,0,0,1-.05.69,2.047,2.047,0,0,1-.19.63,1.281,1.281,0,0,1-.36.45.889.889,0,0,1-.56.17v1a1.927,1.927,0,0,0,.99-.24,2.079,2.079,0,0,0,.68-.64,2.867,2.867,0,0,0,.4-.93,4.731,4.731,0,0,0,.13-1.13v-2.22Zm3.66,0v2.22h1.18a4.875,4.875,0,0,1-.05.69,2.047,2.047,0,0,1-.19.63,1.281,1.281,0,0,1-.36.45.889.889,0,0,1-.56.17v1a1.927,1.927,0,0,0,.99-.24,2.079,2.079,0,0,0,.68-.64,2.867,2.867,0,0,0,.4-.93,4.731,4.731,0,0,0,.13-1.13v-2.22Zm7,6.84v-5.24h3.72a3.494,3.494,0,0,1,2.37.67,2.479,2.479,0,0,1,.75,1.95,2.511,2.511,0,0,1-.75,1.96,3.393,3.393,0,0,1-2.37.66Zm-1.9-6.84V0h1.9V-5.84h4.36a4.35,4.35,0,0,0,3.27-1.1,4.239,4.239,0,0,0,1.11-3.12,4.2,4.2,0,0,0-1.11-3.11,4.434,4.434,0,0,0-3.27-1.11Zm13.92,9.12a5.144,5.144,0,0,1,.25-1.67,3.6,3.6,0,0,1,.69-1.23,2.938,2.938,0,0,1,1.03-.76,3.066,3.066,0,0,1,1.25-.26,3.066,3.066,0,0,1,1.25.26,2.938,2.938,0,0,1,1.03.76,3.6,3.6,0,0,1,.69,1.23,5.144,5.144,0,0,1,.25,1.67,5.144,5.144,0,0,1-.25,1.67,3.494,3.494,0,0,1-.69,1.22,2.994,2.994,0,0,1-1.03.75,3.066,3.066,0,0,1-1.25.26,3.066,3.066,0,0,1-1.25-.26,2.994,2.994,0,0,1-1.03-.75,3.494,3.494,0,0,1-.69-1.22A5.144,5.144,0,0,1,110.12-5.16Zm-1.8,0a6.792,6.792,0,0,0,.32,2.12,4.839,4.839,0,0,0,.96,1.71,4.416,4.416,0,0,0,1.58,1.14,5.358,5.358,0,0,0,2.16.41,5.34,5.34,0,0,0,2.17-.41,4.437,4.437,0,0,0,1.57-1.14,4.839,4.839,0,0,0,.96-1.71,6.792,6.792,0,0,0,.32-2.12,6.887,6.887,0,0,0-.32-2.13,4.826,4.826,0,0,0-.96-1.72,4.545,4.545,0,0,0-1.57-1.15,5.229,5.229,0,0,0-2.17-.42,5.247,5.247,0,0,0-2.16.42,4.522,4.522,0,0,0-1.58,1.15,4.826,4.826,0,0,0-.96,1.72A6.887,6.887,0,0,0,108.32-5.16Zm13.08,1.9h-1.7a3.741,3.741,0,0,0,.4,1.63,3.009,3.009,0,0,0,.96,1.08,4.023,4.023,0,0,0,1.38.59,7.274,7.274,0,0,0,1.64.18,8.4,8.4,0,0,0,1.57-.15,4.264,4.264,0,0,0,1.42-.53,3.048,3.048,0,0,0,1.02-1,2.88,2.88,0,0,0,.39-1.56,2.438,2.438,0,0,0-.29-1.24,2.589,2.589,0,0,0-.76-.83,4.076,4.076,0,0,0-1.08-.53,12.764,12.764,0,0,0-1.25-.34q-.6-.14-1.2-.27a6.923,6.923,0,0,1-1.08-.32,2.475,2.475,0,0,1-.79-.48.957.957,0,0,1-.31-.73,1.009,1.009,0,0,1,.2-.65,1.43,1.43,0,0,1,.52-.4,2.593,2.593,0,0,1,.71-.21,5.058,5.058,0,0,1,.77-.06,3.86,3.86,0,0,1,.83.09,2.544,2.544,0,0,1,.75.29,1.7,1.7,0,0,1,.56.53,1.721,1.721,0,0,1,.26.83h1.7a3.8,3.8,0,0,0-.4-1.57,2.691,2.691,0,0,0-.91-1,3.748,3.748,0,0,0-1.31-.52,8.164,8.164,0,0,0-1.62-.15,5.71,5.71,0,0,0-1.37.17,4.132,4.132,0,0,0-1.24.52,2.862,2.862,0,0,0-.9.91,2.477,2.477,0,0,0-.35,1.34,2.261,2.261,0,0,0,.5,1.56,3.375,3.375,0,0,0,1.25.87,8.457,8.457,0,0,0,1.63.48q.88.17,1.63.38a4.255,4.255,0,0,1,1.25.55,1.132,1.132,0,0,1,.5,1,1.253,1.253,0,0,1-.24.79,1.521,1.521,0,0,1-.61.47,3.08,3.08,0,0,1-.81.22,6.224,6.224,0,0,1-.84.06,5.039,5.039,0,0,1-1.01-.1,2.834,2.834,0,0,1-.88-.33,1.809,1.809,0,0,1-.63-.62A1.914,1.914,0,0,1,121.4-3.26Zm11.32-7.08v-3.1h-1.7v3.1h-1.76v1.5h1.76v6.58a3.929,3.929,0,0,0,.14,1.16,1.41,1.41,0,0,0,.43.68,1.66,1.66,0,0,0,.76.33,6.1,6.1,0,0,0,1.13.09h1.3V-1.5H134a5.67,5.67,0,0,1-.65-.03.84.84,0,0,1-.39-.13.494.494,0,0,1-.19-.28,1.855,1.855,0,0,1-.05-.48V-8.84h2.06v-1.5Zm3.98-3.94v2.22h1.18a4.874,4.874,0,0,1-.05.69,2.047,2.047,0,0,1-.19.63,1.281,1.281,0,0,1-.36.45.889.889,0,0,1-.56.17v1a1.927,1.927,0,0,0,.99-.24,2.079,2.079,0,0,0,.68-.64,2.867,2.867,0,0,0,.4-.93,4.732,4.732,0,0,0,.13-1.13v-2.22Zm3.66,0v2.22h1.18a4.874,4.874,0,0,1-.05.69,2.047,2.047,0,0,1-.19.63,1.281,1.281,0,0,1-.36.45.889.889,0,0,1-.56.17v1a1.927,1.927,0,0,0,.99-.24,2.079,2.079,0,0,0,.68-.64,2.867,2.867,0,0,0,.4-.93,4.732,4.732,0,0,0,.13-1.13v-2.22Z" transform="translate(-9742 -5081)" fill="#fff"/>
      <path id="Trazado_602012" data-name="Trazado 602012" d="M0,0H315V52H0Z" transform="translate(-9831 -5050)" fill="#187f89"/>
    </g>
    <path id="Trazado_602013" data-name="Trazado 602013" d="M2.913-10.038l.046,1.113a3.707,3.707,0,0,1,2.978-1.3A2.87,2.87,0,0,1,8.8-8.609a3.8,3.8,0,0,1,1.3-1.169,3.85,3.85,0,0,1,1.9-.445q3.3,0,3.358,3.5V0H13.647V-6.624a2.3,2.3,0,0,0-.492-1.61A2.165,2.165,0,0,0,11.5-8.767,2.276,2.276,0,0,0,9.917-8.2a2.315,2.315,0,0,0-.733,1.535V0H7.459V-6.578A1.915,1.915,0,0,0,5.316-8.767a2.3,2.3,0,0,0-2.31,1.438V0H1.29V-10.038ZM22.117.186A4.386,4.386,0,0,1,18.8-1.155a4.976,4.976,0,0,1-1.28-3.586v-.315a6.024,6.024,0,0,1,.571-2.667,4.451,4.451,0,0,1,1.6-1.837,4.012,4.012,0,0,1,2.222-.663,3.759,3.759,0,0,1,3.043,1.29,5.583,5.583,0,0,1,1.085,3.692v.714h-6.8a3.568,3.568,0,0,0,.867,2.4,2.727,2.727,0,0,0,2.111.914,2.989,2.989,0,0,0,1.54-.371,3.87,3.87,0,0,0,1.1-.983l1.048.816A4.215,4.215,0,0,1,22.117.186Zm-.213-9a2.289,2.289,0,0,0-1.744.756,3.675,3.675,0,0,0-.872,2.12h5.028v-.13a3.269,3.269,0,0,0-.705-2.027A2.155,2.155,0,0,0,21.9-8.813Zm8.442-3.655v2.431H32.22v1.327H30.346v6.225a1.39,1.39,0,0,0,.25.9,1.055,1.055,0,0,0,.854.3,4.155,4.155,0,0,0,.816-.111V0a4.976,4.976,0,0,1-1.317.186,2.137,2.137,0,0,1-1.735-.7,2.989,2.989,0,0,1-.584-1.976V-8.711H26.8v-1.327H28.63v-2.431ZM35.94-8.823a3.649,3.649,0,0,1,2.969-1.4q3.182,0,3.21,3.59V0H40.4V-6.643a2.311,2.311,0,0,0-.5-1.6,1.989,1.989,0,0,0-1.517-.52,2.477,2.477,0,0,0-1.466.445,3.024,3.024,0,0,0-.983,1.169V0H34.224V-14.25H35.94Zm8.294,3.711a5.929,5.929,0,0,1,.58-2.653,4.325,4.325,0,0,1,1.614-1.818,4.394,4.394,0,0,1,2.361-.64A4.233,4.233,0,0,1,52.106-8.8a5.461,5.461,0,0,1,1.266,3.776v.121a5.981,5.981,0,0,1-.561,2.63,4.262,4.262,0,0,1-1.6,1.814,4.445,4.445,0,0,1-2.4.649A4.223,4.223,0,0,1,45.5-1.234a5.433,5.433,0,0,1-1.266-3.757Zm1.726.2a4.294,4.294,0,0,0,.775,2.681,2.479,2.479,0,0,0,2.073,1.011A2.464,2.464,0,0,0,50.886-2.24a4.7,4.7,0,0,0,.77-2.871,4.287,4.287,0,0,0-.784-2.677A2.492,2.492,0,0,0,48.79-8.813,2.465,2.465,0,0,0,46.739-7.8,4.661,4.661,0,0,0,45.96-4.908ZM55.107-5.1A5.88,5.88,0,0,1,56.2-8.818a3.462,3.462,0,0,1,2.867-1.406,3.481,3.481,0,0,1,2.792,1.206V-14.25h1.716V0H62l-.083-1.076A3.5,3.5,0,0,1,59.05.186a3.429,3.429,0,0,1-2.844-1.429,5.947,5.947,0,0,1-1.1-3.729Zm1.716.195a4.452,4.452,0,0,0,.705,2.672,2.279,2.279,0,0,0,1.948.965,2.5,2.5,0,0,0,2.384-1.466V-7.348A2.523,2.523,0,0,0,59.5-8.767a2.29,2.29,0,0,0-1.967.974A4.9,4.9,0,0,0,56.824-4.908ZM78.792-7.552H71.055V-9.045h7.737Zm0,3.85H71.055V-5.186h7.737Zm2.811-6-.974-.668a4.466,4.466,0,0,0,.891-2.542V-14.25h1.7v1.206a4.291,4.291,0,0,1-.459,1.851A4.27,4.27,0,0,1,81.6-9.7Zm2.848,0-.974-.668a4.466,4.466,0,0,0,.891-2.542V-14.25h1.7v1.206a4.291,4.291,0,0,1-.459,1.851A4.27,4.27,0,0,1,84.452-9.7ZM98.4-1.772A4.115,4.115,0,0,1,96.48-.3a7.738,7.738,0,0,1-2.862.487,5.55,5.55,0,0,1-2.932-.775,5.161,5.161,0,0,1-1.981-2.2A7.61,7.61,0,0,1,87.986-6.1V-7.283a7.1,7.1,0,0,1,1.424-4.731,4.962,4.962,0,0,1,4-1.679,5.125,5.125,0,0,1,3.4,1.081A4.708,4.708,0,0,1,98.4-9.546H96.614a2.942,2.942,0,0,0-3.191-2.681,3.154,3.154,0,0,0-2.714,1.257,6.134,6.134,0,0,0-.932,3.641v1.1a5.749,5.749,0,0,0,1.039,3.614,3.369,3.369,0,0,0,2.811,1.341,6.2,6.2,0,0,0,1.753-.223,2.71,2.71,0,0,0,1.243-.751V-5.279H93.5V-6.726h4.9ZM105.261.186a4.386,4.386,0,0,1-3.321-1.341,4.976,4.976,0,0,1-1.28-3.586v-.315a6.024,6.024,0,0,1,.571-2.667,4.451,4.451,0,0,1,1.6-1.837,4.012,4.012,0,0,1,2.222-.663,3.759,3.759,0,0,1,3.043,1.29,5.583,5.583,0,0,1,1.085,3.692v.714h-6.8a3.568,3.568,0,0,0,.867,2.4,2.727,2.727,0,0,0,2.111.914,2.989,2.989,0,0,0,1.54-.371A3.87,3.87,0,0,0,108-2.57l1.048.816A4.215,4.215,0,0,1,105.261.186Zm-.213-9a2.289,2.289,0,0,0-1.744.756,3.675,3.675,0,0,0-.872,2.12h5.028v-.13a3.269,3.269,0,0,0-.705-2.027A2.155,2.155,0,0,0,105.047-8.813Zm8.442-3.655v2.431h1.874v1.327H113.49v6.225a1.39,1.39,0,0,0,.25.9,1.055,1.055,0,0,0,.854.3,4.155,4.155,0,0,0,.816-.111V0a4.976,4.976,0,0,1-1.317.186,2.137,2.137,0,0,1-1.735-.7,2.989,2.989,0,0,1-.584-1.976V-8.711h-1.828v-1.327h1.828v-2.431ZM117.6-9.7l-.974-.668a4.466,4.466,0,0,0,.891-2.542V-14.25h1.7v1.206a4.291,4.291,0,0,1-.459,1.851A4.27,4.27,0,0,1,117.6-9.7Zm2.848,0-.974-.668a4.466,4.466,0,0,0,.891-2.542V-14.25h1.7v1.206a4.291,4.291,0,0,1-.459,1.851A4.27,4.27,0,0,1,120.448-9.7Z" transform="translate(-9630 -4939.625)" fill="#fff"/>
  </g>
</svg>
