<svg xmlns="http://www.w3.org/2000/svg" xmlns:xlink="http://www.w3.org/1999/xlink" width="525" height="331" viewBox="0 0 525 331">
  <defs>
    <clipPath id="clip-path">
      <rect id="Rectángulo_298880" data-name="Rectángulo 298880" width="427" height="285" transform="translate(0)" fill="none"/>
    </clipPath>
    <clipPath id="clip-path-4">
      <rect id="Rectángulo_298873" data-name="Rectángulo 298873" width="149.412" height="113.07" fill="none"/>
    </clipPath>
    <clipPath id="clip-path-5">
      <rect id="Rectángulo_298874" data-name="Rectángulo 298874" width="77.091" height="29.368" fill="none"/>
    </clipPath>
  </defs>
  <g id="Grupo_890296" data-name="Grupo 890296" transform="translate(8304 1537.062)">
    <g id="Grupo_888481" data-name="Grupo 888481" transform="translate(0 1030.938)">
      <path id="Trazado_602599" data-name="Trazado 602599" d="M13,0H512a13,13,0,0,1,13,13V318a13,13,0,0,1-13,13H13A13,13,0,0,1,0,318V13A13,13,0,0,1,13,0Z" transform="translate(-8304 -2568)" fill="#1565c0"/>
    </g>
    <g id="Grupo_888495" data-name="Grupo 888495" transform="translate(-8261.359 -1513.968)">
      <g id="Grupo_888494" data-name="Grupo 888494" transform="translate(0.359 -0.094)" clip-path="url(#clip-path)">
        <rect id="Rectángulo_298870" data-name="Rectángulo 298870" width="427.451" height="271.751" transform="translate(-0.325 13.302)" fill="#fff"/>
        <rect id="Rectángulo_298871" data-name="Rectángulo 298871" width="427.451" height="13.217" transform="translate(-0.325 0.085)" fill="#d1d3d4"/>
        <g id="Grupo_888483" data-name="Grupo 888483">
          <g id="Grupo_888482" data-name="Grupo 888482" clip-path="url(#clip-path)">
            <path id="Trazado_602669" data-name="Trazado 602669" d="M25.829,10.473a3.507,3.507,0,1,0-3.507,3.507,3.507,3.507,0,0,0,3.507-3.507" transform="translate(-10.763 -3.78)" fill="#ff4a4a"/>
            <path id="Trazado_602670" data-name="Trazado 602670" d="M51.605,10.473A3.507,3.507,0,1,0,48.1,13.98a3.507,3.507,0,0,0,3.507-3.507" transform="translate(-25.062 -3.78)" fill="#f8de73"/>
            <path id="Trazado_602671" data-name="Trazado 602671" d="M77.38,10.473a3.507,3.507,0,1,0-3.507,3.507,3.507,3.507,0,0,0,3.507-3.507" transform="translate(-39.361 -3.78)" fill="#39b54a"/>
          </g>
        </g>
        <g id="Grupo_888491" data-name="Grupo 888491">
          <g id="Grupo_888490" data-name="Grupo 888490" clip-path="url(#clip-path)">
            <g id="Grupo_888486" data-name="Grupo 888486" transform="translate(140.738 63.999)" opacity="0.28">
              <g id="Grupo_888485" data-name="Grupo 888485">
                <g id="Grupo_888484" data-name="Grupo 888484" clip-path="url(#clip-path-4)">
                  <path id="Trazado_602672" data-name="Trazado 602672" d="M466.223,218.248a74.353,74.353,0,0,1-10.59,38.365H327.4a74.709,74.709,0,1,1,138.819-38.365" transform="translate(-316.811 -143.544)" fill="#4fd1d9"/>
                </g>
              </g>
            </g>
            <path id="Trazado_602673" data-name="Trazado 602673" d="M343.478,183.128H302.9a2.925,2.925,0,0,1,0-5.849h40.582a2.925,2.925,0,0,1,0,5.849" transform="translate(-166.731 -98.259)" fill="#fff"/>
            <path id="Trazado_602674" data-name="Trazado 602674" d="M546.03,162.021H505.448a2.925,2.925,0,0,1,0-5.849H546.03a2.925,2.925,0,0,1,0,5.849" transform="translate(-279.095 -86.55)" fill="#fff"/>
            <path id="Trazado_602675" data-name="Trazado 602675" d="M627.124,258.44H586.542a2.925,2.925,0,1,1,0-5.849h40.582a2.925,2.925,0,0,1,0,5.849" transform="translate(-324.08 -140.037)" fill="#fff"/>
            <path id="Trazado_602676" data-name="Trazado 602676" d="M665.228,279.346H624.646a2.925,2.925,0,1,1,0-5.849h40.582a2.925,2.925,0,0,1,0,5.849" transform="translate(-345.218 -151.635)" fill="#fff"/>
            <path id="Trazado_602677" data-name="Trazado 602677" d="M349.582,244.6H309a2.925,2.925,0,0,1,0-5.849h40.582a2.925,2.925,0,0,1,0,5.849" transform="translate(-170.117 -132.362)" fill="#fff"/>
            <path id="Trazado_602678" data-name="Trazado 602678" d="M642.12,393.951q-.408.791-.833,1.573h-1.781" transform="translate(-355.084 -218.455)" fill="none" stroke="#4fd1d9" stroke-linecap="round" stroke-miterlimit="10" stroke-width="2"/>
            <line id="Línea_1986" data-name="Línea 1986" x1="132.653" transform="translate(148.232 177.069)" fill="none" stroke="#4fd1d9" stroke-linecap="round" stroke-miterlimit="10" stroke-width="2" stroke-dasharray="7.945 7.945"/>
            <path id="Trazado_602679" data-name="Trazado 602679" d="M326.412,395.524h-1.781q-.425-.781-.832-1.573" transform="translate(-179.949 -218.455)" fill="none" stroke="#4fd1d9" stroke-linecap="round" stroke-miterlimit="10" stroke-width="2"/>
            <path id="Trazado_602680" data-name="Trazado 602680" d="M311.181,244.663a80.48,80.48,0,1,1,145.531,1.6" transform="translate(-168.882 -72.35)" fill="none" stroke="#4fd1d9" stroke-linecap="round" stroke-miterlimit="10" stroke-width="2" stroke-dasharray="7.951 7.951"/>
            <line id="Línea_1987" data-name="Línea 1987" x1="4.006" y2="4.005" transform="translate(124.783 84.494)" fill="none" stroke="#4fd1d9" stroke-linecap="round" stroke-miterlimit="10" stroke-width="2"/>
            <line id="Línea_1988" data-name="Línea 1988" x2="4.006" y2="4.005" transform="translate(124.783 84.494)" fill="none" stroke="#4fd1d9" stroke-linecap="round" stroke-miterlimit="10" stroke-width="2"/>
            <line id="Línea_1989" data-name="Línea 1989" x1="4.005" y2="4.005" transform="translate(91.31 166.232)" fill="none" stroke="#4fd1d9" stroke-linecap="round" stroke-miterlimit="10" stroke-width="2"/>
            <line id="Línea_1990" data-name="Línea 1990" x2="4.005" y2="4.005" transform="translate(91.31 166.232)" fill="none" stroke="#4fd1d9" stroke-linecap="round" stroke-miterlimit="10" stroke-width="2"/>
            <line id="Línea_1991" data-name="Línea 1991" x1="4.006" y2="4.005" transform="translate(195.674 74.794)" fill="none" stroke="#4fd1d9" stroke-linecap="round" stroke-miterlimit="10" stroke-width="2"/>
            <line id="Línea_1992" data-name="Línea 1992" x2="4.006" y2="4.005" transform="translate(195.674 74.794)" fill="none" stroke="#4fd1d9" stroke-linecap="round" stroke-miterlimit="10" stroke-width="2"/>
            <line id="Línea_1993" data-name="Línea 1993" x1="4.006" y2="4.005" transform="translate(317.368 153.182)" fill="none" stroke="#4fd1d9" stroke-linecap="round" stroke-miterlimit="10" stroke-width="2"/>
            <line id="Línea_1994" data-name="Línea 1994" x2="4.006" y2="4.005" transform="translate(317.368 153.182)" fill="none" stroke="#4fd1d9" stroke-linecap="round" stroke-miterlimit="10" stroke-width="2"/>
            <line id="Línea_1995" data-name="Línea 1995" x1="4.005" y2="4.005" transform="translate(312.348 84.494)" fill="none" stroke="#4fd1d9" stroke-linecap="round" stroke-miterlimit="10" stroke-width="2"/>
            <line id="Línea_1996" data-name="Línea 1996" x2="4.005" y2="4.005" transform="translate(312.348 84.494)" fill="none" stroke="#4fd1d9" stroke-linecap="round" stroke-miterlimit="10" stroke-width="2"/>
            <line id="Línea_1997" data-name="Línea 1997" x1="4.005" y2="4.005" transform="translate(275.295 60.06)" fill="none" stroke="#4fd1d9" stroke-linecap="round" stroke-miterlimit="10" stroke-width="2"/>
            <line id="Línea_1998" data-name="Línea 1998" x2="4.005" y2="4.005" transform="translate(275.295 60.06)" fill="none" stroke="#4fd1d9" stroke-linecap="round" stroke-miterlimit="10" stroke-width="2"/>
            <circle id="Elipse_7983" data-name="Elipse 7983" cx="2.517" cy="2.517" r="2.517" transform="translate(106.34 112.554)" fill="none" stroke="#4fd1d9" stroke-linecap="round" stroke-miterlimit="10" stroke-width="2"/>
            <path id="Trazado_602681" data-name="Trazado 602681" d="M271.352,331.794a2.517,2.517,0,1,1-3.552.229A2.517,2.517,0,0,1,271.352,331.794Z" transform="translate(-148.536 -183.626)" fill="none" stroke="#4fd1d9" stroke-linecap="round" stroke-miterlimit="10" stroke-width="2"/>
            <circle id="Elipse_7984" data-name="Elipse 7984" cx="2.517" cy="2.517" r="2.517" transform="translate(346.42 173.084) rotate(-85.935)" fill="none" stroke="#4fd1d9" stroke-linecap="round" stroke-miterlimit="10" stroke-width="2"/>
            <circle id="Elipse_7985" data-name="Elipse 7985" cx="2.517" cy="2.517" r="2.517" transform="translate(247.73 81.075)" fill="none" stroke="#4fd1d9" stroke-linecap="round" stroke-miterlimit="10" stroke-width="2"/>
            <circle id="Elipse_7986" data-name="Elipse 7986" cx="2.517" cy="2.517" r="2.517" transform="translate(184.877 37.474)" fill="none" stroke="#4fd1d9" stroke-linecap="round" stroke-miterlimit="10" stroke-width="2"/>
            <circle id="Elipse_7987" data-name="Elipse 7987" cx="2.517" cy="2.517" r="2.517" transform="translate(307.926 122.968)" fill="none" stroke="#4fd1d9" stroke-linecap="round" stroke-miterlimit="10" stroke-width="2"/>
            <g id="Grupo_888489" data-name="Grupo 888489" transform="translate(173.156 123.266)" opacity="0.48">
              <g id="Grupo_888488" data-name="Grupo 888488">
                <g id="Grupo_888487" data-name="Grupo 888487" clip-path="url(#clip-path-5)">
                  <path id="Trazado_602682" data-name="Trazado 602682" d="M535.5,302.447a2.109,2.109,0,0,1-.6,1.527,2.307,2.307,0,0,1-1.733.616h-1.136v3.215q0,2.625-2.69,2.625-2.272,0-2.271-2.84v-3h-9.982q-3.467,0-3.467-1.875a3.338,3.338,0,0,1,.568-1.688q.567-.936.926-1.473l7.89-12.216a7.134,7.134,0,0,1,2-1.983,4.529,4.529,0,0,1,2.421-.643,4.784,4.784,0,0,1,3.407,1.125,4.98,4.98,0,0,1,1.2,3.751V300.3h1.136a2.252,2.252,0,0,1,1.733.643,2.139,2.139,0,0,1,.6,1.5M527.07,300.3V289.267L520.136,300.3Z" transform="translate(-458.407 -281.122)" fill="#4fd1d9"/>
                  <path id="Trazado_602683" data-name="Trazado 602683" d="M411.494,302.447a2.109,2.109,0,0,1-.6,1.527,2.307,2.307,0,0,1-1.733.616h-1.136v3.215q0,2.625-2.69,2.625-2.272,0-2.271-2.84v-3h-9.982q-3.467,0-3.467-1.875a3.338,3.338,0,0,1,.568-1.688q.567-.936.926-1.473L399,287.338a7.134,7.134,0,0,1,2-1.983,4.529,4.529,0,0,1,2.421-.643,4.784,4.784,0,0,1,3.407,1.125,4.979,4.979,0,0,1,1.2,3.751V300.3h1.136a2.252,2.252,0,0,1,1.733.643,2.139,2.139,0,0,1,.6,1.5m-8.428-2.143V289.267L396.132,300.3Z" transform="translate(-389.617 -281.122)" fill="#4fd1d9"/>
                  <path id="Trazado_602684" data-name="Trazado 602684" d="M468.156,295.01h-1.589a10.578,10.578,0,0,0-1.2-2.892l1.124-1.124a.955.955,0,0,0,0-1.35l-2.314-2.314a.955.955,0,0,0-1.35,0l-1.124,1.124a10.6,10.6,0,0,0-2.892-1.2v-1.589a.955.955,0,0,0-.955-.955h-3.272a.955.955,0,0,0-.955.955v1.589a10.6,10.6,0,0,0-2.892,1.2l-1.124-1.124a.955.955,0,0,0-1.35,0l-2.314,2.314a.955.955,0,0,0,0,1.35l1.123,1.124a10.591,10.591,0,0,0-1.2,2.892h-1.589a.955.955,0,0,0-.955.955v3.272a.955.955,0,0,0,.955.955h1.589a10.593,10.593,0,0,0,1.2,2.892l-1.123,1.124a.954.954,0,0,0,0,1.35l2.314,2.314a.954.954,0,0,0,1.35,0l1.124-1.124a10.6,10.6,0,0,0,2.892,1.2v1.589a.955.955,0,0,0,.955.955h3.272a.955.955,0,0,0,.955-.955v-1.589a10.6,10.6,0,0,0,2.892-1.2l1.124,1.124a.954.954,0,0,0,1.35,0l2.314-2.314a.954.954,0,0,0,0-1.35l-1.124-1.124a10.579,10.579,0,0,0,1.2-2.892h1.589a.955.955,0,0,0,.955-.955v-3.272a.955.955,0,0,0-.955-.955m-11.934,9.045a6.454,6.454,0,1,1,6.454-6.454,6.454,6.454,0,0,1-6.454,6.454" transform="translate(-419.415 -281.122)" fill="#4fd1d9"/>
                  <path id="Trazado_602685" data-name="Trazado 602685" d="M506.984,282.68l-.832-.074a5.586,5.586,0,0,0-.493-1.571l.641-.537a.5.5,0,0,0,.063-.707l-1.1-1.32a.5.5,0,0,0-.708-.063l-.641.537a5.563,5.563,0,0,0-1.46-.763l.074-.832a.5.5,0,0,0-.456-.545l-1.714-.152a.5.5,0,0,0-.545.456l-.074.832a5.588,5.588,0,0,0-1.571.493l-.537-.641a.5.5,0,0,0-.708-.063l-1.32,1.1a.5.5,0,0,0-.063.708l.537.641a5.563,5.563,0,0,0-.763,1.46l-.833-.074a.5.5,0,0,0-.545.456l-.152,1.714a.5.5,0,0,0,.456.545l.832.074a5.574,5.574,0,0,0,.493,1.571l-.641.537a.5.5,0,0,0-.063.708l1.1,1.32a.5.5,0,0,0,.708.063l.641-.537a5.578,5.578,0,0,0,1.46.763l-.074.833a.5.5,0,0,0,.456.545l1.714.152a.5.5,0,0,0,.545-.456l.074-.832a5.565,5.565,0,0,0,1.571-.493l.537.641a.5.5,0,0,0,.708.063l1.32-1.1a.5.5,0,0,0,.063-.707l-.537-.641a5.577,5.577,0,0,0,.763-1.46l.832.074a.5.5,0,0,0,.545-.456l.152-1.714a.5.5,0,0,0-.456-.545m-6.674,4.184a3.4,3.4,0,1,1,3.682-3.081,3.395,3.395,0,0,1-3.682,3.081" transform="translate(-447.4 -276.65)" fill="#4fd1d9"/>
                </g>
              </g>
            </g>
            <path id="Trazado_602686" data-name="Trazado 602686" d="M415.088,307.341V296.3l-6.934,11.038Z" transform="translate(-226.744 -164.286)" fill="none" stroke="#4fd1d9" stroke-miterlimit="10" stroke-width="2"/>
            <path id="Trazado_602687" data-name="Trazado 602687" d="M468.144,313.3a6.454,6.454,0,1,1,6.454-6.454A6.454,6.454,0,0,1,468.144,313.3Z" transform="translate(-256.443 -166.555)" fill="none" stroke="#4fd1d9" stroke-miterlimit="10" stroke-width="2"/>
            <path id="Trazado_602688" data-name="Trazado 602688" d="M510.89,284.042l-.832-.074a5.587,5.587,0,0,0-.493-1.571l.641-.537a.5.5,0,0,0,.063-.707l-1.1-1.32a.5.5,0,0,0-.708-.063l-.641.537a5.564,5.564,0,0,0-1.46-.763l.074-.832a.5.5,0,0,0-.455-.545l-1.714-.152a.5.5,0,0,0-.545.456l-.074.832a5.589,5.589,0,0,0-1.571.493l-.536-.641a.5.5,0,0,0-.708-.063l-1.32,1.1a.5.5,0,0,0-.063.708l.537.641a5.573,5.573,0,0,0-.763,1.46l-.833-.074a.5.5,0,0,0-.545.456l-.152,1.714a.5.5,0,0,0,.456.545l.832.074a5.574,5.574,0,0,0,.493,1.571l-.641.536a.5.5,0,0,0-.063.708l1.1,1.32a.5.5,0,0,0,.707.063l.641-.537a5.579,5.579,0,0,0,1.46.763l-.074.832a.5.5,0,0,0,.456.545l1.714.152a.5.5,0,0,0,.545-.456l.074-.832a5.585,5.585,0,0,0,1.571-.493l.537.641a.5.5,0,0,0,.708.063l1.32-1.1a.5.5,0,0,0,.063-.708l-.537-.641a5.573,5.573,0,0,0,.763-1.46l.832.074a.5.5,0,0,0,.545-.456l.152-1.714A.5.5,0,0,0,510.89,284.042Zm-6.674,4.184a3.4,3.4,0,1,1,3.682-3.081A3.395,3.395,0,0,1,504.216,288.226Z" transform="translate(-276.411 -154.139)" fill="none" stroke="#4fd1d9" stroke-miterlimit="10" stroke-width="2"/>
            <path id="Trazado_602689" data-name="Trazado 602689" d="M471.778,311.72H455.409c-2.237,0-2.7-.875-2.7-2.625v-3.215h1.136a2.307,2.307,0,0,0,1.733-.616,2.109,2.109,0,0,0,.6-1.527,2.139,2.139,0,0,0-.6-1.5,2.252,2.252,0,0,0-1.733-.643H452.7V290.877a4.979,4.979,0,0,0-1.2-3.751A4.784,4.784,0,0,0,448.1,286a4.528,4.528,0,0,0-2.421.643,7.134,7.134,0,0,0-2,1.983l-7.89,12.216q-.359.536-.927,1.473A3.34,3.34,0,0,0,434.3,304q0,1.876,3.467,1.875h9.982v3c0,1.894-.234,2.84-3.312,2.84H419.656c-.884,0-1.135-.427-1.135-.955v-1.589a10.6,10.6,0,0,0,2.892-1.2l1.124,1.124a.955.955,0,0,0,1.35,0l2.313-2.314a.955.955,0,0,0,0-1.35l-1.123-1.124a10.591,10.591,0,0,0,1.2-2.892h1.589a.955.955,0,0,0,.955-.955v-3.272a.955.955,0,0,0-.955-.955h-1.589a10.6,10.6,0,0,0-1.2-2.892l1.123-1.124a.954.954,0,0,0,0-1.35l-2.313-2.314a.955.955,0,0,0-1.35,0l-1.124,1.124a10.613,10.613,0,0,0-2.892-1.2V286.9a.955.955,0,0,0-.955-.955h-3.272a.955.955,0,0,0-.955.955v1.589a10.611,10.611,0,0,0-2.892,1.2l-1.124-1.124a.955.955,0,0,0-1.35,0l-2.314,2.314a.954.954,0,0,0,0,1.35l1.124,1.124a10.6,10.6,0,0,0-1.2,2.892H404a.955.955,0,0,0-.955.955v3.272a.955.955,0,0,0,.955.955h1.589a10.592,10.592,0,0,0,1.2,2.892l-1.124,1.124a.955.955,0,0,0,0,1.35l2.314,2.314a.955.955,0,0,0,1.35,0l1.124-1.124a10.6,10.6,0,0,0,2.892,1.2v1.589c0,.768-.841.955-1.816.955H400.238c-2.237,0-2.7-.875-2.7-2.625v-3.215h1.136a2.307,2.307,0,0,0,1.733-.616,2.109,2.109,0,0,0,.6-1.527,2.139,2.139,0,0,0-.6-1.5,2.252,2.252,0,0,0-1.733-.643h-1.136V290.877a4.979,4.979,0,0,0-1.2-3.751A4.784,4.784,0,0,0,392.931,286a4.528,4.528,0,0,0-2.421.643,7.14,7.14,0,0,0-2,1.983l-7.89,12.216q-.359.536-.926,1.473a3.337,3.337,0,0,0-.568,1.688q0,1.876,3.467,1.875h9.982v3c0,1.894-.234,2.84-3.312,2.84H367.567m80.177-10.127V290.555l-6.934,11.038Z" transform="translate(-204.229 -158.538)" fill="none" stroke="#4fd1d9" stroke-miterlimit="10" stroke-width="2"/>
            <path id="Trazado_602690" data-name="Trazado 602690" d="M469.381,293.662H345.673V215.915a5.584,5.584,0,0,1,5.584-5.584H463.8a5.584,5.584,0,0,1,5.584,5.584Z" transform="translate(-192.083 -116.594)" fill="none" stroke="#4fd1d9" stroke-miterlimit="10" stroke-width="2"/>
            <rect id="Rectángulo_298875" data-name="Rectángulo 298875" width="112.54" height="72.847" transform="translate(159.174 98.936)" fill="none" stroke="#4fd1d9" stroke-miterlimit="10" stroke-width="2"/>
            <rect id="Rectángulo_298876" data-name="Rectángulo 298876" width="153.86" height="5.413" transform="translate(138.514 177.069)" fill="none" stroke="#4fd1d9" stroke-miterlimit="10" stroke-width="2"/>
            <path id="Trazado_602691" data-name="Trazado 602691" d="M458.857,413.108H318.633a6.883,6.883,0,0,1-4.23-1.453l-2.588-2.016h153.86l-2.588,2.016A6.883,6.883,0,0,1,458.857,413.108Z" transform="translate(-173.301 -227.158)" fill="none" stroke="#4fd1d9" stroke-linejoin="round" stroke-width="2"/>
          </g>
        </g>
        <g id="Grupo_888493" data-name="Grupo 888493">
          <g id="Grupo_888492" data-name="Grupo 888492" clip-path="url(#clip-path)">
            <path id="Trazado_602692" data-name="Trazado 602692" d="M206.218,468.036c0,8.859-7.036,15.59-16.46,15.59-9.38,0-16.416-6.688-16.416-15.59,0-8.859,7.036-15.417,16.416-15.417,9.424,0,16.46,6.6,16.46,15.417m-24.972.043a8.843,8.843,0,0,0,8.6,9.077c4.69,0,8.425-3.952,8.425-9.077s-3.734-8.989-8.425-8.989a8.737,8.737,0,0,0-8.6,8.989" transform="translate(-96.485 -251)" fill="#414042"/>
            <path id="Trazado_602693" data-name="Trazado 602693" d="M277.44,480.265c0,7.209-5.125,11.986-12.768,11.986-7.687,0-12.811-4.777-12.811-11.986s5.125-11.943,12.811-11.943c7.643,0,12.768,4.734,12.768,11.943m-18.023.087c0,3.648,2.128,6.08,5.255,6.08,3.084,0,5.211-2.432,5.211-6.08,0-3.6-2.127-6.08-5.211-6.08-3.127,0-5.255,2.476-5.255,6.08" transform="translate(-140.042 -259.711)" fill="#414042"/>
            <path id="Trazado_602694" data-name="Trazado 602694" d="M344.362,480.4c0,7.122-4.256,11.856-10.814,11.856a8.663,8.663,0,0,1-7.166-3.388v11.552h-7.513V468.582h7.513v3.083a8.529,8.529,0,0,1,6.992-3.344c6.6,0,10.987,4.821,10.987,12.073m-7.557-.217c0-3.561-2.128-6.08-5.255-6.08-3.04,0-5.168,2.519-5.168,6.08,0,3.648,2.128,6.124,5.168,6.124,3.127,0,5.255-2.519,5.255-6.124" transform="translate(-177.214 -259.711)" fill="#414042"/>
            <path id="Trazado_602695" data-name="Trazado 602695" d="M400.351,470.777l-2.562,4.864a16.835,16.835,0,0,0-7.383-2.345c-1.346,0-2.3.521-2.3,1.607,0,3.213,12.333,1.65,12.29,9.815,0,4.82-4.213,7.469-9.859,7.469a17.312,17.312,0,0,1-10.509-3.3l2.388-4.777a15.022,15.022,0,0,0,8.295,2.91c1.477,0,2.563-.521,2.563-1.607,0-3.431-12.116-1.65-12.073-9.858,0-4.82,4.083-7.426,9.511-7.426a19.144,19.144,0,0,1,9.641,2.649" transform="translate(-211.141 -259.604)" fill="#414042"/>
            <path id="Trazado_602696" data-name="Trazado 602696" d="M440.436,480.52a3.626,3.626,0,1,1-3.648-3.6,3.488,3.488,0,0,1,3.648,3.6m-1.259-7.122H434.66l-1.3-12.073v-7.73h7.122v7.73Z" transform="translate(-240.629 -251.541)" fill="#414042"/>
            <path id="Trazado_602697" data-name="Trazado 602697" d="M484.7,475.779l-1.744-5.735-1.765,5.735h-1.281l-2.437-7.353h1.334L480.6,474.4l1.775-5.966,1.218-.011,1.786,5.977,1.775-5.977h1.281l-2.458,7.353Z" transform="translate(-265.2 -259.769)" fill="#414042"/>
            <path id="Trazado_602698" data-name="Trazado 602698" d="M506.838,475.593h-4.223a1.7,1.7,0,0,0,1.733,1.4,2.175,2.175,0,0,0,1.576-.651l.641.683a3.041,3.041,0,0,1-2.311.945,2.836,2.836,0,1,1-.032-5.672c1.964,0,2.762,1.281,2.615,3.3m-1.05-.883a1.435,1.435,0,0,0-1.555-1.449,1.589,1.589,0,0,0-1.638,1.449Z" transform="translate(-278.47 -261.915)" fill="#414042"/>
            <path id="Trazado_602699" data-name="Trazado 602699" d="M526.48,473.209l-.662.777a2.111,2.111,0,0,0-1.6-.63,1.791,1.791,0,0,0,0,3.571,2.084,2.084,0,0,0,1.649-.672l.672.672a2.843,2.843,0,0,1-2.374,1.04,2.836,2.836,0,0,1,0-5.672,2.948,2.948,0,0,1,2.31.914" transform="translate(-289.541 -261.915)" fill="#414042"/>
            <path id="Trazado_602700" data-name="Trazado 602700" d="M538.095,477.242a2.266,2.266,0,0,1-1.848.735,1.769,1.769,0,0,1-1.964-1.733c0-1.019.767-1.67,2.111-1.681h1.691V474.4c0-.7-.452-1.124-1.334-1.124a2.947,2.947,0,0,0-1.649.567l-.494-.84a4.1,4.1,0,0,1,2.406-.7c1.439,0,2.248.735,2.258,1.964l.011,3.666h-1.187Zm-.01-1.281v-.515h-1.513c-.788,0-1.155.21-1.155.746,0,.5.41.829,1.082.829.861,0,1.523-.451,1.586-1.061" transform="translate(-296.712 -261.915)" fill="#414042"/>
            <path id="Trazado_602701" data-name="Trazado 602701" d="M554.491,474.448v3.477h-1.208v-3.14a1.245,1.245,0,0,0-1.344-1.355,1.566,1.566,0,0,0-1.586,1.523v2.973h-1.208v-5.588h1.208v1.072a2.111,2.111,0,0,1,2.059-1.114,1.952,1.952,0,0,1,2.08,2.153" transform="translate(-304.957 -261.915)" fill="#414042"/>
            <path id="Trazado_602702" data-name="Trazado 602702" d="M565.036,469.1a.927.927,0,0,1-.189.546l-.6.9h-.62l.4-.9a.659.659,0,1,1,1.008-.546" transform="translate(-312.992 -259.769)" fill="#414042"/>
            <path id="Trazado_602703" data-name="Trazado 602703" d="M572.288,475.971a2.683,2.683,0,0,1-1.376.41,1.472,1.472,0,0,1-1.565-1.628v-2.9h-.788v-.9h.788v-1.533h1.2v1.533h1.649v.9h-1.649v2.679c0,.578.22.756.6.756a1.949,1.949,0,0,0,.84-.242Z" transform="translate(-315.727 -260.319)" fill="#414042"/>
            <path id="Trazado_602704" data-name="Trazado 602704" d="M588.307,472.838l-.441.893a3.284,3.284,0,0,0-1.607-.494c-.473,0-.819.158-.819.557,0,1.029,2.973.473,2.962,2.5,0,1.145-1.019,1.659-2.143,1.659a3.457,3.457,0,0,1-2.248-.777l.431-.861a3.048,3.048,0,0,0,1.87.693c.515,0,.914-.179.914-.6,0-1.145-2.941-.5-2.93-2.521,0-1.135.987-1.618,2.058-1.618a3.531,3.531,0,0,1,1.954.567" transform="translate(-324.299 -261.902)" fill="#414042"/>
            <path id="Trazado_602705" data-name="Trazado 602705" d="M600.869,475.593h-4.222a1.7,1.7,0,0,0,1.733,1.4,2.175,2.175,0,0,0,1.576-.651l.641.683a3.041,3.041,0,0,1-2.311.945,2.836,2.836,0,1,1-.032-5.672c1.964,0,2.762,1.281,2.616,3.3m-1.05-.883a1.435,1.435,0,0,0-1.555-1.449,1.589,1.589,0,0,0-1.638,1.449Z" transform="translate(-330.632 -261.915)" fill="#414042"/>
            <path id="Trazado_602706" data-name="Trazado 602706" d="M614.74,475.593h-4.223a1.7,1.7,0,0,0,1.733,1.4,2.175,2.175,0,0,0,1.576-.651l.641.683a3.041,3.041,0,0,1-2.311.945,2.836,2.836,0,1,1-.032-5.672c1.964,0,2.762,1.281,2.615,3.3m-1.05-.883a1.435,1.435,0,0,0-1.555-1.449,1.589,1.589,0,0,0-1.638,1.449Z" transform="translate(-338.327 -261.915)" fill="#414042"/>
            <path id="Trazado_602707" data-name="Trazado 602707" d="M633.688,474.448v3.477h-1.208v-3.14a1.242,1.242,0,0,0-1.323-1.366,1.59,1.59,0,0,0-1.533,1.744v2.762h-1.208v-3.14a1.235,1.235,0,0,0-1.313-1.366,1.6,1.6,0,0,0-1.554,1.744v2.762h-1.2v-5.588h1.2v1.082a2.065,2.065,0,0,1,2.027-1.124,1.872,1.872,0,0,1,1.943,1.345,2.052,2.052,0,0,1,2.122-1.345,1.939,1.939,0,0,1,2.048,2.153" transform="translate(-346.676 -261.915)" fill="#414042"/>
            <path id="Trazado_602708" data-name="Trazado 602708" d="M657.5,475.971a2.683,2.683,0,0,1-1.376.41,1.472,1.472,0,0,1-1.565-1.628v-2.9h-.788v-.9h.788v-1.533h1.2v1.533H657.4v.9h-1.649v2.679c0,.578.22.756.6.756a1.95,1.95,0,0,0,.84-.242Z" transform="translate(-362.995 -260.319)" fill="#414042"/>
            <path id="Trazado_602709" data-name="Trazado 602709" d="M669.15,475.13a2.916,2.916,0,1,1-2.909-2.836,2.738,2.738,0,0,1,2.909,2.836m-4.621.01a1.71,1.71,0,1,0,1.712-1.807,1.684,1.684,0,0,0-1.712,1.807" transform="translate(-368.295 -261.915)" fill="#414042"/>
            <path id="Trazado_602710" data-name="Trazado 602710" d="M684.934,469.148a1.83,1.83,0,0,1,1.922-1.922,2.121,2.121,0,0,1,1.04.252l-.042,1.05a2.47,2.47,0,0,0-.966-.241.673.673,0,0,0-.756.745v.651h1.46v.9h-1.46v4.485h-1.2v-4.485H684.2v-.9h.735Zm3.267-1.261a.7.7,0,1,1,.7.725.7.7,0,0,1-.7-.725m1.3,7.185h-1.2v-5.588h1.2Z" transform="translate(-379.877 -259.062)" fill="#414042"/>
            <path id="Trazado_602711" data-name="Trazado 602711" d="M705.469,474.448v3.477h-1.208v-3.14a1.245,1.245,0,0,0-1.344-1.355,1.565,1.565,0,0,0-1.586,1.523v2.973h-1.208v-5.588h1.208v1.072a2.111,2.111,0,0,1,2.059-1.114,1.952,1.952,0,0,1,2.08,2.153" transform="translate(-388.711 -261.915)" fill="#414042"/>
            <path id="Trazado_602712" data-name="Trazado 602712" d="M720.434,475.229h-1.208v-.956a2.166,2.166,0,0,1-1.964,1.008,2.853,2.853,0,0,1-.021-5.693,2.209,2.209,0,0,1,1.985,1.019v-3.172h1.208Zm-1.208-2.773a1.7,1.7,0,0,0-1.712-1.838,1.721,1.721,0,0,0-1.723,1.838,1.72,1.72,0,1,0,3.435,0" transform="translate(-396.732 -259.219)" fill="#414042"/>
            <path id="Trazado_602713" data-name="Trazado 602713" d="M740.392,475.971a2.683,2.683,0,0,1-1.376.41,1.472,1.472,0,0,1-1.565-1.628v-2.9h-.788v-.9h.788v-1.533h1.2v1.533H740.3v.9h-1.649v2.679c0,.578.22.756.6.756a1.949,1.949,0,0,0,.84-.242Z" transform="translate(-408.981 -260.319)" fill="#414042"/>
            <path id="Trazado_602714" data-name="Trazado 602714" d="M753.013,471.752v3.477h-1.208v-3.14a1.245,1.245,0,0,0-1.345-1.355,1.6,1.6,0,0,0-1.6,1.744v2.752h-1.208v-7.794h1.208v3.3a2.115,2.115,0,0,1,2.07-1.134,1.952,1.952,0,0,1,2.079,2.153" transform="translate(-415.079 -259.219)" fill="#414042"/>
            <path id="Trazado_602715" data-name="Trazado 602715" d="M767.582,475.593h-4.223a1.7,1.7,0,0,0,1.733,1.4,2.175,2.175,0,0,0,1.576-.651l.641.683a3.041,3.041,0,0,1-2.311.945,2.836,2.836,0,1,1-.032-5.672c1.964,0,2.762,1.281,2.615,3.3m-1.05-.883a1.435,1.435,0,0,0-1.555-1.449,1.589,1.589,0,0,0-1.638,1.449Z" transform="translate(-423.114 -261.915)" fill="#414042"/>
            <path id="Trazado_602716" data-name="Trazado 602716" d="M485.358,503.461a2.589,2.589,0,0,1-2.647,2.815,2.2,2.2,0,0,1-1.975-1.009v3h-1.208v-7.625h1.208v.966a2.184,2.184,0,0,1,1.954-1.008,2.629,2.629,0,0,1,2.668,2.857m-1.219-.042a1.706,1.706,0,1,0-1.7,1.827,1.7,1.7,0,0,0,1.7-1.827" transform="translate(-266.339 -277.62)" fill="#414042"/>
            <path id="Trazado_602717" data-name="Trazado 602717" d="M498.227,505.551a2.266,2.266,0,0,1-1.848.735,1.769,1.769,0,0,1-1.964-1.733c0-1.019.767-1.67,2.111-1.681h1.691V502.7c0-.7-.452-1.123-1.334-1.123a2.95,2.95,0,0,0-1.649.567l-.494-.84a4.1,4.1,0,0,1,2.406-.7c1.439,0,2.248.735,2.258,1.964l.01,3.666h-1.187Zm-.01-1.281v-.515H496.7c-.788,0-1.155.21-1.155.746,0,.5.41.83,1.082.83.861,0,1.523-.452,1.586-1.061" transform="translate(-274.596 -277.62)" fill="#414042"/>
            <path id="Trazado_602718" data-name="Trazado 602718" d="M513.663,505.687a2.587,2.587,0,0,1-2.9,2.616,4.06,4.06,0,0,1-2.321-.736l.515-.872a2.817,2.817,0,0,0,1.754.61,1.572,1.572,0,0,0,1.754-1.587v-.7a2.046,2.046,0,0,1-1.849.945,2.476,2.476,0,0,1-2.521-2.7,2.449,2.449,0,0,1,2.479-2.657,2.085,2.085,0,0,1,1.891.945v-.9h1.2Zm-1.2-2.395a1.59,1.59,0,0,0-1.607-1.712,1.721,1.721,0,1,0,1.607,1.712" transform="translate(-282.186 -277.619)" fill="#414042"/>
            <path id="Trazado_602719" data-name="Trazado 602719" d="M528.635,503.9h-4.222a1.7,1.7,0,0,0,1.733,1.4,2.172,2.172,0,0,0,1.576-.651l.641.683a3.043,3.043,0,0,1-2.311.945,2.836,2.836,0,1,1-.032-5.672c1.964,0,2.762,1.281,2.615,3.3m-1.05-.882a1.435,1.435,0,0,0-1.555-1.449,1.589,1.589,0,0,0-1.638,1.449Z" transform="translate(-290.561 -277.619)" fill="#414042"/>
            <path id="Trazado_602720" data-name="Trazado 602720" d="M545.348,507.053a1.863,1.863,0,0,1-1.817,1.324,1.888,1.888,0,0,1-1.292-.473l.514-.935a1.183,1.183,0,0,0,.725.273.91.91,0,0,0,.85-.62l.189-.42-2.311-5.5h1.251l1.67,4.233,1.554-4.233h1.208Z" transform="translate(-301.109 -277.672)" fill="#414042"/>
            <path id="Trazado_602721" data-name="Trazado 602721" d="M561.036,503.439a2.916,2.916,0,1,1-2.909-2.836,2.738,2.738,0,0,1,2.909,2.836m-4.621.011a1.71,1.71,0,1,0,1.712-1.807,1.684,1.684,0,0,0-1.712,1.807" transform="translate(-308.32 -277.619)" fill="#414042"/>
            <path id="Trazado_602722" data-name="Trazado 602722" d="M575.981,506.286h-1.208v-1.092a2.061,2.061,0,0,1-2,1.135,1.939,1.939,0,0,1-2.048-2.153V500.7h1.208v3.141a1.229,1.229,0,0,0,1.3,1.355,1.579,1.579,0,0,0,1.533-1.744V500.7h1.208Z" transform="translate(-316.931 -277.672)" fill="#414042"/>
            <path id="Trazado_602723" data-name="Trazado 602723" d="M586.786,497.407a.928.928,0,0,1-.189.546l-.6.9h-.62l.4-.9a.659.659,0,1,1,1.008-.546" transform="translate(-325.058 -275.473)" fill="#414042"/>
            <path id="Trazado_602724" data-name="Trazado 602724" d="M592.792,501.758a2.032,2.032,0,0,1,1.933-1.155v1.155a1.693,1.693,0,0,0-1.933,1.555v2.92h-1.208v-5.588h1.208Z" transform="translate(-328.5 -277.619)" fill="#414042"/>
            <path id="Trazado_602725" data-name="Trazado 602725" d="M605.139,503.9h-4.223a1.7,1.7,0,0,0,1.733,1.4,2.171,2.171,0,0,0,1.576-.651l.641.683a3.042,3.042,0,0,1-2.311.945,2.836,2.836,0,1,1-.031-5.672c1.964,0,2.762,1.281,2.615,3.3m-1.05-.882a1.435,1.435,0,0,0-1.555-1.449,1.589,1.589,0,0,0-1.638,1.449Z" transform="translate(-333.001 -277.619)" fill="#414042"/>
            <rect id="Rectángulo_298878" data-name="Rectángulo 298878" width="1.208" height="7.794" transform="translate(276.161 220.821)" fill="#414042"/>
            <path id="Trazado_602726" data-name="Trazado 602726" d="M632.443,503.439a2.916,2.916,0,1,1-2.909-2.836,2.738,2.738,0,0,1,2.909,2.836m-4.621.011a1.71,1.71,0,1,0,1.712-1.807,1.684,1.684,0,0,0-1.712,1.807" transform="translate(-347.932 -277.619)" fill="#414042"/>
            <path id="Trazado_602727" data-name="Trazado 602727" d="M647.188,503.439a2.916,2.916,0,1,1-2.91-2.836,2.739,2.739,0,0,1,2.91,2.836m-4.622.011a1.71,1.71,0,1,0,1.712-1.807,1.684,1.684,0,0,0-1.712,1.807" transform="translate(-356.111 -277.619)" fill="#414042"/>
            <path id="Trazado_602728" data-name="Trazado 602728" d="M658.608,501.973v1.565H657.4v-7.794h1.208v4.706l2.469-2.5h1.387l-2.07,2.164,2.227,3.424h-1.428l-1.639-2.563Z" transform="translate(-365.01 -274.924)" fill="#414042"/>
            <path id="Trazado_602729" data-name="Trazado 602729" d="M672.489,496.2a.7.7,0,1,1-.7-.735.7.7,0,0,1,.7.735m-1.3,1.6h1.2v5.588h-1.2Z" transform="translate(-372.6 -274.767)" fill="#414042"/>
            <path id="Trazado_602730" data-name="Trazado 602730" d="M683.364,502.756v3.477h-1.208v-3.14a1.245,1.245,0,0,0-1.344-1.355,1.565,1.565,0,0,0-1.586,1.523v2.972h-1.208v-5.588h1.208v1.071a2.111,2.111,0,0,1,2.059-1.114,1.952,1.952,0,0,1,2.08,2.153" transform="translate(-376.448 -277.619)" fill="#414042"/>
            <path id="Trazado_602731" data-name="Trazado 602731" d="M698.046,505.687a2.588,2.588,0,0,1-2.9,2.616,4.061,4.061,0,0,1-2.321-.736l.515-.872a2.817,2.817,0,0,0,1.754.61,1.571,1.571,0,0,0,1.754-1.587v-.7a2.046,2.046,0,0,1-1.849.945,2.476,2.476,0,0,1-2.521-2.7,2.449,2.449,0,0,1,2.479-2.657,2.085,2.085,0,0,1,1.891.945v-.9h1.2Zm-1.2-2.395a1.59,1.59,0,0,0-1.607-1.712,1.721,1.721,0,1,0,1.607,1.712" transform="translate(-384.47 -277.619)" fill="#414042"/>
            <path id="Trazado_602732" data-name="Trazado 602732" d="M715.642,497.433v.661h1.46v.9h-1.46v4.474h-1.2V499h-.735v-.9h.735v-.546a1.832,1.832,0,0,1,1.922-1.922,2.133,2.133,0,0,1,1.26.389l-.462.925a1.348,1.348,0,0,0-.766-.263.7.7,0,0,0-.757.756" transform="translate(-396.248 -274.858)" fill="#414042"/>
            <path id="Trazado_602733" data-name="Trazado 602733" d="M727.347,503.439a2.916,2.916,0,1,1-2.909-2.836,2.738,2.738,0,0,1,2.909,2.836m-4.621.011a1.71,1.71,0,1,0,1.712-1.807,1.684,1.684,0,0,0-1.712,1.807" transform="translate(-400.579 -277.619)" fill="#414042"/>
            <path id="Trazado_602734" data-name="Trazado 602734" d="M738.65,501.758a2.032,2.032,0,0,1,1.932-1.155v1.155a1.692,1.692,0,0,0-1.932,1.555v2.92h-1.208v-5.588h1.208Z" transform="translate(-409.413 -277.619)" fill="#414042"/>
            <path id="Trazado_602735" data-name="Trazado 602735" d="M747.14,511.03a.663.663,0,1,1-1.324,0,.662.662,0,1,1,1.324,0" transform="translate(-414.058 -283.024)" fill="#414042"/>
            <path id="Trazado_602736" data-name="Trazado 602736" d="M479.19,538.391v1.844h2.83v.617h-2.83v1.924h3.271v.609h-3.912v-5.612h3.808v.617Z" transform="translate(-265.795 -298.239)" fill="#414042"/>
            <path id="Trazado_602737" data-name="Trazado 602737" d="M490.693,541.8a1.578,1.578,0,0,1,1.515-.962v.634a1.4,1.4,0,0,0-1.515,1.371v2.245h-.625v-4.225h.625Z" transform="translate(-272.185 -299.937)" fill="#414042"/>
            <path id="Trazado_602738" data-name="Trazado 602738" d="M497.389,541.8a1.578,1.578,0,0,1,1.515-.962v.634a1.4,1.4,0,0,0-1.515,1.371v2.245h-.625v-4.225h.625Z" transform="translate(-275.9 -299.937)" fill="#414042"/>
            <path id="Trazado_602739" data-name="Trazado 602739" d="M506.786,542.977a2.14,2.14,0,1,1-2.14-2.124,2.049,2.049,0,0,1,2.14,2.124m-3.656.008a1.516,1.516,0,1,0,1.515-1.563,1.48,1.48,0,0,0-1.515,1.563" transform="translate(-279.084 -299.947)" fill="#414042"/>
            <path id="Trazado_602740" data-name="Trazado 602740" d="M515.208,541.8a1.578,1.578,0,0,1,1.515-.962v.634a1.4,1.4,0,0,0-1.515,1.371v2.245h-.625v-4.225h.625Z" transform="translate(-285.784 -299.937)" fill="#414042"/>
            <path id="Trazado_602741" data-name="Trazado 602741" d="M528.977,541.478l-.345.441a1.784,1.784,0,0,0-1.259-.489,1.561,1.561,0,0,0,0,3.119A1.65,1.65,0,0,0,528.68,544l.361.384a2.121,2.121,0,0,1-1.692.73,2.133,2.133,0,0,1,0-4.265,2.16,2.16,0,0,1,1.628.625" transform="translate(-291.706 -299.948)" fill="#414042"/>
            <path id="Trazado_602742" data-name="Trazado 602742" d="M539.186,542.977a2.14,2.14,0,1,1-2.14-2.124,2.049,2.049,0,0,1,2.14,2.124m-3.656.008a1.516,1.516,0,1,0,1.515-1.563,1.48,1.48,0,0,0-1.515,1.563" transform="translate(-297.058 -299.947)" fill="#414042"/>
            <path id="Trazado_602743" data-name="Trazado 602743" d="M550.334,542.966h-.626v-.906a1.763,1.763,0,0,1-1.643.938,2.148,2.148,0,0,1-.008-4.289,1.768,1.768,0,0,1,1.651.946v-2.638h.626Zm-.626-2.1a1.528,1.528,0,1,0-1.523,1.571,1.5,1.5,0,0,0,1.523-1.571" transform="translate(-303.229 -297.819)" fill="#414042"/>
            <path id="Trazado_602744" data-name="Trazado 602744" d="M562.314,543.226h-3.447a1.48,1.48,0,0,0,1.531,1.347,1.764,1.764,0,0,0,1.307-.529l.345.369a2.22,2.22,0,0,1-1.7.705,2.133,2.133,0,0,1-.008-4.265c1.363-.008,2.036.938,1.972,2.373m-.561-.513a1.317,1.317,0,0,0-1.411-1.323,1.426,1.426,0,0,0-1.475,1.323Z" transform="translate(-310.008 -299.947)" fill="#414042"/>
            <path id="Trazado_602745" data-name="Trazado 602745" d="M569.773,543.719a.39.39,0,1,1-.385-.417.393.393,0,0,1,.385.417m0,2.381a.39.39,0,1,1-.385-.417.393.393,0,0,1,.385.417" transform="translate(-315.969 -301.306)" fill="#414042"/>
            <path id="Trazado_602746" data-name="Trazado 602746" d="M579.789,541.294v-1.483h.6v1.483h.85v.617h-.85v1.475h-.6v-1.475H577.1v-.529l2.013-3.608h.633l-1.956,3.519Z" transform="translate(-320.463 -298.239)" fill="#414042"/>
            <path id="Trazado_602747" data-name="Trazado 602747" d="M592.512,540.56c0,1.812-.826,2.822-2.317,2.822s-2.317-1.01-2.317-2.822.826-2.822,2.317-2.822,2.317,1.01,2.317,2.822m-3.985,0c0,1.515.577,2.277,1.667,2.277s1.667-.761,1.667-2.277-.577-2.277-1.667-2.277-1.667.753-1.667,2.277" transform="translate(-326.444 -298.219)" fill="#414042"/>
            <path id="Trazado_602748" data-name="Trazado 602748" d="M602.487,541.294v-1.483h.6v1.483h.85v.617h-.85v1.475h-.6v-1.475h-2.694v-.529l2.013-3.608h.633l-1.957,3.519Z" transform="translate(-333.054 -298.239)" fill="#414042"/>
          </g>
        </g>
      </g>
    </g>
  </g>
</svg>
