<svg xmlns="http://www.w3.org/2000/svg" xmlns:xlink="http://www.w3.org/1999/xlink" width="525" height="331" viewBox="0 0 525 331">
  <defs>
    <clipPath id="clip-path">
      <rect id="Rectángulo_298599" data-name="Rectángulo 298599" width="406.7" height="275.303" fill="none"/>
    </clipPath>
  </defs>
  <g id="Grupo_890293" data-name="Grupo 890293" transform="translate(10350 2648)">
    <rect id="Rectángulo_301439" data-name="Rectángulo 301439" width="525" height="331" rx="13" transform="translate(-10350 -2648)" fill="#1565c0"/>
    <g id="Grupo_890292" data-name="Grupo 890292" transform="translate(-10297.85 -2620.151)">
      <rect id="Rectángulo_298471" data-name="Rectángulo 298471" width="6.368" height="1.689" transform="translate(48.055 0)" fill="#7b9fbd"/>
      <rect id="Rectángulo_298472" data-name="Rectángulo 298472" width="6.368" height="1.689" transform="translate(61.15 0)" fill="#7b9fbd"/>
      <rect id="Rectángulo_298473" data-name="Rectángulo 298473" width="6.368" height="1.689" transform="translate(74.211 0)" fill="#7b9fbd"/>
      <rect id="Rectángulo_298474" data-name="Rectángulo 298474" width="6.368" height="1.689" transform="translate(87.305 0)" fill="#7b9fbd"/>
      <rect id="Rectángulo_298475" data-name="Rectángulo 298475" width="6.368" height="1.689" transform="translate(100.367 0)" fill="#7b9fbd"/>
      <rect id="Rectángulo_298476" data-name="Rectángulo 298476" width="6.368" height="1.689" transform="translate(113.461 0)" fill="#7b9fbd"/>
      <rect id="Rectángulo_298477" data-name="Rectángulo 298477" width="6.368" height="1.689" transform="translate(126.556 0)" fill="#7b9fbd"/>
      <rect id="Rectángulo_298478" data-name="Rectángulo 298478" width="6.368" height="1.689" transform="translate(139.617 0)" fill="#7b9fbd"/>
      <rect id="Rectángulo_298479" data-name="Rectángulo 298479" width="6.368" height="1.689" transform="translate(152.712 0)" fill="#7b9fbd"/>
      <rect id="Rectángulo_298480" data-name="Rectángulo 298480" width="6.368" height="1.689" transform="translate(165.773 0)" fill="#7b9fbd"/>
      <rect id="Rectángulo_298481" data-name="Rectángulo 298481" width="6.368" height="1.689" transform="translate(178.867 0)" fill="#7b9fbd"/>
      <rect id="Rectángulo_298482" data-name="Rectángulo 298482" width="6.368" height="1.689" transform="translate(191.929 0)" fill="#7b9fbd"/>
      <rect id="Rectángulo_298483" data-name="Rectángulo 298483" width="6.368" height="1.689" transform="translate(205.023 0)" fill="#7b9fbd"/>
      <rect id="Rectángulo_298484" data-name="Rectángulo 298484" width="6.368" height="1.689" transform="translate(218.085 0)" fill="#7b9fbd"/>
      <rect id="Rectángulo_298485" data-name="Rectángulo 298485" width="6.368" height="1.689" transform="translate(231.179 0)" fill="#7b9fbd"/>
      <rect id="Rectángulo_298486" data-name="Rectángulo 298486" width="6.368" height="1.689" transform="translate(244.241 0)" fill="#7b9fbd"/>
      <rect id="Rectángulo_298487" data-name="Rectángulo 298487" width="6.368" height="1.689" transform="translate(257.335 0)" fill="#7b9fbd"/>
      <rect id="Rectángulo_298488" data-name="Rectángulo 298488" width="6.368" height="1.689" transform="translate(270.397 0)" fill="#7b9fbd"/>
      <path id="Trazado_602262" data-name="Trazado 602262" d="M880.763,3.377l-.585,1.592L874.2,2.792l.585-1.592Z" transform="translate(-590.157 -0.81)" fill="#7b9fbd"/>
      <path id="Trazado_602263" data-name="Trazado 602263" d="M915.119,32.054l-1.495.78L910.7,27.18l1.495-.78Z" transform="translate(-614.797 -17.822)" fill="#7b9fbd"/>
      <rect id="Rectángulo_298489" data-name="Rectángulo 298489" width="1.69" height="6.368" transform="translate(299.834 22.387)" fill="#7b9fbd"/>
      <rect id="Rectángulo_298490" data-name="Rectángulo 298490" width="1.69" height="6.368" transform="translate(299.834 35.449)" fill="#7b9fbd"/>
      <rect id="Rectángulo_298491" data-name="Rectángulo 298491" width="1.69" height="6.368" transform="translate(299.834 48.543)" fill="#7b9fbd"/>
      <rect id="Rectángulo_298492" data-name="Rectángulo 298492" width="1.69" height="6.368" transform="translate(299.834 61.604)" fill="#7b9fbd"/>
      <rect id="Rectángulo_298493" data-name="Rectángulo 298493" width="1.69" height="6.368" transform="translate(299.834 74.699)" fill="#7b9fbd"/>
      <rect id="Rectángulo_298494" data-name="Rectángulo 298494" width="1.69" height="6.368" transform="translate(299.834 87.76)" fill="#7b9fbd"/>
      <rect id="Rectángulo_298495" data-name="Rectángulo 298495" width="1.69" height="6.368" transform="translate(299.834 100.855)" fill="#7b9fbd"/>
      <rect id="Rectángulo_298496" data-name="Rectángulo 298496" width="1.69" height="6.368" transform="translate(299.834 113.916)" fill="#7b9fbd"/>
      <rect id="Rectángulo_298497" data-name="Rectángulo 298497" width="1.69" height="6.368" transform="translate(299.834 127.01)" fill="#7b9fbd"/>
      <rect id="Rectángulo_298498" data-name="Rectángulo 298498" width="1.69" height="6.368" transform="translate(299.834 140.072)" fill="#7b9fbd"/>
      <rect id="Rectángulo_298499" data-name="Rectángulo 298499" width="1.69" height="6.368" transform="translate(299.834 153.166)" fill="#7b9fbd"/>
      <rect id="Rectángulo_298500" data-name="Rectángulo 298500" width="1.69" height="6.368" transform="translate(299.834 166.228)" fill="#7b9fbd"/>
      <path id="Trazado_602264" data-name="Trazado 602264" d="M924.09,558.433l-1.69-.065.195-6.368,1.69.065Z" transform="translate(-622.696 -372.645)" fill="#7b9fbd"/>
      <path id="Trazado_602265" data-name="Trazado 602265" d="M905.732,600.408,904.4,599.4l3.8-5.1,1.332,1.007Z" transform="translate(-610.544 -401.201)" fill="#7b9fbd"/>
      <path id="Trazado_602266" data-name="Trazado 602266" d="M865.425,626.057,865.1,624.4l6.238-1.3.325,1.657Z" transform="translate(-584.013 -420.644)" fill="#7b9fbd"/>
      <rect id="Rectángulo_298501" data-name="Rectángulo 298501" width="6.368" height="1.69" transform="translate(267.538 203.464)" fill="#7b9fbd"/>
      <rect id="Rectángulo_298502" data-name="Rectángulo 298502" width="6.368" height="1.69" transform="translate(254.443 203.464)" fill="#7b9fbd"/>
      <rect id="Rectángulo_298503" data-name="Rectángulo 298503" width="6.368" height="1.69" transform="translate(241.382 203.464)" fill="#7b9fbd"/>
      <rect id="Rectángulo_298504" data-name="Rectángulo 298504" width="6.368" height="1.69" transform="translate(228.287 203.464)" fill="#7b9fbd"/>
      <rect id="Rectángulo_298505" data-name="Rectángulo 298505" width="6.368" height="1.69" transform="translate(215.226 203.464)" fill="#7b9fbd"/>
      <rect id="Rectángulo_298506" data-name="Rectángulo 298506" width="6.368" height="1.69" transform="translate(202.132 203.464)" fill="#7b9fbd"/>
      <rect id="Rectángulo_298507" data-name="Rectángulo 298507" width="6.401" height="1.69" transform="translate(189.037 203.464)" fill="#7b9fbd"/>
      <rect id="Rectángulo_298508" data-name="Rectángulo 298508" width="6.368" height="1.69" transform="translate(175.976 203.464)" fill="#7b9fbd"/>
      <rect id="Rectángulo_298509" data-name="Rectángulo 298509" width="6.368" height="1.69" transform="translate(162.881 203.464)" fill="#7b9fbd"/>
      <rect id="Rectángulo_298510" data-name="Rectángulo 298510" width="6.368" height="1.69" transform="translate(149.82 203.464)" fill="#7b9fbd"/>
      <rect id="Rectángulo_298511" data-name="Rectángulo 298511" width="6.401" height="1.69" transform="translate(136.726 203.464)" fill="#7b9fbd"/>
      <rect id="Rectángulo_298512" data-name="Rectángulo 298512" width="6.368" height="1.69" transform="translate(123.664 203.464)" fill="#7b9fbd"/>
      <rect id="Rectángulo_298513" data-name="Rectángulo 298513" width="6.368" height="1.69" transform="translate(110.57 203.464)" fill="#7b9fbd"/>
      <rect id="Rectángulo_298514" data-name="Rectángulo 298514" width="6.368" height="1.69" transform="translate(97.508 203.464)" fill="#7b9fbd"/>
      <rect id="Rectángulo_298515" data-name="Rectángulo 298515" width="6.368" height="1.69" transform="translate(84.414 203.464)" fill="#7b9fbd"/>
      <rect id="Rectángulo_298516" data-name="Rectángulo 298516" width="6.368" height="1.69" transform="translate(71.352 203.464)" fill="#7b9fbd"/>
      <rect id="Rectángulo_298517" data-name="Rectángulo 298517" width="6.368" height="1.69" transform="translate(58.258 203.464)" fill="#7b9fbd"/>
      <path id="Trazado_602267" data-name="Trazado 602267" d="M139,627.89V626.2l6.368.032v1.69Z" transform="translate(-93.836 -422.736)" fill="#7b9fbd"/>
      <path id="Trazado_602268" data-name="Trazado 602268" d="M96.7,614.162l.812-1.462,5.556,3.152-.812,1.462Z" transform="translate(-65.28 -413.623)" fill="#7b9fbd"/>
      <path id="Trazado_602269" data-name="Trazado 602269" d="M73.3,575.92l1.592-.52,2.014,6.043-1.592.52Z" transform="translate(-49.484 -388.442)" fill="#7b9fbd"/>
      <rect id="Rectángulo_298518" data-name="Rectángulo 298518" width="1.69" height="6.368" transform="translate(23.524 173.344)" fill="#7b9fbd"/>
      <rect id="Rectángulo_298519" data-name="Rectángulo 298519" width="1.69" height="6.368" transform="translate(23.524 160.282)" fill="#7b9fbd"/>
      <rect id="Rectángulo_298520" data-name="Rectángulo 298520" width="1.69" height="6.368" transform="translate(23.524 147.188)" fill="#7b9fbd"/>
      <rect id="Rectángulo_298521" data-name="Rectángulo 298521" width="1.69" height="6.368" transform="translate(23.524 134.126)" fill="#7b9fbd"/>
      <rect id="Rectángulo_298522" data-name="Rectángulo 298522" width="1.69" height="6.368" transform="translate(23.524 121.032)" fill="#7b9fbd"/>
      <rect id="Rectángulo_298523" data-name="Rectángulo 298523" width="1.69" height="6.368" transform="translate(23.524 107.938)" fill="#7b9fbd"/>
      <rect id="Rectángulo_298524" data-name="Rectángulo 298524" width="1.69" height="6.368" transform="translate(23.524 94.876)" fill="#7b9fbd"/>
      <rect id="Rectángulo_298525" data-name="Rectángulo 298525" width="1.69" height="6.368" transform="translate(23.524 81.814)" fill="#7b9fbd"/>
      <rect id="Rectángulo_298526" data-name="Rectángulo 298526" width="1.69" height="6.368" transform="translate(23.524 68.72)" fill="#7b9fbd"/>
      <rect id="Rectángulo_298527" data-name="Rectángulo 298527" width="1.69" height="6.368" transform="translate(23.524 55.626)" fill="#7b9fbd"/>
      <rect id="Rectángulo_298528" data-name="Rectángulo 298528" width="1.69" height="6.368" transform="translate(23.524 42.564)" fill="#7b9fbd"/>
      <rect id="Rectángulo_298529" data-name="Rectángulo 298529" width="1.69" height="6.368" transform="translate(23.524 29.47)" fill="#7b9fbd"/>
      <path id="Trazado_602270" data-name="Trazado 602270" d="M72.28,49.3l1.657.195-.78,6.336L71.5,55.636Z" transform="translate(-48.268 -33.282)" fill="#7b9fbd"/>
      <path id="Trazado_602271" data-name="Trazado 602271" d="M90.979,11.3l1.137,1.235-4.679,4.354L86.3,15.654Z" transform="translate(-58.26 -7.628)" fill="#7b9fbd"/>
      <rect id="Rectángulo_298530" data-name="Rectángulo 298530" width="6.368" height="1.69" transform="translate(153.166 69.89)" fill="#7b9fbd"/>
      <rect id="Rectángulo_298531" data-name="Rectángulo 298531" width="6.368" height="1.69" transform="translate(166.228 69.89)" fill="#7b9fbd"/>
      <rect id="Rectángulo_298532" data-name="Rectángulo 298532" width="6.368" height="1.69" transform="translate(179.322 69.89)" fill="#7b9fbd"/>
      <rect id="Rectángulo_298533" data-name="Rectángulo 298533" width="6.368" height="1.69" transform="translate(192.416 69.89)" fill="#7b9fbd"/>
      <rect id="Rectángulo_298534" data-name="Rectángulo 298534" width="6.368" height="1.69" transform="translate(205.478 69.89)" fill="#7b9fbd"/>
      <rect id="Rectángulo_298535" data-name="Rectángulo 298535" width="6.368" height="1.69" transform="translate(218.572 69.89)" fill="#7b9fbd"/>
      <rect id="Rectángulo_298536" data-name="Rectángulo 298536" width="6.368" height="1.69" transform="translate(231.634 69.89)" fill="#7b9fbd"/>
      <rect id="Rectángulo_298537" data-name="Rectángulo 298537" width="6.368" height="1.69" transform="translate(244.728 69.89)" fill="#7b9fbd"/>
      <rect id="Rectángulo_298538" data-name="Rectángulo 298538" width="6.368" height="1.69" transform="translate(257.79 69.89)" fill="#7b9fbd"/>
      <rect id="Rectángulo_298539" data-name="Rectángulo 298539" width="6.368" height="1.69" transform="translate(270.884 69.89)" fill="#7b9fbd"/>
      <rect id="Rectángulo_298540" data-name="Rectángulo 298540" width="6.368" height="1.69" transform="translate(283.946 69.89)" fill="#7b9fbd"/>
      <rect id="Rectángulo_298541" data-name="Rectángulo 298541" width="6.368" height="1.69" transform="translate(297.04 69.89)" fill="#7b9fbd"/>
      <rect id="Rectángulo_298542" data-name="Rectángulo 298542" width="6.368" height="1.69" transform="translate(310.102 69.89)" fill="#7b9fbd"/>
      <rect id="Rectángulo_298543" data-name="Rectángulo 298543" width="6.368" height="1.69" transform="translate(323.196 69.89)" fill="#7b9fbd"/>
      <rect id="Rectángulo_298544" data-name="Rectángulo 298544" width="6.368" height="1.69" transform="translate(336.29 69.89)" fill="#7b9fbd"/>
      <rect id="Rectángulo_298545" data-name="Rectángulo 298545" width="6.368" height="1.69" transform="translate(349.352 69.89)" fill="#7b9fbd"/>
      <rect id="Rectángulo_298546" data-name="Rectángulo 298546" width="6.368" height="1.69" transform="translate(362.446 69.89)" fill="#7b9fbd"/>
      <rect id="Rectángulo_298547" data-name="Rectángulo 298547" width="6.368" height="1.69" transform="translate(375.508 69.89)" fill="#7b9fbd"/>
      <path id="Trazado_602272" data-name="Trazado 602272" d="M1204.263,218.477l-.585,1.592-5.978-2.177.585-1.592Z" transform="translate(-808.546 -146.02)" fill="#7b9fbd"/>
      <path id="Trazado_602273" data-name="Trazado 602273" d="M1238.619,247.154l-1.495.78-2.924-5.654,1.495-.78Z" transform="translate(-833.186 -163.032)" fill="#7b9fbd"/>
      <rect id="Rectángulo_298548" data-name="Rectángulo 298548" width="1.689" height="6.368" transform="translate(404.913 92.277)" fill="#7b9fbd"/>
      <rect id="Rectángulo_298549" data-name="Rectángulo 298549" width="1.689" height="6.368" transform="translate(404.913 105.338)" fill="#7b9fbd"/>
      <rect id="Rectángulo_298550" data-name="Rectángulo 298550" width="1.689" height="6.368" transform="translate(404.913 118.433)" fill="#7b9fbd"/>
      <rect id="Rectángulo_298551" data-name="Rectángulo 298551" width="1.689" height="6.368" transform="translate(404.913 131.494)" fill="#7b9fbd"/>
      <rect id="Rectángulo_298552" data-name="Rectángulo 298552" width="1.689" height="6.368" transform="translate(404.913 144.589)" fill="#7b9fbd"/>
      <rect id="Rectángulo_298553" data-name="Rectángulo 298553" width="1.689" height="6.368" transform="translate(404.913 157.651)" fill="#7b9fbd"/>
      <rect id="Rectángulo_298554" data-name="Rectángulo 298554" width="1.689" height="6.368" transform="translate(404.913 170.744)" fill="#7b9fbd"/>
      <rect id="Rectángulo_298555" data-name="Rectángulo 298555" width="1.689" height="6.368" transform="translate(404.913 183.806)" fill="#7b9fbd"/>
      <rect id="Rectángulo_298556" data-name="Rectángulo 298556" width="1.689" height="6.368" transform="translate(404.913 196.9)" fill="#7b9fbd"/>
      <rect id="Rectángulo_298557" data-name="Rectángulo 298557" width="1.689" height="6.368" transform="translate(404.913 209.962)" fill="#7b9fbd"/>
      <rect id="Rectángulo_298558" data-name="Rectángulo 298558" width="1.689" height="6.368" transform="translate(404.913 223.056)" fill="#7b9fbd"/>
      <rect id="Rectángulo_298559" data-name="Rectángulo 298559" width="1.689" height="6.368" transform="translate(404.913 236.118)" fill="#7b9fbd"/>
      <path id="Trazado_602274" data-name="Trazado 602274" d="M1245.9,773.469l1.69.065.195-6.368-1.69-.065Z" transform="translate(-841.084 -517.856)" fill="#7b9fbd"/>
      <path id="Trazado_602275" data-name="Trazado 602275" d="M1229.232,815.508,1227.9,814.5l3.8-5.1,1.332,1.007Z" transform="translate(-828.933 -546.411)" fill="#7b9fbd"/>
      <path id="Trazado_602276" data-name="Trazado 602276" d="M1188.6,839.5l.325,1.657,6.238-1.3-.325-1.657Z" transform="translate(-802.403 -565.853)" fill="#7b9fbd"/>
      <rect id="Rectángulo_298560" data-name="Rectángulo 298560" width="6.368" height="1.69" transform="translate(372.616 273.354)" fill="#7b9fbd"/>
      <rect id="Rectángulo_298561" data-name="Rectángulo 298561" width="6.368" height="1.69" transform="translate(359.554 273.354)" fill="#7b9fbd"/>
      <rect id="Rectángulo_298562" data-name="Rectángulo 298562" width="6.368" height="1.69" transform="translate(346.46 273.354)" fill="#7b9fbd"/>
      <rect id="Rectángulo_298563" data-name="Rectángulo 298563" width="6.368" height="1.69" transform="translate(333.398 273.354)" fill="#7b9fbd"/>
      <rect id="Rectángulo_298564" data-name="Rectángulo 298564" width="6.368" height="1.69" transform="translate(320.304 273.354)" fill="#7b9fbd"/>
      <rect id="Rectángulo_298565" data-name="Rectángulo 298565" width="6.368" height="1.69" transform="translate(307.243 273.354)" fill="#7b9fbd"/>
      <rect id="Rectángulo_298566" data-name="Rectángulo 298566" width="6.368" height="1.69" transform="translate(294.148 273.354)" fill="#7b9fbd"/>
      <rect id="Rectángulo_298567" data-name="Rectángulo 298567" width="6.368" height="1.69" transform="translate(281.087 273.354)" fill="#7b9fbd"/>
      <rect id="Rectángulo_298568" data-name="Rectángulo 298568" width="6.368" height="1.69" transform="translate(267.992 273.354)" fill="#7b9fbd"/>
      <rect id="Rectángulo_298569" data-name="Rectángulo 298569" width="6.368" height="1.69" transform="translate(254.898 273.354)" fill="#7b9fbd"/>
      <rect id="Rectángulo_298570" data-name="Rectángulo 298570" width="6.368" height="1.69" transform="translate(241.837 273.354)" fill="#7b9fbd"/>
      <rect id="Rectángulo_298571" data-name="Rectángulo 298571" width="6.368" height="1.69" transform="translate(228.775 273.354)" fill="#7b9fbd"/>
      <rect id="Rectángulo_298572" data-name="Rectángulo 298572" width="6.368" height="1.69" transform="translate(215.681 273.354)" fill="#7b9fbd"/>
      <rect id="Rectángulo_298573" data-name="Rectángulo 298573" width="6.368" height="1.69" transform="translate(202.586 273.354)" fill="#7b9fbd"/>
      <rect id="Rectángulo_298574" data-name="Rectángulo 298574" width="6.368" height="1.69" transform="translate(189.525 273.354)" fill="#7b9fbd"/>
      <rect id="Rectángulo_298575" data-name="Rectángulo 298575" width="6.368" height="1.69" transform="translate(176.431 273.354)" fill="#7b9fbd"/>
      <rect id="Rectángulo_298576" data-name="Rectángulo 298576" width="6.368" height="1.69" transform="translate(163.369 273.354)" fill="#7b9fbd"/>
      <path id="Trazado_602277" data-name="Trazado 602277" d="M462.5,842.99l6.368.032v-1.69L462.5,841.3Z" transform="translate(-312.225 -567.946)" fill="#7b9fbd"/>
      <path id="Trazado_602278" data-name="Trazado 602278" d="M420.1,829.262l.812-1.462,5.556,3.152-.812,1.462Z" transform="translate(-283.602 -558.833)" fill="#7b9fbd"/>
      <path id="Trazado_602279" data-name="Trazado 602279" d="M396.8,791.02l1.592-.52,2.014,6.043-1.592.52Z" transform="translate(-267.872 -533.652)" fill="#7b9fbd"/>
      <rect id="Rectángulo_298577" data-name="Rectángulo 298577" width="1.69" height="6.368" transform="translate(128.635 243.234)" fill="#7b9fbd"/>
      <rect id="Rectángulo_298578" data-name="Rectángulo 298578" width="1.69" height="6.368" transform="translate(128.635 230.172)" fill="#7b9fbd"/>
      <rect id="Rectángulo_298579" data-name="Rectángulo 298579" width="1.69" height="6.368" transform="translate(128.635 217.078)" fill="#7b9fbd"/>
      <rect id="Rectángulo_298580" data-name="Rectángulo 298580" width="1.69" height="6.368" transform="translate(128.635 204.016)" fill="#7b9fbd"/>
      <rect id="Rectángulo_298581" data-name="Rectángulo 298581" width="1.69" height="6.368" transform="translate(128.635 190.922)" fill="#7b9fbd"/>
      <rect id="Rectángulo_298582" data-name="Rectángulo 298582" width="1.69" height="6.368" transform="translate(128.635 177.86)" fill="#7b9fbd"/>
      <rect id="Rectángulo_298583" data-name="Rectángulo 298583" width="1.69" height="6.368" transform="translate(128.635 164.766)" fill="#7b9fbd"/>
      <rect id="Rectángulo_298584" data-name="Rectángulo 298584" width="1.69" height="6.368" transform="translate(128.635 151.704)" fill="#7b9fbd"/>
      <rect id="Rectángulo_298585" data-name="Rectángulo 298585" width="1.69" height="6.368" transform="translate(128.635 138.61)" fill="#7b9fbd"/>
      <rect id="Rectángulo_298586" data-name="Rectángulo 298586" width="1.69" height="6.368" transform="translate(128.635 125.548)" fill="#7b9fbd"/>
      <rect id="Rectángulo_298587" data-name="Rectángulo 298587" width="1.69" height="6.368" transform="translate(128.635 112.454)" fill="#7b9fbd"/>
      <rect id="Rectángulo_298588" data-name="Rectángulo 298588" width="1.69" height="6.368" transform="translate(128.635 99.36)" fill="#7b9fbd"/>
      <path id="Trazado_602280" data-name="Trazado 602280" d="M395.78,264.4l1.657.195-.78,6.336L395,270.736Z" transform="translate(-266.657 -178.492)" fill="#7b9fbd"/>
      <path id="Trazado_602281" data-name="Trazado 602281" d="M414.379,226.4l1.137,1.235-4.679,4.354-1.137-1.235Z" transform="translate(-276.581 -152.839)" fill="#7b9fbd"/>
      <g id="Grupo_888070" data-name="Grupo 888070">
        <g id="Grupo_888069" data-name="Grupo 888069" clip-path="url(#clip-path)">
          <path id="Trazado_602282" data-name="Trazado 602282" d="M443.9,100.6h51.3a20.206,20.206,0,0,0,10.137-2.664,16.787,16.787,0,0,0,8.545-13.712c1.3-14.719-14.3-18.1-14.3-18.1s1.527-9.65-6.531-13.777A12.573,12.573,0,0,0,479,53.814S467.623,41.792,452.027,47.8s-15.044,20.7-15.044,20.7S424.8,71.847,426.1,85.656a15.354,15.354,0,0,0,9.293,13.094A19.905,19.905,0,0,0,443.9,100.6" transform="translate(-287.586 -31.135)" fill="#26aab7"/>
          <path id="Trazado_602284" data-name="Trazado 602284" d="M723.7,150.245h38.6a15.3,15.3,0,0,0,7.635-1.982,12.61,12.61,0,0,0,6.433-10.3c.975-11.08-10.755-13.614-10.755-13.614s1.137-7.246-4.906-10.365a9.391,9.391,0,0,0-10.56,1.1s-8.545-9.033-20.307-4.516a16.782,16.782,0,0,0-11.307,15.6,11.782,11.782,0,0,0-8.188,12.9,11.628,11.628,0,0,0,6.986,9.878,15.728,15.728,0,0,0,6.368,1.3" transform="translate(-479.495 -73.792)" fill="#071629"/>
          <path id="Trazado_602285" data-name="Trazado 602285" d="M559.271,133.37h51.3a20.206,20.206,0,0,0,10.137-2.664,16.787,16.787,0,0,0,8.545-13.712c1.3-14.719-14.3-18.1-14.3-18.1s1.527-9.65-6.531-13.777A12.486,12.486,0,0,0,594.4,86.614S583.023,74.592,567.427,80.6s-15.044,20.73-15.044,20.73A15.667,15.667,0,0,0,541.5,118.456a15.355,15.355,0,0,0,9.293,13.094,20.111,20.111,0,0,0,8.48,1.82" transform="translate(-365.49 -53.277)" fill="#fff"/>
          <path id="Trazado_602286" data-name="Trazado 602286" d="M1036.858,456.3H973.109c-2.664,0-4.809,1.852-4.809,4.094V571.451c0,2.274,2.144,4.094,4.809,4.094h63.749c2.664,0,4.809-1.852,4.809-4.094V460.394c0-2.274-2.177-4.094-4.809-4.094" transform="translate(-653.682 -308.04)" fill="#071629"/>
          <path id="Trazado_602287" data-name="Trazado 602287" d="M988.794,456.3a4.1,4.1,0,0,0-4.094,4.094V571.451a4.1,4.1,0,0,0,4.094,4.094h27.261V456.3Z" transform="translate(-664.753 -308.04)" fill="#cecfce"/>
          <path id="Trazado_602288" data-name="Trazado 602288" d="M1108.461,456.3H1081.2V575.577h27.261a4.1,4.1,0,0,0,4.094-4.094V460.394a4.077,4.077,0,0,0-4.094-4.094" transform="translate(-729.899 -308.04)" fill="#b7b8bd"/>
          <path id="Trazado_602289" data-name="Trazado 602289" d="M1049.984,489.252H998.192a1.6,1.6,0,0,1-1.592-1.592V468.392a1.6,1.6,0,0,1,1.592-1.592h51.792a1.6,1.6,0,0,1,1.592,1.592V487.66a1.6,1.6,0,0,1-1.592,1.592" transform="translate(-672.787 -315.128)" fill="#fff"/>
          <path id="Trazado_602290" data-name="Trazado 602290" d="M1049.724,564.919h-51.3a1.817,1.817,0,0,1-1.82-1.82V544.32a1.817,1.817,0,0,1,1.82-1.82h51.3a1.816,1.816,0,0,1,1.819,1.82V563.1a1.8,1.8,0,0,1-1.819,1.82" transform="translate(-672.787 -366.232)" fill="#fff"/>
          <path id="Trazado_602291" data-name="Trazado 602291" d="M1096.177,619.5a2.177,2.177,0,1,1-2.177,2.177,2.177,2.177,0,0,1,2.177-2.177" transform="translate(-738.54 -418.213)" fill="#f47b48"/>
          <path id="Trazado_602292" data-name="Trazado 602292" d="M1121.477,619.5a2.177,2.177,0,1,1-2.177,2.177,2.177,2.177,0,0,1,2.177-2.177" transform="translate(-755.619 -418.213)" fill="#3e4f69"/>
          <path id="Trazado_602293" data-name="Trazado 602293" d="M1147.577,619.5a2.177,2.177,0,1,1-2.177,2.177,2.177,2.177,0,0,1,2.177-2.177" transform="translate(-773.239 -418.213)" fill="#88c0dd"/>
          <path id="Trazado_602294" data-name="Trazado 602294" d="M1071.209,723.7h0a4.8,4.8,0,0,1-4.809-4.809V702.609a4.809,4.809,0,1,1,9.618,0v16.246a4.826,4.826,0,0,1-4.809,4.841" transform="translate(-719.907 -471.072)" fill="#071629"/>
          <path id="Trazado_602295" data-name="Trazado 602295" d="M1074.419,728a3.119,3.119,0,1,1-3.119,3.119,3.119,3.119,0,0,1,3.119-3.119" transform="translate(-723.215 -491.46)" fill="#f47b48"/>
          <path id="Trazado_602300" data-name="Trazado 602300" d="M204.854,272.729H143.737A3.716,3.716,0,0,1,140,268.993v-5.556a3.716,3.716,0,0,1,3.737-3.737h61.117a3.716,3.716,0,0,1,3.737,3.737v5.556a3.737,3.737,0,0,1-3.737,3.737" transform="translate(-94.511 -175.319)" fill="#88c0dd"/>
          <path id="Trazado_602301" data-name="Trazado 602301" d="M190.688,275.11H154.719a3.12,3.12,0,0,1-3.119-3.119v-2.372a3.12,3.12,0,0,1,3.119-3.119h35.936a3.12,3.12,0,0,1,3.119,3.119v2.372a3.113,3.113,0,0,1-3.087,3.119" transform="translate(-102.342 -179.909)" fill="#071629"/>
          <path id="Trazado_602302" data-name="Trazado 602302" d="M308.2,268.2a4,4,0,1,1-4,4,4,4,0,0,1,4-4" transform="translate(-205.36 -181.057)" fill="#fff"/>
          <path id="Trazado_602303" data-name="Trazado 602303" d="M204.854,316.629H143.737A3.716,3.716,0,0,1,140,312.893v-5.556a3.716,3.716,0,0,1,3.737-3.737h61.117a3.716,3.716,0,0,1,3.737,3.737v5.556a3.758,3.758,0,0,1-3.737,3.737" transform="translate(-94.511 -204.955)" fill="#88c0dd"/>
          <path id="Trazado_602304" data-name="Trazado 602304" d="M190.688,319.01H154.719a3.12,3.12,0,0,1-3.119-3.119v-2.372a3.12,3.12,0,0,1,3.119-3.119h35.936a3.12,3.12,0,0,1,3.119,3.119v2.372a3.113,3.113,0,0,1-3.087,3.119" transform="translate(-102.342 -209.545)" fill="#071629"/>
          <path id="Trazado_602305" data-name="Trazado 602305" d="M308.2,311.2a4,4,0,1,1-4,4,4,4,0,0,1,4-4" transform="translate(-205.36 -210.085)" fill="#fff"/>
          <path id="Trazado_602306" data-name="Trazado 602306" d="M204.854,360.829H143.737A3.716,3.716,0,0,1,140,357.093v-5.556a3.716,3.716,0,0,1,3.737-3.737h61.117a3.716,3.716,0,0,1,3.737,3.737v5.556a3.737,3.737,0,0,1-3.737,3.737" transform="translate(-94.511 -234.793)" fill="#88c0dd"/>
          <path id="Trazado_602307" data-name="Trazado 602307" d="M190.688,363.21H154.719a3.12,3.12,0,0,1-3.119-3.119v-2.372a3.12,3.12,0,0,1,3.119-3.119h35.936a3.12,3.12,0,0,1,3.119,3.119v2.372a3.113,3.113,0,0,1-3.087,3.119" transform="translate(-102.342 -239.384)" fill="#071629"/>
          <path id="Trazado_602308" data-name="Trazado 602308" d="M308.2,354.5a4,4,0,1,1-4,4,4,4,0,0,1,4-4" transform="translate(-205.36 -239.317)" fill="#fff"/>
          <rect id="Rectángulo_298589" data-name="Rectángulo 298589" width="33.402" height="1.43" transform="translate(53.644 88.118)" fill="#f47b48"/>
          <rect id="Rectángulo_298590" data-name="Rectángulo 298590" width="33.402" height="1.43" transform="translate(53.644 102.707)" fill="#f47b48"/>
          <rect id="Rectángulo_298591" data-name="Rectángulo 298591" width="33.402" height="1.43" transform="translate(53.644 117.198)" fill="#f47b48"/>
          <path id="Trazado_602309" data-name="Trazado 602309" d="M141.882,564.422H20.2V495.474a2.26,2.26,0,0,1,2.274-2.274H139.607a2.26,2.26,0,0,1,2.274,2.274Z" transform="translate(-13.637 -332.95)" fill="#fff"/>
          <path id="Trazado_602310" data-name="Trazado 602310" d="M142.747,566.042H22.3V497.874a2.26,2.26,0,0,1,2.274-2.274h115.9a2.26,2.26,0,0,1,2.274,2.274Z" transform="translate(-15.054 -334.571)" fill="#071629"/>
          <path id="Trazado_602311" data-name="Trazado 602311" d="M145.951,569.681H32.1V505.932a.032.032,0,0,1,.032-.033H145.919a.032.032,0,0,1,.033.033Z" transform="translate(-21.67 -341.524)" fill="#3e4f69"/>
          <path id="Trazado_602312" data-name="Trazado 602312" d="M134.224,716.139H.585A.582.582,0,0,1,0,715.554v-2.567a.5.5,0,0,1,.487-.487h133.8a.5.5,0,0,1,.487.487v2.567a.537.537,0,0,1-.552.585" transform="translate(0 -480.996)" fill="#fff"/>
          <path id="Trazado_602313" data-name="Trazado 602313" d="M68.431,723.7H1.4a9.2,9.2,0,0,0,3.444,1.982H132.017a8.9,8.9,0,0,0,3.444-1.982Z" transform="translate(-0.945 -488.557)" fill="#efefef"/>
          <path id="Trazado_602314" data-name="Trazado 602314" d="M198.152,714.577H187.917A1.921,1.921,0,0,1,186,712.66v-.26h14.036v.26a1.893,1.893,0,0,1-1.885,1.917" transform="translate(-125.565 -480.928)" fill="#dadbdb"/>
          <path id="Trazado_602315" data-name="Trazado 602315" d="M386.834,717.715h-3.477a.357.357,0,0,1,0-.715h3.477a.357.357,0,0,1,0,.715" transform="translate(-258.556 -484.034)" fill="#dadbdb"/>
          <rect id="Rectángulo_298592" data-name="Rectángulo 298592" width="23.524" height="23.524" transform="translate(13.971 168.275)" fill="#5b92bc"/>
          <rect id="Rectángulo_298593" data-name="Rectángulo 298593" width="52.474" height="29.34" transform="translate(13.971 195.016)" fill="#88c0dd"/>
          <rect id="Rectángulo_298594" data-name="Rectángulo 298594" width="52.474" height="29.34" transform="translate(68.72 195.016)" fill="#26aab7"/>
          <rect id="Rectángulo_298595" data-name="Rectángulo 298595" width="54.521" height="32.102" transform="translate(41.46 178.965)" fill="#fff"/>
          <rect id="Rectángulo_298596" data-name="Rectángulo 298596" width="45.359" height="2.664" transform="translate(46.073 182.117)" fill="#3e4f69"/>
          <rect id="Rectángulo_298597" data-name="Rectángulo 298597" width="45.359" height="2.664" transform="translate(46.073 186.828)" fill="#3e4f69"/>
          <rect id="Rectángulo_298598" data-name="Rectángulo 298598" width="45.359" height="2.664" transform="translate(46.073 191.637)" fill="#3e4f69"/>
        </g>
      </g>
      <g id="Grupo_888076" data-name="Grupo 888076">
        <g id="Grupo_888075" data-name="Grupo 888075" clip-path="url(#clip-path)">
          <path id="Trazado_602318" data-name="Trazado 602318" d="M633.767,607.815H556.761a5.366,5.366,0,0,1-5.361-5.361V512.061a5.366,5.366,0,0,1,5.361-5.361h77.006a5.366,5.366,0,0,1,5.361,5.361v90.392a5.366,5.366,0,0,1-5.361,5.361" transform="translate(-372.24 -342.064)" fill="#fff"/>
          <path id="Trazado_602319" data-name="Trazado 602319" d="M634.4,608.585H558.661a5.366,5.366,0,0,1-5.361-5.361V514.261a5.366,5.366,0,0,1,5.361-5.361H634.4a5.366,5.366,0,0,1,5.361,5.361v88.93a5.332,5.332,0,0,1-5.361,5.394" transform="translate(-373.523 -343.549)" fill="#071629"/>
          <path id="Trazado_602320" data-name="Trazado 602320" d="M645.273,619.517H580.224a2.912,2.912,0,0,1-2.924-2.924V540.724a2.912,2.912,0,0,1,2.924-2.924h65.049a2.912,2.912,0,0,1,2.924,2.924v75.868a2.912,2.912,0,0,1-2.924,2.924" transform="translate(-389.725 -363.059)" fill="#3e4f69"/>
          <rect id="Rectángulo_298602" data-name="Rectángulo 298602" width="32.914" height="22.419" transform="translate(190.434 181.564)" fill="#cecfce"/>
          <rect id="Rectángulo_298603" data-name="Rectángulo 298603" width="32.589" height="44.579" transform="translate(190.434 207.883)" fill="#26aab7"/>
          <rect id="Rectángulo_298604" data-name="Rectángulo 298604" width="29.21" height="70.767" transform="translate(226.37 181.727)" fill="#5b92bc"/>
        </g>
      </g>
      <g id="Grupo_888082" data-name="Grupo 888082">
        <g id="Grupo_888081" data-name="Grupo 888081" clip-path="url(#clip-path)">
          <path id="Trazado_602323" data-name="Trazado 602323" d="M1113.052,252.4h-17.513a4.937,4.937,0,0,1-4.939-4.939V207.339a4.937,4.937,0,0,1,4.939-4.939h17.513a4.937,4.937,0,0,1,4.939,4.939v40.127a4.979,4.979,0,0,1-4.939,4.939" transform="translate(-736.244 -136.637)" fill="#fff"/>
          <rect id="Rectángulo_298608" data-name="Rectángulo 298608" width="27.391" height="36.586" transform="translate(354.356 72.554)" fill="#071629"/>
          <path id="Trazado_602324" data-name="Trazado 602324" d="M1127.345,214.775h-8.058a.487.487,0,1,1,0-.975h8.058a.487.487,0,1,1,0,.975" transform="translate(-755.282 -144.333)" fill="#3e4f69"/>
          <path id="Trazado_602325" data-name="Trazado 602325" d="M1129.055,340.5a1.755,1.755,0,1,1-1.755,1.755,1.755,1.755,0,0,1,1.755-1.755" transform="translate(-761.02 -229.865)" fill="#cecfce"/>
          <rect id="Rectángulo_298609" data-name="Rectángulo 298609" width="11.762" height="10.852" transform="translate(356.273 74.536)" fill="#cecfce"/>
          <rect id="Rectángulo_298610" data-name="Rectángulo 298610" width="11.762" height="20.015" transform="translate(356.273 87.338)" fill="#5b92bc"/>
          <path id="Trazado_602332" data-name="Trazado 602332" d="M0,0H10.527V32.817H0Z" transform="translate(369.399 74.536)" fill="#26aab7"/>
        </g>
      </g>
      <g id="Grupo_888088" data-name="Grupo 888088">
        <g id="Grupo_888087" data-name="Grupo 888087" clip-path="url(#clip-path)">
          <path id="Trazado_602328" data-name="Trazado 602328" d="M417.384,246.5v37.983l-53.611,29.243H312.5" transform="translate(-210.963 -166.408)" fill="none" stroke="#fff" stroke-miterlimit="10" stroke-width="3"/>
          <path id="Trazado_602329" data-name="Trazado 602329" d="M717.5,246.5v30.38l56.633,21.315h52.052" transform="translate(-484.371 -166.408)" fill="none" stroke="#fff" stroke-miterlimit="10" stroke-width="3"/>
          <line id="Línea_1985" data-name="Línea 1985" y2="70.637" transform="translate(219.872 80.092)" fill="none" stroke="#fff" stroke-miterlimit="10" stroke-width="3"/>
          <path id="Trazado_602330" data-name="Trazado 602330" d="M474.492,246.5v14.751l-37.171,17.676H415" transform="translate(-280.159 -166.408)" fill="none" stroke="#fff" stroke-miterlimit="10" stroke-width="3"/>
          <path id="Trazado_602331" data-name="Trazado 602331" d="M753.7,246.5v16.343l40.55,14.979h55.009" transform="translate(-508.809 -166.408)" fill="none" stroke="#fff" stroke-miterlimit="10" stroke-width="3"/>
          <circle id="Elipse_7975" data-name="Elipse 7975" cx="3.412" cy="3.412" r="3.412" transform="translate(95.461 143.906)" fill="none" stroke="#fff" stroke-miterlimit="10" stroke-width="3"/>
          <circle id="Elipse_7976" data-name="Elipse 7976" cx="3.412" cy="3.412" r="3.412" transform="translate(128.635 109.107)" fill="none" stroke="#fff" stroke-miterlimit="10" stroke-width="3"/>
          <circle id="Elipse_7977" data-name="Elipse 7977" cx="3.412" cy="3.412" r="3.412" transform="translate(216.46 150.08)" fill="none" stroke="#fff" stroke-miterlimit="10" stroke-width="3"/>
          <circle id="Elipse_7978" data-name="Elipse 7978" cx="3.412" cy="3.412" r="3.412" transform="translate(341.132 128.375)" fill="none" stroke="#fff" stroke-miterlimit="10" stroke-width="3"/>
          <circle id="Elipse_7979" data-name="Elipse 7979" cx="3.412" cy="3.412" r="3.412" transform="translate(339.799 108.003)" fill="none" stroke="#fff" stroke-miterlimit="10" stroke-width="3"/>
        </g>
      </g>
    </g>
    <text id="API" transform="translate(-10091 -2558)" fill="#fb8c00" font-size="16" font-family="Roboto-Bold, Roboto" font-weight="700"><tspan x="0" y="0">API</tspan></text>
  </g>
</svg>
