<svg xmlns="http://www.w3.org/2000/svg" xmlns:xlink="http://www.w3.org/1999/xlink" width="505" height="368" viewBox="0 0 505 368">
  <defs>
    <clipPath id="clip-path">
      <rect id="Rect치ngulo_298103" data-name="Rect치ngulo 298103" width="202.319" height="311.915" fill="none"/>
    </clipPath>
  </defs>
  <g id="Grupo_887452" data-name="Grupo 887452" transform="translate(-915 -1082)">
    <rect id="Rect치ngulo_298105" data-name="Rect치ngulo 298105" width="505" height="368" transform="translate(915 1082)" fill="#1565c0"/>
    <g id="Grupo_887358" data-name="Grupo 887358" transform="translate(1072.539 1107.51)">
      <path id="Trazado_601018" data-name="Trazado 601018" d="M1592.02,1278.715l-.325,104.082,43.427,25.094,43.167-25.094.261-104.082-43.427-25.029Z" transform="translate(-1476.236 -1162.746)" fill="#dedffb"/>
      <path id="Trazado_601019" data-name="Trazado 601019" d="M2190.5,1623.965l-.3,104.077,43.15-25.076.295-104.077Z" transform="translate(-2031.33 -1482.908)" fill="#e9e7fc"/>
      <path id="Trazado_601020" data-name="Trazado 601020" d="M2235.129,1697.551l36.691-21.323-.274,96.611-36.693,21.322Z" transform="translate(-2072.741 -1554.637)" fill="#12263f"/>
      <path id="Trazado_601021" data-name="Trazado 601021" d="M1635.388,1624.091l-.3,104.077-43.416-25.066.3-104.077Z" transform="translate(-1476.22 -1483.034)" fill="#dedffb"/>
      <path id="Trazado_601022" data-name="Trazado 601022" d="M1595.746,1278.406l43.416,25.066,43.15-25.076L1638.9,1253.33Z" transform="translate(-1479.993 -1162.415)" fill="#f3f1fc"/>
      <path id="Trazado_601023" data-name="Trazado 601023" d="M910.487,1724.208l-.26,104.082-43.167,25.094-43.427-25.094.325-104.082,43.167-25.094Z" transform="translate(-763.888 -1575.863)" fill="#dedffb"/>
      <path id="Trazado_601024" data-name="Trazado 601024" d="M1465.9,2045.058l-.3,104.077-43.15,25.076.3-104.077Z" transform="translate(-1319.269 -1896.713)" fill="#e9e7fc"/>
      <path id="Trazado_601025" data-name="Trazado 601025" d="M867.637,2070.26l-.3,104.077-43.416-25.067.3-104.077Z" transform="translate(-764.159 -1896.838)" fill="#dedffb"/>
      <path id="Trazado_601026" data-name="Trazado 601026" d="M914.56,1724.565l-43.15,25.076-43.416-25.066,43.15-25.076Z" transform="translate(-767.932 -1576.22)" fill="#f3f1fc"/>
      <path id="Trazado_601027" data-name="Trazado 601027" d="M.065,3409.113,0,3425.43l43.427,25.029,43.1-25.029.065-16.318-43.427-25.094Z" transform="translate(0 -3138.548)" fill="#e9e7fc"/>
      <path id="Trazado_601028" data-name="Trazado 601028" d="M598.646,3754.605l-.046,16.321,43.119-25.058.046-16.322Z" transform="translate(-555.179 -3459.012)" fill="#e9e7fc"/>
      <path id="Trazado_601029" data-name="Trazado 601029" d="M.282,3745.874l43.4,25.058.046-16.322-43.4-25.058Z" transform="translate(-0.261 -3459.017)" fill="#dedffb"/>
      <path id="Trazado_601030" data-name="Trazado 601030" d="M.919,3409.166l43.4,25.058,43.119-25.058-43.4-25.057Z" transform="translate(-0.853 -3138.63)" fill="#f3f1fc"/>
      <path id="Trazado_601031" data-name="Trazado 601031" d="M637.147,3624.192l-.042,7.636L598.432,3654.3l.042-7.637Z" transform="translate(-555.023 -3361.3)" fill="#1565c0"/>
      <path id="Trazado_601032" data-name="Trazado 601032" d="M100.765,3646.671l-.041,7.637L61.8,3631.833l.042-7.637Z" transform="translate(-57.314 -3361.303)" fill="#1565c0"/>
      <path id="Trazado_601033" data-name="Trazado 601033" d="M637.356,4002.975l-10.974,6.377-.033,11.683,11.006-6.4Z" transform="translate(-580.915 -3712.606)" fill="#26aab7"/>
      <path id="Trazado_601034" data-name="Trazado 601034" d="M882.563,3789.54V3801.2l20.521-11.927.033-11.681Z" transform="translate(-818.543 -3503.575)" fill="#57b3fe"/>
      <path id="Trazado_601035" data-name="Trazado 601035" d="M1018.46,3838.611l0,.895-10.242,5.913,0-.9Z" transform="translate(-935.083 -3560.165)" fill="#fff"/>
      <path id="Trazado_601036" data-name="Trazado 601036" d="M997.6,3885.809l0,.895-11.884,6.861,0-.9Z" transform="translate(-914.213 -3603.938)" fill="#fff"/>
      <path id="Trazado_601037" data-name="Trazado 601037" d="M955.675,3909.408l0,.9-15.168,8.757,0-.895Z" transform="translate(-872.284 -3625.826)" fill="#fff"/>
      <path id="Trazado_601038" data-name="Trazado 601038" d="M955.541,3862.209l0,.895-15.168,8.757,0-.895Z" transform="translate(-872.16 -3582.051)" fill="#fff"/>
      <path id="Trazado_601039" data-name="Trazado 601039" d="M955.407,3815.012l0,.9-15.168,8.757,0-.9Z" transform="translate(-872.036 -3538.278)" fill="#fff"/>
      <path id="Trazado_601040" data-name="Trazado 601040" d="M649.385,4149.583l0,.9-6.588,3.8,0-.894Z" transform="translate(-596.169 -3848.579)" fill="#fff"/>
      <path id="Trazado_601041" data-name="Trazado 601041" d="M647.938,4136.965l0,.895-5.208,3.007,0-.9Z" transform="translate(-596.107 -3836.877)" fill="#fff"/>
      <path id="Trazado_601042" data-name="Trazado 601042" d="M649.251,4102.385l0,.9-6.588,3.8,0-.9Z" transform="translate(-596.045 -3804.805)" fill="#fff"/>
      <path id="Trazado_601043" data-name="Trazado 601043" d="M647.8,4089.768l0,.895-5.208,3.007,0-.9Z" transform="translate(-595.983 -3793.103)" fill="#fff"/>
      <path id="Trazado_601044" data-name="Trazado 601044" d="M649.117,4055.188l0,.895-6.588,3.8,0-.9Z" transform="translate(-595.921 -3761.031)" fill="#fff"/>
      <path id="Trazado_601045" data-name="Trazado 601045" d="M.065,3085.506,0,3101.824l43.427,25.029,43.1-25.029.065-16.318-43.427-25.03Z" transform="translate(0 -2838.475)" fill="#dedffb"/>
      <path id="Trazado_601046" data-name="Trazado 601046" d="M598.6,3446.865l.046-16.321,43.119-25.058-.046,16.322Z" transform="translate(-555.179 -3158.458)" fill="#e9e7fc"/>
      <path id="Trazado_601047" data-name="Trazado 601047" d="M.282,3421.813l43.4,25.058.046-16.322-43.4-25.058Z" transform="translate(-0.261 -3158.462)" fill="#dedffb"/>
      <path id="Trazado_601048" data-name="Trazado 601048" d="M.919,3085.105l43.4,25.057L87.439,3085.1l-43.4-25.058Z" transform="translate(-0.853 -2838.077)" fill="#f3f1fc"/>
      <path id="Trazado_601049" data-name="Trazado 601049" d="M637.147,3300.131l-.042,7.637-38.674,22.475.042-7.637Z" transform="translate(-555.023 -3060.745)" fill="#1565c0"/>
      <path id="Trazado_601050" data-name="Trazado 601050" d="M100.765,3322.609l-.041,7.636L61.8,3307.772l.042-7.637Z" transform="translate(-57.314 -3060.749)" fill="#1565c0"/>
      <path id="Trazado_601051" data-name="Trazado 601051" d="M637.356,3678.914l-10.974,6.378-.033,11.683,11.006-6.4Z" transform="translate(-580.915 -3412.051)" fill="#26aab7"/>
      <path id="Trazado_601052" data-name="Trazado 601052" d="M882.563,3465.479v11.664l20.521-11.927.033-11.681Z" transform="translate(-818.543 -3203.021)" fill="#57b3fe"/>
      <path id="Trazado_601053" data-name="Trazado 601053" d="M1018.46,3514.55l0,.895-10.242,5.913,0-.895Z" transform="translate(-935.083 -3259.61)" fill="#fff"/>
      <path id="Trazado_601054" data-name="Trazado 601054" d="M997.6,3561.747l0,.895-11.884,6.861,0-.895Z" transform="translate(-914.213 -3303.384)" fill="#fff"/>
      <path id="Trazado_601055" data-name="Trazado 601055" d="M955.675,3585.346l0,.9L940.509,3595l0-.9Z" transform="translate(-872.284 -3325.271)" fill="#fff"/>
      <path id="Trazado_601056" data-name="Trazado 601056" d="M955.541,3538.148l0,.895-15.168,8.757,0-.895Z" transform="translate(-872.16 -3281.497)" fill="#fff"/>
      <path id="Trazado_601057" data-name="Trazado 601057" d="M955.407,3490.951l0,.895-15.168,8.758,0-.895Z" transform="translate(-872.036 -3237.723)" fill="#fff"/>
      <path id="Trazado_601058" data-name="Trazado 601058" d="M649.385,3825.521l0,.9-6.588,3.8,0-.895Z" transform="translate(-596.169 -3548.025)" fill="#fff"/>
      <path id="Trazado_601059" data-name="Trazado 601059" d="M647.938,3812.9l0,.895-5.208,3.007,0-.895Z" transform="translate(-596.107 -3536.322)" fill="#fff"/>
      <path id="Trazado_601060" data-name="Trazado 601060" d="M649.251,3778.324l0,.895-6.588,3.8,0-.895Z" transform="translate(-596.045 -3504.251)" fill="#fff"/>
      <path id="Trazado_601061" data-name="Trazado 601061" d="M647.8,3765.707l0,.895-5.208,3.007,0-.895Z" transform="translate(-595.983 -3492.549)" fill="#fff"/>
      <path id="Trazado_601062" data-name="Trazado 601062" d="M649.117,3731.127l0,.895-6.588,3.8,0-.9Z" transform="translate(-595.921 -3460.477)" fill="#fff"/>
      <path id="Trazado_601063" data-name="Trazado 601063" d="M.065,2761.073,0,2777.391l43.427,25.094,43.1-25.094.065-16.318-43.427-25.029Z" transform="translate(0 -2537.575)" fill="#dedffb"/>
      <path id="Trazado_601064" data-name="Trazado 601064" d="M641.765,3081.425l-.046,16.322L598.6,3122.8l.046-16.322Z" transform="translate(-555.179 -2857.904)" fill="#e9e7fc"/>
      <path id="Trazado_601065" data-name="Trazado 601065" d="M.282,3097.751l43.4,25.058.046-16.322L.328,3081.43Z" transform="translate(-0.261 -2857.908)" fill="#dedffb"/>
      <path id="Trazado_601066" data-name="Trazado 601066" d="M.919,2761.044l43.4,25.058,43.119-25.058-43.4-25.058Z" transform="translate(-0.853 -2537.522)" fill="#f3f1fc"/>
      <path id="Trazado_601067" data-name="Trazado 601067" d="M637.147,2976.069l-.042,7.637-38.674,22.475.042-7.637Z" transform="translate(-555.023 -2760.19)" fill="#1565c0"/>
      <path id="Trazado_601068" data-name="Trazado 601068" d="M100.765,2998.548l-.041,7.637L61.8,2983.71l.042-7.637Z" transform="translate(-57.314 -2760.194)" fill="#1565c0"/>
      <path id="Trazado_601069" data-name="Trazado 601069" d="M637.356,3354.853l-10.974,6.377-.033,11.684,11.006-6.4Z" transform="translate(-580.915 -3111.497)" fill="#26aab7"/>
      <path id="Trazado_601070" data-name="Trazado 601070" d="M882.563,3141.417v11.664l20.521-11.927.033-11.681Z" transform="translate(-818.543 -2902.466)" fill="#57b3fe"/>
      <path id="Trazado_601071" data-name="Trazado 601071" d="M1018.46,3190.489l0,.9-10.242,5.913,0-.9Z" transform="translate(-935.083 -2959.056)" fill="#fff"/>
      <path id="Trazado_601072" data-name="Trazado 601072" d="M997.6,3237.686l0,.895-11.884,6.861,0-.9Z" transform="translate(-914.213 -3002.83)" fill="#fff"/>
      <path id="Trazado_601073" data-name="Trazado 601073" d="M955.675,3261.285l0,.895-15.168,8.757,0-.895Z" transform="translate(-872.284 -3024.717)" fill="#fff"/>
      <path id="Trazado_601074" data-name="Trazado 601074" d="M955.541,3214.087l0,.9-15.168,8.757,0-.9Z" transform="translate(-872.16 -2980.942)" fill="#fff"/>
      <path id="Trazado_601075" data-name="Trazado 601075" d="M955.407,3166.89l0,.895-15.168,8.758,0-.895Z" transform="translate(-872.036 -2937.169)" fill="#fff"/>
      <path id="Trazado_601076" data-name="Trazado 601076" d="M649.385,3501.461l0,.895-6.588,3.8,0-.895Z" transform="translate(-596.169 -3247.471)" fill="#fff"/>
      <path id="Trazado_601077" data-name="Trazado 601077" d="M647.938,3488.842l0,.9-5.208,3.007,0-.895Z" transform="translate(-596.107 -3235.768)" fill="#fff"/>
      <path id="Trazado_601078" data-name="Trazado 601078" d="M649.251,3454.262l0,.9-6.588,3.8,0-.9Z" transform="translate(-596.045 -3203.696)" fill="#fff"/>
      <path id="Trazado_601079" data-name="Trazado 601079" d="M647.8,3441.645l0,.9-5.208,3.007,0-.895Z" transform="translate(-595.983 -3191.994)" fill="#fff"/>
      <path id="Trazado_601080" data-name="Trazado 601080" d="M649.117,3407.065l0,.895-6.588,3.8,0-.895Z" transform="translate(-595.921 -3159.923)" fill="#fff"/>
      <path id="Trazado_601081" data-name="Trazado 601081" d="M.065,2436.7,0,2453.021l43.427,25.03,43.1-25.03.065-16.318-43.427-25.094Z" transform="translate(0 -2236.675)" fill="#dedffb"/>
      <path id="Trazado_601082" data-name="Trazado 601082" d="M598.6,2798.743l.046-16.322,43.119-25.058-.046,16.322Z" transform="translate(-555.179 -2557.349)" fill="#e9e7fc"/>
      <path id="Trazado_601083" data-name="Trazado 601083" d="M.282,2773.691l43.4,25.058.046-16.322-43.4-25.058Z" transform="translate(-0.261 -2557.354)" fill="#dedffb"/>
      <path id="Trazado_601084" data-name="Trazado 601084" d="M.919,2436.983l43.4,25.057,43.119-25.058-43.4-25.058Z" transform="translate(-0.853 -2236.968)" fill="#f3f1fc"/>
      <path id="Trazado_601085" data-name="Trazado 601085" d="M139.462,2651.8v7.672L100.781,2681.9l-38.941-22.428.065-7.672,38.877,22.494Z" transform="translate(-57.354 -2459.44)" fill="#1565c0"/>
      <path id="Trazado_601086" data-name="Trazado 601086" d="M637.356,3030.792l-10.974,6.377-.033,11.683,11.006-6.4Z" transform="translate(-580.915 -2810.943)" fill="#26aab7"/>
      <path id="Trazado_601087" data-name="Trazado 601087" d="M882.563,2817.356v11.663l20.521-11.927.033-11.682Z" transform="translate(-818.543 -2601.912)" fill="#57b3fe"/>
      <path id="Trazado_601088" data-name="Trazado 601088" d="M1018.46,2866.427l0,.895-10.242,5.913,0-.895Z" transform="translate(-935.083 -2658.501)" fill="#fff"/>
      <path id="Trazado_601089" data-name="Trazado 601089" d="M997.6,2913.624l0,.9-11.884,6.861,0-.895Z" transform="translate(-914.213 -2702.275)" fill="#fff"/>
      <path id="Trazado_601090" data-name="Trazado 601090" d="M955.675,2937.224l0,.9-15.168,8.757,0-.895Z" transform="translate(-872.284 -2724.162)" fill="#fff"/>
      <path id="Trazado_601091" data-name="Trazado 601091" d="M955.541,2890.026l0,.9-15.168,8.757,0-.895Z" transform="translate(-872.16 -2680.388)" fill="#fff"/>
      <path id="Trazado_601092" data-name="Trazado 601092" d="M955.407,2842.829l0,.895-15.168,8.758,0-.9Z" transform="translate(-872.036 -2636.615)" fill="#fff"/>
      <path id="Trazado_601093" data-name="Trazado 601093" d="M649.385,3177.4l0,.895-6.588,3.8,0-.895Z" transform="translate(-596.169 -2946.916)" fill="#fff"/>
      <path id="Trazado_601094" data-name="Trazado 601094" d="M647.938,3164.781l0,.895-5.208,3.007,0-.895Z" transform="translate(-596.107 -2935.213)" fill="#fff"/>
      <path id="Trazado_601095" data-name="Trazado 601095" d="M649.251,3130.2l0,.895-6.588,3.8,0-.9Z" transform="translate(-596.045 -2903.142)" fill="#fff"/>
      <path id="Trazado_601096" data-name="Trazado 601096" d="M647.8,3117.584l0,.9-5.208,3.007,0-.895Z" transform="translate(-595.983 -2891.439)" fill="#fff"/>
      <path id="Trazado_601097" data-name="Trazado 601097" d="M649.117,3083l0,.895-6.588,3.8,0-.895Z" transform="translate(-595.921 -2859.368)" fill="#fff"/>
      <path id="Trazado_601098" data-name="Trazado 601098" d="M.065,2113.1,0,2129.419l43.427,25.094,43.1-25.094.065-16.318-43.427-25.029Z" transform="translate(0 -1936.607)" fill="#dedffb"/>
      <path id="Trazado_601099" data-name="Trazado 601099" d="M598.6,2474.682l.046-16.322,43.119-25.058-.046,16.322Z" transform="translate(-555.179 -2256.794)" fill="#e9e7fc"/>
      <path id="Trazado_601100" data-name="Trazado 601100" d="M.282,2449.629l43.4,25.058.046-16.322-43.4-25.058Z" transform="translate(-0.261 -2256.799)" fill="#dedffb"/>
      <path id="Trazado_601101" data-name="Trazado 601101" d="M.919,2112.921l43.4,25.057,43.119-25.058-43.4-25.057Z" transform="translate(-0.853 -1936.413)" fill="#f3f1fc"/>
      <path id="Trazado_601102" data-name="Trazado 601102" d="M637.356,2706.73l-10.974,6.377-.033,11.683,11.006-6.4Z" transform="translate(-580.915 -2510.388)" fill="#26aab7"/>
      <path id="Trazado_601103" data-name="Trazado 601103" d="M882.563,2493.295v11.664l20.521-11.927.033-11.681Z" transform="translate(-818.543 -2301.358)" fill="#57b3fe"/>
      <path id="Trazado_601104" data-name="Trazado 601104" d="M1018.46,2542.366l0,.895-10.242,5.913,0-.9Z" transform="translate(-935.083 -2357.947)" fill="#fff"/>
      <path id="Trazado_601105" data-name="Trazado 601105" d="M997.6,2589.563l0,.9-11.884,6.861,0-.9Z" transform="translate(-914.213 -2401.72)" fill="#fff"/>
      <path id="Trazado_601106" data-name="Trazado 601106" d="M955.675,2613.163l0,.9-15.168,8.757,0-.9Z" transform="translate(-872.284 -2423.608)" fill="#fff"/>
      <path id="Trazado_601107" data-name="Trazado 601107" d="M955.541,2565.965l0,.9-15.168,8.757,0-.895Z" transform="translate(-872.16 -2379.834)" fill="#fff"/>
      <path id="Trazado_601108" data-name="Trazado 601108" d="M955.407,2518.768l0,.895-15.168,8.758,0-.9Z" transform="translate(-872.036 -2336.06)" fill="#fff"/>
      <path id="Trazado_601109" data-name="Trazado 601109" d="M649.385,2853.338l0,.895-6.588,3.8,0-.9Z" transform="translate(-596.169 -2646.362)" fill="#fff"/>
      <path id="Trazado_601110" data-name="Trazado 601110" d="M647.938,2840.72l0,.9-5.208,3.007,0-.9Z" transform="translate(-596.107 -2634.659)" fill="#fff"/>
      <path id="Trazado_601111" data-name="Trazado 601111" d="M649.251,2806.14l0,.895-6.588,3.8,0-.895Z" transform="translate(-596.045 -2602.587)" fill="#fff"/>
      <path id="Trazado_601112" data-name="Trazado 601112" d="M647.8,2793.523l0,.895-5.208,3.007,0-.9Z" transform="translate(-595.983 -2590.886)" fill="#fff"/>
      <path id="Trazado_601113" data-name="Trazado 601113" d="M649.117,2758.943l0,.895-6.588,3.8,0-.895Z" transform="translate(-595.921 -2558.814)" fill="#fff"/>
      <path id="Trazado_601114" data-name="Trazado 601114" d="M1507.479,2122.4v28.138l-36.679,21.337-.032-28.138Z" transform="translate(-1364.081 -1968.448)" fill="#fff"/>
      <g id="Grupo_887355" data-name="Grupo 887355">
        <g id="Grupo_887354" data-name="Grupo 887354" clip-path="url(#clip-path)">
          <path id="Trazado_601115" data-name="Trazado 601115" d="M1532.325,2284.835V2298.7l-32.5,18.756v-14.422a3.83,3.83,0,0,0,4.6.484,6.648,6.648,0,0,0,1.557-1.349c2.769-3.045,4.015-7.06,6.437-8.444a3.488,3.488,0,0,1,1.7-.519c2.976-.138,5.26.8,7.648-.588a8.894,8.894,0,0,0,1.661-1.35c2.111-2.18,4.464-4.672,6.471-5.814a3.633,3.633,0,0,1,2.423-.623" transform="translate(-1391.035 -2119.062)" fill="#fb8c00"/>
          <path id="Trazado_601116" data-name="Trazado 601116" d="M1700.543,2703.853c.785-.453,1.418-.092,1.421.81a3.141,3.141,0,0,1-1.411,2.466c-.785.453-1.418.07-1.421-.832a3.1,3.1,0,0,1,1.411-2.444" transform="translate(-1575.88 -2507.538)" fill="#f45170"/>
          <path id="Trazado_601117" data-name="Trazado 601117" d="M1760.152,2669.408c.784-.453,1.437-.1,1.44.8a3.181,3.181,0,0,1-1.431,2.478c-.784.453-1.418.07-1.42-.832a3.1,3.1,0,0,1,1.411-2.444" transform="translate(-1631.165 -2475.591)" fill="#57b3fe"/>
          <path id="Trazado_601118" data-name="Trazado 601118" d="M1819.761,2634.993c.784-.453,1.437-.1,1.44.8a3.18,3.18,0,0,1-1.43,2.477c-.784.453-1.418.07-1.42-.832a3.1,3.1,0,0,1,1.411-2.444" transform="translate(-1686.45 -2443.671)" fill="#78e75a"/>
          <path id="Trazado_601119" data-name="Trazado 601119" d="M1879.37,2600.577c.784-.453,1.437-.1,1.44.8a3.182,3.182,0,0,1-1.43,2.477c-.784.453-1.418.07-1.42-.832a3.1,3.1,0,0,1,1.411-2.444" transform="translate(-1741.735 -2411.753)" fill="#b28afd"/>
          <path id="Trazado_601120" data-name="Trazado 601120" d="M1938.979,2566.163c.785-.453,1.437-.1,1.44.8a3.181,3.181,0,0,1-1.43,2.477c-.785.453-1.418.07-1.421-.831a3.1,3.1,0,0,1,1.411-2.444" transform="translate(-1797.02 -2379.834)" fill="#dba660"/>
        </g>
      </g>
      <path id="Trazado_601121" data-name="Trazado 601121" d="M1475.652,2910.288l.006,2.314-4.883,2.819-.007-2.314Z" transform="translate(-1364.081 -2699.181)" fill="#c9cee2"/>
      <path id="Trazado_601122" data-name="Trazado 601122" d="M1566.053,2858.1l.007,2.314-4.884,2.819-.006-2.314Z" transform="translate(-1447.925 -2650.774)" fill="#c9cee2"/>
      <path id="Trazado_601123" data-name="Trazado 601123" d="M1656.453,2805.9l.007,2.314-4.884,2.819-.007-2.314Z" transform="translate(-1531.767 -2602.367)" fill="#c9cee2"/>
      <path id="Trazado_601124" data-name="Trazado 601124" d="M1746.854,2753.71l.007,2.314-4.884,2.819-.007-2.314Z" transform="translate(-1615.611 -2553.96)" fill="#c9cee2"/>
      <path id="Trazado_601125" data-name="Trazado 601125" d="M1837.241,2701.617l.007,2.314-4.871,2.812-.007-2.314Z" transform="translate(-1699.453 -2505.646)" fill="#c9cee2"/>
      <path id="Trazado_601126" data-name="Trazado 601126" d="M1927.642,2649.424l.006,2.314-4.871,2.812-.007-2.314Z" transform="translate(-1783.297 -2457.239)" fill="#c9cee2"/>
      <path id="Trazado_601127" data-name="Trazado 601127" d="M1668.2,2774.244v28.106l-24.142-14.053.129-.1Z" transform="translate(-1524.801 -2573.005)" fill="#fff"/>
      <path id="Trazado_601128" data-name="Trazado 601128" d="M1507.479,2982.027v.032l-26.623,15.471-2.836,1.644-7.22,4.222v-11.668l-.032-16.47,12.57-7.284Z" transform="translate(-1364.081 -2752.682)" fill="#fff"/>
      <path id="Trazado_601129" data-name="Trazado 601129" d="M1521.349,2988.282v3.315l-26.914,15.6-16.448-9.492-7.216-4.161v-3.315l-.065-16.448,12.547-7.281.13-.13,24.054,13.847,13.847,8.062Z" transform="translate(-1364.023 -2751.198)" fill="#9ea9c9"/>
      <path id="Trazado_601130" data-name="Trazado 601130" d="M1824.789,3271.889l-26.885,15.624.009-3.287L1824.8,3268.6Z" transform="translate(-1667.487 -3031.502)" fill="#b0b8cf"/>
      <path id="Trazado_601131" data-name="Trazado 601131" d="M1494.91,3309.126v3.288l-16.477-9.518-7.22-4.158v-3.287l10.056,5.8Z" transform="translate(-1364.494 -3056.405)" fill="#9ea9c9"/>
      <path id="Trazado_601132" data-name="Trazado 601132" d="M1521.371,2988.528l-26.881,15.632-13.634-7.864-10.056-5.8-.032-16.47,12.57-7.284.129-.1,24.013,13.859Z" transform="translate(-1364.081 -2751.448)" fill="#c9cee2"/>
      <g id="Grupo_887357" data-name="Grupo 887357">
        <g id="Grupo_887356" data-name="Grupo 887356" clip-path="url(#clip-path)">
          <path id="Trazado_601133" data-name="Trazado 601133" d="M2122.263,1458.79c2.429,1.4,2.471,3.69.029,5.109a9.771,9.771,0,0,1-8.82,0c-2.429-1.4-2.442-3.707-.029-5.109a9.719,9.719,0,0,1,8.82,0" transform="translate(-1958.466 -1351.991)" fill="#b0b8cf"/>
          <path id="Trazado_601134" data-name="Trazado 601134" d="M1328.133,1922.218c2.429,1.4,2.471,3.69.029,5.109a9.77,9.77,0,0,1-8.82,0c-2.429-1.4-2.442-3.706-.029-5.109a9.718,9.718,0,0,1,8.82,0" transform="translate(-1221.941 -1781.802)" fill="#b0b8cf"/>
          <path id="Trazado_601135" data-name="Trazado 601135" d="M549.834,2398.823c2.429,1.4,2.471,3.69.029,5.109a9.77,9.77,0,0,1-8.82,0c-2.429-1.4-2.442-3.706-.029-5.109a9.718,9.718,0,0,1,8.82,0" transform="translate(-500.099 -2223.835)" fill="#b0b8cf"/>
          <path id="Trazado_601136" data-name="Trazado 601136" d="M600.191,1284.449h-.006a1.945,1.945,0,0,1-1.943-1.955l.089-22a1.945,1.945,0,0,1,.968-1.679l114.28-66.414a1.948,1.948,0,0,1,2.93,1.7l-.089,20.1a1.948,1.948,0,0,1-1.949,1.94h-.01a1.945,1.945,0,0,1-1.94-1.959l.073-16.691-110.369,64.141-.086,20.887a1.948,1.948,0,0,1-1.949,1.943" transform="translate(-554.846 -1105.655)" fill="#4c5c75"/>
          <path id="Trazado_601137" data-name="Trazado 601137" d="M1375.462,1387.131a1.949,1.949,0,0,1-1.949-1.949v-43.289a1.949,1.949,0,1,1,3.9,0v43.289a1.949,1.949,0,0,1-1.949,1.949" transform="translate(-1273.881 -1242.747)" fill="#4c5c75"/>
          <path id="Trazado_601138" data-name="Trazado 601138" d="M427.548,50.93c.029,13.345-9.371,29.679-21.063,36.41l-77.113,44.533c-5.948,3.423-11.344,3.684-15.173,1.363-.029-.029-.058-.029-.087-.058l-11.44-6.648c-3.771-2.176-6.121-6.847-6.15-13.461C296.493,101,300.534,84.617,310.514,76.9c.174-13.374,9.545-29.476,21.034-36.091a24.57,24.57,0,0,1,5.135-2.292c4.932-14.041,15.086-27.648,26.72-34.379,8.384-4.845,15.986-5.28,21.469-2.118l15.29,8.757c5.425,3.133,8.762,9.835,8.79,19.322v.029L421.4,37.353c3.8,2.2,6.121,6.9,6.15,13.577" transform="translate(-275.013 0)" fill="#b0b8cf"/>
          <path id="Trazado_601139" data-name="Trazado 601139" d="M1575.976,337.406l19.907,11.569c-3.412-1.983-8-1.926-13.113.554l-19.907-11.569c5.115-2.481,9.7-2.537,13.113-.554" transform="translate(-1449.496 -311.629)" fill="#566df9"/>
          <path id="Trazado_601140" data-name="Trazado 601140" d="M913.647,10.778c-5.483-3.191-7.663,27.509-16.076,32.354-11.634,6.731-27.18-9.9-32.083,4.143l-15.319-8.757c4.932-14.041,15.086-27.648,26.72-34.379,8.384-4.845,15.985-5.28,21.469-2.118Z" transform="translate(-788.498 0)" fill="#678aee"/>
          <path id="Trazado_601141" data-name="Trazado 601141" d="M268.037,1116.533l-15.3-8.751c-3.782-2.2-6.133-6.858-6.151-13.477-.034-12.061,7.62-26.484,17.605-34.2l15.3,8.751c-9.985,7.716,17.711,8.086,17.745,20.146.019,6.619-32.98,25.333-29.2,27.531" transform="translate(-228.702 -983.207)" fill="#678aee"/>
          <path id="Trazado_601142" data-name="Trazado 601142" d="M504.589,578.282l-15.3-8.75c.179-13.387,9.562-29.474,21.032-36.1a24.613,24.613,0,0,1,5.16-2.273l15.3,8.751c-1.7.523,23.589,53.076,21.786,54.117-11.47,6.622-47.8-29.136-47.977-15.749" transform="translate(-453.8 -492.633)" fill="#566df9"/>
          <path id="Trazado_601143" data-name="Trazado 601143" d="M527.959,124.715c16.7-9.641,30.2-1.867,30.251,17.239a44.659,44.659,0,0,1-.664,7.773c10.787-5.232,19.22.319,19.256,13.042.038,13.345-9.381,29.659-21.067,36.406L478.622,243.7c-11.614,6.705-21.13,1.323-21.168-12.022-.034-12.061,7.62-26.484,17.605-34.2.179-13.387,9.562-29.473,21.032-36.1a24.611,24.611,0,0,1,5.16-2.273c4.91-14.043,15.059-27.666,26.709-34.392" transform="translate(-424.271 -111.827)" fill="#b2ebf2"/>
          <path id="Trazado_601144" data-name="Trazado 601144" d="M1064.7,495.26c12.957-7.481,23.455-1.5,23.5,13.321.042,14.959-10.387,32.952-23.345,40.433-12.9,7.446-23.394,1.535-23.437-13.424-.042-14.819,10.387-32.884,23.284-40.33" transform="translate(-965.872 -456.344)" fill="#fff"/>
          <path id="Trazado_601145" data-name="Trazado 601145" d="M1169.835,763.237l-2.512.759c-2.024,9.36-8.619,18.882-16.063,23.165a15.314,15.314,0,0,1-7.625,2.331,8.989,8.989,0,0,1-3.831-.813c-2.8-1.3-4.644-4.011-5.312-7.842l-.036-.127,2.837-2.24.072.379c.56,3.09,2.042,5.276,4.3,6.324,2.548,1.175,5.891.723,9.36-1.283,6.125-3.542,11.582-11.348,13.389-19.081l-2.71.777,5.493-8.709Z" transform="translate(-1052.165 -701.974)" fill="#1565c0"/>
          <path id="Trazado_601146" data-name="Trazado 601146" d="M1140.886,616.121l-2.819,2.223-.072-.361c-.578-3.108-2.078-5.294-4.318-6.324-2.548-1.175-5.854-.723-9.306,1.283-6.324,3.65-11.853,11.673-13.534,19.623l2.837-.831-5.529,8.764-2.584-6.4,2.385-.7c1.879-9.541,8.511-19.28,16.19-23.707,4.21-2.439,8.258-2.963,11.4-1.518,2.8,1.3,4.644,3.993,5.331,7.824Z" transform="translate(-1025.365 -563.315)" fill="#fb8c00"/>
          <path id="Trazado_601147" data-name="Trazado 601147" d="M2688.453,1811.89l.005,1.859,1.64-.947-.005-1.859Z" transform="translate(-2493.438 -1679.58)" fill="#ffd06c"/>
          <path id="Trazado_601148" data-name="Trazado 601148" d="M2644.172,1837.456l.005,1.859,1.595-.921.005,1.859,1.617-.934-.006-1.859-1.571.907-.005-1.859Z" transform="translate(-2452.368 -1703.291)" fill="#ffd06c"/>
          <path id="Trazado_601149" data-name="Trazado 601149" d="M2268.016,2080.467l.005,1.859,1.617-.934-.005-1.859Z" transform="translate(-2103.498 -1928.687)" fill="#ffd06c"/>
          <path id="Trazado_601150" data-name="Trazado 601150" d="M2511.329,1914.153l.005,1.859,1.594-.921.005,1.859,1.618-.934-.005-1.859-1.572.907-.005-1.859Z" transform="translate(-2329.162 -1774.425)" fill="#ffd06c"/>
          <path id="Trazado_601151" data-name="Trazado 601151" d="M2422.767,1965.114l.005,1.859,1.594-.921.005,1.859,1.618-.934-.005-1.859-1.548.894-.005-1.859Z" transform="translate(-2247.023 -1821.677)" fill="#ffd06c"/>
          <path id="Trazado_601152" data-name="Trazado 601152" d="M2378.8,1990.666l.005,1.859,1.571-.907.005,1.859,1.618-.934-.005-1.859-1.548.894-.005-1.859Z" transform="translate(-2206.25 -1845.388)" fill="#ffd06c"/>
          <path id="Trazado_601153" data-name="Trazado 601153" d="M2290.243,2041.8l.006,1.859,1.594-.921.005,1.859,1.618-.934-.005-1.859-1.571.907-.006-1.859Z" transform="translate(-2124.112 -1892.81)" fill="#ffd06c"/>
          <path id="Trazado_601154" data-name="Trazado 601154" d="M2555.61,1888.587l.005,1.859,1.594-.921,0,1.859,1.618-.934-.005-1.859-1.571.907-.005-1.859Z" transform="translate(-2370.23 -1750.714)" fill="#ffd06c"/>
          <path id="Trazado_601155" data-name="Trazado 601155" d="M2268.156,1904.909l0,1.516,32.144-18.558,0-1.517Z" transform="translate(-2103.628 -1749.518)" fill="#dedffb"/>
          <path id="Trazado_601156" data-name="Trazado 601156" d="M2688.453,1982.091l.005,1.859,1.64-.947-.005-1.859Z" transform="translate(-2493.438 -1837.435)" fill="#78e75a"/>
          <path id="Trazado_601157" data-name="Trazado 601157" d="M2644.172,2007.657l.005,1.859,1.595-.921.005,1.859,1.617-.934-.006-1.859-1.571.907-.005-1.859Z" transform="translate(-2452.368 -1861.146)" fill="#78e75a"/>
          <path id="Trazado_601158" data-name="Trazado 601158" d="M2268.016,2250.668l.005,1.859,1.617-.934-.005-1.859Z" transform="translate(-2103.498 -2086.542)" fill="#78e75a"/>
          <path id="Trazado_601159" data-name="Trazado 601159" d="M2511.329,2084.355l.005,1.859,1.594-.92.005,1.858,1.618-.934-.005-1.858-1.572.907-.005-1.859Z" transform="translate(-2329.162 -1932.28)" fill="#78e75a"/>
          <path id="Trazado_601160" data-name="Trazado 601160" d="M2422.767,2135.315l.005,1.859,1.594-.921.005,1.859,1.618-.934-.005-1.859-1.548.894-.005-1.859Z" transform="translate(-2247.023 -1979.531)" fill="#78e75a"/>
          <path id="Trazado_601161" data-name="Trazado 601161" d="M2378.8,2160.867l.005,1.858,1.571-.907.005,1.859,1.618-.934-.005-1.858-1.548.894-.005-1.859Z" transform="translate(-2206.25 -2003.242)" fill="#78e75a"/>
          <path id="Trazado_601162" data-name="Trazado 601162" d="M2334.524,2186.433l.005,1.859,1.594-.921.005,1.859,1.617-.934,0-1.859-1.572.907-.005-1.859Z" transform="translate(-2165.182 -2026.955)" fill="#78e75a"/>
          <path id="Trazado_601163" data-name="Trazado 601163" d="M2290.243,2212l.006,1.859,1.594-.92.005,1.859,1.618-.934-.005-1.859-1.571.907-.006-1.859Z" transform="translate(-2124.112 -2050.665)" fill="#78e75a"/>
          <path id="Trazado_601164" data-name="Trazado 601164" d="M2599.891,2033.223l.005,1.859,1.594-.921.005,1.859,1.618-.934-.005-1.859-1.571.907-.005-1.859Z" transform="translate(-2411.299 -1884.857)" fill="#78e75a"/>
          <path id="Trazado_601165" data-name="Trazado 601165" d="M2555.61,2058.788l.005,1.859,1.594-.921,0,1.859,1.618-.934-.005-1.859-1.571.907-.005-1.859Z" transform="translate(-2370.23 -1908.568)" fill="#78e75a"/>
          <path id="Trazado_601166" data-name="Trazado 601166" d="M2268.156,2075.11l0,1.517,32.144-18.559,0-1.516Z" transform="translate(-2103.628 -1907.373)" fill="#dedffb"/>
          <path id="Trazado_601167" data-name="Trazado 601167" d="M2688.453,2152.292l.005,1.859,1.64-.947-.005-1.859Z" transform="translate(-2493.438 -1995.29)" fill="#8fabfe"/>
          <path id="Trazado_601168" data-name="Trazado 601168" d="M2644.172,2177.858l.005,1.859,1.595-.921.005,1.859,1.617-.934-.006-1.859-1.571.907-.005-1.859Z" transform="translate(-2452.368 -2019.001)" fill="#8fabfe"/>
          <path id="Trazado_601169" data-name="Trazado 601169" d="M2268.016,2420.869l.005,1.859,1.617-.934-.005-1.859Z" transform="translate(-2103.498 -2244.397)" fill="#8fabfe"/>
          <path id="Trazado_601170" data-name="Trazado 601170" d="M2511.329,2254.556l.005,1.859,1.594-.921.005,1.859,1.618-.934-.005-1.859-1.572.907-.005-1.859Z" transform="translate(-2329.162 -2090.135)" fill="#8fabfe"/>
          <path id="Trazado_601171" data-name="Trazado 601171" d="M2467.048,2280.12l.005,1.859,1.594-.92.005,1.859,1.618-.934-.005-1.859-1.572.907-.005-1.859Z" transform="translate(-2288.092 -2113.846)" fill="#8fabfe"/>
          <path id="Trazado_601172" data-name="Trazado 601172" d="M2378.8,2331.068l.005,1.858,1.571-.907.005,1.859,1.618-.934-.005-1.859-1.548.894-.005-1.859Z" transform="translate(-2206.25 -2161.097)" fill="#8fabfe"/>
          <path id="Trazado_601173" data-name="Trazado 601173" d="M2334.524,2356.634l.005,1.859,1.594-.92.005,1.858,1.617-.934,0-1.859-1.572.907-.005-1.859Z" transform="translate(-2165.182 -2184.809)" fill="#8fabfe"/>
          <path id="Trazado_601174" data-name="Trazado 601174" d="M2290.243,2382.2l.006,1.859,1.594-.92.005,1.859,1.618-.934-.005-1.858-1.571.907-.006-1.859Z" transform="translate(-2124.112 -2208.52)" fill="#8fabfe"/>
          <path id="Trazado_601175" data-name="Trazado 601175" d="M2599.891,2203.424l.005,1.859,1.594-.92.005,1.859,1.618-.934-.005-1.859-1.571.907-.005-1.859Z" transform="translate(-2411.299 -2042.713)" fill="#8fabfe"/>
          <path id="Trazado_601176" data-name="Trazado 601176" d="M2268.156,2245.311l0,1.517,32.144-18.558,0-1.516Z" transform="translate(-2103.628 -2065.228)" fill="#dedffb"/>
          <path id="Trazado_601177" data-name="Trazado 601177" d="M2688.453,2322.493l.005,1.859,1.64-.947-.005-1.859Z" transform="translate(-2493.438 -2153.145)" fill="#fe90a9"/>
          <path id="Trazado_601178" data-name="Trazado 601178" d="M2644.172,2348.059l.005,1.859,1.595-.92.005,1.859,1.617-.934-.006-1.859-1.571.907-.005-1.859Z" transform="translate(-2452.368 -2176.856)" fill="#fe90a9"/>
          <path id="Trazado_601179" data-name="Trazado 601179" d="M2268.016,2591.07l.005,1.859,1.617-.934-.005-1.859Z" transform="translate(-2103.498 -2402.252)" fill="#fe90a9"/>
          <path id="Trazado_601180" data-name="Trazado 601180" d="M2511.329,2424.757l.005,1.859,1.594-.921.005,1.859,1.618-.934-.005-1.859-1.572.907-.005-1.859Z" transform="translate(-2329.162 -2247.99)" fill="#fe90a9"/>
          <path id="Trazado_601181" data-name="Trazado 601181" d="M2422.767,2475.717l.005,1.859,1.594-.921.005,1.859,1.618-.934-.005-1.859-1.548.894-.005-1.859Z" transform="translate(-2247.023 -2295.241)" fill="#fe90a9"/>
          <path id="Trazado_601182" data-name="Trazado 601182" d="M2378.8,2501.269l.005,1.859,1.571-.907.005,1.859,1.618-.934-.005-1.859-1.548.894-.005-1.859Z" transform="translate(-2206.25 -2318.953)" fill="#fe90a9"/>
          <path id="Trazado_601183" data-name="Trazado 601183" d="M2334.524,2526.835l.005,1.859,1.594-.921.005,1.859,1.617-.934,0-1.859-1.572.907-.005-1.859Z" transform="translate(-2165.182 -2342.665)" fill="#fe90a9"/>
          <path id="Trazado_601184" data-name="Trazado 601184" d="M2599.891,2373.625l.005,1.859,1.594-.92.005,1.859,1.618-.934-.005-1.859-1.571.907-.005-1.859Z" transform="translate(-2411.299 -2200.568)" fill="#fe90a9"/>
          <path id="Trazado_601185" data-name="Trazado 601185" d="M2555.61,2399.191l.005,1.859,1.594-.921,0,1.859,1.618-.934-.005-1.859-1.571.907-.005-1.859Z" transform="translate(-2370.23 -2224.279)" fill="#fe90a9"/>
          <path id="Trazado_601186" data-name="Trazado 601186" d="M2268.156,2415.512l0,1.517,32.144-18.558,0-1.516Z" transform="translate(-2103.628 -2223.083)" fill="#dedffb"/>
          <path id="Trazado_601187" data-name="Trazado 601187" d="M2688.453,2492.694l.005,1.859,1.64-.948-.005-1.859Z" transform="translate(-2493.438 -2311)" fill="#ffd06c"/>
          <path id="Trazado_601188" data-name="Trazado 601188" d="M2644.172,2518.26l.005,1.859,1.595-.92.005,1.859,1.617-.934-.006-1.859-1.571.907-.005-1.859Z" transform="translate(-2452.368 -2334.711)" fill="#ffd06c"/>
          <path id="Trazado_601189" data-name="Trazado 601189" d="M2268.016,2761.271l.005,1.859,1.617-.934-.005-1.859Z" transform="translate(-2103.498 -2560.107)" fill="#ffd06c"/>
          <path id="Trazado_601190" data-name="Trazado 601190" d="M2511.329,2594.958l.005,1.859,1.594-.921.005,1.859,1.618-.934-.005-1.859-1.572.907-.005-1.859Z" transform="translate(-2329.162 -2405.845)" fill="#ffd06c"/>
          <path id="Trazado_601191" data-name="Trazado 601191" d="M2467.048,2620.522l.005,1.859,1.594-.921.005,1.859,1.618-.934-.005-1.859-1.572.907-.005-1.859Z" transform="translate(-2288.092 -2429.556)" fill="#ffd06c"/>
          <path id="Trazado_601192" data-name="Trazado 601192" d="M2422.767,2645.917l.005,1.859,1.594-.92.005,1.859,1.618-.934-.005-1.859-1.548.894-.005-1.859Z" transform="translate(-2247.023 -2453.096)" fill="#ffd06c"/>
          <path id="Trazado_601193" data-name="Trazado 601193" d="M2378.8,2671.47l.005,1.859,1.571-.908.005,1.859,1.618-.934-.005-1.859-1.548.894-.005-1.859Z" transform="translate(-2206.25 -2476.808)" fill="#ffd06c"/>
          <path id="Trazado_601194" data-name="Trazado 601194" d="M2290.243,2722.6l.006,1.859,1.594-.921.005,1.859,1.618-.934-.005-1.858-1.571.907-.006-1.859Z" transform="translate(-2124.112 -2524.23)" fill="#ffd06c"/>
          <path id="Trazado_601195" data-name="Trazado 601195" d="M2599.891,2543.826l.005,1.859,1.594-.921.005,1.859,1.618-.934-.005-1.859-1.571.908-.005-1.859Z" transform="translate(-2411.299 -2358.422)" fill="#ffd06c"/>
          <path id="Trazado_601196" data-name="Trazado 601196" d="M2268.156,2585.713l0,1.517,32.144-18.558,0-1.516Z" transform="translate(-2103.628 -2380.938)" fill="#dedffb"/>
          <path id="Trazado_601197" data-name="Trazado 601197" d="M2688.453,2662.9l.005,1.859,1.64-.947-.005-1.859Z" transform="translate(-2493.438 -2468.855)" fill="#78e75a"/>
          <path id="Trazado_601198" data-name="Trazado 601198" d="M2644.172,2688.461l.005,1.859,1.595-.921.005,1.859,1.617-.934-.006-1.859-1.571.907-.005-1.859Z" transform="translate(-2452.368 -2492.566)" fill="#78e75a"/>
          <path id="Trazado_601199" data-name="Trazado 601199" d="M2268.016,2931.472l.005,1.859,1.617-.934-.005-1.859Z" transform="translate(-2103.498 -2717.962)" fill="#78e75a"/>
          <path id="Trazado_601200" data-name="Trazado 601200" d="M2467.048,2790.724l.005,1.859,1.594-.921.005,1.859,1.618-.934-.005-1.859-1.572.907-.005-1.859Z" transform="translate(-2288.092 -2587.411)" fill="#78e75a"/>
          <path id="Trazado_601201" data-name="Trazado 601201" d="M2422.767,2816.119l.005,1.858,1.594-.92.005,1.859,1.618-.934-.005-1.859-1.548.894-.005-1.859Z" transform="translate(-2247.023 -2610.952)" fill="#78e75a"/>
          <path id="Trazado_601202" data-name="Trazado 601202" d="M2378.8,2841.672l.005,1.859,1.571-.907.005,1.859,1.618-.934-.005-1.859-1.548.894-.005-1.859Z" transform="translate(-2206.25 -2634.663)" fill="#78e75a"/>
          <path id="Trazado_601203" data-name="Trazado 601203" d="M2334.524,2867.237l.005,1.859,1.594-.921.005,1.859,1.617-.934,0-1.859-1.572.907-.005-1.859Z" transform="translate(-2165.182 -2658.374)" fill="#78e75a"/>
          <path id="Trazado_601204" data-name="Trazado 601204" d="M2290.243,2892.8l.006,1.859,1.594-.921.005,1.859,1.618-.934-.005-1.859-1.571.907-.006-1.859Z" transform="translate(-2124.112 -2682.085)" fill="#78e75a"/>
          <path id="Trazado_601205" data-name="Trazado 601205" d="M2599.891,2714.027l.005,1.859,1.594-.921.005,1.859,1.618-.934-.005-1.858-1.571.907-.005-1.859Z" transform="translate(-2411.299 -2516.277)" fill="#78e75a"/>
          <path id="Trazado_601206" data-name="Trazado 601206" d="M2555.61,2739.593l.005,1.859,1.594-.921,0,1.859,1.618-.934-.005-1.859-1.571.907-.005-1.859Z" transform="translate(-2370.23 -2539.989)" fill="#78e75a"/>
          <path id="Trazado_601207" data-name="Trazado 601207" d="M2268.156,2755.915l0,1.517,32.144-18.559,0-1.516Z" transform="translate(-2103.628 -2538.793)" fill="#dedffb"/>
          <path id="Trazado_601208" data-name="Trazado 601208" d="M2644.172,2841.672l.005,1.859,1.595-.921.005,1.859,1.617-.934-.006-1.859-1.571.907-.005-1.859Z" transform="translate(-2452.368 -2634.663)" fill="#ffd06c"/>
          <path id="Trazado_601209" data-name="Trazado 601209" d="M2268.016,3084.682l.005,1.859,1.617-.934-.005-1.859Z" transform="translate(-2103.498 -2860.058)" fill="#ffd06c"/>
          <path id="Trazado_601210" data-name="Trazado 601210" d="M2467.048,2943.934l.005,1.858,1.594-.92.005,1.859,1.618-.934-.005-1.859-1.572.907-.005-1.859Z" transform="translate(-2288.092 -2729.508)" fill="#ffd06c"/>
          <path id="Trazado_601211" data-name="Trazado 601211" d="M2422.767,2969.329l.005,1.859,1.594-.921.005,1.859,1.618-.934-.005-1.859-1.548.894-.005-1.859Z" transform="translate(-2247.023 -2753.048)" fill="#ffd06c"/>
          <path id="Trazado_601212" data-name="Trazado 601212" d="M2334.524,3020.448l.005,1.859,1.594-.92.005,1.859,1.617-.934,0-1.859-1.572.908-.005-1.859Z" transform="translate(-2165.182 -2800.471)" fill="#ffd06c"/>
          <path id="Trazado_601213" data-name="Trazado 601213" d="M2290.243,3046.013l.006,1.858,1.594-.92.005,1.859,1.618-.934-.005-1.859-1.571.907-.006-1.859Z" transform="translate(-2124.112 -2824.182)" fill="#ffd06c"/>
          <path id="Trazado_601214" data-name="Trazado 601214" d="M2599.891,2867.237l.005,1.859,1.594-.92.005,1.859,1.618-.934-.005-1.859-1.571.907-.005-1.859Z" transform="translate(-2411.299 -2658.374)" fill="#ffd06c"/>
          <path id="Trazado_601215" data-name="Trazado 601215" d="M2555.61,2892.8l.005,1.859,1.594-.921,0,1.859,1.618-.934-.005-1.859-1.571.907-.005-1.859Z" transform="translate(-2370.23 -2682.085)" fill="#ffd06c"/>
          <path id="Trazado_601216" data-name="Trazado 601216" d="M2268.156,2909.125l0,1.517,32.144-18.559,0-1.516Z" transform="translate(-2103.628 -2680.89)" fill="#dedffb"/>
          <path id="Trazado_601217" data-name="Trazado 601217" d="M1626.066,2932.184l-22.819,13.2-1.625-.91-.064-15.472a1.871,1.871,0,0,1,.845-1.5l21.128-12.157c.26-.13.455-.195.65-.065l1.365.845h.13l.065.065c.2.065.26.26.26.52Z" transform="translate(-1485.383 -2703.746)" fill="#1d2943"/>
          <path id="Trazado_601218" data-name="Trazado 601218" d="M1626.13,2916.1c-.147-.087-.02.087-.255.229l-5.137,2.961-15.993,9.232a1.883,1.883,0,0,0-.839,1.464l-.3,15.3-1.611-.917-.047-15.469a1.859,1.859,0,0,1,.839-1.457l21.13-12.2a.611.611,0,0,1,.6-.06Z" transform="translate(-1485.744 -2703.67)" fill="#4c5c75"/>
          <path id="Trazado_601219" data-name="Trazado 601219" d="M1647.037,2943.789l-22.817,13.174-.046-15.471a1.859,1.859,0,0,1,.842-1.459l21.129-12.2c.467-.271.846-.054.85.484Z" transform="translate(-1506.359 -2715.345)" fill="#1d2943"/>
          <path id="Trazado_601220" data-name="Trazado 601220" d="M1654.864,2953.072l-21.508,12.427-.047-14.348a1.235,1.235,0,0,1,.522-.9l21-12.12Z" transform="translate(-1514.832 -2725.009)" fill="#fff"/>
          <path id="Trazado_601221" data-name="Trazado 601221" d="M1624.817,3268.073l.007,2.079,13.375,7.764a1.848,1.848,0,0,0,1.683,0l21.128-12.2a.6.6,0,0,0,.353-.492l-.007-2.066a.6.6,0,0,1-.353.489Z" transform="translate(-1506.956 -3026.456)" fill="#f3f1fc"/>
          <path id="Trazado_601222" data-name="Trazado 601222" d="M1624.839,3162.424l13.375,7.773a1.854,1.854,0,0,0,1.684,0l21.127-12.2a.516.516,0,0,0,.008-.977l-13.375-7.773Z" transform="translate(-1506.976 -2920.809)" fill="#fff"/>
          <path id="Trazado_601223" data-name="Trazado 601223" d="M1743.9,3286c-.024-.017-.033-.025-.033-.041v-.173a.018.018,0,0,0,.016.017c-.016-.017-.016-.042.016-.058l.977-.566a.2.2,0,0,1,.14,0l.969.566c.033.025.041.058,0,.082a.041.041,0,0,0,.033-.041v.173c0,.016-.008.024-.033.041l-.977.566a.2.2,0,0,1-.14,0Z" transform="translate(-1617.368 -3046.863)" fill="#1c2841"/>
          <path id="Trazado_601224" data-name="Trazado 601224" d="M1767.449,3272.324c-.016-.008-.033-.024-.033-.033v-.172h.008a.046.046,0,0,1,.025-.041l.977-.567a.143.143,0,0,1,.14,0l.969.567c.025.009.033.025.025.041l.008.172c0,.017-.016.025-.033.041l-.977.567a.2.2,0,0,1-.14,0Z" transform="translate(-1639.211 -3034.184)" fill="#1c2841"/>
          <path id="Trazado_601225" data-name="Trazado 601225" d="M1720.348,3299.583a.042.042,0,0,1-.033-.041v-.172c0-.017.008-.025.033-.042l.978-.566a.2.2,0,0,1,.14,0l.969.566c.016.017.024.025.024.042v.172a.045.045,0,0,1-.024.041l-.978.567a.2.2,0,0,1-.14,0Z" transform="translate(-1595.526 -3059.464)" fill="#1c2841"/>
          <path id="Trazado_601226" data-name="Trazado 601226" d="M1756.182,3307.695c.008-.008.016-.016.016-.025v.173c0,.017-.008.025-.033.041l-.969.567a.2.2,0,0,1-.139,0l-.969-.567c-.025-.016-.033-.024-.033-.041v-.173a.045.045,0,0,1,.025-.041l.978-.567a.142.142,0,0,1,.139,0l.969.567a.04.04,0,0,1,.016.066" transform="translate(-1626.819 -3067.156)" fill="#1c2841"/>
          <path id="Trazado_601227" data-name="Trazado 601227" d="M1698.883,3313.2l-.977.567a.208.208,0,0,1-.14,0l-.977-.567a.045.045,0,0,1-.025-.033v-.181c0-.017.008-.025.025-.041l.985-.558a.141.141,0,0,1,.14,0l.969.558a.075.075,0,0,1,.025.041v.172a.046.046,0,0,1-.025.041" transform="translate(-1573.683 -3072.092)" fill="#1c2841"/>
          <path id="Trazado_601228" data-name="Trazado 601228" d="M1723.651,3321.018l-1.741,1a.141.141,0,0,1-.14,0l-.969-.558c-.025-.017-.033-.033-.033-.042v-.172a.042.042,0,0,1,.033-.042l1.741-1.01a.139.139,0,0,1,.139,0l.969.567a.045.045,0,0,1,.025.041v.173c0,.016-.008.024-.025.041" transform="translate(-1595.946 -3079.338)" fill="#1c2841"/>
          <path id="Trazado_601229" data-name="Trazado 601229" d="M1908.863,3190.736c-.025-.017-.033-.025-.033-.041v-.173a.045.045,0,0,1,.025-.041l.977-.567a.167.167,0,0,1,.14,0l.977.567a.045.045,0,0,1,.025.041v.173a.045.045,0,0,1-.025.041l-.977.558a.141.141,0,0,1-.14,0Z" transform="translate(-1770.367 -2958.509)" fill="#1c2841"/>
          <path id="Trazado_601230" data-name="Trazado 601230" d="M1791.9,3313.876a.042.042,0,0,1-.033-.041v-.164a.059.059,0,0,1,.033-.049l.977-.559a.142.142,0,0,1,.14,0l.969.559a.075.075,0,0,1,.024.041v.173a.045.045,0,0,1-.024.041l-.977.566a.166.166,0,0,1-.14,0Z" transform="translate(-1661.892 -3072.722)" fill="#1c2841"/>
          <path id="Trazado_601231" data-name="Trazado 601231" d="M1816.49,3300.856l-.969-.567c-.016-.016-.025-.024-.025-.041v-.172c-.008-.016,0-.024.025-.041l.977-.559a.142.142,0,0,1,.14,0l.969.559c.016.017.025.025.025.041v.172c0,.017-.008.025-.025.041l-.977.567a.2.2,0,0,1-.14,0" transform="translate(-1683.8 -3060.121)" fill="#1c2841"/>
          <path id="Trazado_601232" data-name="Trazado 601232" d="M1779.127,3294.629l-.969-.566a.046.046,0,0,1-.025-.042v-.172c-.008-.008,0-.024.025-.041l.977-.559a.142.142,0,0,1,.14,0l.969.559a.045.045,0,0,1,.025.041v.172a.045.045,0,0,1-.025.042l-.977.566a.142.142,0,0,1-.14,0" transform="translate(-1649.147 -3054.346)" fill="#1c2841"/>
          <path id="Trazado_601233" data-name="Trazado 601233" d="M1838.2,3231.564a.046.046,0,0,1-.025-.041v-.164a.071.071,0,0,1,.025-.049l.977-.559a.142.142,0,0,1,.14,0l.969.559a.059.059,0,0,1,.033.049v.164a.046.046,0,0,1-.025.041l-.977.567a.165.165,0,0,1-.14,0Z" transform="translate(-1704.84 -2996.38)" fill="#1c2841"/>
          <path id="Trazado_601234" data-name="Trazado 601234" d="M1841.124,3286.463a.031.031,0,0,1-.008.025l.008.148c0,.016-.016.024-.033.041l-.977.559a.142.142,0,0,1-.139,0l-.969-.559c-.025-.017-.033-.025-.033-.041v-.172a.008.008,0,0,1,.008.008.049.049,0,0,1,.025-.049l.977-.567a.208.208,0,0,1,.14,0l.969.567c.017.016.033.025.033.041" transform="translate(-1705.576 -3047.494)" fill="#1c2841"/>
          <path id="Trazado_601235" data-name="Trazado 601235" d="M1851.444,3251.549l.969.567c.017.016.025.024.025.041v.173c0,.017-.008.025-.033.041l-.978.567a.2.2,0,0,1-.14,0l-.969-.567a.045.045,0,0,1-.025-.041v-.173c0-.016.008-.024.025-.041l.986-.567a.207.207,0,0,1,.14,0" transform="translate(-1716.077 -3015.676)" fill="#1c2841"/>
          <path id="Trazado_601236" data-name="Trazado 601236" d="M1861.754,3217.962a.045.045,0,0,1-.025-.041v-.173c0-.016.008-.024.025-.041l.977-.567a.168.168,0,0,1,.14.008l.969.559a.06.06,0,0,1,.033.049v.164a.045.045,0,0,1-.025.041l-.985.567a.142.142,0,0,1-.14,0Z" transform="translate(-1726.683 -2983.764)" fill="#1c2841"/>
          <path id="Trazado_601237" data-name="Trazado 601237" d="M1899.416,3225.11l-.969-.567c-.025-.008-.033-.024-.033-.032v-.173a.042.042,0,0,1,.033-.041l.969-.567a.14.14,0,0,1,.14,0l.969.567a.041.041,0,0,1,.033.041v.173a.043.043,0,0,1-.025.032l-.977.567a.141.141,0,0,1-.14,0" transform="translate(-1760.706 -2989.869)" fill="#1c2841"/>
          <path id="Trazado_601238" data-name="Trazado 601238" d="M1910.73,3246.4l-.969-.558a.075.075,0,0,1-.025-.041v-.173a.045.045,0,0,1,.025-.041l.977-.567a.141.141,0,0,1,.14,0l.969.567a.041.041,0,0,1,.033.041v.173c0,.008-.008.024-.033.033l-.977.566a.139.139,0,0,1-.139,0" transform="translate(-1771.207 -3009.612)" fill="#1c2841"/>
          <path id="Trazado_601239" data-name="Trazado 601239" d="M1885.312,3204.365c-.025-.017-.033-.025-.033-.041v-.173a.045.045,0,0,1,.025-.041l.977-.567a.207.207,0,0,1,.14,0l.977.567c.016.016.025.024.025.041v.173a.045.045,0,0,1-.025.041l-.977.558a.124.124,0,0,1-.14,0Z" transform="translate(-1748.524 -2971.152)" fill="#1c2841"/>
          <path id="Trazado_601240" data-name="Trazado 601240" d="M1922.336,3204.918l1.733-1a.14.14,0,0,1,.14,0l.977.558a.076.076,0,0,1,.025.041v.173a.044.044,0,0,1-.025.041l-1.741,1a.14.14,0,0,1-.14,0l-.969-.559c-.025-.017-.033-.024-.033-.049v-.164a.043.043,0,0,1,.033-.042" transform="translate(-1782.862 -2971.493)" fill="#1c2841"/>
          <path id="Trazado_601241" data-name="Trazado 601241" d="M1962.44,3231.891v.173c0,.016-.008.025-.025.041l-2.513,1.445a.14.14,0,0,1-.14,0l-.969-.558c-.025-.017-.033-.025-.033-.041v-.172a.055.055,0,0,1,.033-.041l2.513-1.454a.208.208,0,0,1,.14,0l.969.567a.045.045,0,0,1,.025.041" transform="translate(-1816.676 -2996.88)" fill="#1c2841"/>
          <path id="Trazado_601242" data-name="Trazado 601242" d="M1875.447,3237.657l.969.559c.025.017.033.033.025.049l.008.165a.042.042,0,0,1-.033.041l-.977.566a.2.2,0,0,1-.14,0l-.969-.566a.056.056,0,0,1-.033-.041v-.173c0-.017.016-.024.033-.041l.977-.559a.142.142,0,0,1,.14,0" transform="translate(-1738.339 -3002.786)" fill="#1c2841"/>
          <path id="Trazado_601243" data-name="Trazado 601243" d="M1771.548,3342.09l.008.164a.055.055,0,0,1-.033.042l-2.513,1.454a.143.143,0,0,1-.14,0l-.969-.567c-.025-.008-.033-.024-.033-.033v-.181a.008.008,0,0,0,.008.008c-.008-.017,0-.033.025-.049l2.513-1.445a.139.139,0,0,1,.14,0l.969.559c.025.016.033.033.025.049" transform="translate(-1639.631 -3099.08)" fill="#1c2841"/>
          <path id="Trazado_601244" data-name="Trazado 601244" d="M1790.974,3258.7l-.008-.172a.054.054,0,0,1,.033-.041l.977-.567a.144.144,0,0,1,.14,0l.969.567c.025.016.033.033.016.057l.016-.016v.172c0,.017-.008.025-.033.042l-.977.558a.141.141,0,0,1-.14,0l-.969-.566a.044.044,0,0,1-.025-.033" transform="translate(-1661.052 -3021.583)" fill="#1c2841"/>
          <path id="Trazado_601245" data-name="Trazado 601245" d="M1863.524,3273.607l-.969-.559c-.016-.016-.025-.024-.025-.041l-.008-.173c0-.016.016-.024.033-.041l.977-.566a.164.164,0,0,1,.14,0l.969.566a.042.042,0,0,1,.033.041v.173c0,.016-.008.024-.033.041l-.977.559a.139.139,0,0,1-.14,0" transform="translate(-1727.418 -3034.851)" fill="#1c2841"/>
          <path id="Trazado_601246" data-name="Trazado 601246" d="M1935.7,3219.29l2.505-1.446a.141.141,0,0,1,.14,0l.969.558a.06.06,0,0,1,.033.05v.164a.045.045,0,0,1-.025.041l-2.521,1.454a.139.139,0,0,1-.14,0l-.961-.567a.042.042,0,0,1-.033-.041v-.173c0-.016.008-.025.033-.041" transform="translate(-1795.253 -2984.41)" fill="#1c2841"/>
          <path id="Trazado_601247" data-name="Trazado 601247" d="M1887.074,3259.983l-.969-.559c-.016-.016-.033-.024-.033-.041v-.172c0,.008.016.017.025.033a.043.043,0,0,1,.008-.074l.977-.566a.14.14,0,0,1,.14,0l.969.566c.016.017.033.024.033.041v.165c0,.024-.008.033-.033.049l-.977.559a.145.145,0,0,1-.14,0" transform="translate(-1749.26 -3022.213)" fill="#1c2841"/>
          <path id="Trazado_601248" data-name="Trazado 601248" d="M1827.328,3265.4l.969.566a.049.049,0,0,1,.025.05.008.008,0,0,1,.008-.009v.165c0,.024-.008.033-.033.049l-.977.558a.14.14,0,0,1-.14,0l-.969-.558c-.016-.016-.033-.025-.033-.041V3266c0-.016.008-.024.033-.041l.977-.566a.14.14,0,0,1,.14,0" transform="translate(-1693.71 -3028.513)" fill="#1c2841"/>
          <path id="Trazado_601249" data-name="Trazado 601249" d="M1803.316,3279.324l.969.558a.04.04,0,0,1,.016.066c.008-.008.016-.017.016-.025v.173a.058.058,0,0,1-.033.049l-.969.559a.14.14,0,0,1-.14,0l-.969-.559a.059.059,0,0,1-.033-.049v-.165a.06.06,0,0,1,.033-.049l.969-.558a.141.141,0,0,1,.14,0" transform="translate(-1671.447 -3041.43)" fill="#1c2841"/>
          <path id="Trazado_601250" data-name="Trazado 601250" d="M1826.836,3257.849c.016.008.025.016.025.033v.181a.074.074,0,0,1-.025.041l-9.593,5.535a.14.14,0,0,1-.14,0l-.977-.558c-.017-.017-.025-.025-.025-.041v-.173a.045.045,0,0,1,.025-.041l9.6-5.544a.167.167,0,0,1,.14,0Z" transform="translate(-1684.365 -3020.99)" fill="#1c2841"/>
          <path id="Trazado_601251" data-name="Trazado 601251" d="M1748.631,3327.21l-2.727,1.569a.141.141,0,0,1-.14,0l-.969-.567c-.016-.009-.025-.017-.025-.033v-.173a.046.046,0,0,1,.025-.041l2.727-1.577a.208.208,0,0,1,.14,0l.969.567c.017.017.033.025.033.041v.173a.05.05,0,0,1-.033.041" transform="translate(-1618.208 -3085.087)" fill="#1c2841"/>
          <path id="Trazado_601252" data-name="Trazado 601252" d="M1814.655,3245.15a.038.038,0,0,1-.024-.041v-.165c0-.016.008-.024.024-.041l.978-.566a.14.14,0,0,1,.14,0l.969.566c.025.008.033.025.033.033v.173a.042.042,0,0,1-.033.041l-.977.567a.142.142,0,0,1-.14,0Z" transform="translate(-1683 -3008.981)" fill="#1c2841"/>
          <path id="Trazado_601253" data-name="Trazado 601253" d="M1908.857,3190.494a.043.043,0,0,0,0,.081l.972.565a.158.158,0,0,0,.14,0l.976-.563c.041-.023.038-.059,0-.081l-.972-.565a.151.151,0,0,0-.14,0Z" transform="translate(-1770.366 -2958.523)" fill="#4d5c75"/>
          <path id="Trazado_601254" data-name="Trazado 601254" d="M1885.3,3204.1c-.041.023-.038.059,0,.081l.972.565a.155.155,0,0,0,.14,0l.976-.563a.043.043,0,0,0,0-.081l-.972-.565a.16.16,0,0,0-.14,0Z" transform="translate(-1748.514 -2971.139)" fill="#4d5c75"/>
          <path id="Trazado_601255" data-name="Trazado 601255" d="M1861.728,3217.7a.043.043,0,0,0,0,.081l.972.565a.159.159,0,0,0,.14,0l.978-.565c.038-.021.036-.057,0-.079l-.972-.565a.153.153,0,0,0-.137,0Z" transform="translate(-1726.655 -2983.757)" fill="#4d5c75"/>
          <path id="Trazado_601256" data-name="Trazado 601256" d="M1922.347,3204.888c-.04.023-.041.058,0,.081l.969.563a.153.153,0,0,0,.14,0l1.738-1c.041-.024.038-.06,0-.082l-.969-.563a.148.148,0,0,0-.14,0Z" transform="translate(-1782.875 -2971.464)" fill="#4d5c75"/>
          <path id="Trazado_601257" data-name="Trazado 601257" d="M1898.441,3224.323c-.038.022-.041.058,0,.081l.969.563a.16.16,0,0,0,.14,0l.976-.563c.041-.023.038-.059,0-.081l-.969-.563a.146.146,0,0,0-.14,0Z" transform="translate(-1760.704 -2989.897)" fill="#4d5c75"/>
          <path id="Trazado_601258" data-name="Trazado 601258" d="M1874.373,3238.216c-.038.022-.041.058,0,.082l.969.563a.158.158,0,0,0,.14,0l.979-.565c.038-.021.035-.057,0-.079l-.969-.563a.148.148,0,0,0-.138,0Z" transform="translate(-1738.382 -3002.782)" fill="#4d5c75"/>
          <path id="Trazado_601259" data-name="Trazado 601259" d="M1850.305,3252.1c-.038.021-.041.058,0,.081l.969.563a.157.157,0,0,0,.14,0l.978-.565a.043.043,0,0,0,0-.081l-.969-.563a.154.154,0,0,0-.14,0Z" transform="translate(-1716.06 -3015.66)" fill="#4d5c75"/>
          <path id="Trazado_601260" data-name="Trazado 601260" d="M1826.237,3266c-.038.022-.041.058,0,.082l.969.563a.16.16,0,0,0,.14,0l.978-.565a.043.043,0,0,0,0-.081l-.969-.563a.155.155,0,0,0-.14,0Z" transform="translate(-1693.737 -3028.549)" fill="#4d5c75"/>
          <path id="Trazado_601261" data-name="Trazado 601261" d="M1802.192,3279.892c-.041.023-.041.058,0,.082l.969.563a.154.154,0,0,0,.14,0l.976-.563a.043.043,0,0,0,0-.082l-.969-.563a.151.151,0,0,0-.14,0Z" transform="translate(-1671.436 -3041.436)" fill="#4d5c75"/>
          <path id="Trazado_601262" data-name="Trazado 601262" d="M1778.125,3293.788c-.041.023-.041.058,0,.081l.969.563a.153.153,0,0,0,.14,0l.976-.563a.043.043,0,0,0,0-.081l-.969-.563a.15.15,0,0,0-.14,0Z" transform="translate(-1649.114 -3054.324)" fill="#4d5c75"/>
          <path id="Trazado_601263" data-name="Trazado 601263" d="M1754.056,3307.677c-.041.023-.041.058,0,.081l.969.563a.151.151,0,0,0,.14,0l.976-.563c.041-.023.038-.059,0-.081l-.969-.563a.147.147,0,0,0-.14,0Z" transform="translate(-1626.792 -3067.204)" fill="#4d5c75"/>
          <path id="Trazado_601264" data-name="Trazado 601264" d="M1838.167,3231.3c-.041.023-.038.059,0,.081l.972.565a.154.154,0,0,0,.14,0l.976-.563c.041-.023.038-.059,0-.081l-.972-.565a.152.152,0,0,0-.14,0Z" transform="translate(-1704.803 -2996.369)" fill="#4d5c75"/>
          <path id="Trazado_601265" data-name="Trazado 601265" d="M1814.6,3244.9a.043.043,0,0,0,0,.081l.972.565a.157.157,0,0,0,.14,0l.978-.565a.043.043,0,0,0,0-.081l-.972-.565a.159.159,0,0,0-.14,0Z" transform="translate(-1682.942 -3008.984)" fill="#4d5c75"/>
          <path id="Trazado_601266" data-name="Trazado 601266" d="M1791.05,3258.51a.043.043,0,0,0,0,.081l.972.565a.16.16,0,0,0,.14,0l.976-.563c.041-.024.038-.06,0-.081l-.972-.565a.153.153,0,0,0-.14,0Z" transform="translate(-1661.104 -3021.606)" fill="#4d5c75"/>
          <path id="Trazado_601267" data-name="Trazado 601267" d="M1767.491,3272.113c-.041.023-.038.059,0,.081l.972.565a.154.154,0,0,0,.14,0l.976-.563a.043.043,0,0,0,0-.081l-.972-.565a.159.159,0,0,0-.14,0Z" transform="translate(-1639.252 -3034.222)" fill="#4d5c75"/>
          <path id="Trazado_601268" data-name="Trazado 601268" d="M1743.919,3285.719a.043.043,0,0,0,0,.081l.972.565a.16.16,0,0,0,.14,0l.978-.565c.038-.022.035-.058,0-.08l-.972-.565a.152.152,0,0,0-.137,0Z" transform="translate(-1617.392 -3046.84)" fill="#4d5c75"/>
          <path id="Trazado_601269" data-name="Trazado 601269" d="M1720.359,3299.316c-.041.023-.038.06,0,.081l.972.565a.153.153,0,0,0,.14,0l.976-.563c.041-.023.038-.059,0-.081l-.972-.565a.154.154,0,0,0-.14,0Z" transform="translate(-1595.54 -3059.451)" fill="#4d5c75"/>
          <path id="Trazado_601270" data-name="Trazado 601270" d="M1696.789,3312.919a.044.044,0,0,0,0,.082l.972.564a.154.154,0,0,0,.14,0l.978-.564a.043.043,0,0,0,0-.082l-.972-.564a.16.16,0,0,0-.14,0Z" transform="translate(-1573.68 -3072.067)" fill="#4d5c75"/>
          <path id="Trazado_601271" data-name="Trazado 601271" d="M1720.8,3321.24c-.038.022-.041.058,0,.082l.969.563a.159.159,0,0,0,.14,0l1.74-1c.041-.023.038-.059,0-.081l-.969-.564a.15.15,0,0,0-.14,0Z" transform="translate(-1595.948 -3079.375)" fill="#4d5c75"/>
          <path id="Trazado_601272" data-name="Trazado 601272" d="M1935.691,3219.273c-.038.022-.041.058,0,.081l.969.563a.153.153,0,0,0,.14,0l2.51-1.449c.041-.024.041-.058,0-.082l-.969-.563a.146.146,0,0,0-.14,0Z" transform="translate(-1795.252 -2984.391)" fill="#4d5c75"/>
          <path id="Trazado_601273" data-name="Trazado 601273" d="M1909.722,3245.594c-.038.021-.041.058,0,.081l.969.563a.153.153,0,0,0,.14,0l.978-.564c.038-.022.038-.056,0-.08l-.969-.563a.148.148,0,0,0-.137,0Z" transform="translate(-1771.167 -3009.625)" fill="#4d5c75"/>
          <path id="Trazado_601274" data-name="Trazado 601274" d="M1886.163,3259.192c-.041.023-.041.058,0,.081l.969.563a.148.148,0,0,0,.14,0l.976-.563c.04-.023.041-.058,0-.081l-.97-.563a.151.151,0,0,0-.14,0Z" transform="translate(-1749.316 -3022.237)" fill="#4d5c75"/>
          <path id="Trazado_601275" data-name="Trazado 601275" d="M1862.592,3272.795c-.038.022-.041.058,0,.081l.969.563a.152.152,0,0,0,.14,0l.978-.565c.038-.022.041-.058,0-.081l-.969-.564a.155.155,0,0,0-.14,0Z" transform="translate(-1727.455 -3034.852)" fill="#4d5c75"/>
          <path id="Trazado_601276" data-name="Trazado 601276" d="M1839.045,3286.4c-.038.021-.041.058,0,.081l.969.563a.151.151,0,0,0,.14,0l.976-.563c.041-.023.041-.058,0-.081l-.969-.563a.148.148,0,0,0-.14,0Z" transform="translate(-1705.617 -3047.474)" fill="#4d5c75"/>
          <path id="Trazado_601277" data-name="Trazado 601277" d="M1815.486,3300c-.041.023-.041.058,0,.081l.969.563a.151.151,0,0,0,.14,0l.976-.563c.038-.022.041-.058,0-.081l-.969-.563a.154.154,0,0,0-.14,0Z" transform="translate(-1683.765 -3060.09)" fill="#4d5c75"/>
          <path id="Trazado_601278" data-name="Trazado 601278" d="M1791.915,3313.611c-.038.022-.041.058,0,.081l.969.563a.151.151,0,0,0,.14,0l.979-.565c.038-.022.038-.056,0-.08l-.969-.563a.149.149,0,0,0-.137,0Z" transform="translate(-1661.905 -3072.708)" fill="#4d5c75"/>
          <path id="Trazado_601279" data-name="Trazado 601279" d="M1744.784,3327.937c-.038.022-.041.058,0,.082l.969.563a.153.153,0,0,0,.14,0l2.721-1.571c.041-.023.041-.058,0-.081l-.969-.563a.145.145,0,0,0-.14,0Z" transform="translate(-1618.193 -3085.061)" fill="#4d5c75"/>
          <path id="Trazado_601280" data-name="Trazado 601280" d="M1958.825,3232.717c-.038.022-.041.058,0,.081l.969.563a.153.153,0,0,0,.14,0l2.511-1.449c.041-.023.041-.058,0-.081l-.969-.563a.148.148,0,0,0-.14,0Z" transform="translate(-1816.708 -2996.86)" fill="#4d5c75"/>
          <path id="Trazado_601281" data-name="Trazado 601281" d="M1826.793,3257.92l-9.6,5.54a.154.154,0,0,1-.142,0l-.968-.564c-.042-.021-.039-.06,0-.082l9.6-5.54a.154.154,0,0,1,.142,0l.968.563c.042.025.039.061,0,.082" transform="translate(-1684.324 -3020.982)" fill="#4d5c75"/>
          <path id="Trazado_601282" data-name="Trazado 601282" d="M1698.884,3321.127l-.978.563a.158.158,0,0,1-.14,0l-.973-.563a.053.053,0,0,1-.026-.04v-.174a.048.048,0,0,0,.026.039l.973.567a.156.156,0,0,0,.14,0l.978-.567a.045.045,0,0,0,.031-.039v.17c0,.018-.009.031-.031.044" transform="translate(-1573.686 -3080.02)" fill="#1c2841"/>
          <path id="Trazado_601283" data-name="Trazado 601283" d="M1720.38,3307.525a.041.041,0,0,1-.026-.039v-.17a.053.053,0,0,0,.026.039l.973.563a.143.143,0,0,0,.14,0l.978-.563a.047.047,0,0,0,.026-.039v.174a.053.053,0,0,1-.026.039l-.978.563a.157.157,0,0,1-.14,0Z" transform="translate(-1595.562 -3067.408)" fill="#1c2841"/>
          <path id="Trazado_601284" data-name="Trazado 601284" d="M1767.5,3280.272a.044.044,0,0,1-.031-.04v-.174c0,.018.009.031.031.043l.969.563a.156.156,0,0,0,.14,0l.978-.563a.046.046,0,0,0,.026-.039l0,.17a.058.058,0,0,1-.031.044l-.978.563a.157.157,0,0,1-.14,0Z" transform="translate(-1639.258 -3042.129)" fill="#1c2841"/>
          <path id="Trazado_601285" data-name="Trazado 601285" d="M1803.323,3288.483l.973-.563a.045.045,0,0,0,.031-.039v.17a.05.05,0,0,1-.031.044l-.973.563a.159.159,0,0,1-.14,0l-.969-.563a.05.05,0,0,1-.031-.044v-.17c0,.013.009.026.031.039l.969.563a.145.145,0,0,0,.14,0" transform="translate(-1671.457 -3049.384)" fill="#1c2841"/>
          <path id="Trazado_601286" data-name="Trazado 601286" d="M1771.566,3350.1l0,.166a.047.047,0,0,1-.031.04l-2.514,1.453a.158.158,0,0,1-.14,0l-.969-.563c-.022-.013-.031-.026-.031-.039v-.175a.045.045,0,0,0,.031.04l.969.563a.146.146,0,0,0,.14,0l2.514-1.449c.013-.013.026-.022.026-.035" transform="translate(-1639.648 -3107.085)" fill="#1c2841"/>
          <path id="Trazado_601287" data-name="Trazado 601287" d="M1814.605,3253.076a.041.041,0,0,1-.026-.039v-.171a.052.052,0,0,0,.026.039l.973.563a.159.159,0,0,0,.14,0l.978-.563a.049.049,0,0,0,.031-.044v.175a.044.044,0,0,1-.031.039l-.978.567a.158.158,0,0,1-.14,0Z" transform="translate(-1682.953 -3016.905)" fill="#1c2841"/>
          <path id="Trazado_601288" data-name="Trazado 601288" d="M1743.911,3293.931c-.022-.013-.031-.026-.031-.044v-.17a.044.044,0,0,0,.031.039l.969.563a.155.155,0,0,0,.14,0l.982-.563a.047.047,0,0,0,.026-.039v.175a.053.053,0,0,1-.026.039l-.977.563a.166.166,0,0,1-.144,0Z" transform="translate(-1617.382 -3054.797)" fill="#1c2841"/>
          <path id="Trazado_601289" data-name="Trazado 601289" d="M1791.927,3321.789a.044.044,0,0,1-.03-.039v-.17a.054.054,0,0,0,.026.039l.973.563a.156.156,0,0,0,.14,0l.978-.567a.042.042,0,0,0,.026-.039v.175a.054.054,0,0,1-.026.039l-.978.563a.144.144,0,0,1-.14,0Z" transform="translate(-1661.915 -3080.634)" fill="#1c2841"/>
          <path id="Trazado_601290" data-name="Trazado 601290" d="M1791,3266.691l0-.17c0,.013.013.026.031.039l.973.563a.157.157,0,0,0,.14,0l.973-.563c.022-.013.031-.026.031-.039v.17c0,.017-.009.031-.031.044l-.973.563a.16.16,0,0,1-.14,0l-.973-.567a.046.046,0,0,1-.026-.039" transform="translate(-1661.077 -3029.573)" fill="#1c2841"/>
          <path id="Trazado_601291" data-name="Trazado 601291" d="M1755.187,3316.281l.973-.563c.022-.013.031-.026.031-.039v.17c0,.018-.009.03-.031.043l-.973.563a.159.159,0,0,1-.14,0l-.969-.563c-.022-.013-.031-.026-.031-.043v-.17c0,.013.009.026.031.039l.969.563a.156.156,0,0,0,.14,0" transform="translate(-1626.812 -3075.165)" fill="#1c2841"/>
          <path id="Trazado_601292" data-name="Trazado 601292" d="M1723.656,3329.01l-1.741,1a.158.158,0,0,1-.14,0l-.969-.563c-.022-.013-.031-.026-.031-.039v-.175a.045.045,0,0,0,.031.039l.969.563a.155.155,0,0,0,.14,0l1.741-1a.053.053,0,0,0,.026-.039v.17a.053.053,0,0,1-.026.044" transform="translate(-1595.953 -3087.331)" fill="#1c2841"/>
          <path id="Trazado_601293" data-name="Trazado 601293" d="M1779.115,3302.556l-.969-.563c-.022-.013-.031-.026-.031-.044v-.17c0,.013.009.026.031.04l.969.563a.156.156,0,0,0,.14,0l.973-.563a.044.044,0,0,0,.031-.04v.17c0,.017-.009.03-.031.044l-.973.563a.156.156,0,0,1-.14,0" transform="translate(-1649.135 -3062.274)" fill="#1c2841"/>
          <path id="Trazado_601294" data-name="Trazado 601294" d="M1748.641,3335.147l-2.723,1.571a.156.156,0,0,1-.14,0l-.969-.567a.042.042,0,0,1-.026-.04v-.17a.052.052,0,0,0,.026.039l.969.563a.159.159,0,0,0,.14,0l2.723-1.572c.022-.013.031-.026.031-.039v.17a.056.056,0,0,1-.031.044" transform="translate(-1618.219 -3093.023)" fill="#1c2841"/>
          <path id="Trazado_601295" data-name="Trazado 601295" d="M1816.48,3308.754l-.969-.563c-.022-.013-.031-.026-.031-.039v-.175a.047.047,0,0,0,.026.039l.973.563a.133.133,0,0,0,.14,0l.973-.563a.045.045,0,0,0,.031-.039v.175c0,.013-.009.026-.031.039l-.973.563a.156.156,0,0,1-.14,0" transform="translate(-1683.789 -3068.022)" fill="#1c2841"/>
          <path id="Trazado_601296" data-name="Trazado 601296" d="M1861.723,3225.879a.045.045,0,0,1-.031-.04v-.174a.049.049,0,0,0,.031.043l.969.563a.153.153,0,0,0,.14,0l.978-.563c.022-.013.031-.026.031-.039v.169a.042.042,0,0,1-.026.04l-.982.567a.156.156,0,0,1-.14,0Z" transform="translate(-1726.648 -2991.681)" fill="#1c2841"/>
          <path id="Trazado_601297" data-name="Trazado 601297" d="M1887.12,3267.959l-.969-.563c-.017-.013-.03-.026-.03-.039v-.175a.053.053,0,0,0,.03.039l.969.563a.133.133,0,0,0,.139,0l.978-.563a.053.053,0,0,0,.031-.039v.17c0,.018-.009.031-.031.043l-.978.563a.156.156,0,0,1-.139,0" transform="translate(-1749.304 -3030.186)" fill="#1c2841"/>
          <path id="Trazado_601298" data-name="Trazado 601298" d="M1840.008,3295.155l-.969-.563c-.022-.013-.031-.026-.031-.039v-.175a.04.04,0,0,0,.031.039l.969.568a.156.156,0,0,0,.14,0l.978-.568c.013-.008.026-.021.026-.034l0,.17c0,.013-.013.026-.031.039l-.978.563a.156.156,0,0,1-.14,0" transform="translate(-1705.61 -3055.409)" fill="#1c2841"/>
          <path id="Trazado_601299" data-name="Trazado 601299" d="M1851.4,3260.689l.978-.567a.045.045,0,0,0,.031-.04v.17c0,.018-.009.031-.031.044l-.978.563a.156.156,0,0,1-.14,0l-.969-.563a.052.052,0,0,1-.031-.04v-.175c0,.018.009.031.031.044l.969.563a.159.159,0,0,0,.14,0" transform="translate(-1716.045 -3023.601)" fill="#1c2841"/>
          <path id="Trazado_601300" data-name="Trazado 601300" d="M1827.331,3274.587l.978-.567a.044.044,0,0,0,.03-.04v.17c0,.017-.009.03-.03.044l-.978.563a.16.16,0,0,1-.14,0l-.969-.563c-.017-.013-.031-.026-.031-.039v-.175c0,.018.009.031.031.044l.969.563a.158.158,0,0,0,.14,0" transform="translate(-1693.723 -3036.492)" fill="#1c2841"/>
          <path id="Trazado_601301" data-name="Trazado 601301" d="M1863.534,3281.557l-.969-.563a.052.052,0,0,1-.026-.039l0-.175c0,.018.013.031.031.044l.969.563a.156.156,0,0,0,.14,0l.978-.567a.044.044,0,0,0,.03-.039v.17a.053.053,0,0,1-.026.044l-.982.563a.156.156,0,0,1-.14,0" transform="translate(-1727.429 -3042.798)" fill="#1c2841"/>
          <path id="Trazado_601302" data-name="Trazado 601302" d="M1885.308,3212.281c-.022-.013-.03-.026-.03-.04v-.174a.047.047,0,0,0,.026.04l.973.567a.154.154,0,0,0,.14,0l.978-.563a.052.052,0,0,0,.026-.043v.174a.047.047,0,0,1-.026.04l-.978.563a.144.144,0,0,1-.14,0Z" transform="translate(-1748.523 -2979.069)" fill="#1c2841"/>
          <path id="Trazado_601303" data-name="Trazado 601303" d="M1838.192,3239.477a.046.046,0,0,1-.026-.039v-.174a.053.053,0,0,0,.026.043l.974.563a.156.156,0,0,0,.14,0l.978-.563a.052.052,0,0,0,.026-.039v.17a.046.046,0,0,1-.026.039l-.978.563a.145.145,0,0,1-.14,0Z" transform="translate(-1704.829 -3004.292)" fill="#1c2841"/>
          <path id="Trazado_601304" data-name="Trazado 601304" d="M1875.468,3246.79l.978-.567c.013-.009.026-.018.026-.03l0,.166c0,.013-.009.026-.031.039l-.978.563a.16.16,0,0,1-.14,0l-.969-.563a.052.052,0,0,1-.031-.039v-.174c0,.018.009.03.031.043l.969.563a.157.157,0,0,0,.14,0" transform="translate(-1738.368 -3010.711)" fill="#1c2841"/>
          <path id="Trazado_601305" data-name="Trazado 601305" d="M1908.81,3198.643l0-.175a.047.047,0,0,0,.03.04l.973.567a.156.156,0,0,0,.14,0l.973-.563c.022-.013.031-.026.031-.044v.175a.044.044,0,0,1-.031.039l-.973.563a.158.158,0,0,1-.14,0l-.973-.563a.053.053,0,0,1-.026-.039" transform="translate(-1770.344 -2966.456)" fill="#1c2841"/>
          <path id="Trazado_601306" data-name="Trazado 601306" d="M1899.395,3233.061l-.969-.563a.052.052,0,0,1-.031-.039v-.17c0,.013.009.026.031.039l.969.563a.157.157,0,0,0,.14,0l.978-.563a.053.053,0,0,0,.026-.044l0,.174a.053.053,0,0,1-.031.039l-.978.563a.156.156,0,0,1-.14,0" transform="translate(-1760.689 -2997.819)" fill="#1c2841"/>
          <path id="Trazado_601307" data-name="Trazado 601307" d="M1826.816,3265.842c.022-.013.031-.026.031-.044v.175a.044.044,0,0,1-.031.039l-9.593,5.543a.156.156,0,0,1-.14,0l-.973-.563a.054.054,0,0,1-.026-.044v-.17a.047.047,0,0,0,.026.039l.969.563a.153.153,0,0,0,.144,0Z" transform="translate(-1684.348 -3028.903)" fill="#1c2841"/>
          <path id="Trazado_601308" data-name="Trazado 601308" d="M1910.707,3254.36l-.969-.563c-.022-.013-.031-.026-.031-.039v-.174a.048.048,0,0,0,.026.04l.973.563a.144.144,0,0,0,.14,0l.978-.562a.054.054,0,0,0,.026-.04v.174a.041.041,0,0,1-.026.035l-.978.567a.159.159,0,0,1-.14,0" transform="translate(-1771.18 -3017.574)" fill="#1c2841"/>
          <path id="Trazado_601309" data-name="Trazado 601309" d="M1923.482,3213.47l1.737-1a.052.052,0,0,0,.031-.039v.174c0,.013-.009.026-.031.04l-1.737,1a.156.156,0,0,1-.14,0l-.969-.563c-.022-.013-.031-.026-.031-.044v-.171a.047.047,0,0,0,.026.04l.973.563a.144.144,0,0,0,.14,0" transform="translate(-1782.9 -2979.404)" fill="#1c2841"/>
          <path id="Trazado_601310" data-name="Trazado 601310" d="M1936.779,3227.876l2.51-1.449c.022-.013.03-.026.03-.039l0,.17c0,.018-.013.031-.031.044l-2.514,1.449a.154.154,0,0,1-.14,0l-.969-.563c-.018-.013-.031-.026-.031-.044v-.17c0,.013.013.026.031.039l.969.563a.145.145,0,0,0,.14,0" transform="translate(-1795.232 -2992.351)" fill="#1c2841"/>
          <path id="Trazado_601311" data-name="Trazado 601311" d="M1962.485,3239.805v.175c0,.013-.009.026-.031.039l-2.51,1.449a.156.156,0,0,1-.14,0l-.969-.563c-.022-.013-.03-.026-.03-.039v-.174a.049.049,0,0,0,.03.043l.969.563a.157.157,0,0,0,.14,0l2.51-1.453a.044.044,0,0,0,.031-.039" transform="translate(-1816.717 -3004.795)" fill="#1c2841"/>
          <path id="Trazado_601312" data-name="Trazado 601312" d="M1767.919,3342.924c-.038.022-.041.058,0,.081l.969.563a.151.151,0,0,0,.14,0l2.513-1.451c.038-.022.041-.058,0-.081l-.969-.563a.151.151,0,0,0-.14,0Z" transform="translate(-1639.65 -3099.072)" fill="#4d5c75"/>
          <path id="Trazado_601313" data-name="Trazado 601313" d="M1685.645,3174.513a1.444,1.444,0,0,1,1.307,0l7.491,4.353a.4.4,0,0,1,0,.757l-17.55,10.132a1.448,1.448,0,0,1-1.307,0l-7.491-4.354a.4.4,0,0,1,0-.757Zm-9.768,15.072a.793.793,0,0,0,.72,0l17.549-10.132a.22.22,0,0,0,0-.417l-7.491-4.354a.8.8,0,0,0-.72,0l-17.55,10.132a.22.22,0,0,0,0,.417Z" transform="translate(-1546.842 -2944.094)" fill="#c9cee2"/>
          <path id="Trazado_601314" data-name="Trazado 601314" d="M1873.231,3314.393a.424.424,0,0,1-.147.17l-4.455,2.584a.747.747,0,0,1-.782,0l-2.834-1.633a.383.383,0,0,1,0-.668l4.455-2.585a.728.728,0,0,1,.771,0l2.845,1.632a.386.386,0,0,1,.147.5" transform="translate(-1729.547 -3071.893)" fill="#b0b8cf"/>
          <path id="Trazado_601315" data-name="Trazado 601315" d="M1873.706,3318.451a.424.424,0,0,1-.147.17l-4.455,2.584a.748.748,0,0,1-.782,0l-2.834-1.632a.378.378,0,0,1-.158-.17.309.309,0,0,1,.158-.181l4.455-2.584a.727.727,0,0,1,.771,0l2.845,1.632a.291.291,0,0,1,.147.181" transform="translate(-1730.021 -3075.952)" fill="#fff"/>
          <path id="Trazado_601316" data-name="Trazado 601316" d="M1680.762,3169.128a.15.15,0,0,1,.151.014.491.491,0,0,1,.219.387l17.278-9.992a.489.489,0,0,0-.217-.385.148.148,0,0,0-.152-.014Z" transform="translate(-1558.842 -2929.965)" fill="#101c32"/>
          <path id="Trazado_601317" data-name="Trazado 601317" d="M1680.05,3296.887c-.122-.071-.218-.007-.219.134l.437.252a.49.49,0,0,0-.218-.386" transform="translate(-1557.979 -3057.71)" fill="#4d5c75"/>
          <path id="Trazado_601318" data-name="Trazado 601318" d="M1924.471,2947.355l0,0v0Z" transform="translate(-1784.87 -2733.559)" fill="#fff"/>
          <path id="Trazado_601319" data-name="Trazado 601319" d="M1791.444,3046.959a1.96,1.96,0,0,0-.87,1.507c0,.573.4.8.876.531a1.974,1.974,0,0,0,.9-1.555c0-.541-.4-.771-.9-.483" transform="translate(-1660.689 -2825.822)" fill="#78e75a"/>
          <path id="Trazado_601320" data-name="Trazado 601320" d="M1749.621,3071.07a1.962,1.962,0,0,0-.884,1.515c0,.573.4.8.89.523a1.97,1.97,0,0,0,.884-1.547c0-.541-.4-.771-.89-.491" transform="translate(-1621.887 -2848.188)" fill="#423d9b"/>
          <path id="Trazado_601321" data-name="Trazado 601321" d="M1833.281,3022.825a1.958,1.958,0,0,0-.87,1.507c0,.573.4.8.876.531a1.945,1.945,0,0,0,.884-1.547c0-.541-.391-.779-.89-.491" transform="translate(-1699.491 -2803.44)" fill="#f45170"/>
          <path id="Trazado_601322" data-name="Trazado 601322" d="M1707.961,3095.178a1.959,1.959,0,0,0-.87,1.508c0,.573.4.8.876.531a1.947,1.947,0,0,0,.884-1.548c0-.541-.391-.779-.89-.491" transform="translate(-1583.262 -2870.545)" fill="#ffd06c"/>
          <path id="Trazado_601323" data-name="Trazado 601323" d="M1672.457,3165.983l0,.662,6.153-3.552,0-.662Z" transform="translate(-1551.14 -2933.033)" fill="#bac1ce"/>
          <path id="Trazado_601324" data-name="Trazado 601324" d="M1700.322,3119.415l0,.661,13.852-8,0-.662Z" transform="translate(-1576.983 -2885.72)" fill="#bac1ce"/>
          <path id="Trazado_601325" data-name="Trazado 601325" d="M1774.222,3090.01l0,.662,8.486-4.9,0-.662Z" transform="translate(-1645.523 -2861.322)" fill="#bac1ce"/>
          <path id="Trazado_601326" data-name="Trazado 601326" d="M1700.173,3074.1l0,.662,12.863-7.427,0-.662Z" transform="translate(-1576.845 -2844.222)" fill="#bac1ce"/>
        </g>
      </g>
    </g>
  </g>
</svg>
