<svg xmlns="http://www.w3.org/2000/svg" xmlns:xlink="http://www.w3.org/1999/xlink" width="503.351" height="435.954" viewBox="0 0 503.351 435.954">
  <defs>
    <linearGradient id="linear-gradient" x1="-1.504" y1="3.495" x2="-1.483" y2="3.495" gradientUnits="objectBoundingBox">
      <stop offset="0" stop-color="#9d6262"/>
      <stop offset="1" stop-color="#1a1a1a"/>
    </linearGradient>
    <clipPath id="clip-path">
      <rect id="Rectángulo_300969" data-name="Rectángulo 300969" width="56.797" height="38.54" fill="#1565c0"/>
    </clipPath>
    <clipPath id="clip-path-4">
      <rect id="Rectángulo_300972" data-name="Rectángulo 300972" width="27.595" height="27.596" fill="none"/>
    </clipPath>
    <clipPath id="clip-path-5">
      <rect id="Rectángulo_300971" data-name="Rectángulo 300971" width="27.596" height="27.596" fill="none"/>
    </clipPath>
    <clipPath id="clip-path-6">
      <rect id="Rectángulo_300970" data-name="Rectángulo 300970" width="20.643" height="21.65" fill="none"/>
    </clipPath>
    <clipPath id="clip-path-10">
      <path id="Trazado_601329" data-name="Trazado 601329" d="M199.91,36.588V34.316a2.025,2.025,0,1,1,4.049,0v2.272a2.025,2.025,0,1,1-4.049,0m-2.865-35.4h9.778v24.4h-9.778ZM196.453,0a.592.592,0,0,0-.593.593V26.174a.592.592,0,0,0,.593.593h4.889v4.4a3.213,3.213,0,0,0-2.617,3.153v2.272a3.21,3.21,0,1,0,6.42,0V34.316a3.214,3.214,0,0,0-2.618-3.153v-4.4h4.889a.592.592,0,0,0,.592-.593V.593A.592.592,0,0,0,207.416,0Z" transform="translate(-195.86 0)" fill="#1565c0"/>
    </clipPath>
    <clipPath id="clip-path-11">
      <path id="Trazado_601330" data-name="Trazado 601330" d="M18.37,18.373H40.1V31.51H18.37Zm-.593-1.185a.592.592,0,0,0-.593.593V32.1a.592.592,0,0,0,.593.593H40.693a.592.592,0,0,0,.593-.593V17.781a.592.592,0,0,0-.593-.593Z" transform="translate(-17.185 -17.188)" fill="#1565c0"/>
    </clipPath>
    <clipPath id="clip-path-12">
      <path id="Trazado_601331" data-name="Trazado 601331" d="M1.185,26.57H28.644V38.817H1.185ZM11.26,21.532h7.309v3.8H11.26ZM1.185,1.185H28.644V20.347H1.185ZM.593,0A.592.592,0,0,0,0,.593V20.94a.592.592,0,0,0,.593.593h9.482v3.852H.593A.592.592,0,0,0,0,25.977V39.41A.592.592,0,0,0,.593,40H29.236a.592.592,0,0,0,.593-.593V25.977a.592.592,0,0,0-.593-.593H19.754V21.532h9.482a.592.592,0,0,0,.593-.593V.593A.592.592,0,0,0,29.236,0Z" transform="translate(0 0)" fill="#1565c0"/>
    </clipPath>
    <clipPath id="clip-path-13">
      <path id="Trazado_601332" data-name="Trazado 601332" d="M61.041,208.6a.593.593,0,0,0,0,1.185h8.494a.593.593,0,1,0,0-1.185Z" transform="translate(-60.448 -208.604)" fill="#fb8c00"/>
    </clipPath>
    <clipPath id="clip-path-14">
      <path id="Trazado_601333" data-name="Trazado 601333" d="M214.233,18.373h4.049v1.778h-4.049Zm-.593-1.185a.592.592,0,0,0-.593.593v2.963a.592.592,0,0,0,.593.593h5.235a.592.592,0,0,0,.593-.593V17.781a.592.592,0,0,0-.593-.593Z" transform="translate(-213.048 -17.188)" fill="#1565c0"/>
    </clipPath>
    <clipPath id="clip-path-15">
      <path id="Trazado_601335" data-name="Trazado 601335" d="M215.417,107.611a1.827,1.827,0,1,1,1.827,1.828,1.829,1.829,0,0,1-1.827-1.828m-1.185,0a3.013,3.013,0,1,0,3.012-3.012,3.016,3.016,0,0,0-3.012,3.012" transform="translate(-214.232 -104.599)" fill="#1565c0"/>
    </clipPath>
    <clipPath id="clip-path-23">
      <path id="Trazado_601329-2" data-name="Trazado 601329" d="M201.239,48.591V45.574a2.689,2.689,0,1,1,5.378,0v3.017a2.689,2.689,0,1,1-5.378,0m-3.8-47.017h12.986v32.4H197.434ZM196.647,0a.787.787,0,0,0-.787.787V34.762a.787.787,0,0,0,.787.787h6.493v5.839a4.267,4.267,0,0,0-3.476,4.187v3.017a4.263,4.263,0,1,0,8.526,0V45.574a4.268,4.268,0,0,0-3.476-4.188V35.549h6.493a.787.787,0,0,0,.787-.787V.787A.787.787,0,0,0,211.208,0Z" transform="translate(-195.86 0)" fill="#1565c0"/>
    </clipPath>
    <clipPath id="clip-path-24">
      <path id="Trazado_601330-2" data-name="Trazado 601330" d="M18.759,18.762H47.618V36.208H18.759Zm-.787-1.574a.787.787,0,0,0-.787.787v19.02a.787.787,0,0,0,.787.787H48.405a.786.786,0,0,0,.787-.787V17.975a.786.786,0,0,0-.787-.787Z" transform="translate(-17.185 -17.188)" fill="#1565c0"/>
    </clipPath>
    <clipPath id="clip-path-25">
      <path id="Trazado_601331-2" data-name="Trazado 601331" d="M1.574,35.287H38.041V51.552H1.574Zm13.38-6.69h9.707v5.05H14.954ZM1.574,1.574H38.041V27.023H1.574ZM.787,0A.787.787,0,0,0,0,.787V27.81a.787.787,0,0,0,.787.787H13.38v5.116H.787A.787.787,0,0,0,0,34.5V52.339a.787.787,0,0,0,.787.787H38.828a.786.786,0,0,0,.787-.787V34.5a.787.787,0,0,0-.787-.787H26.235V28.6H38.828a.786.786,0,0,0,.787-.787V.787A.786.786,0,0,0,38.828,0Z" transform="translate(0 0)" fill="#1565c0"/>
    </clipPath>
    <clipPath id="clip-path-26">
      <path id="Trazado_601332-2" data-name="Trazado 601332" d="M61.235,208.6a.787.787,0,0,0,0,1.574H72.516a.787.787,0,1,0,0-1.574Z" transform="translate(-60.448 -208.604)" fill="#fb8c00"/>
    </clipPath>
    <clipPath id="clip-path-27">
      <path id="Trazado_601333-3" data-name="Trazado 601333" d="M214.622,18.762H220v2.361h-5.378Zm-.787-1.574a.787.787,0,0,0-.787.787V21.91a.786.786,0,0,0,.787.787h6.952a.786.786,0,0,0,.787-.787V17.975a.787.787,0,0,0-.787-.787Z" transform="translate(-213.048 -17.188)" fill="#1565c0"/>
    </clipPath>
    <clipPath id="clip-path-28">
      <path id="Trazado_601335-2" data-name="Trazado 601335" d="M215.806,108.6a2.427,2.427,0,1,1,2.427,2.427,2.429,2.429,0,0,1-2.427-2.427m-1.574,0a4,4,0,1,0,4-4,4.005,4.005,0,0,0-4,4" transform="translate(-214.232 -104.599)" fill="#1565c0"/>
    </clipPath>
    <clipPath id="clip-path-30">
      <path id="Trazado_601327" data-name="Trazado 601327" d="M87.426,25.478c-13.786.984-13.358,15.534-13.352,15.68a1.1,1.1,0,0,0,1.1,1.059h.043a1.1,1.1,0,0,0,1.059-1.145c-.019-.513-.335-12.56,11.305-13.392a1.105,1.105,0,0,0-.051-2.207,1.046,1.046,0,0,0-.107.006" transform="translate(-74.072 -25.472)" fill="#1565c0"/>
    </clipPath>
    <clipPath id="clip-path-31">
      <path id="Trazado_601328" data-name="Trazado 601328" d="M33.671,0A19.34,19.34,0,0,0,14.351,19.319v2.062A15.478,15.478,0,0,0,0,36.8v1.841A15.474,15.474,0,0,0,15.457,54.1H30.544A11.055,11.055,0,0,0,41.585,43.057V39.828l3.968,4.341a1.1,1.1,0,1,0,1.63-1.49L41.3,36.238a1.121,1.121,0,0,0-.826-.357,1.093,1.093,0,0,0-.817.373l-5.7,6.44a1.1,1.1,0,0,0,.093,1.558,1.116,1.116,0,0,0,.733.277,1.1,1.1,0,0,0,.826-.373l3.776-4.26v3.161a8.845,8.845,0,0,1-8.834,8.834H15.457A13.263,13.263,0,0,1,2.208,38.642V36.8A13.263,13.263,0,0,1,15.457,23.551a1.1,1.1,0,0,0,1.1-1.105V19.319A17.13,17.13,0,0,1,33.671,2.208h8.281A10.869,10.869,0,0,1,52.81,13.063a1.1,1.1,0,0,0,1.105,1.105h2.94a9.577,9.577,0,0,1,9.57,9.567,1.1,1.1,0,0,0,1.105,1.105h.919A13.633,13.633,0,0,1,82.068,38.455,13.45,13.45,0,0,1,68.633,51.891H51.155A11.78,11.78,0,0,0,39.418,62.873l-3.9-3.524a1.1,1.1,0,1,0-1.478,1.639l5.7,5.151a1.1,1.1,0,0,0,1.466.012L47.1,61a1.1,1.1,0,0,0-1.453-1.661l-4.018,3.512A9.579,9.579,0,0,1,51.155,54.1H68.633A15.661,15.661,0,0,0,84.276,38.455,15.842,15.842,0,0,0,68.583,22.632,11.794,11.794,0,0,0,56.856,11.96H54.971A13.08,13.08,0,0,0,41.952,0Z" fill="url(#linear-gradient)"/>
    </clipPath>
    <clipPath id="clip-path-32">
      <rect id="Rectángulo_298110" data-name="Rectángulo 298110" width="3.68" height="3.68" fill="#fb8c00"/>
    </clipPath>
    <clipPath id="clip-path-35">
      <rect id="Rectángulo_298116" data-name="Rectángulo 298116" width="3.679" height="3.679" fill="#fb8c00"/>
    </clipPath>
    <clipPath id="clip-path-37">
      <rect id="Rectángulo_298120" data-name="Rectángulo 298120" width="3.683" height="3.679" fill="#fb8c00"/>
    </clipPath>
  </defs>
  <g id="Grupo_893203" data-name="Grupo 893203" transform="translate(6798.132 11808.954)">
    <g id="Grupo_889396" data-name="Grupo 889396" transform="translate(-6672 -11807.667)">
      <g id="Grupo_889395" data-name="Grupo 889395" transform="translate(0 0)" clip-path="url(#clip-path)">
        <path id="Trazado_604158" data-name="Trazado 604158" d="M54.294,18.375V26.3h-.358l-1.078,1.078H32.578c-2.466,0-4.194-.379-5.257-1.2a4.365,4.365,0,0,1-1.434-3.717V19.2a7.731,7.731,0,0,0,1.428-.211V14.328l-2.7-.3,4.165-.97,2.3-.8,5.265-2.594A5.057,5.057,0,0,0,39.68,13.9a7.277,7.277,0,0,0,1.23.308,4.321,4.321,0,0,0,3.226-.649,5.706,5.706,0,0,0,2.029-2.97,12.113,12.113,0,0,0,.481-2.028c.754-4.882-4.489-4.3-4.5-4.3l-.026,0h0A20.966,20.966,0,0,0,41.6,1.908c-.067-.052-2.512-.035-4.762-.008,3.8-.479,6.816-.856,6.816-.856S43.61.1,43.277,0L0,5.486l.014.4L2.2,8.267l.142-.021h0l.382.525.056.321,1.437,1.553L4.08,8l2.27,8.913L7.735,17.96l15.038-3.5v4.527a6.5,6.5,0,0,0,.962.17v3.312c0,2.443.723,4.219,2.274,5.414,1.466,1.129,3.622,1.653,6.568,1.653H52.858l1.078,1.078h.358v7.93h2.5V18.375ZM42.548,6.605s-.143-.8-.319-1.737c.365-.033,4.414-.312,3.81,3.6a11.448,11.448,0,0,1-.455,1.924,5.121,5.121,0,0,1-1.8,2.664A3.737,3.737,0,0,1,41,13.6a6.675,6.675,0,0,1-1.127-.281,4.529,4.529,0,0,1-2.953-3.945Z" transform="translate(0 0)" fill="#1565c0" fill-rule="evenodd"/>
      </g>
    </g>
    <g id="Grupo_889397" data-name="Grupo 889397" transform="translate(-6672 -11772.126)">
      <g id="Grupo_889395-2" data-name="Grupo 889395" transform="translate(0 0)" clip-path="url(#clip-path)">
        <path id="Trazado_604158-2" data-name="Trazado 604158" d="M54.294,18.375V26.3h-.358l-1.078,1.078H32.578c-2.466,0-4.194-.379-5.257-1.2a4.365,4.365,0,0,1-1.434-3.717V19.2a7.731,7.731,0,0,0,1.428-.211V14.328l-2.7-.3,4.165-.97,2.3-.8,5.265-2.594A5.057,5.057,0,0,0,39.68,13.9a7.277,7.277,0,0,0,1.23.308,4.321,4.321,0,0,0,3.226-.649,5.706,5.706,0,0,0,2.029-2.97,12.113,12.113,0,0,0,.481-2.028c.754-4.882-4.489-4.3-4.5-4.3l-.026,0h0A20.966,20.966,0,0,0,41.6,1.908c-.067-.052-2.512-.035-4.762-.008,3.8-.479,6.816-.856,6.816-.856S43.61.1,43.277,0L0,5.486l.014.4L2.2,8.267l.142-.021h0l.382.525.056.321,1.437,1.553L4.08,8l2.27,8.913L7.735,17.96l15.038-3.5v4.527a6.5,6.5,0,0,0,.962.17v3.312c0,2.443.723,4.219,2.274,5.414,1.466,1.129,3.622,1.653,6.568,1.653H52.858l1.078,1.078h.358v7.93h2.5V18.375ZM42.548,6.605s-.143-.8-.319-1.737c.365-.033,4.414-.312,3.81,3.6a11.448,11.448,0,0,1-.455,1.924,5.121,5.121,0,0,1-1.8,2.664A3.737,3.737,0,0,1,41,13.6a6.675,6.675,0,0,1-1.127-.281,4.529,4.529,0,0,1-2.953-3.945Z" transform="translate(0 0)" fill="#1565c0" fill-rule="evenodd"/>
      </g>
    </g>
    <g id="Grupo_889398" data-name="Grupo 889398" transform="translate(-6672 -11737.126)">
      <g id="Grupo_889395-3" data-name="Grupo 889395" transform="translate(0 0)" clip-path="url(#clip-path)">
        <path id="Trazado_604158-3" data-name="Trazado 604158" d="M54.294,18.375V26.3h-.358l-1.078,1.078H32.578c-2.466,0-4.194-.379-5.257-1.2a4.365,4.365,0,0,1-1.434-3.717V19.2a7.731,7.731,0,0,0,1.428-.211V14.328l-2.7-.3,4.165-.97,2.3-.8,5.265-2.594A5.057,5.057,0,0,0,39.68,13.9a7.277,7.277,0,0,0,1.23.308,4.321,4.321,0,0,0,3.226-.649,5.706,5.706,0,0,0,2.029-2.97,12.113,12.113,0,0,0,.481-2.028c.754-4.882-4.489-4.3-4.5-4.3l-.026,0h0A20.966,20.966,0,0,0,41.6,1.908c-.067-.052-2.512-.035-4.762-.008,3.8-.479,6.816-.856,6.816-.856S43.61.1,43.277,0L0,5.486l.014.4L2.2,8.267l.142-.021h0l.382.525.056.321,1.437,1.553L4.08,8l2.27,8.913L7.735,17.96l15.038-3.5v4.527a6.5,6.5,0,0,0,.962.17v3.312c0,2.443.723,4.219,2.274,5.414,1.466,1.129,3.622,1.653,6.568,1.653H52.858l1.078,1.078h.358v7.93h2.5V18.375ZM42.548,6.605s-.143-.8-.319-1.737c.365-.033,4.414-.312,3.81,3.6a11.448,11.448,0,0,1-.455,1.924,5.121,5.121,0,0,1-1.8,2.664A3.737,3.737,0,0,1,41,13.6a6.675,6.675,0,0,1-1.127-.281,4.529,4.529,0,0,1-2.953-3.945Z" transform="translate(0 0)" fill="#1565c0" fill-rule="evenodd"/>
      </g>
    </g>
    <g id="Grupo_889405" data-name="Grupo 889405" transform="translate(-6352 -11685)">
      <g id="Grupo_889404" data-name="Grupo 889404" clip-path="url(#clip-path-4)">
        <g id="Grupo_889403" data-name="Grupo 889403" transform="translate(0 0)">
          <g id="Grupo_889402" data-name="Grupo 889402" clip-path="url(#clip-path-5)">
            <path id="Trazado_604159" data-name="Trazado 604159" d="M0,13.8A13.8,13.8,0,1,0,13.8,0,13.8,13.8,0,0,0,0,13.8" transform="translate(0 0)" fill="#fb8c00"/>
            <g id="Grupo_889401" data-name="Grupo 889401" transform="translate(6.457 5.723)" opacity="0.8" style="mix-blend-mode: multiply;isolation: isolate">
              <g id="Grupo_889400" data-name="Grupo 889400">
                <g id="Grupo_889399" data-name="Grupo 889399" clip-path="url(#clip-path-6)">
                  <path id="Trazado_604160" data-name="Trazado 604160" d="M40.629,29.434c-.037-.037-.072-.074-.11-.11s-.071-.072-.108-.108-.072-.074-.11-.109-.072-.074-.109-.11-.072-.073-.109-.109-.072-.074-.11-.11-.071-.073-.108-.109-.073-.074-.111-.11-.071-.073-.108-.108-.072-.074-.11-.109-.071-.074-.109-.109-.072-.074-.11-.11-.071-.074-.109-.109-.071-.074-.109-.11-.072-.073-.11-.109-.072-.074-.109-.11-.072-.074-.11-.109-.072-.074-.109-.11-.072-.072-.108-.108-.073-.075-.111-.11-.071-.073-.108-.109-.072-.074-.11-.109-.072-.074-.11-.11-.071-.073-.108-.108-.071-.074-.109-.11-.072-.074-.11-.11-.072-.074-.109-.109-.072-.073-.109-.109-.071-.074-.11-.109-.071-.073-.108-.109-.073-.074-.111-.11-.071-.073-.108-.108-.072-.074-.11-.11-.072-.073-.11-.109-.071-.073-.108-.109-.073-.074-.111-.11-.072-.074-.11-.11-.071-.074-.108-.109-.072-.074-.11-.11-.072-.073-.109-.109-.072-.074-.109-.11-.072-.073-.109-.108-.072-.074-.11-.109-.072-.075-.11-.11-.071-.073-.108-.109-.072-.074-.11-.11-.071-.073-.108-.108-.072-.074-.109-.109-.072-.074-.109-.11-.072-.074-.11-.11-.072-.073-.109-.109-.071-.073-.109-.109-.071-.074-.109-.109-.073-.074-.111-.11-.07-.073-.108-.108-.072-.074-.109-.11-.071-.073-.109-.109-.072-.074-.11-.109-.071-.074-.108-.109-.073-.075-.111-.11-.071-.074-.109-.109-.072-.073-.109-.109-.071-.074-.109-.11-.072-.073-.109-.109-.072-.075-.11-.11-.07-.072-.107-.107-.074-.075-.111-.111-.071-.073-.109-.108-.073-.075-.11-.111-.071-.073-.107-.108-.072-.074-.11-.11-.071-.074-.109-.109-.073-.074-.111-.11a7.341,7.341,0,0,0-3.089-1.828v.03a.832.832,0,0,0-.1-.1.858.858,0,0,0-.109-.109.836.836,0,0,0-.109-.109,52.506,52.506,0,0,1-.218-.218.905.905,0,0,0-.109-.11.951.951,0,0,0-.109-.109A.9.9,0,0,0,28.7,18.8a.945.945,0,0,0-.109-.109.962.962,0,0,0-.11-.11.942.942,0,0,0-.109-.109.91.91,0,0,0-.11-.11.987.987,0,0,0-.108-.108.882.882,0,0,0-.11-.109.736.736,0,0,0-.553-.282c-.466,0-.847.508-.847,1.129v1.981l-.022.007v-.146c-.037.011-.072.025-.109.037v-.145c-.037.011-.073.025-.11.037v-.146c-.037.011-.072.026-.109.037v-.146c-.037.011-.073.025-.11.037V20.4c-.037.011-.072.026-.109.037V20.29c-.037.011-.072.025-.11.037V20.18c-.037.011-.072.026-.109.038v-.147c-.037.011-.072.026-.109.037v-.146c-.038.011-.073.025-.11.037v-.146c-.037.011-.072.026-.109.037v-.146c-.037.011-.073.025-.11.036v-.146a7.337,7.337,0,0,0-3.063,12.285c.035.036.07.071.107.107l.112.112c.036.037.072.074.11.11s.071.072.107.107.072.073.109.109.072.074.11.11l.108.108c.037.037.074.074.111.111l.108.108.111.111.106.106c.037.037.073.075.111.111s.073.073.11.11.072.073.108.108l.109.109.111.111c.036.037.071.073.109.109l.109.11c.036.037.072.073.109.109s.072.074.11.11.072.073.108.108l.11.11c.035.037.071.072.108.108s.074.075.112.111.071.072.108.108.073.074.11.11.071.073.109.109l.109.109.109.11.108.108.112.112c.035.036.07.07.106.105s.073.074.111.111.072.073.109.109l.109.109c.036.037.072.073.109.108s.073.074.11.11.073.074.11.11l.108.108c.036.037.073.074.11.11s.072.073.11.109.072.072.108.108.072.073.109.109.073.075.111.111.071.073.108.108l.109.109c.036.037.073.074.11.11s.072.073.109.109l.106.107.112.112.108.108.109.109.11.11c.035.037.072.073.108.108l.11.11q.053.055.108.108c.036.037.073.074.11.11l.11.11c.035.037.072.072.108.108s.073.074.11.11.071.073.108.108.073.074.11.111l.11.109c.035.037.072.073.108.109s.072.072.108.107.074.076.112.112.071.072.107.107.073.074.11.11l.109.109.061.061A13.812,13.812,0,0,0,40.8,29.6l-.06-.06c-.037-.036-.072-.074-.11-.11" transform="translate(-20.155 -17.865)" fill="#e6e9ed"/>
                </g>
              </g>
            </g>
            <path id="Trazado_604161" data-name="Trazado 604161" d="M41.274,26.9c.466,0,.847-.509.847-1.129V18.994c0-.621-.381-1.129-.847-1.129s-.847.508-.847,1.129v6.777c0,.62.381,1.129.847,1.129" transform="translate(-27.477 -12.142)" fill="#fff"/>
            <path id="Trazado_604162" data-name="Trazado 604162" d="M29.567,23.388v1.79a5.648,5.648,0,1,1-4.142,0v-1.79a7.341,7.341,0,1,0,4.142,0" transform="translate(-13.699 -15.896)" fill="#fff"/>
          </g>
        </g>
      </g>
    </g>
    <path id="Trazado_604219" data-name="Trazado 604219" d="M0,0H140V29H0Z" transform="translate(-6569.737 -11685)" fill="#1565c0"/>
    <path id="Trazado_604247" data-name="Trazado 604247" d="M0,0H6V6H0Z" transform="translate(-6560 -11678)" fill="#fff"/>
    <path id="Trazado_604248" data-name="Trazado 604248" d="M0,0H6V6H0Z" transform="translate(-6550 -11678)" fill="#fff"/>
    <path id="Trazado_604243" data-name="Trazado 604243" d="M0,0H6V6H0Z" transform="translate(-6540 -11678)" fill="#fff"/>
    <path id="Trazado_604244" data-name="Trazado 604244" d="M0,0H6V6H0Z" transform="translate(-6530 -11678)" fill="#fff"/>
    <path id="Trazado_604241" data-name="Trazado 604241" d="M0,0H6V6H0Z" transform="translate(-6520 -11678)" fill="#fff"/>
    <path id="Trazado_604237" data-name="Trazado 604237" d="M0,0H6V6H0Z" transform="translate(-6510 -11678)" fill="#fff"/>
    <path id="Trazado_604238" data-name="Trazado 604238" d="M0,0H6V6H0Z" transform="translate(-6500 -11678)" fill="#fff"/>
    <path id="Trazado_604232" data-name="Trazado 604232" d="M0,0H6V6H0Z" transform="translate(-6490 -11678)" fill="#fff"/>
    <path id="Trazado_604233" data-name="Trazado 604233" d="M0,0H6V6H0Z" transform="translate(-6480 -11678)" fill="#fff"/>
    <path id="Trazado_604224" data-name="Trazado 604224" d="M0,0H6V6H0Z" transform="translate(-6470 -11678)" fill="#fff"/>
    <path id="Trazado_604225" data-name="Trazado 604225" d="M0,0H6V6H0Z" transform="translate(-6460 -11678)" fill="#fff"/>
    <path id="Trazado_604226" data-name="Trazado 604226" d="M0,0H6V6H0Z" transform="translate(-6450 -11678)" fill="#fff"/>
    <path id="Trazado_604249" data-name="Trazado 604249" d="M0,0H6V6H0Z" transform="translate(-6560 -11669)" fill="#fff"/>
    <path id="Trazado_604250" data-name="Trazado 604250" d="M0,0H6V6H0Z" transform="translate(-6550 -11669)" fill="#fff"/>
    <path id="Trazado_604245" data-name="Trazado 604245" d="M0,0H6V6H0Z" transform="translate(-6540 -11669)" fill="#fff"/>
    <path id="Trazado_604246" data-name="Trazado 604246" d="M0,0H6V6H0Z" transform="translate(-6530 -11669)" fill="#fff"/>
    <path id="Trazado_604242" data-name="Trazado 604242" d="M0,0H6V6H0Z" transform="translate(-6520 -11669)" fill="#fff"/>
    <path id="Trazado_604239" data-name="Trazado 604239" d="M0,0H6V6H0Z" transform="translate(-6510 -11669)" fill="#fff"/>
    <path id="Trazado_604240" data-name="Trazado 604240" d="M0,0H6V6H0Z" transform="translate(-6500 -11669)" fill="#fff"/>
    <path id="Trazado_604234" data-name="Trazado 604234" d="M0,0H6V6H0Z" transform="translate(-6490 -11669)" fill="#fff"/>
    <path id="Trazado_604235" data-name="Trazado 604235" d="M0,0H6V6H0Z" transform="translate(-6480 -11669)" fill="#fff"/>
    <path id="Trazado_604227" data-name="Trazado 604227" d="M0,0H6V6H0Z" transform="translate(-6470 -11669)" fill="#fff"/>
    <path id="Trazado_604228" data-name="Trazado 604228" d="M0,0H6V6H0Z" transform="translate(-6460 -11669)" fill="#fff"/>
    <path id="Trazado_604229" data-name="Trazado 604229" d="M0,0H6V6H0Z" transform="translate(-6450 -11669)" fill="#fff"/>
    <path id="Trazado_604163" data-name="Trazado 604163" d="M-6499.121-10613.616h-1v-90.881h-112.92v-1h113.92Z" transform="translate(0 -1076)" fill="#26aab7"/>
    <path id="Trazado_604164" data-name="Trazado 604164" d="M-6506.853-10613.606h-1v-54.27h-105.188v-1h106.188Z" transform="translate(0 -1076)" fill="#26aab7"/>
    <path id="Trazado_604165" data-name="Trazado 604165" d="M-6514.248-10614.074h-1v-19.06h-97.794v-1h98.794Z" transform="translate(0 -1076)" fill="#26aab7"/>
    <g id="Icon_feather-monitor" data-name="Icon feather-monitor" transform="translate(-6764.632 -11586.626)">
      <path id="Trazado_604166" data-name="Trazado 604166" d="M6,3.5H30a4,4,0,0,1,4,4v15a4,4,0,0,1-4,4H6a4,4,0,0,1-4-4V7.5A4,4,0,0,1,6,3.5Zm24,21a2,2,0,0,0,2-2V7.5a2,2,0,0,0-2-2H6a2,2,0,0,0-2,2v15a2,2,0,0,0,2,2Z" fill="#1565c0"/>
      <path id="Trazado_604167" data-name="Trazado 604167" d="M24,32.5H12a1,1,0,0,1,0-2H24a1,1,0,0,1,0,2Z" fill="#1565c0"/>
      <path id="Trazado_604168" data-name="Trazado 604168" d="M18,32.5a1,1,0,0,1-1-1v-6a1,1,0,0,1,2,0v6A1,1,0,0,1,18,32.5Z" fill="#1565c0"/>
    </g>
    <g id="Grupo_889406" data-name="Grupo 889406" transform="translate(-6713.131 -11548.345)">
      <g id="Grupo_889404-2" data-name="Grupo 889404" clip-path="url(#clip-path-4)">
        <g id="Grupo_889403-2" data-name="Grupo 889403" transform="translate(0 0)">
          <g id="Grupo_889402-2" data-name="Grupo 889402" clip-path="url(#clip-path-5)">
            <path id="Trazado_604159-2" data-name="Trazado 604159" d="M0,13.8A13.8,13.8,0,1,0,13.8,0,13.8,13.8,0,0,0,0,13.8" transform="translate(0 0)" fill="#fb8c00"/>
            <g id="Grupo_889401-2" data-name="Grupo 889401" transform="translate(6.457 5.723)" opacity="0.8" style="mix-blend-mode: multiply;isolation: isolate">
              <g id="Grupo_889400-2" data-name="Grupo 889400">
                <g id="Grupo_889399-2" data-name="Grupo 889399" clip-path="url(#clip-path-6)">
                  <path id="Trazado_604160-2" data-name="Trazado 604160" d="M40.629,29.434c-.037-.037-.072-.074-.11-.11s-.071-.072-.108-.108-.072-.074-.11-.109-.072-.074-.109-.11-.072-.073-.109-.109-.072-.074-.11-.11-.071-.073-.108-.109-.073-.074-.111-.11-.071-.073-.108-.108-.072-.074-.11-.109-.071-.074-.109-.109-.072-.074-.11-.11-.071-.074-.109-.109-.071-.074-.109-.11-.072-.073-.11-.109-.072-.074-.109-.11-.072-.074-.11-.109-.072-.074-.109-.11-.072-.072-.108-.108-.073-.075-.111-.11-.071-.073-.108-.109-.072-.074-.11-.109-.072-.074-.11-.11-.071-.073-.108-.108-.071-.074-.109-.11-.072-.074-.11-.11-.072-.074-.109-.109-.072-.073-.109-.109-.071-.074-.11-.109-.071-.073-.108-.109-.073-.074-.111-.11-.071-.073-.108-.108-.072-.074-.11-.11-.072-.073-.11-.109-.071-.073-.108-.109-.073-.074-.111-.11-.072-.074-.11-.11-.071-.074-.108-.109-.072-.074-.11-.11-.072-.073-.109-.109-.072-.074-.109-.11-.072-.073-.109-.108-.072-.074-.11-.109-.072-.075-.11-.11-.071-.073-.108-.109-.072-.074-.11-.11-.071-.073-.108-.108-.072-.074-.109-.109-.072-.074-.109-.11-.072-.074-.11-.11-.072-.073-.109-.109-.071-.073-.109-.109-.071-.074-.109-.109-.073-.074-.111-.11-.07-.073-.108-.108-.072-.074-.109-.11-.071-.073-.109-.109-.072-.074-.11-.109-.071-.074-.108-.109-.073-.075-.111-.11-.071-.074-.109-.109-.072-.073-.109-.109-.071-.074-.109-.11-.072-.073-.109-.109-.072-.075-.11-.11-.07-.072-.107-.107-.074-.075-.111-.111-.071-.073-.109-.108-.073-.075-.11-.111-.071-.073-.107-.108-.072-.074-.11-.11-.071-.074-.109-.109-.073-.074-.111-.11a7.341,7.341,0,0,0-3.089-1.828v.03a.832.832,0,0,0-.1-.1.858.858,0,0,0-.109-.109.836.836,0,0,0-.109-.109,52.506,52.506,0,0,1-.218-.218.905.905,0,0,0-.109-.11.951.951,0,0,0-.109-.109A.9.9,0,0,0,28.7,18.8a.945.945,0,0,0-.109-.109.962.962,0,0,0-.11-.11.942.942,0,0,0-.109-.109.91.91,0,0,0-.11-.11.987.987,0,0,0-.108-.108.882.882,0,0,0-.11-.109.736.736,0,0,0-.553-.282c-.466,0-.847.508-.847,1.129v1.981l-.022.007v-.146c-.037.011-.072.025-.109.037v-.145c-.037.011-.073.025-.11.037v-.146c-.037.011-.072.026-.109.037v-.146c-.037.011-.073.025-.11.037V20.4c-.037.011-.072.026-.109.037V20.29c-.037.011-.072.025-.11.037V20.18c-.037.011-.072.026-.109.038v-.147c-.037.011-.072.026-.109.037v-.146c-.038.011-.073.025-.11.037v-.146c-.037.011-.072.026-.109.037v-.146c-.037.011-.073.025-.11.036v-.146a7.337,7.337,0,0,0-3.063,12.285c.035.036.07.071.107.107l.112.112c.036.037.072.074.11.11s.071.072.107.107.072.073.109.109.072.074.11.11l.108.108c.037.037.074.074.111.111l.108.108.111.111.106.106c.037.037.073.075.111.111s.073.073.11.11.072.073.108.108l.109.109.111.111c.036.037.071.073.109.109l.109.11c.036.037.072.073.109.109s.072.074.11.11.072.073.108.108l.11.11c.035.037.071.072.108.108s.074.075.112.111.071.072.108.108.073.074.11.11.071.073.109.109l.109.109.109.11.108.108.112.112c.035.036.07.07.106.105s.073.074.111.111.072.073.109.109l.109.109c.036.037.072.073.109.108s.073.074.11.11.073.074.11.11l.108.108c.036.037.073.074.11.11s.072.073.11.109.072.072.108.108.072.073.109.109.073.075.111.111.071.073.108.108l.109.109c.036.037.073.074.11.11s.072.073.109.109l.106.107.112.112.108.108.109.109.11.11c.035.037.072.073.108.108l.11.11q.053.055.108.108c.036.037.073.074.11.11l.11.11c.035.037.072.072.108.108s.073.074.11.11.071.073.108.108.073.074.11.111l.11.109c.035.037.072.073.108.109s.072.072.108.107.074.076.112.112.071.072.107.107.073.074.11.11l.109.109.061.061A13.812,13.812,0,0,0,40.8,29.6l-.06-.06c-.037-.036-.072-.074-.11-.11" transform="translate(-20.155 -17.865)" fill="#e6e9ed"/>
                </g>
              </g>
            </g>
            <path id="Trazado_604161-2" data-name="Trazado 604161" d="M41.274,26.9c.466,0,.847-.509.847-1.129V18.994c0-.621-.381-1.129-.847-1.129s-.847.508-.847,1.129v6.777c0,.62.381,1.129.847,1.129" transform="translate(-27.477 -12.142)" fill="#fff"/>
            <path id="Trazado_604162-2" data-name="Trazado 604162" d="M29.567,23.388v1.79a5.648,5.648,0,1,1-4.142,0v-1.79a7.341,7.341,0,1,0,4.142,0" transform="translate(-13.699 -15.896)" fill="#fff"/>
          </g>
        </g>
      </g>
    </g>
    <path id="Trazado_604169" data-name="Trazado 604169" d="M-6553.411-10977.883h-34.89v-1h52.366v1Z" transform="translate(166.15 -692.117)" fill="#fb8c00"/>
    <path id="Trazado_604251" data-name="Trazado 604251" d="M0,0H105.853V29H0Z" transform="translate(-6655.853 -11584.126)" fill="#1565c0"/>
    <path id="Trazado_604170" data-name="Trazado 604170" d="M-6568.809-10977.883H-6588.3v-1h29.254v1Z" transform="translate(-124.831 -591.243)" fill="#26aab7"/>
    <path id="Trazado_604260" data-name="Trazado 604260" d="M8,1a7,7,0,1,0,7,7A7.008,7.008,0,0,0,8,1M8,0A8,8,0,1,1,0,8,8,8,0,0,1,8,0Z" transform="translate(-6650 -11578)" fill="#fff"/>
    <g id="Grupo_889407" data-name="Grupo 889407" transform="translate(0 -1076)">
      <path id="Trazado_604171" data-name="Trazado 604171" d="M-6614-10499.724h-14.044a.5.5,0,0,1-.5-.5.5.5,0,0,1,.5-.5H-6614a.5.5,0,0,1,.5.5A.5.5,0,0,1-6614-10499.724Z" transform="translate(0 2.598)" fill="#fff"/>
      <path id="Trazado_604172" data-name="Trazado 604172" d="M-6614-10499.724h-14.044a.5.5,0,0,1-.5-.5.5.5,0,0,1,.5-.5H-6614a.5.5,0,0,1,.5.5A.5.5,0,0,1-6614-10499.724Z" transform="translate(0 6.598)" fill="#fff"/>
      <path id="Trazado_604173" data-name="Trazado 604173" d="M-6614-10499.724h-14.044a.5.5,0,0,1-.5-.5.5.5,0,0,1,.5-.5H-6614a.5.5,0,0,1,.5.5A.5.5,0,0,1-6614-10499.724Z" transform="translate(0 10.598)" fill="#fff"/>
    </g>
    <g id="Grupo_889408" data-name="Grupo 889408" transform="translate(20.004 -1076)">
      <path id="Trazado_604171-2" data-name="Trazado 604171" d="M-6614-10499.724h-14.044a.5.5,0,0,1-.5-.5.5.5,0,0,1,.5-.5H-6614a.5.5,0,0,1,.5.5A.5.5,0,0,1-6614-10499.724Z" transform="translate(0 2.598)" fill="#fff"/>
      <path id="Trazado_604172-2" data-name="Trazado 604172" d="M-6614-10499.724h-14.044a.5.5,0,0,1-.5-.5.5.5,0,0,1,.5-.5H-6614a.5.5,0,0,1,.5.5A.5.5,0,0,1-6614-10499.724Z" transform="translate(0 6.598)" fill="#fff"/>
      <path id="Trazado_604173-2" data-name="Trazado 604173" d="M-6614-10499.724h-14.044a.5.5,0,0,1-.5-.5.5.5,0,0,1,.5-.5H-6614a.5.5,0,0,1,.5.5A.5.5,0,0,1-6614-10499.724Z" transform="translate(0 10.598)" fill="#fff"/>
    </g>
    <path id="Trazado_604256" data-name="Trazado 604256" d="M0,0H6V6H0Z" transform="translate(-6587 -11577)" fill="#fff"/>
    <path id="Trazado_604254" data-name="Trazado 604254" d="M0,0H6V6H0Z" transform="translate(-6577 -11577)" fill="#fff"/>
    <path id="Trazado_604252" data-name="Trazado 604252" d="M0,0H6V6H0Z" transform="translate(-6567 -11577)" fill="#fff"/>
    <path id="Trazado_604257" data-name="Trazado 604257" d="M0,0H6V6H0Z" transform="translate(-6587 -11568)" fill="#fff"/>
    <path id="Trazado_604255" data-name="Trazado 604255" d="M0,0H6V6H0Z" transform="translate(-6577 -11568)" fill="#fff"/>
    <path id="Trazado_604253" data-name="Trazado 604253" d="M0,0H6V6H0Z" transform="translate(-6567 -11568)" fill="#fff"/>
    <path id="Trazado_604258" data-name="Trazado 604258" d="M8.8,0H7.485L2.475-7.67V0H1.155V-9.953H2.475L7.5-2.249v-7.7H8.8Zm5.626-1.743,2.844-8.21H18.71L15.019,0H13.856L10.172-9.953H11.6Zm9.263-2.283H21.355V0H20.036V-9.953h3.295a3.9,3.9,0,0,1,2.587.766,2.755,2.755,0,0,1,.906,2.229,2.68,2.68,0,0,1-.5,1.62,3,3,0,0,1-1.4,1.032L27.262-.082V0H25.854ZM21.355-5.1h2.017a2.277,2.277,0,0,0,1.555-.506A1.709,1.709,0,0,0,25.5-6.959a1.8,1.8,0,0,0-.55-1.415,2.333,2.333,0,0,0-1.589-.5h-2.01Z" transform="translate(-6621.992 -11538.345)" fill="#12263f"/>
    <path id="Trazado_604174" data-name="Trazado 604174" d="M-6718.641-10457.758h-28.491v-14.587h1v13.587h27.491Z" transform="translate(0 -1076)" fill="#fb8c00"/>
    <path id="Trazado_604175" data-name="Trazado 604175" d="M-6706.421-10457.758h-40.211v-1h39.211v-13.587h1Z" transform="translate(65.063 -1076)" fill="#fb8c00"/>
    <path id="Trazado_604264" data-name="Trazado 604264" d="M2.851-9.953,6.1-1.832,9.358-9.953h1.7V0H9.748V-3.876L9.871-8.06,6.6,0h-1L2.338-8.039l.13,4.163V0H1.155V-9.953Zm18.184,5.3A6.157,6.157,0,0,1,20.542-2.1,3.728,3.728,0,0,1,19.147-.437a3.837,3.837,0,0,1-2.105.574,3.8,3.8,0,0,1-2.085-.578,3.817,3.817,0,0,1-1.412-1.647,5.908,5.908,0,0,1-.516-2.478v-.718a6.084,6.084,0,0,1,.5-2.536A3.8,3.8,0,0,1,14.94-9.505a3.788,3.788,0,0,1,2.088-.584,3.858,3.858,0,0,1,2.109.578,3.721,3.721,0,0,1,1.4,1.675,6.187,6.187,0,0,1,.492,2.553ZM19.729-5.3a4.463,4.463,0,0,0-.711-2.717,2.345,2.345,0,0,0-1.989-.947,2.32,2.32,0,0,0-1.958.947,4.371,4.371,0,0,0-.735,2.628v.731a4.469,4.469,0,0,0,.721,2.7,2.329,2.329,0,0,0,1.986.981A2.32,2.32,0,0,0,19.011-1.9a4.444,4.444,0,0,0,.718-2.656ZM30.652,0H29.333L24.322-7.67V0H23V-9.953h1.319l5.024,7.7v-7.7h1.306Zm3.739,0H33.079V-9.953h1.313ZM43.47-8.873h-3.2V0H38.965V-8.873H35.772v-1.08h7.7Zm8.941,4.218A6.157,6.157,0,0,1,51.919-2.1,3.728,3.728,0,0,1,50.524-.437a3.837,3.837,0,0,1-2.105.574,3.8,3.8,0,0,1-2.085-.578,3.817,3.817,0,0,1-1.412-1.647,5.908,5.908,0,0,1-.516-2.478v-.718a6.084,6.084,0,0,1,.5-2.536,3.8,3.8,0,0,1,1.412-1.685,3.788,3.788,0,0,1,2.088-.584,3.858,3.858,0,0,1,2.109.578,3.721,3.721,0,0,1,1.4,1.675,6.187,6.187,0,0,1,.492,2.553ZM51.105-5.3a4.463,4.463,0,0,0-.711-2.717,2.345,2.345,0,0,0-1.989-.947,2.32,2.32,0,0,0-1.958.947,4.371,4.371,0,0,0-.735,2.628v.731a4.469,4.469,0,0,0,.721,2.7,2.329,2.329,0,0,0,1.986.981A2.32,2.32,0,0,0,50.388-1.9a4.444,4.444,0,0,0,.718-2.656ZM58.03-4.026H55.692V0H54.373V-9.953h3.295a3.9,3.9,0,0,1,2.587.766,2.755,2.755,0,0,1,.906,2.229,2.68,2.68,0,0,1-.5,1.62,3,3,0,0,1-1.4,1.032L61.6-.082V0H60.19ZM55.692-5.1h2.017a2.277,2.277,0,0,0,1.555-.506,1.709,1.709,0,0,0,.578-1.354,1.8,1.8,0,0,0-.55-1.415,2.333,2.333,0,0,0-1.589-.5h-2.01Z" transform="translate(-6776.132 -11588.907)" fill="#12263f"/>
    <path id="Trazado_604176" data-name="Trazado 604176" d="M-6586.5-10513.146h-1v-14.94h69.125v-21.878h1v22.878H-6586.5Z" transform="translate(0 -1076)" fill="#26aab7"/>
    <path id="Trazado_604177" data-name="Trazado 604177" d="M-6448.8-10494.5h-48.7v-55.464h1v54.464h47.7Z" transform="translate(0 -1076)" fill="#26aab7"/>
    <g id="Grupo_889409" data-name="Grupo 889409" transform="translate(-6439.174 -11588.001)">
      <g id="Grupo_887377" data-name="Grupo 887377" transform="translate(32.644 0)">
        <g id="Grupo_887376" data-name="Grupo 887376" clip-path="url(#clip-path-10)">
          <rect id="Rectángulo_298121" data-name="Rectángulo 298121" width="13.046" height="40.063" transform="translate(-0.9 0.02) rotate(-1.296)" fill="#1565c0"/>
        </g>
      </g>
      <g id="Grupo_887379" data-name="Grupo 887379" transform="translate(2.864 2.865)" style="isolation: isolate">
        <g id="Grupo_887378" data-name="Grupo 887378" clip-path="url(#clip-path-11)">
          <rect id="Rectángulo_298122" data-name="Rectángulo 298122" width="24.445" height="16.048" transform="translate(-0.351 0.008) rotate(-1.296)" fill="#1565c0"/>
        </g>
      </g>
      <g id="Grupo_887381" data-name="Grupo 887381" transform="translate(0 0)">
        <g id="Grupo_887380" data-name="Grupo 887380" clip-path="url(#clip-path-12)">
          <rect id="Rectángulo_298123" data-name="Rectángulo 298123" width="30.726" height="40.667" transform="translate(-0.905 0.02) rotate(-1.296)" fill="#1565c0"/>
        </g>
      </g>
      <g id="Grupo_887383" data-name="Grupo 887383" transform="translate(10.075 34.768)" style="isolation: isolate">
        <g id="Grupo_887382" data-name="Grupo 887382" clip-path="url(#clip-path-13)">
          <rect id="Rectángulo_298124" data-name="Rectángulo 298124" width="9.704" height="1.404" transform="matrix(1, -0.023, 0.023, 1, -0.027, 0.001)" fill="#fb8c00"/>
        </g>
      </g>
      <g id="Grupo_887385" data-name="Grupo 887385" transform="translate(35.508 2.865)">
        <g id="Grupo_887384" data-name="Grupo 887384" clip-path="url(#clip-path-14)">
          <rect id="Rectángulo_298125" data-name="Rectángulo 298125" width="6.512" height="4.293" transform="translate(-0.094 0.002) rotate(-1.296)" fill="#1565c0"/>
        </g>
      </g>
      <g id="Grupo_887389" data-name="Grupo 887389" transform="translate(35.706 17.433)">
        <g id="Grupo_887388" data-name="Grupo 887388" clip-path="url(#clip-path-15)">
          <rect id="Rectángulo_298127" data-name="Rectángulo 298127" width="6.16" height="6.16" transform="translate(-0.136 0.003) rotate(-1.296)" fill="#1565c0"/>
        </g>
      </g>
      <g id="Grupo_887391" data-name="Grupo 887391" transform="translate(35.508 8.134)">
        <g id="Grupo_887384-2" data-name="Grupo 887384" clip-path="url(#clip-path-14)">
          <rect id="Rectángulo_298125-2" data-name="Rectángulo 298125" width="6.512" height="4.293" transform="translate(-0.094 0.002) rotate(-1.296)" fill="#1565c0"/>
        </g>
      </g>
    </g>
    <g id="Grupo_889410" data-name="Grupo 889410" transform="translate(-6352 -11590.798)">
      <g id="Grupo_889404-3" data-name="Grupo 889404" clip-path="url(#clip-path-4)">
        <g id="Grupo_889403-3" data-name="Grupo 889403" transform="translate(0 0)">
          <g id="Grupo_889402-3" data-name="Grupo 889402" clip-path="url(#clip-path-5)">
            <path id="Trazado_604159-3" data-name="Trazado 604159" d="M0,13.8A13.8,13.8,0,1,0,13.8,0,13.8,13.8,0,0,0,0,13.8" transform="translate(0 0)" fill="#fb8c00"/>
            <g id="Grupo_889401-3" data-name="Grupo 889401" transform="translate(6.457 5.723)" opacity="0.8" style="mix-blend-mode: multiply;isolation: isolate">
              <g id="Grupo_889400-3" data-name="Grupo 889400">
                <g id="Grupo_889399-3" data-name="Grupo 889399" clip-path="url(#clip-path-6)">
                  <path id="Trazado_604160-3" data-name="Trazado 604160" d="M40.629,29.434c-.037-.037-.072-.074-.11-.11s-.071-.072-.108-.108-.072-.074-.11-.109-.072-.074-.109-.11-.072-.073-.109-.109-.072-.074-.11-.11-.071-.073-.108-.109-.073-.074-.111-.11-.071-.073-.108-.108-.072-.074-.11-.109-.071-.074-.109-.109-.072-.074-.11-.11-.071-.074-.109-.109-.071-.074-.109-.11-.072-.073-.11-.109-.072-.074-.109-.11-.072-.074-.11-.109-.072-.074-.109-.11-.072-.072-.108-.108-.073-.075-.111-.11-.071-.073-.108-.109-.072-.074-.11-.109-.072-.074-.11-.11-.071-.073-.108-.108-.071-.074-.109-.11-.072-.074-.11-.11-.072-.074-.109-.109-.072-.073-.109-.109-.071-.074-.11-.109-.071-.073-.108-.109-.073-.074-.111-.11-.071-.073-.108-.108-.072-.074-.11-.11-.072-.073-.11-.109-.071-.073-.108-.109-.073-.074-.111-.11-.072-.074-.11-.11-.071-.074-.108-.109-.072-.074-.11-.11-.072-.073-.109-.109-.072-.074-.109-.11-.072-.073-.109-.108-.072-.074-.11-.109-.072-.075-.11-.11-.071-.073-.108-.109-.072-.074-.11-.11-.071-.073-.108-.108-.072-.074-.109-.109-.072-.074-.109-.11-.072-.074-.11-.11-.072-.073-.109-.109-.071-.073-.109-.109-.071-.074-.109-.109-.073-.074-.111-.11-.07-.073-.108-.108-.072-.074-.109-.11-.071-.073-.109-.109-.072-.074-.11-.109-.071-.074-.108-.109-.073-.075-.111-.11-.071-.074-.109-.109-.072-.073-.109-.109-.071-.074-.109-.11-.072-.073-.109-.109-.072-.075-.11-.11-.07-.072-.107-.107-.074-.075-.111-.111-.071-.073-.109-.108-.073-.075-.11-.111-.071-.073-.107-.108-.072-.074-.11-.11-.071-.074-.109-.109-.073-.074-.111-.11a7.341,7.341,0,0,0-3.089-1.828v.03a.832.832,0,0,0-.1-.1.858.858,0,0,0-.109-.109.836.836,0,0,0-.109-.109,52.506,52.506,0,0,1-.218-.218.905.905,0,0,0-.109-.11.951.951,0,0,0-.109-.109A.9.9,0,0,0,28.7,18.8a.945.945,0,0,0-.109-.109.962.962,0,0,0-.11-.11.942.942,0,0,0-.109-.109.91.91,0,0,0-.11-.11.987.987,0,0,0-.108-.108.882.882,0,0,0-.11-.109.736.736,0,0,0-.553-.282c-.466,0-.847.508-.847,1.129v1.981l-.022.007v-.146c-.037.011-.072.025-.109.037v-.145c-.037.011-.073.025-.11.037v-.146c-.037.011-.072.026-.109.037v-.146c-.037.011-.073.025-.11.037V20.4c-.037.011-.072.026-.109.037V20.29c-.037.011-.072.025-.11.037V20.18c-.037.011-.072.026-.109.038v-.147c-.037.011-.072.026-.109.037v-.146c-.038.011-.073.025-.11.037v-.146c-.037.011-.072.026-.109.037v-.146c-.037.011-.073.025-.11.036v-.146a7.337,7.337,0,0,0-3.063,12.285c.035.036.07.071.107.107l.112.112c.036.037.072.074.11.11s.071.072.107.107.072.073.109.109.072.074.11.11l.108.108c.037.037.074.074.111.111l.108.108.111.111.106.106c.037.037.073.075.111.111s.073.073.11.11.072.073.108.108l.109.109.111.111c.036.037.071.073.109.109l.109.11c.036.037.072.073.109.109s.072.074.11.11.072.073.108.108l.11.11c.035.037.071.072.108.108s.074.075.112.111.071.072.108.108.073.074.11.11.071.073.109.109l.109.109.109.11.108.108.112.112c.035.036.07.07.106.105s.073.074.111.111.072.073.109.109l.109.109c.036.037.072.073.109.108s.073.074.11.11.073.074.11.11l.108.108c.036.037.073.074.11.11s.072.073.11.109.072.072.108.108.072.073.109.109.073.075.111.111.071.073.108.108l.109.109c.036.037.073.074.11.11s.072.073.109.109l.106.107.112.112.108.108.109.109.11.11c.035.037.072.073.108.108l.11.11q.053.055.108.108c.036.037.073.074.11.11l.11.11c.035.037.072.072.108.108s.073.074.11.11.071.073.108.108.073.074.11.111l.11.109c.035.037.072.073.108.109s.072.072.108.107.074.076.112.112.071.072.107.107.073.074.11.11l.109.109.061.061A13.812,13.812,0,0,0,40.8,29.6l-.06-.06c-.037-.036-.072-.074-.11-.11" transform="translate(-20.155 -17.865)" fill="#e6e9ed"/>
                </g>
              </g>
            </g>
            <path id="Trazado_604161-3" data-name="Trazado 604161" d="M41.274,26.9c.466,0,.847-.509.847-1.129V18.994c0-.621-.381-1.129-.847-1.129s-.847.508-.847,1.129v6.777c0,.62.381,1.129.847,1.129" transform="translate(-27.477 -12.142)" fill="#fff"/>
            <path id="Trazado_604162-3" data-name="Trazado 604162" d="M29.567,23.388v1.79a5.648,5.648,0,1,1-4.142,0v-1.79a7.341,7.341,0,1,0,4.142,0" transform="translate(-13.699 -15.896)" fill="#fff"/>
          </g>
        </g>
      </g>
    </g>
    <path id="Trazado_604178" data-name="Trazado 604178" d="M-6574.345-10977.883H-6588.3v-1h20.946v1Z" transform="translate(197.57 -592.617)" fill="#fb8c00"/>
    <path id="Trazado_604179" data-name="Trazado 604179" d="M-6490.68-10432.875h-17.173v-117.089h1v116.089h16.173Z" transform="translate(0 -1076)" fill="#26aab7"/>
    <path id="Trazado_604215" data-name="Trazado 604215" d="M0,0H95.853V29H0Z" transform="translate(-6477 -11524.407)" fill="#1565c0"/>
    <path id="Trazado_604216" data-name="Trazado 604216" d="M0,0H6V6H0Z" transform="translate(-6418.147 -11517.281)" fill="#fff"/>
    <path id="Trazado_604217" data-name="Trazado 604217" d="M0,0H6V6H0Z" transform="translate(-6408.147 -11517.281)" fill="#fff"/>
    <path id="Trazado_604218" data-name="Trazado 604218" d="M0,0H6V6H0Z" transform="translate(-6398.147 -11517.281)" fill="#fff"/>
    <path id="Trazado_604220" data-name="Trazado 604220" d="M0,0H6V6H0Z" transform="translate(-6418.147 -11508.281)" fill="#fff"/>
    <path id="Trazado_604221" data-name="Trazado 604221" d="M0,0H6V6H0Z" transform="translate(-6408.147 -11508.281)" fill="#fff"/>
    <path id="Trazado_604222" data-name="Trazado 604222" d="M0,0H6V6H0Z" transform="translate(-6398.147 -11508.281)" fill="#fff"/>
    <path id="Trazado_604223" data-name="Trazado 604223" d="M0,0H45.853V15H0Z" transform="translate(-6470 -11517.281)" fill="#fff"/>
    <g id="Grupo_889411" data-name="Grupo 889411" transform="translate(-6352 -11529.891)">
      <g id="Grupo_889404-4" data-name="Grupo 889404" clip-path="url(#clip-path-4)">
        <g id="Grupo_889403-4" data-name="Grupo 889403" transform="translate(0 0)">
          <g id="Grupo_889402-4" data-name="Grupo 889402" clip-path="url(#clip-path-5)">
            <path id="Trazado_604159-4" data-name="Trazado 604159" d="M0,13.8A13.8,13.8,0,1,0,13.8,0,13.8,13.8,0,0,0,0,13.8" transform="translate(0 0)" fill="#fb8c00"/>
            <g id="Grupo_889401-4" data-name="Grupo 889401" transform="translate(6.457 5.723)" opacity="0.8" style="mix-blend-mode: multiply;isolation: isolate">
              <g id="Grupo_889400-4" data-name="Grupo 889400">
                <g id="Grupo_889399-4" data-name="Grupo 889399" clip-path="url(#clip-path-6)">
                  <path id="Trazado_604160-4" data-name="Trazado 604160" d="M40.629,29.434c-.037-.037-.072-.074-.11-.11s-.071-.072-.108-.108-.072-.074-.11-.109-.072-.074-.109-.11-.072-.073-.109-.109-.072-.074-.11-.11-.071-.073-.108-.109-.073-.074-.111-.11-.071-.073-.108-.108-.072-.074-.11-.109-.071-.074-.109-.109-.072-.074-.11-.11-.071-.074-.109-.109-.071-.074-.109-.11-.072-.073-.11-.109-.072-.074-.109-.11-.072-.074-.11-.109-.072-.074-.109-.11-.072-.072-.108-.108-.073-.075-.111-.11-.071-.073-.108-.109-.072-.074-.11-.109-.072-.074-.11-.11-.071-.073-.108-.108-.071-.074-.109-.11-.072-.074-.11-.11-.072-.074-.109-.109-.072-.073-.109-.109-.071-.074-.11-.109-.071-.073-.108-.109-.073-.074-.111-.11-.071-.073-.108-.108-.072-.074-.11-.11-.072-.073-.11-.109-.071-.073-.108-.109-.073-.074-.111-.11-.072-.074-.11-.11-.071-.074-.108-.109-.072-.074-.11-.11-.072-.073-.109-.109-.072-.074-.109-.11-.072-.073-.109-.108-.072-.074-.11-.109-.072-.075-.11-.11-.071-.073-.108-.109-.072-.074-.11-.11-.071-.073-.108-.108-.072-.074-.109-.109-.072-.074-.109-.11-.072-.074-.11-.11-.072-.073-.109-.109-.071-.073-.109-.109-.071-.074-.109-.109-.073-.074-.111-.11-.07-.073-.108-.108-.072-.074-.109-.11-.071-.073-.109-.109-.072-.074-.11-.109-.071-.074-.108-.109-.073-.075-.111-.11-.071-.074-.109-.109-.072-.073-.109-.109-.071-.074-.109-.11-.072-.073-.109-.109-.072-.075-.11-.11-.07-.072-.107-.107-.074-.075-.111-.111-.071-.073-.109-.108-.073-.075-.11-.111-.071-.073-.107-.108-.072-.074-.11-.11-.071-.074-.109-.109-.073-.074-.111-.11a7.341,7.341,0,0,0-3.089-1.828v.03a.832.832,0,0,0-.1-.1.858.858,0,0,0-.109-.109.836.836,0,0,0-.109-.109,52.506,52.506,0,0,1-.218-.218.905.905,0,0,0-.109-.11.951.951,0,0,0-.109-.109A.9.9,0,0,0,28.7,18.8a.945.945,0,0,0-.109-.109.962.962,0,0,0-.11-.11.942.942,0,0,0-.109-.109.91.91,0,0,0-.11-.11.987.987,0,0,0-.108-.108.882.882,0,0,0-.11-.109.736.736,0,0,0-.553-.282c-.466,0-.847.508-.847,1.129v1.981l-.022.007v-.146c-.037.011-.072.025-.109.037v-.145c-.037.011-.073.025-.11.037v-.146c-.037.011-.072.026-.109.037v-.146c-.037.011-.073.025-.11.037V20.4c-.037.011-.072.026-.109.037V20.29c-.037.011-.072.025-.11.037V20.18c-.037.011-.072.026-.109.038v-.147c-.037.011-.072.026-.109.037v-.146c-.038.011-.073.025-.11.037v-.146c-.037.011-.072.026-.109.037v-.146c-.037.011-.073.025-.11.036v-.146a7.337,7.337,0,0,0-3.063,12.285c.035.036.07.071.107.107l.112.112c.036.037.072.074.11.11s.071.072.107.107.072.073.109.109.072.074.11.11l.108.108c.037.037.074.074.111.111l.108.108.111.111.106.106c.037.037.073.075.111.111s.073.073.11.11.072.073.108.108l.109.109.111.111c.036.037.071.073.109.109l.109.11c.036.037.072.073.109.109s.072.074.11.11.072.073.108.108l.11.11c.035.037.071.072.108.108s.074.075.112.111.071.072.108.108.073.074.11.11.071.073.109.109l.109.109.109.11.108.108.112.112c.035.036.07.07.106.105s.073.074.111.111.072.073.109.109l.109.109c.036.037.072.073.109.108s.073.074.11.11.073.074.11.11l.108.108c.036.037.073.074.11.11s.072.073.11.109.072.072.108.108.072.073.109.109.073.075.111.111.071.073.108.108l.109.109c.036.037.073.074.11.11s.072.073.109.109l.106.107.112.112.108.108.109.109.11.11c.035.037.072.073.108.108l.11.11q.053.055.108.108c.036.037.073.074.11.11l.11.11c.035.037.072.072.108.108s.073.074.11.11.071.073.108.108.073.074.11.111l.11.109c.035.037.072.073.108.109s.072.072.108.107.074.076.112.112.071.072.107.107.073.074.11.11l.109.109.061.061A13.812,13.812,0,0,0,40.8,29.6l-.06-.06c-.037-.036-.072-.074-.11-.11" transform="translate(-20.155 -17.865)" fill="#e6e9ed"/>
                </g>
              </g>
            </g>
            <path id="Trazado_604161-4" data-name="Trazado 604161" d="M41.274,26.9c.466,0,.847-.509.847-1.129V18.994c0-.621-.381-1.129-.847-1.129s-.847.508-.847,1.129v6.777c0,.62.381,1.129.847,1.129" transform="translate(-27.477 -12.142)" fill="#fff"/>
            <path id="Trazado_604162-4" data-name="Trazado 604162" d="M29.567,23.388v1.79a5.648,5.648,0,1,1-4.142,0v-1.79a7.341,7.341,0,1,0,4.142,0" transform="translate(-13.699 -15.896)" fill="#fff"/>
          </g>
        </g>
      </g>
    </g>
    <path id="Trazado_604180" data-name="Trazado 604180" d="M-6574.345-10977.883H-6588.3v-1h20.946v1Z" transform="translate(209.833 -531.71)" fill="#fb8c00"/>
    <g id="Grupo_889412" data-name="Grupo 889412" transform="translate(-6755.942 -11449.125)">
      <g id="Grupo_887377-2" data-name="Grupo 887377" transform="translate(43.353 0)">
        <g id="Grupo_887376-2" data-name="Grupo 887376" clip-path="url(#clip-path-23)">
          <rect id="Rectángulo_298121-2" data-name="Rectángulo 298121" width="17.326" height="53.206" transform="translate(-1.195 0.027) rotate(-1.296)" fill="#1565c0"/>
        </g>
      </g>
      <g id="Grupo_887379-2" data-name="Grupo 887379" transform="translate(3.804 3.805)" style="isolation: isolate">
        <g id="Grupo_887378-2" data-name="Grupo 887378" clip-path="url(#clip-path-24)">
          <rect id="Rectángulo_298122-2" data-name="Rectángulo 298122" width="32.465" height="21.313" transform="translate(-0.466 0.011) rotate(-1.296)" fill="#1565c0"/>
        </g>
      </g>
      <g id="Grupo_887381-2" data-name="Grupo 887381" transform="translate(0 0)">
        <g id="Grupo_887380-2" data-name="Grupo 887380" clip-path="url(#clip-path-25)">
          <rect id="Rectángulo_298123-2" data-name="Rectángulo 298123" width="40.806" height="54.008" transform="translate(-1.201 0.027) rotate(-1.296)" fill="#1565c0"/>
        </g>
      </g>
      <g id="Grupo_887383-2" data-name="Grupo 887383" transform="translate(13.38 46.174)" style="isolation: isolate">
        <g id="Grupo_887382-2" data-name="Grupo 887382" clip-path="url(#clip-path-26)">
          <rect id="Rectángulo_298124-2" data-name="Rectángulo 298124" width="12.887" height="1.864" transform="matrix(1, -0.023, 0.023, 1, -0.036, 0.001)" fill="#fb8c00"/>
        </g>
      </g>
      <g id="Grupo_887385-2" data-name="Grupo 887385" transform="translate(47.158 3.805)">
        <g id="Grupo_887384-3" data-name="Grupo 887384" clip-path="url(#clip-path-27)">
          <rect id="Rectángulo_298125-3" data-name="Rectángulo 298125" width="8.649" height="5.701" transform="translate(-0.125 0.003) rotate(-1.296)" fill="#1565c0"/>
        </g>
      </g>
      <g id="Grupo_887389-2" data-name="Grupo 887389" transform="translate(47.42 23.153)">
        <g id="Grupo_887388-2" data-name="Grupo 887388" clip-path="url(#clip-path-28)">
          <rect id="Rectángulo_298127-2" data-name="Rectángulo 298127" width="8.181" height="8.181" transform="translate(-0.181 0.004) rotate(-1.296)" fill="#1565c0"/>
        </g>
      </g>
      <g id="Grupo_887391-2" data-name="Grupo 887391" transform="translate(47.158 10.803)">
        <g id="Grupo_887384-4" data-name="Grupo 887384" clip-path="url(#clip-path-27)">
          <rect id="Rectángulo_298125-4" data-name="Rectángulo 298125" width="8.649" height="5.701" transform="translate(-0.125 0.003) rotate(-1.296)" fill="#1565c0"/>
        </g>
      </g>
    </g>
    <path id="Trazado_604214" data-name="Trazado 604214" d="M2.475-1.073H7.191V0H1.155V-9.953H2.475ZM15.9-4.655A6.157,6.157,0,0,1,15.408-2.1,3.728,3.728,0,0,1,14.014-.437a3.837,3.837,0,0,1-2.105.574A3.8,3.8,0,0,1,9.823-.441,3.817,3.817,0,0,1,8.412-2.088,5.908,5.908,0,0,1,7.9-4.566v-.718a6.084,6.084,0,0,1,.5-2.536A3.8,3.8,0,0,1,9.806-9.505a3.788,3.788,0,0,1,2.088-.584A3.858,3.858,0,0,1,14-9.512a3.721,3.721,0,0,1,1.4,1.675A6.187,6.187,0,0,1,15.9-5.284ZM14.595-5.3a4.463,4.463,0,0,0-.711-2.717,2.345,2.345,0,0,0-1.989-.947,2.32,2.32,0,0,0-1.958.947A4.371,4.371,0,0,0,9.2-5.387v.731a4.469,4.469,0,0,0,.721,2.7,2.329,2.329,0,0,0,1.986.981A2.32,2.32,0,0,0,13.877-1.9a4.444,4.444,0,0,0,.718-2.656Zm10.6,2.14A3.662,3.662,0,0,1,24.025-.721a3.82,3.82,0,0,1-2.608.858A3.507,3.507,0,0,1,18.59-1.128a5.088,5.088,0,0,1-1.063-3.384v-.957a5.671,5.671,0,0,1,.5-2.44,3.7,3.7,0,0,1,1.4-1.617,3.911,3.911,0,0,1,2.105-.564,3.6,3.6,0,0,1,2.543.885A3.706,3.706,0,0,1,25.19-6.754H23.871a2.847,2.847,0,0,0-.742-1.723,2.248,2.248,0,0,0-1.6-.533,2.349,2.349,0,0,0-1.972.93,4.265,4.265,0,0,0-.714,2.646v.964a4.384,4.384,0,0,0,.677,2.577,2.187,2.187,0,0,0,1.894.957,2.526,2.526,0,0,0,1.678-.5,2.75,2.75,0,0,0,.776-1.726Zm7.287.561h-4.17L27.371,0H26.018l3.8-9.953h1.148L34.774,0H33.428ZM28.7-3.678h3.384l-1.7-4.655Zm8.729,2.6H42.15V0H36.114V-9.953h1.319ZM48.426-3.9V0H47.113V-9.953h3.671a3.688,3.688,0,0,1,2.56.834,2.827,2.827,0,0,1,.926,2.208,2.79,2.79,0,0,1-.906,2.232,3.853,3.853,0,0,1-2.594.783Zm0-1.073h2.358a2.361,2.361,0,0,0,1.613-.5A1.811,1.811,0,0,0,52.958-6.9,1.87,1.87,0,0,0,52.4-8.319a2.212,2.212,0,0,0-1.538-.554H48.426ZM63.267-3.158A3.662,3.662,0,0,1,62.1-.721a3.82,3.82,0,0,1-2.608.858,3.507,3.507,0,0,1-2.827-1.265A5.088,5.088,0,0,1,55.6-4.512v-.957a5.671,5.671,0,0,1,.5-2.44,3.7,3.7,0,0,1,1.4-1.617,3.911,3.911,0,0,1,2.105-.564,3.6,3.6,0,0,1,2.543.885,3.706,3.706,0,0,1,1.114,2.451H61.947a2.847,2.847,0,0,0-.742-1.723,2.248,2.248,0,0,0-1.6-.533,2.349,2.349,0,0,0-1.972.93,4.265,4.265,0,0,0-.714,2.646v.964A4.384,4.384,0,0,0,57.6-1.894a2.187,2.187,0,0,0,1.894.957,2.526,2.526,0,0,0,1.678-.5,2.75,2.75,0,0,0,.776-1.726Z" transform="translate(-6447 -11595.375)" fill="#12263f"/>
    <g id="Grupo_889413" data-name="Grupo 889413" transform="translate(-6632.129 -11455.775)" style="isolation: isolate">
      <g id="Grupo_887360" data-name="Grupo 887360" transform="translate(22.999 7.909)">
        <g id="Grupo_887359" data-name="Grupo 887359" clip-path="url(#clip-path-30)">
          <rect id="Rectángulo_298107" data-name="Rectángulo 298107" width="15.01" height="16.745" transform="translate(-0.432 0)" fill="#1565c0"/>
        </g>
      </g>
      <g id="Grupo_887362" data-name="Grupo 887362">
        <g id="Grupo_887361" data-name="Grupo 887361" clip-path="url(#clip-path-31)">
          <rect id="Rectángulo_298108" data-name="Rectángulo 298108" width="84.276" height="66.425" fill="#1565c0"/>
        </g>
      </g>
      <g id="Grupo_887364" data-name="Grupo 887364" transform="translate(51.521 43.425)">
        <g id="Grupo_887363" data-name="Grupo 887363" clip-path="url(#clip-path-32)">
          <rect id="Rectángulo_298109" data-name="Rectángulo 298109" width="3.68" height="3.68" transform="translate(0 0)" fill="#fb8c00"/>
        </g>
      </g>
      <g id="Grupo_887366" data-name="Grupo 887366" transform="translate(57.778 43.425)">
        <g id="Grupo_887365" data-name="Grupo 887365" clip-path="url(#clip-path-32)">
          <rect id="Rectángulo_298111" data-name="Rectángulo 298111" width="3.68" height="3.68" transform="translate(0 0)" fill="#fb8c00"/>
        </g>
      </g>
      <g id="Grupo_887368" data-name="Grupo 887368" transform="translate(64.034 43.425)">
        <g id="Grupo_887367" data-name="Grupo 887367" clip-path="url(#clip-path-32)">
          <rect id="Rectángulo_298113" data-name="Rectángulo 298113" width="3.68" height="3.68" transform="translate(0 0)" fill="#fb8c00"/>
        </g>
      </g>
      <g id="Grupo_887370" data-name="Grupo 887370" transform="translate(14.075 43.423)">
        <g id="Grupo_887369" data-name="Grupo 887369" clip-path="url(#clip-path-35)">
          <rect id="Rectángulo_298115" data-name="Rectángulo 298115" width="3.679" height="3.679" fill="#fb8c00"/>
        </g>
      </g>
      <g id="Grupo_887372" data-name="Grupo 887372" transform="translate(20.332 43.423)">
        <g id="Grupo_887371" data-name="Grupo 887371" clip-path="url(#clip-path-35)">
          <rect id="Rectángulo_298117" data-name="Rectángulo 298117" width="3.679" height="3.679" transform="translate(0)" fill="#fb8c00"/>
        </g>
      </g>
      <g id="Grupo_887374" data-name="Grupo 887374" transform="translate(26.585 43.423)">
        <g id="Grupo_887373" data-name="Grupo 887373" clip-path="url(#clip-path-37)">
          <rect id="Rectángulo_298119" data-name="Rectángulo 298119" width="3.683" height="3.679" fill="#fb8c00"/>
        </g>
      </g>
    </g>
    <path id="Trazado_604259" data-name="Trazado 604259" d="M2.563,0H1.251V-9.953H2.563ZM12.612,0H11.293L6.282-7.67V0H4.963V-9.953H6.282l5.024,7.7v-7.7h1.306Zm9.01-8.873h-3.2V0H17.117V-8.873H13.925v-1.08h7.7Zm7.1,4.272H24.411v3.527h5.011V0H23.1V-9.953h6.255v1.08H24.411v3.2h4.313Zm5.981.574H32.368V0H31.049V-9.953h3.295a3.9,3.9,0,0,1,2.587.766,2.755,2.755,0,0,1,.906,2.229,2.68,2.68,0,0,1-.5,1.62,3,3,0,0,1-1.4,1.032L38.274-.082V0H36.866ZM32.368-5.1h2.017a2.277,2.277,0,0,0,1.555-.506,1.709,1.709,0,0,0,.578-1.354,1.8,1.8,0,0,0-.55-1.415,2.333,2.333,0,0,0-1.589-.5h-2.01ZM47.325,0H46.006L41-7.67V0H39.676V-9.953H41l5.024,7.7v-7.7h1.306Zm7.957-4.6H50.969v3.527h5.011V0H49.656V-9.953h6.255v1.08H50.969v3.2h4.313Zm9.345-4.272h-3.2V0H60.122V-8.873H56.93v-1.08h7.7Z" transform="translate(-6624.992 -11373)" fill="#12263f"/>
    <path id="Trazado_604181" data-name="Trazado 604181" d="M-6429.237-10346.578h-111.828v-1h110.828v-45.852h1Z" transform="translate(0 -1076)" fill="#26aab7"/>
    <path id="Trazado_604182" data-name="Trazado 604182" d="M-6643.6-10346.062h-41.38v-1h41.38Z" transform="translate(0 -1076)" fill="#26aab7"/>
    <g id="Icon_feather-smartphone" data-name="Icon feather-smartphone" transform="translate(-6798.132 -11486.907)">
      <path id="Trazado_604183" data-name="Trazado 604183" d="M10.5,2h15a4,4,0,0,1,4,4V30a4,4,0,0,1-4,4h-15a4,4,0,0,1-4-4V6A4,4,0,0,1,10.5,2Zm15,30a2,2,0,0,0,2-2V6a2,2,0,0,0-2-2h-15a2,2,0,0,0-2,2V30a2,2,0,0,0,2,2Z" fill="#1565c0"/>
      <path id="Trazado_604184" data-name="Trazado 604184" fill="#1565c0"/>
    </g>
    <path id="Trazado_604185" data-name="Trazado 604185" d="M-6641.841-10357.917h-43.641v-21.858h1v20.858h42.641Z" transform="translate(0 -1076)" fill="#12263f"/>
    <path id="Trazado_604186" data-name="Trazado 604186" d="M-6553.411-10977.383h-34.89v-2h52.366v2Z" transform="translate(241.154 -824.117)" fill="#fb8c00"/>
    <path id="Trazado_604187" data-name="Trazado 604187" d="M-6553.411-10977.383h-34.89v-2h52.366v2Z" transform="translate(241.154 -799.014)" fill="#26aab7"/>
    <path id="Trazado_604213" data-name="Trazado 604213" d="M8.477-3.158A3.662,3.662,0,0,1,7.311-.721,3.82,3.82,0,0,1,4.7.137,3.507,3.507,0,0,1,1.876-1.128,5.088,5.088,0,0,1,.813-4.512v-.957a5.671,5.671,0,0,1,.5-2.44,3.7,3.7,0,0,1,1.4-1.617,3.911,3.911,0,0,1,2.105-.564A3.6,3.6,0,0,1,7.362-9.2,3.706,3.706,0,0,1,8.477-6.754H7.157a2.847,2.847,0,0,0-.742-1.723,2.248,2.248,0,0,0-1.6-.533,2.349,2.349,0,0,0-1.972.93,4.265,4.265,0,0,0-.714,2.646v.964A4.384,4.384,0,0,0,2.81-1.894,2.187,2.187,0,0,0,4.7-.937a2.526,2.526,0,0,0,1.678-.5,2.75,2.75,0,0,0,.776-1.726Zm7.287.561h-4.17L10.657,0H9.3l3.8-9.953h1.148L18.061,0H16.714ZM11.99-3.678h3.384l-1.7-4.655ZM25.4-8.873H22.2V0H20.891V-8.873H17.7v-1.08h7.7ZM34.7-9.96v1.073h-.232a3.33,3.33,0,0,0-2.352.875A3.641,3.641,0,0,0,31.1-5.626a2.7,2.7,0,0,1,2.146-.9,2.581,2.581,0,0,1,2.075.916A3.533,3.533,0,0,1,36.1-3.247a3.522,3.522,0,0,1-.837,2.461,2.883,2.883,0,0,1-2.246.923A2.841,2.841,0,0,1,30.7-.96a4.348,4.348,0,0,1-.889-2.827v-.485a6.552,6.552,0,0,1,1.172-4.2,4.306,4.306,0,0,1,3.49-1.487ZM33.038-5.476a2.018,2.018,0,0,0-1.2.39,2.03,2.03,0,0,0-.759.978v.465a3.265,3.265,0,0,0,.554,1.982,1.659,1.659,0,0,0,1.381.752,1.608,1.608,0,0,0,1.343-.629,2.61,2.61,0,0,0,.489-1.647,2.61,2.61,0,0,0-.5-1.658A1.589,1.589,0,0,0,33.038-5.476ZM48.4-9.953v6.768a3.175,3.175,0,0,1-.885,2.3,3.567,3.567,0,0,1-2.382,1l-.349.014a3.725,3.725,0,0,1-2.6-.882,3.154,3.154,0,0,1-.984-2.427V-9.953h1.3v6.74a2.277,2.277,0,0,0,.595,1.678,2.286,2.286,0,0,0,1.7.6,2.3,2.3,0,0,0,1.706-.595,2.272,2.272,0,0,0,.591-1.675V-9.953Zm8.948,1.08h-3.2V0H52.842V-8.873H49.649v-1.08h7.7ZM60.136-3.9V0H58.823V-9.953h3.671a3.688,3.688,0,0,1,2.56.834,2.827,2.827,0,0,1,.926,2.208,2.79,2.79,0,0,1-.906,2.232A3.853,3.853,0,0,1,62.48-3.9Zm0-1.073h2.358a2.361,2.361,0,0,0,1.613-.5A1.811,1.811,0,0,0,64.668-6.9a1.871,1.871,0,0,0-.561-1.422,2.212,2.212,0,0,0-1.538-.554H60.136ZM78.442-3.158A3.662,3.662,0,0,1,77.277-.721a3.82,3.82,0,0,1-2.608.858,3.507,3.507,0,0,1-2.827-1.265,5.088,5.088,0,0,1-1.063-3.384v-.957a5.671,5.671,0,0,1,.5-2.44,3.7,3.7,0,0,1,1.4-1.617,3.911,3.911,0,0,1,2.105-.564,3.6,3.6,0,0,1,2.543.885,3.706,3.706,0,0,1,1.114,2.451H77.123a2.847,2.847,0,0,0-.742-1.723,2.248,2.248,0,0,0-1.6-.533,2.349,2.349,0,0,0-1.972.93A4.265,4.265,0,0,0,72.1-5.435v.964a4.384,4.384,0,0,0,.677,2.577,2.187,2.187,0,0,0,1.894.957,2.526,2.526,0,0,0,1.678-.5,2.75,2.75,0,0,0,.776-1.726Zm7.287.561H81.56L80.623,0H79.27l3.8-9.953h1.148L88.026,0H86.68Zm-3.773-1.08H85.34l-1.7-4.655ZM89.366,0V-9.953H92.62a3.777,3.777,0,0,1,2.437.67A2.414,2.414,0,0,1,95.874-7.3a2.022,2.022,0,0,1-.4,1.234,2.57,2.57,0,0,1-1.08.831,2.308,2.308,0,0,1,1.275.858,2.462,2.462,0,0,1,.468,1.507,2.662,2.662,0,0,1-.868,2.105A3.59,3.59,0,0,1,92.818,0Zm1.313-4.655v3.582h2.167a2.087,2.087,0,0,0,1.446-.475,1.669,1.669,0,0,0,.53-1.309q0-1.8-1.955-1.8Zm0-1.053h1.982a2.081,2.081,0,0,0,1.377-.431,1.442,1.442,0,0,0,.516-1.169A1.418,1.418,0,0,0,94.076-8.5a2.354,2.354,0,0,0-1.456-.373H90.679ZM99.4-1.073h4.717V0H98.082V-9.953H99.4ZM111.241-4.6h-4.313v3.527h5.011V0h-6.323V-9.953h6.255v1.08h-4.942v3.2h4.313Z" transform="translate(-6468.948 -11775.126)" fill="#12263f"/>
    <path id="Trazado_604300" data-name="Trazado 604300" d="M2.365-3.9,1.688,0H.4L2.133-9.953l3.322.007a3.249,3.249,0,0,1,2.372.817,2.57,2.57,0,0,1,.718,2.17A3.1,3.1,0,0,1,7.407-4.71a4.128,4.128,0,0,1-2.676.82ZM2.55-4.97l2.215.007A2.694,2.694,0,0,0,6.48-5.489a2.106,2.106,0,0,0,.786-1.463,1.65,1.65,0,0,0-.349-1.364,1.755,1.755,0,0,0-1.333-.55L3.227-8.873ZM12.688.137a3.187,3.187,0,0,1-1.651-.458,2.967,2.967,0,0,1-1.1-1.289,4.854,4.854,0,0,1-.444-1.911,9.074,9.074,0,0,1,.185-2.044,7.009,7.009,0,0,1,.779-2.194A4.945,4.945,0,0,1,11.8-9.324a3.876,3.876,0,0,1,2.447-.766,2.945,2.945,0,0,1,2.3,1.008,4.193,4.193,0,0,1,.9,2.656A9.778,9.778,0,0,1,17.3-4.6a7.556,7.556,0,0,1-.622,2.058A5.135,5.135,0,0,1,15.538-.95,3.914,3.914,0,0,1,12.688.137Zm3.493-6.248A3.449,3.449,0,0,0,15.709-8.2a1.8,1.8,0,0,0-1.524-.769,2.593,2.593,0,0,0-1.637.492,3.726,3.726,0,0,0-1.183,1.555A8.013,8.013,0,0,0,10.78-4.3l-.021.444a3.479,3.479,0,0,0,.479,2.1,1.781,1.781,0,0,0,1.511.786A2.633,2.633,0,0,0,14.892-1.9a5.3,5.3,0,0,0,1.131-2.717A12.243,12.243,0,0,0,16.181-6.111Zm4.908,3.042-.027,1.2.465-1.176L24.5-9.953h1.087l.786,7,.068,1.135.431-1.374,2.543-6.761h1.319L26.838,0H25.669l-.861-7.308-.027-.684-.287.793L21.321,0H20.152l-.779-9.953h1.251ZM36.825-4.6H32.642l-.615,3.527h4.867L36.7,0H30.557l1.729-9.953h6.077l-.191,1.08H33.38l-.554,3.2H37.01Zm5.8.574h-2.3L39.628,0H38.336l1.729-9.953,2.994.007a3.339,3.339,0,0,1,2.386.793,2.472,2.472,0,0,1,.69,2.14,2.831,2.831,0,0,1-.68,1.647,3.716,3.716,0,0,1-1.61,1.073l1.545,4.2L45.384,0H44.017ZM40.51-5.1l1.887.007a2.635,2.635,0,0,0,1.661-.523,2.036,2.036,0,0,0,.793-1.4,1.608,1.608,0,0,0-.342-1.34,1.826,1.826,0,0,0-1.354-.513l-1.989-.007Zm17.8,1.941A3.662,3.662,0,0,1,57.145-.721a3.82,3.82,0,0,1-2.608.858A3.507,3.507,0,0,1,51.71-1.128a5.088,5.088,0,0,1-1.063-3.384v-.957a5.671,5.671,0,0,1,.5-2.44,3.7,3.7,0,0,1,1.4-1.617,3.911,3.911,0,0,1,2.105-.564A3.6,3.6,0,0,1,57.2-9.2a3.706,3.706,0,0,1,1.114,2.451H56.991a2.847,2.847,0,0,0-.742-1.723,2.248,2.248,0,0,0-1.6-.533,2.349,2.349,0,0,0-1.972.93,4.265,4.265,0,0,0-.714,2.646v.964a4.384,4.384,0,0,0,.677,2.577,2.187,2.187,0,0,0,1.894.957,2.526,2.526,0,0,0,1.678-.5,2.75,2.75,0,0,0,.776-1.726ZM65.6-2.6h-4.17L60.491,0H59.138l3.8-9.953h1.148L67.895,0H66.548Zm-3.773-1.08h3.384l-1.7-4.655ZM69.234,0V-9.953h3.254a3.777,3.777,0,0,1,2.437.67A2.414,2.414,0,0,1,75.742-7.3a2.022,2.022,0,0,1-.4,1.234,2.57,2.57,0,0,1-1.08.831,2.308,2.308,0,0,1,1.275.858,2.462,2.462,0,0,1,.468,1.507,2.662,2.662,0,0,1-.868,2.105A3.59,3.59,0,0,1,72.687,0Zm1.313-4.655v3.582h2.167a2.087,2.087,0,0,0,1.446-.475,1.669,1.669,0,0,0,.53-1.309q0-1.8-1.955-1.8Zm0-1.053h1.982a2.081,2.081,0,0,0,1.377-.431,1.442,1.442,0,0,0,.516-1.169A1.418,1.418,0,0,0,73.944-8.5a2.354,2.354,0,0,0-1.456-.373H70.547ZM79.27-1.073h4.717V0H77.95V-9.953H79.27ZM91.109-4.6H86.8v3.527h5.011V0H85.483V-9.953h6.255v1.08H86.8v3.2h4.313Z" transform="translate(-6450 -11798.863)" fill="#12263f"/>
    <path id="Trazado_604301" data-name="Trazado 604301" d="M2.468-3.9V0H1.155V-9.953H4.826a3.688,3.688,0,0,1,2.56.834,2.827,2.827,0,0,1,.926,2.208,2.79,2.79,0,0,1-.906,2.232A3.853,3.853,0,0,1,4.813-3.9Zm0-1.073H4.826a2.361,2.361,0,0,0,1.613-.5A1.811,1.811,0,0,0,7-6.9a1.871,1.871,0,0,0-.561-1.422A2.212,2.212,0,0,0,4.9-8.873H2.468Zm15.176.314A6.157,6.157,0,0,1,17.151-2.1,3.728,3.728,0,0,1,15.757-.437a3.837,3.837,0,0,1-2.105.574,3.8,3.8,0,0,1-2.085-.578,3.817,3.817,0,0,1-1.412-1.647,5.908,5.908,0,0,1-.516-2.478v-.718a6.084,6.084,0,0,1,.5-2.536,3.8,3.8,0,0,1,1.412-1.685,3.788,3.788,0,0,1,2.088-.584,3.858,3.858,0,0,1,2.109.578,3.721,3.721,0,0,1,1.4,1.675,6.187,6.187,0,0,1,.492,2.553ZM16.338-5.3a4.463,4.463,0,0,0-.711-2.717,2.345,2.345,0,0,0-1.989-.947,2.32,2.32,0,0,0-1.958.947,4.371,4.371,0,0,0-.735,2.628v.731a4.469,4.469,0,0,0,.721,2.7,2.329,2.329,0,0,0,1.986.981A2.32,2.32,0,0,0,15.62-1.9a4.444,4.444,0,0,0,.718-2.656Zm8.9.7H20.925v3.527h5.011V0H19.612V-9.953h6.255v1.08H20.925v3.2h4.313ZM35.875-2.563q.15-1.094-1.135-1.6l-1.183-.431-.4-.171q-2-.909-1.866-2.557a2.674,2.674,0,0,1,.567-1.463,3.228,3.228,0,0,1,1.323-.981,4.243,4.243,0,0,1,1.753-.325,3.5,3.5,0,0,1,1.61.4,2.592,2.592,0,0,1,1.077,1.07,2.916,2.916,0,0,1,.328,1.548l-1.292-.007a1.772,1.772,0,0,0-.41-1.418,1.84,1.84,0,0,0-1.367-.516,2.55,2.55,0,0,0-1.565.438,1.707,1.707,0,0,0-.725,1.23Q32.457-6.323,33.845-5.8l1.019.362.513.219A2.574,2.574,0,0,1,37.16-2.577a2.636,2.636,0,0,1-.567,1.453,3.172,3.172,0,0,1-1.336.947,4.607,4.607,0,0,1-1.815.314,3.8,3.8,0,0,1-1.712-.4A2.794,2.794,0,0,1,30.55-1.34a2.693,2.693,0,0,1-.355-1.552l1.285.007a1.693,1.693,0,0,0,.482,1.412A2.169,2.169,0,0,0,33.5-.937a2.74,2.74,0,0,0,1.634-.431A1.677,1.677,0,0,0,35.875-2.563Zm5.182-.506-.027,1.2.465-1.176,2.974-6.911h1.087l.786,7,.068,1.135.431-1.374,2.543-6.761H50.7L46.806,0H45.637l-.861-7.308-.027-.684-.287.793L41.289,0H40.12l-.779-9.953h1.251ZM51.9,0H50.62L52.35-9.953h1.278ZM62.3-8.873h-3.1L57.668,0H56.39l1.538-8.873h-3.1l.191-1.08h7.472Zm7.349,5.7a3.968,3.968,0,0,1-1.4,2.447,3.917,3.917,0,0,1-2.663.861,3.1,3.1,0,0,1-1.613-.455A2.872,2.872,0,0,1,62.9-1.569a4.672,4.672,0,0,1-.424-1.808,5.8,5.8,0,0,1,.048-1.094l.116-.82A6.191,6.191,0,0,1,64.22-8.829a3.976,3.976,0,0,1,3.052-1.261,2.977,2.977,0,0,1,2.222.906,3.6,3.6,0,0,1,.868,2.437H69.084Q69-8.839,67.443-9l-.226-.014a2.642,2.642,0,0,0-2.157.96,5.2,5.2,0,0,0-1.118,2.717l-.15,1.032-.041.6a3.384,3.384,0,0,0,.448,2,1.688,1.688,0,0,0,1.453.769,2.559,2.559,0,0,0,1.719-.5,3.32,3.32,0,0,0,1.036-1.716ZM78.4,0H77.116l.8-4.6h-4.86l-.8,4.6H70.971L72.7-9.953h1.285L73.24-5.674h4.854l.745-4.279h1.292Z" transform="translate(-6550.707 -11635.863)" fill="#12263f"/>
    <path id="Trazado_604302" data-name="Trazado 604302" d="M2.365-3.9,1.688,0H.4L2.133-9.953l3.322.007a3.249,3.249,0,0,1,2.372.817,2.57,2.57,0,0,1,.718,2.17A3.1,3.1,0,0,1,7.407-4.71a4.128,4.128,0,0,1-2.676.82ZM2.55-4.97l2.215.007A2.694,2.694,0,0,0,6.48-5.489a2.106,2.106,0,0,0,.786-1.463,1.65,1.65,0,0,0-.349-1.364,1.755,1.755,0,0,0-1.333-.55L3.227-8.873ZM12.688.137a3.187,3.187,0,0,1-1.651-.458,2.967,2.967,0,0,1-1.1-1.289,4.854,4.854,0,0,1-.444-1.911,9.074,9.074,0,0,1,.185-2.044,7.009,7.009,0,0,1,.779-2.194A4.945,4.945,0,0,1,11.8-9.324a3.876,3.876,0,0,1,2.447-.766,2.945,2.945,0,0,1,2.3,1.008,4.193,4.193,0,0,1,.9,2.656A9.778,9.778,0,0,1,17.3-4.6a7.556,7.556,0,0,1-.622,2.058A5.135,5.135,0,0,1,15.538-.95,3.914,3.914,0,0,1,12.688.137Zm3.493-6.248A3.449,3.449,0,0,0,15.709-8.2a1.8,1.8,0,0,0-1.524-.769,2.593,2.593,0,0,0-1.637.492,3.726,3.726,0,0,0-1.183,1.555A8.013,8.013,0,0,0,10.78-4.3l-.021.444a3.479,3.479,0,0,0,.479,2.1,1.781,1.781,0,0,0,1.511.786A2.633,2.633,0,0,0,14.892-1.9a5.3,5.3,0,0,0,1.131-2.717A12.243,12.243,0,0,0,16.181-6.111Zm4.908,3.042-.027,1.2.465-1.176L24.5-9.953h1.087l.786,7,.068,1.135.431-1.374,2.543-6.761h1.319L26.838,0H25.669l-.861-7.308-.027-.684-.287.793L21.321,0H20.152l-.779-9.953h1.251ZM36.825-4.6H32.642l-.615,3.527h4.867L36.7,0H30.557l1.729-9.953h6.077l-.191,1.08H33.38l-.554,3.2H37.01Zm5.8.574h-2.3L39.628,0H38.336l1.729-9.953,2.994.007a3.339,3.339,0,0,1,2.386.793,2.472,2.472,0,0,1,.69,2.14,2.831,2.831,0,0,1-.68,1.647,3.716,3.716,0,0,1-1.61,1.073l1.545,4.2L45.384,0H44.017ZM40.51-5.1l1.887.007a2.635,2.635,0,0,0,1.661-.523,2.036,2.036,0,0,0,.793-1.4,1.608,1.608,0,0,0-.342-1.34,1.826,1.826,0,0,0-1.354-.513l-1.989-.007Z" transform="translate(-6360.707 -11635.863)" fill="#12263f"/>
    <path id="Trazado_604303" data-name="Trazado 604303" d="M2.365-3.9,1.688,0H.4L2.133-9.953l3.322.007a3.249,3.249,0,0,1,2.372.817,2.57,2.57,0,0,1,.718,2.17A3.1,3.1,0,0,1,7.407-4.71a4.128,4.128,0,0,1-2.676.82ZM2.55-4.97l2.215.007A2.694,2.694,0,0,0,6.48-5.489a2.106,2.106,0,0,0,.786-1.463,1.65,1.65,0,0,0-.349-1.364,1.755,1.755,0,0,0-1.333-.55L3.227-8.873ZM12.688.137a3.187,3.187,0,0,1-1.651-.458,2.967,2.967,0,0,1-1.1-1.289,4.854,4.854,0,0,1-.444-1.911,9.074,9.074,0,0,1,.185-2.044,7.009,7.009,0,0,1,.779-2.194A4.945,4.945,0,0,1,11.8-9.324a3.876,3.876,0,0,1,2.447-.766,2.945,2.945,0,0,1,2.3,1.008,4.193,4.193,0,0,1,.9,2.656A9.778,9.778,0,0,1,17.3-4.6a7.556,7.556,0,0,1-.622,2.058A5.135,5.135,0,0,1,15.538-.95,3.914,3.914,0,0,1,12.688.137Zm3.493-6.248A3.449,3.449,0,0,0,15.709-8.2a1.8,1.8,0,0,0-1.524-.769,2.593,2.593,0,0,0-1.637.492,3.726,3.726,0,0,0-1.183,1.555A8.013,8.013,0,0,0,10.78-4.3l-.021.444a3.479,3.479,0,0,0,.479,2.1,1.781,1.781,0,0,0,1.511.786A2.633,2.633,0,0,0,14.892-1.9a5.3,5.3,0,0,0,1.131-2.717A12.243,12.243,0,0,0,16.181-6.111Zm4.908,3.042-.027,1.2.465-1.176L24.5-9.953h1.087l.786,7,.068,1.135.431-1.374,2.543-6.761h1.319L26.838,0H25.669l-.861-7.308-.027-.684-.287.793L21.321,0H20.152l-.779-9.953h1.251ZM36.825-4.6H32.642l-.615,3.527h4.867L36.7,0H30.557l1.729-9.953h6.077l-.191,1.08H33.38l-.554,3.2H37.01Zm5.8.574h-2.3L39.628,0H38.336l1.729-9.953,2.994.007a3.339,3.339,0,0,1,2.386.793,2.472,2.472,0,0,1,.69,2.14,2.831,2.831,0,0,1-.68,1.647,3.716,3.716,0,0,1-1.61,1.073l1.545,4.2L45.384,0H44.017ZM40.51-5.1l1.887.007a2.635,2.635,0,0,0,1.661-.523,2.036,2.036,0,0,0,.793-1.4,1.608,1.608,0,0,0-.342-1.34,1.826,1.826,0,0,0-1.354-.513l-1.989-.007Z" transform="translate(-6360.707 -11543.863)" fill="#12263f"/>
    <path id="Trazado_604305" data-name="Trazado 604305" d="M2.365-3.9,1.688,0H.4L2.133-9.953l3.322.007a3.249,3.249,0,0,1,2.372.817,2.57,2.57,0,0,1,.718,2.17A3.1,3.1,0,0,1,7.407-4.71a4.128,4.128,0,0,1-2.676.82ZM2.55-4.97l2.215.007A2.694,2.694,0,0,0,6.48-5.489a2.106,2.106,0,0,0,.786-1.463,1.65,1.65,0,0,0-.349-1.364,1.755,1.755,0,0,0-1.333-.55L3.227-8.873ZM12.688.137a3.187,3.187,0,0,1-1.651-.458,2.967,2.967,0,0,1-1.1-1.289,4.854,4.854,0,0,1-.444-1.911,9.074,9.074,0,0,1,.185-2.044,7.009,7.009,0,0,1,.779-2.194A4.945,4.945,0,0,1,11.8-9.324a3.876,3.876,0,0,1,2.447-.766,2.945,2.945,0,0,1,2.3,1.008,4.193,4.193,0,0,1,.9,2.656A9.778,9.778,0,0,1,17.3-4.6a7.556,7.556,0,0,1-.622,2.058A5.135,5.135,0,0,1,15.538-.95,3.914,3.914,0,0,1,12.688.137Zm3.493-6.248A3.449,3.449,0,0,0,15.709-8.2a1.8,1.8,0,0,0-1.524-.769,2.593,2.593,0,0,0-1.637.492,3.726,3.726,0,0,0-1.183,1.555A8.013,8.013,0,0,0,10.78-4.3l-.021.444a3.479,3.479,0,0,0,.479,2.1,1.781,1.781,0,0,0,1.511.786A2.633,2.633,0,0,0,14.892-1.9a5.3,5.3,0,0,0,1.131-2.717A12.243,12.243,0,0,0,16.181-6.111Zm4.908,3.042-.027,1.2.465-1.176L24.5-9.953h1.087l.786,7,.068,1.135.431-1.374,2.543-6.761h1.319L26.838,0H25.669l-.861-7.308-.027-.684-.287.793L21.321,0H20.152l-.779-9.953h1.251ZM36.825-4.6H32.642l-.615,3.527h4.867L36.7,0H30.557l1.729-9.953h6.077l-.191,1.08H33.38l-.554,3.2H37.01Zm5.8.574h-2.3L39.628,0H38.336l1.729-9.953,2.994.007a3.339,3.339,0,0,1,2.386.793,2.472,2.472,0,0,1,.69,2.14,2.831,2.831,0,0,1-.68,1.647,3.716,3.716,0,0,1-1.61,1.073l1.545,4.2L45.384,0H44.017ZM40.51-5.1l1.887.007a2.635,2.635,0,0,0,1.661-.523,2.036,2.036,0,0,0,.793-1.4,1.608,1.608,0,0,0-.342-1.34,1.826,1.826,0,0,0-1.354-.513l-1.989-.007Z" transform="translate(-6360.707 -11479.863)" fill="#12263f"/>
    <path id="Trazado_604306" data-name="Trazado 604306" d="M4.683-4.026h-2.3L1.688,0H.4L2.126-9.953l2.994.007a3.339,3.339,0,0,1,2.386.793,2.472,2.472,0,0,1,.69,2.14,2.831,2.831,0,0,1-.68,1.647,3.716,3.716,0,0,1-1.61,1.073l1.545,4.2L7.444,0H6.077ZM2.57-5.1l1.887.007a2.635,2.635,0,0,0,1.661-.523,2.036,2.036,0,0,0,.793-1.4,1.608,1.608,0,0,0-.342-1.34,1.826,1.826,0,0,0-1.354-.513L3.227-8.873ZM12.482.137a3.187,3.187,0,0,1-1.651-.458,2.967,2.967,0,0,1-1.1-1.289,4.854,4.854,0,0,1-.444-1.911,9.074,9.074,0,0,1,.185-2.044,7.009,7.009,0,0,1,.779-2.194,4.945,4.945,0,0,1,1.347-1.565,3.876,3.876,0,0,1,2.447-.766,2.945,2.945,0,0,1,2.3,1.008,4.193,4.193,0,0,1,.9,2.656A9.778,9.778,0,0,1,17.093-4.6a7.556,7.556,0,0,1-.622,2.058A5.135,5.135,0,0,1,15.333-.95,3.914,3.914,0,0,1,12.482.137Zm3.493-6.248A3.449,3.449,0,0,0,15.5-8.2a1.8,1.8,0,0,0-1.524-.769,2.593,2.593,0,0,0-1.637.492A3.726,3.726,0,0,0,11.16-6.921,8.013,8.013,0,0,0,10.575-4.3l-.021.444a3.479,3.479,0,0,0,.479,2.1,1.781,1.781,0,0,0,1.511.786A2.633,2.633,0,0,0,14.687-1.9a5.3,5.3,0,0,0,1.131-2.717A12.244,12.244,0,0,0,15.976-6.111ZM26.8-9.953,25.655-3.22a3.822,3.822,0,0,1-1.34,2.471,3.934,3.934,0,0,1-2.673.892,3.462,3.462,0,0,1-1.7-.441A2.54,2.54,0,0,1,18.881-1.48a3.229,3.229,0,0,1-.226-1.733L19.8-9.953h1.265L19.927-3.206a2.18,2.18,0,0,0,.355,1.644,1.777,1.777,0,0,0,1.429.625A2.462,2.462,0,0,0,23.464-1.5a2.732,2.732,0,0,0,.9-1.7l1.148-6.754Zm8.524,1.08h-3.1L30.693,0H29.415l1.538-8.873h-3.1l.191-1.08H35.52ZM41.549-4.6H37.365L36.75-1.073h4.867L41.426,0H35.28L37.01-9.953h6.077L42.9-8.873H38.1l-.554,3.2h4.184Zm5.8.574h-2.3L44.352,0H43.06l1.729-9.953,2.994.007a3.339,3.339,0,0,1,2.386.793,2.472,2.472,0,0,1,.69,2.14,2.831,2.831,0,0,1-.68,1.647,3.716,3.716,0,0,1-1.61,1.073l1.545,4.2L50.107,0H48.74ZM45.233-5.1l1.887.007a2.635,2.635,0,0,0,1.661-.523,2.036,2.036,0,0,0,.793-1.4,1.608,1.608,0,0,0-.342-1.34,1.826,1.826,0,0,0-1.354-.513L45.89-8.873Z" transform="translate(-6454 -11477.863)" fill="#12263f"/>
    <path id="Trazado_604308" data-name="Trazado 604308" d="M4.683-4.026h-2.3L1.688,0H.4L2.126-9.953l2.994.007a3.339,3.339,0,0,1,2.386.793,2.472,2.472,0,0,1,.69,2.14,2.831,2.831,0,0,1-.68,1.647,3.716,3.716,0,0,1-1.61,1.073l1.545,4.2L7.444,0H6.077ZM2.57-5.1l1.887.007a2.635,2.635,0,0,0,1.661-.523,2.036,2.036,0,0,0,.793-1.4,1.608,1.608,0,0,0-.342-1.34,1.826,1.826,0,0,0-1.354-.513L3.227-8.873Zm12.53.5H10.917L10.3-1.073h4.867L14.978,0H8.832l1.729-9.953h6.077l-.191,1.08H11.655l-.554,3.2h4.184Zm4.867-5.353,1.743,8.107,4.566-8.107h1.688L26.236,0H24.958l.684-3.937.813-4.006L21.943,0h-.984L19.182-8.1l-.615,4.293L17.9,0H16.618l1.729-9.953ZM32.19.137A3.187,3.187,0,0,1,30.54-.321a2.967,2.967,0,0,1-1.1-1.289,4.854,4.854,0,0,1-.444-1.911,9.074,9.074,0,0,1,.185-2.044,7.009,7.009,0,0,1,.779-2.194A4.945,4.945,0,0,1,31.3-9.324a3.876,3.876,0,0,1,2.447-.766,2.945,2.945,0,0,1,2.3,1.008,4.193,4.193,0,0,1,.9,2.656A9.778,9.778,0,0,1,36.8-4.6a7.556,7.556,0,0,1-.622,2.058A5.135,5.135,0,0,1,35.041-.95,3.914,3.914,0,0,1,32.19.137Zm3.493-6.248A3.449,3.449,0,0,0,35.212-8.2a1.8,1.8,0,0,0-1.524-.769,2.593,2.593,0,0,0-1.637.492,3.726,3.726,0,0,0-1.183,1.555A8.013,8.013,0,0,0,30.283-4.3l-.021.444a3.479,3.479,0,0,0,.479,2.1,1.781,1.781,0,0,0,1.511.786A2.633,2.633,0,0,0,34.4-1.9a5.3,5.3,0,0,0,1.131-2.717A12.244,12.244,0,0,0,35.684-6.111ZM45.979-8.873h-3.1L41.344,0H40.065L41.6-8.873h-3.1l.191-1.08H46.17ZM52.2-4.6H48.016L47.4-1.073h4.867L52.076,0H45.931L47.66-9.953h6.077l-.191,1.08H48.754l-.554,3.2h4.184Zm6.911.7L58.434,0H57.148l1.729-9.953,3.322.007a3.249,3.249,0,0,1,2.372.817,2.57,2.57,0,0,1,.718,2.17A3.1,3.1,0,0,1,64.152-4.71a4.128,4.128,0,0,1-2.676.82Zm.185-1.073,2.215.007a2.694,2.694,0,0,0,1.716-.526,2.106,2.106,0,0,0,.786-1.463,1.65,1.65,0,0,0-.349-1.364,1.755,1.755,0,0,0-1.333-.55l-2.358-.007Zm14.075,1.8a3.968,3.968,0,0,1-1.4,2.447A3.917,3.917,0,0,1,69.31.137,3.1,3.1,0,0,1,67.7-.318a2.872,2.872,0,0,1-1.073-1.251A4.672,4.672,0,0,1,66.2-3.377a5.8,5.8,0,0,1,.048-1.094l.116-.82a6.191,6.191,0,0,1,1.576-3.538,3.976,3.976,0,0,1,3.052-1.261,2.977,2.977,0,0,1,2.222.906,3.6,3.6,0,0,1,.868,2.437H72.8Q72.714-8.839,71.162-9l-.226-.014a2.642,2.642,0,0,0-2.157.96,5.2,5.2,0,0,0-1.118,2.717l-.15,1.032-.041.6a3.384,3.384,0,0,0,.448,2,1.688,1.688,0,0,0,1.453.769,2.559,2.559,0,0,0,1.719-.5,3.32,3.32,0,0,0,1.036-1.716Z" transform="translate(-6767 -11376)" fill="#12263f"/>
    <path id="Trazado_604307" data-name="Trazado 604307" d="M6-2.563q.15-1.094-1.135-1.6L3.678-4.594l-.4-.171q-2-.909-1.866-2.557a2.674,2.674,0,0,1,.567-1.463,3.228,3.228,0,0,1,1.323-.981,4.243,4.243,0,0,1,1.753-.325,3.5,3.5,0,0,1,1.61.4,2.592,2.592,0,0,1,1.077,1.07,2.916,2.916,0,0,1,.328,1.548L6.781-7.075a1.772,1.772,0,0,0-.41-1.418A1.84,1.84,0,0,0,5-9.01a2.55,2.55,0,0,0-1.565.438,1.707,1.707,0,0,0-.725,1.23Q2.577-6.323,3.965-5.8l1.019.362.513.219A2.574,2.574,0,0,1,7.28-2.577a2.636,2.636,0,0,1-.567,1.453,3.172,3.172,0,0,1-1.336.947A4.607,4.607,0,0,1,3.562.137a3.8,3.8,0,0,1-1.712-.4A2.794,2.794,0,0,1,.67-1.34,2.693,2.693,0,0,1,.314-2.892L1.6-2.885a1.693,1.693,0,0,0,.482,1.412,2.169,2.169,0,0,0,1.535.537A2.74,2.74,0,0,0,5.25-1.367,1.677,1.677,0,0,0,6-2.563Zm5.886-7.39,1.743,8.107L18.19-9.953h1.688L18.149,0H16.871l.684-3.937.813-4.006L13.856,0h-.984L11.095-8.1l-.615,4.293L9.816,0H8.531l1.729-9.953ZM26.387-2.6H22.354L20.993,0H19.619l5.407-9.953h1.128L28.123,0H26.858Zm-3.466-1.08H26.2l-.827-4.642Zm10.862-.349h-2.3L30.789,0H29.5l1.729-9.953,2.994.007a3.339,3.339,0,0,1,2.386.793,2.472,2.472,0,0,1,.69,2.14,2.831,2.831,0,0,1-.68,1.647,3.716,3.716,0,0,1-1.61,1.073l1.545,4.2L36.545,0H35.178ZM31.671-5.1l1.887.007a2.635,2.635,0,0,0,1.661-.523,2.036,2.036,0,0,0,.793-1.4,1.608,1.608,0,0,0-.342-1.34,1.826,1.826,0,0,0-1.354-.513l-1.989-.007ZM45.6-8.873h-3.1L40.968,0H39.689l1.538-8.873h-3.1l.191-1.08h7.472ZM47.517-3.9,46.84,0H45.555l1.729-9.953,3.322.007a3.249,3.249,0,0,1,2.372.817,2.57,2.57,0,0,1,.718,2.17A3.1,3.1,0,0,1,52.558-4.71a4.128,4.128,0,0,1-2.676.82ZM47.7-4.97l2.215.007a2.694,2.694,0,0,0,1.716-.526,2.106,2.106,0,0,0,.786-1.463,1.65,1.65,0,0,0-.349-1.364,1.755,1.755,0,0,0-1.333-.55l-2.358-.007ZM61.619,0H60.334l.8-4.6h-4.86l-.8,4.6H54.188l1.729-9.953H57.2l-.745,4.279h4.854l.745-4.279h1.292Zm5.968.137a3.187,3.187,0,0,1-1.651-.458,2.967,2.967,0,0,1-1.1-1.289,4.854,4.854,0,0,1-.444-1.911,9.074,9.074,0,0,1,.185-2.044,7.009,7.009,0,0,1,.779-2.194A4.945,4.945,0,0,1,66.7-9.324a3.876,3.876,0,0,1,2.447-.766,2.945,2.945,0,0,1,2.3,1.008,4.193,4.193,0,0,1,.9,2.656A9.778,9.778,0,0,1,72.2-4.6a7.556,7.556,0,0,1-.622,2.058A5.135,5.135,0,0,1,70.438-.95,3.914,3.914,0,0,1,67.587.137ZM71.08-6.111A3.449,3.449,0,0,0,70.608-8.2a1.8,1.8,0,0,0-1.524-.769,2.593,2.593,0,0,0-1.637.492,3.726,3.726,0,0,0-1.183,1.555A8.013,8.013,0,0,0,65.68-4.3l-.021.444a3.479,3.479,0,0,0,.479,2.1,1.781,1.781,0,0,0,1.511.786A2.633,2.633,0,0,0,69.792-1.9a5.3,5.3,0,0,0,1.131-2.717A12.243,12.243,0,0,0,71.08-6.111ZM80.773,0H79.529L75.975-7.725,74.635,0H73.343l1.729-9.953h1.244l3.562,7.759,1.347-7.759H82.5Zm8.586-4.6H85.176l-.615,3.527h4.867L89.236,0H83.091L84.82-9.953H90.9l-.191,1.08H85.914l-.554,3.2h4.184Z" transform="translate(-6758 -11466)" fill="#12263f"/>
    <path id="Trazado_604304" data-name="Trazado 604304" d="M2.365-3.9,1.688,0H.4L2.133-9.953l3.322.007a3.249,3.249,0,0,1,2.372.817,2.57,2.57,0,0,1,.718,2.17A3.1,3.1,0,0,1,7.407-4.71a4.128,4.128,0,0,1-2.676.82ZM2.55-4.97l2.215.007A2.694,2.694,0,0,0,6.48-5.489a2.106,2.106,0,0,0,.786-1.463,1.65,1.65,0,0,0-.349-1.364,1.755,1.755,0,0,0-1.333-.55L3.227-8.873ZM12.688.137a3.187,3.187,0,0,1-1.651-.458,2.967,2.967,0,0,1-1.1-1.289,4.854,4.854,0,0,1-.444-1.911,9.074,9.074,0,0,1,.185-2.044,7.009,7.009,0,0,1,.779-2.194A4.945,4.945,0,0,1,11.8-9.324a3.876,3.876,0,0,1,2.447-.766,2.945,2.945,0,0,1,2.3,1.008,4.193,4.193,0,0,1,.9,2.656A9.778,9.778,0,0,1,17.3-4.6a7.556,7.556,0,0,1-.622,2.058A5.135,5.135,0,0,1,15.538-.95,3.914,3.914,0,0,1,12.688.137Zm3.493-6.248A3.449,3.449,0,0,0,15.709-8.2a1.8,1.8,0,0,0-1.524-.769,2.593,2.593,0,0,0-1.637.492,3.726,3.726,0,0,0-1.183,1.555A8.013,8.013,0,0,0,10.78-4.3l-.021.444a3.479,3.479,0,0,0,.479,2.1,1.781,1.781,0,0,0,1.511.786A2.633,2.633,0,0,0,14.892-1.9a5.3,5.3,0,0,0,1.131-2.717A12.243,12.243,0,0,0,16.181-6.111Zm4.908,3.042-.027,1.2.465-1.176L24.5-9.953h1.087l.786,7,.068,1.135.431-1.374,2.543-6.761h1.319L26.838,0H25.669l-.861-7.308-.027-.684-.287.793L21.321,0H20.152l-.779-9.953h1.251ZM36.825-4.6H32.642l-.615,3.527h4.867L36.7,0H30.557l1.729-9.953h6.077l-.191,1.08H33.38l-.554,3.2H37.01Zm5.8.574h-2.3L39.628,0H38.336l1.729-9.953,2.994.007a3.339,3.339,0,0,1,2.386.793,2.472,2.472,0,0,1,.69,2.14,2.831,2.831,0,0,1-.68,1.647,3.716,3.716,0,0,1-1.61,1.073l1.545,4.2L45.384,0H44.017ZM40.51-5.1l1.887.007a2.635,2.635,0,0,0,1.661-.523,2.036,2.036,0,0,0,.793-1.4,1.608,1.608,0,0,0-.342-1.34,1.826,1.826,0,0,0-1.354-.513l-1.989-.007Z" transform="translate(-6722 -11504.863)" fill="#12263f"/>
  </g>
</svg>
