<svg xmlns="http://www.w3.org/2000/svg" xmlns:xlink="http://www.w3.org/1999/xlink" width="465" height="297" viewBox="0 0 465 297">
  <defs>
    <clipPath id="clip-path">
      <path id="Trazado_601329" data-name="Trazado 601329" d="M202.008,55.544V52.1a3.074,3.074,0,1,1,6.147,0v3.448a3.074,3.074,0,1,1-6.147,0M197.659,1.8H212.5V38.836H197.659Zm-.9-1.8a.9.9,0,0,0-.9.9V39.736a.9.9,0,0,0,.9.9h7.422v6.674a4.878,4.878,0,0,0-3.973,4.786v3.448a4.873,4.873,0,1,0,9.746,0V52.1a4.879,4.879,0,0,0-3.974-4.787V40.635H213.4a.9.9,0,0,0,.9-.9V.9a.9.9,0,0,0-.9-.9Z" transform="translate(-195.86 0)" fill="#1565c0"/>
    </clipPath>
    <clipPath id="clip-path-2">
      <path id="Trazado_601330" data-name="Trazado 601330" d="M18.984,18.987H51.973V38.93H18.984Zm-.9-1.8a.9.9,0,0,0-.9.9V39.829a.9.9,0,0,0,.9.9H52.872a.9.9,0,0,0,.9-.9V18.088a.9.9,0,0,0-.9-.9Z" transform="translate(-17.185 -17.188)" fill="#1565c0"/>
    </clipPath>
    <clipPath id="clip-path-3">
      <path id="Trazado_601331" data-name="Trazado 601331" d="M1.8,40.336H43.484V58.928H1.8Zm15.294-7.647h11.1v5.772h-11.1ZM1.8,1.8H43.484v29.09H1.8ZM.9,0A.9.9,0,0,0,0,.9V31.789a.9.9,0,0,0,.9.9H15.295v5.848H.9a.9.9,0,0,0-.9.9V59.828a.9.9,0,0,0,.9.9H44.384a.9.9,0,0,0,.9-.9V39.436a.9.9,0,0,0-.9-.9H29.989V32.689H44.384a.9.9,0,0,0,.9-.9V.9a.9.9,0,0,0-.9-.9Z" fill="#1565c0"/>
    </clipPath>
    <clipPath id="clip-path-4">
      <path id="Trazado_601332" data-name="Trazado 601332" d="M61.347,208.6a.9.9,0,0,0,0,1.8H74.242a.9.9,0,1,0,0-1.8Z" transform="translate(-60.448 -208.604)" fill="#fb8c00"/>
    </clipPath>
    <clipPath id="clip-path-5">
      <path id="Trazado_601333" data-name="Trazado 601333" d="M214.847,18.987h6.147v2.7h-6.147Zm-.9-1.8a.9.9,0,0,0-.9.9v4.5a.9.9,0,0,0,.9.9h7.947a.9.9,0,0,0,.9-.9v-4.5a.9.9,0,0,0-.9-.9Z" transform="translate(-213.048 -17.188)" fill="#1565c0"/>
    </clipPath>
    <clipPath id="clip-path-6">
      <path id="Trazado_601335" data-name="Trazado 601335" d="M216.031,109.172a2.774,2.774,0,1,1,2.774,2.774,2.777,2.777,0,0,1-2.774-2.774m-1.8,0a4.574,4.574,0,1,0,4.573-4.573,4.578,4.578,0,0,0-4.573,4.573" transform="translate(-214.232 -104.599)" fill="#1565c0"/>
    </clipPath>
    <clipPath id="clip-path-8">
      <path id="Trazado_601329-2" data-name="Trazado 601329" d="M208.155,55.544V52.1a3.074,3.074,0,1,0-6.147,0v3.448a3.074,3.074,0,1,0,6.147,0M212.5,1.8H197.659V38.836H212.5Zm.9-1.8a.9.9,0,0,1,.9.9V39.736a.9.9,0,0,1-.9.9h-7.422v6.674a4.878,4.878,0,0,1,3.973,4.786v3.448a4.873,4.873,0,1,1-9.746,0V52.1a4.879,4.879,0,0,1,3.974-4.787V40.635h-7.422a.9.9,0,0,1-.9-.9V.9a.9.9,0,0,1,.9-.9Z" transform="translate(-195.86 0)" fill="#1565c0"/>
    </clipPath>
    <clipPath id="clip-path-9">
      <path id="Trazado_601330-2" data-name="Trazado 601330" d="M51.973,18.987H18.984V38.929H51.973Zm.9-1.8a.9.9,0,0,1,.9.9V39.829a.9.9,0,0,1-.9.9H18.084a.9.9,0,0,1-.9-.9V18.088a.9.9,0,0,1,.9-.9Z" transform="translate(-17.185 -17.188)" fill="#1565c0"/>
    </clipPath>
    <clipPath id="clip-path-10">
      <path id="Trazado_601331-2" data-name="Trazado 601331" d="M43.484,40.336H1.8V58.928H43.484ZM28.189,32.688h-11.1v5.772h11.1ZM43.484,1.8H1.8v29.09H43.484Zm.9-1.8a.9.9,0,0,1,.9.9V31.789a.9.9,0,0,1-.9.9H29.989v5.848H44.383a.9.9,0,0,1,.9.9V59.828a.9.9,0,0,1-.9.9H.9a.9.9,0,0,1-.9-.9V39.436a.9.9,0,0,1,.9-.9H15.294V32.688H.9a.9.9,0,0,1-.9-.9V.9A.9.9,0,0,1,.9,0Z" transform="translate(0 0)" fill="#1565c0"/>
    </clipPath>
    <clipPath id="clip-path-11">
      <path id="Trazado_601332-2" data-name="Trazado 601332" d="M74.243,208.6a.9.9,0,0,1,0,1.8H61.348a.9.9,0,1,1,0-1.8Z" transform="translate(-60.448 -208.604)" fill="#fb8c00"/>
    </clipPath>
    <clipPath id="clip-path-12">
      <path id="Trazado_601333-3" data-name="Trazado 601333" d="M220.995,18.987h-6.147v2.7h6.147Zm.9-1.8a.9.9,0,0,1,.9.9v4.5a.9.9,0,0,1-.9.9h-7.947a.9.9,0,0,1-.9-.9v-4.5a.9.9,0,0,1,.9-.9Z" transform="translate(-213.048 -17.188)" fill="#1565c0"/>
    </clipPath>
    <clipPath id="clip-path-13">
      <path id="Trazado_601335-2" data-name="Trazado 601335" d="M221.58,109.172a2.774,2.774,0,1,0-2.774,2.774,2.777,2.777,0,0,0,2.774-2.774m1.8,0a4.574,4.574,0,1,1-4.573-4.573,4.578,4.578,0,0,1,4.573,4.573" transform="translate(-214.232 -104.599)" fill="#1565c0"/>
    </clipPath>
    <clipPath id="clip-path-15">
      <rect id="Rectángulo_300961" data-name="Rectángulo 300961" width="91.876" height="91.876" transform="translate(0 0)" fill="none"/>
    </clipPath>
    <clipPath id="clip-path-16">
      <rect id="Rectángulo_300962" data-name="Rectángulo 300962" width="42.452" height="33.837" fill="#1565c0"/>
    </clipPath>
    <clipPath id="clip-path-21">
      <path id="Trazado_601336" data-name="Trazado 601336" d="M1.23,31.046H37.5v9.529H1.23ZM3.868,26.9H34.606v2.92H3.868ZM1.23,16.138H37.5v9.529H1.23Zm2.638-4.15H34.606v2.92H3.868ZM1.23,1.229H37.5v9.529H1.23ZM.615,0A.614.614,0,0,0,0,.615V11.373a.614.614,0,0,0,.615.615H2.638v2.92H.615A.614.614,0,0,0,0,15.523V26.281a.614.614,0,0,0,.615.615H2.638v2.92H.615A.614.614,0,0,0,0,30.431V41.19a.614.614,0,0,0,.615.615H2.638v3.535a.615.615,0,0,0,1.23,0V41.8H34.606v3.535a.615.615,0,1,0,1.229,0V41.8h2.28a.614.614,0,0,0,.615-.615V30.431a.614.614,0,0,0-.615-.615h-2.28V26.9h2.28a.614.614,0,0,0,.615-.615V15.523a.614.614,0,0,0-.615-.615h-2.28v-2.92h2.28a.614.614,0,0,0,.615-.615V.615A.614.614,0,0,0,38.116,0Z" fill="#26aab7"/>
    </clipPath>
    <clipPath id="clip-path-22">
      <path id="Trazado_601337" data-name="Trazado 601337" d="M165.827,20.331A1.768,1.768,0,1,1,167.6,22.1a1.77,1.77,0,0,1-1.768-1.768m-1.229,0a3,3,0,1,0,3-3,3,3,0,0,0-3,3" transform="translate(-164.598 -17.334)" fill="#1565c0"/>
    </clipPath>
    <clipPath id="clip-path-23">
      <path id="Trazado_601338" data-name="Trazado 601338" d="M24.592,22.393v4a.615.615,0,1,0,1.229,0v-4a.615.615,0,1,0-1.229,0" transform="translate(-24.592 -21.778)" fill="#1565c0"/>
    </clipPath>
    <clipPath id="clip-path-24">
      <path id="Trazado_601339" data-name="Trazado 601339" d="M41.78,22.393v4a.615.615,0,0,0,1.23,0v-4a.615.615,0,1,0-1.23,0" transform="translate(-41.78 -21.778)" fill="#1565c0"/>
    </clipPath>
    <clipPath id="clip-path-25">
      <path id="Trazado_601340" data-name="Trazado 601340" d="M58.964,22.393v4a.615.615,0,1,0,1.23,0v-4a.615.615,0,1,0-1.23,0" transform="translate(-58.964 -21.778)" fill="#1565c0"/>
    </clipPath>
    <clipPath id="clip-path-26">
      <path id="Trazado_601341" data-name="Trazado 601341" d="M76.149,22.393v4a.615.615,0,0,0,1.23,0v-4a.615.615,0,0,0-1.23,0" transform="translate(-76.149 -21.778)" fill="#1565c0"/>
    </clipPath>
    <clipPath id="clip-path-27">
      <path id="Trazado_601342" data-name="Trazado 601342" d="M93.338,22.393v4a.615.615,0,1,0,1.229,0v-4a.615.615,0,1,0-1.229,0" transform="translate(-93.338 -21.778)" fill="#1565c0"/>
    </clipPath>
    <clipPath id="clip-path-28">
      <rect id="Rectángulo_298136" data-name="Rectángulo 298136" width="1.998" height="1.998" fill="#1565c0"/>
    </clipPath>
    <clipPath id="clip-path-31">
      <path id="Trazado_601343" data-name="Trazado 601343" d="M165.827,106.557a1.768,1.768,0,1,1,1.768,1.768,1.77,1.77,0,0,1-1.768-1.768m-1.229,0a3,3,0,1,0,3-3,3,3,0,0,0-3,3" transform="translate(-164.598 -103.56)" fill="#1565c0"/>
    </clipPath>
    <clipPath id="clip-path-32">
      <path id="Trazado_601344" data-name="Trazado 601344" d="M24.592,108.62v4a.615.615,0,1,0,1.229,0v-4a.615.615,0,1,0-1.229,0" transform="translate(-24.592 -108.005)" fill="#1565c0"/>
    </clipPath>
    <clipPath id="clip-path-33">
      <path id="Trazado_601345" data-name="Trazado 601345" d="M41.78,108.62v4a.615.615,0,0,0,1.23,0v-4a.615.615,0,1,0-1.23,0" transform="translate(-41.78 -108.005)" fill="#1565c0"/>
    </clipPath>
    <clipPath id="clip-path-34">
      <path id="Trazado_601346" data-name="Trazado 601346" d="M58.964,108.62v4a.615.615,0,0,0,1.23,0v-4a.615.615,0,1,0-1.23,0" transform="translate(-58.964 -108.005)" fill="#1565c0"/>
    </clipPath>
    <clipPath id="clip-path-35">
      <path id="Trazado_601347" data-name="Trazado 601347" d="M76.149,108.62v4a.615.615,0,0,0,1.23,0v-4a.615.615,0,1,0-1.23,0" transform="translate(-76.149 -108.005)" fill="#1565c0"/>
    </clipPath>
    <clipPath id="clip-path-36">
      <path id="Trazado_601348" data-name="Trazado 601348" d="M93.338,108.62v4a.615.615,0,0,0,1.229,0v-4a.615.615,0,1,0-1.229,0" transform="translate(-93.338 -108.005)" fill="#1565c0"/>
    </clipPath>
    <clipPath id="clip-path-40">
      <path id="Trazado_601349" data-name="Trazado 601349" d="M165.827,192.784a1.768,1.768,0,1,1,1.768,1.767,1.77,1.77,0,0,1-1.768-1.767m-1.229,0a3,3,0,1,0,3-3,3,3,0,0,0-3,3" transform="translate(-164.598 -189.787)" fill="#1565c0"/>
    </clipPath>
    <clipPath id="clip-path-41">
      <path id="Trazado_601350" data-name="Trazado 601350" d="M24.592,194.846v4a.615.615,0,1,0,1.229,0v-4a.615.615,0,1,0-1.229,0" transform="translate(-24.592 -194.231)" fill="#1565c0"/>
    </clipPath>
    <clipPath id="clip-path-42">
      <path id="Trazado_601351" data-name="Trazado 601351" d="M41.78,194.846v4a.615.615,0,0,0,1.23,0v-4a.615.615,0,0,0-1.23,0" transform="translate(-41.78 -194.231)" fill="#1565c0"/>
    </clipPath>
    <clipPath id="clip-path-43">
      <path id="Trazado_601352" data-name="Trazado 601352" d="M58.964,194.846v4a.615.615,0,0,0,1.23,0v-4a.615.615,0,0,0-1.23,0" transform="translate(-58.964 -194.231)" fill="#1565c0"/>
    </clipPath>
    <clipPath id="clip-path-44">
      <path id="Trazado_601353" data-name="Trazado 601353" d="M76.149,194.846v4a.615.615,0,0,0,1.23,0v-4a.615.615,0,0,0-1.23,0" transform="translate(-76.149 -194.231)" fill="#1565c0"/>
    </clipPath>
    <clipPath id="clip-path-45">
      <path id="Trazado_601354" data-name="Trazado 601354" d="M93.338,194.846v4a.615.615,0,1,0,1.229,0v-4a.615.615,0,1,0-1.229,0" transform="translate(-93.338 -194.231)" fill="#1565c0"/>
    </clipPath>
    <clipPath id="clip-path-49">
      <path id="Trazado_601355" data-name="Trazado 601355" d="M31.874,253.789a.615.615,0,0,0,0,1.23H58a.615.615,0,1,0,0-1.23Z" transform="translate(-31.259 -253.789)" fill="#fb8c00"/>
    </clipPath>
  </defs>
  <g id="Grupo_893204" data-name="Grupo 893204" transform="translate(6732 11577)">
    <g id="Grupo_893203" data-name="Grupo 893203" transform="translate(24 -440.173)">
      <g id="Grupo_889380" data-name="Grupo 889380" transform="translate(-6672 -11083.49)">
        <g id="Grupo_887377" data-name="Grupo 887377" transform="translate(49.557)">
          <g id="Grupo_887376" data-name="Grupo 887376" clip-path="url(#clip-path)">
            <rect id="Rectángulo_298121" data-name="Rectángulo 298121" width="19.805" height="60.819" transform="translate(-1.366 0.031) rotate(-1.296)" fill="#1565c0"/>
          </g>
        </g>
        <g id="Grupo_887379" data-name="Grupo 887379" transform="translate(4.348 4.349)" style="isolation: isolate">
          <g id="Grupo_887378" data-name="Grupo 887378" clip-path="url(#clip-path-2)">
            <rect id="Rectángulo_298122" data-name="Rectángulo 298122" width="37.11" height="24.362" transform="translate(-0.532 0.012) rotate(-1.296)" fill="#1565c0"/>
          </g>
        </g>
        <g id="Grupo_887381" data-name="Grupo 887381">
          <g id="Grupo_887380" data-name="Grupo 887380" clip-path="url(#clip-path-3)">
            <rect id="Rectángulo_298123" data-name="Rectángulo 298123" width="46.645" height="61.737" transform="translate(-1.373 0.031) rotate(-1.296)" fill="#1565c0"/>
          </g>
        </g>
        <g id="Grupo_887383" data-name="Grupo 887383" transform="translate(15.295 52.781)" style="isolation: isolate">
          <g id="Grupo_887382" data-name="Grupo 887382" clip-path="url(#clip-path-4)">
            <rect id="Rectángulo_298124" data-name="Rectángulo 298124" width="14.731" height="2.131" transform="matrix(1, -0.023, 0.023, 1, -0.041, 0.001)" fill="#fb8c00"/>
          </g>
        </g>
        <g id="Grupo_887385" data-name="Grupo 887385" transform="translate(53.906 4.349)">
          <g id="Grupo_887384" data-name="Grupo 887384" clip-path="url(#clip-path-5)">
            <rect id="Rectángulo_298125" data-name="Rectángulo 298125" width="9.886" height="6.517" transform="translate(-0.142 0.003) rotate(-1.296)" fill="#1565c0"/>
          </g>
        </g>
        <g id="Grupo_887389" data-name="Grupo 887389" transform="translate(54.205 26.466)">
          <g id="Grupo_887388" data-name="Grupo 887388" clip-path="url(#clip-path-6)">
            <rect id="Rectángulo_298127" data-name="Rectángulo 298127" width="9.352" height="9.351" transform="translate(-0.207 0.005) rotate(-1.296)" fill="#1565c0"/>
          </g>
        </g>
        <g id="Grupo_887391" data-name="Grupo 887391" transform="translate(53.906 12.349)">
          <g id="Grupo_887384-2" data-name="Grupo 887384" clip-path="url(#clip-path-5)">
            <rect id="Rectángulo_298125-2" data-name="Rectángulo 298125" width="9.886" height="6.517" transform="translate(-0.142 0.003) rotate(-1.296)" fill="#1565c0"/>
          </g>
        </g>
      </g>
      <g id="Grupo_889382" data-name="Grupo 889382" transform="translate(-6443.461 -11083.49)">
        <g id="Grupo_887377-2" data-name="Grupo 887377" transform="translate(0 0)">
          <g id="Grupo_887376-2" data-name="Grupo 887376" clip-path="url(#clip-path-8)">
            <rect id="Rectángulo_298121-2" data-name="Rectángulo 298121" width="19.805" height="60.819" transform="translate(18.434 60.834) rotate(-178.704)" fill="#1565c0"/>
          </g>
        </g>
        <g id="Grupo_887379-2" data-name="Grupo 887379" transform="translate(27.065 4.349)" style="isolation: isolate">
          <g id="Grupo_887378-2" data-name="Grupo 887378" clip-path="url(#clip-path-9)">
            <rect id="Rectángulo_298122-2" data-name="Rectángulo 298122" width="37.11" height="24.362" transform="translate(36.568 24.368) rotate(-178.704)" fill="#1565c0"/>
          </g>
        </g>
        <g id="Grupo_887381-2" data-name="Grupo 887381" transform="translate(22.717 0)">
          <g id="Grupo_887380-2" data-name="Grupo 887380" clip-path="url(#clip-path-10)">
            <rect id="Rectángulo_298123-2" data-name="Rectángulo 298123" width="46.645" height="61.736" transform="translate(45.26 61.752) rotate(-178.704)" fill="#1565c0"/>
          </g>
        </g>
        <g id="Grupo_887383-2" data-name="Grupo 887383" transform="translate(38.011 52.781)" style="isolation: isolate">
          <g id="Grupo_887382-2" data-name="Grupo 887382" clip-path="url(#clip-path-11)">
            <rect id="Rectángulo_298124-2" data-name="Rectángulo 298124" width="14.731" height="2.131" transform="translate(14.687 2.132) rotate(-178.704)" fill="#fb8c00"/>
          </g>
        </g>
        <g id="Grupo_887385-2" data-name="Grupo 887385" transform="translate(4.348 4.349)">
          <g id="Grupo_887384-3" data-name="Grupo 887384" clip-path="url(#clip-path-12)">
            <rect id="Rectángulo_298125-3" data-name="Rectángulo 298125" width="9.886" height="6.516" transform="matrix(-1, -0.023, 0.023, -1, 9.741, 6.518)" fill="#1565c0"/>
          </g>
        </g>
        <g id="Grupo_887389-2" data-name="Grupo 887389" transform="translate(4.648 26.466)">
          <g id="Grupo_887388-2" data-name="Grupo 887388" clip-path="url(#clip-path-13)">
            <rect id="Rectángulo_298127-2" data-name="Rectángulo 298127" width="9.352" height="9.351" transform="translate(9.143 9.354) rotate(-178.704)" fill="#1565c0"/>
          </g>
        </g>
        <g id="Grupo_887391-2" data-name="Grupo 887391" transform="translate(4.348 12.349)">
          <g id="Grupo_887384-4" data-name="Grupo 887384" clip-path="url(#clip-path-12)">
            <rect id="Rectángulo_298125-4" data-name="Rectángulo 298125" width="9.886" height="6.516" transform="matrix(-1, -0.023, 0.023, -1, 9.741, 6.518)" fill="#1565c0"/>
          </g>
        </g>
      </g>
      <g id="Grupo_889385" data-name="Grupo 889385" transform="translate(-6569.737 -11007.399)">
        <g id="Grupo_889384" data-name="Grupo 889384" transform="translate(0 -0.003)" clip-path="url(#clip-path-15)">
          <path id="Trazado_604143" data-name="Trazado 604143" d="M45.94,0A45.637,45.637,0,0,0,23.52,5.866s-.013,0-.017,0A45.926,45.926,0,0,0,45.94,91.873c.8,0,1.572-.076,2.36-.116,1.268-.065,2.518-.167,3.756-.333A45.926,45.926,0,0,0,45.94,0Z" transform="translate(0 0.003)" fill="#1565c0"/>
          <path id="Trazado_604144" data-name="Trazado 604144" d="M165.744,40.865a.708.708,0,0,0-.539.18,4.45,4.45,0,0,1-.329.449c-.07.07-.144.27-.329.27-.107,0-.462-.058-.539,0-.143.107-.344.209-.389.389-.058.232-.254.194-.419.359a1.33,1.33,0,0,1-.449.3,2.1,2.1,0,0,1-.539.09,2.368,2.368,0,0,0-.509,0c-.239.06-.364.278-.569.329a.565.565,0,0,0-.359.24.783.783,0,0,1-.569.24c-.287,0-.3.052-.509.21a1.1,1.1,0,0,1-.6.15,2.1,2.1,0,0,0-.839.12c-.152.076-.353.1-.419.27-.105.263-.193.291-.449.419a2.747,2.747,0,0,0-.6.3c-.093.093-.145.425-.269.449a1.826,1.826,0,0,0,.24.18,2.818,2.818,0,0,0,.629.03c.248,0,.464.03.719.03.219,0,.349-.15.539-.15a3.1,3.1,0,0,1,.749.06,2.445,2.445,0,0,0,.6.12,1.931,1.931,0,0,0,.539-.06c.242-.061.388-.048.509-.21a1.5,1.5,0,0,1,.329-.33c.106-.08.509-.509.6-.509a2.3,2.3,0,0,0,.6-.12c.146-.037.152-.389.3-.359.087.017.265.233.359.21a.732.732,0,0,1,.27-.03.224.224,0,0,1,.18.18c.05.2.107.193.21.329.05.067.3.362.27.479a1.294,1.294,0,0,0-.03.539,2.313,2.313,0,0,0,.12.479,3.4,3.4,0,0,1,.21.419c.047.188.151.183.24.359.105.21.053.3-.03.509a.978.978,0,0,0-.12.6c.011.045.019.1.03.15.033.134.053.207.09.24s.089.03.24.03c.177,0,.42,0,.509.09.12.12.24.188.24.359,0,.124-.068.454-.18.509-.081.04-.329.257-.329.389,0,.167.03.355.03.509a.587.587,0,0,0,0,.12,3.329,3.329,0,0,0,.18.629,4.236,4.236,0,0,1,.3.449c.067.167.073.416.15.569.084.169.169.307.24.449.084.168.135.494.27.629a3.464,3.464,0,0,1,.359.449,4.989,4.989,0,0,0,.389.479c.109.109.22.25.359.389a2.779,2.779,0,0,0,.809.629c.179.09.387.179.569.27a3.542,3.542,0,0,1,.539.359c.182.137.371.334.629.27a4.044,4.044,0,0,0,.779-.12.724.724,0,0,0,.21-.12.22.22,0,0,0,.06-.27.946.946,0,0,1-.15-.389c0-.245-.06-.466-.06-.719a1.854,1.854,0,0,1,.03-.479,1.054,1.054,0,0,0,0-.479c-.051-.2-.01-.4-.06-.6a2.538,2.538,0,0,1-.03-.569,1.892,1.892,0,0,1,.03-.479,2.325,2.325,0,0,0,.03-.569,1.14,1.14,0,0,1,.03-.449c.058-.116.133-.394.3-.449.14-.047.629-.153.629-.329a1.966,1.966,0,0,0-.06-.509c-.047-.189-.171-.376-.06-.6.128-.257.379-.326.539-.539a4.7,4.7,0,0,1,.389-.389c.106-.106.339-.2.389-.3a1.232,1.232,0,0,0,.15-.479c0-.107.047-.486-.06-.539-.155-.077-.329-.05-.329-.24,0-.126.136-.417.09-.509a.534.534,0,0,0-.389-.329c-.186-.046-.441-.082-.629-.12-.114-.023-.372-.056-.419-.15s-.105-.4-.21-.449a1.248,1.248,0,0,0-.569-.09c-.052,0-.7-.155-.479-.21s.212-.094.3-.27c.05-.1.15-.269.06-.389a3.179,3.179,0,0,0-.419-.359,1.278,1.278,0,0,0-.779-.24.333.333,0,0,1-.09,0,.926.926,0,0,1-.359-.27,1.4,1.4,0,0,0-.629-.27c-.151-.038-.244-.166-.419-.21s-.359-.045-.539-.09c-.235-.059-.486-.1-.719-.15-.086-.017-.7-.062-.659-.21.023-.09.138-.3.27-.3a3.069,3.069,0,0,0,.569,0,3.606,3.606,0,0,1,.719-.09,3.52,3.52,0,0,1,.689.06c.281.056.592.021.869.09a3.733,3.733,0,0,0,.779.09c.319,0,.691-.03,1.018-.03.5,0,.946-.12,1.438-.12.285,0,.382-.174.6-.21a.467.467,0,0,0,.24-.09c.036-.04,0-.081-.15-.12-.188-.047-.4.019-.6-.03a2.6,2.6,0,0,0-.539-.09c-.231,0-.429-.03-.659-.03a1.96,1.96,0,0,0-.479.09,2.651,2.651,0,0,1-.659,0h-.719c-.322,0-.66-.06-.958-.06-.195,0-.385-.03-.539-.03a2.179,2.179,0,0,1-.9-.12,2.761,2.761,0,0,0-.629-.24c-.114-.028-.378-.33-.479-.33Zm19.108.359c-.375.078-.763.123-1.108.21-.437.109-.706.31-1.108.21-.28-.07-.546-.091-.839-.15.1.1.049.219-.03.329a1.189,1.189,0,0,1-.27.24c-.009.007-.691.083-.719.09-.162.041-.1.15,0,.27a.9.9,0,0,0,.3.24,6.466,6.466,0,0,1,1.168.479c.142.071.208.127.24.21s.027.2.06.329c.064.258.1.336.329.449a2.534,2.534,0,0,0,.868.12,4.43,4.43,0,0,1,1.168.27,2.38,2.38,0,0,1,.719.479,3.8,3.8,0,0,1,.479.479,1.714,1.714,0,0,0,.659.539c.225.113.577.109.719.18a3.207,3.207,0,0,1,.749.509c.211.211.379.409.539.569.208.208.258.441.509.629a5.879,5.879,0,0,1,.659.539c.227.227.429.34.629.539a1.327,1.327,0,0,0,.569.449c.349.087.571-.135.869-.21.146-.036.672.512.749.569a1.744,1.744,0,0,1,.419.539,2.826,2.826,0,0,0,.479.509,1.637,1.637,0,0,0,.569.419.473.473,0,0,0,.359.03.312.312,0,0,0,.21-.21,1.13,1.13,0,0,0,.09-.659.678.678,0,0,1,.06-.479c.075-.133.2-.2.419-.09.158.079.259.338.33.479a1.718,1.718,0,0,1,.24.749v.689a9.484,9.484,0,0,0,1.288.839,3.55,3.55,0,0,0,.569.389,4.813,4.813,0,0,0,.629.419.62.62,0,0,1,.3.389.838.838,0,0,1,.03.449c-.037.148.088.486.03.719a1.152,1.152,0,0,0-.06.419c.019.1.1.138.3.24.3.148.407.382.719.569.163.1.291,1.241.389,1.438a1.254,1.254,0,0,1,.18.779,2.866,2.866,0,0,0-.18.749,3.539,3.539,0,0,1-.21.689c-.048.191-.138.392-.18.539s-.034.244.18.329a3.347,3.347,0,0,0,1.018.24h.9c.143,0,.287.287.419.6a5.351,5.351,0,0,1,.27.779.934.934,0,0,0,.3.569c.225.225.554.419.629.719.086.343.2.431.06.719-.07.14-.562.251-.719.329a6.031,6.031,0,0,1-.928.24,1.4,1.4,0,0,0-.419.18.358.358,0,0,0-.18.3,1.272,1.272,0,0,0,.24.659,4.255,4.255,0,0,0,.419.689,1.182,1.182,0,0,0,.09.12c.183.183.163.468.329.689a5.24,5.24,0,0,1,.509.9c.161.322.524.57.719.958a2.5,2.5,0,0,1,.3.929,2.978,2.978,0,0,0,.18.689.887.887,0,0,0,.389.449,1.753,1.753,0,0,0,.509.24,3.837,3.837,0,0,0,.9.03c.31,0,.5-.09.779-.09.16,0,.388-.417.479-.539a1.824,1.824,0,0,0,.389-.719,2.6,2.6,0,0,0,.09-.479.551.551,0,0,0-.15-.449.388.388,0,0,1-.12-.33.605.605,0,0,1,.12-.329,5.441,5.441,0,0,0,.06-.809c0-.029-.38-.507-.449-.6a4.409,4.409,0,0,1-.33-.749,1.646,1.646,0,0,1-.15-.809V65.1a.765.765,0,0,0-.33-.629c-.182-.182-.174-.338-.24-.6a.411.411,0,0,1,.03-.359,1.325,1.325,0,0,1,.27-.21.84.84,0,0,0,.24-.659c0-.165-.052-.333-.06-.449s.018-.207.15-.24.259.069.359.18a2.561,2.561,0,0,1,.21.3,1.8,1.8,0,0,0,.389.479,5.249,5.249,0,0,0,.9.419,4.346,4.346,0,0,1,.659.389,5.453,5.453,0,0,1,.569.479c.138.138.178.407.3.569s.271.211.419.359a2.386,2.386,0,0,1,.329.629c.087.174.148.242.21.24s.139-.084.27-.15c.083-.041-.129-.665-.15-.749-.059-.234-.389-.568-.479-.749s-.066-.276,0-.27a.532.532,0,0,1,.24.15c.2.2.387.265.539.569a2.9,2.9,0,0,0,.449.449c.2.2.168.373.24.659a.134.134,0,0,0,.15.12.43.43,0,0,0,.21-.12,1.809,1.809,0,0,0,.329-.389,4.2,4.2,0,0,0,.18-.569.953.953,0,0,0-.03-.659c-.072-.2-.193-.377-.27-.569a3.431,3.431,0,0,0-.27-.479c-.288-.48-.526-.933-.779-1.438l-.03-.06a45.955,45.955,0,0,0-26.717-20.527Zm-29.23,3.954c-.151,0-.391.286-.479.33a4.569,4.569,0,0,0-.569.449c-.182.136-.336.259-.509.389a.864.864,0,0,1-.629.18c-.284,0-.291.13-.509.24a1.834,1.834,0,0,0-.6.749,2.613,2.613,0,0,1-.359.569,2.094,2.094,0,0,1-.539.3c-.188.094-.12.465-.12.659,0,.129-.5.15-.539.15a4.64,4.64,0,0,1-.509-.629c-.212-.212-.1-.25-.419-.329-.172-.043-.312-.028-.389-.06s-.12-.116-.12-.329c0-.231.277-.337.389-.449a2.132,2.132,0,0,1,.539-.3c.193-.1.274-.274.419-.419a.836.836,0,0,0,.21-.659c0-.084-.426-.258-.509-.3-.19-.1-.311-.305-.539-.419,0,0-.026,0-.03,0A46.052,46.052,0,0,0,138.37,54.4a2.546,2.546,0,0,1-.12.539c-.126.252-.3.3-.479.479a3.994,3.994,0,0,0-.3.509c-.139.185-.35.26-.509.419s-.15.505-.15.719.089.276.18.27.169-.1.24-.24a3.014,3.014,0,0,1,.689-.569c.224-.168.543-.277.659-.509a2.545,2.545,0,0,0,.27-.6,4.007,4.007,0,0,1,.449-.839,1.533,1.533,0,0,0,.359.629.42.42,0,0,1,.12.33.921.921,0,0,1-.12.3,3.2,3.2,0,0,1-.479.479c-.17.17-.264.169-.359.359-.1.206-.274.258-.329.479s-.158.362-.21.569c-.074.3-.025.474-.24.689a1.411,1.411,0,0,0-.27.6.78.78,0,0,1-.389.509,1.224,1.224,0,0,0-.329.689c-.075.3-.432.625-.569.9-.118.235-.21.27-.329.509a3.878,3.878,0,0,0-.15.659,1.986,1.986,0,0,1-.359.689c-.027.036-.088.058-.12.09a1.269,1.269,0,0,0-.27.749c0,.2-.276.564-.329.779a3.614,3.614,0,0,1-.24.749c-.135.27-.263.377-.389.629l-.329.659a1.575,1.575,0,0,0-.09.659,3.6,3.6,0,0,1-.12.719,3.415,3.415,0,0,0,0,.749.808.808,0,0,1-.27.629,1.129,1.129,0,0,0-.389.6,3.589,3.589,0,0,1-.27.629,3.349,3.349,0,0,1-.329.659,2.144,2.144,0,0,0-.3.719,3.172,3.172,0,0,1-.21.719,2.747,2.747,0,0,0-.21.659,2.576,2.576,0,0,1-.24.569,3.274,3.274,0,0,0-.18.719,3.653,3.653,0,0,0-.09.839c0,.23-.12.511-.12.779a2.958,2.958,0,0,1-.09.749,3.139,3.139,0,0,0-.03.749c0,.373-.09.729-.09,1.108,0,.291.115.341.18.6.057.228.034.5.09.719a1.213,1.213,0,0,1,.06.33c.09.362.329.469.329.839a2.243,2.243,0,0,0,.09.659,3.5,3.5,0,0,1,0,.779,3.616,3.616,0,0,1-.15.779.351.351,0,0,0,0,.09c0,.286-.09.59-.09.9a3.339,3.339,0,0,0,.24.629,4.242,4.242,0,0,1,.24.809,7.616,7.616,0,0,0,.329,1.018c.109.273.122.485.24.779.077.192-.012.552.03.719a3.207,3.207,0,0,1,.06.749c0,.273.06.489.06.749a2.888,2.888,0,0,0,.09.719,3.92,3.92,0,0,0,.12.659c.152.3.295.37.359.629s.154.5.21.719c.065.259.328.476.389.719a8.412,8.412,0,0,0,.539.988c.094.22.1.491.18.659s.447.3.569.389.113.181.15.27a.341.341,0,0,0,.27.21c.206.051.341.256.479.359.181.136-.095-.439-.15-.659a2.905,2.905,0,0,0-.419-.689c-.1-.168-.014-.567-.09-.719a3.435,3.435,0,0,1-.3-.719c-.069-.277-.2-.533-.27-.809a3.264,3.264,0,0,0-.3-.719c-.147-.294-.329-.4-.329-.749a2.4,2.4,0,0,0-.27-.809,2.407,2.407,0,0,1-.06-.869c0-.241-.09-.437-.09-.689a3.637,3.637,0,0,0-.15-.869,2.984,2.984,0,0,1-.15-.749c0-.2.052-.268.09-.24a.562.562,0,0,1,.06.33c0,.186.253.382.3.569.066.264.112.539.18.809.053.213-.058.517,0,.749a2.563,2.563,0,0,1,.21.719c0,.25.09.432.09.659a4.255,4.255,0,0,0,.24.659c.064.257.116.525.18.779.054.215.176.5.24.749a2.01,2.01,0,0,0,.329.659,3.961,3.961,0,0,1,.24.659c.134.268.2.427.329.689a2.757,2.757,0,0,1,.24.6,4.828,4.828,0,0,0,.389.809,3.458,3.458,0,0,1,.27.629,4.36,4.36,0,0,0,.27.869l.3.6a2.382,2.382,0,0,0,.479.629,2.737,2.737,0,0,0,.779.449.862.862,0,0,1,.539.539,3.5,3.5,0,0,0,.329.659,2.81,2.81,0,0,0,.539.659,6.255,6.255,0,0,0,1.557,1.348,2.663,2.663,0,0,0,.629.24,3.311,3.311,0,0,1,.719.21,1.5,1.5,0,0,0,.719.15c.109,0,.383.253.569.3.166.042.435-.056.659,0,.308.077.406-.2.719-.12.29.072.734.737.988.929.226.169.461.348.719.569a1.524,1.524,0,0,0,.689.389,2.3,2.3,0,0,1,.539.18,1.921,1.921,0,0,0,.749.03c.22,0,.44.32.569.449a11.075,11.075,0,0,1,.868.749,6.643,6.643,0,0,0,.479.749c.182.182.438.408.659.629.183.183.392.309.449.539.062.246.357.358.539.449a3.4,3.4,0,0,0,.659.21c.167.042.437.41.569.509.1.075.617-.06.779-.06.211,0,.47.307.6.479.147.2.239.359.509.359a.965.965,0,0,0,.689-.3,1.247,1.247,0,0,0,.18-.719c0-.184.476.236.569.33.146.146.338.368.449.479a3.594,3.594,0,0,1,.6.689c.1.2.043.475.15.689a3.315,3.315,0,0,0,.359.569.978.978,0,0,1,.15.689c0,.26.06.465.06.719,0,.222-.189.308-.24.509a2.463,2.463,0,0,0-.15.719c0,.215-.389.432-.389.749a4.672,4.672,0,0,0,.3.839,4.512,4.512,0,0,0,.27.869c.145.29.37.251.449.569.068.273.086.552.15.809s.212.338.27.569a1.2,1.2,0,0,0,.329.509,1.524,1.524,0,0,0,.629.359,1.11,1.11,0,0,1,.719.509,2.64,2.64,0,0,0,.509.659,4.278,4.278,0,0,1,.539.389.668.668,0,0,0,.12.09c.239.159.3.362.6.509.239.119.443.32.659.449.274.164.416.283.689.419.235.117.415.342.629.449a2.473,2.473,0,0,0,.689.27c.229.046.523.131.719.18a4.125,4.125,0,0,1,.809.24,2.614,2.614,0,0,1,.569.479,2.753,2.753,0,0,0,.689.419c.163.081.387.224.539.3.3.151.422.369.689.569a4.767,4.767,0,0,1,.509.509c.2.2.319.469.479.629a1.253,1.253,0,0,1,.329.629,3.15,3.15,0,0,0,.389.689c.115.23.445.364.6.569s.44.291.6.449a4.646,4.646,0,0,1,.569.509,2.756,2.756,0,0,0,.479.419,1.993,1.993,0,0,0,.569.329,1.226,1.226,0,0,0,.12.06c1.268-.065,2.5-.164,3.744-.33.01-.024.053-.032.06-.06.079-.316.464-.562.629-.809a.9.9,0,0,1,.659-.329c.26-.052.375-.225.569-.419a5.75,5.75,0,0,0,.569-.629c.179-.239.243-.4.389-.6a3.776,3.776,0,0,0,.329-.689,1.223,1.223,0,0,1,.509-.6c.262-.131.338-.332.569-.389.309-.077.443-.2.719-.27.223-.056.59-.59.719-.719a4.583,4.583,0,0,0,.509-.569,2.754,2.754,0,0,1,.21-.3c.063-.079.116-.13.18-.21.106-.133.111-.564.15-.719a3.955,3.955,0,0,1,.27-.719c.105-.211.071-.5.18-.719.121-.242.2-.455.3-.659.114-.228.037-.494.15-.719s.185-.459.27-.629c.121-.243.077-.323.389-.479.167-.083.338-.368.479-.509a2.768,2.768,0,0,0,.27-.659,2.621,2.621,0,0,1,.539-.569c.115-.115.223-.373.329-.479.127-.127.147-.5.18-.629.052-.207.037-.449.09-.659.058-.232-.168-.408-.27-.509a5.274,5.274,0,0,0-.569-.629,5.038,5.038,0,0,1-.479-.359,2.441,2.441,0,0,0-.629-.329,1.209,1.209,0,0,0-.6-.12h-.779c-.273,0-.417.06-.659.06-.258,0-.431.06-.689.06h-.719c-.215,0-.377-.12-.629-.12s-.281-.175-.419-.359a.906.906,0,0,0-.659-.21c-.282,0-.542-.03-.868-.03a1.2,1.2,0,0,0-.719.24,2.068,2.068,0,0,0-.509.359,2.053,2.053,0,0,1-.629.3,1.24,1.24,0,0,1-.719,0,.268.268,0,0,1-.21-.24,2.252,2.252,0,0,1,0-.389c0-.277.163-.4.329-.569.108-.108.09-.491.09-.659,0-.335.036-.377-.09-.629-.108-.217-.328-.3-.449-.419-.143-.143-.251-.4-.389-.539a2.478,2.478,0,0,1-.359-.569c-.089-.179-.344-.277-.509-.36a3.421,3.421,0,0,0-.689-.18,3.336,3.336,0,0,0-.719,0h-.689c-.254,0-.45.06-.689.06-.179,0-.351.12-.6.12-.2,0-.376-.271-.509-.449-.175-.233-.389-.269-.539-.419s-.354-.2-.479-.329a1.948,1.948,0,0,0-.749-.27,3.552,3.552,0,0,1-.719-.24c-.273-.137-.284-.268-.419-.539a1.217,1.217,0,0,1-.21-.6,1.829,1.829,0,0,0-.18-.629c-.046-.092-.121-.191-.15-.24a.316.316,0,0,1,.03-.359c.043-.071.058-.105-.12-.15-.022-.005-.437.388-.479.419-.189.142-.332.113-.6.18a.8.8,0,0,1-.779-.09.5.5,0,0,1-.21-.21c-.044-.054-.085-.084-.3-.03a2.817,2.817,0,0,0-.569.3,2.639,2.639,0,0,0-.509.27c-.194.145-.54.255-.719.389s-.6-.107-.689-.15c-.225-.112-.231-.5-.27-.659-.052-.21-.112-.235-.18-.18a1.24,1.24,0,0,0-.21.329.349.349,0,0,1-.3.21.516.516,0,0,1-.3-.06,6.878,6.878,0,0,1,.03-.719c0-.117-.377-.437-.419-.479-.113-.113-.185-.086-.24,0s-.1.228-.15.33a3.3,3.3,0,0,0-.18.809,3.849,3.849,0,0,0-.06.749c0,.171-.148.3-.27.419s-.131-.044-.12-.27a3.7,3.7,0,0,0,.03-.659c-.05-.252-.148-.471-.21-.719a3.079,3.079,0,0,0-.12-.569c-.075-.15-.207-.025-.329.15s-.25.413-.3.479c-.191.255-.6.495-.749.689a2.673,2.673,0,0,1-.569.3,6.8,6.8,0,0,0-.779.659c-.2.15-.18.576-.18.809,0,.294.1.252-.06.569a.2.2,0,0,1-.3.09.768.768,0,0,1-.21-.18,1,1,0,0,0-.539-.3,1.3,1.3,0,0,0-.689.12c-.294.073-.561.2-.839.27a1.768,1.768,0,0,1-.749-.06c-.168-.042-.328-.268-.479-.419a3.629,3.629,0,0,1-.449-.509,1.855,1.855,0,0,0-.389-.479c-.241-.181-.295-.08-.419-.33a1.744,1.744,0,0,0-.3-.479c-.121-.121-.09-.421-.09-.659s-.06-.528-.06-.779a2.85,2.85,0,0,0-.09-.659,3.294,3.294,0,0,1-.03-.719c0-.176-.3-.352-.449-.389a2.712,2.712,0,0,0-.809-.12h-1.617a.558.558,0,0,1-.329-.09,2.85,2.85,0,0,1-.27-.719c0-.26-.06-.465-.06-.719a2.75,2.75,0,0,0-.09-.659c-.049-.2-.033-.43-.09-.659a3.336,3.336,0,0,1,0-.719c0-.26.06-.384.06-.659,0-.184.03-.442.03-.659a.654.654,0,0,0-.389-.6,1.544,1.544,0,0,0-.689-.06,2.31,2.31,0,0,0-.629.12c-.254.064-.379.35-.479.449a1.334,1.334,0,0,0-.24.659,3.294,3.294,0,0,0-.03.719c0,.117-.263.453-.3.6-.066.266-.43.425-.6.509a1.177,1.177,0,0,1-.868-.12,2.875,2.875,0,0,1-.509-.629,3.789,3.789,0,0,0-.389-.419,3.693,3.693,0,0,1-.479-.479,3.281,3.281,0,0,1-.3-.509c-.114-.227-.145-.38-.27-.629-.113-.226-.261-.462-.389-.719-.142-.283-.147-.416-.329-.6a.978.978,0,0,1-.24-.719c0-.266-.09-.545-.09-.809,0-.241-.09-.467-.09-.719s0-.467,0-.719c0-.222.15-.406.15-.659,0-.276-.06-.4-.06-.659a1.733,1.733,0,0,1,.15-.779c.08-.2.311-.352.389-.509a3.159,3.159,0,0,1,.329-.509,1.1,1.1,0,0,1,.569-.359c.221-.07.45-.128.659-.18a1.743,1.743,0,0,1,.9.03,3.988,3.988,0,0,0,.988.12.468.468,0,0,1,.329.15.329.329,0,0,0,.329.09c.166-.042.12-.578.12-.719a3.1,3.1,0,0,0-.06-.329c.006-.071.082-.131.24-.21a1.06,1.06,0,0,1,.659-.18c.3,0,.585.06.868.06.168,0,.412.191.569.27a.883.883,0,0,0,.359.09.445.445,0,0,1,.329.21,4.715,4.715,0,0,0,.539.509,2.3,2.3,0,0,0,.629.329c.107.053.089.6.12.719a3.137,3.137,0,0,0,.3.629c.146.292.214.61.329.9.082.206.16.409.24.569a.85.85,0,0,0,.419.479,2.622,2.622,0,0,0,.569.15c.236.059.428-.152.539-.3a.58.58,0,0,0,.03-.449,1.425,1.425,0,0,0-.15-.419c-.177-.3-.124-.582-.24-.929a2.7,2.7,0,0,0-.419-.719,4.852,4.852,0,0,1-.27-.719,2.859,2.859,0,0,1-.24-.629c-.056-.226-.071-.464-.12-.659a.8.8,0,0,1,.3-.749.725.725,0,0,0,.21-.419,2.89,2.89,0,0,0,.509-.809,1.468,1.468,0,0,0,.18-.719.732.732,0,0,1,.3-.449,4.078,4.078,0,0,0,.449-.419,5.329,5.329,0,0,0,.539-.719c.107-.213.318-.374.389-.659.049-.2.033-.43.09-.659l.18-.719a1.345,1.345,0,0,0,0-.689,3.189,3.189,0,0,0-.24-.629,1.868,1.868,0,0,0-.419-.509c-.107-.107-.09-.547-.09-.719,0-.153.458-.15.6-.15a2.6,2.6,0,0,0,.629-.18c.14-.035.335-.37.419-.539a3.058,3.058,0,0,0,.24-.659c.068-.271-.06-.48-.06-.719a.71.71,0,0,1,.389-.509,1.276,1.276,0,0,1,.659-.21c.277,0,.511.06.779.06a.456.456,0,0,0,.509-.329,1.918,1.918,0,0,0,.06-.719,2.9,2.9,0,0,0-.06-.659.869.869,0,0,1,.06-.419c-.04-.161.289-.648.329-.689a2.128,2.128,0,0,1,.539-.419,2.3,2.3,0,0,0,.569-.419c.194-.194.361-.421.479-.539.175-.175.2-.35.359-.509.075-.075.041.547,0,.629a.279.279,0,0,0,.03.3,1.5,1.5,0,0,1,.18.3.7.7,0,0,1-.03.329c0,.069.029.12.24.12a.428.428,0,0,0,.479-.3c.116-.232.324-.258.539-.419a5.061,5.061,0,0,0,.419-.479,3.727,3.727,0,0,0,.509-.479c.157-.209.366-.213.6-.329.328-.164.178-.389.539-.479a.74.74,0,0,0,.449-.419c.089-.179-.15-.438-.15-.629a.868.868,0,0,0-.24-.629.236.236,0,0,0-.24-.12.354.354,0,0,0-.18.12,2.983,2.983,0,0,0-.3.689c-.125.25-.062.413-.27.569-.152.114-.552-.309-.659-.389a1.234,1.234,0,0,0-.719-.18.6.6,0,0,0-.3.09c-.069.031-.136.027-.24-.18a3.4,3.4,0,0,1-.09-.659.6.6,0,0,0-.15-.24c-.038-.055-.013-.137.12-.27.174-.174.27-.1.27-.419a.627.627,0,0,1,.389-.509c.234-.117.108-.3.449-.3a1.524,1.524,0,0,0,.629-.15c.136-.068.216-.161.21-.24s-.081-.12-.24-.12c-.3,0-.473.18-.779.18-.189,0-.492.206-.659.24-.24.048-.469.027-.719.09s-.456.264-.719.329a1.1,1.1,0,0,0-.569.629,1.847,1.847,0,0,1-.539.779c-.22.22-.326.226-.539.12a7.991,7.991,0,0,1,.389-.749,2.342,2.342,0,0,1,.479-.779c.208-.208.425-.335.6-.509.2-.2.3-.412.569-.479a3.672,3.672,0,0,1,.868-.03c.274,0,.454-.12.689-.12.219,0,.465-.3.659-.449a2.1,2.1,0,0,1,.839-.21c.291-.058.412-.135.509-.329.107-.214.39-.181.539-.33a.667.667,0,0,0,.15-.3.242.242,0,0,1,.21-.18c.236-.059.5-.041.689-.09a3.064,3.064,0,0,1,.689,0c.169,0,.28-.025.329-.09a.521.521,0,0,0,.06-.3.873.873,0,0,0-.3-.6,2.178,2.178,0,0,1-.419-.629c-.111-.223-.213-.486-.3-.659-.1-.2-.18-.449-.27-.629a.864.864,0,0,0-.569-.419,1.546,1.546,0,0,1-.569-.389,4.265,4.265,0,0,0-.419-.389c-.2-.149-.293-.167-.389-.359s-.217-.344-.329-.569c-.087-.175-.214-.278-.3-.449s-.026-.472-.09-.6c-.086-.172-.15-.45-.24-.629-.1-.2-.165-.239-.27-.449-.134-.267.03-.419-.15-.6s-.181-.315-.389-.419c-.128-.064-.179-.123-.24-.15s-.126-.012-.27.06c-.026.013-.214.458-.24.509-.109.217-.261.261-.479.479a1.953,1.953,0,0,0-.419.539c-.09.18-.451.059-.569.03s-.129-.137-.12-.27a1.4,1.4,0,0,0,0-.389,3.337,3.337,0,0,1,0-.719c0-.1.112-.106.24-.12a.668.668,0,0,0,.359-.12c.09-.09.143-.14.15-.21s-.035-.154-.15-.27c-.134-.134-.471-.08-.629-.12-.334-.083-.466-.05-.719-.24a.949.949,0,0,1-.419-.569c-.042-.169-.4-.137-.569-.18a3.069,3.069,0,0,0-.749-.06c-.225,0-.4.181-.629.24a.818.818,0,0,1-.329-.03c-.088-.008-.16.011-.21.21a2.787,2.787,0,0,1-.27.629,1.657,1.657,0,0,0-.09.659c0,.292-.079.343,0,.659a1.5,1.5,0,0,1-.06.659c-.061.244.061.476,0,.719-.078.311-.164.42-.03.689.125.249.256.3.329.6.059.237-.09.481-.09.719,0,.206-.3.452-.389.569a1.153,1.153,0,0,0-.24.6c0,.164-.39.285-.479.33a1.484,1.484,0,0,0-.509.509,1.423,1.423,0,0,0-.12.689c0,.234-.06.47-.06.719v.719a2.038,2.038,0,0,1,0,.6c-.057.227-.33.375-.479.449a.287.287,0,0,1-.359-.12.736.736,0,0,1-.15-.359c0-.253,0-.525,0-.779,0-.2-.06-.442-.06-.659V64.2a2.179,2.179,0,0,0-.15-.659c-.036-.146-.368-.368-.479-.479a2.258,2.258,0,0,0-.569-.389,2.424,2.424,0,0,1-.479-.389,2.086,2.086,0,0,1-.479-.539c-.114-.228-.412-.27-.659-.27a1.184,1.184,0,0,1-.719-.21c-.145-.109-.18-.474-.18-.629a3.885,3.885,0,0,0-.09-.809,1.863,1.863,0,0,1,.03-.719c.067-.27.361-.482.449-.659.124-.248.518-.428.719-.629s.3-.478.539-.659a6.1,6.1,0,0,1,.958-.569c.177-.088.2-.34.27-.479a2.364,2.364,0,0,1,.359-.629l.539-.539c.153-.153.582-.12.659-.12.106,0,.3.567.329.629.066.131.115.2.21.24a.711.711,0,0,0,.359,0c.24-.051.516-.177.839-.27.18-.051.395-.392.569-.479s.18-.481.18-.689c0-.273-.03-.417-.03-.659,0-.136-.4-.288-.479-.33-.116-.058-.126-.191-.09-.329a.844.844,0,0,1,.18-.329,1.383,1.383,0,0,1,.6-.3,3.617,3.617,0,0,0,.689-.15c.211-.105.267-.237.419-.389a1.111,1.111,0,0,0,.329-.659c.05-.2.024-.513.06-.659a1.855,1.855,0,0,1,.389-.6,1.115,1.115,0,0,1,.18-.24.554.554,0,0,1,.359-.09.645.645,0,0,1,.359.06.7.7,0,0,1,.18.27,1.931,1.931,0,0,1,.03.719c0,.254-.2.347-.329.479s.418.373.479.419c.1.071.042.225-.06.389s-.251.322-.27.359c-.078.156-.276.313-.389.539-.15.3-.18.345-.6.449a2.932,2.932,0,0,0-.659.359.17.17,0,0,0-.09.24.8.8,0,0,0,.12.24.888.888,0,0,0,.569.27c.323.081.438-.015.629.24a2.287,2.287,0,0,1,.27.419,3.05,3.05,0,0,1,.329.659c.03.118.474.162.629.24.2.1.515.123.689.21a2.321,2.321,0,0,0,.569.24c.2.05.265.149.509.21.146.036.236.048.3,0a.471.471,0,0,0,.12-.27c.027-.107-.091-.24-.21-.329a1.329,1.329,0,0,0-.27-.15,1.569,1.569,0,0,1-.509-.329.467.467,0,0,1-.18-.33c.009-.085.085-.145.18-.24s.191-.063.3,0a1.6,1.6,0,0,1,.27.21.236.236,0,0,0,.329,0,.554.554,0,0,0,.18-.27,2,2,0,0,0,.09-.6c0-.3-.2-.347-.12-.659.033-.132-.079-.23-.21-.3s-.284-.123-.359-.18c-.241-.181-.357-.176-.479-.419-.088-.176-.028-.269.06-.3a.51.51,0,0,1,.27,0c.272.068.322.2.509.389.213.213.212.331.449.449s.228.3.479.3c.159,0,.18-.483.18-.629,0-.256-.12-.446-.12-.719,0-.108.253-.3.3-.389a.342.342,0,0,0,0-.359,1.807,1.807,0,0,0-.24-.24c-.171-.171-.317-.245-.419-.449-.117-.234-.365-.335-.569-.539-.031-.062-.133,0-.24.03s-.212.02-.27-.21a1.677,1.677,0,0,1,.12-.719c.057-.226.185-.291.24-.509a.5.5,0,0,1,.18-.27c.043-.049.052-.1-.03-.27-.058-.115-.364-.242-.479-.3a1.606,1.606,0,0,1-.419-.36c-.1-.105-.06-.558-.06-.719a.3.3,0,0,0-.15-.27c-.092-.053-.2-.071-.3-.12a1.386,1.386,0,0,0-.629-.09,3.542,3.542,0,0,1-.719-.09,1.466,1.466,0,0,0-.659.09,3.335,3.335,0,0,1-.719,0,1.949,1.949,0,0,1-.569-.15c-.152-.038-.5.266-.629.329s-.184.017-.21-.09a1.693,1.693,0,0,1-.03-.359v-.719c0-.1-.074-.155-.18-.18a1.575,1.575,0,0,0-.329-.03Zm25.965,2.905a.362.362,0,0,0-.27.27c-.04.16-.06.388-.09.509a3.582,3.582,0,0,0-.928.06,4.616,4.616,0,0,1-.479.18c-.183.046-.128.177-.09.33.048.191.585.229.749.27.115.029.269.239.389.359a3.956,3.956,0,0,0,.449.3c.1.073.2.291.329.419a1.191,1.191,0,0,0,.539.24c.214.053.347-.06.569-.06.181,0,.339.09.539.09s.352-.09.539-.09c.153,0,.215-.246.3-.359a.98.98,0,0,0,.12-.569,1.96,1.96,0,0,0-.09-.479c-.038-.152-.339-.229-.419-.389a.827.827,0,0,0-.329-.419,4.039,4.039,0,0,0-.539-.3,2.742,2.742,0,0,1-.449-.27.661.661,0,0,0-.389-.09h-.329A.245.245,0,0,0,181.586,48.084Zm10.542,3.864c-.193.025-.24.316-.24.569s-.342.488-.449.569c-.148.111.6.4.659.419.253.063.463.278.719.329a6.649,6.649,0,0,1,.719.329c.131.052.172.245.21.449a3.339,3.339,0,0,1,.06.539,3.265,3.265,0,0,0,.06.779,1.038,1.038,0,0,1,.06.659,1.908,1.908,0,0,0-.06.36.348.348,0,0,0,.12.3c.2.2.751.092.988.329a9.059,9.059,0,0,1,.689.719c.139.166-.013.466.18.659a1.074,1.074,0,0,0,.719.12c.1-.026.155-.619.18-.719.031-.125.216-.191.419-.21a1.217,1.217,0,0,1,.539.06c.18.09.2.371.15.569a.349.349,0,0,0,.06.33.817.817,0,0,0,.27.21.941.941,0,0,0,.6.03c.22-.055.318-.367.419-.569a1.478,1.478,0,0,0,.12-.329.3.3,0,0,1,.18-.24.39.39,0,0,0,.24-.479,3.269,3.269,0,0,0-.24-.689c-.148-.3-.46-.4-.719-.6-.2-.149-.178-.2-.24-.449-.042-.167-.327-.3-.509-.389s-.278-.378-.479-.479a4.828,4.828,0,0,1-.839-.389c-.269-.2-.506-.275-.779-.479a6.872,6.872,0,0,1-.719-.659c-.221-.221-.437-.318-.6-.479a2.681,2.681,0,0,0-.719-.419c-.271-.136-.424-.3-.659-.389a4.987,4.987,0,0,0-.749-.21,1.176,1.176,0,0,1-.269-.15.224.224,0,0,0-.09,0ZM165.953,66.175c-.08.08-.228.009-.329.06s-.155.261-.18.359c-.04.161-.026.311-.06.479a1.807,1.807,0,0,0,.06.659c.032.129-.175.29-.24.419a2.342,2.342,0,0,1-.24.359c-.1.138-.087.437-.12.6-.039.193-.048.342-.09.509a1.573,1.573,0,0,0-.03.389c0,.1.246.168.33.21s.137-.062.18-.18a.98.98,0,0,1,.15-.33.5.5,0,0,1,.419-.21c.131,0,.271-.03.419-.03a1.018,1.018,0,0,1,.329.09,1.159,1.159,0,0,1,.329.24c.116.116.082.253.27.3a1.539,1.539,0,0,0,.419.12h.9c.183,0,.18-.116.18-.3a1.569,1.569,0,0,1,.06-.419.641.641,0,0,0-.06-.36c-.033-.13-.246-.276-.33-.359-.186-.186-.39-.154-.449-.389A1.908,1.908,0,0,1,167.9,68c0-.114.03-.231.03-.359,0-.153-.1-.223-.15-.329-.066-.132-.189-.12-.329-.12a2.631,2.631,0,0,1-.449-.06c-.147-.03-.229-.02-.329-.12s-.21-.093-.21-.27a1.516,1.516,0,0,0-.09-.3.34.34,0,0,0-.15-.24.588.588,0,0,0-.27-.03Zm44.535,1.138c-.153.022-.158.577-.329.749s-.32.2-.449.329c-.222.222-.49.43-.719.659-.2.2-.228.585-.329.839a2.8,2.8,0,0,0,0,.779c0,.254-.292.655-.389.9a.427.427,0,0,1-.21.27,2.5,2.5,0,0,1-.389.09,3.3,3.3,0,0,0-.719.24c-.171.085-.3.454-.389.629a4.086,4.086,0,0,0-.09.719,2.33,2.33,0,0,0,0,.988c.05.251.09.478.15.719a1.257,1.257,0,0,1-.09.659c-.063.252-.15.478-.21.719s.24.489.24.749a3.116,3.116,0,0,1,0,.809,1.351,1.351,0,0,0,.15.719c.109.269.256.546.3.719.03.119-.621.908-.689,1.078a5.467,5.467,0,0,1-.359.749c-.148.247.03.525.03.779s.06.556.06.839c0,.347.06.7.06,1.048,0,.311-.315.752-.389,1.048a1.381,1.381,0,0,0,.12.869c.086.171-.07.608-.12.809a4.392,4.392,0,0,0,.09,1.048v.15a10.9,10.9,0,0,0,.479,1.587c.055.278-.1.431-.15.629-.076.3.088.534.15.779a1.493,1.493,0,0,1-.15,1.078.648.648,0,0,0-.06.449,2.456,2.456,0,0,0,.15.449c.115.287.012.677.09.988a5.631,5.631,0,0,1-.03,1.048.869.869,0,0,1-.15.449.724.724,0,0,0-.03.539c.016.063.014.146.03.21a2.619,2.619,0,0,0,.719.839.528.528,0,0,1,.21.33,1.6,1.6,0,0,1,.03.389.981.981,0,0,0,.27.809c.141.141.413.121.569.329a1.946,1.946,0,0,1,.12.869,1.1,1.1,0,0,0,.09.569,2.519,2.519,0,0,0,.419.479c.079.079.16.13.24.21.188.188.222.521.419.719a3.116,3.116,0,0,0,.719.539.461.461,0,0,0,.449-.06,3.737,3.737,0,0,0,.359-.27,2.046,2.046,0,0,0,.659-.719,5.635,5.635,0,0,0,.629-1.258.57.57,0,0,1,.18-.359,2.161,2.161,0,0,1,.389-.21,1.663,1.663,0,0,0,.6-.6.619.619,0,0,1,.659-.329.786.786,0,0,1,.449.359,1.629,1.629,0,0,1,.24.479c.064.256-.2.57-.3.779-.175.35-.093.613-.329.929a5.824,5.824,0,0,0-.449.958,5.435,5.435,0,0,0-.21,1.288,5.494,5.494,0,0,1-.24.719,3.316,3.316,0,0,0-.21.958c0,.337-.352.614-.509.929-.186.373-.326.755-.479,1.138a6.214,6.214,0,0,1-.419.869,2.8,2.8,0,0,0-.329.749,3.39,3.39,0,0,1-.329.659c-.106.211-.125.429-.24.659a7.272,7.272,0,0,1-1.048,1.528,5.079,5.079,0,0,0-.869,1.048c-.105.211-.171.372-.27.569-.144.288-.336.611-.509.958-.121.243-.331.363-.449.6a2.278,2.278,0,0,0-.21.479A45.662,45.662,0,0,0,215.1,68.9c-.2.016-.555.09-.779.09a.414.414,0,0,0-.329.24,1.464,1.464,0,0,0-.15.389,1.871,1.871,0,0,0,.419,1.617c.121.121.195.239.18.329s-.106.15-.3.15a.748.748,0,0,1-.419-.09,1.753,1.753,0,0,1-.24-.24,2.448,2.448,0,0,0-.659-.509l-.659-.33c-.154-.077-.285-.51-.359-.659a1.639,1.639,0,0,1-.21-.749,1.862,1.862,0,0,0-.27-.629c-.093-.185-.221-.382-.329-.6a1.428,1.428,0,0,0-.449-.569c-.028-.021-.038-.033-.06-.03ZM153.7,92.266a.425.425,0,0,0-.12.09c-.133.133-.1.107-.329-.03a6,6,0,0,1,.749.9c.058.1.224.127.389.12a2.7,2.7,0,0,0,.419-.06c.212-.042.268-.169.24-.3a.542.542,0,0,0-.24-.33,3.2,3.2,0,0,0-.719-.3c-.233-.058-.29-.134-.389-.09Zm.539,2.007a1.285,1.285,0,0,0-.539.24c-.075.075-.013.216.06.359s.177.264.21.329c.092.184.636.24.839.24.17,0,.247-.077.27-.18a.773.773,0,0,0-.03-.33c-.047-.188-.279-.368-.389-.479s-.013-.026-.27-.18a.381.381,0,0,0-.15,0Zm-2.426,1.618a1.417,1.417,0,0,0-.988.27,9.521,9.521,0,0,1-1.138.988c.059.148.106.276.21.329a.474.474,0,0,0,.419-.03c.262-.131.436-.188.659-.3a1.4,1.4,0,0,1,.659-.21,2.985,2.985,0,0,1,.809.18,2.74,2.74,0,0,1,.6.24,2.34,2.34,0,0,1,.659.419,5.529,5.529,0,0,0,.719.419,6.39,6.39,0,0,1,.719.479,2.866,2.866,0,0,0,.569.479.68.68,0,0,0,.539.03,1.81,1.81,0,0,1,.569-.12c.168,0,.454.017.719.03s.5.013.6-.09a.693.693,0,0,0,.18-.24c.028-.089,0-.165-.18-.21-.253-.063-.476-.142-.749-.21-.377-.094-.258-.264-.569-.419a3.23,3.23,0,0,0-.869-.33,1.93,1.93,0,0,1-.9-.329c-.2-.2-.3-.557-.509-.659A4.068,4.068,0,0,0,153.5,96.1a7.474,7.474,0,0,0-1.348-.21h-.329Zm8,2.726a.659.659,0,0,0-.21.03c-.278.07-1.005,0-1.048.09s-.108.157-.15.24c-.1.193-.08.255-.03.3s.145.055.24.15a.7.7,0,0,1,.15.27.246.246,0,0,1-.12.3,6.1,6.1,0,0,0-.6.329c.079.158.16.21.509.21a3.45,3.45,0,0,1,.749.09,2.369,2.369,0,0,0,.719.09,1.832,1.832,0,0,0,.928-.449c.209-.209.212-.113.6-.21.134-.033.294-.027.389-.06s.15-.1.15-.27a.479.479,0,0,0-.449-.419,1.646,1.646,0,0,1-.689-.09c-.271-.136-.273-.368-.6-.449a3.194,3.194,0,0,0-.539-.15Zm3.414,1.048c-.094-.024-.145.113-.15.27a1.442,1.442,0,0,0,.06.389c.035.139.522.21.689.21a.959.959,0,0,0,.359-.03c.059-.035.042-.1-.03-.24-.1-.2-.16-.44-.359-.539a1.328,1.328,0,0,0-.569-.06Zm2.7.21a.376.376,0,0,0-.06.3c.017.131.085.246.3.3a1.67,1.67,0,0,0,.659,0c.111-.028.068-.118-.03-.24a1.2,1.2,0,0,0-.329-.3,1.37,1.37,0,0,0-.509-.06C165.942,99.867,165.938,99.863,165.924,99.874Zm-9.793.3c-.04,0-.11.03-.15.03a1.328,1.328,0,0,0-.659.09.617.617,0,0,0-.27.21.342.342,0,0,0,.03.329,2.79,2.79,0,0,1,.12.329c.032.07.093.106.27.15a1.117,1.117,0,0,0,.809.03.718.718,0,0,0,.3-.629c0-.289-.081-.447-.329-.509A.425.425,0,0,0,156.131,100.173Zm11.051,1.078c-.153.033-.127.263.03.419a.4.4,0,0,0,.509.06c.138-.069.085-.183-.03-.27a1.23,1.23,0,0,0-.3-.15A.364.364,0,0,0,167.182,101.251Zm.928,1.318c-.08.062-.329.267-.329.389s.122.116.27.09a1.921,1.921,0,0,0,.329-.09c.139-.069-.112-.288-.24-.389,0,0-.022,0-.03,0m.18,1.078c0,.008.024.051.03.06a.092.092,0,0,0,.03-.06A.077.077,0,0,0,168.29,103.648Zm.03.06c-.106.089-.438.314-.479.479-.035.14.585-.023.6-.03C168.579,104.087,168.412,103.853,168.32,103.708Zm1.258.329c-.014.142-.163.529-.03.629.2.147.286.105.329.03a.307.307,0,0,0,0-.27,1.459,1.459,0,0,0-.3-.389Z" transform="translate(-126.309 -39.419)" fill="#b2ebf2"/>
        </g>
      </g>
      <g id="Grupo_889387" data-name="Grupo 889387" transform="translate(-6632.904 -10995.301)">
        <g id="Grupo_889386" data-name="Grupo 889386" clip-path="url(#clip-path-16)">
          <path id="Trazado_604145" data-name="Trazado 604145" d="M90.238,74.85H59.586a.721.721,0,0,1-.721-.721V55.189a.721.721,0,0,1,.721-.721H62.7a.721.721,0,0,1,0,1.441H60.306v17.5H89.518v-17.5h-2.39a.721.721,0,1,1,0-1.441h3.11a.721.721,0,0,1,.721.721v18.94a.721.721,0,0,1-.721.721" transform="translate(-53.686 -49.675)" fill="#1565c0"/>
          <path id="Trazado_604146" data-name="Trazado 604146" d="M61.921,47.219h-36.7A.721.721,0,0,1,24.5,46.5V23.509a2.575,2.575,0,0,1,2.573-2.572h5.3a.721.721,0,0,1,0,1.441h-5.3a1.132,1.132,0,0,0-1.131,1.131V45.778H61.2V23.509a1.132,1.132,0,0,0-1.131-1.131h-5.3a.721.721,0,1,1,0-1.441h5.3a2.575,2.575,0,0,1,2.572,2.572V46.5a.721.721,0,0,1-.721.721" transform="translate(-22.345 -19.095)" fill="#1565c0"/>
          <path id="Trazado_604147" data-name="Trazado 604147" d="M39.036,310.408H3.416A3.42,3.42,0,0,1,0,306.993v-3.018a.721.721,0,0,1,.721-.721H41.732a.721.721,0,0,1,.721.721v3.018a3.42,3.42,0,0,1-3.416,3.415M1.441,304.7v2.3a1.976,1.976,0,0,0,1.975,1.974h35.62a1.976,1.976,0,0,0,1.975-1.974v-2.3Z" transform="translate(0 -276.571)" fill="#1565c0"/>
          <path id="Trazado_604148" data-name="Trazado 604148" d="M173.3,307.414H160.388a.721.721,0,0,1-.721-.721v-2.718a.721.721,0,0,1,.721-.721H173.3a.721.721,0,0,1,.721.721v2.718a.721.721,0,0,1-.721.721m-12.192-1.441H172.58V304.7H161.108Z" transform="translate(-145.618 -276.571)" fill="#1565c0"/>
          <path id="Trazado_604149" data-name="Trazado 604149" d="M124.516,22.885h-3.771a.721.721,0,0,1-.721-.721V19.678a8.527,8.527,0,0,1-1.373-.569l-1.759,1.759a.72.72,0,0,1-1.019,0L113.207,18.2a.72.72,0,0,1,0-1.019l1.759-1.759a8.56,8.56,0,0,1-.57-1.374h-2.487a.721.721,0,0,1-.721-.721V9.557a.721.721,0,0,1,.721-.721H114.4a8.55,8.55,0,0,1,.57-1.373L113.207,5.7a.72.72,0,0,1,0-1.019l2.667-2.667a.72.72,0,0,1,1.019,0l1.759,1.759a8.551,8.551,0,0,1,1.373-.57V.721A.721.721,0,0,1,120.745,0h3.771a.721.721,0,0,1,.721.721V3.208a8.533,8.533,0,0,1,1.373.57l1.76-1.759a.72.72,0,0,1,1.019,0l2.667,2.667a.72.72,0,0,1,0,1.019L130.3,7.463a8.538,8.538,0,0,1,.569,1.373h2.487a.721.721,0,0,1,.721.721v3.771a.721.721,0,0,1-.721.721h-2.487a8.55,8.55,0,0,1-.57,1.374l1.76,1.759a.72.72,0,0,1,0,1.019l-2.667,2.667a.72.72,0,0,1-1.019,0l-1.76-1.759a8.482,8.482,0,0,1-1.373.569v2.487a.721.721,0,0,1-.721.721m-3.05-1.441h2.33V19.132a.72.72,0,0,1,.549-.7,7.133,7.133,0,0,0,2.014-.835.721.721,0,0,1,.884.106l1.636,1.636,1.647-1.647-1.636-1.636a.721.721,0,0,1-.106-.883,7.174,7.174,0,0,0,.836-2.015.72.72,0,0,1,.7-.55h2.312v-2.33H130.32a.72.72,0,0,1-.7-.55,7.108,7.108,0,0,0-.836-2.014.721.721,0,0,1,.106-.884l1.636-1.636-1.647-1.648-1.636,1.636a.722.722,0,0,1-.884.106,7.159,7.159,0,0,0-2.014-.836.72.72,0,0,1-.549-.7V1.441h-2.33V3.754a.72.72,0,0,1-.55.7,7.159,7.159,0,0,0-2.015.836.721.721,0,0,1-.883-.106l-1.636-1.636-1.647,1.648,1.636,1.636a.72.72,0,0,1,.106.883,7.16,7.16,0,0,0-.836,2.015.72.72,0,0,1-.7.55h-2.312v2.33h2.312a.72.72,0,0,1,.7.55,7.171,7.171,0,0,0,.836,2.015.721.721,0,0,1-.106.883l-1.636,1.636,1.647,1.647,1.636-1.636a.721.721,0,0,1,.883-.106,7.149,7.149,0,0,0,2.015.835.72.72,0,0,1,.55.7Z" transform="translate(-101.405)" fill="#1565c0"/>
          <path id="Trazado_604150" data-name="Trazado 604150" d="M151.631,49.091a8.645,8.645,0,1,1,8.645-8.645,8.655,8.655,0,0,1-8.645,8.645m0-15.848a7.2,7.2,0,1,0,7.2,7.2,7.211,7.211,0,0,0-7.2-7.2" transform="translate(-130.405 -29.004)" fill="#1565c0"/>
        </g>
      </g>
      <g id="Grupo_889388" data-name="Grupo 889388" transform="translate(-6632.904 -10920.301)">
        <g id="Grupo_889386-2" data-name="Grupo 889386" clip-path="url(#clip-path-16)">
          <path id="Trazado_604145-2" data-name="Trazado 604145" d="M90.238,74.85H59.586a.721.721,0,0,1-.721-.721V55.189a.721.721,0,0,1,.721-.721H62.7a.721.721,0,0,1,0,1.441H60.306v17.5H89.518v-17.5h-2.39a.721.721,0,1,1,0-1.441h3.11a.721.721,0,0,1,.721.721v18.94a.721.721,0,0,1-.721.721" transform="translate(-53.686 -49.675)" fill="#1565c0"/>
          <path id="Trazado_604146-2" data-name="Trazado 604146" d="M61.921,47.219h-36.7A.721.721,0,0,1,24.5,46.5V23.509a2.575,2.575,0,0,1,2.573-2.572h5.3a.721.721,0,0,1,0,1.441h-5.3a1.132,1.132,0,0,0-1.131,1.131V45.778H61.2V23.509a1.132,1.132,0,0,0-1.131-1.131h-5.3a.721.721,0,1,1,0-1.441h5.3a2.575,2.575,0,0,1,2.572,2.572V46.5a.721.721,0,0,1-.721.721" transform="translate(-22.345 -19.095)" fill="#1565c0"/>
          <path id="Trazado_604147-2" data-name="Trazado 604147" d="M39.036,310.408H3.416A3.42,3.42,0,0,1,0,306.993v-3.018a.721.721,0,0,1,.721-.721H41.732a.721.721,0,0,1,.721.721v3.018a3.42,3.42,0,0,1-3.416,3.415M1.441,304.7v2.3a1.976,1.976,0,0,0,1.975,1.974h35.62a1.976,1.976,0,0,0,1.975-1.974v-2.3Z" transform="translate(0 -276.571)" fill="#1565c0"/>
          <path id="Trazado_604148-2" data-name="Trazado 604148" d="M173.3,307.414H160.388a.721.721,0,0,1-.721-.721v-2.718a.721.721,0,0,1,.721-.721H173.3a.721.721,0,0,1,.721.721v2.718a.721.721,0,0,1-.721.721m-12.192-1.441H172.58V304.7H161.108Z" transform="translate(-145.618 -276.571)" fill="#1565c0"/>
          <path id="Trazado_604149-2" data-name="Trazado 604149" d="M124.516,22.885h-3.771a.721.721,0,0,1-.721-.721V19.678a8.527,8.527,0,0,1-1.373-.569l-1.759,1.759a.72.72,0,0,1-1.019,0L113.207,18.2a.72.72,0,0,1,0-1.019l1.759-1.759a8.56,8.56,0,0,1-.57-1.374h-2.487a.721.721,0,0,1-.721-.721V9.557a.721.721,0,0,1,.721-.721H114.4a8.55,8.55,0,0,1,.57-1.373L113.207,5.7a.72.72,0,0,1,0-1.019l2.667-2.667a.72.72,0,0,1,1.019,0l1.759,1.759a8.551,8.551,0,0,1,1.373-.57V.721A.721.721,0,0,1,120.745,0h3.771a.721.721,0,0,1,.721.721V3.208a8.533,8.533,0,0,1,1.373.57l1.76-1.759a.72.72,0,0,1,1.019,0l2.667,2.667a.72.72,0,0,1,0,1.019L130.3,7.463a8.538,8.538,0,0,1,.569,1.373h2.487a.721.721,0,0,1,.721.721v3.771a.721.721,0,0,1-.721.721h-2.487a8.55,8.55,0,0,1-.57,1.374l1.76,1.759a.72.72,0,0,1,0,1.019l-2.667,2.667a.72.72,0,0,1-1.019,0l-1.76-1.759a8.482,8.482,0,0,1-1.373.569v2.487a.721.721,0,0,1-.721.721m-3.05-1.441h2.33V19.132a.72.72,0,0,1,.549-.7,7.133,7.133,0,0,0,2.014-.835.721.721,0,0,1,.884.106l1.636,1.636,1.647-1.647-1.636-1.636a.721.721,0,0,1-.106-.883,7.174,7.174,0,0,0,.836-2.015.72.72,0,0,1,.7-.55h2.312v-2.33H130.32a.72.72,0,0,1-.7-.55,7.108,7.108,0,0,0-.836-2.014.721.721,0,0,1,.106-.884l1.636-1.636-1.647-1.648-1.636,1.636a.722.722,0,0,1-.884.106,7.159,7.159,0,0,0-2.014-.836.72.72,0,0,1-.549-.7V1.441h-2.33V3.754a.72.72,0,0,1-.55.7,7.159,7.159,0,0,0-2.015.836.721.721,0,0,1-.883-.106l-1.636-1.636-1.647,1.648,1.636,1.636a.72.72,0,0,1,.106.883,7.16,7.16,0,0,0-.836,2.015.72.72,0,0,1-.7.55h-2.312v2.33h2.312a.72.72,0,0,1,.7.55,7.171,7.171,0,0,0,.836,2.015.721.721,0,0,1-.106.883l-1.636,1.636,1.647,1.647,1.636-1.636a.721.721,0,0,1,.883-.106,7.149,7.149,0,0,0,2.015.835.72.72,0,0,1,.55.7Z" transform="translate(-101.405)" fill="#1565c0"/>
          <path id="Trazado_604150-2" data-name="Trazado 604150" d="M151.631,49.091a8.645,8.645,0,1,1,8.645-8.645,8.655,8.655,0,0,1-8.645,8.645m0-15.848a7.2,7.2,0,1,0,7.2,7.2,7.211,7.211,0,0,0-7.2-7.2" transform="translate(-130.405 -29.004)" fill="#1565c0"/>
        </g>
      </g>
      <g id="Grupo_889389" data-name="Grupo 889389" transform="translate(-6545.025 -10886.464)">
        <g id="Grupo_889386-3" data-name="Grupo 889386" clip-path="url(#clip-path-16)">
          <path id="Trazado_604145-3" data-name="Trazado 604145" d="M90.238,74.85H59.586a.721.721,0,0,1-.721-.721V55.189a.721.721,0,0,1,.721-.721H62.7a.721.721,0,0,1,0,1.441H60.306v17.5H89.518v-17.5h-2.39a.721.721,0,1,1,0-1.441h3.11a.721.721,0,0,1,.721.721v18.94a.721.721,0,0,1-.721.721" transform="translate(-53.686 -49.675)" fill="#1565c0"/>
          <path id="Trazado_604146-3" data-name="Trazado 604146" d="M61.921,47.219h-36.7A.721.721,0,0,1,24.5,46.5V23.509a2.575,2.575,0,0,1,2.573-2.572h5.3a.721.721,0,0,1,0,1.441h-5.3a1.132,1.132,0,0,0-1.131,1.131V45.778H61.2V23.509a1.132,1.132,0,0,0-1.131-1.131h-5.3a.721.721,0,1,1,0-1.441h5.3a2.575,2.575,0,0,1,2.572,2.572V46.5a.721.721,0,0,1-.721.721" transform="translate(-22.345 -19.095)" fill="#1565c0"/>
          <path id="Trazado_604147-3" data-name="Trazado 604147" d="M39.036,310.408H3.416A3.42,3.42,0,0,1,0,306.993v-3.018a.721.721,0,0,1,.721-.721H41.732a.721.721,0,0,1,.721.721v3.018a3.42,3.42,0,0,1-3.416,3.415M1.441,304.7v2.3a1.976,1.976,0,0,0,1.975,1.974h35.62a1.976,1.976,0,0,0,1.975-1.974v-2.3Z" transform="translate(0 -276.571)" fill="#1565c0"/>
          <path id="Trazado_604148-3" data-name="Trazado 604148" d="M173.3,307.414H160.388a.721.721,0,0,1-.721-.721v-2.718a.721.721,0,0,1,.721-.721H173.3a.721.721,0,0,1,.721.721v2.718a.721.721,0,0,1-.721.721m-12.192-1.441H172.58V304.7H161.108Z" transform="translate(-145.618 -276.571)" fill="#1565c0"/>
          <path id="Trazado_604149-3" data-name="Trazado 604149" d="M124.516,22.885h-3.771a.721.721,0,0,1-.721-.721V19.678a8.527,8.527,0,0,1-1.373-.569l-1.759,1.759a.72.72,0,0,1-1.019,0L113.207,18.2a.72.72,0,0,1,0-1.019l1.759-1.759a8.56,8.56,0,0,1-.57-1.374h-2.487a.721.721,0,0,1-.721-.721V9.557a.721.721,0,0,1,.721-.721H114.4a8.55,8.55,0,0,1,.57-1.373L113.207,5.7a.72.72,0,0,1,0-1.019l2.667-2.667a.72.72,0,0,1,1.019,0l1.759,1.759a8.551,8.551,0,0,1,1.373-.57V.721A.721.721,0,0,1,120.745,0h3.771a.721.721,0,0,1,.721.721V3.208a8.533,8.533,0,0,1,1.373.57l1.76-1.759a.72.72,0,0,1,1.019,0l2.667,2.667a.72.72,0,0,1,0,1.019L130.3,7.463a8.538,8.538,0,0,1,.569,1.373h2.487a.721.721,0,0,1,.721.721v3.771a.721.721,0,0,1-.721.721h-2.487a8.55,8.55,0,0,1-.57,1.374l1.76,1.759a.72.72,0,0,1,0,1.019l-2.667,2.667a.72.72,0,0,1-1.019,0l-1.76-1.759a8.482,8.482,0,0,1-1.373.569v2.487a.721.721,0,0,1-.721.721m-3.05-1.441h2.33V19.132a.72.72,0,0,1,.549-.7,7.133,7.133,0,0,0,2.014-.835.721.721,0,0,1,.884.106l1.636,1.636,1.647-1.647-1.636-1.636a.721.721,0,0,1-.106-.883,7.174,7.174,0,0,0,.836-2.015.72.72,0,0,1,.7-.55h2.312v-2.33H130.32a.72.72,0,0,1-.7-.55,7.108,7.108,0,0,0-.836-2.014.721.721,0,0,1,.106-.884l1.636-1.636-1.647-1.648-1.636,1.636a.722.722,0,0,1-.884.106,7.159,7.159,0,0,0-2.014-.836.72.72,0,0,1-.549-.7V1.441h-2.33V3.754a.72.72,0,0,1-.55.7,7.159,7.159,0,0,0-2.015.836.721.721,0,0,1-.883-.106l-1.636-1.636-1.647,1.648,1.636,1.636a.72.72,0,0,1,.106.883,7.16,7.16,0,0,0-.836,2.015.72.72,0,0,1-.7.55h-2.312v2.33h2.312a.72.72,0,0,1,.7.55,7.171,7.171,0,0,0,.836,2.015.721.721,0,0,1-.106.883l-1.636,1.636,1.647,1.647,1.636-1.636a.721.721,0,0,1,.883-.106,7.149,7.149,0,0,0,2.015.835.72.72,0,0,1,.55.7Z" transform="translate(-101.405)" fill="#1565c0"/>
          <path id="Trazado_604150-3" data-name="Trazado 604150" d="M151.631,49.091a8.645,8.645,0,1,1,8.645-8.645,8.655,8.655,0,0,1-8.645,8.645m0-15.848a7.2,7.2,0,1,0,7.2,7.2,7.211,7.211,0,0,0-7.2-7.2" transform="translate(-130.405 -29.004)" fill="#1565c0"/>
        </g>
      </g>
      <g id="Grupo_889390" data-name="Grupo 889390" transform="translate(-6455.4 -10995.301)">
        <g id="Grupo_889386-4" data-name="Grupo 889386" clip-path="url(#clip-path-16)">
          <path id="Trazado_604145-4" data-name="Trazado 604145" d="M90.238,74.85H59.586a.721.721,0,0,1-.721-.721V55.189a.721.721,0,0,1,.721-.721H62.7a.721.721,0,0,1,0,1.441H60.306v17.5H89.518v-17.5h-2.39a.721.721,0,1,1,0-1.441h3.11a.721.721,0,0,1,.721.721v18.94a.721.721,0,0,1-.721.721" transform="translate(-53.686 -49.675)" fill="#1565c0"/>
          <path id="Trazado_604146-4" data-name="Trazado 604146" d="M61.921,47.219h-36.7A.721.721,0,0,1,24.5,46.5V23.509a2.575,2.575,0,0,1,2.573-2.572h5.3a.721.721,0,0,1,0,1.441h-5.3a1.132,1.132,0,0,0-1.131,1.131V45.778H61.2V23.509a1.132,1.132,0,0,0-1.131-1.131h-5.3a.721.721,0,1,1,0-1.441h5.3a2.575,2.575,0,0,1,2.572,2.572V46.5a.721.721,0,0,1-.721.721" transform="translate(-22.345 -19.095)" fill="#1565c0"/>
          <path id="Trazado_604147-4" data-name="Trazado 604147" d="M39.036,310.408H3.416A3.42,3.42,0,0,1,0,306.993v-3.018a.721.721,0,0,1,.721-.721H41.732a.721.721,0,0,1,.721.721v3.018a3.42,3.42,0,0,1-3.416,3.415M1.441,304.7v2.3a1.976,1.976,0,0,0,1.975,1.974h35.62a1.976,1.976,0,0,0,1.975-1.974v-2.3Z" transform="translate(0 -276.571)" fill="#1565c0"/>
          <path id="Trazado_604148-4" data-name="Trazado 604148" d="M173.3,307.414H160.388a.721.721,0,0,1-.721-.721v-2.718a.721.721,0,0,1,.721-.721H173.3a.721.721,0,0,1,.721.721v2.718a.721.721,0,0,1-.721.721m-12.192-1.441H172.58V304.7H161.108Z" transform="translate(-145.618 -276.571)" fill="#1565c0"/>
          <path id="Trazado_604149-4" data-name="Trazado 604149" d="M124.516,22.885h-3.771a.721.721,0,0,1-.721-.721V19.678a8.527,8.527,0,0,1-1.373-.569l-1.759,1.759a.72.72,0,0,1-1.019,0L113.207,18.2a.72.72,0,0,1,0-1.019l1.759-1.759a8.56,8.56,0,0,1-.57-1.374h-2.487a.721.721,0,0,1-.721-.721V9.557a.721.721,0,0,1,.721-.721H114.4a8.55,8.55,0,0,1,.57-1.373L113.207,5.7a.72.72,0,0,1,0-1.019l2.667-2.667a.72.72,0,0,1,1.019,0l1.759,1.759a8.551,8.551,0,0,1,1.373-.57V.721A.721.721,0,0,1,120.745,0h3.771a.721.721,0,0,1,.721.721V3.208a8.533,8.533,0,0,1,1.373.57l1.76-1.759a.72.72,0,0,1,1.019,0l2.667,2.667a.72.72,0,0,1,0,1.019L130.3,7.463a8.538,8.538,0,0,1,.569,1.373h2.487a.721.721,0,0,1,.721.721v3.771a.721.721,0,0,1-.721.721h-2.487a8.55,8.55,0,0,1-.57,1.374l1.76,1.759a.72.72,0,0,1,0,1.019l-2.667,2.667a.72.72,0,0,1-1.019,0l-1.76-1.759a8.482,8.482,0,0,1-1.373.569v2.487a.721.721,0,0,1-.721.721m-3.05-1.441h2.33V19.132a.72.72,0,0,1,.549-.7,7.133,7.133,0,0,0,2.014-.835.721.721,0,0,1,.884.106l1.636,1.636,1.647-1.647-1.636-1.636a.721.721,0,0,1-.106-.883,7.174,7.174,0,0,0,.836-2.015.72.72,0,0,1,.7-.55h2.312v-2.33H130.32a.72.72,0,0,1-.7-.55,7.108,7.108,0,0,0-.836-2.014.721.721,0,0,1,.106-.884l1.636-1.636-1.647-1.648-1.636,1.636a.722.722,0,0,1-.884.106,7.159,7.159,0,0,0-2.014-.836.72.72,0,0,1-.549-.7V1.441h-2.33V3.754a.72.72,0,0,1-.55.7,7.159,7.159,0,0,0-2.015.836.721.721,0,0,1-.883-.106l-1.636-1.636-1.647,1.648,1.636,1.636a.72.72,0,0,1,.106.883,7.16,7.16,0,0,0-.836,2.015.72.72,0,0,1-.7.55h-2.312v2.33h2.312a.72.72,0,0,1,.7.55,7.171,7.171,0,0,0,.836,2.015.721.721,0,0,1-.106.883l-1.636,1.636,1.647,1.647,1.636-1.636a.721.721,0,0,1,.883-.106,7.149,7.149,0,0,0,2.015.835.72.72,0,0,1,.55.7Z" transform="translate(-101.405)" fill="#1565c0"/>
          <path id="Trazado_604150-4" data-name="Trazado 604150" d="M151.631,49.091a8.645,8.645,0,1,1,8.645-8.645,8.655,8.655,0,0,1-8.645,8.645m0-15.848a7.2,7.2,0,1,0,7.2,7.2,7.211,7.211,0,0,0-7.2-7.2" transform="translate(-130.405 -29.004)" fill="#1565c0"/>
        </g>
      </g>
      <g id="Grupo_889391" data-name="Grupo 889391" transform="translate(-6455.4 -10920.301)">
        <g id="Grupo_889386-5" data-name="Grupo 889386" clip-path="url(#clip-path-16)">
          <path id="Trazado_604145-5" data-name="Trazado 604145" d="M90.238,74.85H59.586a.721.721,0,0,1-.721-.721V55.189a.721.721,0,0,1,.721-.721H62.7a.721.721,0,0,1,0,1.441H60.306v17.5H89.518v-17.5h-2.39a.721.721,0,1,1,0-1.441h3.11a.721.721,0,0,1,.721.721v18.94a.721.721,0,0,1-.721.721" transform="translate(-53.686 -49.675)" fill="#1565c0"/>
          <path id="Trazado_604146-5" data-name="Trazado 604146" d="M61.921,47.219h-36.7A.721.721,0,0,1,24.5,46.5V23.509a2.575,2.575,0,0,1,2.573-2.572h5.3a.721.721,0,0,1,0,1.441h-5.3a1.132,1.132,0,0,0-1.131,1.131V45.778H61.2V23.509a1.132,1.132,0,0,0-1.131-1.131h-5.3a.721.721,0,1,1,0-1.441h5.3a2.575,2.575,0,0,1,2.572,2.572V46.5a.721.721,0,0,1-.721.721" transform="translate(-22.345 -19.095)" fill="#1565c0"/>
          <path id="Trazado_604147-5" data-name="Trazado 604147" d="M39.036,310.408H3.416A3.42,3.42,0,0,1,0,306.993v-3.018a.721.721,0,0,1,.721-.721H41.732a.721.721,0,0,1,.721.721v3.018a3.42,3.42,0,0,1-3.416,3.415M1.441,304.7v2.3a1.976,1.976,0,0,0,1.975,1.974h35.62a1.976,1.976,0,0,0,1.975-1.974v-2.3Z" transform="translate(0 -276.571)" fill="#1565c0"/>
          <path id="Trazado_604148-5" data-name="Trazado 604148" d="M173.3,307.414H160.388a.721.721,0,0,1-.721-.721v-2.718a.721.721,0,0,1,.721-.721H173.3a.721.721,0,0,1,.721.721v2.718a.721.721,0,0,1-.721.721m-12.192-1.441H172.58V304.7H161.108Z" transform="translate(-145.618 -276.571)" fill="#1565c0"/>
          <path id="Trazado_604149-5" data-name="Trazado 604149" d="M124.516,22.885h-3.771a.721.721,0,0,1-.721-.721V19.678a8.527,8.527,0,0,1-1.373-.569l-1.759,1.759a.72.72,0,0,1-1.019,0L113.207,18.2a.72.72,0,0,1,0-1.019l1.759-1.759a8.56,8.56,0,0,1-.57-1.374h-2.487a.721.721,0,0,1-.721-.721V9.557a.721.721,0,0,1,.721-.721H114.4a8.55,8.55,0,0,1,.57-1.373L113.207,5.7a.72.72,0,0,1,0-1.019l2.667-2.667a.72.72,0,0,1,1.019,0l1.759,1.759a8.551,8.551,0,0,1,1.373-.57V.721A.721.721,0,0,1,120.745,0h3.771a.721.721,0,0,1,.721.721V3.208a8.533,8.533,0,0,1,1.373.57l1.76-1.759a.72.72,0,0,1,1.019,0l2.667,2.667a.72.72,0,0,1,0,1.019L130.3,7.463a8.538,8.538,0,0,1,.569,1.373h2.487a.721.721,0,0,1,.721.721v3.771a.721.721,0,0,1-.721.721h-2.487a8.55,8.55,0,0,1-.57,1.374l1.76,1.759a.72.72,0,0,1,0,1.019l-2.667,2.667a.72.72,0,0,1-1.019,0l-1.76-1.759a8.482,8.482,0,0,1-1.373.569v2.487a.721.721,0,0,1-.721.721m-3.05-1.441h2.33V19.132a.72.72,0,0,1,.549-.7,7.133,7.133,0,0,0,2.014-.835.721.721,0,0,1,.884.106l1.636,1.636,1.647-1.647-1.636-1.636a.721.721,0,0,1-.106-.883,7.174,7.174,0,0,0,.836-2.015.72.72,0,0,1,.7-.55h2.312v-2.33H130.32a.72.72,0,0,1-.7-.55,7.108,7.108,0,0,0-.836-2.014.721.721,0,0,1,.106-.884l1.636-1.636-1.647-1.648-1.636,1.636a.722.722,0,0,1-.884.106,7.159,7.159,0,0,0-2.014-.836.72.72,0,0,1-.549-.7V1.441h-2.33V3.754a.72.72,0,0,1-.55.7,7.159,7.159,0,0,0-2.015.836.721.721,0,0,1-.883-.106l-1.636-1.636-1.647,1.648,1.636,1.636a.72.72,0,0,1,.106.883,7.16,7.16,0,0,0-.836,2.015.72.72,0,0,1-.7.55h-2.312v2.33h2.312a.72.72,0,0,1,.7.55,7.171,7.171,0,0,0,.836,2.015.721.721,0,0,1-.106.883l-1.636,1.636,1.647,1.647,1.636-1.636a.721.721,0,0,1,.883-.106,7.149,7.149,0,0,0,2.015.835.72.72,0,0,1,.55.7Z" transform="translate(-101.405)" fill="#1565c0"/>
          <path id="Trazado_604150-5" data-name="Trazado 604150" d="M151.631,49.091a8.645,8.645,0,1,1,8.645-8.645,8.655,8.655,0,0,1-8.645,8.645m0-15.848a7.2,7.2,0,1,0,7.2,7.2,7.211,7.211,0,0,0-7.2-7.2" transform="translate(-130.405 -29.004)" fill="#1565c0"/>
        </g>
      </g>
      <path id="Trazado_604151" data-name="Trazado 604151" d="M-6575.611-10978.383H-6588.3" transform="translate(1 2)" fill="none" stroke="#1565c0" stroke-width="1"/>
      <path id="Trazado_604152" data-name="Trazado 604152" d="M-6554.294-10978.383H-6588.3" transform="translate(5017.148 -5489.553) rotate(-34)" fill="none" stroke="#1565c0" stroke-width="1"/>
      <path id="Trazado_604153" data-name="Trazado 604153" d="M34.006,0H0" transform="translate(-6463.766 -10906.914) rotate(-146)" fill="none" stroke="#1565c0" stroke-width="1"/>
      <path id="Trazado_604154" data-name="Trazado 604154" d="M-6523.8-10909.82v17.264" transform="translate(0 -4)" fill="none" stroke="#1565c0" stroke-width="1"/>
      <path id="Trazado_604155" data-name="Trazado 604155" d="M-6575.611-10978.383H-6588.3" transform="translate(113.591 2)" fill="none" stroke="#1565c0" stroke-width="1"/>
      <path id="Trazado_604156" data-name="Trazado 604156" d="M-6599.721-11082.528h29.984" transform="translate(0 24)" fill="none" stroke="#1565c0" stroke-width="1"/>
      <g id="Grupo_889392" data-name="Grupo 889392" transform="translate(-6544.865 -11123.827)">
        <g id="Grupo_887394" data-name="Grupo 887394">
          <g id="Grupo_887393" data-name="Grupo 887393" clip-path="url(#clip-path-21)">
            <rect id="Rectángulo_298128" data-name="Rectángulo 298128" width="38.73" height="45.954" transform="translate(0)" fill="#26aab7"/>
          </g>
        </g>
        <g id="Grupo_887396" data-name="Grupo 887396" transform="translate(28.458 2.997)">
          <g id="Grupo_887395" data-name="Grupo 887395" clip-path="url(#clip-path-22)">
            <rect id="Rectángulo_298129" data-name="Rectángulo 298129" width="5.994" height="5.994" transform="translate(0 0)" fill="#1565c0"/>
          </g>
        </g>
        <g id="Grupo_887398" data-name="Grupo 887398" transform="translate(4.252 3.765)">
          <g id="Grupo_887397" data-name="Grupo 887397" clip-path="url(#clip-path-23)">
            <rect id="Rectángulo_298130" data-name="Rectángulo 298130" width="1.229" height="5.226" transform="translate(0 0)" fill="#1565c0"/>
          </g>
        </g>
        <g id="Grupo_887400" data-name="Grupo 887400" transform="translate(7.224 3.765)">
          <g id="Grupo_887399" data-name="Grupo 887399" clip-path="url(#clip-path-24)">
            <rect id="Rectángulo_298131" data-name="Rectángulo 298131" width="1.23" height="5.226" transform="translate(0 0)" fill="#1565c0"/>
          </g>
        </g>
        <g id="Grupo_887402" data-name="Grupo 887402" transform="translate(10.195 3.765)">
          <g id="Grupo_887401" data-name="Grupo 887401" clip-path="url(#clip-path-25)">
            <rect id="Rectángulo_298132" data-name="Rectángulo 298132" width="1.23" height="5.226" transform="translate(0 0)" fill="#1565c0"/>
          </g>
        </g>
        <g id="Grupo_887404" data-name="Grupo 887404" transform="translate(13.166 3.765)">
          <g id="Grupo_887403" data-name="Grupo 887403" clip-path="url(#clip-path-26)">
            <rect id="Rectángulo_298133" data-name="Rectángulo 298133" width="1.23" height="5.226" transform="translate(0 0)" fill="#1565c0"/>
          </g>
        </g>
        <g id="Grupo_887406" data-name="Grupo 887406" transform="translate(16.138 3.765)">
          <g id="Grupo_887405" data-name="Grupo 887405" clip-path="url(#clip-path-27)">
            <rect id="Rectángulo_298134" data-name="Rectángulo 298134" width="1.229" height="5.226" transform="translate(0 0)" fill="#1565c0"/>
          </g>
        </g>
        <g id="Grupo_887408" data-name="Grupo 887408" transform="translate(19.275 5.725)">
          <g id="Grupo_887407" data-name="Grupo 887407" clip-path="url(#clip-path-28)">
            <rect id="Rectángulo_298135" data-name="Rectángulo 298135" width="1.998" height="1.998" fill="#1565c0"/>
          </g>
        </g>
        <g id="Grupo_887410" data-name="Grupo 887410" transform="translate(22.08 5.725)">
          <g id="Grupo_887409" data-name="Grupo 887409" clip-path="url(#clip-path-28)">
            <rect id="Rectángulo_298137" data-name="Rectángulo 298137" width="1.998" height="1.998" fill="#1565c0"/>
          </g>
        </g>
        <g id="Grupo_887412" data-name="Grupo 887412" transform="translate(24.885 5.725)">
          <g id="Grupo_887411" data-name="Grupo 887411" clip-path="url(#clip-path-28)">
            <rect id="Rectángulo_298139" data-name="Rectángulo 298139" width="1.998" height="1.998" fill="#1565c0"/>
          </g>
        </g>
        <g id="Grupo_887414" data-name="Grupo 887414" transform="translate(28.458 17.905)">
          <g id="Grupo_887413" data-name="Grupo 887413" clip-path="url(#clip-path-31)">
            <rect id="Rectángulo_298141" data-name="Rectángulo 298141" width="5.994" height="5.994" transform="translate(0 0)" fill="#1565c0"/>
          </g>
        </g>
        <g id="Grupo_887416" data-name="Grupo 887416" transform="translate(4.252 18.674)">
          <g id="Grupo_887415" data-name="Grupo 887415" clip-path="url(#clip-path-32)">
            <rect id="Rectángulo_298142" data-name="Rectángulo 298142" width="1.229" height="5.225" transform="translate(0 0)" fill="#1565c0"/>
          </g>
        </g>
        <g id="Grupo_887418" data-name="Grupo 887418" transform="translate(7.224 18.674)">
          <g id="Grupo_887417" data-name="Grupo 887417" clip-path="url(#clip-path-33)">
            <rect id="Rectángulo_298143" data-name="Rectángulo 298143" width="1.23" height="5.225" transform="translate(0 0)" fill="#1565c0"/>
          </g>
        </g>
        <g id="Grupo_887420" data-name="Grupo 887420" transform="translate(10.195 18.674)">
          <g id="Grupo_887419" data-name="Grupo 887419" clip-path="url(#clip-path-34)">
            <rect id="Rectángulo_298144" data-name="Rectángulo 298144" width="1.23" height="5.225" transform="translate(0 0)" fill="#1565c0"/>
          </g>
        </g>
        <g id="Grupo_887422" data-name="Grupo 887422" transform="translate(13.166 18.674)">
          <g id="Grupo_887421" data-name="Grupo 887421" clip-path="url(#clip-path-35)">
            <rect id="Rectángulo_298145" data-name="Rectángulo 298145" width="1.23" height="5.225" transform="translate(0 0)" fill="#1565c0"/>
          </g>
        </g>
        <g id="Grupo_887424" data-name="Grupo 887424" transform="translate(16.138 18.674)">
          <g id="Grupo_887423" data-name="Grupo 887423" clip-path="url(#clip-path-36)">
            <rect id="Rectángulo_298146" data-name="Rectángulo 298146" width="1.229" height="5.225" transform="translate(0 0)" fill="#1565c0"/>
          </g>
        </g>
        <g id="Grupo_887426" data-name="Grupo 887426" transform="translate(19.275 20.633)">
          <g id="Grupo_887425" data-name="Grupo 887425" clip-path="url(#clip-path-28)">
            <rect id="Rectángulo_298147" data-name="Rectángulo 298147" width="1.998" height="1.998" transform="translate(0 0)" fill="#1565c0"/>
          </g>
        </g>
        <g id="Grupo_887428" data-name="Grupo 887428" transform="translate(22.08 20.633)">
          <g id="Grupo_887427" data-name="Grupo 887427" clip-path="url(#clip-path-28)">
            <rect id="Rectángulo_298149" data-name="Rectángulo 298149" width="1.998" height="1.998" transform="translate(0 0)" fill="#1565c0"/>
          </g>
        </g>
        <g id="Grupo_887430" data-name="Grupo 887430" transform="translate(24.885 20.633)">
          <g id="Grupo_887429" data-name="Grupo 887429" clip-path="url(#clip-path-28)">
            <rect id="Rectángulo_298151" data-name="Rectángulo 298151" width="1.998" height="1.998" transform="translate(0 0)" fill="#1565c0"/>
          </g>
        </g>
        <g id="Grupo_887432" data-name="Grupo 887432" transform="translate(28.458 32.813)">
          <g id="Grupo_887431" data-name="Grupo 887431" clip-path="url(#clip-path-40)">
            <rect id="Rectángulo_298153" data-name="Rectángulo 298153" width="5.994" height="5.994" transform="translate(0 0)" fill="#1565c0"/>
          </g>
        </g>
        <g id="Grupo_887434" data-name="Grupo 887434" transform="translate(4.252 33.582)">
          <g id="Grupo_887433" data-name="Grupo 887433" clip-path="url(#clip-path-41)">
            <rect id="Rectángulo_298154" data-name="Rectángulo 298154" width="1.229" height="5.226" transform="translate(0 0)" fill="#1565c0"/>
          </g>
        </g>
        <g id="Grupo_887436" data-name="Grupo 887436" transform="translate(7.224 33.582)">
          <g id="Grupo_887435" data-name="Grupo 887435" clip-path="url(#clip-path-42)">
            <rect id="Rectángulo_298155" data-name="Rectángulo 298155" width="1.23" height="5.226" transform="translate(0 0)" fill="#1565c0"/>
          </g>
        </g>
        <g id="Grupo_887438" data-name="Grupo 887438" transform="translate(10.195 33.582)">
          <g id="Grupo_887437" data-name="Grupo 887437" clip-path="url(#clip-path-43)">
            <rect id="Rectángulo_298156" data-name="Rectángulo 298156" width="1.23" height="5.226" transform="translate(0 0)" fill="#1565c0"/>
          </g>
        </g>
        <g id="Grupo_887440" data-name="Grupo 887440" transform="translate(13.166 33.582)">
          <g id="Grupo_887439" data-name="Grupo 887439" clip-path="url(#clip-path-44)">
            <rect id="Rectángulo_298157" data-name="Rectángulo 298157" width="1.23" height="5.226" transform="translate(0 0)" fill="#1565c0"/>
          </g>
        </g>
        <g id="Grupo_887442" data-name="Grupo 887442" transform="translate(16.138 33.582)">
          <g id="Grupo_887441" data-name="Grupo 887441" clip-path="url(#clip-path-45)">
            <rect id="Rectángulo_298158" data-name="Rectángulo 298158" width="1.229" height="5.226" transform="translate(0 0)" fill="#1565c0"/>
          </g>
        </g>
        <g id="Grupo_887444" data-name="Grupo 887444" transform="translate(19.275 35.541)">
          <g id="Grupo_887443" data-name="Grupo 887443" clip-path="url(#clip-path-28)">
            <rect id="Rectángulo_298159" data-name="Rectángulo 298159" width="1.998" height="1.998" fill="#1565c0"/>
          </g>
        </g>
        <g id="Grupo_887446" data-name="Grupo 887446" transform="translate(22.08 35.541)">
          <g id="Grupo_887445" data-name="Grupo 887445" clip-path="url(#clip-path-28)">
            <rect id="Rectángulo_298161" data-name="Rectángulo 298161" width="1.998" height="1.998" fill="#1565c0"/>
          </g>
        </g>
        <g id="Grupo_887448" data-name="Grupo 887448" transform="translate(24.885 35.541)">
          <g id="Grupo_887447" data-name="Grupo 887447" clip-path="url(#clip-path-28)">
            <rect id="Rectángulo_298163" data-name="Rectángulo 298163" width="1.998" height="1.998" fill="#1565c0"/>
          </g>
        </g>
        <g id="Grupo_887450" data-name="Grupo 887450" transform="translate(5.405 43.879)">
          <g id="Grupo_887449" data-name="Grupo 887449" clip-path="url(#clip-path-49)">
            <rect id="Rectángulo_298165" data-name="Rectángulo 298165" width="27.357" height="1.23" transform="translate(0)" fill="#fb8c00"/>
          </g>
        </g>
      </g>
      <g id="Grupo_889393" data-name="Grupo 889393" transform="translate(0 -18)">
        <rect id="Rectángulo_300963" data-name="Rectángulo 300963" width="25" height="12" transform="translate(-6564 -11040)" fill="#26aab7"/>
        <rect id="Rectángulo_300964" data-name="Rectángulo 300964" width="25" height="12" transform="translate(-6538 -11040)" fill="#1565c0"/>
        <rect id="Rectángulo_300965" data-name="Rectángulo 300965" width="25" height="12" transform="translate(-6512 -11040)" fill="#26aab7"/>
        <rect id="Rectángulo_300966" data-name="Rectángulo 300966" width="25" height="12" transform="translate(-6550 -11053)" fill="#26aab7"/>
        <rect id="Rectángulo_300967" data-name="Rectángulo 300967" width="25" height="12" transform="translate(-6524 -11053)" fill="#1565c0"/>
      </g>
      <path id="Trazado_604157" data-name="Trazado 604157" d="M-6599.721-11082.528h29.984" transform="translate(121 24)" fill="none" stroke="#1565c0" stroke-width="1"/>
    </g>
    <rect id="Rectángulo_302249" data-name="Rectángulo 302249" width="465" height="297" transform="translate(-6732 -11577)" fill="none"/>
  </g>
</svg>
