<svg xmlns="http://www.w3.org/2000/svg" xmlns:xlink="http://www.w3.org/1999/xlink" width="505" height="279" viewBox="0 0 505 279">
  <defs>
    <clipPath id="clip-path">
      <path id="Trazado_601329" data-name="Trazado 601329" d="M202.008,55.544V52.1a3.074,3.074,0,1,1,6.147,0v3.448a3.074,3.074,0,1,1-6.147,0M197.659,1.8H212.5V38.836H197.659Zm-.9-1.8a.9.9,0,0,0-.9.9V39.736a.9.9,0,0,0,.9.9h7.422v6.674a4.878,4.878,0,0,0-3.973,4.786v3.448a4.873,4.873,0,1,0,9.746,0V52.1a4.879,4.879,0,0,0-3.974-4.787V40.635H213.4a.9.9,0,0,0,.9-.9V.9a.9.9,0,0,0-.9-.9Z" transform="translate(-195.86 0)" fill="#1565c0"/>
    </clipPath>
    <clipPath id="clip-path-2">
      <path id="Trazado_601330" data-name="Trazado 601330" d="M18.984,18.987H51.973V38.93H18.984Zm-.9-1.8a.9.9,0,0,0-.9.9V39.829a.9.9,0,0,0,.9.9H52.872a.9.9,0,0,0,.9-.9V18.088a.9.9,0,0,0-.9-.9Z" transform="translate(-17.185 -17.188)" fill="#1565c0"/>
    </clipPath>
    <clipPath id="clip-path-3">
      <path id="Trazado_601331" data-name="Trazado 601331" d="M1.8,40.336H43.484V58.928H1.8Zm15.294-7.647h11.1v5.772h-11.1ZM1.8,1.8H43.484v29.09H1.8ZM.9,0A.9.9,0,0,0,0,.9V31.789a.9.9,0,0,0,.9.9H15.295v5.848H.9a.9.9,0,0,0-.9.9V59.828a.9.9,0,0,0,.9.9H44.384a.9.9,0,0,0,.9-.9V39.436a.9.9,0,0,0-.9-.9H29.989V32.689H44.384a.9.9,0,0,0,.9-.9V.9a.9.9,0,0,0-.9-.9Z" fill="#1565c0"/>
    </clipPath>
    <clipPath id="clip-path-4">
      <path id="Trazado_601332" data-name="Trazado 601332" d="M61.347,208.6a.9.9,0,0,0,0,1.8H74.242a.9.9,0,1,0,0-1.8Z" transform="translate(-60.448 -208.604)" fill="#fb8c00"/>
    </clipPath>
    <clipPath id="clip-path-5">
      <path id="Trazado_601333" data-name="Trazado 601333" d="M214.847,18.987h6.147v2.7h-6.147Zm-.9-1.8a.9.9,0,0,0-.9.9v4.5a.9.9,0,0,0,.9.9h7.947a.9.9,0,0,0,.9-.9v-4.5a.9.9,0,0,0-.9-.9Z" transform="translate(-213.048 -17.188)" fill="#1565c0"/>
    </clipPath>
    <clipPath id="clip-path-6">
      <path id="Trazado_601335" data-name="Trazado 601335" d="M216.031,109.172a2.774,2.774,0,1,1,2.774,2.774,2.777,2.777,0,0,1-2.774-2.774m-1.8,0a4.574,4.574,0,1,0,4.573-4.573,4.578,4.578,0,0,0-4.573,4.573" transform="translate(-214.232 -104.599)" fill="#1565c0"/>
    </clipPath>
    <clipPath id="clip-path-8">
      <path id="Trazado_601336" data-name="Trazado 601336" d="M2.045,51.622H62.356V67.467H2.045Zm4.386-6.9H57.542v4.856H6.431ZM2.045,26.833H62.356V42.678H2.045Zm4.386-6.9H57.542v4.856H6.431ZM2.045,2.044H62.356V17.889H2.045ZM1.022,0A1.022,1.022,0,0,0,0,1.022V18.911a1.022,1.022,0,0,0,1.022,1.022H4.386v4.856H1.022A1.022,1.022,0,0,0,0,25.811V43.7a1.021,1.021,0,0,0,1.022,1.022H4.386v4.856H1.022A1.021,1.021,0,0,0,0,50.6V68.489a1.022,1.022,0,0,0,1.022,1.022H4.386v5.878a1.022,1.022,0,0,0,2.045,0V69.511H57.542v5.878a1.022,1.022,0,1,0,2.044,0V69.511h3.792A1.022,1.022,0,0,0,64.4,68.489V50.6a1.021,1.021,0,0,0-1.022-1.022H59.586V44.722h3.792A1.021,1.021,0,0,0,64.4,43.7V25.811a1.022,1.022,0,0,0-1.022-1.022H59.586V19.933h3.792A1.021,1.021,0,0,0,64.4,18.911V1.022A1.022,1.022,0,0,0,63.378,0Z" fill="#26aab7"/>
    </clipPath>
    <clipPath id="clip-path-9">
      <path id="Trazado_601337" data-name="Trazado 601337" d="M166.642,22.317a2.939,2.939,0,1,1,2.939,2.939,2.943,2.943,0,0,1-2.939-2.939m-2.044,0a4.983,4.983,0,1,0,4.983-4.983,4.988,4.988,0,0,0-4.983,4.983" transform="translate(-164.598 -17.334)" fill="#1565c0"/>
    </clipPath>
    <clipPath id="clip-path-10">
      <path id="Trazado_601338" data-name="Trazado 601338" d="M24.592,22.8v6.644a1.022,1.022,0,1,0,2.044,0V22.8a1.022,1.022,0,1,0-2.044,0" transform="translate(-24.592 -21.778)" fill="#1565c0"/>
    </clipPath>
    <clipPath id="clip-path-11">
      <path id="Trazado_601339" data-name="Trazado 601339" d="M41.78,22.8v6.644a1.022,1.022,0,1,0,2.045,0V22.8a1.022,1.022,0,1,0-2.045,0" transform="translate(-41.78 -21.778)" fill="#1565c0"/>
    </clipPath>
    <clipPath id="clip-path-12">
      <path id="Trazado_601340" data-name="Trazado 601340" d="M58.964,22.8v6.644a1.022,1.022,0,1,0,2.045,0V22.8a1.022,1.022,0,1,0-2.045,0" transform="translate(-58.964 -21.778)" fill="#1565c0"/>
    </clipPath>
    <clipPath id="clip-path-13">
      <path id="Trazado_601341" data-name="Trazado 601341" d="M76.149,22.8v6.644a1.022,1.022,0,1,0,2.045,0V22.8a1.022,1.022,0,0,0-2.045,0" transform="translate(-76.149 -21.778)" fill="#1565c0"/>
    </clipPath>
    <clipPath id="clip-path-14">
      <path id="Trazado_601342" data-name="Trazado 601342" d="M93.338,22.8v6.644a1.022,1.022,0,1,0,2.044,0V22.8a1.022,1.022,0,1,0-2.044,0" transform="translate(-93.338 -21.778)" fill="#1565c0"/>
    </clipPath>
    <clipPath id="clip-path-15">
      <rect id="Rectángulo_298136" data-name="Rectángulo 298136" width="3.322" height="3.322" fill="#1565c0"/>
    </clipPath>
    <clipPath id="clip-path-18">
      <path id="Trazado_601343" data-name="Trazado 601343" d="M166.642,108.543a2.939,2.939,0,1,1,2.939,2.939,2.943,2.943,0,0,1-2.939-2.939m-2.044,0a4.983,4.983,0,1,0,4.983-4.983,4.988,4.988,0,0,0-4.983,4.983" transform="translate(-164.598 -103.56)" fill="#1565c0"/>
    </clipPath>
    <clipPath id="clip-path-19">
      <path id="Trazado_601344" data-name="Trazado 601344" d="M24.592,109.027v6.644a1.022,1.022,0,1,0,2.044,0v-6.644a1.022,1.022,0,1,0-2.044,0" transform="translate(-24.592 -108.005)" fill="#1565c0"/>
    </clipPath>
    <clipPath id="clip-path-20">
      <path id="Trazado_601345" data-name="Trazado 601345" d="M41.78,109.027v6.644a1.022,1.022,0,0,0,2.045,0v-6.644a1.022,1.022,0,0,0-2.045,0" transform="translate(-41.78 -108.005)" fill="#1565c0"/>
    </clipPath>
    <clipPath id="clip-path-21">
      <path id="Trazado_601346" data-name="Trazado 601346" d="M58.964,109.027v6.644a1.022,1.022,0,0,0,2.045,0v-6.644a1.022,1.022,0,0,0-2.045,0" transform="translate(-58.964 -108.005)" fill="#1565c0"/>
    </clipPath>
    <clipPath id="clip-path-22">
      <path id="Trazado_601347" data-name="Trazado 601347" d="M76.149,109.027v6.644a1.022,1.022,0,0,0,2.045,0v-6.644a1.022,1.022,0,0,0-2.045,0" transform="translate(-76.149 -108.005)" fill="#1565c0"/>
    </clipPath>
    <clipPath id="clip-path-23">
      <path id="Trazado_601348" data-name="Trazado 601348" d="M93.338,109.027v6.644a1.022,1.022,0,0,0,2.044,0v-6.644a1.022,1.022,0,1,0-2.044,0" transform="translate(-93.338 -108.005)" fill="#1565c0"/>
    </clipPath>
    <clipPath id="clip-path-27">
      <path id="Trazado_601349" data-name="Trazado 601349" d="M166.642,194.77a2.939,2.939,0,1,1,2.939,2.939,2.943,2.943,0,0,1-2.939-2.939m-2.044,0a4.983,4.983,0,1,0,4.983-4.983,4.988,4.988,0,0,0-4.983,4.983" transform="translate(-164.598 -189.787)" fill="#1565c0"/>
    </clipPath>
    <clipPath id="clip-path-28">
      <path id="Trazado_601350" data-name="Trazado 601350" d="M24.592,195.253V201.9a1.022,1.022,0,1,0,2.044,0v-6.644a1.022,1.022,0,1,0-2.044,0" transform="translate(-24.592 -194.231)" fill="#1565c0"/>
    </clipPath>
    <clipPath id="clip-path-29">
      <path id="Trazado_601351" data-name="Trazado 601351" d="M41.78,195.253V201.9a1.022,1.022,0,0,0,2.045,0v-6.644a1.022,1.022,0,0,0-2.045,0" transform="translate(-41.78 -194.231)" fill="#1565c0"/>
    </clipPath>
    <clipPath id="clip-path-30">
      <path id="Trazado_601352" data-name="Trazado 601352" d="M58.964,195.253V201.9a1.022,1.022,0,0,0,2.045,0v-6.644a1.022,1.022,0,0,0-2.045,0" transform="translate(-58.964 -194.231)" fill="#1565c0"/>
    </clipPath>
    <clipPath id="clip-path-31">
      <path id="Trazado_601353" data-name="Trazado 601353" d="M76.149,195.253V201.9a1.022,1.022,0,0,0,2.045,0v-6.644a1.022,1.022,0,0,0-2.045,0" transform="translate(-76.149 -194.231)" fill="#1565c0"/>
    </clipPath>
    <clipPath id="clip-path-32">
      <path id="Trazado_601354" data-name="Trazado 601354" d="M93.338,195.253V201.9a1.022,1.022,0,1,0,2.044,0v-6.644a1.022,1.022,0,1,0-2.044,0" transform="translate(-93.338 -194.231)" fill="#1565c0"/>
    </clipPath>
    <clipPath id="clip-path-36">
      <path id="Trazado_601355" data-name="Trazado 601355" d="M32.281,253.789a1.022,1.022,0,0,0,0,2.045H75.725a1.022,1.022,0,1,0,0-2.045Z" transform="translate(-31.259 -253.789)" fill="#fb8c00"/>
    </clipPath>
  </defs>
  <g id="Grupo_890237" data-name="Grupo 890237" transform="translate(11166 6610.793)">
    <path id="Trazado_605262" data-name="Trazado 605262" d="M13,0H492a13,13,0,0,1,13,13V266a13,13,0,0,1-13,13H13A13,13,0,0,1,0,266V13A13,13,0,0,1,13,0Z" transform="translate(-11166 -6610.793)" fill="#fff"/>
    <g id="Grupo_887377" data-name="Grupo 887377" transform="translate(-11060.875 -6498.021)">
      <g id="Grupo_887376" data-name="Grupo 887376" clip-path="url(#clip-path)">
        <rect id="Rectángulo_298121" data-name="Rectángulo 298121" width="19.805" height="60.819" transform="translate(-1.366 0.031) rotate(-1.296)" fill="#1565c0"/>
      </g>
    </g>
    <g id="Grupo_887379" data-name="Grupo 887379" transform="translate(-11106.083 -6493.671)" style="isolation: isolate">
      <g id="Grupo_887378" data-name="Grupo 887378" clip-path="url(#clip-path-2)">
        <rect id="Rectángulo_298122" data-name="Rectángulo 298122" width="37.11" height="24.362" transform="translate(-0.532 0.012) rotate(-1.296)" fill="#1565c0"/>
      </g>
    </g>
    <g id="Grupo_887381" data-name="Grupo 887381" transform="translate(-11110.432 -6498.021)">
      <g id="Grupo_887380" data-name="Grupo 887380" clip-path="url(#clip-path-3)">
        <rect id="Rectángulo_298123" data-name="Rectángulo 298123" width="46.645" height="61.737" transform="translate(-1.373 0.031) rotate(-1.296)" fill="#1565c0"/>
      </g>
    </g>
    <g id="Grupo_887383" data-name="Grupo 887383" transform="translate(-11095.137 -6445.239)" style="isolation: isolate">
      <g id="Grupo_887382" data-name="Grupo 887382" clip-path="url(#clip-path-4)">
        <rect id="Rectángulo_298124" data-name="Rectángulo 298124" width="14.731" height="2.131" transform="matrix(1, -0.023, 0.023, 1, -0.041, 0.001)" fill="#fb8c00"/>
      </g>
    </g>
    <g id="Grupo_887385" data-name="Grupo 887385" transform="translate(-11056.526 -6493.671)">
      <g id="Grupo_887384" data-name="Grupo 887384" clip-path="url(#clip-path-5)">
        <rect id="Rectángulo_298125" data-name="Rectángulo 298125" width="9.886" height="6.517" transform="translate(-0.142 0.003) rotate(-1.296)" fill="#1565c0"/>
      </g>
    </g>
    <g id="Grupo_887389" data-name="Grupo 887389" transform="translate(-11056.227 -6471.555)">
      <g id="Grupo_887388" data-name="Grupo 887388" clip-path="url(#clip-path-6)">
        <rect id="Rectángulo_298127" data-name="Rectángulo 298127" width="9.352" height="9.351" transform="translate(-0.207 0.005) rotate(-1.296)" fill="#1565c0"/>
      </g>
    </g>
    <g id="Grupo_887391" data-name="Grupo 887391" transform="translate(-11056.525 -6485.672)">
      <g id="Grupo_887384-2" data-name="Grupo 887384" clip-path="url(#clip-path-5)">
        <rect id="Rectángulo_298125-2" data-name="Rectángulo 298125" width="9.886" height="6.517" transform="translate(-0.142 0.003) rotate(-1.296)" fill="#1565c0"/>
      </g>
    </g>
    <g id="Grupo_887394" data-name="Grupo 887394" transform="translate(-10810.4 -6509.499)">
      <g id="Grupo_887393" data-name="Grupo 887393" clip-path="url(#clip-path-8)">
        <rect id="Rectángulo_298128" data-name="Rectángulo 298128" width="64.4" height="76.411" transform="translate(0)" fill="#26aab7"/>
      </g>
    </g>
    <g id="Grupo_887396" data-name="Grupo 887396" transform="translate(-10763.081 -6504.515)">
      <g id="Grupo_887395" data-name="Grupo 887395" clip-path="url(#clip-path-9)">
        <rect id="Rectángulo_298129" data-name="Rectángulo 298129" width="9.967" height="9.967" transform="translate(0 0)" fill="#1565c0"/>
      </g>
    </g>
    <g id="Grupo_887398" data-name="Grupo 887398" transform="translate(-10803.33 -6503.238)">
      <g id="Grupo_887397" data-name="Grupo 887397" clip-path="url(#clip-path-10)">
        <rect id="Rectángulo_298130" data-name="Rectángulo 298130" width="2.044" height="8.689" transform="translate(0 0)" fill="#1565c0"/>
      </g>
    </g>
    <g id="Grupo_887400" data-name="Grupo 887400" transform="translate(-10798.39 -6503.238)">
      <g id="Grupo_887399" data-name="Grupo 887399" clip-path="url(#clip-path-11)">
        <rect id="Rectángulo_298131" data-name="Rectángulo 298131" width="2.045" height="8.689" transform="translate(0 0)" fill="#1565c0"/>
      </g>
    </g>
    <g id="Grupo_887402" data-name="Grupo 887402" transform="translate(-10793.449 -6503.238)">
      <g id="Grupo_887401" data-name="Grupo 887401" clip-path="url(#clip-path-12)">
        <rect id="Rectángulo_298132" data-name="Rectángulo 298132" width="2.045" height="8.689" transform="translate(0 0)" fill="#1565c0"/>
      </g>
    </g>
    <g id="Grupo_887404" data-name="Grupo 887404" transform="translate(-10788.509 -6503.238)">
      <g id="Grupo_887403" data-name="Grupo 887403" clip-path="url(#clip-path-13)">
        <rect id="Rectángulo_298133" data-name="Rectángulo 298133" width="2.045" height="8.689" transform="translate(0 0)" fill="#1565c0"/>
      </g>
    </g>
    <g id="Grupo_887406" data-name="Grupo 887406" transform="translate(-10783.567 -6503.238)">
      <g id="Grupo_887405" data-name="Grupo 887405" clip-path="url(#clip-path-14)">
        <rect id="Rectángulo_298134" data-name="Rectángulo 298134" width="2.044" height="8.689" transform="translate(0 0)" fill="#1565c0"/>
      </g>
    </g>
    <g id="Grupo_887408" data-name="Grupo 887408" transform="translate(-10778.35 -6499.979)">
      <g id="Grupo_887407" data-name="Grupo 887407" clip-path="url(#clip-path-15)">
        <rect id="Rectángulo_298135" data-name="Rectángulo 298135" width="3.322" height="3.322" fill="#1565c0"/>
      </g>
    </g>
    <g id="Grupo_887410" data-name="Grupo 887410" transform="translate(-10773.686 -6499.979)">
      <g id="Grupo_887409" data-name="Grupo 887409" clip-path="url(#clip-path-15)">
        <rect id="Rectángulo_298137" data-name="Rectángulo 298137" width="3.322" height="3.322" fill="#1565c0"/>
      </g>
    </g>
    <g id="Grupo_887412" data-name="Grupo 887412" transform="translate(-10769.021 -6499.979)">
      <g id="Grupo_887411" data-name="Grupo 887411" clip-path="url(#clip-path-15)">
        <rect id="Rectángulo_298139" data-name="Rectángulo 298139" width="3.322" height="3.322" fill="#1565c0"/>
      </g>
    </g>
    <g id="Grupo_887414" data-name="Grupo 887414" transform="translate(-10763.081 -6479.727)">
      <g id="Grupo_887413" data-name="Grupo 887413" clip-path="url(#clip-path-18)">
        <rect id="Rectángulo_298141" data-name="Rectángulo 298141" width="9.967" height="9.967" transform="translate(0 0)" fill="#1565c0"/>
      </g>
    </g>
    <g id="Grupo_887416" data-name="Grupo 887416" transform="translate(-10803.33 -6478.449)">
      <g id="Grupo_887415" data-name="Grupo 887415" clip-path="url(#clip-path-19)">
        <rect id="Rectángulo_298142" data-name="Rectángulo 298142" width="2.044" height="8.689" transform="translate(0 0)" fill="#1565c0"/>
      </g>
    </g>
    <g id="Grupo_887418" data-name="Grupo 887418" transform="translate(-10798.39 -6478.449)">
      <g id="Grupo_887417" data-name="Grupo 887417" clip-path="url(#clip-path-20)">
        <rect id="Rectángulo_298143" data-name="Rectángulo 298143" width="2.045" height="8.689" transform="translate(0 0)" fill="#1565c0"/>
      </g>
    </g>
    <g id="Grupo_887420" data-name="Grupo 887420" transform="translate(-10793.449 -6478.449)">
      <g id="Grupo_887419" data-name="Grupo 887419" clip-path="url(#clip-path-21)">
        <rect id="Rectángulo_298144" data-name="Rectángulo 298144" width="2.045" height="8.689" transform="translate(0 0)" fill="#1565c0"/>
      </g>
    </g>
    <g id="Grupo_887422" data-name="Grupo 887422" transform="translate(-10788.509 -6478.449)">
      <g id="Grupo_887421" data-name="Grupo 887421" clip-path="url(#clip-path-22)">
        <rect id="Rectángulo_298145" data-name="Rectángulo 298145" width="2.045" height="8.689" transform="translate(0 0)" fill="#1565c0"/>
      </g>
    </g>
    <g id="Grupo_887424" data-name="Grupo 887424" transform="translate(-10783.567 -6478.449)">
      <g id="Grupo_887423" data-name="Grupo 887423" clip-path="url(#clip-path-23)">
        <rect id="Rectángulo_298146" data-name="Rectángulo 298146" width="2.044" height="8.689" transform="translate(0 0)" fill="#1565c0"/>
      </g>
    </g>
    <g id="Grupo_887426" data-name="Grupo 887426" transform="translate(-10778.35 -6475.19)">
      <g id="Grupo_887425" data-name="Grupo 887425" clip-path="url(#clip-path-15)">
        <rect id="Rectángulo_298147" data-name="Rectángulo 298147" width="3.322" height="3.322" transform="translate(0 0)" fill="#1565c0"/>
      </g>
    </g>
    <g id="Grupo_887428" data-name="Grupo 887428" transform="translate(-10773.686 -6475.19)">
      <g id="Grupo_887427" data-name="Grupo 887427" clip-path="url(#clip-path-15)">
        <rect id="Rectángulo_298149" data-name="Rectángulo 298149" width="3.322" height="3.322" transform="translate(0 0)" fill="#1565c0"/>
      </g>
    </g>
    <g id="Grupo_887430" data-name="Grupo 887430" transform="translate(-10769.021 -6475.19)">
      <g id="Grupo_887429" data-name="Grupo 887429" clip-path="url(#clip-path-15)">
        <rect id="Rectángulo_298151" data-name="Rectángulo 298151" width="3.322" height="3.322" transform="translate(0 0)" fill="#1565c0"/>
      </g>
    </g>
    <g id="Grupo_887432" data-name="Grupo 887432" transform="translate(-10763.081 -6454.938)">
      <g id="Grupo_887431" data-name="Grupo 887431" clip-path="url(#clip-path-27)">
        <rect id="Rectángulo_298153" data-name="Rectángulo 298153" width="9.967" height="9.967" transform="translate(0 0)" fill="#1565c0"/>
      </g>
    </g>
    <g id="Grupo_887434" data-name="Grupo 887434" transform="translate(-10803.33 -6453.66)">
      <g id="Grupo_887433" data-name="Grupo 887433" clip-path="url(#clip-path-28)">
        <rect id="Rectángulo_298154" data-name="Rectángulo 298154" width="2.044" height="8.689" transform="translate(0 0)" fill="#1565c0"/>
      </g>
    </g>
    <g id="Grupo_887436" data-name="Grupo 887436" transform="translate(-10798.39 -6453.66)">
      <g id="Grupo_887435" data-name="Grupo 887435" clip-path="url(#clip-path-29)">
        <rect id="Rectángulo_298155" data-name="Rectángulo 298155" width="2.045" height="8.689" transform="translate(0 0)" fill="#1565c0"/>
      </g>
    </g>
    <g id="Grupo_887438" data-name="Grupo 887438" transform="translate(-10793.449 -6453.66)">
      <g id="Grupo_887437" data-name="Grupo 887437" clip-path="url(#clip-path-30)">
        <rect id="Rectángulo_298156" data-name="Rectángulo 298156" width="2.045" height="8.689" transform="translate(0 0)" fill="#1565c0"/>
      </g>
    </g>
    <g id="Grupo_887440" data-name="Grupo 887440" transform="translate(-10788.509 -6453.66)">
      <g id="Grupo_887439" data-name="Grupo 887439" clip-path="url(#clip-path-31)">
        <rect id="Rectángulo_298157" data-name="Rectángulo 298157" width="2.045" height="8.689" transform="translate(0 0)" fill="#1565c0"/>
      </g>
    </g>
    <g id="Grupo_887442" data-name="Grupo 887442" transform="translate(-10783.567 -6453.66)">
      <g id="Grupo_887441" data-name="Grupo 887441" clip-path="url(#clip-path-32)">
        <rect id="Rectángulo_298158" data-name="Rectángulo 298158" width="2.044" height="8.689" transform="translate(0 0)" fill="#1565c0"/>
      </g>
    </g>
    <g id="Grupo_887444" data-name="Grupo 887444" transform="translate(-10778.35 -6450.401)">
      <g id="Grupo_887443" data-name="Grupo 887443" clip-path="url(#clip-path-15)">
        <rect id="Rectángulo_298159" data-name="Rectángulo 298159" width="3.322" height="3.322" fill="#1565c0"/>
      </g>
    </g>
    <g id="Grupo_887446" data-name="Grupo 887446" transform="translate(-10773.686 -6450.401)">
      <g id="Grupo_887445" data-name="Grupo 887445" clip-path="url(#clip-path-15)">
        <rect id="Rectángulo_298161" data-name="Rectángulo 298161" width="3.322" height="3.322" fill="#1565c0"/>
      </g>
    </g>
    <g id="Grupo_887448" data-name="Grupo 887448" transform="translate(-10769.021 -6450.401)">
      <g id="Grupo_887447" data-name="Grupo 887447" clip-path="url(#clip-path-15)">
        <rect id="Rectángulo_298163" data-name="Rectángulo 298163" width="3.322" height="3.322" fill="#1565c0"/>
      </g>
    </g>
    <g id="Grupo_887450" data-name="Grupo 887450" transform="translate(-10801.414 -6436.538)">
      <g id="Grupo_887449" data-name="Grupo 887449" clip-path="url(#clip-path-36)">
        <rect id="Rectángulo_298165" data-name="Rectángulo 298165" width="45.489" height="2.045" transform="translate(0)" fill="#fb8c00"/>
      </g>
    </g>
    <path id="Trazado_605263" data-name="Trazado 605263" d="M2.82-4.453V0H1.32V-11.375h4.2a4.215,4.215,0,0,1,2.926.953A3.231,3.231,0,0,1,9.5-7.9,3.189,3.189,0,0,1,8.465-5.348,4.4,4.4,0,0,1,5.5-4.453Zm0-1.227h2.7a2.7,2.7,0,0,0,1.844-.567A2.075,2.075,0,0,0,8-7.887a2.143,2.143,0,0,0-.641-1.628A2.525,2.525,0,0,0,5.6-10.148H2.82ZM14.594.156A3.693,3.693,0,0,1,11.8-.973a4.19,4.19,0,0,1-1.078-3.02v-.266A5.073,5.073,0,0,1,11.2-6.5a3.748,3.748,0,0,1,1.344-1.547,3.378,3.378,0,0,1,1.871-.559,3.166,3.166,0,0,1,2.563,1.086,4.7,4.7,0,0,1,.914,3.109v.6H12.164a3,3,0,0,0,.73,2.02,2.3,2.3,0,0,0,1.777.77,2.517,2.517,0,0,0,1.3-.312,3.259,3.259,0,0,0,.93-.828l.883.688A3.55,3.55,0,0,1,14.594.156Zm-.18-7.578a1.928,1.928,0,0,0-1.469.637A3.1,3.1,0,0,0,12.211-5h4.234v-.109a2.753,2.753,0,0,0-.594-1.707A1.815,1.815,0,0,0,14.414-7.422ZM21.523-10.5v2.047H23.1v1.117H21.523v5.249a1.173,1.173,0,0,0,.211.763.888.888,0,0,0,.719.254,3.5,3.5,0,0,0,.688-.094V0a4.215,4.215,0,0,1-1.109.155A1.8,1.8,0,0,1,20.57-.43a2.517,2.517,0,0,1-.492-1.664V-7.336H18.539V-8.453h1.539V-10.5ZM26.359,0H24.914V-8.453h1.445ZM24.8-10.7a.863.863,0,0,1,.215-.594.807.807,0,0,1,.637-.242.819.819,0,0,1,.641.242.854.854,0,0,1,.219.594.826.826,0,0,1-.219.586.834.834,0,0,1-.641.234.821.821,0,0,1-.637-.234A.834.834,0,0,1,24.8-10.7Zm7.266,9.672a2.082,2.082,0,0,0,1.352-.469,1.649,1.649,0,0,0,.641-1.172h1.367a2.621,2.621,0,0,1-.5,1.383,3.293,3.293,0,0,1-1.23,1.047,3.55,3.55,0,0,1-1.629.391A3.482,3.482,0,0,1,29.316-1,4.59,4.59,0,0,1,28.3-4.148v-.242a5.089,5.089,0,0,1,.453-2.2,3.451,3.451,0,0,1,1.3-1.492,3.7,3.7,0,0,1,2-.531,3.39,3.39,0,0,1,2.363.852,3.043,3.043,0,0,1,1,2.211H34.055a1.992,1.992,0,0,0-.621-1.348,1.932,1.932,0,0,0-1.379-.527,2.023,2.023,0,0,0-1.707.793,3.724,3.724,0,0,0-.605,2.293v.273a3.65,3.65,0,0,0,.6,2.25A2.033,2.033,0,0,0,32.063-1.023ZM38.617,0H37.172V-8.453h1.445ZM37.055-10.7a.863.863,0,0,1,.215-.594.807.807,0,0,1,.637-.242.819.819,0,0,1,.641.242.854.854,0,0,1,.219.594.826.826,0,0,1-.219.586.834.834,0,0,1-.641.234.821.821,0,0,1-.637-.234A.834.834,0,0,1,37.055-10.7ZM40.547-4.3a4.993,4.993,0,0,1,.488-2.234A3.643,3.643,0,0,1,42.395-8.07a3.7,3.7,0,0,1,1.988-.539,3.565,3.565,0,0,1,2.793,1.2,4.6,4.6,0,0,1,1.066,3.18v.1a5.036,5.036,0,0,1-.473,2.215A3.589,3.589,0,0,1,46.418-.391,3.743,3.743,0,0,1,44.4.156a3.556,3.556,0,0,1-2.785-1.2A4.575,4.575,0,0,1,40.547-4.2ZM42-4.133a3.616,3.616,0,0,0,.652,2.258,2.088,2.088,0,0,0,1.746.852,2.075,2.075,0,0,0,1.75-.863A3.955,3.955,0,0,0,46.8-4.3a3.61,3.61,0,0,0-.66-2.254,2.1,2.1,0,0,0-1.754-.863,2.075,2.075,0,0,0-1.727.852A3.925,3.925,0,0,0,42-4.133Zm3.039-7.852h1.75L44.7-9.687l-1.164,0Zm6.383,3.531.047,1.063A3.08,3.08,0,0,1,54-8.609q2.68,0,2.7,3.023V0H55.258V-5.594a1.946,1.946,0,0,0-.418-1.352,1.675,1.675,0,0,0-1.277-.437,2.086,2.086,0,0,0-1.234.375,2.546,2.546,0,0,0-.828.984V0H50.055V-8.453Z" transform="translate(-11025 -6494.793)" fill="#12263f"/>
    <path id="Trazado_605265" data-name="Trazado 605265" d="M10.273,0H7.93V-4.875H3.359V0H1.016V-11.375H3.359v4.609H7.93v-4.609h2.344ZM20.656-9.477H17.172V0H14.828V-9.477H11.391v-1.9h9.266Zm10.023,0H27.2V0H24.852V-9.477H21.414v-1.9H30.68Zm3.68,5.469V0H32.016V-11.375h4.438a5.134,5.134,0,0,1,2.254.469,3.454,3.454,0,0,1,1.5,1.332,3.714,3.714,0,0,1,.523,1.965,3.266,3.266,0,0,1-1.145,2.637,4.767,4.767,0,0,1-3.168.965Zm0-1.9h2.094a2.059,2.059,0,0,0,1.418-.437,1.591,1.591,0,0,0,.488-1.25,1.876,1.876,0,0,0-.492-1.352,1.839,1.839,0,0,0-1.359-.531H34.359Z" transform="translate(-10944 -6461.793)" fill="#12263f"/>
    <path id="Trazado_605266" data-name="Trazado 605266" d="M5.492-4.6H2.82V0H1.313V-11.375H5.078a4.457,4.457,0,0,1,2.957.875A3.148,3.148,0,0,1,9.07-7.953,3.062,3.062,0,0,1,8.5-6.1a3.428,3.428,0,0,1-1.6,1.18L9.57-.094V0H7.961ZM2.82-5.828h2.3A2.6,2.6,0,0,0,6.9-6.407a1.959,1.959,0,0,0,.66-1.55,2.062,2.062,0,0,0-.629-1.62,2.663,2.663,0,0,0-1.816-.571H2.82ZM14.453.156a3.693,3.693,0,0,1-2.8-1.129,4.19,4.19,0,0,1-1.078-3.02v-.266a5.073,5.073,0,0,1,.48-2.246A3.748,3.748,0,0,1,12.4-8.051a3.378,3.378,0,0,1,1.871-.559,3.166,3.166,0,0,1,2.563,1.086,4.7,4.7,0,0,1,.914,3.109v.6H12.023a3,3,0,0,0,.73,2.02,2.3,2.3,0,0,0,1.777.77,2.517,2.517,0,0,0,1.3-.312,3.259,3.259,0,0,0,.93-.828l.883.688A3.55,3.55,0,0,1,14.453.156Zm-.18-7.578a1.928,1.928,0,0,0-1.469.637A3.1,3.1,0,0,0,12.07-5H16.3v-.109a2.753,2.753,0,0,0-.594-1.707A1.815,1.815,0,0,0,14.273-7.422Zm10.07,5.18a1.064,1.064,0,0,0-.441-.91,4.249,4.249,0,0,0-1.539-.559,7.277,7.277,0,0,1-1.742-.562,2.479,2.479,0,0,1-.953-.781,1.869,1.869,0,0,1-.309-1.078,2.193,2.193,0,0,1,.879-1.758,3.432,3.432,0,0,1,2.246-.719,3.532,3.532,0,0,1,2.332.742,2.357,2.357,0,0,1,.895,1.9H24.258a1.3,1.3,0,0,0-.5-1.023,1.888,1.888,0,0,0-1.27-.43,1.976,1.976,0,0,0-1.234.344,1.082,1.082,0,0,0-.445.9.877.877,0,0,0,.414.789,5.1,5.1,0,0,0,1.5.508,7.8,7.8,0,0,1,1.754.578,2.558,2.558,0,0,1,1,.809,1.988,1.988,0,0,1,.324,1.152,2.163,2.163,0,0,1-.906,1.816,3.8,3.8,0,0,1-2.352.684,4.257,4.257,0,0,1-1.8-.359,2.922,2.922,0,0,1-1.223-1A2.42,2.42,0,0,1,19.07-2.6h1.445A1.5,1.5,0,0,0,21.1-1.449a2.258,2.258,0,0,0,1.434.426,2.331,2.331,0,0,0,1.316-.332A1.02,1.02,0,0,0,24.344-2.242ZM34.813-4.133a5.062,5.062,0,0,1-.883,3.109A2.829,2.829,0,0,1,31.539.156,3.1,3.1,0,0,1,29.117-.82V3.25H27.672v-11.7h1.32l.07.938a2.977,2.977,0,0,1,2.453-1.094,2.882,2.882,0,0,1,2.41,1.148,5.117,5.117,0,0,1,.887,3.2ZM33.367-4.3a3.735,3.735,0,0,0-.609-2.258,1.963,1.963,0,0,0-1.672-.828,2.125,2.125,0,0,0-1.969,1.164V-2.18A2.129,2.129,0,0,0,31.1-1.023a1.954,1.954,0,0,0,1.652-.824A4.077,4.077,0,0,0,33.367-4.3Zm8.5,3.461a3.07,3.07,0,0,1-2.477.992,2.628,2.628,0,0,1-2.059-.785,3.4,3.4,0,0,1-.715-2.324v-5.5h1.445v5.461q0,1.922,1.563,1.922a2.163,2.163,0,0,0,2.2-1.234V-8.453h1.445V0H41.9Zm7.109.992a3.693,3.693,0,0,1-2.8-1.129A4.19,4.19,0,0,1,45.1-3.992v-.266a5.073,5.073,0,0,1,.48-2.246,3.748,3.748,0,0,1,1.344-1.547A3.378,3.378,0,0,1,48.8-8.609a3.166,3.166,0,0,1,2.563,1.086,4.7,4.7,0,0,1,.914,3.109v.6H46.547a3,3,0,0,0,.73,2.02,2.3,2.3,0,0,0,1.777.77,2.517,2.517,0,0,0,1.3-.312,3.259,3.259,0,0,0,.93-.828l.883.688A3.55,3.55,0,0,1,48.977.156ZM48.8-7.422a1.928,1.928,0,0,0-1.469.637A3.1,3.1,0,0,0,46.594-5h4.234v-.109a2.753,2.753,0,0,0-.594-1.707A1.815,1.815,0,0,0,48.8-7.422Zm10.07,5.18a1.064,1.064,0,0,0-.441-.91,4.249,4.249,0,0,0-1.539-.559,7.277,7.277,0,0,1-1.742-.562,2.479,2.479,0,0,1-.953-.781,1.869,1.869,0,0,1-.309-1.078,2.193,2.193,0,0,1,.879-1.758,3.432,3.432,0,0,1,2.246-.719,3.532,3.532,0,0,1,2.332.742,2.357,2.357,0,0,1,.895,1.9H58.781a1.3,1.3,0,0,0-.5-1.023,1.888,1.888,0,0,0-1.27-.43,1.976,1.976,0,0,0-1.234.344,1.082,1.082,0,0,0-.445.9.877.877,0,0,0,.414.789,5.1,5.1,0,0,0,1.5.508,7.8,7.8,0,0,1,1.754.578,2.558,2.558,0,0,1,1,.809,1.988,1.988,0,0,1,.324,1.152,2.163,2.163,0,0,1-.906,1.816,3.8,3.8,0,0,1-2.352.684,4.257,4.257,0,0,1-1.8-.359,2.922,2.922,0,0,1-1.223-1A2.42,2.42,0,0,1,53.594-2.6h1.445a1.5,1.5,0,0,0,.582,1.152,2.258,2.258,0,0,0,1.434.426,2.331,2.331,0,0,0,1.316-.332A1.02,1.02,0,0,0,58.867-2.242ZM64.156-10.5v2.047h1.578v1.117H64.156v5.249a1.173,1.173,0,0,0,.211.763.888.888,0,0,0,.719.254,3.5,3.5,0,0,0,.688-.094V0a4.215,4.215,0,0,1-1.109.155A1.8,1.8,0,0,1,63.2-.43a2.517,2.517,0,0,1-.492-1.664V-7.336H61.172V-8.453h1.539V-10.5ZM72.641,0a3.036,3.036,0,0,1-.2-.891A3.225,3.225,0,0,1,70.031.156,2.984,2.984,0,0,1,67.98-.551a2.288,2.288,0,0,1-.8-1.793,2.39,2.39,0,0,1,1-2.051,4.733,4.733,0,0,1,2.824-.73h1.406v-.664A1.623,1.623,0,0,0,71.961-7a1.821,1.821,0,0,0-1.336-.449,2.108,2.108,0,0,0-1.3.391,1.151,1.151,0,0,0-.523.945H67.352A2,2,0,0,1,67.8-7.332a3.066,3.066,0,0,1,1.219-.934,4.1,4.1,0,0,1,1.691-.344A3.342,3.342,0,0,1,73-7.879a2.635,2.635,0,0,1,.859,2.012v3.891a4.757,4.757,0,0,0,.3,1.852V0Zm-2.4-1.1a2.54,2.54,0,0,0,1.289-.352,2.127,2.127,0,0,0,.883-.914V-4.1H71.281q-2.656,0-2.656,1.555a1.316,1.316,0,0,0,.453,1.063A1.742,1.742,0,0,0,70.242-1.1Z" transform="translate(-10909 -6427.793)" fill="#12263f"/>
    <path id="Trazado_601575" data-name="Trazado 601575" d="M-7973.112-6517.953H-8158.76" transform="translate(-2862 69.207)" fill="none" stroke="#fb8c00" stroke-width="1"/>
    <path id="Trazado_605267" data-name="Trazado 605267" d="M6,0l6,10H0Z" transform="translate(-11025 -6442.793) rotate(-90)" fill="#fb8c00"/>
    <path id="Trazado_601575-2" data-name="Trazado 601575" d="M-8158.76-6517.953h185.648" transform="translate(-2866.24 32.207)" fill="none" stroke="#fb8c00" stroke-width="1"/>
    <path id="Trazado_605264" data-name="Trazado 605264" d="M6,0l6,10H0Z" transform="translate(-10835.111 -6491.793) rotate(90)" fill="#fb8c00"/>
    <path id="Trazado_605268" data-name="Trazado 605268" d="M9.945-3.789A4.025,4.025,0,0,1,8.59-.9,4.76,4.76,0,0,1,5.367.156,4.28,4.28,0,0,1,1.926-1.316,6.038,6.038,0,0,1,.672-5.359v-.7A6.819,6.819,0,0,1,1.25-8.945,4.332,4.332,0,0,1,2.9-10.863a4.629,4.629,0,0,1,2.5-.668A4.637,4.637,0,0,1,8.57-10.477,4.326,4.326,0,0,1,9.961-7.516H7.617A2.376,2.376,0,0,0,7-9.113a2.271,2.271,0,0,0-1.605-.5,1.991,1.991,0,0,0-1.754.84,4.707,4.707,0,0,0-.6,2.605V-5.3a5.038,5.038,0,0,0,.559,2.7,1.954,1.954,0,0,0,1.762.852,2.314,2.314,0,0,0,1.621-.5A2.241,2.241,0,0,0,7.6-3.789ZM13.719,0H11.453V-12h2.266Zm4.242,0H15.7V-8.453h2.266Zm-2.4-10.641a1.112,1.112,0,0,1,.34-.836,1.277,1.277,0,0,1,.926-.328,1.28,1.28,0,0,1,.922.328,1.105,1.105,0,0,1,.344.836,1.108,1.108,0,0,1-.348.844,1.283,1.283,0,0,1-.918.328A1.283,1.283,0,0,1,15.91-9.8,1.108,1.108,0,0,1,15.563-10.641ZM23.711.156A4.15,4.15,0,0,1,20.684-.984a4.054,4.054,0,0,1-1.168-3.039v-.219a5.106,5.106,0,0,1,.492-2.277A3.612,3.612,0,0,1,21.4-8.066a3.914,3.914,0,0,1,2.059-.543,3.508,3.508,0,0,1,2.73,1.094,4.444,4.444,0,0,1,1,3.1v.922H21.8a2.1,2.1,0,0,0,.66,1.328,2,2,0,0,0,1.395.5A2.437,2.437,0,0,0,25.9-2.609l1.109,1.242A3.389,3.389,0,0,1,25.633-.246,4.511,4.511,0,0,1,23.711.156Zm-.258-6.945a1.411,1.411,0,0,0-1.09.455,2.357,2.357,0,0,0-.535,1.3h3.141v-.181a1.681,1.681,0,0,0-.406-1.165A1.456,1.456,0,0,0,23.453-6.789Zm7.094-1.664.07.977a2.951,2.951,0,0,1,2.43-1.133,2.453,2.453,0,0,1,2,.789,3.682,3.682,0,0,1,.672,2.359V0H33.461V-5.419a1.47,1.47,0,0,0-.312-1.045,1.4,1.4,0,0,0-1.039-.325,1.553,1.553,0,0,0-1.43.814V0H28.422V-8.453Zm9.586-2.078v2.078h1.445V-6.8H40.133v4.219a1.007,1.007,0,0,0,.18.672A.9.9,0,0,0,41-1.7a3.6,3.6,0,0,0,.664-.055V-.047a4.648,4.648,0,0,1-1.367.2,2.156,2.156,0,0,1-2.422-2.4V-6.8H36.641V-8.453h1.234v-2.078ZM46.727.156A4.15,4.15,0,0,1,43.7-.984a4.054,4.054,0,0,1-1.168-3.039v-.219a5.106,5.106,0,0,1,.492-2.277,3.612,3.612,0,0,1,1.395-1.547,3.914,3.914,0,0,1,2.059-.543,3.508,3.508,0,0,1,2.73,1.094,4.444,4.444,0,0,1,1,3.1v.922H44.82a2.1,2.1,0,0,0,.66,1.328,2,2,0,0,0,1.395.5,2.437,2.437,0,0,0,2.039-.945l1.109,1.242A3.389,3.389,0,0,1,48.648-.246,4.511,4.511,0,0,1,46.727.156Zm-.258-6.945a1.411,1.411,0,0,0-1.09.455,2.357,2.357,0,0,0-.535,1.3h3.141v-.181a1.681,1.681,0,0,0-.406-1.165A1.456,1.456,0,0,0,46.469-6.789Z" transform="translate(-11114 -6410.793)" fill="#12263f"/>
    <path id="Trazado_605269" data-name="Trazado 605269" d="M6.914-2.984A1.2,1.2,0,0,0,6.445-4a6.148,6.148,0,0,0-1.687-.75,11.963,11.963,0,0,1-1.93-.777A3.153,3.153,0,0,1,.891-8.352,2.747,2.747,0,0,1,1.41-10,3.389,3.389,0,0,1,2.9-11.125a5.616,5.616,0,0,1,2.184-.406,5.112,5.112,0,0,1,2.172.441,3.458,3.458,0,0,1,1.48,1.246,3.261,3.261,0,0,1,.527,1.828H6.922A1.534,1.534,0,0,0,6.43-9.23a2.023,2.023,0,0,0-1.383-.434A2.162,2.162,0,0,0,3.711-9.3a1.146,1.146,0,0,0-.477.957,1.1,1.1,0,0,0,.559.93,6.311,6.311,0,0,0,1.645.7A7.106,7.106,0,0,1,8.352-5.219,2.972,2.972,0,0,1,9.266-3,2.737,2.737,0,0,1,8.148-.684a4.891,4.891,0,0,1-3.008.84A5.808,5.808,0,0,1,2.75-.324,3.783,3.783,0,0,1,1.105-1.641,3.371,3.371,0,0,1,.539-3.578H2.891q0,1.883,2.25,1.883a2.189,2.189,0,0,0,1.3-.34A1.106,1.106,0,0,0,6.914-2.984ZM14.594.156A4.15,4.15,0,0,1,11.566-.984,4.054,4.054,0,0,1,10.4-4.023v-.219a5.106,5.106,0,0,1,.492-2.277,3.612,3.612,0,0,1,1.395-1.547,3.914,3.914,0,0,1,2.059-.543,3.508,3.508,0,0,1,2.73,1.094,4.444,4.444,0,0,1,1,3.1v.922H12.688a2.1,2.1,0,0,0,.66,1.328,2,2,0,0,0,1.395.5,2.437,2.437,0,0,0,2.039-.945l1.109,1.242A3.389,3.389,0,0,1,16.516-.246,4.511,4.511,0,0,1,14.594.156Zm-.258-6.945a1.411,1.411,0,0,0-1.09.455,2.357,2.357,0,0,0-.535,1.3h3.141v-.181a1.681,1.681,0,0,0-.406-1.165A1.456,1.456,0,0,0,14.336-6.789Zm9.766.453a6.134,6.134,0,0,0-.812-.062,1.654,1.654,0,0,0-1.68.867V0H19.352V-8.453h2.133l.063,1.008A2.092,2.092,0,0,1,23.43-8.609a2.366,2.366,0,0,1,.7.1Zm4.391,3.578,1.57-5.7h2.359L29.57,0H27.414L24.563-8.453h2.359ZM35.8,0H33.531V-8.453H35.8ZM33.4-10.641a1.112,1.112,0,0,1,.34-.836,1.277,1.277,0,0,1,.926-.328,1.28,1.28,0,0,1,.922.328,1.105,1.105,0,0,1,.344.836,1.108,1.108,0,0,1-.348.844,1.283,1.283,0,0,1-.918.328,1.283,1.283,0,0,1-.918-.328A1.108,1.108,0,0,1,33.4-10.641ZM37.3-4.289a5.094,5.094,0,0,1,.887-3.148,2.877,2.877,0,0,1,2.426-1.172,2.589,2.589,0,0,1,2.039.922V-12h2.266V0H42.883l-.109-.9A2.657,2.657,0,0,1,40.6.156,2.869,2.869,0,0,1,38.207-1.02,5.258,5.258,0,0,1,37.3-4.289Zm2.258.161A3.355,3.355,0,0,0,39.977-2.3a1.348,1.348,0,0,0,1.2.636,1.51,1.51,0,0,0,1.477-.887V-5.9A1.489,1.489,0,0,0,41.2-6.789Q39.562-6.789,39.563-4.128ZM46.32-4.3A5.013,5.013,0,0,1,46.8-6.547,3.546,3.546,0,0,1,48.2-8.07a4.069,4.069,0,0,1,2.113-.539,3.849,3.849,0,0,1,2.793,1.047,4.2,4.2,0,0,1,1.207,2.844l.016.578A4.418,4.418,0,0,1,53.242-1.02,3.775,3.775,0,0,1,50.328.156,3.793,3.793,0,0,1,47.41-1.016,4.5,4.5,0,0,1,46.32-4.2Zm2.258.16A3.16,3.16,0,0,0,49.031-2.3a1.5,1.5,0,0,0,1.3.638,1.5,1.5,0,0,0,1.281-.63,3.457,3.457,0,0,0,.461-2.015,3.128,3.128,0,0,0-.461-1.831,1.5,1.5,0,0,0-1.3-.649,1.474,1.474,0,0,0-1.281.646A3.516,3.516,0,0,0,48.578-4.144ZM60.469-6.336a6.134,6.134,0,0,0-.812-.062,1.654,1.654,0,0,0-1.68.867V0H55.719V-8.453h2.133l.063,1.008A2.092,2.092,0,0,1,59.8-8.609a2.366,2.366,0,0,1,.7.1Z" transform="translate(-10808 -6410.793)" fill="#12263f"/>
  </g>
</svg>
