<svg id="Grupo_890300" data-name="Grupo 890300" xmlns="http://www.w3.org/2000/svg" xmlns:xlink="http://www.w3.org/1999/xlink" width="265.353" height="182.454" viewBox="0 0 265.353 182.454">
  <defs>
    <clipPath id="clip-path">
      <rect id="Rectángulo_298361" data-name="Rectángulo 298361" width="265.353" height="182.454" fill="none"/>
    </clipPath>
    <clipPath id="clip-path-2">
      <rect id="Rectángulo_298356" data-name="Rectángulo 298356" width="232.899" height="147.364" fill="none"/>
    </clipPath>
  </defs>
  <g id="Grupo_887846" data-name="Grupo 887846" transform="translate(0)">
    <g id="Grupo_887842" data-name="Grupo 887842" clip-path="url(#clip-path)">
      <path id="Trazado_602080" data-name="Trazado 602080" d="M265.353,8.494v9.124H0V8.494A8.492,8.492,0,0,1,8.493,0H256.859a8.493,8.493,0,0,1,8.494,8.494" fill="#e3e3e3"/>
      <path id="Trazado_602081" data-name="Trazado 602081" d="M265.353,128.04V284.382a8.494,8.494,0,0,1-8.494,8.494H8.493A8.493,8.493,0,0,1,0,284.382V128.04Z" transform="translate(0 -110.422)" fill="#12263f"/>
      <path id="Trazado_602082" data-name="Trazado 602082" d="M295.04,41.881a3.849,3.849,0,1,1-3.849-3.849,3.849,3.849,0,0,1,3.849,3.849" transform="translate(-247.804 -32.799)" fill="#fff"/>
      <line id="Línea_1982" data-name="Línea 1982" x2="3.727" transform="translate(41.565 9.082)" fill="none" stroke="#808285" stroke-linecap="round" stroke-linejoin="round" stroke-width="1"/>
      <path id="Trazado_602083" data-name="Trazado 602083" d="M303.892,56.4l-1.823-1.823,1.823-1.823" transform="translate(-260.504 -45.499)" fill="none" stroke="#808285" stroke-linecap="round" stroke-linejoin="round" stroke-width="1"/>
      <path id="Trazado_602084" data-name="Trazado 602084" d="M377.66,41.881a3.849,3.849,0,1,0,3.849-3.849,3.849,3.849,0,0,0-3.849,3.849" transform="translate(-325.694 -32.799)" fill="#fff"/>
      <line id="Línea_1983" data-name="Línea 1983" x1="3.727" transform="translate(53.912 9.082)" fill="none" stroke="#808285" stroke-linecap="round" stroke-linejoin="round" stroke-width="1"/>
      <path id="Trazado_602085" data-name="Trazado 602085" d="M405.634,56.4l1.823-1.823-1.823-1.823" transform="translate(-349.818 -45.499)" fill="none" stroke="#808285" stroke-linecap="round" stroke-linejoin="round" stroke-width="1"/>
      <path id="Trazado_602086" data-name="Trazado 602086" d="M201.745,50.946a2.4,2.4,0,1,1-2.4-2.4,2.4,2.4,0,0,1,2.4,2.4" transform="translate(-169.84 -41.863)" fill="#29ab7f"/>
      <path id="Trazado_602087" data-name="Trazado 602087" d="M136.221,50.946a2.4,2.4,0,1,1-2.4-2.4,2.4,2.4,0,0,1,2.4,2.4" transform="translate(-113.332 -41.863)" fill="#f4b11d"/>
      <path id="Trazado_602088" data-name="Trazado 602088" d="M70.7,50.946a2.4,2.4,0,1,1-2.4-2.4,2.4,2.4,0,0,1,2.4,2.4" transform="translate(-56.824 -41.863)" fill="#eb3e56"/>
      <path id="Trazado_602089" data-name="Trazado 602089" d="M645.556,45.73H466.867a3.849,3.849,0,1,1,0-7.7H645.556a3.849,3.849,0,1,1,0,7.7" transform="translate(-399.306 -32.799)" fill="#fff"/>
      <path id="Trazado_602090" data-name="Trazado 602090" d="M1776.465,53.984a1.289,1.289,0,1,1-1.289-1.289A1.289,1.289,0,0,1,1776.465,53.984Z" transform="translate(-1529.799 -45.444)" fill="none" stroke="#808285" stroke-linecap="round" stroke-linejoin="round" stroke-width="1"/>
      <line id="Línea_1984" data-name="Línea 1984" x1="1.45" y1="1.45" transform="translate(246.168 9.564)" fill="none" stroke="#808285" stroke-linecap="round" stroke-linejoin="round" stroke-width="1"/>
      <path id="Trazado_602091" data-name="Trazado 602091" d="M1851.106,37.386a.676.676,0,1,1-.676-.676.675.675,0,0,1,.676.676" transform="translate(-1595.228 -31.659)" fill="#fff"/>
      <path id="Trazado_602092" data-name="Trazado 602092" d="M1851.106,61.909a.676.676,0,1,1-.676-.676.675.675,0,0,1,.676.676" transform="translate(-1595.228 -52.807)" fill="#fff"/>
      <path id="Trazado_602093" data-name="Trazado 602093" d="M1851.106,86.433a.676.676,0,1,1-.676-.676.675.675,0,0,1,.676.676" transform="translate(-1595.228 -73.957)" fill="#fff"/>
    </g>
  </g>
  <g id="Grupo_887847" data-name="Grupo 887847" transform="translate(6.71 27.536)">
    <g id="Grupo_887839" data-name="Grupo 887839" clip-path="url(#clip-path-2)">
      <path id="Trazado_602015" data-name="Trazado 602015" d="M84.75,159.659H47.8a1.888,1.888,0,0,1-1.888-1.888V36.1A1.888,1.888,0,0,1,47.8,34.207H84.75A1.889,1.889,0,0,1,86.638,36.1V157.771a1.888,1.888,0,0,1-1.888,1.888" transform="translate(-35.089 -26.141)" fill="#3b4152"/>
      <path id="Trazado_602016" data-name="Trazado 602016" d="M84.545,72.437H68.4a.662.662,0,0,1-.662-.662V70.4a.662.662,0,0,1,.662-.662H84.544a.662.662,0,0,1,.662.662v1.377a.662.662,0,0,1-.662.662" transform="translate(-51.766 -53.294)" fill="#fff"/>
      <path id="Trazado_602017" data-name="Trazado 602017" d="M93.223,98.423H68.4a.662.662,0,0,1-.662-.662V96.385a.662.662,0,0,1,.662-.662H93.223a.662.662,0,0,1,.662.662v1.377a.662.662,0,0,1-.662.662" transform="translate(-51.765 -73.153)" fill="#fff"/>
      <path id="Trazado_602018" data-name="Trazado 602018" d="M88.718,124.408H68.4a.662.662,0,0,1-.662-.662V122.37a.662.662,0,0,1,.662-.662h20.32a.662.662,0,0,1,.662.662v1.377a.662.662,0,0,1-.662.662" transform="translate(-51.765 -93.011)" fill="#fff"/>
      <path id="Trazado_602019" data-name="Trazado 602019" d="M77.961,150.394H68.337a.6.6,0,0,1-.6-.6v-1.5a.6.6,0,0,1,.6-.6h9.624a.6.6,0,0,1,.6.6v1.5a.6.6,0,0,1-.6.6" transform="translate(-51.766 -112.869)" fill="#fff"/>
      <path id="Trazado_602020" data-name="Trazado 602020" d="M81.468,176.381H68.4a.662.662,0,0,1-.662-.662v-1.377a.662.662,0,0,1,.662-.662H81.468a.662.662,0,0,1,.662.662v1.377a.662.662,0,0,1-.662.662" transform="translate(-51.765 -132.729)" fill="#fff"/>
      <path id="Trazado_602021" data-name="Trazado 602021" d="M87.4,202.367h-19a.662.662,0,0,1-.662-.662v-1.377a.662.662,0,0,1,.662-.662h19a.662.662,0,0,1,.662.662v1.377a.662.662,0,0,1-.662.662" transform="translate(-51.766 -152.588)" fill="#fff"/>
      <path id="Trazado_602022" data-name="Trazado 602022" d="M81.468,228.353H68.4a.661.661,0,0,1-.662-.662v-1.377a.662.662,0,0,1,.662-.662H81.468a.661.661,0,0,1,.662.662v1.377a.661.661,0,0,1-.662.662" transform="translate(-51.766 -172.447)" fill="#fff"/>
      <path id="Trazado_602023" data-name="Trazado 602023" d="M93.993,254.339H68.4a.662.662,0,0,1-.662-.662V252.3a.662.662,0,0,1,.662-.662H93.993a.662.662,0,0,1,.662.662v1.377a.662.662,0,0,1-.662.662" transform="translate(-51.766 -192.306)" fill="#fff"/>
      <path id="Trazado_602024" data-name="Trazado 602024" d="M84.653,280.325H68.4a.661.661,0,0,1-.662-.662v-1.377a.662.662,0,0,1,.662-.662H84.654a.662.662,0,0,1,.662.662v1.377a.662.662,0,0,1-.662.662" transform="translate(-51.765 -212.164)" fill="#fff"/>
      <path id="Trazado_602025" data-name="Trazado 602025" d="M94.651,306.311H68.4a.662.662,0,0,1-.662-.662v-1.377a.662.662,0,0,1,.662-.662H94.651a.662.662,0,0,1,.662.662v1.377a.662.662,0,0,1-.662.662" transform="translate(-51.765 -232.023)" fill="#fff"/>
      <path id="Trazado_602026" data-name="Trazado 602026" d="M86.3,332.3H68.4a.662.662,0,0,1-.662-.662V330.26a.662.662,0,0,1,.662-.662H86.3a.662.662,0,0,1,.662.662v1.377a.662.662,0,0,1-.662.662" transform="translate(-51.765 -251.883)" fill="#fff"/>
      <path id="Trazado_602027" data-name="Trazado 602027" d="M78.548,358.283H68.353a.615.615,0,0,1-.615-.615V356.2a.615.615,0,0,1,.615-.616H78.548a.616.616,0,0,1,.616.616v1.469a.616.616,0,0,1-.615.615" transform="translate(-51.766 -271.741)" fill="#fff"/>
      <path id="Trazado_602028" data-name="Trazado 602028" d="M289.732,72.437h-28.12a.662.662,0,0,1-.662-.662V70.4a.662.662,0,0,1,.662-.662h28.12a.662.662,0,0,1,.662.662v1.377a.662.662,0,0,1-.662.662" transform="translate(-199.421 -53.294)" fill="#fff"/>
      <path id="Trazado_602029" data-name="Trazado 602029" d="M277.074,94.9H259.281a.662.662,0,0,1-.662-.662V92.861a.662.662,0,0,1,.662-.662h17.793a.662.662,0,0,1,.661.662v1.377a.662.662,0,0,1-.662.662" transform="translate(-197.64 -70.46)" fill="#fff"/>
      <path id="Trazado_602030" data-name="Trazado 602030" d="M313.884,120H296.091a.662.662,0,0,1-.662-.662v-1.377a.662.662,0,0,1,.662-.662h17.793a.661.661,0,0,1,.662.661v1.377a.662.662,0,0,1-.662.662" transform="translate(-225.77 -89.646)" fill="#fff"/>
      <path id="Trazado_602031" data-name="Trazado 602031" d="M356.982,142.907H333.367a.662.662,0,0,1-.662-.662v-1.377a.662.662,0,0,1,.662-.662h23.616a.662.662,0,0,1,.662.662v1.377a.662.662,0,0,1-.662.662" transform="translate(-254.257 -107.148)" fill="#fff"/>
      <path id="Trazado_602032" data-name="Trazado 602032" d="M350.641,165.811H331.969a.662.662,0,0,1-.662-.662v-1.377a.662.662,0,0,1,.662-.662h18.672a.662.662,0,0,1,.662.662v1.377a.662.662,0,0,1-.662.662" transform="translate(-253.189 -124.651)" fill="#fff"/>
      <path id="Trazado_602033" data-name="Trazado 602033" d="M314.6,235.841H294.227a.662.662,0,0,1-.662-.662V233.8a.662.662,0,0,1,.662-.662H314.6a.662.662,0,0,1,.662.662v1.377a.662.662,0,0,1-.662.662" transform="translate(-224.346 -178.169)" fill="#fff"/>
      <path id="Trazado_602034" data-name="Trazado 602034" d="M387.5,283.408H370.642a.662.662,0,0,1-.662-.662V281.37a.662.662,0,0,1,.662-.662H387.5a.662.662,0,0,1,.662.662v1.377a.661.661,0,0,1-.662.662" transform="translate(-282.743 -214.52)" fill="#fff"/>
      <path id="Trazado_602035" data-name="Trazado 602035" d="M424.561,307.192H405.743a.662.662,0,0,1-.662-.662v-1.377a.662.662,0,0,1,.662-.662h18.818a.662.662,0,0,1,.662.662v1.377a.662.662,0,0,1-.662.662" transform="translate(-309.568 -232.696)" fill="#9d79b5"/>
      <path id="Trazado_602036" data-name="Trazado 602036" d="M388.218,354.759H369.4a.661.661,0,0,1-.662-.662v-1.377a.662.662,0,0,1,.662-.662h18.819a.662.662,0,0,1,.662.662V354.1a.661.661,0,0,1-.662.662" transform="translate(-281.794 -269.048)" fill="#fff"/>
      <path id="Trazado_602037" data-name="Trazado 602037" d="M356.715,402.328H334.454a.662.662,0,0,1-.662-.662V400.29a.662.662,0,0,1,.662-.662h22.261a.662.662,0,0,1,.662.662v1.377a.662.662,0,0,1-.662.662" transform="translate(-255.088 -305.401)" fill="#fff"/>
      <path id="Trazado_602038" data-name="Trazado 602038" d="M471.337,402.328H449.077a.662.662,0,0,1-.662-.662V400.29a.662.662,0,0,1,.662-.662h22.261a.662.662,0,0,1,.662.662v1.377a.661.661,0,0,1-.662.662" transform="translate(-342.684 -305.401)" fill="#f48e8e"/>
      <path id="Trazado_602039" data-name="Trazado 602039" d="M591.783,402.328H563.7a.662.662,0,0,1-.662-.662V400.29a.662.662,0,0,1,.662-.662h28.083a.662.662,0,0,1,.662.662v1.377a.662.662,0,0,1-.662.662" transform="translate(-430.28 -305.401)" fill="#9d79b5"/>
      <path id="Trazado_602040" data-name="Trazado 602040" d="M429.613,330.976H405.045a.662.662,0,0,1-.662-.662v-1.377a.662.662,0,0,1,.662-.662h24.568a.662.662,0,0,1,.662.662v1.377a.662.662,0,0,1-.662.662" transform="translate(-309.034 -250.872)" fill="#fff"/>
      <path id="Trazado_602041" data-name="Trazado 602041" d="M628.548,330.976H575.581a.662.662,0,0,1-.662-.662v-1.377a.662.662,0,0,1,.662-.662h52.968a.662.662,0,0,1,.662.662v1.377a.662.662,0,0,1-.662.662" transform="translate(-439.36 -250.872)" fill="#fff"/>
      <path id="Trazado_602042" data-name="Trazado 602042" d="M651.943,307.192H633.125a.662.662,0,0,1-.662-.662v-1.377a.662.662,0,0,1,.662-.662h18.819a.662.662,0,0,1,.662.662v1.377a.662.662,0,0,1-.662.662" transform="translate(-483.336 -232.696)" fill="#9d79b5"/>
      <path id="Trazado_602043" data-name="Trazado 602043" d="M531.95,307.192H504.479a.662.662,0,0,1-.662-.662v-1.377a.662.662,0,0,1,.662-.662H531.95a.662.662,0,0,1,.662.662v1.377a.662.662,0,0,1-.662.662" transform="translate(-385.023 -232.696)" fill="#f48e8e"/>
      <path id="Trazado_602044" data-name="Trazado 602044" d="M588.789,283.408H571.93a.662.662,0,0,1-.662-.662V281.37a.662.662,0,0,1,.662-.662h16.859a.662.662,0,0,1,.662.661v1.377a.662.662,0,0,1-.662.662" transform="translate(-436.57 -214.52)" fill="#fff"/>
      <path id="Trazado_602045" data-name="Trazado 602045" d="M483.629,283.408H464.3a.662.662,0,0,1-.662-.662V281.37a.662.662,0,0,1,.662-.662h19.331a.662.662,0,0,1,.662.662v1.377a.662.662,0,0,1-.662.662" transform="translate(-354.316 -214.52)" fill="#f48e8e"/>
      <path id="Trazado_602046" data-name="Trazado 602046" d="M364.84,259.625H332.435a.662.662,0,0,1-.662-.662v-1.377a.662.662,0,0,1,.662-.662H364.84a.661.661,0,0,1,.662.662v1.377a.662.662,0,0,1-.662.662" transform="translate(-253.545 -196.345)" fill="#fff"/>
      <path id="Trazado_602047" data-name="Trazado 602047" d="M501.52,259.625h-8.432a.563.563,0,0,1-.563-.563v-1.574a.563.563,0,0,1,.563-.563h8.432a.563.563,0,0,1,.563.563v1.574a.563.563,0,0,1-.563.563" transform="translate(-376.393 -196.345)" fill="#1d9bc2"/>
      <path id="Trazado_602048" data-name="Trazado 602048" d="M346.625,378.544H334.764a.661.661,0,0,1-.661-.661v-1.378a.661.661,0,0,1,.661-.661h11.861a.661.661,0,0,1,.661.661v1.378a.661.661,0,0,1-.661.661" transform="translate(-255.326 -287.224)" fill="#fff"/>
      <path id="Trazado_602049" data-name="Trazado 602049" d="M383.421,423.029H369.4a.662.662,0,0,1-.662-.662V420.99a.662.662,0,0,1,.662-.661h14.021a.662.662,0,0,1,.662.662v1.377a.662.662,0,0,1-.662.662" transform="translate(-281.794 -321.22)" fill="#fff"/>
      <path id="Trazado_602050" data-name="Trazado 602050" d="M347.706,446.812H334.454a.662.662,0,0,1-.662-.662v-1.377a.661.661,0,0,1,.662-.662h13.252a.662.662,0,0,1,.662.662v1.377a.662.662,0,0,1-.662.662" transform="translate(-255.088 -339.396)" fill="#fff"/>
      <path id="Trazado_602051" data-name="Trazado 602051" d="M345.066,470.6H331.814a.661.661,0,0,1-.662-.662v-1.377a.662.662,0,0,1,.662-.662h13.252a.662.662,0,0,1,.662.662v1.377a.662.662,0,0,1-.662.662" transform="translate(-253.07 -357.572)" fill="#fff"/>
      <path id="Trazado_602052" data-name="Trazado 602052" d="M388.914,493.94H369.4a.662.662,0,0,1-.662-.662V491.9a.662.662,0,0,1,.662-.662h19.514a.662.662,0,0,1,.662.662v1.377a.662.662,0,0,1-.662.662" transform="translate(-281.794 -375.412)" fill="#fff"/>
      <path id="Trazado_602053" data-name="Trazado 602053" d="M422.093,517.283H369.4a.662.662,0,0,1-.662-.662v-1.377a.662.662,0,0,1,.662-.662h52.693a.662.662,0,0,1,.662.662v1.377a.662.662,0,0,1-.662.662" transform="translate(-281.794 -393.251)" fill="#fff"/>
      <path id="Trazado_602054" data-name="Trazado 602054" d="M475.947,493.94h25.7a.662.662,0,0,0,.662-.662V491.9a.662.662,0,0,0-.662-.662h-25.7a.662.662,0,0,0-.662.662v1.377a.662.662,0,0,0,.662.662" transform="translate(-363.219 -375.412)" fill="#f48e8e"/>
      <path id="Trazado_602055" data-name="Trazado 602055" d="M645.589,517.283h36.461a.662.662,0,0,0,.662-.662v-1.377a.662.662,0,0,0-.662-.662H645.589a.662.662,0,0,0-.662.662v1.377a.661.661,0,0,0,.662.662" transform="translate(-492.861 -393.251)" fill="#fff"/>
      <path id="Trazado_602056" data-name="Trazado 602056" d="M605.013,493.94H619.18a.662.662,0,0,0,.662-.662V491.9a.662.662,0,0,0-.662-.662H605.013a.662.662,0,0,0-.662.662v1.377a.662.662,0,0,0,.662.662" transform="translate(-461.852 -375.412)" fill="#fbf393"/>
      <path id="Trazado_602057" data-name="Trazado 602057" d="M435.068,470.6H412.112a.661.661,0,0,1-.662-.662v-1.377a.662.662,0,0,1,.662-.662h22.957a.662.662,0,0,1,.662.662v1.377a.662.662,0,0,1-.662.662" transform="translate(-314.435 -357.572)" fill="#f48e8e"/>
      <path id="Trazado_602058" data-name="Trazado 602058" d="M544.58,470.6H527.666a.662.662,0,0,1-.662-.662v-1.376a.662.662,0,0,1,.662-.662H544.58a.662.662,0,0,1,.662.662v1.377a.662.662,0,0,1-.662.662" transform="translate(-402.743 -357.572)" fill="#2bb99b"/>
      <path id="Trazado_602059" data-name="Trazado 602059" d="M634.813,470.6h-7.486a.532.532,0,0,1-.532-.532v-1.635a.533.533,0,0,1,.532-.533h7.486a.533.533,0,0,1,.532.533v1.635a.532.532,0,0,1-.532.532" transform="translate(-479.004 -357.572)" fill="#1d9bc2"/>
      <path id="Trazado_602060" data-name="Trazado 602060" d="M531.106,423.029H449.843a1.352,1.352,0,1,1,0-2.7h81.263a1.352,1.352,0,1,1,0,2.7" transform="translate(-342.684 -321.22)" fill="#fff"/>
      <path id="Trazado_602061" data-name="Trazado 602061" d="M670.036,283.408H662.79a.662.662,0,0,1-.662-.662V281.37a.662.662,0,0,1,.662-.662h7.246a.661.661,0,0,1,.662.662v1.377a.661.661,0,0,1-.662.662" transform="translate(-506.006 -214.52)" fill="#1d9bc2"/>
      <path id="Trazado_602062" data-name="Trazado 602062" d="M534.446,330.976H527.2a.662.662,0,0,1-.662-.662v-1.377a.662.662,0,0,1,.662-.662h7.246a.662.662,0,0,1,.662.662v1.377a.662.662,0,0,1-.662.662" transform="translate(-402.387 -250.872)" fill="#fff"/>
      <path id="Trazado_602063" data-name="Trazado 602063" d="M741.626,307.192h-6.77a.662.662,0,0,1-.662-.662v-1.377a.662.662,0,0,1,.662-.662h6.77a.662.662,0,0,1,.662.662v1.377a.662.662,0,0,1-.662.662" transform="translate(-561.081 -232.696)" fill="#1d9bc2"/>
      <path id="Trazado_602064" data-name="Trazado 602064" d="M458.007,235.841H409.782a.662.662,0,0,1-.662-.662V233.8a.662.662,0,0,1,.662-.662h48.225a.661.661,0,0,1,.662.662v1.377a.661.661,0,0,1-.662.662" transform="translate(-312.654 -178.169)" fill="#fff"/>
      <path id="Trazado_602065" data-name="Trazado 602065" d="M307.3,213.819H294.227a.662.662,0,0,1-.662-.662V211.78a.662.662,0,0,1,.662-.661H307.3a.662.662,0,0,1,.662.662v1.377a.661.661,0,0,1-.662.662" transform="translate(-224.346 -161.34)" fill="#fff"/>
      <path id="Trazado_602066" data-name="Trazado 602066" d="M671.376,165.811H663.15a.556.556,0,0,1-.556-.556v-1.587a.556.556,0,0,1,.556-.556h8.226a.556.556,0,0,1,.556.556v1.587a.556.556,0,0,1-.556.556" transform="translate(-506.362 -124.651)" fill="#f7f081"/>
      <path id="Trazado_602067" data-name="Trazado 602067" d="M773.418,94.9h-8.226a.556.556,0,0,1-.556-.556V92.755a.557.557,0,0,1,.557-.556h8.225a.556.556,0,0,1,.556.556v1.587a.557.557,0,0,1-.556.556" transform="translate(-584.344 -70.46)" fill="#2bb99b"/>
      <path id="Trazado_602068" data-name="Trazado 602068" d="M732.31,165.811H710.782a.662.662,0,0,1-.662-.662v-1.377a.662.662,0,0,1,.662-.662H732.31a.661.661,0,0,1,.661.662v1.377a.661.661,0,0,1-.661.662" transform="translate(-542.682 -124.651)" fill="#f48e8e"/>
      <path id="Trazado_602069" data-name="Trazado 602069" d="M486.812,165.811H439.136a.662.662,0,0,1-.662-.662v-1.377a.662.662,0,0,1,.662-.662h47.676a.662.662,0,0,1,.662.662v1.377a.662.662,0,0,1-.662.662" transform="translate(-335.087 -124.651)" fill="#f48e8e"/>
      <path id="Trazado_602070" data-name="Trazado 602070" d="M382.857,188.713H332.435a.662.662,0,0,1-.662-.662v-1.377a.662.662,0,0,1,.662-.662h50.423a.662.662,0,0,1,.662.662v1.377a.662.662,0,0,1-.662.662" transform="translate(-253.545 -142.153)" fill="#fff"/>
      <path id="Trazado_602071" data-name="Trazado 602071" d="M472.495,142.907H455.911a.662.662,0,0,1-.662-.662v-1.377a.662.662,0,0,1,.662-.662H472.5a.662.662,0,0,1,.662.662v1.377a.662.662,0,0,1-.662.662" transform="translate(-347.907 -107.148)" fill="#f48e8e"/>
      <path id="Trazado_602072" data-name="Trazado 602072" d="M426.449,94.9H370.643a.662.662,0,0,1-.662-.662V92.861a.662.662,0,0,1,.662-.662h55.806a.662.662,0,0,1,.662.662v1.377a.662.662,0,0,1-.662.662" transform="translate(-282.744 -70.46)" fill="#f48e8e"/>
      <path id="Trazado_602073" data-name="Trazado 602073" d="M653.118,94.9H635.765a.662.662,0,0,1-.662-.662V92.861a.662.662,0,0,1,.662-.662h17.354a.662.662,0,0,1,.662.662v1.377a.662.662,0,0,1-.662.662" transform="translate(-485.353 -70.46)" fill="#fff"/>
      <path id="Trazado_602074" data-name="Trazado 602074" d="M35.936,604.617a1.128,1.128,0,1,1-1.126-1.064,1.1,1.1,0,0,1,1.126,1.064" transform="translate(-25.742 -461.242)" fill="#fff"/>
      <path id="Trazado_602075" data-name="Trazado 602075" d="M51.97,604.617a1.128,1.128,0,1,1-1.126-1.064,1.1,1.1,0,0,1,1.126,1.064" transform="translate(-37.995 -461.242)" fill="#fff"/>
      <path id="Trazado_602076" data-name="Trazado 602076" d="M68,604.617a1.128,1.128,0,1,1-1.126-1.064A1.1,1.1,0,0,1,68,604.617" transform="translate(-50.248 -461.242)" fill="#fff"/>
    </g>
  </g>
</svg>
