<svg xmlns="http://www.w3.org/2000/svg" width="398.857" height="254.264" viewBox="0 0 398.857 254.264">
  <g id="Grupo_889518" data-name="Grupo 889518" transform="translate(-159.98 -103.65)">
    <path id="Trazado_604407" data-name="Trazado 604407" d="M150.852,0C234.166,0,301.7,13.21,301.7,29.505S234.166,59.01,150.852,59.01,0,45.8,0,29.505,67.539,0,150.852,0Z" transform="translate(207.009 298.904)" fill="#cbdef4"/>
    <g id="Grupo_889454" data-name="Grupo 889454" transform="translate(219.282 295.106)">
      <path id="Trazado_604330" data-name="Trazado 604330" d="M632.786,1477.149s.687-1.328,3.563-1.251a4.577,4.577,0,0,1,.721.075c-1.024-1.051-1.933-2.083-2.744-3.088a2.155,2.155,0,0,1-.229.14l-.018-.031a3.75,3.75,0,0,1-2.344.274c-3.048-.478-3.265-1.9-3.265-1.9s.961-1.145,3.75-.441a4.462,4.462,0,0,1,.835.3c-.654-.9-1.226-1.771-1.728-2.6a2.46,2.46,0,0,1-.315.126l-.012-.033a3.676,3.676,0,0,1-2.308-.155c-2.852-1.006-2.807-2.412-2.807-2.412s1.131-.932,3.693.246a4.357,4.357,0,0,1,.73.42c-.479-.917-.867-1.767-1.18-2.536l-.022.006-.01-.034a3.676,3.676,0,0,1-2.3-.282c-2.792-1.162-2.669-2.564-2.669-2.564s1.181-.868,3.674.449a4.5,4.5,0,0,1,.584.366c-.147-.477-.256-.89-.337-1.229a4.553,4.553,0,0,1-1.645-2.682c-.645-2.822.529-3.763.529-3.763s1.423.251,1.834,3.328a4.829,4.829,0,0,1-.393,2.748,19.262,19.262,0,0,0,.611,2.156l.034.039a4.879,4.879,0,0,1,.517-1.655c1.29-2.507,2.755-2.471,2.755-2.471s.9,1.079-.722,3.63a4.675,4.675,0,0,1-2.07,1.824,29.65,29.65,0,0,0,1.371,2.886,4.923,4.923,0,0,1,.4-1.424c1.15-2.575,2.615-2.62,2.615-2.62s.961,1.028-.52,3.665a4.786,4.786,0,0,1-1.69,1.783c.559.925,1.208,1.9,1.961,2.911a5.026,5.026,0,0,1,.135-1.522c.674-2.8,2.135-3.115,2.135-3.115s1.155.852.161,3.773a4.856,4.856,0,0,1-1.426,2.159,44.485,44.485,0,0,0,3.235,3.577l.022.009a4.981,4.981,0,0,1-.276-1.747c.046-2.876,1.4-3.506,1.4-3.506s1.314.579.983,3.646a4.774,4.774,0,0,1-1.076,2.614c1.152,1.079,2.425,2.17,3.836,3.264a.2.2,0,0,1,.036.281.216.216,0,0,1-.026.028.2.2,0,0,1-.255.008c-1.423-1.1-2.708-2.2-3.87-3.294l-.011.01-.024-.026a3.749,3.749,0,0,1-2.227.781C633.308,1478.487,632.786,1477.149,632.786,1477.149Z" transform="translate(-617.65 -1454.548)" fill="#f1334f"/>
      <path id="Trazado_604331" data-name="Trazado 604331" d="M595.639,1558.564s-.144-1.488,2.313-2.985a4.555,4.555,0,0,1,.646-.328c-1.43-.327-2.754-.7-3.981-1.1a2.148,2.148,0,0,1-.116.242l-.032-.016a3.749,3.749,0,0,1-1.82,1.5c-2.82,1.253-3.772.179-3.772.179s.185-1.484,2.91-2.406a4.442,4.442,0,0,1,.863-.2c-1.038-.4-1.992-.822-2.864-1.248a2.423,2.423,0,0,1-.2.276l-.028-.021a3.675,3.675,0,0,1-2.023,1.123c-2.941.7-3.667-.5-3.667-.5s.444-1.4,3.235-1.8a4.375,4.375,0,0,1,.841-.043c-.9-.511-1.687-1.014-2.368-1.489l-.016.017-.027-.023a3.677,3.677,0,0,1-2.082,1.009c-2.976.54-3.634-.7-3.634-.7s.52-1.37,3.329-1.617a4.49,4.49,0,0,1,.689-.009c-.383-.321-.7-.608-.95-.849a4.551,4.551,0,0,1-2.838-1.359c-2.073-2.02-1.6-3.448-1.6-3.448s1.331-.562,3.347,1.8a4.829,4.829,0,0,1,1.162,2.521,19.27,19.27,0,0,0,1.684,1.479l.05.015a4.887,4.887,0,0,1-.464-1.67c-.277-2.806.973-3.571.973-3.571s1.344.416,1.365,3.44a4.676,4.676,0,0,1-.749,2.656,29.691,29.691,0,0,0,2.718,1.68,4.929,4.929,0,0,1-.437-1.412c-.432-2.787.774-3.62.774-3.62s1.365.342,1.553,3.36a4.788,4.788,0,0,1-.451,2.415c.971.473,2.046.939,3.227,1.381a5.018,5.018,0,0,1-.713-1.352c-.952-2.715.1-3.775.1-3.775s1.433.088,2.183,3.081a4.862,4.862,0,0,1-.026,2.588,44.479,44.479,0,0,0,4.658,1.248l.023,0a4.978,4.978,0,0,1-1.18-1.317c-1.523-2.441-.726-3.706-.726-3.706s1.418-.227,2.8,2.529a4.771,4.771,0,0,1,.516,2.78c1.553.281,3.215.506,4.993.659a.2.2,0,0,1,.183.216.22.22,0,0,1-.007.037.2.2,0,0,1-.21.145c-1.793-.153-3.471-.381-5.038-.666l0,.015-.035-.009a3.747,3.747,0,0,1-1.447,1.865C596.8,1559.4,595.639,1558.564,595.639,1558.564Z" transform="translate(-578.409 -1530.207)" fill="#f1334f"/>
    </g>
    <g id="man" transform="translate(182.247 111.392)">
      <g id="Grupo_889457" data-name="Grupo 889457" transform="translate(0 0)">
        <g id="Grupo_889455" data-name="Grupo 889455">
          <path id="Trazado_604334" data-name="Trazado 604334" d="M324.085,172.261a6.993,6.993,0,1,1,6.993-6.994A7,7,0,0,1,324.085,172.261Zm0-10.5a3.507,3.507,0,1,0,3.507,3.507A3.511,3.511,0,0,0,324.085,161.76Z" transform="translate(-317.092 -158.274)" fill="#26aab7"/>
        </g>
        <g id="Grupo_889456" data-name="Grupo 889456" transform="translate(163.294 14.193)">
          <path id="Trazado_604335" data-name="Trazado 604335" d="M1476.276,272.4a6.993,6.993,0,1,1,6.993-6.994A7,7,0,0,1,1476.276,272.4Zm0-10.5a3.507,3.507,0,1,0,3.507,3.507A3.511,3.511,0,0,0,1476.276,261.9Z" transform="translate(-1469.283 -258.417)" fill="#fb8c00"/>
        </g>
        <path id="Trazado_604336" data-name="Trazado 604336" d="M1779.527,474.03h-3.392v-3.1c0-.508-.672-.92-1.5-.92h0c-.829,0-1.5.412-1.5.92v3.1h-3.392c-.54,0-.977.672-.977,1.5h0c0,.829.438,1.5.977,1.5h3.392v3.1c0,.508.672.92,1.5.92h0c.829,0,1.5-.412,1.5-.92v-3.1h3.392c.54,0,.977-.672.977-1.5h0C1780.5,474.7,1780.066,474.03,1779.527,474.03Z" transform="translate(-1563.025 -425.826)" fill="#f1334f"/>
        <path id="Trazado_604337" data-name="Trazado 604337" d="M1131.521,558.144h-2.13V556.2c0-.319-.422-.578-.943-.578h0c-.521,0-.943.259-.943.578v1.949h-2.13c-.339,0-.614.422-.614.943h0c0,.521.275.943.614.943h2.13v1.949c0,.319.422.577.943.577h0c.521,0,.943-.259.943-.577V560.03h2.13c.339,0,.614-.422.614-.943h0C1132.135,558.566,1131.86,558.144,1131.521,558.144Z" transform="translate(-1010.296 -499.304)" fill="#f9b653"/>
      </g>
      <g id="Grupo_889460" data-name="Grupo 889460" transform="translate(211.956 126.991)">
        <g id="Grupo_889458" data-name="Grupo 889458" transform="translate(0 111.04)">
          <path id="Trazado_604338" data-name="Trazado 604338" d="M1818.615,1839.537a3.159,3.159,0,1,1-4.246-1.392A3.163,3.163,0,0,1,1818.615,1839.537Zm-1.405.712a1.584,1.584,0,1,0-.7,2.129A1.587,1.587,0,0,0,1817.209,1840.248Z" transform="translate(-1812.637 -1837.805)" fill="#f9b653"/>
        </g>
        <g id="Grupo_889459" data-name="Grupo 889459" transform="translate(111.552)">
          <path id="Trazado_604339" data-name="Trazado 604339" d="M2610,1057.287a5.425,5.425,0,1,1-7.291-2.39A5.431,5.431,0,0,1,2610,1057.287Zm-2.413,1.222a2.721,2.721,0,1,0-1.2,3.656A2.724,2.724,0,0,0,2607.589,1058.509Z" transform="translate(-2599.737 -1054.313)" fill="#f9b653"/>
        </g>
        <path id="Trazado_604340" data-name="Trazado 604340" d="M1910.541,1776.4l-1.9.962.88,1.739c.144.285-.116.706-.58.941h0c-.464.235-.958.2-1.1-.089l-.88-1.739-1.9.962c-.3.153-.738-.1-.973-.564h0c-.235-.464-.181-.965.122-1.118l1.9-.962-.88-1.739c-.144-.284.116-.706.58-.941h0c.464-.235.958-.2,1.1.089l.88,1.739,1.9-.962c.3-.153.738.1.974.564h0C1910.9,1775.751,1910.844,1776.252,1910.541,1776.4Z" transform="translate(-1891 -1671.748)" fill="#12375a"/>
        <path id="Trazado_604341" data-name="Trazado 604341" d="M2907.168,1299.874l-1.9.962.88,1.739c.144.285-.115.706-.58.941h0c-.464.235-.958.2-1.1-.089l-.88-1.739-1.9.962c-.3.153-.739-.1-.974-.564h0c-.235-.464-.18-.965.122-1.118l1.9-.962-.88-1.739c-.144-.285.116-.706.581-.941h0c.464-.235.958-.2,1.1.089l.88,1.739,1.9-.962c.3-.153.738.1.973.564h0C2907.525,1299.221,2907.471,1299.721,2907.168,1299.874Z" transform="translate(-2746.38 -1262.754)" fill="#12375a"/>
      </g>
      <g id="Grupo_889463" data-name="Grupo 889463" transform="translate(5.766 17.679)">
        <g id="Grupo_889461" data-name="Grupo 889461" transform="translate(325.638)">
          <path id="Trazado_604342" data-name="Trazado 604342" d="M2655.693,288.993a4.522,4.522,0,1,1,5.736,2.827A4.527,4.527,0,0,1,2655.693,288.993Zm2.135-.725a2.267,2.267,0,1,0,1.418-2.876A2.27,2.27,0,0,0,2657.828,288.268Z" transform="translate(-2655.452 -283.017)" fill="#f1334f"/>
        </g>
        <g id="Grupo_889462" data-name="Grupo 889462" transform="translate(3.565 176.087)">
          <path id="Trazado_604343" data-name="Trazado 604343" d="M383.236,1533.1a5.774,5.774,0,1,1,7.324,3.61A5.78,5.78,0,0,1,383.236,1533.1Zm2.726-.926a2.9,2.9,0,1,0,1.81-3.673A2.9,2.9,0,0,0,385.961,1532.178Z" transform="translate(-382.929 -1525.472)" fill="#fb8c00"/>
        </g>
        <path id="Trazado_604344" data-name="Trazado 604344" d="M2561.308,344.37l2.017-.685-.627-1.845c-.1-.3.214-.683.707-.85h0c.493-.167.976-.058,1.078.244l.627,1.845,2.017-.685c.321-.109.717.2.884.7h0c.168.493.043.981-.278,1.09l-2.016.685.626,1.845c.1.3-.214.683-.707.85h0c-.493.167-.976.058-1.078-.244l-.627-1.845-2.016.685c-.321.109-.717-.2-.884-.7h0C2560.862,344.967,2560.987,344.479,2561.308,344.37Z" transform="translate(-2248.71 -332.706)" fill="#12375a"/>
        <path id="Trazado_604345" data-name="Trazado 604345" d="M358.13,1048.586l2.016-.685-.627-1.845c-.1-.3.214-.682.707-.85h0c.493-.167.976-.058,1.078.244l.627,1.845,2.016-.685c.321-.109.717.2.884.7h0c.168.493.043.981-.278,1.09l-2.016.685.627,1.845c.1.3-.214.682-.707.85h0c-.493.167-.976.058-1.078-.243l-.627-1.846-2.016.685c-.321.109-.717-.2-.884-.7h0C357.684,1049.183,357.809,1048.7,358.13,1048.586Z" transform="translate(-357.777 -937.118)" fill="#12375a"/>
      </g>
    </g>
    <g id="cloud" transform="translate(254.141 106.224)">
      <path id="Trazado_604346" data-name="Trazado 604346" d="M924.786,138.51h-1.771a7.4,7.4,0,0,0-10.066-5.976,12.66,12.66,0,0,0-17.031-2.692,12.661,12.661,0,0,0-24.092,1.659,8.635,8.635,0,0,0-12.049,7.009h-3.468a.3.3,0,1,0,0,.61h68.477a.3.3,0,1,0,0-.61Z" transform="translate(-851.521 -121.811)" fill="#f87256"/>
      <path id="Trazado_604347" data-name="Trazado 604347" d="M1351.158,239.636h-1.313a.3.3,0,1,0,0,.61h1.313a.3.3,0,0,0,0-.61Z" transform="translate(-1275.111 -222.937)" fill="#f2334f"/>
      <path id="Trazado_604348" data-name="Trazado 604348" d="M827.462,239.636H824.68a.3.3,0,0,0,0,.61h2.783a.3.3,0,0,0,0-.61Z" transform="translate(-824.375 -222.937)" fill="#f2334f"/>
    </g>
    <g id="PHP_etc" data-name="PHP etc" transform="translate(159.98 103.651)">
      <g id="Grupo_889465" data-name="Grupo 889465" transform="translate(323.413 71.047)">
        <circle id="Elipse_8033" data-name="Elipse 8033" cx="13.362" cy="13.362" r="13.362" fill="#f87256"/>
        <g id="Grupo_889464" data-name="Grupo 889464" transform="translate(2.871 7.433)">
          <path id="Trazado_604349" data-name="Trazado 604349" d="M2462.218,676.92l6.869-3.538V674.4l-5.789,2.9v.03l5.789,2.9v1.022l-6.869-3.538Z" transform="translate(-2462.218 -671.117)" fill="#fff"/>
          <path id="Trazado_604350" data-name="Trazado 604350" d="M2517.478,668.133l4.13-10.733h1.007l-4.145,10.733Z" transform="translate(-2509.646 -657.4)" fill="#fff"/>
          <path id="Trazado_604351" data-name="Trazado 604351" d="M2567.175,677.734l-6.869,3.523v-1.022l5.833-2.9v-.03l-5.833-2.9v-1.022l6.869,3.523Z" transform="translate(-2546.405 -671.117)" fill="#fff"/>
        </g>
      </g>
      <g id="Grupo_889467" data-name="Grupo 889467" transform="translate(0 70.249)">
        <circle id="Elipse_8034" data-name="Elipse 8034" cx="12.1" cy="12.1" r="12.1" transform="translate(0 17.112) rotate(-45)" fill="#f1334f"/>
        <g id="Grupo_889466" data-name="Grupo 889466" transform="translate(7.826 12.998)">
          <path id="Trazado_604352" data-name="Trazado 604352" d="M221.393,698.9a5.281,5.281,0,0,1-2.265.456,3.746,3.746,0,0,1-3.926-4.024,4.007,4.007,0,0,1,4.236-4.187,4.791,4.791,0,0,1,1.988.407l-.326,1.108a3.325,3.325,0,0,0-1.662-.375,2.973,2.973,0,0,0-.049,5.931,4.072,4.072,0,0,0,1.76-.391Z" transform="translate(-215.202 -691.133)" fill="#fff"/>
          <path id="Trazado_604353" data-name="Trazado 604353" d="M267.174,697.633a3.754,3.754,0,0,0,1.89.57c1.043,0,1.531-.521,1.531-1.173,0-.684-.407-1.059-1.466-1.45-1.418-.505-2.085-1.287-2.085-2.232a2.432,2.432,0,0,1,2.721-2.313,3.936,3.936,0,0,1,1.939.489l-.359,1.043a3.069,3.069,0,0,0-1.613-.456c-.847,0-1.32.489-1.32,1.075,0,.652.473.945,1.5,1.336,1.368.521,2.069,1.206,2.069,2.379,0,1.385-1.075,2.362-2.949,2.362a4.5,4.5,0,0,1-2.216-.537Z" transform="translate(-259.5 -691.034)" fill="#fff"/>
          <path id="Trazado_604354" data-name="Trazado 604354" d="M312.7,697.633a3.755,3.755,0,0,0,1.89.57c1.043,0,1.531-.521,1.531-1.173,0-.684-.407-1.059-1.466-1.45-1.418-.505-2.085-1.287-2.085-2.232a2.432,2.432,0,0,1,2.721-2.313,3.936,3.936,0,0,1,1.939.489l-.358,1.043a3.07,3.07,0,0,0-1.613-.456c-.847,0-1.32.489-1.32,1.075,0,.652.473.945,1.5,1.336,1.368.521,2.069,1.206,2.069,2.379,0,1.385-1.075,2.362-2.949,2.362a4.5,4.5,0,0,1-2.216-.537Z" transform="translate(-298.571 -691.034)" fill="#fff"/>
        </g>
      </g>
      <g id="Grupo_889469" data-name="Grupo 889469" transform="translate(31.821 37.653)">
        <circle id="Elipse_8035" data-name="Elipse 8035" cx="16.236" cy="16.236" r="16.236" fill="#f9b653"/>
        <g id="Grupo_889468" data-name="Grupo 889468" transform="translate(3.883 12.796)">
          <path id="Trazado_604355" data-name="Trazado 604355" d="M413.5,459.614V462.3H416.1v-2.689h1.578v7H416.1v-2.928H413.5v2.928H411.91v-7Z" transform="translate(-411.91 -459.614)" fill="#fff"/>
          <path id="Trazado_604356" data-name="Trazado 604356" d="M460.532,460.943h-1.879v-1.329h5.378v1.329h-1.91v5.669h-1.588Z" transform="translate(-452.028 -459.614)" fill="#fff"/>
          <path id="Trazado_604357" data-name="Trazado 604357" d="M507.218,463.933c-.031-.841-.062-1.859-.062-2.876h-.031c-.218.893-.509,1.89-.779,2.71l-.851,2.731h-1.236l-.748-2.71c-.228-.82-.467-1.817-.633-2.731h-.021c-.042.945-.073,2.025-.125,2.9l-.125,2.658h-1.464l.447-7H503.7l.685,2.336c.218.81.436,1.682.592,2.5h.031c.2-.81.436-1.734.665-2.513l.748-2.326h2.066l.384,7h-1.547Z" transform="translate(-488.497 -459.614)" fill="#fff"/>
          <path id="Trazado_604358" data-name="Trazado 604358" d="M564.224,459.614h1.588v5.669H568.6v1.329h-4.371Z" transform="translate(-542.637 -459.614)" fill="#fff"/>
        </g>
      </g>
      <g id="Grupo_889472" data-name="Grupo 889472" transform="translate(350.965 97.009)">
        <g id="Grupo_889470" data-name="Grupo 889470" transform="translate(0 0)">
          <circle id="Elipse_8036" data-name="Elipse 8036" cx="16.932" cy="16.932" r="16.932" transform="translate(0 23.946) rotate(-45)" fill="#12375a"/>
        </g>
        <g id="Grupo_889471" data-name="Grupo 889471" transform="translate(13.706 19.903)">
          <path id="Trazado_604359" data-name="Trazado 604359" d="M2733.075,928.74a14.948,14.948,0,0,1,2.476-.169,3.887,3.887,0,0,1,2.477.649,2.368,2.368,0,0,1,.865,1.875,2.589,2.589,0,0,1-.745,1.923,3.756,3.756,0,0,1-2.633.854,4.613,4.613,0,0,1-.625-.036v2.9h-1.815Zm1.815,3.678a2.8,2.8,0,0,0,.613.048c.973,0,1.574-.493,1.574-1.322,0-.745-.517-1.19-1.43-1.19a3.111,3.111,0,0,0-.757.072Z" transform="translate(-2733.075 -928.571)" fill="#fff"/>
          <path id="Trazado_604360" data-name="Trazado 604360" d="M2784.2,929v3.113h3.017V929h1.827v8.1h-1.827v-3.39H2784.2v3.39h-1.839V929Z" transform="translate(-2775.372 -928.936)" fill="#fff"/>
          <path id="Trazado_604361" data-name="Trazado 604361" d="M2840.8,928.74a14.96,14.96,0,0,1,2.476-.169,3.886,3.886,0,0,1,2.477.649,2.369,2.369,0,0,1,.865,1.875,2.589,2.589,0,0,1-.745,1.923,3.756,3.756,0,0,1-2.633.854,4.615,4.615,0,0,1-.625-.036v2.9H2840.8Zm1.815,3.678a2.8,2.8,0,0,0,.613.048c.974,0,1.575-.493,1.575-1.322,0-.745-.517-1.19-1.431-1.19a3.115,3.115,0,0,0-.758.072Z" transform="translate(-2825.533 -928.571)" fill="#fff"/>
        </g>
      </g>
      <g id="Grupo_889475" data-name="Grupo 889475" transform="translate(280.692 0)">
        <g id="Grupo_889473" data-name="Grupo 889473">
          <circle id="Elipse_8037" data-name="Elipse 8037" cx="11.228" cy="11.228" r="11.228" fill="#26aab7"/>
        </g>
        <g id="Grupo_889474" data-name="Grupo 889474" transform="translate(5.633 7.929)">
          <path id="Trazado_604362" data-name="Trazado 604362" d="M2182.19,160.345h1.465v4.1c0,1.85-.887,2.5-2.312,2.5a3.818,3.818,0,0,1-1.07-.154l.164-1.185a2.416,2.416,0,0,0,.751.116c.617,0,1-.279,1-1.291Z" transform="translate(-2180.273 -160.239)" fill="#fff"/>
          <path id="Trazado_604363" data-name="Trazado 604363" d="M2211.3,164.684a3.751,3.751,0,0,0,1.629.4c.674,0,1.031-.279,1.031-.7,0-.4-.309-.636-1.089-.915-1.079-.376-1.782-.973-1.782-1.917,0-1.108.925-1.956,2.457-1.956a3.979,3.979,0,0,1,1.657.327l-.327,1.185a3.087,3.087,0,0,0-1.359-.309c-.636,0-.945.289-.945.627,0,.414.366.6,1.2.915,1.146.424,1.686,1.021,1.686,1.937,0,1.089-.838,2.014-2.621,2.014a4.249,4.249,0,0,1-1.84-.4Z" transform="translate(-2206.646 -159.597)" fill="#fff"/>
        </g>
      </g>
    </g>
    <g id="line" transform="translate(160.467 166.334)">
      <g id="Grupo_889476" data-name="Grupo 889476" transform="translate(299.724 32.886)">
        <path id="Trazado_604364" data-name="Trazado 604364" d="M2314.426,844.248h-36.173v-.581h35.592V777.982h.581Z" transform="translate(-2278.253 -777.982)" fill="#12375a"/>
      </g>
      <g id="Grupo_889488" data-name="Grupo 889488" transform="translate(0)">
        <g id="Grupo_889477" data-name="Grupo 889477" transform="translate(333.19 29.434)">
          <path id="Trazado_604365" data-name="Trazado 604365" d="M2516.8,758.462a2.42,2.42,0,1,1,2.421-2.421A2.424,2.424,0,0,1,2516.8,758.462Zm0-3.679a1.258,1.258,0,1,0,1.259,1.258A1.26,1.26,0,0,0,2516.8,754.783Z" transform="translate(-2514.384 -753.621)" fill="#12375a"/>
        </g>
        <g id="Grupo_889478" data-name="Grupo 889478" transform="translate(299.724 71.777)">
          <path id="Trazado_604366" data-name="Trazado 604366" d="M2353.243,1112.758h-74.99v-.581h74.409V1052.4h.581Z" transform="translate(-2278.253 -1052.396)" fill="#12375a"/>
        </g>
        <g id="Grupo_889487" data-name="Grupo 889487">
          <g id="Grupo_889479" data-name="Grupo 889479" transform="translate(16.334 34.906)">
            <path id="Trazado_604367" data-name="Trazado 604367" d="M340.308,858.158H278.67V792.232h.581v65.345h61.057Z" transform="translate(-278.67 -792.232)" fill="#12375a"/>
          </g>
          <g id="Grupo_889480" data-name="Grupo 889480" transform="translate(14.204 31.276)">
            <path id="Trazado_604368" data-name="Trazado 604368" d="M266.062,771.464a2.42,2.42,0,1,1,2.421-2.42A2.423,2.423,0,0,1,266.062,771.464Zm0-3.679a1.258,1.258,0,1,0,1.258,1.258A1.26,1.26,0,0,0,266.062,767.785Z" transform="translate(-263.642 -766.623)" fill="#12375a"/>
          </g>
          <g id="Grupo_889481" data-name="Grupo 889481" transform="translate(0 62.284)">
            <path id="Trazado_604369" data-name="Trazado 604369" d="M165.84,990.251a2.42,2.42,0,1,1,2.421-2.421A2.423,2.423,0,0,1,165.84,990.251Zm0-3.679a1.258,1.258,0,1,0,1.258,1.258A1.26,1.26,0,0,0,165.84,986.572Z" transform="translate(-163.419 -985.41)" fill="#12375a"/>
          </g>
          <g id="Grupo_889482" data-name="Grupo 889482" transform="translate(9.256 156.724)">
            <path id="Trazado_604370" data-name="Trazado 604370" d="M231.147,1656.611a2.42,2.42,0,1,1,2.421-2.42A2.423,2.423,0,0,1,231.147,1656.611Zm0-3.678a1.258,1.258,0,1,0,1.258,1.258A1.26,1.26,0,0,0,231.147,1652.933Z" transform="translate(-228.727 -1651.771)" fill="#12375a"/>
          </g>
          <g id="Grupo_889483" data-name="Grupo 889483" transform="translate(45.149)">
            <path id="Trazado_604371" data-name="Trazado 604371" d="M484.411,550.781a2.42,2.42,0,1,1,2.42-2.42A2.423,2.423,0,0,1,484.411,550.781Zm0-3.679a1.258,1.258,0,1,0,1.258,1.258A1.26,1.26,0,0,0,484.411,547.1Z" transform="translate(-481.99 -545.94)" fill="#12375a"/>
          </g>
          <g id="Grupo_889484" data-name="Grupo 889484" transform="translate(47.279 4.26)">
            <path id="Trazado_604372" data-name="Trazado 604372" d="M527.712,647.116H497.019V576h.581v70.54h30.112Z" transform="translate(-497.019 -575.995)" fill="#12375a"/>
          </g>
          <g id="Grupo_889485" data-name="Grupo 889485" transform="translate(11.386 123.222)">
            <path id="Trazado_604373" data-name="Trazado 604373" d="M244.338,1449.588h-.581v-34.2h66.586v.581H244.338Z" transform="translate(-243.757 -1415.386)" fill="#12375a"/>
          </g>
          <g id="Grupo_889486" data-name="Grupo 889486" transform="translate(2.13 66.447)">
            <path id="Trazado_604374" data-name="Trazado 604374" d="M190.414,1072.143H178.447v-57.356h.581v56.775h11.386Z" transform="translate(-178.447 -1014.787)" fill="#12375a"/>
          </g>
        </g>
      </g>
    </g>
    <g id="Grupo_889508" data-name="Grupo 889508" transform="translate(223.603 184.433)">
      <rect id="Rectángulo_301022" data-name="Rectángulo 301022" width="217.732" height="122.973" transform="translate(18.226 7.741)" fill="#343b3b"/>
      <g id="Grupo_889489" data-name="Grupo 889489" transform="translate(14.836)">
        <path id="Trazado_604375" data-name="Trazado 604375" d="M932.324,673.644H719.435a5.851,5.851,0,0,0-5.852,5.851V809.71a5.851,5.851,0,0,0,5.356,5.829c.164.014.329.022.5.022h41.648l1,2.059H887.16l1-2.059h44.16a5.85,5.85,0,0,0,5.852-5.851V679.5A5.851,5.851,0,0,0,932.324,673.644ZM825.88,675.208a2.167,2.167,0,1,1-2.167,2.167A2.168,2.168,0,0,1,825.88,675.208ZM933.718,803.8H717.961V681.942H933.718Z" transform="translate(-713.584 -673.644)" fill="#10202b"/>
      </g>
      <path id="Trazado_604376" data-name="Trazado 604376" d="M1492.808,689.015a2.167,2.167,0,1,0-2.168-2.167A2.168,2.168,0,0,0,1492.808,689.015Zm0-3.038a.871.871,0,1,1-.871.871A.871.871,0,0,1,1492.808,685.977Z" transform="translate(-1365.677 -683.116)" fill="#343b3b"/>
      <path id="Trazado_604377" data-name="Trazado 604377" d="M1500.662,695.572a.871.871,0,1,0-.871-.871A.871.871,0,0,0,1500.662,695.572Z" transform="translate(-1373.53 -690.969)" fill="#231f20"/>
      <path id="Trazado_604378" data-name="Trazado 604378" d="M744.469,732.2V854.054H960.226V732.2Z" transform="translate(-725.256 -723.898)" fill="#293949"/>
      <rect id="Rectángulo_301023" data-name="Rectángulo 301023" width="211.742" height="116.984" transform="translate(21.221 10.735)" fill="#12263f"/>
      <g id="Grupo_889490" data-name="Grupo 889490" transform="translate(21.221 10.735)">
        <rect id="Rectángulo_301024" data-name="Rectángulo 301024" width="211.742" height="9.061" fill="#0e2b44"/>
      </g>
      <g id="Grupo_889491" data-name="Grupo 889491" transform="translate(23.29 12.821)">
        <circle id="Elipse_8038" data-name="Elipse 8038" cx="1.904" cy="1.904" r="1.904" transform="translate(0 0.266) rotate(-3.17)" fill="#f1334f"/>
        <circle id="Elipse_8039" data-name="Elipse 8039" cx="1.904" cy="1.904" r="1.904" transform="translate(5.07 0.266) rotate(-3.17)" fill="#fff"/>
        <circle id="Elipse_8040" data-name="Elipse 8040" cx="1.904" cy="1.904" r="1.904" transform="translate(10.065 3.789) rotate(-84.345)" fill="#fff"/>
      </g>
      <g id="Grupo_889492" data-name="Grupo 889492" transform="translate(0 134.876)">
        <path id="Trazado_604379" data-name="Trazado 604379" d="M860.88,1625.318H611.715c-1.305,0-1.8,1.333-1.3,2.536,1.288,3.052,8.068,8.641,15.629,8.641h220.5c7.561,0,14.341-5.588,15.629-8.641C862.683,1626.651,862.185,1625.318,860.88,1625.318Z" transform="translate(-610.036 -1625.318)" fill="#10202b"/>
        <path id="Trazado_604380" data-name="Trazado 604380" d="M859.559,1625.318H610.394c-1.305,0-1.8,1.333-1.3,2.536a4.45,4.45,0,0,0,.211.422H715.416l1.491,1.491h39.366l.895-1.491H860.644a4.445,4.445,0,0,0,.211-.422C861.362,1626.651,860.864,1625.318,859.559,1625.318Z" transform="translate(-608.902 -1625.318)" fill="#283848"/>
      </g>
      <g id="Grupo_889507" data-name="Grupo 889507" transform="translate(30.604 27.244)">
        <g id="Grupo_889493" data-name="Grupo 889493">
          <rect id="Rectángulo_301025" data-name="Rectángulo 301025" width="76.219" height="1.959" fill="#85a5ca"/>
        </g>
        <g id="Grupo_889494" data-name="Grupo 889494" transform="translate(0 7.211)">
          <rect id="Rectángulo_301026" data-name="Rectángulo 301026" width="43.508" height="1.959" fill="#f87256"/>
          <rect id="Rectángulo_301027" data-name="Rectángulo 301027" width="98.169" height="1.959" transform="translate(49.242)" fill="#f9b653"/>
        </g>
        <g id="Grupo_889495" data-name="Grupo 889495" transform="translate(0 84.065)">
          <rect id="Rectángulo_301028" data-name="Rectángulo 301028" width="43.508" height="1.959" fill="#f9b653"/>
        </g>
        <g id="Grupo_889496" data-name="Grupo 889496" transform="translate(48.521 84.065)">
          <rect id="Rectángulo_301029" data-name="Rectángulo 301029" width="23.829" height="1.959" fill="#f9b653"/>
        </g>
        <g id="Grupo_889497" data-name="Grupo 889497" transform="translate(0 90.748)">
          <rect id="Rectángulo_301030" data-name="Rectángulo 301030" width="29.087" height="1.959" fill="#f87256"/>
          <rect id="Rectángulo_301031" data-name="Rectángulo 301031" width="144.664" height="1.959" transform="translate(33.977)" fill="#85a5ca"/>
        </g>
        <g id="Grupo_889498" data-name="Grupo 889498" transform="translate(0 14.421)">
          <rect id="Rectángulo_301032" data-name="Rectángulo 301032" width="85.012" height="1.959" fill="#f87256"/>
        </g>
        <g id="Grupo_889499" data-name="Grupo 889499" transform="translate(0 21.104)">
          <rect id="Rectángulo_301033" data-name="Rectángulo 301033" width="77.274" height="1.959" fill="#85a5ca"/>
          <rect id="Rectángulo_301034" data-name="Rectángulo 301034" width="77.274" height="1.959" transform="translate(83.552)" fill="#f87256"/>
        </g>
        <g id="Grupo_889500" data-name="Grupo 889500" transform="translate(0 27.788)">
          <rect id="Rectángulo_301035" data-name="Rectángulo 301035" width="66.371" height="1.959" fill="#f87256"/>
        </g>
        <g id="Grupo_889501" data-name="Grupo 889501" transform="translate(98.695 27.788)">
          <rect id="Rectángulo_301036" data-name="Rectángulo 301036" width="79.946" height="1.959" fill="#f9b653"/>
        </g>
        <g id="Grupo_889502" data-name="Grupo 889502" transform="translate(91.099 14.421)">
          <rect id="Rectángulo_301037" data-name="Rectángulo 301037" width="12.556" height="1.959" fill="#f87256"/>
        </g>
        <g id="Grupo_889503" data-name="Grupo 889503" transform="translate(153.854 7.211)">
          <rect id="Rectángulo_301038" data-name="Rectángulo 301038" width="12.556" height="1.959" fill="#f9b653"/>
        </g>
        <g id="Grupo_889504" data-name="Grupo 889504" transform="translate(70.996 27.788)">
          <rect id="Rectángulo_301039" data-name="Rectángulo 301039" width="12.556" height="1.959" fill="#f87256"/>
        </g>
        <g id="Grupo_889505" data-name="Grupo 889505" transform="translate(87.337 27.788)">
          <rect id="Rectángulo_301040" data-name="Rectángulo 301040" width="5.697" height="1.959" fill="#f87256"/>
        </g>
        <g id="Grupo_889506" data-name="Grupo 889506" transform="translate(0 35.641)">
          <rect id="Rectángulo_301041" data-name="Rectángulo 301041" width="1.96" height="42.528" fill="#85a5ca"/>
        </g>
      </g>
    </g>
    <g id="Grupo_889517" data-name="Grupo 889517" transform="translate(456.561 264.518)">
      <ellipse id="Elipse_8041" data-name="Elipse 8041" cx="33.614" cy="9.567" rx="33.614" ry="9.567" transform="translate(0 61.761)" fill="#e1cdbd"/>
      <path id="Trazado_604381" data-name="Trazado 604381" d="M2546.646,1710.468s5.562,4.178,14.536,2.581.181-6.682-5.8-7.752S2546.646,1710.468,2546.646,1710.468Z" transform="translate(-2504.978 -1639.065)" fill="#192e35"/>
      <path id="Trazado_604382" data-name="Trazado 604382" d="M2454.823,1722.764s.893-1.445,3.723-1.823a22.049,22.049,0,0,1,4.044-.2l5.775-.051,3.757.439.725,1.632-1.982,1.9s-5.344,2.413-7.154,2.026-6.377-1.12-6.421-1.25S2454.823,1722.764,2454.823,1722.764Z" transform="translate(-2426.168 -1652.385)" fill="#192e35"/>
      <path id="Trazado_604383" data-name="Trazado 604383" d="M2477.57,1607.212s14.735-1.738,17.429,3.893c3.858,8.064-22.772,16.067-22.772,16.067a15.286,15.286,0,0,0-9.586-3.925l-7.709-14.215,6.7-1.367Z" transform="translate(-2426.26 -1554.77)" fill="#1565c0"/>
      <path id="Trazado_604384" data-name="Trazado 604384" d="M2479.425,1617.087s13.663,7.026,23.367,5.581l-9.008,4.42-15.107-6.055Z" transform="translate(-2446.641 -1563.463)" fill="#12263f"/>
      <path id="Trazado_604385" data-name="Trazado 604385" d="M2326.323,1567.087l-31.029,2.241-1.12,12.584s12.123-1.4,19.837-5.2c10.555-1.24,7.9-1.1,12.312-2.3Z" transform="translate(-2288.287 -1520.549)" fill="#fb8c00"/>
      <path id="Trazado_604386" data-name="Trazado 604386" d="M2300.917,1592.442s3.083,3,21.813,2.373c0,0-4.637-2.953-4.859-2.953h-13.7Z" transform="translate(-2294.074 -1541.813)" fill="#192e35"/>
      <path id="Trazado_604387" data-name="Trazado 604387" d="M2312.581,1354.29s-12.337-3.407-20.955-1.627c-3.493.722-6.391,2.5-7.585,5.387-4.137,10-7.562,26.785-4.783,27.943,3.878,1.616,8.662,2.974,23.573,3.081l18.358-10.6s.776-10.425-2.586-19.573C2317.492,1355.873,2314.747,1354.861,2312.581,1354.29Z" transform="translate(-2274.621 -1336.072)" fill="#fb8c00"/>
      <g id="Grupo_889509" data-name="Grupo 889509" transform="translate(45.269 56.931)">
        <path id="Trazado_604388" data-name="Trazado 604388" d="M2595.917,1641.6c0-.087-.169-1.185-.169-1.185.144.58-1.254,3.322-4.6,6.01-4.324,3.471-15.342,7.664-19.1,8.8,1.194.781.7.666.7.666S2596.019,1649.777,2595.917,1641.6Z" transform="translate(-2572.048 -1640.415)" fill="#3b4626"/>
      </g>
      <path id="Trazado_604389" data-name="Trazado 604389" d="M2353.617,1438.522a106.26,106.26,0,0,0-19.006-3.747s4.946-11.38,6.077-19.09c0,0,0,4.963-5.636,18.785,0,0,12.294,1.239,19.771,4.309Z" transform="translate(-2322.993 -1390.605)" fill="#192e35"/>
      <g id="Grupo_889514" data-name="Grupo 889514" transform="translate(19.468 16.2)">
        <g id="Grupo_889513" data-name="Grupo 889513">
          <g id="Grupo_889510" data-name="Grupo 889510" transform="translate(15.815 1.322)">
            <path id="Trazado_604390" data-name="Trazado 604390" d="M2501.711,1363.119l-.018,0a.127.127,0,0,1-.108-.144c.023-.164.043-.331.058-.5a.125.125,0,0,1,.139-.115.127.127,0,0,1,.115.139q-.025.262-.06.514A.127.127,0,0,1,2501.711,1363.119Z" transform="translate(-2501.583 -1362.355)" fill="#e59f42"/>
          </g>
          <g id="Grupo_889511" data-name="Grupo 889511" transform="translate(0.26 1.554)">
            <path id="Trazado_604391" data-name="Trazado 604391" d="M2400.844,1370.24c-.286,0-.573-.012-.854-.036a.127.127,0,0,1-.116-.138.132.132,0,0,1,.138-.116,10.02,10.02,0,0,0,1.044.033h0a.127.127,0,0,1,0,.255Zm1.269-.082a.128.128,0,0,1-.017-.254,7.388,7.388,0,0,0,1.019-.208.128.128,0,1,1,.069.246,7.83,7.83,0,0,1-1.054.215Zm-3.161-.1a.1.1,0,0,1-.024,0,10,10,0,0,1-1.04-.258.128.128,0,1,1,.075-.244,9.805,9.805,0,0,0,1.014.252.127.127,0,0,1-.024.252Zm5.189-.48a.128.128,0,0,1-.054-.243,5.514,5.514,0,0,0,.891-.522.127.127,0,1,1,.149.207,5.817,5.817,0,0,1-.931.547A.137.137,0,0,1,2404.141,1369.58Zm-7.209-.139a.131.131,0,0,1-.05-.01,9.913,9.913,0,0,1-.96-.476.127.127,0,1,1,.125-.222,9.714,9.714,0,0,0,.936.464.127.127,0,0,1-.05.245Zm-1.84-1.039a.128.128,0,0,1-.074-.024,9.564,9.564,0,0,1-.834-.674.127.127,0,1,1,.171-.189,9.367,9.367,0,0,0,.812.656.127.127,0,0,1-.074.231Zm10.752-.056a.127.127,0,0,1-.093-.214,5.522,5.522,0,0,0,.627-.82.129.129,0,0,1,.176-.041.128.128,0,0,1,.04.176,5.737,5.737,0,0,1-.657.858A.126.126,0,0,1,2405.844,1368.345Zm-12.317-1.363a.127.127,0,0,1-.1-.044,8.613,8.613,0,0,1-.656-.851.128.128,0,0,1,.212-.142,8.424,8.424,0,0,0,.636.826.127.127,0,0,1-.1.211Zm13.444-.416a.128.128,0,0,1-.118-.176,7.55,7.55,0,0,0,.33-.986.127.127,0,1,1,.246.065,7.782,7.782,0,0,1-.341,1.02A.128.128,0,0,1,2406.97,1366.566Zm-14.621-1.337a.128.128,0,0,1-.114-.071,6.906,6.906,0,0,1-.4-1,.128.128,0,0,1,.084-.16.13.13,0,0,1,.159.084,6.625,6.625,0,0,0,.385.964.128.128,0,0,1-.058.171A.131.131,0,0,1,2392.349,1365.229Z" transform="translate(-2391.83 -1363.992)" fill="#e59f42"/>
          </g>
          <g id="Grupo_889512" data-name="Grupo 889512">
            <path id="Trazado_604392" data-name="Trazado 604392" d="M2390.159,1353.79a.127.127,0,0,1-.126-.113,5.211,5.211,0,0,1-.036-.521.128.128,0,0,1,.125-.13.124.124,0,0,1,.13.125c0,.162.015.329.035.5a.127.127,0,0,1-.112.141Z" transform="translate(-2389.997 -1353.027)" fill="#e59f42"/>
          </g>
        </g>
      </g>
      <path id="Trazado_604393" data-name="Trazado 604393" d="M2407.575,1358.126c4.427,0,5.585-3.1,5.585-6.121,0-.06,0,.059,0,0a52.41,52.41,0,0,0-13.572-.583C2399.588,1354.448,2403.148,1358.126,2407.575,1358.126Z" transform="translate(-2378.761 -1335.299)" fill="#fccbb1"/>
      <g id="Grupo_889515" data-name="Grupo 889515" transform="translate(21.426)">
        <path id="Trazado_604394" data-name="Trazado 604394" d="M2408.626,1313.2s-2.387,3.014-4.812,5.959c0,0,3.44,3.343,3.568,3.343s4.971-3.387,4.971-3.387l-2.631-6.2Z" transform="translate(-2403.815 -1302.403)" fill="#fccbb1"/>
        <path id="Trazado_604395" data-name="Trazado 604395" d="M2424.477,1331.922l9.487,5.58s-2.256,3.168-5.026,2.444C2426.282,1339.252,2424.477,1331.922,2424.477,1331.922Z" transform="translate(-2421.549 -1318.713)" fill="#ebaa89"/>
        <path id="Trazado_604396" data-name="Trazado 604396" d="M2424.477,1266.573s1.785,5.113,4.733,7.184c2.745,1.929,13.823-7.706,13.013-10.85s-4.742-8.72-9.114-6.693S2424.68,1263.343,2424.477,1266.573Z" transform="translate(-2421.549 -1253.364)" fill="#fccbb1"/>
        <path id="Trazado_604397" data-name="Trazado 604397" d="M2431.43,1278.445s-1.465-2.251-2.733-.629c-1.24,1.588-.979,3.752.628,3.451C2429.325,1281.268,2431.4,1279.219,2431.43,1278.445Z" transform="translate(-2424.501 -1271.771)" fill="#fccbb1"/>
        <path id="Trazado_604398" data-name="Trazado 604398" d="M2446.488,1246.381s-.541,1.245,3.137-2.392a4.707,4.707,0,0,0,4.033-.482s5.342,3.732,5.575,9.145c0,0,1.711.993,2.1-2.335,0,0,5.811-.426,1.645-5.613s-7.775-4.429-7.775-4.429S2451.15,1234.086,2446.488,1246.381Z" transform="translate(-2440.416 -1238.717)" fill="#192e35"/>
      </g>
      <path id="Trazado_604399" data-name="Trazado 604399" d="M2529.523,1415.686s0,9.145-.6,15.437A90.185,90.185,0,0,0,2529.523,1415.686Z" transform="translate(-2489.763 -1390.605)" fill="#192e35"/>
      <path id="Trazado_604400" data-name="Trazado 604400" d="M2460.059,1477.688h28.069a.447.447,0,0,1,.437.541l-4.193,19.455h-29.442l4.694-19.653A.447.447,0,0,1,2460.059,1477.688Z" transform="translate(-2426.26 -1443.82)" fill="#314e66"/>
      <path id="Trazado_604401" data-name="Trazado 604401" d="M2466.8,1477.688h28.069a.447.447,0,0,1,.437.541l-4.193,19.455h-29.442l4.694-19.653A.447.447,0,0,1,2466.8,1477.688Z" transform="translate(-2432.042 -1443.82)" fill="#192e35"/>
      <rect id="Rectángulo_301042" data-name="Rectángulo 301042" width="16.326" height="0.97" transform="translate(13.299 52.895)" fill="#314e66"/>
      <path id="Trazado_604402" data-name="Trazado 604402" d="M2292.862,1623.491s18.186-7.5,28.356-6.378c6.84.753,13.316,9.9,13.316,9.9s-4.87,2.34-10.645,4.581c0,0-3.016-1.293-4.137-1.207-1.8.139-15.859,10.774-23.7,4.4C2291.405,1631,2292.862,1623.491,2292.862,1623.491Z" transform="translate(-2286.975 -1563.387)" fill="#1565c0"/>
      <g id="Grupo_889516" data-name="Grupo 889516" transform="translate(6.381 64.399)">
        <path id="Trazado_604403" data-name="Trazado 604403" d="M2312.555,1697.6c-9.969,3.807-12.973.214-13.584-.979a8.971,8.971,0,0,0,2.509,3.488c7.416,6.364,20.259-3.087,23.146-3.462a12.126,12.126,0,0,1,4.157.543,21.947,21.947,0,0,0,2.45-1.086C2326.134,1691.136,2324.966,1692.86,2312.555,1697.6Z" transform="translate(-2298.785 -1693.114)" fill="#26474b"/>
        <path id="Trazado_604404" data-name="Trazado 604404" d="M2297.66,1712.275Z" transform="translate(-2297.66 -1709.56)" fill="#26474b"/>
      </g>
      <path id="Trazado_604405" data-name="Trazado 604405" d="M2459.9,1728.266c2.236.172,11.248-2.912,11.722,2.679.526,6.2-9.571,4.18-14.911,2.413-1.775-.587-3.541-1.682-4.083-2.9a2.438,2.438,0,0,1,2.187-3.5C2456.8,1726.859,2457.655,1728.094,2459.9,1728.266Z" transform="translate(-2424.077 -1657.76)" fill="#545d77"/>
      <path id="Trazado_604406" data-name="Trazado 604406" d="M2567.716,1534.078l2.532-1.38a2.459,2.459,0,0,0-2.261-1.383,3.163,3.163,0,0,0-3.073,2.786,2.466,2.466,0,0,0,2.5,2.786,3.146,3.146,0,0,0,2.572-1.417Z" transform="translate(-2520.643 -1489.848)" fill="#314e66"/>
    </g>
  </g>
</svg>
