<svg xmlns="http://www.w3.org/2000/svg" xmlns:xlink="http://www.w3.org/1999/xlink" width="269.338" height="203.749" viewBox="0 0 269.338 203.749">
  <defs>
    <clipPath id="clip-path">
      <rect id="Rectángulo_298193" data-name="Rectángulo 298193" width="269.338" height="203.749" transform="translate(0 0)" fill="none"/>
    </clipPath>
  </defs>
  <g id="Grupo_887479" data-name="Grupo 887479" transform="translate(0 0.005)">
    <g id="Grupo_887478" data-name="Grupo 887478" transform="translate(0 -0.005)" clip-path="url(#clip-path)">
      <path id="Trazado_601428" data-name="Trazado 601428" d="M227.819,191.947c31.326,0,60.152.468,83.03,1.254,55.985-32,36.6-94.375,16.5-129.658-27.975-49.1-94.083-66.752-121.426-27.574C168.805,89.148,133,70.592,113.67,110.978s10.027,79.1,31.12,82.224c22.876-.786,51.7-1.254,83.029-1.254M178.8,56.773c-18.41,14.012-48.86,24.869-58.972,9.973-7.555-11.13,1.75-32.012,19.975-47.843s42.616-25.4,55.916-13.748C211.5,18.98,192.973,45.982,178.8,56.773" transform="translate(-93.15 0.005)" fill="#e9eff8" fill-rule="evenodd"/>
      <path id="Trazado_601429" data-name="Trazado 601429" d="M134.669,1461.632c74.174,0,134.67-2.65,134.67-5.9s-60.5-5.9-134.67-5.9S0,1452.485,0,1455.734s60.5,5.9,134.669,5.9" transform="translate(0 -1257.883)" fill="#26aab7" fill-rule="evenodd"/>
      <path id="Trazado_601430" data-name="Trazado 601430" d="M638.983,50.279c7.809.47,12.559,6.88,12.886,14.274.139,3.146-2.33-5.079-10.986-6.223-5.369-.711-6.174.871-8.1-1.343s-.1-7.087,6.2-6.708" transform="translate(-548.374 -43.603)" fill="#fff" fill-rule="evenodd"/>
      <path id="Trazado_601431" data-name="Trazado 601431" d="M1127.888,223.7c33.636,7.495,55.039,38.424,57.135,53.359,1.188,8.443-3.943-18.606-46.377-30.986-22.78-6.645-36.647-.309-41.4-9.557s3.519-18.859,30.642-12.816" transform="translate(-950.875 -192.446)" fill="#fff" fill-rule="evenodd"/>
      <path id="Trazado_601432" data-name="Trazado 601432" d="M1455.531,285.085V257.874h41.464v27.211h-23.843l-18.347,11.662,9.018-11.662Z" transform="translate(-1262.196 -223.732)" fill="#fb8c00" fill-rule="evenodd"/>
      <path id="Trazado_601437" data-name="Trazado 601437" d="M734.389,1394.392l2.18-1.562Z" transform="translate(-637.159 -1208.425)" fill="#399c9e" fill-rule="evenodd"/>
      <path id="Trazado_601506" data-name="Trazado 601506" d="M0,0H85.166V79.49H0Z" transform="translate(52.095 30.721)" fill="#1565c0"/>
      <rect id="Rectángulo_298174" data-name="Rectángulo 298174" width="85.166" height="8.407" transform="translate(52.095 30.72)" fill="#12263f"/>
      <path id="Trazado_601438" data-name="Trazado 601438" d="M877.51,254.4a1.541,1.541,0,1,1-1.541-1.541,1.541,1.541,0,0,1,1.541,1.541" transform="translate(-758.658 -219.385)" fill="#fff" fill-rule="evenodd"/>
      <path id="Trazado_601439" data-name="Trazado 601439" d="M926.109,254.4a1.541,1.541,0,1,1-1.541-1.541,1.541,1.541,0,0,1,1.541,1.541" transform="translate(-800.822 -219.385)" fill="#fff" fill-rule="evenodd"/>
      <path id="Trazado_601440" data-name="Trazado 601440" d="M971.24,255.634a1.541,1.541,0,1,1-1.541-1.54,1.541,1.541,0,0,1,1.541,1.54" transform="translate(-839.978 -220.452)" fill="#fff" fill-rule="evenodd"/>
      <path id="Trazado_601441" data-name="Trazado 601441" d="M519.928,355.573H507.866v-1.014h12.062Zm38.888,32.781h-10.18v1.014h10.18Zm-3.8,5.462h-7.527v1.013h7.527Zm15.338,5.462H543.1v1.013h27.251Zm-11.391,5.462H545.017v1.013h13.944Zm-3.349-32.782H524.466v-1.014h31.146ZM558.3,366.5H531.049v-1.014H558.3Zm-35.566,16.4H508.461v1.015h14.275Zm19.662,0H528.121v1.015H542.4Zm-.309,5.462h-10.18v1.014h10.18Zm-15.587,0H516.32v1.014H526.5Zm18.63,5.462H518.086v1.013H545.13Zm-6.28,5.462H511.6v1.013h27.253Zm1.789,5.462H526.7v1.013H540.64Zm-18.828,0H507.866v1.013h13.946Zm18.141-27.321h-9.586V376.4h9.586Zm-13.687,0h-9.586V376.4h9.586ZM526.3,366.5h-8.215v-1.014H526.3Zm16.6-5.462h-9.509v-1.013H542.9Zm-12.6,0H511.6v-1.013h18.7Zm3.785-5.46H522.024v-1.014h12.062Z" transform="translate(-440.627 -307.616)" fill="#fff" fill-rule="evenodd"/>
      <path id="Trazado_601442" data-name="Trazado 601442" d="M449.538,348.494h-1.3v-1.3h1.3Zm0,51.586h-1.3v-1.3h1.3Zm0-44.969h-1.3v-2.646h1.3Zm0,6.616h-1.3v-2.646h1.3Zm0,6.617h-1.3V365.7h1.3Zm0,6.617h-1.3v-2.648h1.3Zm0,6.616h-1.3v-2.646h1.3Zm0,6.617h-1.3v-2.646h1.3Zm0,6.616h-1.3v-2.645h1.3Z" transform="translate(-388.896 -301.228)" fill="#fff" fill-rule="evenodd"/>
      <rect id="Rectángulo_298175" data-name="Rectángulo 298175" width="46.876" height="28.894" transform="translate(141.331 11.254)" fill="#26aab7"/>
      <path id="Trazado_601443" data-name="Trazado 601443" d="M1135.255,155.657l-6.914,2.952,6.914,2.906-.906,2.09-8.291-3.7v-2.563l8.291-3.726Z" transform="translate(-976.972 -133.273)" fill="#fff" fill-rule="evenodd"/>
      <path id="Trazado_601444" data-name="Trazado 601444" d="M1223.928,113.974l-5.017,19.275-2.391-.561,5.04-19.253Z" transform="translate(-1055.458 -98.416)" fill="#fff" fill-rule="evenodd"/>
      <path id="Trazado_601445" data-name="Trazado 601445" d="M1302.834,157.336V159.9l-8.291,3.7-.9-2.09,6.892-2.906-6.892-2.952.9-2.046Z" transform="translate(-1122.366 -133.272)" fill="#fff" fill-rule="evenodd"/>
      <path id="Trazado_601446" data-name="Trazado 601446" d="M1516.629,305.143h3.09v9.666a9.843,9.843,0,0,1-.334,2.92,4.131,4.131,0,0,1-1.623,2.141,5.384,5.384,0,0,1-3.1.807,4.593,4.593,0,0,1-3.473-1.261,5.158,5.158,0,0,1-1.229-3.7l2.92-.341a4.079,4.079,0,0,0,.379,1.843,1.908,1.908,0,0,0,2.948.231,4.675,4.675,0,0,0,.422-2.44Zm5.565,10.312,3-.3a3.651,3.651,0,0,0,1.094,2.211,3.3,3.3,0,0,0,2.227.706,3.41,3.41,0,0,0,2.234-.628,1.872,1.872,0,0,0,.753-1.469,1.409,1.409,0,0,0-.316-.924,2.5,2.5,0,0,0-1.1-.657c-.359-.127-1.175-.347-2.454-.668a8.292,8.292,0,0,1-3.462-1.516,4.043,4.043,0,0,1-.743-5.267,4.137,4.137,0,0,1,1.9-1.548,7.558,7.558,0,0,1,2.995-.534,6.347,6.347,0,0,1,4.307,1.272,4.515,4.515,0,0,1,1.521,3.4l-3.09.106a2.641,2.641,0,0,0-.842-1.7,3.053,3.053,0,0,0-1.935-.518,3.459,3.459,0,0,0-2.085.553,1.128,1.128,0,0,0-.486.952,1.169,1.169,0,0,0,.459.927,7.98,7.98,0,0,0,2.822,1.026,14.666,14.666,0,0,1,3.313,1.1,4.288,4.288,0,0,1,1.684,1.551,4.546,4.546,0,0,1,.608,2.429,4.5,4.5,0,0,1-.728,2.458,4.355,4.355,0,0,1-2.06,1.7,8.6,8.6,0,0,1-3.321.559,6.607,6.607,0,0,1-4.443-1.336,5.794,5.794,0,0,1-1.85-3.885" transform="translate(-1310.047 -264.502)" fill="#fff" fill-rule="evenodd"/>
      <path id="Trazado_601447" data-name="Trazado 601447" d="M1431.5,1363.037a8.819,8.819,0,0,0-1.234,4.057,3.833,3.833,0,0,0,1.452,3.134c1.087.855,2.81,1.377,5.481,1.379l.163,0h.078a6.665,6.665,0,0,1,4.468,1.505c1.663,1.356,2.732,3.486,4.239,5.337a8.388,8.388,0,0,0,7.013,3.389,23.834,23.834,0,0,0,8.584-2.04l-.306-.768a23.053,23.053,0,0,1-8.278,1.982,7.445,7.445,0,0,1-4.795-1.511c-1.765-1.359-2.856-3.479-4.3-5.326a7.838,7.838,0,0,0-6.62-3.393h-.241c-2.568,0-4.1-.515-4.968-1.2a3,3,0,0,1-1.138-2.485,6.816,6.816,0,0,1,.554-2.492c.14-.344.283-.629.386-.828l.127-.228.043-.074Z" transform="translate(-1240.903 -1182.576)" fill="#99a9d4" fill-rule="evenodd"/>
      <rect id="Rectángulo_298176" data-name="Rectángulo 298176" width="41.304" height="15.145" transform="translate(147.897 179.384)" fill="#99a9d4"/>
      <path id="Trazado_601448" data-name="Trazado 601448" d="M968.783,816.89a4.131,4.131,0,0,1-4.131,4.13H863.321a4.131,4.131,0,0,1-4.131-4.13V737.175a4.131,4.131,0,0,1,4.131-4.13h101.33a4.131,4.131,0,0,1,4.131,4.13Z" transform="translate(-745.437 -635.992)" fill="#bcc9e7" fill-rule="evenodd"/>
      <rect id="Rectángulo_298177" data-name="Rectángulo 298177" width="53.97" height="2.753" transform="translate(141.38 191.776)" fill="#aab9de"/>
      <rect id="Rectángulo_298178" data-name="Rectángulo 298178" width="93.534" height="4.61" transform="translate(122.175 194.53)" fill="#bcc9e7"/>
      <rect id="Rectángulo_298179" data-name="Rectángulo 298179" width="13.091" height="3.549" transform="translate(218.496 195.363)" fill="#aab9de"/>
      <path id="Trazado_601449" data-name="Trazado 601449" d="M1663.421,1453.2c0-1.981-2.931-3.587-6.546-3.587s-6.545,1.606-6.545,3.587,2.931,3.586,6.545,3.586,6.546-1.6,6.546-3.586" transform="translate(-1431.834 -1257.688)" fill="#aab9de" fill-rule="evenodd"/>
      <path id="Trazado_601450" data-name="Trazado 601450" d="M1331.921,1209.938a1.82,1.82,0,1,1-1.821-1.82,1.82,1.82,0,0,1,1.821,1.82" transform="translate(-1152.423 -1048.168)" fill="#6db9b9" fill-rule="evenodd"/>
      <path id="Trazado_601451" data-name="Trazado 601451" d="M1368.048,1209.938a1.821,1.821,0,1,1-1.819-1.82,1.821,1.821,0,0,1,1.819,1.82" transform="translate(-1183.765 -1048.168)" fill="#6db9b9" fill-rule="evenodd"/>
      <path id="Trazado_601452" data-name="Trazado 601452" d="M1404.181,1209.938a1.82,1.82,0,1,1-1.82-1.82,1.82,1.82,0,0,1,1.82,1.82" transform="translate(-1215.116 -1048.168)" fill="#6db9b9" fill-rule="evenodd"/>
      <rect id="Rectángulo_298180" data-name="Rectángulo 298180" width="51.235" height="4.566" transform="translate(139.128 170.048)" fill="#f2f2f3"/>
      <rect id="Rectángulo_298181" data-name="Rectángulo 298181" width="99.266" height="71.122" transform="translate(118.157 102.834)" fill="#fff"/>
      <rect id="Rectángulo_298182" data-name="Rectángulo 298182" width="99.276" height="7.586" transform="translate(118.15 102.639)" fill="#26aab7"/>
      <path id="Trazado_601453" data-name="Trazado 601453" d="M1507.995,789.932a2.246,2.246,0,1,1-2.246-2.245,2.245,2.245,0,0,1,2.246,2.245" transform="translate(-1304.446 -683.4)" fill="#fff" fill-rule="evenodd"/>
      <path id="Trazado_601454" data-name="Trazado 601454" d="M1552.58,789.932a2.242,2.242,0,1,1-2.245-2.245,2.242,2.242,0,0,1,2.245,2.245" transform="translate(-1343.135 -683.4)" fill="#fff" fill-rule="evenodd"/>
      <path id="Trazado_601455" data-name="Trazado 601455" d="M1597.121,789.932a2.243,2.243,0,1,1-2.245-2.245,2.242,2.242,0,0,1,2.245,2.245" transform="translate(-1381.777 -683.4)" fill="#fff" fill-rule="evenodd"/>
      <rect id="Rectángulo_298183" data-name="Rectángulo 298183" width="30.627" height="2.816" transform="translate(120.086 105.121)" fill="#fff"/>
      <rect id="Rectángulo_298184" data-name="Rectángulo 298184" width="38.902" height="31.422" transform="translate(122.55 116.122)" fill="#d0d9ee"/>
      <path id="Trazado_601456" data-name="Trazado 601456" d="M1010.545,1005.212a11.5,11.5,0,0,1-21.455,5.766l9.954-5.766Z" transform="translate(-858.139 -872.126)" fill="#f2f2f3" fill-rule="evenodd"/>
      <path id="Trazado_601457" data-name="Trazado 601457" d="M1076.191,927.088l-9.04,7.1,4.74-10.48a11.374,11.374,0,0,1,4.3,3.376" transform="translate(-925.865 -801.416)" fill="#99a9d4" fill-rule="evenodd"/>
      <path id="Trazado_601458" data-name="Trazado 601458" d="M1037.064,918.342v11.5l-4.153-10.728a11.464,11.464,0,0,1,4.153-.773" transform="translate(-896.158 -796.757)" fill="#e9eff8" fill-rule="evenodd"/>
      <path id="Trazado_601459" data-name="Trazado 601459" d="M988.893,934.907l-9.955,5.765a11.5,11.5,0,0,1,5.8-16.493Z" transform="translate(-847.987 -801.821)" fill="#99a9d4" fill-rule="evenodd"/>
      <path id="Trazado_601460" data-name="Trazado 601460" d="M1315.972,881.24h-44.8v-4.16h44.8Zm0,27.772h-44.8v-2.079h44.8Zm0-3.938h-44.8V903h44.8Zm0-3.935h-44.8v-2.081h44.8Zm0-3.935h-44.8v-2.081h44.8Zm0-3.935h-44.8v-2.082h44.8Zm0-3.936h-44.8v-2.081h44.8Zm0-3.936h-44.8v-2.08h44.8Z" transform="translate(-1102.873 -760.958)" fill="#d0d9ee" fill-rule="evenodd"/>
      <rect id="Rectángulo_298185" data-name="Rectángulo 298185" width="18.422" height="13.145" transform="translate(122.55 156.917)" fill="#d0d9ee"/>
      <rect id="Rectángulo_298186" data-name="Rectángulo 298186" width="17.221" height="10.486" transform="translate(123.151 157.403)" fill="#e9eff8"/>
      <path id="Trazado_601461" data-name="Trazado 601461" d="M983.639,1212.617v4.2l3.474-2.1Z" transform="translate(-853.41 -1052.071)" fill="#fff" fill-rule="evenodd"/>
      <rect id="Rectángulo_298187" data-name="Rectángulo 298187" width="18.42" height="13.145" transform="translate(145.39 156.917)" fill="#d0d9ee"/>
      <rect id="Rectángulo_298188" data-name="Rectángulo 298188" width="17.223" height="10.486" transform="translate(145.989 157.403)" fill="#e9eff8"/>
      <path id="Trazado_601462" data-name="Trazado 601462" d="M1156.14,1212.617v4.2l3.476-2.1Z" transform="translate(-1003.072 -1052.071)" fill="#fff" fill-rule="evenodd"/>
      <rect id="Rectángulo_298189" data-name="Rectángulo 298189" width="18.424" height="13.145" transform="translate(168.23 156.917)" fill="#d0d9ee"/>
      <rect id="Rectángulo_298190" data-name="Rectángulo 298190" width="17.22" height="10.486" transform="translate(168.833 157.403)" fill="#e9eff8"/>
      <path id="Trazado_601463" data-name="Trazado 601463" d="M1328.676,1212.617v4.2l3.474-2.1Z" transform="translate(-1152.765 -1052.071)" fill="#fff" fill-rule="evenodd"/>
      <rect id="Rectángulo_298191" data-name="Rectángulo 298191" width="18.423" height="13.145" transform="translate(191.069 156.917)" fill="#00747b"/>
      <rect id="Rectángulo_298192" data-name="Rectángulo 298192" width="17.226" height="10.486" transform="translate(191.667 157.403)" fill="#e9eff8"/>
      <path id="Trazado_601464" data-name="Trazado 601464" d="M1501.141,1212.617v4.2l3.476-2.1Z" transform="translate(-1302.396 -1052.071)" fill="#fff" fill-rule="evenodd"/>
      <path id="Trazado_601465" data-name="Trazado 601465" d="M934.04,1154.976h-8.4v1.848h8.4Zm29.422,0h-4.247v1.848h4.247Zm24.314,0H979v1.848h8.776Zm-10.032,0h-6.425v1.848h6.425Zm-20.859,0h-8.492v1.848h8.492Zm53.333.924h-3.212v1.849h3.212Zm-4.909,0H994.158v1.849h11.151Zm-66.027-.924h-4v1.848h4Zm4.178,0h-3.026v1.848h3.026Z" transform="translate(-803.089 -1002.062)" fill="#e9eff8" fill-rule="evenodd"/>
      <path id="Trazado_601466" data-name="Trazado 601466" d="M1642.225,1079.3a.013.013,0,0,0,0-.008V1071.3l0,0Z" transform="translate(-1424.799 -929.468)" fill="#7ea4b4" fill-rule="evenodd"/>
      <path id="Trazado_601467" data-name="Trazado 601467" d="M1642.232,1155.753h0v-24.125a.029.029,0,0,1,0,.01Z" transform="translate(-1424.806 -981.805)" fill="#c45e34" fill-rule="evenodd"/>
      <path id="Trazado_601468" data-name="Trazado 601468" d="M1328.676,1216.818v-4.2l3.474,2.1Z" transform="translate(-1152.765 -1052.071)" fill="#fff" fill-rule="evenodd"/>
      <path id="Trazado_601469" data-name="Trazado 601469" d="M1461.591,1198.356h-18.423v-13.145h18.423Zm-17.825-2.173h17.226V1185.7h-17.226Z" transform="translate(-1252.099 -1028.294)" fill="#d0d9ee" fill-rule="evenodd"/>
      <path id="Trazado_601470" data-name="Trazado 601470" d="M1501.141,1216.818v-4.2l3.476,2.1Z" transform="translate(-1302.396 -1052.071)" fill="#fff" fill-rule="evenodd"/>
      <path id="Trazado_601471" data-name="Trazado 601471" d="M1056.53,522.169a.483.483,0,0,0,.371-.791,15.674,15.674,0,0,1-2.763-15.107.482.482,0,0,0-.912-.314A16.657,16.657,0,0,0,1056.16,522a.477.477,0,0,0,.37.174" transform="translate(-913.002 -438.688)" fill="#fff" fill-rule="evenodd"/>
      <path id="Trazado_601472" data-name="Trazado 601472" d="M991.677,509.973a85.755,85.755,0,0,1,14.544,4.518,8.109,8.109,0,0,0-1.116.383q-12.075-4.385-16-4.406a6.736,6.736,0,0,1,1.392-.329,101.831,101.831,0,0,0-.666-11.383q1.489,7.683,1.851,11.218" transform="translate(-858.147 -432.721)" fill="#406fb5" fill-rule="evenodd"/>
      <path id="Trazado_601473" data-name="Trazado 601473" d="M1103.424,615.46a5.948,5.948,0,0,1,4.767.357l-1.164,4.041a.572.572,0,0,0,.58.8l-1.078.045a4.235,4.235,0,0,0-1.5-.516q-1.473.938-3.872-.407a4.958,4.958,0,0,1,1.219-3.911l-.067-.024a7.948,7.948,0,0,1,1.116-.383" transform="translate(-955.35 -533.69)" fill="#f4ae7c" fill-rule="evenodd"/>
      <path id="Trazado_601474" data-name="Trazado 601474" d="M1012.9,641.471q-.371-2.179-.729-4.679a113.248,113.248,0,0,0,11.847,2.26c-.021-.164-.038-.325-.049-.482q2.4,1.345,3.872.407a4.236,4.236,0,0,1,1.5.516l-10.891.454a2.418,2.418,0,0,0,.948,1.639,50.717,50.717,0,0,1-6.5-.115" transform="translate(-878.162 -552.483)" fill="#406fb5" fill-rule="evenodd"/>
      <path id="Trazado_601475" data-name="Trazado 601475" d="M1107.33,480.74a5.531,5.531,0,0,0-3.458-.636c-2.083-4.5-.794-10.9-3.728-20.661q3.171,1.592,7.39,15.408a11.027,11.027,0,0,0,1.239.881Z" transform="translate(-954.489 -398.613)" fill="#6998d0" fill-rule="evenodd"/>
      <path id="Trazado_601476" data-name="Trazado 601476" d="M967.746,448.8c2.934,9.764,1.645,16.162,3.728,20.661a7.983,7.983,0,0,0-1.309.279,85.734,85.734,0,0,0-14.544-4.518q-.364-3.535-1.851-11.218a101.844,101.844,0,0,1,.666,11.384,6.735,6.735,0,0,0-1.392.329q3.93.021,16,4.406l.067.024a4.958,4.958,0,0,0-1.219,3.911c.011.157.027.319.049.482a113.273,113.273,0,0,1-11.847-2.26,24.824,24.824,0,0,1-5.636-2.047q-4.929-8.207-1.536-21.192,1.833-2.34,8.19-1.744,6.629,5.593,6.065.537a10.449,10.449,0,0,1,4.565.965" transform="translate(-822.092 -387.973)" fill="#6998d0" fill-rule="evenodd"/>
      <path id="Trazado_601477" data-name="Trazado 601477" d="M1100.278,459.515c2.619,5.431,3.072,16.462,4.277,17.654a10.323,10.323,0,0,0,3.222,2.016l-.031.108-.417,1.447a5.532,5.532,0,0,0-3.458-.636c-2.083-4.5-.794-10.9-3.728-20.661.045.022.09.046.136.072" transform="translate(-954.488 -398.614)" fill="#406fb5" fill-rule="evenodd"/>
      <path id="Trazado_601478" data-name="Trazado 601478" d="M1088.339,653.422l-26.3,1.1a2.21,2.21,0,0,1-2.432-2.016l29.608-1.234.081,0c.286-.011.7.117.572.913a1.664,1.664,0,0,1-1.529,1.246" transform="translate(-919.32 -565.038)" fill="#8d9fca" fill-rule="evenodd"/>
      <path id="Trazado_601479" data-name="Trazado 601479" d="M1167.061,544.565l-16.994.709a1.255,1.255,0,0,0-1.059.866l-3.6,12.494a.572.572,0,0,0,.58.8l16.994-.709a1.254,1.254,0,0,0,1.061-.866l3.6-12.494a.573.573,0,0,0-.582-.8" transform="translate(-993.733 -472.466)" fill="#d0d9ee" fill-rule="evenodd"/>
      <path id="Trazado_601480" data-name="Trazado 601480" d="M1172.322,582.914l-2.214,7.686a1.09,1.09,0,0,1-.914.749l-15.506.645a.465.465,0,0,1-.472-.654l1.478-5.13a32.169,32.169,0,0,0,3.977.244c1.027,0,2.036-.048,3.014-.138a1.364,1.364,0,0,0,1.322.879,2.039,2.039,0,0,0,1.85-1.345,20.775,20.775,0,0,0,7.466-2.937" transform="translate(-1000.511 -505.738)" fill="#8d9fca" fill-rule="evenodd"/>
      <path id="Trazado_601481" data-name="Trazado 601481" d="M1240.26,609.218a18.016,18.016,0,0,1-3.01-2.35q-1.652.744-3.149,1.348-3.62-.467-8.476-.9l6.752-.281a1.664,1.664,0,0,0,1.529-1.246c.133-.8-.285-.924-.572-.913l-.081,0-.644.026a1.254,1.254,0,0,0,1.06-.865l1.778-6.175q1.627-.095,2.884-.061c4.77,1.729,8.878,8.815,17.743,14.715a4.945,4.945,0,0,1-2.091,3.518,124.407,124.407,0,0,1-12.078-5.81q-.89-.517-1.646-1.011" transform="translate(-1063.358 -518.651)" fill="#0f3d86" fill-rule="evenodd"/>
      <path id="Trazado_601482" data-name="Trazado 601482" d="M1460.156,698.576a39,39,0,0,1-7.688,5.705c-1.667.77-2.14.183-2.548-1.757,4.65-1.479,2.121-2.5,3.864-3.665a13.169,13.169,0,0,0,6.371-2.615c1.493-.156,1.666.762,0,2.333" transform="translate(-1257.957 -604.048)" fill="#0f3970" fill-rule="evenodd"/>
      <path id="Trazado_601483" data-name="Trazado 601483" d="M1486.2,668.955c-.151,1.087-.25,1.609-.388,2.557h0l-.071.042-.036.02-.037.022-.069.039h0l-.071.042-.032.018-.04.023-.064.036-.007,0-.071.041-.028.014-.187.1-.024.013-.046.025-.057.03-.013.007-.071.037-.019.01-.051.026-.052.026-.018.01-.069.034-.017.008-.053.026-.05.024-.02.01-.069.033-.013.006-.056.027-.045.021-.024.01-.069.032-.01,0-.059.027-.042.019-.095.042-.006,0-.1.044-.03.013-.068.028h0l-.064.027-.036.014-.032.013-.067.027h0l-.068.026-.031.013-.036.013-.062.025h0l-.066.025-.027.011-.039.014-.06.021-.007,0-.065.024-.024.008-.043.014-.055.02-.011,0-.065.022-.02.007-.045.014-.065.021-.065.02-.017.006-.048.014-.049.014-.017,0-.064.019-.014,0-.05.014-.045.013-.019.006-.064.016-.011,0-.053.013-.041.011-.022.006-.064.016-.126.03-.063.015h0l-.058.013-.033.008-.03,0-.062.014h0l-.062.012-.059.012h0l-.06.011h0l-.062.01-.027,0-.035.006a2.432,2.432,0,0,1,.074-.379,10.83,10.83,0,0,0,3.272-5.5c1.032-1.091,1.573-.648,1.334,1.628m-.861,5.59a18.382,18.382,0,0,1-.932,3.6c-.694,1.524-1.988.741-3.4-.321a45.548,45.548,0,0,0,4.334-3.28" transform="translate(-1284.93 -578.482)" fill="#142d4d" fill-rule="evenodd"/>
      <path id="Trazado_601484" data-name="Trazado 601484" d="M1486.681,672.951l-.044.017-.009,0-.065.024-.024.008-.043.014-.055.02-.011,0-.065.021-.02.007-.045.014-.065.021-.065.02-.017.006-.048.014-.049.014-.017,0-.064.019-.014,0-.05.014-.045.013-.019.006-.064.017-.011,0-.053.013-.04.011-.022.006-.064.017-.126.03-.063.015h0l-.058.013-.033.008-.03.006-.062.013h0l-.062.012-.061.012h0l-.059.011h0l-.062.01-.027,0-.035.006a2.38,2.38,0,0,1,.074-.379,10.832,10.832,0,0,0,3.272-5.5,2.013,2.013,0,0,1,.7-.535,10.211,10.211,0,0,1-2.271,5.934" transform="translate(-1288.31 -578.706)" fill="#0f3970" fill-rule="evenodd"/>
      <path id="Trazado_601485" data-name="Trazado 601485" d="M1444.226,717.327a4.512,4.512,0,0,0-1.39-1.286,4.771,4.771,0,0,0,1.6-2.58,7.1,7.1,0,0,0,2.681.844c-.621.934.54,1.831-2.893,3.022" transform="translate(-1251.811 -619.001)" fill="#f4ae7c" fill-rule="evenodd"/>
      <path id="Trazado_601486" data-name="Trazado 601486" d="M1029.827,679.981c-5.675-.359-7.987-4.6-7.878-9.91a51.715,51.715,0,0,0,5.931.07,2.376,2.376,0,0,0,1.484.377l19.547-.814q4.856.431,8.476.9,2.227.287,3.988.589a32.624,32.624,0,0,1,3.76,1.391l.057.033a124.391,124.391,0,0,0,12.078,5.81q.209-.173.4-.348a4.511,4.511,0,0,1,1.39,1.286c-.143.049-.292.1-.452.15l.021.1c-13.25,1.2-17.614-.811-21.126-1.871-11.5,2.053-17.04,2.807-27.676,2.242" transform="translate(-886.645 -581.037)" fill="#0f3d86" fill-rule="evenodd"/>
      <path id="Trazado_601487" data-name="Trazado 601487" d="M1011.887,364.007c.434-1.792.516-3.831,1.107-4.618,4.779-1.681,5.313.964,7.421,1.468a4.5,4.5,0,0,1-.6,2.2q.241,4.344-2.04,5.365a2.844,2.844,0,0,1-1.9.713c.083.37.34,1.712.449,2.056q.564,5.056-6.064-.537l-.019,0c.027-1.187.127-2.1.108-2.99q-.021-.913-.074-1.622-2.373-2.473-.939-4.008,1.88-.888,2.18,2.527c.373-.145.113-.021.369-.552" transform="translate(-875.238 -311.328)" fill="#f4ae7c" fill-rule="evenodd"/>
      <path id="Trazado_601488" data-name="Trazado 601488" d="M1010.228,325.671c-2.108-.5-2.642-3.149-7.422-1.468-.588.787-.672,2.826-1.105,4.618-.256.53,0,.407-.369.552q-.3-3.415-2.18-2.527-1.434,1.536.939,4.008.054.71.074,1.622c-4.453-4.1-3.552-9.675-.842-11.506a4.617,4.617,0,0,0-2.017.767,3.546,3.546,0,0,1,3.987-1.379,3.172,3.172,0,0,1,.1-2.076,4.493,4.493,0,0,0,.378,1.467c1.073-.981,3.134-1.208,5.243-.415,2.731,1.028,5.552,3.538,6.627,2.789-.162,2.578-1.625,4.141-3.416,3.549" transform="translate(-865.051 -276.141)" fill="#0f3970" fill-rule="evenodd"/>
      <path id="Trazado_601489" data-name="Trazado 601489" d="M1041,430.51a5.362,5.362,0,0,0,2.815.811c.046.2.146.71.245,1.177a5.22,5.22,0,0,1-3.06-1.988" transform="translate(-903.178 -373.512)" fill="#ed7d5b" fill-rule="evenodd"/>
      <path id="Trazado_601490" data-name="Trazado 601490" d="M1233.864,640.97a16.446,16.446,0,0,0,3.857-1.9q.753.729,1.5,1.425a57.735,57.735,0,0,0,14.094,10.152q.67.319,1.336.6c-.085.086-.173.171-.265.254l-.4.348c-.919-.393-1.838-.8-2.744-1.2-3.681-1.643-7.13-3.324-9.334-4.61-.019-.01-.038-.021-.057-.033q-.856-.5-1.59-.977c-.371-.24-.717-.477-1.04-.709a15.115,15.115,0,0,1-1.969-1.642q-1.651.744-3.149,1.348-2.04-.264-4.474-.516-1.883-.194-4-.383l4-.168,2.75-.114a1.664,1.664,0,0,0,1.529-1.246,1.065,1.065,0,0,0-.042-.63" transform="translate(-1063.358 -554.462)" fill="#0f3970" fill-rule="evenodd"/>
      <path id="Trazado_601491" data-name="Trazado 601491" d="M1030.638,679.632q4.961,1.395,13.793.345,1.509-.169,2.916-.345,3.019-.373,5.565-.758t4.6-.782a18.041,18.041,0,0,0,3.469,1.541q.731.245,1.522.454,6.2,1.651,16.277,1.334.141.164.277.349c-.143.049-.292.1-.452.15l.022.1c-8.06.732-12.831.273-16.124-.438-2.12-.456-3.627-1.019-5-1.434-1.641.292-3.16.559-4.589.8a91.6,91.6,0,0,1-23.087,1.443,7.871,7.871,0,0,1-5.684-2.563,10.694,10.694,0,0,1-2.194-7.347q.384.029.771.05.781.043,1.582.061.28,5.343,6.337,7.044" transform="translate(-886.644 -583.443)" fill="#0f3970" fill-rule="evenodd"/>
      <path id="Trazado_601492" data-name="Trazado 601492" d="M1221.957,594.03a1.4,1.4,0,0,0-1.335,1.148.951.951,0,0,0,.961,1.149,1.405,1.405,0,0,0,1.336-1.149.951.951,0,0,0-.962-1.148" transform="translate(-1059.004 -515.383)" fill="#8d9fca" fill-rule="evenodd"/>
      <path id="Trazado_601493" data-name="Trazado 601493" d="M1061.19,415.022a25.977,25.977,0,0,0,2.652.609c.414.077-.728.971-2.725-.565-.048-.037-.007-.067.073-.044" transform="translate(-920.613 -360.067)" fill="#e97850" fill-rule="evenodd"/>
      <path id="Trazado_601494" data-name="Trazado 601494" d="M1051.015,371.054c.493.177.354.571-.045.562-4.244-.106-1.176-1,.045-.562" transform="translate(-909.941 -321.823)" fill="#0f3970" fill-rule="evenodd"/>
      <path id="Trazado_601495" data-name="Trazado 601495" d="M1080.217,373.8c-.521.051-.481.467-.093.556,4.141.933,1.385-.685.093-.556" transform="translate(-936.865 -324.304)" fill="#0f3970" fill-rule="evenodd"/>
      <path id="Trazado_601496" data-name="Trazado 601496" d="M1071.8,388.911l.026.006c.466.024.716.03.844-.114s.09-.322.038-.67a9,9,0,0,1-.111-1.886.121.121,0,1,0-.242-.007,9.4,9.4,0,0,0,.113,1.931c.035.228.064.426.023.471-.057.064-.388.048-.651.033a.122.122,0,0,0-.128.117.121.121,0,0,0,.089.12" transform="translate(-929.822 -335.001)" fill="#e97850" fill-rule="evenodd"/>
      <path id="Trazado_601497" data-name="Trazado 601497" d="M1084.908,387.71c.3.05.713-1.037,0-1.154-.381-.063-.479,1.075,0,1.154" transform="translate(-940.988 -335.374)" fill="#0f3970" fill-rule="evenodd"/>
      <path id="Trazado_601498" data-name="Trazado 601498" d="M1056.913,383.607c.295.046.712-1.038,0-1.156-.383-.063-.48,1.075,0,1.156" transform="translate(-916.698 -331.814)" fill="#0f3970" fill-rule="evenodd"/>
      <path id="Trazado_601499" data-name="Trazado 601499" d="M377.169,738.542c.3,0,.55-1.132-.175-1.141-.388-.006-.315,1.134.175,1.141" transform="translate(-326.867 -639.772)" fill="#0f3970" fill-rule="evenodd"/>
      <path id="Trazado_601500" data-name="Trazado 601500" d="M1609.257,1081.916a2.489,2.489,0,0,0,2.193.8,1.532,1.532,0,0,1-2.193-.8" transform="translate(-1396.199 -938.675)" fill="#ef8857" fill-rule="evenodd"/>
      <path id="Trazado_601501" data-name="Trazado 601501" d="M1625.167,1043.268s-1.36.766-2.082.134a1.041,1.041,0,0,0,.865.516,2.13,2.13,0,0,0,1.216-.65" transform="translate(-1408.196 -905.143)" fill="#ec724c" fill-rule="evenodd"/>
      <path id="Trazado_601502" data-name="Trazado 601502" d="M1827.172,1217.538h0Z" transform="translate(-1585.259 -1056.341)" fill="#ec724c" fill-rule="evenodd"/>
      <path id="Trazado_601503" data-name="Trazado 601503" d="M1712.23,866.5h0l-9.518,6.562c-.551.383-1.209.392-1.472.029a.71.71,0,0,1-.038-.679,1.553,1.553,0,0,1,.568-.68l9.517-6.561a1.205,1.205,0,0,0,.943,1.33" transform="translate(-1475.913 -750.627)" fill="#f5fafb" fill-rule="evenodd"/>
      <path id="Trazado_601504" data-name="Trazado 601504" d="M1734.39,980.625a2.279,2.279,0,0,0-.263,1.292c.129.554.267.707.41,1.2a1.549,1.549,0,0,0,.668,1.063c.511.44,2.972-.508,2.972-.508l-1.693-2.755-.974.364a1.86,1.86,0,0,1-.78-.24c-.168-.182-.341-.421-.341-.421" transform="translate(-1504.514 -850.794)" fill="#f4ae7c" fill-rule="evenodd"/>
    </g>
  </g>
</svg>
