<svg xmlns="http://www.w3.org/2000/svg" xmlns:xlink="http://www.w3.org/1999/xlink" width="505" height="312" viewBox="0 0 505 312">
  <defs>
    <clipPath id="clip-path">
      <rect id="Rectángulo_298306" data-name="Rectángulo 298306" width="272" height="272" fill="none"/>
    </clipPath>
  </defs>
  <g id="Grupo_890238" data-name="Grupo 890238" transform="translate(9824 6188.103)">
    <path id="Trazado_601644" data-name="Trazado 601644" d="M13,0H492a13,13,0,0,1,13,13V299a13,13,0,0,1-13,13H13A13,13,0,0,1,0,299V13A13,13,0,0,1,13,0Z" transform="translate(-9824 -6188.103)" fill="#fff"/>
    <g id="Grupo_887728" data-name="Grupo 887728" transform="translate(108.346 -516.257)">
      <g id="Grupo_887726" data-name="Grupo 887726" transform="translate(-9816 -5652)">
        <rect id="Rectángulo_298300" data-name="Rectángulo 298300" width="272" height="272" fill="#fefefe"/>
        <g id="Grupo_887723" data-name="Grupo 887723">
          <g id="Grupo_887727" data-name="Grupo 887727">
            <path id="Trazado_601803" data-name="Trazado 601803" d="M2,273.1H273.1V2H2ZM225.343,161.189a3.009,3.009,0,0,1-3.012,3.012H52.761a3.006,3.006,0,0,1-3.012-3.012V143a3.01,3.01,0,0,1,3.012-3.012H222.33A3.013,3.013,0,0,1,225.343,143Zm0-30.14a3.013,3.013,0,0,1-3.012,3.012H52.761a3.01,3.01,0,0,1-3.012-3.012v-18.2a3.01,3.01,0,0,1,3.012-3.012H222.33a3.013,3.013,0,0,1,3.012,3.012Z" transform="translate(-0.79 -0.79)" fill="#8ccbf9"/>
            <path id="Trazado_601804" data-name="Trazado 601804" d="M0,272.309H272.309V0H0ZM224.34,159.9a3.023,3.023,0,0,1-3.026,3.026H50.988a3.019,3.019,0,0,1-3.026-3.026V141.625a3.023,3.023,0,0,1,3.026-3.026H221.314a3.027,3.027,0,0,1,3.026,3.026Zm0-30.275a3.027,3.027,0,0,1-3.026,3.026H50.988a3.023,3.023,0,0,1-3.026-3.026V111.344a3.023,3.023,0,0,1,3.026-3.026H221.314a3.027,3.027,0,0,1,3.026,3.026Z" fill="#26aab7"/>
            <path id="Trazado_601805" data-name="Trazado 601805" d="M93.127,294.577a6.936,6.936,0,1,1-6.935-6.936,6.936,6.936,0,0,1,6.935,6.936" transform="translate(-31.296 -113.581)" fill="#51616b"/>
            <path id="Trazado_601806" data-name="Trazado 601806" d="M252.647,353.3H82.146a3.026,3.026,0,0,1-3.026-3.026V331.949a3.026,3.026,0,0,1,3.026-3.026h170.5a3.026,3.026,0,0,1,3.026,3.026v18.325a3.026,3.026,0,0,1-3.026,3.026" transform="translate(-31.242 -129.882)" fill="#fefefe"/>
            <rect id="Rectángulo_298301" data-name="Rectángulo 298301" width="0.605" height="10.059" transform="translate(71.987 115.357)" fill="#51616b"/>
            <rect id="Rectángulo_298302" data-name="Rectángulo 298302" width="0.605" height="10.059" transform="translate(71.987 146.319)" fill="#51616b"/>
          </g>
        </g>
        <g id="Grupo_887725" data-name="Grupo 887725">
          <g id="Grupo_887724" data-name="Grupo 887724" clip-path="url(#clip-path)">
            <path id="Trazado_601807" data-name="Trazado 601807" d="M100.295,193.674a3.042,3.042,0,1,1-3.043-3.043,3.033,3.033,0,0,1,3.043,3.043" transform="translate(-37.201 -75.274)" fill="#51616b"/>
            <path id="Trazado_601808" data-name="Trazado 601808" d="M100.987,204.257H90.93A5.012,5.012,0,0,1,93.9,199.67c.018.018.036.03.054.048a3.187,3.187,0,0,0,4.006,0,.184.184,0,0,0,.048-.048,5.018,5.018,0,0,1,2.977,4.587" transform="translate(-35.906 -78.844)" fill="#51616b"/>
            <path id="Trazado_601809" data-name="Trazado 601809" d="M99.448,251.387a.608.608,0,1,1-.608-.608.607.607,0,0,1,.608.608" transform="translate(-38.789 -99.025)" fill="#51616b"/>
            <path id="Trazado_601810" data-name="Trazado 601810" d="M100.217,245.2h-.393v-1.24a3.141,3.141,0,0,0-6.282,0v1.24h-.394a.381.381,0,0,0-.381.381v4.885a.381.381,0,0,0,.381.381h7.069a.381.381,0,0,0,.382-.381v-4.885a.381.381,0,0,0-.382-.381m-6.27-1.24a2.735,2.735,0,0,1,5.471,0v1.24H93.946Zm2.939,4.487v.957H96.48v-.957a1.013,1.013,0,1,1,.405,0" transform="translate(-36.631 -95.093)" fill="#51616b"/>
            <path id="Trazado_601811" data-name="Trazado 601811" d="M230.72,45.463A16.463,16.463,0,1,1,214.258,29,16.419,16.419,0,0,1,230.72,45.463" transform="translate(-78.103 -11.451)" fill="#fefefe"/>
            <path id="Trazado_601812" data-name="Trazado 601812" d="M234.459,103.046H180.018a27.189,27.189,0,0,1,15.112-24.37c.22.193.439.374.658.554a18.215,18.215,0,0,0,22.9,0c.22-.18.439-.361.658-.554a27.188,27.188,0,0,1,15.113,24.37" transform="translate(-71.084 -31.067)" fill="#fefefe"/>
            <path id="Trazado_601813" data-name="Trazado 601813" d="M86.421,300.623l-3.145-3.145.856-.856,2.289,2.289,5.006-5.007.856.856Z" transform="translate(-32.883 -116.054)" fill="#f2f2f2"/>
            <path id="Trazado_601814" data-name="Trazado 601814" d="M160.912,144.952V140.1h.9v4.817c0,2.01.944,2.929,2.591,2.929s2.6-.92,2.6-2.929V140.1h.871v4.854c0,2.433-1.307,3.693-3.474,3.693s-3.486-1.259-3.486-3.693" transform="translate(-63.539 -55.32)" fill="#fefefe"/>
            <path id="Trazado_601815" data-name="Trazado 601815" d="M175.531,147.495l.351-.69a4.158,4.158,0,0,0,2.8,1.029c1.585,0,2.276-.666,2.276-1.5,0-2.324-5.217-.9-5.217-4.031,0-1.247.968-2.324,3.123-2.324a4.784,4.784,0,0,1,2.627.75l-.3.714a4.369,4.369,0,0,0-2.324-.7c-1.55,0-2.239.69-2.239,1.538,0,2.324,5.217.92,5.217,4.007,0,1.247-.992,2.312-3.159,2.312a4.594,4.594,0,0,1-3.147-1.1" transform="translate(-69.312 -55.273)" fill="#fefefe"/>
            <path id="Trazado_601816" data-name="Trazado 601816" d="M195.163,147.8v.775h-5.992V140.1h5.81v.775h-4.915v3.014h4.382v.762h-4.382V147.8Z" transform="translate(-74.698 -55.32)" fill="#fefefe"/>
            <path id="Trazado_601817" data-name="Trazado 601817" d="M208.337,148.571l-1.937-2.724a6.021,6.021,0,0,1-.678.036h-2.276v2.687h-.9V140.1h3.171c2.154,0,3.462,1.089,3.462,2.905a2.626,2.626,0,0,1-1.937,2.663l2.07,2.905ZM208.289,143c0-1.355-.9-2.131-2.591-2.131h-2.252v4.249H205.7c1.695,0,2.591-.787,2.591-2.119" transform="translate(-79.981 -55.32)" fill="#fefefe"/>
            <path id="Trazado_601818" data-name="Trazado 601818" d="M227.49,140.1h.9v7.7h4.745v.775H227.49Z" transform="translate(-89.829 -55.32)" fill="#fefefe"/>
            <path id="Trazado_601819" data-name="Trazado 601819" d="M237.75,144.287a4.451,4.451,0,1,1,4.455,4.31,4.265,4.265,0,0,1-4.455-4.31m8,0a3.559,3.559,0,1,0-3.547,3.51,3.432,3.432,0,0,0,3.547-3.51" transform="translate(-93.88 -55.273)" fill="#fefefe"/>
            <path id="Trazado_601820" data-name="Trazado 601820" d="M261.248,144.287h.859v3.232A4.673,4.673,0,0,1,259,148.6a4.313,4.313,0,1,1,.012-8.619,4.175,4.175,0,0,1,3.147,1.223l-.557.569a3.578,3.578,0,1,0-2.566,6.028,3.668,3.668,0,0,0,2.215-.654Z" transform="translate(-100.506 -55.273)" fill="#fefefe"/>
            <rect id="Rectángulo_298304" data-name="Rectángulo 298304" width="0.896" height="8.474" transform="translate(164.129 84.778)" fill="#fefefe"/>
            <path id="Trazado_601821" data-name="Trazado 601821" d="M284.352,140.1v8.474h-.739l-5.447-6.875v6.875h-.9V140.1h.739l5.459,6.875V140.1Z" transform="translate(-109.485 -55.32)" fill="#fefefe"/>
            <path id="Trazado_601822" data-name="Trazado 601822" d="M128.592,197.311v-2.425h.447v2.407c0,1,.472,1.464,1.294,1.464s1.3-.46,1.3-1.464v-2.407h.436v2.425a1.742,1.742,0,1,1-3.478,0" transform="translate(-50.777 -76.955)" fill="#6d818e"/>
            <path id="Trazado_601823" data-name="Trazado 601823" d="M135.692,199.428l.194-.339a1.921,1.921,0,0,0,1.131.357c.6,0,.853-.206.853-.52,0-.828-2.062-.175-2.062-1.433,0-.52.448-.907,1.258-.907a2.156,2.156,0,0,1,1.125.3l-.188.345a1.629,1.629,0,0,0-.937-.272c-.575,0-.829.224-.829.526,0,.859,2.063.211,2.063,1.433,0,.551-.484.907-1.313.907a2.126,2.126,0,0,1-1.294-.393" transform="translate(-53.581 -77.626)" fill="#6d818e"/>
            <path id="Trazado_601824" data-name="Trazado 601824" d="M143.872,198.334h-2.661a1.178,1.178,0,0,0,1.252,1.107,1.254,1.254,0,0,0,.974-.418l.242.278a1.682,1.682,0,0,1-2.9-1.1,1.532,1.532,0,0,1,1.555-1.614,1.516,1.516,0,0,1,1.542,1.614c0,.036-.007.085-.007.133m-2.661-.321h2.256a1.13,1.13,0,0,0-2.256,0" transform="translate(-55.591 -77.626)" fill="#6d818e"/>
            <path id="Trazado_601825" data-name="Trazado 601825" d="M148.955,196.585V197c-.036,0-.073-.006-.1-.006a1.029,1.029,0,0,0-1.07,1.173v1.621h-.43v-3.181h.411v.623a1.2,1.2,0,0,1,1.192-.647" transform="translate(-58.185 -77.625)" fill="#6d818e"/>
            <path id="Trazado_601826" data-name="Trazado 601826" d="M154.209,197.946v1.844h-.429v-1.8a.888.888,0,0,0-.956-1.016,1.043,1.043,0,0,0-1.113,1.149v1.669h-.43v-3.181h.411v.587a1.337,1.337,0,0,1,1.21-.611,1.218,1.218,0,0,1,1.306,1.361" transform="translate(-59.737 -77.625)" fill="#6d818e"/>
            <path id="Trazado_601827" data-name="Trazado 601827" d="M160.279,197.819v1.972h-.411v-.5a1.2,1.2,0,0,1-1.095.526c-.719,0-1.161-.375-1.161-.925,0-.49.315-.9,1.228-.9h1.01V197.8c0-.544-.309-.841-.9-.841a1.624,1.624,0,0,0-1.058.375l-.194-.32a2.019,2.019,0,0,1,1.294-.43,1.13,1.13,0,0,1,1.288,1.234m-.429,1.016v-.52h-1c-.617,0-.816.241-.816.568,0,.369.3.6.8.6a1.018,1.018,0,0,0,1.01-.647" transform="translate(-62.236 -77.625)" fill="#6d818e"/>
            <path id="Trazado_601828" data-name="Trazado 601828" d="M169.2,197.946v1.844h-.43v-1.8c0-.672-.339-1.016-.913-1.016a1.022,1.022,0,0,0-1.064,1.149v1.669h-.429v-1.8c0-.672-.339-1.016-.92-1.016a1.025,1.025,0,0,0-1.064,1.149v1.669h-.43v-3.181h.411v.581a1.287,1.287,0,0,1,1.168-.605,1.143,1.143,0,0,1,1.131.672,1.385,1.385,0,0,1,1.257-.672,1.2,1.2,0,0,1,1.282,1.361" transform="translate(-64.74 -77.625)" fill="#6d818e"/>
            <path id="Trazado_601829" data-name="Trazado 601829" d="M177.142,198.334h-2.661a1.178,1.178,0,0,0,1.252,1.107,1.256,1.256,0,0,0,.974-.418l.241.278a1.682,1.682,0,0,1-2.9-1.1,1.532,1.532,0,0,1,1.554-1.614,1.516,1.516,0,0,1,1.542,1.614c0,.036-.006.085-.006.133m-2.661-.321h2.257a1.131,1.131,0,0,0-2.257,0" transform="translate(-68.728 -77.626)" fill="#6d818e"/>
            <path id="Trazado_601830" data-name="Trazado 601830" d="M131.966,247.5c0,.9-.653,1.446-1.729,1.446H129.1v1.337h-.448v-4.234h1.585c1.077,0,1.729.544,1.729,1.451m-.447,0c0-.677-.448-1.064-1.294-1.064H129.1v2.117h1.125c.847,0,1.294-.387,1.294-1.052" transform="translate(-50.801 -97.159)" fill="#6d818e"/>
            <path id="Trazado_601831" data-name="Trazado 601831" d="M137.759,248.986v1.971h-.411v-.5a1.194,1.194,0,0,1-1.095.526c-.719,0-1.161-.375-1.161-.925,0-.49.315-.9,1.228-.9h1.01v-.194c0-.544-.309-.841-.9-.841a1.621,1.621,0,0,0-1.058.375l-.194-.32a2.02,2.02,0,0,1,1.294-.43,1.13,1.13,0,0,1,1.288,1.234M137.33,250v-.52h-1c-.617,0-.816.241-.816.568,0,.368.3.6.8.6a1.018,1.018,0,0,0,1.01-.647" transform="translate(-53.344 -97.83)" fill="#6d818e"/>
            <path id="Trazado_601832" data-name="Trazado 601832" d="M140.7,250.594l.194-.339a1.921,1.921,0,0,0,1.131.357c.6,0,.853-.206.853-.52,0-.828-2.062-.176-2.062-1.433,0-.52.448-.907,1.258-.907a2.156,2.156,0,0,1,1.125.3l-.188.345a1.63,1.63,0,0,0-.937-.272c-.575,0-.829.224-.829.526,0,.859,2.063.211,2.063,1.433,0,.551-.484.907-1.313.907a2.126,2.126,0,0,1-1.294-.393" transform="translate(-55.559 -97.83)" fill="#6d818e"/>
            <path id="Trazado_601833" data-name="Trazado 601833" d="M145.592,250.594l.194-.339a1.921,1.921,0,0,0,1.131.357c.6,0,.853-.206.853-.52,0-.828-2.062-.176-2.062-1.433,0-.52.448-.907,1.258-.907a2.156,2.156,0,0,1,1.125.3l-.188.345a1.63,1.63,0,0,0-.937-.272c-.575,0-.829.224-.829.526,0,.859,2.063.211,2.063,1.433,0,.551-.484.907-1.313.907a2.126,2.126,0,0,1-1.294-.393" transform="translate(-57.49 -97.83)" fill="#6d818e"/>
            <path id="Trazado_601834" data-name="Trazado 601834" d="M155.422,247.792l-1.2,3.181h-.4l-1-2.606-1,2.606h-.4l-1.2-3.181h.411l1,2.7,1.022-2.7H153l1.016,2.7,1.01-2.7Z" transform="translate(-59.31 -97.845)" fill="#6d818e"/>
            <path id="Trazado_601835" data-name="Trazado 601835" d="M159.223,249.366a1.618,1.618,0,1,1,1.621,1.621,1.564,1.564,0,0,1-1.621-1.621m2.8,0a1.184,1.184,0,1,0-1.179,1.24,1.16,1.16,0,0,0,1.179-1.24" transform="translate(-62.872 -97.83)" fill="#6d818e"/>
            <path id="Trazado_601836" data-name="Trazado 601836" d="M167.625,247.752v.417c-.037,0-.073-.006-.1-.006a1.029,1.029,0,0,0-1.07,1.173v1.621h-.43v-3.181h.411v.623a1.2,1.2,0,0,1,1.192-.647" transform="translate(-65.557 -97.83)" fill="#6d818e"/>
            <path id="Trazado_601837" data-name="Trazado 601837" d="M172.6,245.632v4.488h-.411v-.629a1.378,1.378,0,0,1-1.228.659,1.618,1.618,0,0,1,0-3.235,1.388,1.388,0,0,1,1.21.629v-1.912Zm-.424,2.9a1.183,1.183,0,1,0-1.179,1.24,1.163,1.163,0,0,0,1.179-1.24" transform="translate(-66.88 -96.993)" fill="#6d818e"/>
            <path id="Trazado_601838" data-name="Trazado 601838" d="M112.981,300.036,111.82,298.4a3.472,3.472,0,0,1-.406.022h-1.365v1.611h-.537v-5.081h1.9c1.291,0,2.075.654,2.075,1.742a1.575,1.575,0,0,1-1.161,1.6l1.242,1.742Zm-.029-3.339c0-.813-.537-1.277-1.553-1.277h-1.349v2.548H111.4c1.016,0,1.553-.472,1.553-1.27" transform="translate(-43.243 -116.469)" fill="#fefefe"/>
            <path id="Trazado_601839" data-name="Trazado 601839" d="M121.081,299.091h-3.193a1.413,1.413,0,0,0,1.5,1.328,1.507,1.507,0,0,0,1.169-.5l.29.333a2.018,2.018,0,0,1-3.476-1.321,1.839,1.839,0,0,1,1.865-1.938,1.819,1.819,0,0,1,1.851,1.938c0,.044-.007.1-.007.16m-3.193-.384h2.707a1.356,1.356,0,0,0-2.707,0" transform="translate(-46.347 -117.274)" fill="#fefefe"/>
            <path id="Trazado_601840" data-name="Trazado 601840" d="M131.556,298.627v2.214h-.516v-2.163c0-.805-.405-1.219-1.1-1.219a1.227,1.227,0,0,0-1.277,1.38v2h-.516v-2.163c0-.805-.407-1.219-1.1-1.219a1.231,1.231,0,0,0-1.277,1.38v2h-.515v-3.817h.493v.7a1.545,1.545,0,0,1,1.4-.726,1.373,1.373,0,0,1,1.357.805,1.661,1.661,0,0,1,1.509-.805,1.441,1.441,0,0,1,1.539,1.633" transform="translate(-49.46 -117.274)" fill="#fefefe"/>
            <path id="Trazado_601841" data-name="Trazado 601841" d="M141.085,299.091h-3.193a1.413,1.413,0,0,0,1.5,1.328,1.507,1.507,0,0,0,1.169-.5l.29.333a2.018,2.018,0,0,1-3.476-1.321,1.839,1.839,0,0,1,1.865-1.938,1.819,1.819,0,0,1,1.851,1.938c0,.044-.007.1-.007.16m-3.193-.384H140.6a1.356,1.356,0,0,0-2.707,0" transform="translate(-54.246 -117.274)" fill="#fefefe"/>
            <path id="Trazado_601842" data-name="Trazado 601842" d="M151.559,298.627v2.214h-.516v-2.163c0-.805-.406-1.219-1.1-1.219a1.227,1.227,0,0,0-1.277,1.38v2h-.516v-2.163c0-.805-.407-1.219-1.1-1.219a1.231,1.231,0,0,0-1.277,1.38v2h-.515v-3.817h.493v.7a1.545,1.545,0,0,1,1.4-.726,1.371,1.371,0,0,1,1.357.805,1.662,1.662,0,0,1,1.509-.805,1.441,1.441,0,0,1,1.539,1.633" transform="translate(-57.359 -117.274)" fill="#fefefe"/>
            <path id="Trazado_601843" data-name="Trazado 601843" d="M161.861,297.928a1.853,1.853,0,0,1-1.9,1.945,1.654,1.654,0,0,1-1.473-.792v.755h-.493v-5.384h.516v2.293a1.665,1.665,0,0,1,1.451-.755,1.847,1.847,0,0,1,1.9,1.938m-.516,0a1.424,1.424,0,1,0-1.423,1.488,1.4,1.4,0,0,0,1.423-1.488" transform="translate(-62.386 -116.27)" fill="#fefefe"/>
            <path id="Trazado_601844" data-name="Trazado 601844" d="M169.2,299.091h-3.193a1.413,1.413,0,0,0,1.5,1.328,1.5,1.5,0,0,0,1.169-.5l.291.333a2.019,2.019,0,0,1-3.477-1.321,1.839,1.839,0,0,1,1.865-1.938,1.819,1.819,0,0,1,1.851,1.938c0,.044-.007.1-.007.16m-3.193-.384h2.707a1.356,1.356,0,0,0-2.707,0" transform="translate(-65.347 -117.274)" fill="#fefefe"/>
            <path id="Trazado_601845" data-name="Trazado 601845" d="M175.3,296.994v.5c-.043,0-.087-.007-.123-.007a1.235,1.235,0,0,0-1.285,1.408v1.945h-.516v-3.818h.494v.747a1.439,1.439,0,0,1,1.429-.776" transform="translate(-68.461 -117.274)" fill="#fefefe"/>
            <path id="Trazado_601846" data-name="Trazado 601846" d="M187.631,298.627v2.214h-.516v-2.163c0-.805-.406-1.219-1.1-1.219a1.227,1.227,0,0,0-1.277,1.38v2h-.516v-2.163c0-.805-.407-1.219-1.1-1.219a1.231,1.231,0,0,0-1.277,1.38v2h-.515v-3.817h.493v.7a1.545,1.545,0,0,1,1.4-.726,1.372,1.372,0,0,1,1.357.805,1.661,1.661,0,0,1,1.509-.805,1.441,1.441,0,0,1,1.539,1.633" transform="translate(-71.603 -117.274)" fill="#fefefe"/>
            <path id="Trazado_601847" data-name="Trazado 601847" d="M197.16,299.091h-3.193a1.413,1.413,0,0,0,1.5,1.328,1.5,1.5,0,0,0,1.169-.5l.291.333a2.019,2.019,0,0,1-3.477-1.321,1.839,1.839,0,0,1,1.865-1.938,1.819,1.819,0,0,1,1.851,1.938c0,.044-.007.1-.007.16m-3.193-.384h2.707a1.356,1.356,0,0,0-2.707,0" transform="translate(-76.388 -117.274)" fill="#fefefe"/>
            <path id="Trazado_601848" data-name="Trazado 601848" d="M200.409,342.6h.717v6.16h3.8v.62h-4.514Z" transform="translate(-79.136 -135.283)" fill="#51616b"/>
            <path id="Trazado_601849" data-name="Trazado 601849" d="M208.617,345.955a3.561,3.561,0,1,1,3.565,3.448,3.412,3.412,0,0,1-3.565-3.448m6.4,0a2.848,2.848,0,1,0-2.837,2.809,2.747,2.747,0,0,0,2.837-2.809" transform="translate(-82.377 -135.245)" fill="#51616b"/>
            <path id="Trazado_601850" data-name="Trazado 601850" d="M227.417,345.955h.688v2.586a3.741,3.741,0,0,1-2.49.862,3.451,3.451,0,1,1,.01-6.9,3.341,3.341,0,0,1,2.518.978l-.445.455a2.863,2.863,0,1,0-2.054,4.824,2.936,2.936,0,0,0,1.773-.523Z" transform="translate(-87.677 -135.245)" fill="#51616b"/>
            <rect id="Rectángulo_298305" data-name="Rectángulo 298305" width="0.716" height="6.78" transform="translate(142.448 207.319)" fill="#51616b"/>
            <path id="Trazado_601851" data-name="Trazado 601851" d="M245.9,342.6v6.78h-.591l-4.359-5.5v5.5h-.716V342.6h.59l4.369,5.5v-5.5Z" transform="translate(-94.861 -135.283)" fill="#51616b"/>
            <path id="Trazado_601852" data-name="Trazado 601852" d="M264.1,295.419l-.4,2h2.634l-.094.464h-2.634l-.428,2.155h-.53l1.016-5.081h3.484l-.094.465Z" transform="translate(-103.714 -116.469)" fill="#51616b"/>
            <path id="Trazado_601853" data-name="Trazado 601853" d="M269.793,299.258A2.166,2.166,0,0,1,272,296.994a1.564,1.564,0,0,1,1.735,1.611,2.169,2.169,0,0,1-2.206,2.272,1.572,1.572,0,0,1-1.734-1.619m3.425-.624a1.118,1.118,0,0,0-1.255-1.19,1.676,1.676,0,0,0-1.655,1.792,1.113,1.113,0,0,0,1.256,1.183,1.67,1.67,0,0,0,1.654-1.785" transform="translate(-106.533 -117.274)" fill="#51616b"/>
            <path id="Trazado_601854" data-name="Trazado 601854" d="M280.063,296.994l-.094.5c-.051,0-.087-.007-.145-.007a1.51,1.51,0,0,0-1.546,1.415l-.385,1.938h-.515l.755-3.818h.493l-.131.7a1.727,1.727,0,0,1,1.568-.726" transform="translate(-109.528 -117.274)" fill="#51616b"/>
            <path id="Trazado_601855" data-name="Trazado 601855" d="M286.139,297.023l-.667,3.353a2.033,2.033,0,0,1-2.221,1.909,2.428,2.428,0,0,1-1.7-.573l.3-.392a2,2,0,0,0,1.429.508,1.494,1.494,0,0,0,1.656-1.364l.087-.421a1.975,1.975,0,0,1-1.524.654,1.513,1.513,0,0,1-1.683-1.539A2.109,2.109,0,0,1,284,296.994a1.464,1.464,0,0,1,1.488.871l.16-.842Zm-.871,1.532c0-.7-.471-1.11-1.263-1.11a1.618,1.618,0,0,0-1.662,1.683c0,.7.465,1.11,1.263,1.11a1.622,1.622,0,0,0,1.662-1.683" transform="translate(-111.176 -117.274)" fill="#51616b"/>
            <path id="Trazado_601856" data-name="Trazado 601856" d="M290.2,299.258a2.166,2.166,0,0,1,2.206-2.264,1.564,1.564,0,0,1,1.735,1.611,2.169,2.169,0,0,1-2.206,2.272,1.572,1.572,0,0,1-1.734-1.619m3.425-.624a1.118,1.118,0,0,0-1.255-1.19,1.676,1.676,0,0,0-1.655,1.792,1.113,1.113,0,0,0,1.256,1.183,1.669,1.669,0,0,0,1.654-1.785" transform="translate(-114.593 -117.274)" fill="#51616b"/>
            <path id="Trazado_601857" data-name="Trazado 601857" d="M298.668,299.161a1.53,1.53,0,0,0-.03.239c0,.327.182.508.552.508a.97.97,0,0,0,.588-.2l.123.392a1.421,1.421,0,0,1-.849.247.833.833,0,0,1-.929-.871,1.425,1.425,0,0,1,.029-.3l.443-2.25h-.675L298,296.5h.682l.168-.834h.515l-.167.834h1.161l-.087.435h-1.161Z" transform="translate(-117.64 -116.748)" fill="#51616b"/>
            <path id="Trazado_601858" data-name="Trazado 601858" d="M310.637,296.392c0,1.307-.907,2.039-2.359,2.039h-1.437l-.327,1.6h-.53L307,294.955h1.821c1.147,0,1.815.53,1.815,1.437m-.537.051c0-.668-.471-1.023-1.321-1.023h-1.336l-.515,2.54h1.357c1.153,0,1.814-.516,1.814-1.517" transform="translate(-120.824 -116.469)" fill="#51616b"/>
            <path id="Trazado_601859" data-name="Trazado 601859" d="M318.487,297.023l-.762,3.818h-.493l.123-.6a1.956,1.956,0,0,1-1.488.639,1.539,1.539,0,0,1-1.662-1.619,2.147,2.147,0,0,1,2.155-2.264,1.435,1.435,0,0,1,1.452.827l.16-.8Zm-.856,1.611a1.118,1.118,0,0,0-1.256-1.19,1.676,1.676,0,0,0-1.655,1.792,1.113,1.113,0,0,0,1.256,1.183,1.67,1.67,0,0,0,1.655-1.785" transform="translate(-124.07 -117.274)" fill="#51616b"/>
            <path id="Trazado_601860" data-name="Trazado 601860" d="M321.728,300.413l.247-.407a2.1,2.1,0,0,0,1.321.421c.733,0,1.132-.254,1.132-.682,0-.864-2.163-.269-2.163-1.561,0-.726.654-1.19,1.654-1.19a2.326,2.326,0,0,1,1.292.356l-.217.414a1.911,1.911,0,0,0-1.118-.327c-.7,0-1.1.283-1.1.7,0,.886,2.163.283,2.163,1.554,0,.755-.675,1.19-1.691,1.19a2.423,2.423,0,0,1-1.517-.465" transform="translate(-127.041 -117.274)" fill="#51616b"/>
            <path id="Trazado_601861" data-name="Trazado 601861" d="M327.6,300.413l.247-.407a2.1,2.1,0,0,0,1.321.421c.733,0,1.132-.254,1.132-.682,0-.864-2.163-.269-2.163-1.561,0-.726.654-1.19,1.654-1.19a2.327,2.327,0,0,1,1.292.356l-.218.414a1.907,1.907,0,0,0-1.117-.327c-.7,0-1.1.283-1.1.7,0,.886,2.163.283,2.163,1.554,0,.755-.675,1.19-1.691,1.19a2.424,2.424,0,0,1-1.517-.465" transform="translate(-129.358 -117.274)" fill="#51616b"/>
            <path id="Trazado_601862" data-name="Trazado 601862" d="M340.458,297.042,338.3,300.86h-.5l-.638-3.121-1.786,3.121h-.493l-.747-3.818h.471l.617,3.237,1.844-3.237h.436l.638,3.237,1.815-3.237Z" transform="translate(-131.941 -117.293)" fill="#51616b"/>
            <path id="Trazado_601863" data-name="Trazado 601863" d="M344.325,299.258a2.166,2.166,0,0,1,2.206-2.264,1.564,1.564,0,0,1,1.736,1.611,2.169,2.169,0,0,1-2.207,2.272,1.572,1.572,0,0,1-1.734-1.619m3.426-.624a1.118,1.118,0,0,0-1.256-1.19,1.676,1.676,0,0,0-1.655,1.792,1.113,1.113,0,0,0,1.256,1.183,1.67,1.67,0,0,0,1.655-1.785" transform="translate(-135.964 -117.274)" fill="#51616b"/>
            <path id="Trazado_601864" data-name="Trazado 601864" d="M354.594,296.994l-.094.5c-.051,0-.088-.007-.146-.007a1.51,1.51,0,0,0-1.546,1.415l-.385,1.938h-.515l.755-3.818h.494l-.131.7a1.726,1.726,0,0,1,1.567-.726" transform="translate(-138.958 -117.274)" fill="#51616b"/>
            <path id="Trazado_601865" data-name="Trazado 601865" d="M361.1,294.452l-1.075,5.385h-.493l.123-.6a1.957,1.957,0,0,1-1.488.639,1.539,1.539,0,0,1-1.662-1.619,2.147,2.147,0,0,1,2.155-2.264,1.441,1.441,0,0,1,1.452.827l.471-2.365Zm-1.168,3.179a1.118,1.118,0,0,0-1.256-1.19,1.676,1.676,0,0,0-1.655,1.792,1.113,1.113,0,0,0,1.256,1.183,1.67,1.67,0,0,0,1.655-1.785" transform="translate(-140.773 -116.27)" fill="#51616b"/>
            <path id="Trazado_601866" data-name="Trazado 601866" d="M367.929,296.088c0-.472-.362-.747-1.03-.747a1.9,1.9,0,0,0-1.474.588l-.341-.312a2.427,2.427,0,0,1,1.887-.732c.929,0,1.5.421,1.5,1.124,0,1.372-1.538,1.35-1.785,2.475h-.537c.24-1.292,1.785-1.3,1.785-2.4m-2.133,3.6a.385.385,0,0,1,.392-.392.352.352,0,0,1,.363.348.392.392,0,0,1-.392.4.358.358,0,0,1-.363-.356" transform="translate(-144.161 -116.441)" fill="#51616b"/>
          </g>
        </g>
      </g>
    </g>
  </g>
</svg>
