<svg xmlns="http://www.w3.org/2000/svg" width="190" height="205" viewBox="0 0 190 205">
  <g id="Grupo_890190" data-name="Grupo 890190" transform="translate(-1020 -2194)">
    <path id="Trazado_605233" data-name="Trazado 605233" d="M26,0H164a26,26,0,0,1,26,26V179a26,26,0,0,1-26,26H26A26,26,0,0,1,0,179V26A26,26,0,0,1,26,0Z" transform="translate(1020 2194)" fill="#fff"/>
    <g id="Grupo_890019" data-name="Grupo 890019" transform="translate(198.8 1990.102)">
      <g id="Grupo_890018" data-name="Grupo 890018" transform="translate(852.669 224.574)">
        <g id="Grupo_890014" data-name="Grupo 890014" transform="translate(0 109.522)">
          <circle id="Elipse_8051" data-name="Elipse 8051" cx="9.624" cy="9.624" r="9.624" transform="translate(1.838 1.838)" fill="#fb8c00"/>
          <path id="Trazado_605021" data-name="Trazado 605021" d="M864.131,634.869a11.462,11.462,0,1,1,11.462-11.462A11.475,11.475,0,0,1,864.131,634.869Zm0-19.249a7.787,7.787,0,1,0,7.787,7.787A7.8,7.8,0,0,0,864.131,615.621Z" transform="translate(-852.669 -611.945)" fill="#161615"/>
        </g>
        <g id="Grupo_890015" data-name="Grupo 890015" transform="translate(10.288 0)">
          <path id="Trazado_605022" data-name="Trazado 605022" d="M965.528,231.074H918.7a23.142,23.142,0,0,0-23.142,23.142V365.233A23.142,23.142,0,0,0,918.7,388.375h66.808a23.142,23.142,0,0,0,23.142-23.142V274.195Z" transform="translate(-893.718 -229.236)" fill="#fff"/>
          <path id="Trazado_605023" data-name="Trazado 605023" d="M980.844,385.551H914.036a25.008,25.008,0,0,1-24.98-24.98V249.554a25.008,25.008,0,0,1,24.98-24.98h46.83a1.837,1.837,0,0,1,1.3.538l43.121,43.121a1.837,1.837,0,0,1,.538,1.3v91.038A25.008,25.008,0,0,1,980.844,385.551Zm-66.808-157.3a21.329,21.329,0,0,0-21.3,21.3V360.571a21.329,21.329,0,0,0,21.3,21.3h66.808a21.329,21.329,0,0,0,21.3-21.3V270.294L960.1,228.25Z" transform="translate(-889.056 -224.574)" fill="#161615"/>
        </g>
        <g id="Grupo_890016" data-name="Grupo 890016" transform="translate(80.26 0)">
          <path id="Trazado_605024" data-name="Trazado 605024" d="M1143.041,231.074l43.121,43.121h-33.925a9.2,9.2,0,0,1-9.2-9.2Z" transform="translate(-1141.203 -229.236)" fill="#dddddc"/>
          <path id="Trazado_605025" data-name="Trazado 605025" d="M1181.505,271.37h-33.931a11.046,11.046,0,0,1-11.034-11.034V226.412a1.838,1.838,0,0,1,3.137-1.3l43.038,43.038a1.838,1.838,0,0,1-1.211,3.22Zm-41.289-40.522v29.488a7.366,7.366,0,0,0,7.358,7.358h29.488Z" transform="translate(-1136.541 -224.574)" fill="#161615"/>
        </g>
        <g id="Grupo_890017" data-name="Grupo 890017" transform="translate(0.149 63.648)">
          <path id="Trazado_605026" data-name="Trazado 605026" d="M870.046,456.192A10.351,10.351,0,0,0,859.7,466.543v43.344h.19a10.352,10.352,0,0,1,10.161-8.38H974.283V456.192Z" transform="translate(-857.857 -454.354)" fill="#fb8c00"/>
          <path id="Trazado_605027" data-name="Trazado 605027" d="M855.223,507.063h-.19a1.838,1.838,0,0,1-1.838-1.838V461.881a12.2,12.2,0,0,1,12.188-12.189H969.62a1.838,1.838,0,0,1,1.838,1.838v45.315a1.838,1.838,0,0,1-1.838,1.838H865.384a8.518,8.518,0,0,0-8.357,6.89A1.838,1.838,0,0,1,855.223,507.063Zm10.161-53.7a8.523,8.523,0,0,0-8.513,8.513v36.6a12.183,12.183,0,0,1,8.513-3.47h102.4v-41.64Z" transform="translate(-853.195 -449.692)" fill="#161615"/>
        </g>
      </g>
    </g>
    <path id="Trazado_605232" data-name="Trazado 605232" d="M13.3-5.833l1.794-9.808h3.738L15.512,0H11.6L9.507-8.916,7.455,0h-3.9L.226-15.641H3.975L5.769-5.833l2.148-9.808h3.2ZM28.725-2.922H23.558L22.655,0H18.627l5.736-15.641h3.545L33.688,0h-4.05ZM24.46-5.833h3.362l-1.687-5.425ZM40.068-4.254l3.115-11.387h4.211L42.131,0H38.006L32.785-15.641h4.179Z" transform="translate(1093 2310)" fill="#00223d"/>
  </g>
</svg>
