<svg xmlns="http://www.w3.org/2000/svg" xmlns:xlink="http://www.w3.org/1999/xlink" width="505" height="353.498" viewBox="0 0 505 353.498">
  <defs>
    <clipPath id="clip-path">
      <rect id="Rectángulo_300616" data-name="Rectángulo 300616" width="505" height="353.498" fill="none"/>
    </clipPath>
    <clipPath id="clip-path-2">
      <rect id="Rectángulo_300566" data-name="Rectángulo 300566" width="417.51" height="289.046" fill="none"/>
    </clipPath>
    <clipPath id="clip-path-3">
      <rect id="Rectángulo_300570" data-name="Rectángulo 300570" width="213.45" height="122.612" fill="none"/>
    </clipPath>
    <clipPath id="clip-path-4">
      <rect id="Rectángulo_300580" data-name="Rectángulo 300580" width="94.304" height="20.121" fill="none"/>
    </clipPath>
  </defs>
  <g id="Grupo_890299" data-name="Grupo 890299" transform="translate(4006 7829.434)">
    <g id="Grupo_888732" data-name="Grupo 888732" transform="translate(-4006 -7829.434)">
      <g id="Grupo_888731" data-name="Grupo 888731" clip-path="url(#clip-path)">
        <path id="Trazado_603082" data-name="Trazado 603082" d="M370.113,167.648A150.887,150.887,0,1,1,219.226,16.759,150.888,150.888,0,0,1,370.113,167.648" transform="translate(34.377 8.43)" fill="#e09d93"/>
        <g id="Grupo_888724" data-name="Grupo 888724" transform="translate(51.3 41.15)" opacity="0.1">
          <g id="Grupo_888723" data-name="Grupo 888723">
            <g id="Grupo_888722" data-name="Grupo 888722" clip-path="url(#clip-path-2)">
              <path id="Trazado_603083" data-name="Trazado 603083" d="M317.214,100.9H284.9V31.885a3.009,3.009,0,0,0-3.012-3.009H141.331a3.01,3.01,0,0,0-3.011,3.009V100.9H105.581a4.91,4.91,0,0,0-4.9,4.9V248.32a4.9,4.9,0,0,0,4.9,4.892H179.9s-.325,26.968-6.843,31.851-15.97,8.8,6.843,8.8h61.927c22.819,0,13.367-3.912,6.849-8.8s-6.849-31.851-6.849-31.851h75.386a4.906,4.906,0,0,0,4.894-4.892V105.793a4.911,4.911,0,0,0-4.894-4.9M209.419,247.652a1.55,1.55,0,0,1-.433-.271,4.806,4.806,0,0,0,.631.308.747.747,0,0,1-.2-.038m5.418-.927a3.393,3.393,0,0,1-.684.723,1.209,1.209,0,0,1-.969.248l-.014,0a4.919,4.919,0,0,0,1.852-1.263c-.065.1-.117.2-.185.3" transform="translate(-0.651 -26.624)" fill="#1d1d1b"/>
              <path id="Trazado_603084" data-name="Trazado 603084" d="M115.636,27.378H43.681a9.551,9.551,0,0,0-9.55,9.55V90.417a9.551,9.551,0,0,0,9.55,9.552h71.955a9.552,9.552,0,0,0,9.552-9.552V36.928a9.552,9.552,0,0,0-9.552-9.55" transform="translate(-34.131 -27.378)" fill="#1d1d1b"/>
              <path id="Trazado_603085" data-name="Trazado 603085" d="M332.831,27.378H260.879a9.552,9.552,0,0,0-9.553,9.55V90.417a9.553,9.553,0,0,0,9.553,9.552h71.952a9.551,9.551,0,0,0,9.552-9.552V36.928a9.551,9.551,0,0,0-9.552-9.55" transform="translate(75.127 -27.378)" fill="#1d1d1b"/>
              <path id="Trazado_603086" data-name="Trazado 603086" d="M115.636,171.39H43.681a9.551,9.551,0,0,0-9.55,9.552v53.487a9.551,9.551,0,0,0,9.55,9.552h71.955a9.552,9.552,0,0,0,9.552-9.552V180.942a9.552,9.552,0,0,0-9.552-9.552" transform="translate(-34.131 45.066)" fill="#1d1d1b"/>
              <path id="Trazado_603087" data-name="Trazado 603087" d="M332.831,171.39H260.879a9.553,9.553,0,0,0-9.553,9.552v53.487a9.553,9.553,0,0,0,9.553,9.552h71.952a9.551,9.551,0,0,0,9.552-9.552V180.942a9.551,9.551,0,0,0-9.552-9.552" transform="translate(75.127 45.066)" fill="#1d1d1b"/>
              <path id="Trazado_603088" data-name="Trazado 603088" d="M308.547,161.184a29.32,29.32,0,1,0-36-37l-12.133,7.4,11.8,9.062c.035.129.053.259.092.388a29.314,29.314,0,0,0,36.234,20.153" transform="translate(79.7 10.996)" fill="#1d1d1b"/>
              <path id="Trazado_603089" data-name="Trazado 603089" d="M78.7,161.184A29.276,29.276,0,0,0,98.609,141.8l12.134-7.4-11.8-9.063c-.035-.128-.053-.257-.09-.386A29.316,29.316,0,1,0,78.7,161.184" transform="translate(-30.509 10.996)" fill="#1d1d1b"/>
            </g>
          </g>
        </g>
        <path id="Trazado_603090" data-name="Trazado 603090" d="M56.495,50.925h-1.5V47.919H58v1.5h-1.5Z" transform="translate(27.663 24.105)" fill="#fff"/>
        <path id="Trazado_603091" data-name="Trazado 603091" d="M56.5,91.12h-1.5V86.857h1.5Zm0-8.525h-1.5V78.332h1.5Zm0-8.525h-1.5V69.807h1.5Zm0-8.525h-1.5V61.282h1.5Zm0-8.527h-1.5V52.755h1.5Z" transform="translate(27.663 26.538)" fill="#fff"/>
        <path id="Trazado_603092" data-name="Trazado 603092" d="M57,84.123H53.992v-1.5h1.5v-1.5H57Z" transform="translate(27.16 40.805)" fill="#fff"/>
        <path id="Trazado_603093" data-name="Trazado 603093" d="M64.581,83.62H60.069v-1.5h4.512Zm-9.024,0H51.045v-1.5h4.512Zm-9.026,0H42.019v-1.5h4.512Zm-9.023,0H33v-1.5h4.512Zm-9.024,0H23.972v-1.5h4.512Z" transform="translate(12.059 41.308)" fill="#fff"/>
        <path id="Trazado_603094" data-name="Trazado 603094" d="M20.472,85.123h-1.5V82.117h3.006v1.5h-1.5Z" transform="translate(9.542 41.308)" fill="#fff"/>
        <path id="Trazado_603095" data-name="Trazado 603095" d="M20.472,117.672h-1.5v-4.378h1.5Zm0-8.755h-1.5V104.54h1.5Zm0-8.755h-1.5V95.783h1.5Zm0-8.755h-1.5V87.028h1.5Z" transform="translate(9.542 43.778)" fill="#fff"/>
        <path id="Trazado_603096" data-name="Trazado 603096" d="M21.975,113.335H18.969v-3.006h1.5v1.5h1.5Z" transform="translate(9.542 55.5)" fill="#fff"/>
        <path id="Trazado_603097" data-name="Trazado 603097" d="M64.582,112.832H60.069v-1.5h4.512Zm-9.026,0H51.044v-1.5h4.512Zm-9.024,0H42.019v-1.5h4.512Zm-9.023,0H33v-1.5h4.512Zm-9.026,0H23.971v-1.5h4.512Z" transform="translate(12.058 56.003)" fill="#fff"/>
        <path id="Trazado_603098" data-name="Trazado 603098" d="M57,114.335h-1.5v-1.5h-1.5v-1.5H57Z" transform="translate(27.16 56.003)" fill="#fff"/>
        <path id="Trazado_603099" data-name="Trazado 603099" d="M56.5,126.522h-1.5v-3.6h1.5Zm0-7.2h-1.5v-3.6h1.5Z" transform="translate(27.663 58.213)" fill="#fff"/>
        <path id="Trazado_603100" data-name="Trazado 603100" d="M57,128.308H53.992v-1.5h1.5v-1.5H57Z" transform="translate(27.16 63.032)" fill="#fff"/>
        <path id="Trazado_603101" data-name="Trazado 603101" d="M60.944,127.805H56.8v-1.5h4.145Zm-8.291,0H48.51v-1.5h4.144Zm-8.289,0H40.219v-1.5h4.145Zm-8.289,0H31.931v-1.5h4.144Z" transform="translate(16.063 63.535)" fill="#fff"/>
        <path id="Trazado_603102" data-name="Trazado 603102" d="M28.675,129.308h-1.5V126.3h3.006v1.5h-1.5Z" transform="translate(13.669 63.535)" fill="#fff"/>
        <path id="Trazado_603103" data-name="Trazado 603103" d="M28.675,151.346h-1.5v-4.067h1.5Zm0-8.136h-1.5v-4.067h1.5Zm0-8.134h-1.5v-4.067h1.5Z" transform="translate(13.669 65.902)" fill="#fff"/>
        <path id="Trazado_603104" data-name="Trazado 603104" d="M30.178,150.251H27.172v-3.006h1.5v1.5h1.5Z" transform="translate(13.669 74.07)" fill="#fff"/>
        <path id="Trazado_603105" data-name="Trazado 603105" d="M60.945,149.748H56.8v-1.5h4.145Zm-8.291,0H48.51v-1.5h4.144Zm-8.289,0H40.219v-1.5h4.145Zm-8.289,0H31.93v-1.5h4.145Z" transform="translate(16.062 74.573)" fill="#fff"/>
        <path id="Trazado_603106" data-name="Trazado 603106" d="M57,151.251h-1.5v-1.5h-1.5v-1.5H57Z" transform="translate(27.16 74.573)" fill="#fff"/>
        <path id="Trazado_603107" data-name="Trazado 603107" d="M56.494,203.422h-1.5v-4.557h1.5Zm0-9.116h-1.5v-4.559h1.5Zm0-9.119h-1.5V180.63h1.5Zm0-9.116h-1.5v-4.559h1.5Zm0-9.119h-1.5V162.4h1.5Zm0-9.116h-1.5v-4.559h1.5Z" transform="translate(27.663 77.105)" fill="#fff"/>
        <path id="Trazado_603108" data-name="Trazado 603108" d="M58,192.679H54.991v-3.006h1.5v1.5H58Z" transform="translate(27.663 95.413)" fill="#fff"/>
        <path id="Trazado_603109" data-name="Trazado 603109" d="M142.684,192.176h-4.357v-1.5h4.357Zm-8.715,0h-4.357v-1.5h4.357Zm-8.716,0H120.9v-1.5h4.357Zm-8.715,0h-4.357v-1.5h4.357Zm-8.716,0h-4.357v-1.5h4.357Zm-8.715,0H94.751v-1.5h4.357Zm-8.715,0H86.036v-1.5h4.357Zm-8.716,0H77.32v-1.5h4.357Zm-8.715,0H68.606v-1.5h4.357Zm-8.715,0H59.891v-1.5h4.357Z" transform="translate(30.128 95.916)" fill="#fff"/>
        <path id="Trazado_603110" data-name="Trazado 603110" d="M120.881,193.679h-1.5v-1.5h-1.5v-1.5h3.006Z" transform="translate(59.295 95.916)" fill="#fff"/>
        <path id="Trazado_603111" data-name="Trazado 603111" d="M120.377,210.4h-1.5v-4.835h1.5Zm0-9.671h-1.5V195.89h1.5Z" transform="translate(59.798 98.54)" fill="#fff"/>
        <path id="Trazado_603112" data-name="Trazado 603112" d="M121.881,211.765h-3.006v-3.006h1.5v1.5h1.5Z" transform="translate(59.798 105.014)" fill="#fff"/>
        <path id="Trazado_603113" data-name="Trazado 603113" d="M256.827,211.262h-4.583v-1.5h4.583Zm-9.167,0h-4.583v-1.5h4.583Zm-9.166,0h-4.583v-1.5h4.583Zm-9.166,0h-4.583v-1.5h4.583Zm-9.166,0h-4.583v-1.5h4.583Zm-9.167,0h-4.583v-1.5H211Zm-9.164,0H197.25v-1.5h4.583Zm-9.167,0h-4.583v-1.5h4.583Zm-9.165,0h-4.583v-1.5H183.5Zm-9.166,0h-4.583v-1.5h4.583Zm-9.165,0h-4.583v-1.5h4.583Zm-9.166,0h-4.583v-1.5H156Zm-9.165,0h-4.583v-1.5h4.583Zm-9.166,0H133.09v-1.5h4.583Zm-9.166,0h-4.583v-1.5h4.583Z" transform="translate(62.339 105.517)" fill="#fff"/>
        <path id="Trazado_603114" data-name="Trazado 603114" d="M218.4,211.765H215.4v-1.5h1.5v-1.5h1.5Z" transform="translate(108.353 105.014)" fill="#fff"/>
        <path id="Trazado_603115" data-name="Trazado 603115" d="M217.9,210.4h-1.5v-4.835h1.5Zm0-9.672h-1.5v-4.835h1.5Z" transform="translate(108.856 98.541)" fill="#fff"/>
        <path id="Trazado_603116" data-name="Trazado 603116" d="M217.9,193.679h-1.5v-3.006H219.4v1.5h-1.5Z" transform="translate(108.856 95.916)" fill="#fff"/>
        <path id="Trazado_603117" data-name="Trazado 603117" d="M283.839,192.176h-4.789v-1.5h4.789Zm-9.579,0h-4.787v-1.5h4.787Zm-9.577,0h-4.789v-1.5h4.789Zm-9.577,0h-4.79v-1.5h4.79Zm-9.579,0h-4.789v-1.5h4.789Zm-9.577,0h-4.789v-1.5h4.789Zm-9.579,0h-4.789v-1.5h4.789Z" transform="translate(111.464 95.916)" fill="#fff"/>
        <path id="Trazado_603118" data-name="Trazado 603118" d="M269.2,192.679h-3.006v-1.5h1.5v-1.5h1.5Z" transform="translate(133.904 95.413)" fill="#fff"/>
        <path id="Trazado_603119" data-name="Trazado 603119" d="M268.692,197.953h-1.5v-4.936h1.5Zm0-9.872h-1.5v-4.936h1.5Zm0-9.873h-1.5v-4.936h1.5Zm0-9.872h-1.5V163.4h1.5Z" transform="translate(134.406 82.197)" fill="#fff"/>
        <path id="Trazado_603120" data-name="Trazado 603120" d="M268.692,161.122h-1.5v-3.006H270.2v1.5h-1.5Z" transform="translate(134.407 79.538)" fill="#fff"/>
        <path id="Trazado_603121" data-name="Trazado 603121" d="M327.649,159.619H323.37v-1.5h4.279Zm-8.555,0h-4.279v-1.5h4.279Zm-8.557,0h-4.279v-1.5h4.279Zm-8.555,0H297.7v-1.5h4.279Zm-8.555,0h-4.279v-1.5h4.279Zm-8.557,0H280.59v-1.5h4.279Zm-8.555,0h-4.279v-1.5h4.279Z" transform="translate(136.844 79.538)" fill="#fff"/>
        <path id="Trazado_603122" data-name="Trazado 603122" d="M314.889,160.122h-3.006v-1.5h1.5v-1.5h1.5Z" transform="translate(156.889 79.035)" fill="#fff"/>
        <path id="Trazado_603123" data-name="Trazado 603123" d="M314.386,167.358h-1.5v-4.365h1.5Zm0-8.728h-1.5v-4.365h1.5Zm0-8.731h-1.5v-4.365h1.5Zm0-8.728h-1.5v-4.365h1.5Zm0-8.731h-1.5v-4.365h1.5Z" transform="translate(157.392 64.427)" fill="#fff"/>
        <path id="Trazado_603124" data-name="Trazado 603124" d="M314.889,126.177h-1.5v-1.5h-1.5v-1.5h3.006Z" transform="translate(156.889 61.96)" fill="#fff"/>
        <path id="Trazado_603125" data-name="Trazado 603125" d="M318.8,124.674h-4.126v-1.5H318.8Zm-8.253,0h-4.124v-1.5h4.124Zm-8.25,0h-4.126v-1.5H302.3Zm-8.252,0h-4.124v-1.5h4.124Z" transform="translate(145.843 61.96)" fill="#fff"/>
        <path id="Trazado_603126" data-name="Trazado 603126" d="M288.184,125.177h-3.006v-3.006h1.5v1.5h1.5Z" transform="translate(143.455 61.457)" fill="#fff"/>
        <rect id="Rectángulo_300567" data-name="Rectángulo 300567" width="1.503" height="4.021" transform="translate(428.634 175.588)" fill="#fff"/>
        <path id="Trazado_603127" data-name="Trazado 603127" d="M287.184,115.152h-1.5v-1.5h-1.5v-1.5h3.006Z" transform="translate(142.952 56.414)" fill="#fff"/>
        <path id="Trazado_603128" data-name="Trazado 603128" d="M285.413,113.649h-3.649v-1.5h3.649Zm-7.3,0h-3.648v-1.5h3.648Z" transform="translate(138.068 56.414)" fill="#fff"/>
        <path id="Trazado_603129" data-name="Trazado 603129" d="M273.047,114.152h-3.006v-3.006h1.5v1.5h1.5Z" transform="translate(135.841 55.911)" fill="#fff"/>
        <path id="Trazado_603130" data-name="Trazado 603130" d="M271.544,115.008h-1.5v-3.831h1.5Zm0-7.662h-1.5v-3.831h1.5Zm0-7.665h-1.5V95.849h1.5Z" transform="translate(135.841 48.216)" fill="#fff"/>
        <path id="Trazado_603131" data-name="Trazado 603131" d="M271.544,94.306h-1.5V91.3h3.006v1.5h-1.5Z" transform="translate(135.841 45.928)" fill="#fff"/>
        <path id="Trazado_603132" data-name="Trazado 603132" d="M294.016,92.8h-3.879V91.3h3.879Zm-7.759,0H282.38V91.3h3.878Zm-7.757,0h-3.879V91.3H278.5Z" transform="translate(138.145 45.927)" fill="#fff"/>
        <path id="Trazado_603133" data-name="Trazado 603133" d="M293.111,93.306h-3.006V91.8h1.5V90.3h1.5Z" transform="translate(145.934 45.425)" fill="#fff"/>
        <path id="Trazado_603134" data-name="Trazado 603134" d="M292.608,109.606h-1.5v-4.432h1.5Zm0-8.866h-1.5V96.307h1.5Zm0-8.866h-1.5V87.441h1.5Zm0-8.866h-1.5V78.574h1.5Zm0-8.866h-1.5V69.708h1.5Zm0-8.866h-1.5V60.841h1.5Zm0-8.866h-1.5V51.975h1.5Zm0-8.865h-1.5V43.11h1.5Z" transform="translate(146.437 21.686)" fill="#fff"/>
        <path id="Trazado_603135" data-name="Trazado 603135" d="M293.111,41.166h-1.5v-1.5h-1.5v-1.5h3.006Z" transform="translate(145.934 19.196)" fill="#fff"/>
        <path id="Trazado_603136" data-name="Trazado 603136" d="M299.827,39.663h-4.142v-1.5h4.142Zm-8.285,0H287.4v-1.5h4.142Zm-8.286,0h-4.142v-1.5h4.142Zm-8.285,0h-4.142v-1.5h4.142Zm-8.283,0h-4.142v-1.5h4.142Z" transform="translate(132.071 19.196)" fill="#fff"/>
        <path id="Trazado_603137" data-name="Trazado 603137" d="M259.294,41.166h-1.5V38.16H260.8v1.5h-1.5Z" transform="translate(129.679 19.196)" fill="#fff"/>
        <rect id="Rectángulo_300568" data-name="Rectángulo 300568" width="1.503" height="3.386" transform="translate(387.47 63.748)" fill="#fff"/>
        <path id="Trazado_603138" data-name="Trazado 603138" d="M259.8,49.925h-3.006v-1.5h1.5v-1.5h1.5Z" transform="translate(129.176 23.602)" fill="#fff"/>
        <path id="Trazado_603139" data-name="Trazado 603139" d="M351.316,49.422h-4.482v-1.5h4.482Zm-8.964,0h-4.482v-1.5h4.482Zm-8.966,0h-4.481v-1.5h4.481Zm-8.964,0H319.94v-1.5h4.482Zm-8.964,0h-4.482v-1.5h4.482Zm-8.964,0h-4.482v-1.5h4.482Zm-8.966,0h-4.481v-1.5h4.481Zm-8.964,0h-4.482v-1.5h4.482Zm-8.963,0h-4.482v-1.5H279.6Zm-8.966,0h-4.481v-1.5h4.481Zm-8.964,0h-4.481v-1.5h4.481Zm-8.964,0h-4.482v-1.5h4.482Zm-8.964,0h-4.482v-1.5h4.482Zm-8.966,0H230.3v-1.5h4.482Zm-8.963,0h-4.482v-1.5h4.482Zm-8.966,0h-4.482v-1.5h4.482Zm-8.964,0H203.4v-1.5h4.482Zm-8.964,0h-4.482v-1.5h4.482Zm-8.964,0h-4.482v-1.5h4.482Zm-8.964,0h-4.482v-1.5h4.482Zm-8.964,0h-4.482v-1.5h4.482Zm-8.966,0h-4.482v-1.5h4.482Zm-8.964,0h-4.482v-1.5H154.1Zm-8.964,0h-4.482v-1.5h4.482Zm-8.964,0h-4.482v-1.5h4.482Zm-8.964,0h-4.482v-1.5h4.482Zm-8.964,0H113.76v-1.5h4.482Zm-8.966,0h-4.482v-1.5h4.482Zm-8.963,0H95.832v-1.5h4.482Zm-8.966,0H86.866v-1.5h4.482Zm-8.964,0H77.9v-1.5h4.482Zm-8.964,0H68.938v-1.5H73.42Zm-8.964,0H59.974v-1.5h4.482Z" transform="translate(30.169 24.105)" fill="#fff"/>
        <rect id="Rectángulo_300569" data-name="Rectángulo 300569" width="213.45" height="122.612" transform="translate(145.774 111.141)" fill="#575756"/>
        <g id="Grupo_888727" data-name="Grupo 888727" transform="translate(145.773 111.141)" opacity="0.08">
          <g id="Grupo_888726" data-name="Grupo 888726">
            <g id="Grupo_888725" data-name="Grupo 888725" clip-path="url(#clip-path-3)">
              <path id="Trazado_603140" data-name="Trazado 603140" d="M310.436,73.944H96.986V196.556" transform="translate(-96.986 -73.944)" fill="#fff"/>
            </g>
          </g>
        </g>
        <path id="Trazado_603141" data-name="Trazado 603141" d="M211.257,172.766H149.328s-.325,26.966-6.843,31.849H218.1c-6.52-4.883-6.846-31.849-6.846-31.849" transform="translate(71.675 86.908)" fill="#f4f4f4"/>
        <path id="Trazado_603142" data-name="Trazado 603142" d="M220.646,193.957H145.028c-6.517,4.891-15.97,8.8,6.845,8.8H213.8c22.816,0,13.363-3.912,6.846-8.8" transform="translate(69.132 97.568)" fill="#ececec"/>
        <path id="Trazado_603143" data-name="Trazado 603143" d="M94.335,174.992a4.905,4.905,0,0,0,4.9,4.892H310.863a4.906,4.906,0,0,0,4.894-4.892V158.616H94.335Zm110.7-9.353a2.423,2.423,0,0,1,1.888-2.05,1.437,1.437,0,0,1,.2-.042h.083c-.006.155,0,.313-.012.47a2.152,2.152,0,0,1-.344.968,2.379,2.379,0,0,1-.894.875,1.587,1.587,0,0,1-.894.188.052.052,0,0,1-.029,0,3.623,3.623,0,0,1,0-.4m-4.41,3.561v-.065a3.946,3.946,0,0,1,.179-.981,2.942,2.942,0,0,1,1.049-1.474,2.568,2.568,0,0,1,1.426-.49,2.507,2.507,0,0,1,.9.179c.246.095.5.18.755.26a.438.438,0,0,0,.353,0l.836-.281a3.476,3.476,0,0,1,.783-.188,2.7,2.7,0,0,1,.645.053,2.419,2.419,0,0,1,1.383.727c.095.095.168.2.262.305a2.262,2.262,0,0,0-1.18,2.22,2.393,2.393,0,0,0,1.45,2.059.09.09,0,0,0-.015.048,6.683,6.683,0,0,1-.969,1.826,3.284,3.284,0,0,1-.682.724,1.2,1.2,0,0,1-.969.245,3.311,3.311,0,0,1-.664-.2,2.46,2.46,0,0,0-.909-.2,2.5,2.5,0,0,0-.95.21c-.15.054-.313.113-.467.164a1.174,1.174,0,0,1-.776-.014,1.891,1.891,0,0,1-.612-.424,5.559,5.559,0,0,1-.6-.744,6.736,6.736,0,0,1-1.21-3.281c0-.071-.012-.14-.012-.207Z" transform="translate(47.454 79.79)" fill="#f5f5f5"/>
        <path id="Trazado_603144" data-name="Trazado 603144" d="M310.863,71.427H99.23a4.912,4.912,0,0,0-4.9,4.9V202.475h221.42V76.324a4.911,4.911,0,0,0-4.892-4.9M205.043,74.19a1.024,1.024,0,1,1-1.019,1.021,1.024,1.024,0,0,1,1.019-1.021M307.3,194.147H102.782V78.8H307.3Z" transform="translate(47.454 35.931)" fill="#3c3c3b"/>
        <path id="Trazado_603145" data-name="Trazado 603145" d="M168.913,164.209a2.39,2.39,0,0,0,.894-.875,2.151,2.151,0,0,0,.344-.969c.012-.156.006-.316.012-.469h-.084a1.572,1.572,0,0,0-.2.041,2.427,2.427,0,0,0-1.889,2.052,3.6,3.6,0,0,0,0,.4.041.041,0,0,0,.029.006,1.587,1.587,0,0,0,.894-.188" transform="translate(84.502 81.44)" fill="#f5f5f5"/>
        <path id="Trazado_603146" data-name="Trazado 603146" d="M168.332,75.313a1.024,1.024,0,1,0-1.019-1.03,1.026,1.026,0,0,0,1.019,1.03" transform="translate(84.165 36.856)" fill="#9c9b9b"/>
        <path id="Trazado_603147" data-name="Trazado 603147" d="M174.6,167.683a4.953,4.953,0,1,1-4.953-4.954,4.954,4.954,0,0,1,4.953,4.954" transform="translate(82.849 81.859)" fill="#3c3c3b"/>
        <rect id="Rectángulo_300571" data-name="Rectángulo 300571" width="146.579" height="186.159" transform="translate(179.424 43.952)" fill="#ecebec"/>
        <rect id="Rectángulo_300572" data-name="Rectángulo 300572" width="132.723" height="186.159" transform="translate(186.353 43.952)" fill="#fff"/>
        <path id="Trazado_603148" data-name="Trazado 603148" d="M265.953,32.859V26.521a3.01,3.01,0,0,0-3.012-3.011H122.385a3.011,3.011,0,0,0-3.011,3.011v6.338Z" transform="translate(60.05 11.826)" fill="#606a74"/>
        <path id="Trazado_603149" data-name="Trazado 603149" d="M208.639,27.293A1.64,1.64,0,1,1,207,25.653a1.639,1.639,0,0,1,1.638,1.64" transform="translate(103.304 12.904)" fill="#d4d4d4"/>
        <path id="Trazado_603150" data-name="Trazado 603150" d="M213.385,27.293a1.64,1.64,0,1,1-1.638-1.64,1.639,1.639,0,0,1,1.638,1.64" transform="translate(105.691 12.904)" fill="#d4d4d4"/>
        <path id="Trazado_603151" data-name="Trazado 603151" d="M127.6,27.293a1.639,1.639,0,1,1-1.638-1.64,1.639,1.639,0,0,1,1.638,1.64" transform="translate(62.54 12.904)" fill="#d4d4d4"/>
        <path id="Trazado_603152" data-name="Trazado 603152" d="M132.349,27.293a1.641,1.641,0,1,1-1.638-1.64,1.64,1.64,0,0,1,1.638,1.64" transform="translate(64.926 12.904)" fill="#d4d4d4"/>
        <path id="Trazado_603153" data-name="Trazado 603153" d="M137.144,27.293a1.64,1.64,0,1,1-1.64-1.64,1.64,1.64,0,0,1,1.64,1.64" transform="translate(67.339 12.904)" fill="#d4d4d4"/>
        <rect id="Rectángulo_300573" data-name="Rectángulo 300573" width="146.579" height="8.912" transform="translate(179.424 44.685)" fill="#d4d4d4"/>
        <rect id="Rectángulo_300574" data-name="Rectángulo 300574" width="115.847" height="3.854" transform="translate(197.272 47.215)" fill="#ecebec"/>
        <rect id="Rectángulo_300575" data-name="Rectángulo 300575" width="3.852" height="3.854" transform="translate(186.864 47.215)" fill="#ecebec"/>
        <rect id="Rectángulo_300576" data-name="Rectángulo 300576" width="3.854" height="3.854" transform="translate(192.069 47.215)" fill="#ecebec"/>
        <rect id="Rectángulo_300577" data-name="Rectángulo 300577" width="3.854" height="3.854" transform="translate(315.222 47.215)" fill="#ecebec"/>
        <rect id="Rectángulo_300578" data-name="Rectángulo 300578" width="124.506" height="32.493" transform="translate(190.716 58.107)" fill="#f69087"/>
        <path id="Trazado_603154" data-name="Trazado 603154" d="M166.715,57.643a1.018,1.018,0,1,1-1.018-1.021,1.018,1.018,0,0,1,1.018,1.021" transform="translate(82.839 28.483)" fill="#fff"/>
        <path id="Trazado_603155" data-name="Trazado 603155" d="M169.664,57.643a1.018,1.018,0,1,1-1.018-1.021,1.018,1.018,0,0,1,1.018,1.021" transform="translate(84.323 28.483)" fill="#fff"/>
        <path id="Trazado_603156" data-name="Trazado 603156" d="M172.614,57.643a1.018,1.018,0,1,1-1.019-1.021,1.018,1.018,0,0,1,1.019,1.021" transform="translate(85.807 28.483)" fill="#fff"/>
        <path id="Trazado_603157" data-name="Trazado 603157" d="M207.213,49.051,206.073,50l-1.136.947V47.161l1.136.947Z" transform="translate(103.091 23.724)" fill="#fff"/>
        <path id="Trazado_603158" data-name="Trazado 603158" d="M129.736,49.051l1.138-.944,1.138-.947v3.783L130.874,50Z" transform="translate(65.262 23.724)" fill="#fff"/>
        <g id="Grupo_888730" data-name="Grupo 888730" transform="translate(205.817 62.716)" opacity="0.2">
          <g id="Grupo_888729" data-name="Grupo 888729">
            <g id="Grupo_888728" data-name="Grupo 888728" clip-path="url(#clip-path-4)">
              <rect id="Rectángulo_300579" data-name="Rectángulo 300579" width="94.304" height="20.121" transform="translate(0)" fill="#fff"/>
            </g>
          </g>
        </g>
        <path id="Trazado_603159" data-name="Trazado 603159" d="M153.954,75.718A8.954,8.954,0,1,1,145,66.764a8.952,8.952,0,0,1,8.954,8.954" transform="translate(68.436 33.585)" fill="#ffd682"/>
        <path id="Trazado_603160" data-name="Trazado 603160" d="M180.258,75.718a8.954,8.954,0,1,1-8.955-8.954,8.954,8.954,0,0,1,8.955,8.954" transform="translate(81.668 33.585)" fill="#606a74"/>
        <path id="Trazado_603161" data-name="Trazado 603161" d="M206.557,75.718a8.954,8.954,0,1,1-8.954-8.954,8.951,8.951,0,0,1,8.954,8.954" transform="translate(94.898 33.585)" fill="#82bfec"/>
        <rect id="Rectángulo_300581" data-name="Rectángulo 300581" width="30.823" height="1.897" transform="translate(197.272 124.175)" fill="#cee5ee"/>
        <rect id="Rectángulo_300582" data-name="Rectángulo 300582" width="30.823" height="1.894" transform="translate(197.272 137.032)" fill="#cee5ee"/>
        <rect id="Rectángulo_300583" data-name="Rectángulo 300583" width="22.879" height="1.895" transform="translate(201.243 128.463)" fill="#cee5ee"/>
        <rect id="Rectángulo_300584" data-name="Rectángulo 300584" width="26.49" height="1.895" transform="translate(199.44 132.745)" fill="#cee5ee"/>
        <rect id="Rectángulo_300585" data-name="Rectángulo 300585" width="30.823" height="1.897" transform="translate(237.558 124.175)" fill="#cee5ee"/>
        <rect id="Rectángulo_300586" data-name="Rectángulo 300586" width="25.529" height="1.894" transform="translate(240.204 137.032)" fill="#cee5ee"/>
        <rect id="Rectángulo_300587" data-name="Rectángulo 300587" width="27.424" height="1.895" transform="translate(239.257 128.463)" fill="#cee5ee"/>
        <rect id="Rectángulo_300588" data-name="Rectángulo 300588" width="17.912" height="1.895" transform="translate(244.014 132.745)" fill="#cee5ee"/>
        <rect id="Rectángulo_300589" data-name="Rectángulo 300589" width="24.838" height="1.897" transform="translate(280.834 124.175)" fill="#cee5ee"/>
        <rect id="Rectángulo_300590" data-name="Rectángulo 300590" width="30.821" height="1.894" transform="translate(277.841 137.032)" fill="#cee5ee"/>
        <rect id="Rectángulo_300591" data-name="Rectángulo 300591" width="28.358" height="1.895" transform="translate(279.075 128.463)" fill="#cee5ee"/>
        <rect id="Rectángulo_300592" data-name="Rectángulo 300592" width="26.488" height="1.895" transform="translate(280.009 132.745)" fill="#cee5ee"/>
        <rect id="Rectángulo_300593" data-name="Rectángulo 300593" width="132.723" height="44.77" transform="translate(186.353 145.297)" fill="#ffd682"/>
        <path id="Trazado_603162" data-name="Trazado 603162" d="M150.721,100.821l10.2,16.149,10.2,16.137h-40.8l10.212-16.137Z" transform="translate(65.556 50.717)" fill="#606a74"/>
        <path id="Trazado_603163" data-name="Trazado 603163" d="M165.754,105.479l7.989,12.647,7.989,12.638H149.776l8-12.638Z" transform="translate(75.343 53.06)" fill="#f69087"/>
        <path id="Trazado_603164" data-name="Trazado 603164" d="M186.37,100.821l10.2,16.149,10.2,16.137H165.966l10.215-16.137Z" transform="translate(83.487 50.717)" fill="#82bfec"/>
        <path id="Trazado_603165" data-name="Trazado 603165" d="M201.4,105.479l7.99,12.647,7.989,12.638H185.424l8-12.638Z" transform="translate(93.275 53.06)" fill="#f69087"/>
        <rect id="Rectángulo_300594" data-name="Rectángulo 300594" width="49.746" height="22.944" transform="translate(228.097 155.631)" fill="#fff"/>
        <rect id="Rectángulo_300595" data-name="Rectángulo 300595" width="43.259" height="2.457" transform="translate(231.339 159.247)" fill="#b0b0b0"/>
        <rect id="Rectángulo_300596" data-name="Rectángulo 300596" width="14.979" height="2.459" transform="translate(231.339 163.664)" fill="#ccddf3"/>
        <rect id="Rectángulo_300597" data-name="Rectángulo 300597" width="24.941" height="2.459" transform="translate(249.474 163.664)" fill="#b0b0b0"/>
        <rect id="Rectángulo_300598" data-name="Rectángulo 300598" width="43.259" height="2.457" transform="translate(231.339 168.082)" fill="#b0b0b0"/>
        <rect id="Rectángulo_300599" data-name="Rectángulo 300599" width="31.099" height="2.456" transform="translate(231.339 172.502)" fill="#b0b0b0"/>
        <rect id="Rectángulo_300600" data-name="Rectángulo 300600" width="8.581" height="2.456" transform="translate(265.835 172.502)" fill="#ffa186"/>
        <path id="Trazado_603166" data-name="Trazado 603166" d="M195.833,105.345a5.382,5.382,0,1,1-5.381-5.381,5.381,5.381,0,0,1,5.381,5.381" transform="translate(93.096 50.286)" fill="#606a74"/>
        <path id="Trazado_603167" data-name="Trazado 603167" d="M141.694,148.283a1.4,1.4,0,1,1-1.4-1.4,1.4,1.4,0,0,1,1.4,1.4" transform="translate(69.871 73.887)" fill="#d4d4d4"/>
        <path id="Trazado_603168" data-name="Trazado 603168" d="M145.746,148.283a1.4,1.4,0,1,1-1.4-1.4,1.4,1.4,0,0,1,1.4,1.4" transform="translate(71.908 73.887)" fill="#d4d4d4"/>
        <path id="Trazado_603169" data-name="Trazado 603169" d="M149.8,148.283a1.4,1.4,0,1,1-1.4-1.4,1.4,1.4,0,0,1,1.4,1.4" transform="translate(73.946 73.887)" fill="#d4d4d4"/>
        <rect id="Rectángulo_300601" data-name="Rectángulo 300601" width="19.634" height="8.358" transform="translate(195.183 196.862)" fill="#d3d3d3"/>
        <rect id="Rectángulo_300602" data-name="Rectángulo 300602" width="19.634" height="8.358" transform="translate(217.741 196.862)" fill="#d3d3d3"/>
        <rect id="Rectángulo_300603" data-name="Rectángulo 300603" width="19.634" height="8.355" transform="translate(195.183 208.169)" fill="#d3d3d3"/>
        <rect id="Rectángulo_300604" data-name="Rectángulo 300604" width="19.634" height="8.355" transform="translate(217.741 208.169)" fill="#d3d3d3"/>
        <rect id="Rectángulo_300605" data-name="Rectángulo 300605" width="67.563" height="3.257" transform="translate(243.091 196.876)" fill="#b0b0b0"/>
        <rect id="Rectángulo_300606" data-name="Rectángulo 300606" width="23.393" height="3.256" transform="translate(243.091 202.734)" fill="#ffa186"/>
        <rect id="Rectángulo_300607" data-name="Rectángulo 300607" width="38.953" height="3.256" transform="translate(271.416 202.734)" fill="#b0b0b0"/>
        <rect id="Rectángulo_300608" data-name="Rectángulo 300608" width="67.563" height="3.259" transform="translate(243.091 208.592)" fill="#b0b0b0"/>
        <rect id="Rectángulo_300609" data-name="Rectángulo 300609" width="48.572" height="3.257" transform="translate(243.091 214.452)" fill="#b0b0b0"/>
        <rect id="Rectángulo_300610" data-name="Rectángulo 300610" width="13.401" height="3.257" transform="translate(296.967 214.452)" fill="#ccddf3"/>
        <rect id="Rectángulo_300611" data-name="Rectángulo 300611" width="67.563" height="3.259" transform="translate(243.091 220.311)" fill="#b0b0b0"/>
        <path id="Rectángulo_300612" data-name="Rectángulo 300612" d="M6.355,0H84.7a6.354,6.354,0,0,1,6.354,6.354V66.237A6.354,6.354,0,0,1,84.7,72.591H6.355A6.355,6.355,0,0,1,0,66.236V6.355A6.355,6.355,0,0,1,6.355,0Z" transform="translate(43.258 34.59)" fill="#ffd682"/>
        <path id="Trazado_603170" data-name="Trazado 603170" d="M34.1,36.147V73.631a7.763,7.763,0,0,0,7.874,7.644H101.3a7.763,7.763,0,0,0,7.874-7.644V36.147Z" transform="translate(17.152 18.183)" fill="#f6f5f8"/>
        <path id="Trazado_603171" data-name="Trazado 603171" d="M39.77,31.059a2.837,2.837,0,1,1-2.838-2.838,2.837,2.837,0,0,1,2.838,2.838" transform="translate(17.152 14.196)" fill="#f6f5f8"/>
        <path id="Trazado_603172" data-name="Trazado 603172" d="M46.77,31.059a2.838,2.838,0,1,1-2.838-2.838,2.837,2.837,0,0,1,2.838,2.838" transform="translate(20.672 14.196)" fill="#f6f5f8"/>
        <path id="Trazado_603173" data-name="Trazado 603173" d="M54.28,31.059a2.837,2.837,0,1,1-2.838-2.838,2.837,2.837,0,0,1,2.838,2.838" transform="translate(24.451 14.196)" fill="#f6f5f8"/>
        <path id="Trazado_603174" data-name="Trazado 603174" d="M50.2,60.059a.362.362,0,0,1-.277.129H48.107a.363.363,0,0,1-.278-.129.415.415,0,0,1-.119-.286v-6.5a6.668,6.668,0,0,0-.069-1.067,1.472,1.472,0,0,0-.246-.651.951.951,0,0,0-.495-.337,2.766,2.766,0,0,0-.81-.1,5.06,5.06,0,0,0-2.292.672v7.983a.413.413,0,0,1-.117.286.365.365,0,0,1-.277.129H41.585a.36.36,0,0,1-.277-.129.408.408,0,0,1-.119-.286V45.547a.406.406,0,0,1,.4-.4H43.4a.4.4,0,0,1,.394.4v4.088a5.656,5.656,0,0,1,1.245-.532,6.3,6.3,0,0,1,1.741-.2,3.838,3.838,0,0,1,1.709.337,2.766,2.766,0,0,1,1.087.929,3.832,3.832,0,0,1,.573,1.393,8.244,8.244,0,0,1,.168,1.707v6.5a.415.415,0,0,1-.119.286" transform="translate(20.72 22.712)" fill="#575756"/>
        <path id="Trazado_603175" data-name="Trazado 603175" d="M54.837,59.684c-.237.039-.464.074-.682.1a5.335,5.335,0,0,1-.661.041,7.658,7.658,0,0,1-1.426-.117,2.024,2.024,0,0,1-.971-.457,1.962,1.962,0,0,1-.549-.959,6.064,6.064,0,0,1-.176-1.61v-6.2L48.513,50.2a.693.693,0,0,1-.277-.137.321.321,0,0,1-.119-.259v-.888a.4.4,0,0,1,.4-.4h1.858V46.9a.325.325,0,0,1,.117-.257.7.7,0,0,1,.275-.138l1.823-.316h.078c.209,0,.314.1.314.3v2.035h1.778a.377.377,0,0,1,.277.117.384.384,0,0,1,.119.278v1.166a.406.406,0,0,1-.4.394H52.979v6.2c0,.253.008.448.02.592a.733.733,0,0,0,.1.337.343.343,0,0,0,.227.149,2.472,2.472,0,0,0,.425.03H54.8c.277,0,.415.1.415.3v1.245c0,.2-.126.317-.376.353" transform="translate(24.205 23.234)" fill="#575756"/>
        <path id="Trazado_603176" data-name="Trazado 603176" d="M60.162,59.684c-.237.039-.464.074-.682.1a5.335,5.335,0,0,1-.661.041,7.658,7.658,0,0,1-1.426-.117,2.024,2.024,0,0,1-.971-.457,1.962,1.962,0,0,1-.549-.959,6.064,6.064,0,0,1-.176-1.61v-6.2L53.838,50.2a.693.693,0,0,1-.277-.137.321.321,0,0,1-.119-.259v-.888a.4.4,0,0,1,.4-.4H55.7V46.9a.325.325,0,0,1,.117-.257.7.7,0,0,1,.275-.138l1.823-.316h.078c.209,0,.314.1.314.3v2.035h1.778a.377.377,0,0,1,.277.117.384.384,0,0,1,.119.278v1.166a.406.406,0,0,1-.4.394H58.3v6.2c0,.253.008.448.02.592a.733.733,0,0,0,.1.337.343.343,0,0,0,.227.149,2.472,2.472,0,0,0,.425.03h1.048c.277,0,.413.1.413.3v1.245c0,.2-.123.317-.374.353" transform="translate(26.884 23.234)" fill="#575756"/>
        <path id="Trazado_603177" data-name="Trazado 603177" d="M68.586,54.131a5.3,5.3,0,0,1-1.166,3.645,4.511,4.511,0,0,1-3.556,1.315c-.236,0-.52-.011-.849-.03s-.679-.057-1.048-.11v3.5a.406.406,0,0,1-.4.4H59.754a.406.406,0,0,1-.4-.4V48.7a.475.475,0,0,1,.1-.328,1.008,1.008,0,0,1,.434-.207,17.252,17.252,0,0,1,1.975-.376,15.631,15.631,0,0,1,2-.138,4.516,4.516,0,0,1,3.556,1.314,5.3,5.3,0,0,1,1.166,3.646Zm-2.608-1.518a6.594,6.594,0,0,0-.089-1.12,2.424,2.424,0,0,0-.326-.885,1.674,1.674,0,0,0-.652-.589,2.27,2.27,0,0,0-1.048-.216c-.356,0-.714.015-1.078.039a6.7,6.7,0,0,0-.819.1V56.8q.415.059.978.1c.374.024.682.038.918.038a2.252,2.252,0,0,0,1.048-.216,1.659,1.659,0,0,0,.652-.588,2.424,2.424,0,0,0,.326-.885,6.62,6.62,0,0,0,.089-1.12Z" transform="translate(29.86 23.969)" fill="#575756"/>
        <path id="Trazado_603178" data-name="Trazado 603178" d="M69.493,50.592a.342.342,0,0,1-.119.266.389.389,0,0,1-.277.108H67.339a.392.392,0,0,1-.277-.108.347.347,0,0,1-.119-.266V48.358a.406.406,0,0,1,.4-.4H69.1a.406.406,0,0,1,.4.4Zm0,7.786a.406.406,0,0,1-.4.4H67.339a.406.406,0,0,1-.4-.4V56.146a.35.35,0,0,1,.119-.268.4.4,0,0,1,.277-.108H69.1a.4.4,0,0,1,.277.108.345.345,0,0,1,.119.268Z" transform="translate(33.675 24.127)" fill="#575756"/>
        <path id="Trazado_603179" data-name="Trazado 603179" d="M74.145,45.5a.294.294,0,0,1,.248-.117h1.6a.373.373,0,0,1,.257.087c.066.06.08.162.041.308L72,59.652a.873.873,0,0,1-.129.287.282.282,0,0,1-.246.128h-1.6a.3.3,0,0,1-.287-.128.39.39,0,0,1-.029-.287l4.308-13.87a.762.762,0,0,1,.128-.278" transform="translate(35.059 22.831)" fill="#575756"/>
        <path id="Trazado_603180" data-name="Trazado 603180" d="M78.681,45.5a.294.294,0,0,1,.248-.117h1.6a.371.371,0,0,1,.256.087c.066.06.08.162.041.308l-4.288,13.87a.873.873,0,0,1-.129.287.282.282,0,0,1-.247.128h-1.6a.3.3,0,0,1-.287-.128.39.39,0,0,1-.029-.287l4.308-13.87a.762.762,0,0,1,.128-.278" transform="translate(37.341 22.831)" fill="#575756"/>
        <path id="Rectángulo_300613" data-name="Rectángulo 300613" d="M6.355,0H84.7a6.353,6.353,0,0,1,6.353,6.353V66.237A6.354,6.354,0,0,1,84.7,72.591H6.355A6.355,6.355,0,0,1,0,66.236V6.355A6.355,6.355,0,0,1,6.355,0Z" transform="translate(369.712 34.59)" fill="#575756"/>
        <path id="Trazado_603181" data-name="Trazado 603181" d="M251.291,36.147V73.631a7.764,7.764,0,0,0,7.876,7.644H318.5a7.763,7.763,0,0,0,7.873-7.644V36.147Z" transform="translate(126.409 18.183)" fill="#f6f5f8"/>
        <path id="Trazado_603182" data-name="Trazado 603182" d="M256.965,31.059a2.837,2.837,0,1,1-2.836-2.838,2.838,2.838,0,0,1,2.836,2.838" transform="translate(126.409 14.196)" fill="#f6f5f8"/>
        <path id="Trazado_603183" data-name="Trazado 603183" d="M263.965,31.059a2.837,2.837,0,1,1-2.839-2.838,2.838,2.838,0,0,1,2.839,2.838" transform="translate(129.93 14.196)" fill="#f6f5f8"/>
        <path id="Trazado_603184" data-name="Trazado 603184" d="M271.475,31.059a2.837,2.837,0,1,1-2.836-2.838,2.838,2.838,0,0,1,2.836,2.838" transform="translate(133.708 14.196)" fill="#f6f5f8"/>
        <path id="Rectángulo_300614" data-name="Rectángulo 300614" d="M6.355,0H84.7a6.354,6.354,0,0,1,6.354,6.354V66.237A6.354,6.354,0,0,1,84.7,72.591H6.355A6.355,6.355,0,0,1,0,66.236V6.355A6.355,6.355,0,0,1,6.355,0Z" transform="translate(43.258 251.046)" fill="#575756"/>
        <path id="Trazado_603185" data-name="Trazado 603185" d="M34.1,180.159v37.484a7.763,7.763,0,0,0,7.874,7.644H101.3a7.763,7.763,0,0,0,7.874-7.644V180.159Z" transform="translate(17.152 90.627)" fill="#f6f5f8"/>
        <path id="Trazado_603186" data-name="Trazado 603186" d="M39.77,175.071a2.837,2.837,0,1,1-2.838-2.838,2.837,2.837,0,0,1,2.838,2.838" transform="translate(17.152 86.64)" fill="#f6f5f8"/>
        <path id="Trazado_603187" data-name="Trazado 603187" d="M46.77,175.071a2.838,2.838,0,1,1-2.838-2.838,2.837,2.837,0,0,1,2.838,2.838" transform="translate(20.672 86.64)" fill="#f6f5f8"/>
        <path id="Trazado_603188" data-name="Trazado 603188" d="M54.28,175.071a2.837,2.837,0,1,1-2.838-2.838,2.837,2.837,0,0,1,2.838,2.838" transform="translate(24.451 86.64)" fill="#f6f5f8"/>
        <path id="Rectángulo_300615" data-name="Rectángulo 300615" d="M6.355,0H84.7a6.353,6.353,0,0,1,6.353,6.353V66.237A6.354,6.354,0,0,1,84.7,72.591H6.355A6.355,6.355,0,0,1,0,66.236V6.355A6.355,6.355,0,0,1,6.355,0Z" transform="translate(369.712 251.046)" fill="#82bfec"/>
        <path id="Trazado_603189" data-name="Trazado 603189" d="M251.291,180.159v37.484a7.764,7.764,0,0,0,7.876,7.644H318.5a7.763,7.763,0,0,0,7.873-7.644V180.159Z" transform="translate(126.409 90.627)" fill="#f6f5f8"/>
        <path id="Trazado_603190" data-name="Trazado 603190" d="M256.965,175.071a2.837,2.837,0,1,1-2.836-2.838,2.838,2.838,0,0,1,2.836,2.838" transform="translate(126.409 86.64)" fill="#f6f5f8"/>
        <path id="Trazado_603191" data-name="Trazado 603191" d="M263.965,175.071a2.837,2.837,0,1,1-2.839-2.838,2.838,2.838,0,0,1,2.839,2.838" transform="translate(129.93 86.64)" fill="#f6f5f8"/>
        <path id="Trazado_603192" data-name="Trazado 603192" d="M271.475,175.071a2.837,2.837,0,1,1-2.836-2.838,2.838,2.838,0,0,1,2.836,2.838" transform="translate(133.708 86.64)" fill="#f6f5f8"/>
        <path id="Trazado_603193" data-name="Trazado 603193" d="M275.8,191.576l-2.128,10.757a7.626,7.626,0,0,1-.245.9,1.681,1.681,0,0,1-.362.607,1.327,1.327,0,0,1-.586.352,3.179,3.179,0,0,1-.888.105h-.631a2.15,2.15,0,0,1-1.473-.457,2.639,2.639,0,0,1-.749-1.368l-1.849-7.157c-.015-.077-.038-.117-.071-.117s-.054.041-.069.117l-1.847,7.157a2.649,2.649,0,0,1-.749,1.368,2.155,2.155,0,0,1-1.473.457h-.633a3.194,3.194,0,0,1-.888-.105,1.322,1.322,0,0,1-.585-.352,1.84,1.84,0,0,1-.374-.607,4.928,4.928,0,0,1-.233-.9l-2.128-10.757v-.071a.478.478,0,0,1,.466-.467h2.27a.363.363,0,0,1,.293.128.592.592,0,0,1,.128.293l1.475,9.893c.03.218.069.328.116.328.063,0,.117-.11.164-.328l1.94-7.859a1.463,1.463,0,0,1,.446-.84,1.672,1.672,0,0,1,.864-.165h1.637a1.7,1.7,0,0,1,.867.165,1.464,1.464,0,0,1,.442.84l1.942,7.859c.048.218.1.328.164.328.047,0,.086-.11.117-.328l1.473-9.893a.581.581,0,0,1,.129-.293.363.363,0,0,1,.293-.128h2.267a.477.477,0,0,1,.469.467Z" transform="translate(129.703 96.1)" fill="#575756"/>
        <path id="Trazado_603194" data-name="Trazado 603194" d="M288.542,191.576l-2.128,10.757a7.356,7.356,0,0,1-.243.9,1.7,1.7,0,0,1-.364.607,1.314,1.314,0,0,1-.585.352,3.19,3.19,0,0,1-.89.105H283.7a2.153,2.153,0,0,1-1.473-.457,2.639,2.639,0,0,1-.749-1.368l-1.847-7.157c-.017-.077-.039-.117-.071-.117s-.056.041-.069.117l-1.847,7.157a2.671,2.671,0,0,1-.749,1.368,2.158,2.158,0,0,1-1.473.457h-.631a3.191,3.191,0,0,1-.89-.105,1.314,1.314,0,0,1-.585-.352,1.842,1.842,0,0,1-.376-.607,4.935,4.935,0,0,1-.232-.9l-2.128-10.757v-.071a.478.478,0,0,1,.466-.467h2.27a.36.36,0,0,1,.292.128.579.579,0,0,1,.128.293l1.474,9.893c.032.218.071.328.117.328.062,0,.117-.11.164-.328l1.94-7.859a1.463,1.463,0,0,1,.445-.84,1.683,1.683,0,0,1,.864-.165h1.638a1.686,1.686,0,0,1,.866.165,1.463,1.463,0,0,1,.443.84l1.94,7.859c.048.218.1.328.165.328.047,0,.084-.11.117-.328l1.473-9.893a.606.606,0,0,1,.128-.293.363.363,0,0,1,.293-.128h2.27a.478.478,0,0,1,.466.467Z" transform="translate(136.113 96.1)" fill="#575756"/>
        <path id="Trazado_603195" data-name="Trazado 603195" d="M301.286,191.576l-2.128,10.757a7.35,7.35,0,0,1-.244.9,1.7,1.7,0,0,1-.364.607,1.313,1.313,0,0,1-.585.352,3.2,3.2,0,0,1-.89.105h-.631a2.153,2.153,0,0,1-1.473-.457,2.639,2.639,0,0,1-.749-1.368l-1.847-7.157c-.016-.077-.039-.117-.071-.117s-.056.041-.069.117l-1.847,7.157a2.671,2.671,0,0,1-.749,1.368,2.159,2.159,0,0,1-1.475.457h-.63a3.191,3.191,0,0,1-.89-.105,1.313,1.313,0,0,1-.585-.352,1.842,1.842,0,0,1-.376-.607,4.931,4.931,0,0,1-.231-.9l-2.128-10.757v-.071a.475.475,0,0,1,.466-.467h2.27a.362.362,0,0,1,.292.128.58.58,0,0,1,.128.293l1.474,9.893c.032.218.071.328.117.328s.117-.11.164-.328l1.94-7.859a1.463,1.463,0,0,1,.445-.84,1.683,1.683,0,0,1,.864-.165h1.638a1.685,1.685,0,0,1,.866.165,1.462,1.462,0,0,1,.443.84l1.94,7.859c.048.218.1.328.165.328s.084-.11.117-.328l1.473-9.893a.592.592,0,0,1,.128-.293.363.363,0,0,1,.293-.128h2.268a.478.478,0,0,1,.468.467Z" transform="translate(142.524 96.1)" fill="#575756"/>
        <path id="Trazado_603196" data-name="Trazado 603196" d="M282.261,40.261a16.381,16.381,0,1,0,16.38,16.38,16.379,16.379,0,0,0-16.38-16.38m-14.285,17.4h7.336a41.99,41.99,0,0,0,.836,6.146h-6.284a14.167,14.167,0,0,1-1.888-6.146m7.336-2.046h-7.336a14.136,14.136,0,0,1,1.888-6.143h6.284a41.868,41.868,0,0,0-.836,6.143m2.887-6.143h8.118a40.767,40.767,0,0,1,.839,6.143h-9.8a40.771,40.771,0,0,1,.839-6.143m-.839,8.189h9.8a40.936,40.936,0,0,1-.839,6.146H278.2a40.94,40.94,0,0,1-.839-6.146m11.845,0h7.333a14.2,14.2,0,0,1-1.885,6.146h-6.289a41.007,41.007,0,0,0,.84-6.146m0-2.046a40.889,40.889,0,0,0-.84-6.143h6.289a14.172,14.172,0,0,1,1.885,6.143Zm4.016-8.193h-5.306c-.431-1.814-.872-3.374-1.177-4.392a14.4,14.4,0,0,1,6.483,4.392m-8.694-4.921c.292.942.819,2.749,1.336,4.921h-7.21c.514-2.172,1.042-3.979,1.333-4.921a13.089,13.089,0,0,1,4.541,0m-6.749.529c-.305,1.018-.749,2.578-1.177,4.392H271.3a14.375,14.375,0,0,1,6.484-4.392M271.3,65.856H276.6c.428,1.816.872,3.376,1.174,4.392a14.358,14.358,0,0,1-6.481-4.392m8.692,4.922c-.292-.942-.819-2.752-1.333-4.922h7.21c-.517,2.169-1.042,3.98-1.333,4.922a13.2,13.2,0,0,1-4.544,0m6.752-.531c.308-1.016.746-2.576,1.177-4.392h5.306a14.392,14.392,0,0,1-6.483,4.392" transform="translate(133.747 20.253)" fill="#575756"/>
        <path id="Trazado_603197" data-name="Trazado 603197" d="M50.81,186.01l8.1,26.68,5.1-8.9,6.61,7.575,2.659-2.319-6.531-7.488,8.893-3.465Z" transform="translate(25.56 93.57)" fill="#575756"/>
        <path id="Trazado_603198" data-name="Trazado 603198" d="M299.594,156.819a29.319,29.319,0,1,1,20.15-36.238,29.316,29.316,0,0,1-20.15,36.238" transform="translate(131.911 49.951)" fill="#ffd682"/>
        <path id="Trazado_603199" data-name="Trazado 603199" d="M274.145,110.13l-19.078,11.637,17.483,13.422" transform="translate(128.308 55.4)" fill="#ffd682"/>
        <path id="Trazado_603200" data-name="Trazado 603200" d="M283.354,131.194a4.256,4.256,0,0,0,4.254-4.255H279.1a4.256,4.256,0,0,0,4.254,4.255" transform="translate(140.398 63.855)" fill="#fafbf3"/>
        <path id="Trazado_603201" data-name="Trazado 603201" d="M286.2,107.124a12.754,12.754,0,0,0-5.636,24.2l1.383,3.454h8.507l1.38-3.454a12.754,12.754,0,0,0-5.633-24.2" transform="translate(137.549 53.888)" fill="#fafbf3"/>
        <path id="Trazado_603202" data-name="Trazado 603202" d="M57.264,100.43a29.319,29.319,0,1,1-20.148,36.238A29.315,29.315,0,0,1,57.264,100.43" transform="translate(18.1 49.951)" fill="#82bfec"/>
        <path id="Trazado_603203" data-name="Trazado 603203" d="M69.469,135.875l19.078-11.637L71.063,110.817" transform="translate(34.945 55.745)" fill="#82bfec"/>
        <path id="Trazado_603204" data-name="Trazado 603204" d="M75.15,112.159s-4.913.564-7.366,0c-2.321-.534-7.39-4.426-7.407-4.413-.5.386-5.035,3.893-7.288,4.413-2.457.564-7.369,0-7.369,0a41.668,41.668,0,0,0,2.456,15.8c2.981,8.5,12.253,13.532,12.259,13.53s9.277-5.034,12.256-13.53a41.733,41.733,0,0,0,2.46-15.8m-6.833,14.507c-1.559,4.441-5.376,7.823-7.883,9.657-2.5-1.831-6.325-5.213-7.886-9.657A41.341,41.341,0,0,1,50.4,116.627a17.71,17.71,0,0,0,3.807-.376,20.751,20.751,0,0,0,6.224-3.15c3.424,2.286,5.121,2.895,6.245,3.15a17.577,17.577,0,0,0,3.8.376,41.066,41.066,0,0,1-2.157,10.039" transform="translate(22.973 54.2)" fill="#fafbf3"/>
        <path id="Trazado_603205" data-name="Trazado 603205" d="M322.874,101.4l1.916,4.661,4.662,1.918L324.79,109.9l-1.916,4.658-1.919-4.658-4.659-1.921,4.659-1.918Z" transform="translate(159.109 51.008)" fill="#fff"/>
        <path id="Trazado_603206" data-name="Trazado 603206" d="M322.874,12.382l1.916,4.661,4.662,1.918-4.662,1.921-1.916,4.658-1.919-4.658-4.659-1.921,4.659-1.918Z" transform="translate(159.109 6.229)" fill="#fff"/>
        <path id="Trazado_603207" data-name="Trazado 603207" d="M37.742,89.178l1.918,4.661,4.661,1.918L39.66,97.678l-1.918,4.658-1.919-4.658-4.659-1.921,4.659-1.918Z" transform="translate(15.676 44.86)" fill="#fff"/>
        <path id="Trazado_603208" data-name="Trazado 603208" d="M19.18,158.352l1.918,4.659,4.661,1.919L21.1,166.852,19.18,171.51l-1.919-4.658L12.6,164.931l4.659-1.919Z" transform="translate(6.339 79.657)" fill="#fff"/>
        <path id="Trazado_603209" data-name="Trazado 603209" d="M234.6,207.033l1.916,4.661,4.662,1.918-4.662,1.921L234.6,220.19l-1.919-4.658-4.659-1.921,4.659-1.918Z" transform="translate(114.705 104.145)" fill="#fff"/>
        <path id="Trazado_603210" data-name="Trazado 603210" d="M262.62,142.5l1.916,4.661,4.662,1.918L264.536,151l-1.916,4.658L260.7,151l-4.659-1.921,4.659-1.918Z" transform="translate(128.799 71.685)" fill="#fff"/>
        <path id="Trazado_603211" data-name="Trazado 603211" d="M233.684,16.221l1.916,4.661,4.662,1.918L235.6,24.721l-1.916,4.658-1.919-4.658L227.105,22.8l4.659-1.918Z" transform="translate(114.243 8.16)" fill="#fff"/>
        <path id="Trazado_603212" data-name="Trazado 603212" d="M91.564,8.005l1.918,4.661,4.661,1.918-4.661,1.921-1.918,4.658-1.919-4.658-4.659-1.921,4.659-1.918Z" transform="translate(42.751 4.027)" fill="#fff"/>
        <path id="Trazado_603213" data-name="Trazado 603213" d="M21.671,12.382l1.918,4.661,4.661,1.918-4.661,1.921L21.671,25.54l-1.919-4.658-4.659-1.921,4.659-1.918Z" transform="translate(7.592 6.229)" fill="#fff"/>
        <path id="Trazado_603214" data-name="Trazado 603214" d="M23.524,215.309l1.918,4.661,4.661,1.918-4.661,1.921-1.918,4.658-1.919-4.658-4.659-1.921,4.659-1.918Z" transform="translate(8.524 108.309)" fill="#fff"/>
        <path id="Trazado_603215" data-name="Trazado 603215" d="M322.874,217.536l1.916,4.661,4.662,1.918-4.662,1.921-1.916,4.658-1.919-4.658-4.659-1.921,4.659-1.918Z" transform="translate(159.109 109.429)" fill="#fff"/>
        <path id="Trazado_603216" data-name="Trazado 603216" d="M310.833,84.266l2.689,6.522,6.52,2.686-6.52,2.686-2.689,6.522-2.686-6.522-6.52-2.686,6.52-2.686Z" transform="translate(151.73 42.389)" fill="#fff"/>
        <path id="Trazado_603217" data-name="Trazado 603217" d="M105.04,14.472l2.687,6.522,6.52,2.686-6.52,2.686-2.687,6.522-2.686-6.522L95.832,23.68l6.522-2.686Z" transform="translate(48.207 7.28)" fill="#fff"/>
        <path id="Trazado_603218" data-name="Trazado 603218" d="M111.166,211.41l2.687,6.522,6.52,2.686-6.52,2.686-2.687,6.522L108.48,223.3l-6.522-2.686,6.522-2.686Z" transform="translate(51.289 106.347)" fill="#fff"/>
        <path id="Trazado_603219" data-name="Trazado 603219" d="M78.083,79.973l2.687,6.522,6.52,2.686-6.52,2.686-2.687,6.522L75.4,91.867l-6.522-2.686L75.4,86.495Z" transform="translate(34.647 40.23)" fill="#fff"/>
      </g>
    </g>
  </g>
</svg>
