<svg xmlns="http://www.w3.org/2000/svg" width="190" height="205" viewBox="0 0 190 205">
  <g id="Grupo_890193" data-name="Grupo 890193" transform="translate(2168.355 8340)">
    <rect id="Rectángulo_301380" data-name="Rectángulo 301380" width="190" height="205" rx="26" transform="translate(-2168.355 -8340)" fill="#fff"/>
    <g id="Grupo_890189" data-name="Grupo 890189" transform="translate(-2989.555 -8543.898)">
      <g id="Grupo_890018" data-name="Grupo 890018" transform="translate(852.669 224.574)">
        <g id="Grupo_890014" data-name="Grupo 890014" transform="translate(0 109.522)">
          <circle id="Elipse_8051" data-name="Elipse 8051" cx="9.624" cy="9.624" r="9.624" transform="translate(1.838 1.838)" fill="#26aab7"/>
          <path id="Trazado_605021" data-name="Trazado 605021" d="M864.131,634.869a11.462,11.462,0,1,1,11.462-11.462A11.475,11.475,0,0,1,864.131,634.869Zm0-19.249a7.787,7.787,0,1,0,7.787,7.787A7.8,7.8,0,0,0,864.131,615.621Z" transform="translate(-852.669 -611.945)" fill="#161615"/>
        </g>
        <g id="Grupo_890015" data-name="Grupo 890015" transform="translate(10.288 0)">
          <path id="Trazado_605022" data-name="Trazado 605022" d="M965.528,231.074H918.7a23.142,23.142,0,0,0-23.142,23.142V365.233A23.142,23.142,0,0,0,918.7,388.375h66.808a23.142,23.142,0,0,0,23.142-23.142V274.195Z" transform="translate(-893.718 -229.236)" fill="#fff"/>
          <path id="Trazado_605023" data-name="Trazado 605023" d="M980.844,385.551H914.036a25.008,25.008,0,0,1-24.98-24.98V249.554a25.008,25.008,0,0,1,24.98-24.98h46.83a1.837,1.837,0,0,1,1.3.538l43.121,43.121a1.837,1.837,0,0,1,.538,1.3v91.038A25.008,25.008,0,0,1,980.844,385.551Zm-66.808-157.3a21.329,21.329,0,0,0-21.3,21.3V360.571a21.329,21.329,0,0,0,21.3,21.3h66.808a21.329,21.329,0,0,0,21.3-21.3V270.294L960.1,228.25Z" transform="translate(-889.056 -224.574)" fill="#161615"/>
        </g>
        <g id="Grupo_890016" data-name="Grupo 890016" transform="translate(80.26 0)">
          <path id="Trazado_605024" data-name="Trazado 605024" d="M1143.041,231.074l43.121,43.121h-33.925a9.2,9.2,0,0,1-9.2-9.2Z" transform="translate(-1141.203 -229.236)" fill="#dddddc"/>
          <path id="Trazado_605025" data-name="Trazado 605025" d="M1181.505,271.37h-33.931a11.046,11.046,0,0,1-11.034-11.034V226.412a1.838,1.838,0,0,1,3.137-1.3l43.038,43.038a1.838,1.838,0,0,1-1.211,3.22Zm-41.289-40.522v29.488a7.366,7.366,0,0,0,7.358,7.358h29.488Z" transform="translate(-1136.541 -224.574)" fill="#161615"/>
        </g>
        <g id="Grupo_890017" data-name="Grupo 890017" transform="translate(0.149 63.648)">
          <path id="Trazado_605026" data-name="Trazado 605026" d="M870.046,456.192A10.351,10.351,0,0,0,859.7,466.543v43.344h.19a10.352,10.352,0,0,1,10.161-8.38H974.283V456.192Z" transform="translate(-857.857 -454.354)" fill="#26aab7"/>
          <path id="Trazado_605027" data-name="Trazado 605027" d="M855.223,507.063h-.19a1.838,1.838,0,0,1-1.838-1.838V461.881a12.2,12.2,0,0,1,12.188-12.189H969.62a1.838,1.838,0,0,1,1.838,1.838v45.315a1.838,1.838,0,0,1-1.838,1.838H865.384a8.518,8.518,0,0,0-8.357,6.89A1.838,1.838,0,0,1,855.223,507.063Zm10.161-53.7a8.523,8.523,0,0,0-8.513,8.513v36.6a12.183,12.183,0,0,1,8.513-3.47h102.4v-41.64Z" transform="translate(-853.195 -449.692)" fill="#161615"/>
        </g>
      </g>
    </g>
    <path id="Trazado_605239" data-name="Trazado 605239" d="M6.134-15.641,9.625-4.759l3.48-10.882h4.963V0H14.287V-3.652l.365-7.477L10.871,0H8.379L4.587-11.14l.365,7.487V0H1.182V-15.641ZM33.709-7.5a9.223,9.223,0,0,1-.849,4.05A6.272,6.272,0,0,1,30.449-.736a6.715,6.715,0,0,1-3.561.951A6.81,6.81,0,0,1,23.343-.7,6.261,6.261,0,0,1,20.931-3.33a8.958,8.958,0,0,1-.908-3.921v-.881a9.264,9.264,0,0,1,.843-4.055A6.257,6.257,0,0,1,23.284-14.9a6.762,6.762,0,0,1,3.583-.956,6.7,6.7,0,0,1,3.545.945,6.369,6.369,0,0,1,2.422,2.691,9,9,0,0,1,.875,4Zm-3.835-.655a6.577,6.577,0,0,0-.779-3.54A2.5,2.5,0,0,0,26.866-12.9q-2.836,0-3,4.254L23.858-7.5a6.764,6.764,0,0,0,.763,3.534,2.494,2.494,0,0,0,2.267,1.235,2.464,2.464,0,0,0,2.2-1.214,6.58,6.58,0,0,0,.784-3.491Zm11.612,3.9L44.6-15.641h4.211L43.549,0H39.424L34.2-15.641h4.179Z" transform="translate(-2098.355 -8224)" fill="#00223d"/>
  </g>
</svg>
