<svg xmlns="http://www.w3.org/2000/svg" width="190" height="205" viewBox="0 0 190 205">
  <g id="Grupo_890024" data-name="Grupo 890024" transform="translate(-1454 -2095)">
    <rect id="Rectángulo_301305" data-name="Rectángulo 301305" width="190" height="205" rx="26" transform="translate(1454 2095)" fill="#fff"/>
    <g id="Grupo_890020" data-name="Grupo 890020" transform="translate(632.8 1891.102)">
      <g id="Grupo_890018" data-name="Grupo 890018" transform="translate(852.669 224.574)">
        <g id="Grupo_890014" data-name="Grupo 890014" transform="translate(0 109.522)">
          <circle id="Elipse_8051" data-name="Elipse 8051" cx="9.624" cy="9.624" r="9.624" transform="translate(1.838 1.838)" fill="#fb8c00"/>
          <path id="Trazado_605021" data-name="Trazado 605021" d="M864.131,634.869a11.462,11.462,0,1,1,11.462-11.462A11.475,11.475,0,0,1,864.131,634.869Zm0-19.249a7.787,7.787,0,1,0,7.787,7.787A7.8,7.8,0,0,0,864.131,615.621Z" transform="translate(-852.669 -611.945)" fill="#161615"/>
        </g>
        <g id="Grupo_890015" data-name="Grupo 890015" transform="translate(10.288 0)">
          <path id="Trazado_605022" data-name="Trazado 605022" d="M965.528,231.074H918.7a23.142,23.142,0,0,0-23.142,23.142V365.233A23.142,23.142,0,0,0,918.7,388.375h66.808a23.142,23.142,0,0,0,23.142-23.142V274.195Z" transform="translate(-893.718 -229.236)" fill="#fff"/>
          <path id="Trazado_605023" data-name="Trazado 605023" d="M980.844,385.551H914.036a25.008,25.008,0,0,1-24.98-24.98V249.554a25.008,25.008,0,0,1,24.98-24.98h46.83a1.837,1.837,0,0,1,1.3.538l43.121,43.121a1.837,1.837,0,0,1,.538,1.3v91.038A25.008,25.008,0,0,1,980.844,385.551Zm-66.808-157.3a21.329,21.329,0,0,0-21.3,21.3V360.571a21.329,21.329,0,0,0,21.3,21.3h66.808a21.329,21.329,0,0,0,21.3-21.3V270.294L960.1,228.25Z" transform="translate(-889.056 -224.574)" fill="#161615"/>
        </g>
        <g id="Grupo_890016" data-name="Grupo 890016" transform="translate(80.26 0)">
          <path id="Trazado_605024" data-name="Trazado 605024" d="M1143.041,231.074l43.121,43.121h-33.925a9.2,9.2,0,0,1-9.2-9.2Z" transform="translate(-1141.203 -229.236)" fill="#dddddc"/>
          <path id="Trazado_605025" data-name="Trazado 605025" d="M1181.505,271.37h-33.931a11.046,11.046,0,0,1-11.034-11.034V226.412a1.838,1.838,0,0,1,3.137-1.3l43.038,43.038a1.838,1.838,0,0,1-1.211,3.22Zm-41.289-40.522v29.488a7.366,7.366,0,0,0,7.358,7.358h29.488Z" transform="translate(-1136.541 -224.574)" fill="#161615"/>
        </g>
        <g id="Grupo_890017" data-name="Grupo 890017" transform="translate(0.149 63.648)">
          <path id="Trazado_605026" data-name="Trazado 605026" d="M870.046,456.192A10.351,10.351,0,0,0,859.7,466.543v43.344h.19a10.352,10.352,0,0,1,10.161-8.38H974.283V456.192Z" transform="translate(-857.857 -454.354)" fill="#fb8c00"/>
          <path id="Trazado_605027" data-name="Trazado 605027" d="M855.223,507.063h-.19a1.838,1.838,0,0,1-1.838-1.838V461.881a12.2,12.2,0,0,1,12.188-12.189H969.62a1.838,1.838,0,0,1,1.838,1.838v45.315a1.838,1.838,0,0,1-1.838,1.838H865.384a8.518,8.518,0,0,0-8.357,6.89A1.838,1.838,0,0,1,855.223,507.063Zm10.161-53.7a8.523,8.523,0,0,0-8.513,8.513v36.6a12.183,12.183,0,0,1,8.513-3.47h102.4v-41.64Z" transform="translate(-853.195 -449.692)" fill="#161615"/>
        </g>
      </g>
    </g>
    <path id="Trazado_605240" data-name="Trazado 605240" d="M14.427-7.5a9.223,9.223,0,0,1-.849,4.05A6.272,6.272,0,0,1,11.167-.736,6.715,6.715,0,0,1,7.605.215,6.81,6.81,0,0,1,4.061-.7,6.261,6.261,0,0,1,1.649-3.33,8.958,8.958,0,0,1,.741-7.251v-.881a9.264,9.264,0,0,1,.843-4.055A6.257,6.257,0,0,1,4-14.9a6.762,6.762,0,0,1,3.583-.956,6.7,6.7,0,0,1,3.545.945,6.369,6.369,0,0,1,2.422,2.691,9,9,0,0,1,.875,4Zm-3.835-.655a6.577,6.577,0,0,0-.779-3.54A2.5,2.5,0,0,0,7.584-12.9q-2.836,0-3,4.254L4.576-7.5a6.764,6.764,0,0,0,.763,3.534A2.494,2.494,0,0,0,7.605-2.729a2.464,2.464,0,0,0,2.2-1.214,6.58,6.58,0,0,0,.784-3.491Zm18.584,6.22A6.062,6.062,0,0,1,26.63-.376a10.981,10.981,0,0,1-3.674.591,6.551,6.551,0,0,1-4.909-1.88A7.61,7.61,0,0,1,16.081-6.9L16.07-8.25a9.334,9.334,0,0,1,.816-4.034,6.062,6.062,0,0,1,2.336-2.653,6.609,6.609,0,0,1,3.518-.929,6.929,6.929,0,0,1,4.539,1.337,5.667,5.667,0,0,1,1.885,3.991H25.534a2.965,2.965,0,0,0-.838-1.869,2.7,2.7,0,0,0-1.826-.559,2.46,2.46,0,0,0-2.191,1.2,6.424,6.424,0,0,0-.784,3.438v.945a6.289,6.289,0,0,0,.8,3.518,2.831,2.831,0,0,0,2.519,1.176,3.168,3.168,0,0,0,2.191-.655V-5.769H22.784V-8.357h6.392Zm15,0A6.062,6.062,0,0,1,41.626-.376a10.981,10.981,0,0,1-3.674.591,6.551,6.551,0,0,1-4.909-1.88A7.61,7.61,0,0,1,31.077-6.9L31.066-8.25a9.334,9.334,0,0,1,.816-4.034,6.062,6.062,0,0,1,2.336-2.653,6.609,6.609,0,0,1,3.518-.929,6.929,6.929,0,0,1,4.539,1.337,5.667,5.667,0,0,1,1.885,3.991H40.53a2.965,2.965,0,0,0-.838-1.869,2.7,2.7,0,0,0-1.826-.559,2.46,2.46,0,0,0-2.191,1.2,6.424,6.424,0,0,0-.784,3.438v.945a6.289,6.289,0,0,0,.8,3.518A2.831,2.831,0,0,0,38.21-2.686,3.168,3.168,0,0,0,40.4-3.341V-5.769H37.78V-8.357h6.392Z" transform="translate(1527 2211)" fill="#00223d"/>
  </g>
</svg>
