<svg xmlns="http://www.w3.org/2000/svg" xmlns:xlink="http://www.w3.org/1999/xlink" width="257.509" height="216.938" viewBox="0 0 257.509 216.938">
  <defs>
    <clipPath id="clip-path">
      <rect id="Rectángulo_300658" data-name="Rectángulo 300658" width="257.509" height="216.938" transform="translate(0 0)" fill="none"/>
    </clipPath>
  </defs>
  <g id="Grupo_888807" data-name="Grupo 888807" transform="translate(0 -0.005)">
    <g id="Grupo_888806" data-name="Grupo 888806" transform="translate(0 0.005)" clip-path="url(#clip-path)">
      <path id="Trazado_603247" data-name="Trazado 603247" d="M308.093,257.772V386.6a3.878,3.878,0,0,1-3.633,4.082H118.583a3.878,3.878,0,0,1-3.633-4.082V257.772a3.877,3.877,0,0,1,3.633-4.082H304.46a3.877,3.877,0,0,1,3.633,4.082" transform="translate(-91.467 -201.865)" fill="#8fced5"/>
      <path id="Trazado_603248" data-name="Trazado 603248" d="M207.438,222.471v10.448H0V222.471a3.9,3.9,0,0,1,3.9-3.9H203.536a3.9,3.9,0,0,1,3.9,3.9" transform="translate(0 -173.919)" fill="#1565c0"/>
      <path id="Trazado_603249" data-name="Trazado 603249" d="M31.062,246.614a1.817,1.817,0,1,1,1.817,1.817,1.817,1.817,0,0,1-1.817-1.817" transform="translate(-24.716 -194.789)" fill="#e9e9e9"/>
      <path id="Trazado_603250" data-name="Trazado 603250" d="M66.1,246.614a1.817,1.817,0,1,1,1.817,1.817,1.817,1.817,0,0,1-1.817-1.817" transform="translate(-52.597 -194.789)" fill="#e9e9e9"/>
      <path id="Trazado_603251" data-name="Trazado 603251" d="M102.025,246.614a1.817,1.817,0,1,1,1.817,1.817,1.817,1.817,0,0,1-1.817-1.817" transform="translate(-81.182 -194.789)" fill="#e9e9e9"/>
      <path id="Trazado_603252" data-name="Trazado 603252" d="M239.2,279.725a.791.791,0,0,0-.141.845.006.006,0,0,0,0,0,5.252,5.252,0,0,0,1.66,1.821c.1.081.189.154.266.222l.06.054.046.042c.73.673.455.827,1.766,2.192,1.495,1.555,2.524,1.583,2.817,1.441.248-.121-.256-.946-.813-1.873l-.081-.135c-.074-.123-.148-.248-.222-.372-.654-1.116-.486-1.639-.331-3.3.126-1.349,2.1-7.539,2.1-7.539l-2.865-.494s-.863,4.928-1.813,5.687c-.508.4-1.077.41-1.566.71-.035.021-.068.042-.1.064a3.752,3.752,0,0,0-.784.63" transform="translate(-190.17 -216.939)" fill="#ee805f"/>
      <path id="Trazado_603253" data-name="Trazado 603253" d="M239.2,304.642a.791.791,0,0,0-.141.845.006.006,0,0,0,0,0,6.079,6.079,0,0,0,1.663,1.815c.1.082.186.158.264.228l.06.054.046.042c.73.673.455.827,1.766,2.192,1.495,1.555,2.524,1.583,2.817,1.441.248-.121-.256-.946-.813-1.873a6.37,6.37,0,0,1-2.665-1.963c-.9-1.149-1.5-2.624-2.113-3.479-.035.021-.068.042-.1.064a3.752,3.752,0,0,0-.784.63" transform="translate(-190.17 -241.856)" fill="#151f2c"/>
      <path id="Trazado_603254" data-name="Trazado 603254" d="M344.13,274.541c.177.884,1.437.737,2.845.393s1.074.065,3.077-.157,2.611-.969,2.673-1.267c.055-.265-.936-.358-2-.48-.134-.015-.268-.031-.4-.048a8.678,8.678,0,0,1-3.166-1.56,12.723,12.723,0,0,1-2.572-3.055l-2.749.218s1.442,2.191,2,3.143a3.321,3.321,0,0,1,.27,1.873,3.528,3.528,0,0,0,.021.94" transform="translate(-272.005 -213.543)" fill="#ee805f"/>
      <path id="Trazado_603255" data-name="Trazado 603255" d="M355.735,293.094c1.408-.344,1.073.065,3.077-.157s2.611-.969,2.672-1.267c.055-.265-.935-.358-2-.48l-.01.02a5.65,5.65,0,0,1-2.87.892c-1.36.033-2.8-.356-3.739-.341a3.527,3.527,0,0,0,.021.94c.177.884,1.437.737,2.845.393" transform="translate(-280.765 -231.704)" fill="#151f2c"/>
      <path id="Trazado_603256" data-name="Trazado 603256" d="M264.771,195.4l-2.569,6.914-3.354,9.027a5.429,5.429,0,0,1-1.782-.163,7.724,7.724,0,0,1-1.723-.839s.931-9.693,2.669-15.256a9.91,9.91,0,0,1,1.495-3.234c2.694-3.183,5.265,3.551,5.265,3.551" transform="translate(-203.178 -151.979)" fill="#151f2c"/>
      <path id="Trazado_603257" data-name="Trazado 603257" d="M191.914,153.44c-1.683-.543-6.484.154-11.306,1.1l-1.01-1.665-10.417-.814s-3.437,7.623-1.555,12.479a1.761,1.761,0,0,0,1.763,1.187h.152l8.213,0c5.18,0,10.963-3.561,11.711-3.711,1.225-.245,1.714,2.2,2.939,4.775s11.51,11.388,11.51,11.388a9.056,9.056,0,0,0,2.234-.229,2.2,2.2,0,0,0,.959-.605s-11.4-22.675-15.193-23.9" transform="translate(-132.934 -120.996)" fill="#384152"/>
      <path id="Trazado_603258" data-name="Trazado 603258" d="M159.755.171A10.98,10.98,0,0,0,155.967.2c-3.963.39-5.295,4.812-4.7,8.242.553,3.166-1.052,4.041-2.913,6.542-3.731,5.013-1.293,9.241,1.652,10.331,1.766.654,4.219-1,4.219-1a113.917,113.917,0,0,0,10.847-7.859c5.23-2.046-1.6-15.333-5.321-16.29" transform="translate(-116.542 -0.005)" fill="#151f2c"/>
      <path id="Trazado_603259" data-name="Trazado 603259" d="M193.579,52.84c.1.367-1.629,1.041-2.953.793-1.245-.232-2.64-1.69-2.353-1.827.476-.226.8-.789.536-3.834l.237.027,3.983.455s.012,1.241.1,2.4a7.87,7.87,0,0,0,.444,1.982" transform="translate(-149.781 -38.174)" fill="#ee805f"/>
      <path id="Trazado_603260" data-name="Trazado 603260" d="M196.191,48.56s.012,1.241.1,2.4c-2.2.118-3.522-1.788-4.088-2.858Z" transform="translate(-152.942 -38.279)" fill="#de6b4d"/>
      <path id="Trazado_603261" data-name="Trazado 603261" d="M193.337,21.8s-5.183.511-5.451-2.721-1.118-5.343,2.179-5.806,4.044.717,4.4,1.774.217,6.537-1.124,6.754" transform="translate(-149.264 -10.483)" fill="#ee805f"/>
      <path id="Trazado_603262" data-name="Trazado 603262" d="M186.792,9.189s-.653,3.949-3.6,4.886c-2.153.684-3.129.233-3.129.233a8.776,8.776,0,0,0,1.4-3.285,1.58,1.58,0,0,1,1.054-1.206c1.53-.5,3.384-1.88,4.274-.627" transform="translate(-143.275 -6.905)" fill="#151f2c"/>
      <path id="Trazado_603263" data-name="Trazado 603263" d="M208.235,11.78a3.429,3.429,0,0,1,1.842,1.478A6.614,6.614,0,0,1,211,16.451s.907-3.655-.416-5.014a1.376,1.376,0,0,0-2.354.343" transform="translate(-165.695 -8.654)" fill="#151f2c"/>
      <path id="Trazado_603264" data-name="Trazado 603264" d="M166.857,77.274c.092.393.171.754.236,1.087.106.538.178,1,.229,1.41.158,1.275.111,2.03.218,2.856a7.111,7.111,0,0,0,.388,1.555c.214.592,5.846,1.12,9.05.907a4.4,4.4,0,0,0,2.068-.447c1.143-.993,1.029,1.191,1.186-9.257.076-5.1-4.324-9.634-4.324-9.634s-.351,2.177-4.715-.414c-.155-.091-1.874,2.454-3.528,5.587-1.822,3.461-1.323,4.194-.808,6.349" transform="translate(-132.391 -51.989)" fill="#43a1f6"/>
      <path id="Trazado_603265" data-name="Trazado 603265" d="M262.2,218.24l-3.354,9.027a5.436,5.436,0,0,1-1.782-.163,7.731,7.731,0,0,1-1.723-.839s.931-9.693,2.669-15.256Z" transform="translate(-203.178 -167.903)" fill="#384152"/>
      <path id="Trazado_603266" data-name="Trazado 603266" d="M213.016,67.369s4.49.761,5.017,2.694,4.17,12.744,4.17,12.744-2.822.963-3.877-.091-3.669-9.783-3.669-9.783Z" transform="translate(-169.499 -53.607)" fill="#43a1f6"/>
      <path id="Trazado_603267" data-name="Trazado 603267" d="M209.879,45.679a.891.891,0,0,0,.791.532c.574,0,.729-.086.838-.207a1.8,1.8,0,0,0,.216-.356,4.874,4.874,0,0,0-1.845.031" transform="translate(-167.003 -36.264)" fill="#fff"/>
      <path id="Trazado_603268" data-name="Trazado 603268" d="M170.988,134.861c.158,1.275.111,2.03.218,2.856,4.077.013,9.527-3.148,9.527-3.148Z" transform="translate(-136.057 -107.079)" fill="#2b6eb2"/>
      <path id="Trazado_603269" data-name="Trazado 603269" d="M180.072,101.151s-6.351-.189-7.421-3.8c-1.176-3.966-2.493,1.631-2.493,1.631l.7,3.572h6.968Z" transform="translate(-135.396 -76.334)" fill="#2b6eb2"/>
      <path id="Trazado_603270" data-name="Trazado 603270" d="M238.181,64.35l-.343-.85a2.411,2.411,0,0,0-2.235-1.508h-6.331V83.16h26.19V66.009h-14.82a2.653,2.653,0,0,1-2.46-1.659" transform="translate(-182.434 -49.329)" fill="#b8c0c7"/>
      <path id="Trazado_603271" data-name="Trazado 603271" d="M248.609,109.928V108.4l5.352-2.344v1.559l-3.737,1.537,3.737,1.537v1.581Z" transform="translate(-197.821 -84.393)" fill="#fff"/>
      <path id="Trazado_603272" data-name="Trazado 603272" d="M282.952,97.128h1.426l-4.9,10.239h-1.426Z" transform="translate(-221.25 -77.286)" fill="#fff"/>
      <path id="Trazado_603273" data-name="Trazado 603273" d="M317.288,108.4v1.526l-5.352,2.344v-1.559l3.737-1.537-3.737-1.537v-1.581Z" transform="translate(-248.211 -84.393)" fill="#fff"/>
      <path id="Trazado_603274" data-name="Trazado 603274" d="M218.685,117.011l.459-.721a3.693,3.693,0,0,0,.874-.477c.607-.426.526-1.064.829-1l0,1.4-.033,0c1.3.348,2.823-.03,2.854.294.084.891-.606,1.293-1.183,1.572a2.094,2.094,0,0,1-1.743.286c-.584-.182-1.5-.367-1.5-.367Z" transform="translate(-174.01 -91.358)" fill="#ee805f"/>
      <path id="Trazado_603275" data-name="Trazado 603275" d="M162.464,65.35s-4.122.27-5.153,1.878S155,77,155.537,79.8s13.738-.536,13.738-.536l-.421-2.432s-7.619.044-8.053-.948c-.577-1.32,1.663-10.536,1.663-10.536" transform="translate(-123.662 -52.001)" fill="#43a1f6"/>
      <path id="Trazado_603276" data-name="Trazado 603276" d="M287.34,78.54a1.535,1.535,0,0,0,1.556,1c.583-.117,1.342-1.374.676-1.651a1.9,1.9,0,0,0-2.232.652" transform="translate(-228.638 -61.868)" fill="#ee805f"/>
      <rect id="Rectángulo_300651" data-name="Rectángulo 300651" width="32.514" height="0.157" transform="translate(98.867 73.298) rotate(-61.902)" fill="#151f2c"/>
      <rect id="Rectángulo_300652" data-name="Rectángulo 300652" width="0.157" height="25.319" transform="translate(153.039 44.704) rotate(-42.827)" fill="#151f2c"/>
      <path id="Trazado_603277" data-name="Trazado 603277" d="M532.517,312.956A6.887,6.887,0,0,1,531.232,318a6.568,6.568,0,0,1-4.392,2.627L449.889,331.2a7.046,7.046,0,0,1-8.07-5.782,6.625,6.625,0,0,1,1.442-5.064,7.388,7.388,0,0,1,4.77-2.679L524.983,307.1a6.767,6.767,0,0,1,7.534,5.855" transform="translate(-351.512 -244.316)" fill="#e9e9e9"/>
      <path id="Trazado_603278" data-name="Trazado 603278" d="M802.437,312.956A6.887,6.887,0,0,1,801.153,318a6.567,6.567,0,0,1-4.392,2.627l-13.925,1.913-1.858-13.525L794.9,307.1a6.767,6.767,0,0,1,7.534,5.855" transform="translate(-621.432 -244.316)" fill="#43a1f6"/>
      <path id="Trazado_603279" data-name="Trazado 603279" d="M829.115,326.991a3.533,3.533,0,0,1-.521.032,3.466,3.466,0,1,1,.521-.032m-2.512-5.525a2.906,2.906,0,1,0,4.109.048,2.909,2.909,0,0,0-4.109-.048" transform="translate(-656.585 -254.682)" fill="#fff"/>
      <rect id="Rectángulo_300653" data-name="Rectángulo 300653" width="4.748" height="0.573" transform="translate(166.169 74.207) rotate(-44.336)" fill="#fff"/>
      <path id="Trazado_603280" data-name="Trazado 603280" d="M808.033,358.9h0a.512.512,0,0,1,.008-.724l2-1.954a.512.512,0,1,1,.715.732l-2,1.954a.511.511,0,0,1-.723-.008" transform="translate(-642.844 -283.336)" fill="#fff"/>
      <path id="Trazado_603281" data-name="Trazado 603281" d="M188.487,690.028H172.41a.606.606,0,0,1-.606-.606v-.255a.606.606,0,0,1,.606-.606h16.077a.606.606,0,0,1,.606.606v.255a.606.606,0,0,1-.606.606" transform="translate(-136.706 -547.896)" fill="#43a1f6"/>
      <path id="Trazado_603282" data-name="Trazado 603282" d="M180.236,716.532H172.3a.5.5,0,1,1,0-1h7.933a.5.5,0,0,1,0,1" transform="translate(-136.705 -569.356)" fill="#151f2c"/>
      <path id="Trazado_603283" data-name="Trazado 603283" d="M186.31,706.256H172.269a.466.466,0,0,1-.466-.466v-.069a.466.466,0,0,1,.466-.466H186.31a.466.466,0,0,1,.466.466v.069a.466.466,0,0,1-.466.466" transform="translate(-136.705 -561.18)" fill="#151f2c"/>
      <path id="Trazado_603284" data-name="Trazado 603284" d="M265.308,706.256H252.226a.45.45,0,0,1-.45-.45v-.1a.45.45,0,0,1,.45-.45h13.081a.45.45,0,0,1,.45.45v.1a.45.45,0,0,1-.45.45" transform="translate(-200.341 -561.18)" fill="#151f2c"/>
      <path id="Trazado_603285" data-name="Trazado 603285" d="M228.669,716.532h-7.933a.5.5,0,0,1,0-1h7.933a.5.5,0,0,1,0,1" transform="translate(-175.244 -569.356)" fill="#151f2c"/>
      <path id="Trazado_603286" data-name="Trazado 603286" d="M284.316,690.028H268.239a.606.606,0,0,1-.606-.606v-.255a.606.606,0,0,1,.606-.606h16.077a.606.606,0,0,1,.606.606v.255a.606.606,0,0,1-.606.606" transform="translate(-212.958 -547.896)" fill="#43a1f6"/>
      <path id="Trazado_603287" data-name="Trazado 603287" d="M188.487,744.089H172.41a.606.606,0,0,1-.606-.606v-.255a.606.606,0,0,1,.606-.606h16.077a.606.606,0,0,1,.606.606v.255a.606.606,0,0,1-.606.606" transform="translate(-136.706 -590.913)" fill="#43a1f6"/>
      <path id="Trazado_603288" data-name="Trazado 603288" d="M180.236,770.593H172.3a.5.5,0,1,1,0-1h7.933a.5.5,0,0,1,0,1" transform="translate(-136.705 -612.373)" fill="#151f2c"/>
      <path id="Trazado_603289" data-name="Trazado 603289" d="M186.31,760.317H172.269a.466.466,0,0,1-.466-.466v-.069a.466.466,0,0,1,.466-.466H186.31a.466.466,0,0,1,.466.466v.069a.466.466,0,0,1-.466.466" transform="translate(-136.705 -604.197)" fill="#151f2c"/>
      <path id="Trazado_603290" data-name="Trazado 603290" d="M265.308,760.317H252.226a.45.45,0,0,1-.45-.45v-.1a.45.45,0,0,1,.45-.45h13.081a.45.45,0,0,1,.45.45v.1a.45.45,0,0,1-.45.45" transform="translate(-200.341 -604.197)" fill="#151f2c"/>
      <path id="Trazado_603291" data-name="Trazado 603291" d="M228.669,770.593h-7.933a.5.5,0,0,1,0-1h7.933a.5.5,0,0,1,0,1" transform="translate(-175.244 -612.373)" fill="#151f2c"/>
      <path id="Trazado_603292" data-name="Trazado 603292" d="M284.316,744.089H268.239a.606.606,0,0,1-.606-.606v-.255a.606.606,0,0,1,.606-.606h16.077a.606.606,0,0,1,.606.606v.255a.606.606,0,0,1-.606.606" transform="translate(-212.958 -590.913)" fill="#43a1f6"/>
      <path id="Trazado_603293" data-name="Trazado 603293" d="M595.567,388.391l-9.182,2.137-4.54,8.262-3.467-18.828Z" transform="translate(-460.221 -302.34)" fill="#384152"/>
      <rect id="Rectángulo_300654" data-name="Rectángulo 300654" width="1.679" height="9.711" transform="translate(124.325 87.387) rotate(-37.15)" fill="#384152"/>
      <path id="Trazado_603294" data-name="Trazado 603294" d="M538.709,510.9H516.132a1.655,1.655,0,0,1-1.655-1.655V486.673a1.655,1.655,0,0,1,1.655-1.655h22.578a1.655,1.655,0,0,1,1.655,1.655V509.25a1.655,1.655,0,0,1-1.655,1.655" transform="translate(-409.375 -385.935)" fill="#e9e9e9"/>
      <path id="Trazado_603295" data-name="Trazado 603295" d="M529.848,546.59l5.03-9.069a1.654,1.654,0,0,1,2.781-.175l2.9,3.957a1.655,1.655,0,0,0,2.555.138,1.655,1.655,0,0,1,2.61.217l3.131,4.834a1.655,1.655,0,0,1-1.389,2.554H531.3a1.655,1.655,0,0,1-1.447-2.457" transform="translate(-421.438 -427.034)" fill="#2b6eb2"/>
      <path id="Trazado_603296" data-name="Trazado 603296" d="M579.259,512.386a1.979,1.979,0,1,1,1.979,1.979,1.979,1.979,0,0,1-1.979-1.979" transform="translate(-460.922 -406.137)" fill="#2b6eb2"/>
      <path id="Trazado_603297" data-name="Trazado 603297" d="M688.868,515.184,666.5,518.236a1.655,1.655,0,0,1-1.863-1.416l-3.051-22.371A1.654,1.654,0,0,1,663,492.587l22.371-3.051a1.654,1.654,0,0,1,1.863,1.416l3.051,22.371a1.655,1.655,0,0,1-1.416,1.863" transform="translate(-526.416 -389.517)" fill="#e9e9e9"/>
      <path id="Trazado_603298" data-name="Trazado 603298" d="M689.686,560.974l3.759-9.665a1.655,1.655,0,0,1,2.732-.55l3.409,3.529a1.655,1.655,0,0,0,2.551-.208,1.654,1.654,0,0,1,2.615-.137l3.755,4.367a1.654,1.654,0,0,1-1.031,2.718l-16.024,2.186a1.655,1.655,0,0,1-1.766-2.239" transform="translate(-548.699 -437.843)" fill="#2b6eb2"/>
      <path id="Trazado_603299" data-name="Trazado 603299" d="M729.4,522.873a1.979,1.979,0,1,1,2.228,1.693,1.979,1.979,0,0,1-2.228-1.693" transform="translate(-580.38 -414.269)" fill="#2b6eb2"/>
      <path id="Trazado_603300" data-name="Trazado 603300" d="M243.741,493.073h-1.42a.233.233,0,1,1,0-.467h1.41a.238.238,0,0,1,.238.233.229.229,0,0,1-.229.233m-2.83,0H239.5a.233.233,0,1,1,0-.467h1.41a.233.233,0,0,1,0,.467m-2.82,0h-1.41a.233.233,0,1,1,0-.467h1.41a.233.233,0,0,1,0,.467m-2.82,0h-1.41a.233.233,0,0,1,0-.467h1.41a.233.233,0,0,1,0,.467m-2.82,0h-1.41a.233.233,0,0,1,0-.467h1.41a.233.233,0,0,1,0,.467m-2.82,0h-1.41a.233.233,0,0,1,0-.467h1.41a.233.233,0,1,1,0,.467m-2.82,0H225.4a.233.233,0,1,1,0-.467h1.41a.233.233,0,1,1,0,.467m-2.82,0h-1.41a.233.233,0,0,1,0-.467h1.41a.233.233,0,0,1,0,.467m-2.82,0h-1.41a.233.233,0,0,1,0-.467h1.41a.233.233,0,0,1,0,.467m-2.82,0h-1.41a.233.233,0,0,1,0-.467h1.41a.233.233,0,1,1,0,.467m-2.82,0h-1.41a.233.233,0,1,1,0-.467h1.41a.233.233,0,0,1,0,.467m-2.82,0H211.3a.233.233,0,1,1,0-.467h1.41a.233.233,0,1,1,0,.467m-2.82,0h-1.41a.233.233,0,1,1,0-.467h1.41a.233.233,0,0,1,0,.467m-2.82,0h-1.41a.233.233,0,1,1,0-.467h1.41a.233.233,0,0,1,0,.467m-2.82,0h-1.41a.233.233,0,1,1,0-.467h1.41a.233.233,0,1,1,0,.467m-2.82,0h-1.41a.233.233,0,0,1,0-.467h1.41a.233.233,0,1,1,0,.467m-2.82,0H197.2a.233.233,0,0,1,0-.467h1.41a.233.233,0,0,1,0,.467m-2.82,0h-1.257q-.085,0-.168-.005a.233.233,0,0,1,.03-.466q.069,0,.138,0h1.257a.233.233,0,0,1,0,.467m49.277-.41a.233.233,0,0,1-.131-.426,2.147,2.147,0,0,0,.788-.975.233.233,0,1,1,.433.174,2.611,2.611,0,0,1-.958,1.187.231.231,0,0,1-.131.04m-51.986-.084a.232.232,0,0,1-.142-.049,2.606,2.606,0,0,1-.885-1.242.233.233,0,1,1,.443-.148,2.143,2.143,0,0,0,.727,1.021.233.233,0,0,1-.143.418m53.031-2.384a.234.234,0,0,1-.234-.234v-1.41a.233.233,0,1,1,.467,0v1.41a.234.234,0,0,1-.233.234m-53.959-.143a.234.234,0,0,1-.233-.234v-1.41a.233.233,0,1,1,.467,0v1.41a.233.233,0,0,1-.233.234m53.959-2.677a.234.234,0,0,1-.234-.233v-1.41a.233.233,0,1,1,.467,0v1.41a.233.233,0,0,1-.233.233m-53.959-.143a.233.233,0,0,1-.233-.233v-1.41a.233.233,0,1,1,.467,0V487a.233.233,0,0,1-.233.233m53.959-2.677a.233.233,0,0,1-.234-.233v-1.41a.233.233,0,0,1,.467,0v1.41a.233.233,0,0,1-.233.233m-53.959-.143a.233.233,0,0,1-.233-.233v-1.41a.233.233,0,0,1,.467,0v1.41a.233.233,0,0,1-.233.233m53.959-2.676a.234.234,0,0,1-.234-.234v-1.41a.233.233,0,0,1,.467,0v1.41a.234.234,0,0,1-.233.234m-53.959-.143a.234.234,0,0,1-.233-.233v-1.41a.233.233,0,0,1,.467,0v1.41a.233.233,0,0,1-.233.233m53.959-2.677a.234.234,0,0,1-.234-.233v-1.41a.233.233,0,1,1,.467,0v1.41a.234.234,0,0,1-.233.233m-53.959-.143a.234.234,0,0,1-.233-.233v-1.41a.233.233,0,0,1,.467,0v1.41a.233.233,0,0,1-.233.233m53.959-2.677a.234.234,0,0,1-.234-.234v-1.41a.233.233,0,1,1,.467,0v1.41a.234.234,0,0,1-.233.234m-53.959-.143a.234.234,0,0,1-.233-.233v-1.41a.233.233,0,0,1,.467,0v1.41a.233.233,0,0,1-.233.233m53.959-2.677a.234.234,0,0,1-.234-.233v-1.41a.233.233,0,0,1,.467,0v1.41a.233.233,0,0,1-.233.233m-53.959-.143a.234.234,0,0,1-.233-.233v-1.41a.233.233,0,0,1,.467,0v1.41a.233.233,0,0,1-.233.233m53.959-2.677a.234.234,0,0,1-.234-.233v-1.41a.233.233,0,0,1,.467,0v1.41a.233.233,0,0,1-.233.233m-53.959-.143a.234.234,0,0,1-.233-.233v-1.41a.233.233,0,0,1,.467,0v1.41a.233.233,0,0,1-.233.233m53.959-2.677a.234.234,0,0,1-.234-.233v-1.41a.233.233,0,1,1,.467,0v1.41a.234.234,0,0,1-.233.233m-53.959-.143a.234.234,0,0,1-.233-.233v-1.41a.233.233,0,1,1,.467,0v1.41a.233.233,0,0,1-.233.233m53.959-2.677a.233.233,0,0,1-.234-.233v-.637a2.149,2.149,0,0,0-.112-.685.233.233,0,1,1,.442-.149,2.609,2.609,0,0,1,.136.834v.637a.233.233,0,0,1-.233.233m-53.959-.143a.234.234,0,0,1-.233-.233v-.493a2.6,2.6,0,0,1,.191-.982.233.233,0,0,1,.433.176,2.135,2.135,0,0,0-.157.807v.493a.233.233,0,0,1-.233.233m53.027-2.383a.233.233,0,0,1-.142-.048,2.132,2.132,0,0,0-1.173-.439.233.233,0,0,1,.028-.466,2.6,2.6,0,0,1,1.429.535.233.233,0,0,1-.142.419M193.2,462.2a.233.233,0,0,1-.131-.427,2.6,2.6,0,0,1,1.458-.448h0a.233.233,0,0,1,0,.467,2.136,2.136,0,0,0-1.2.367.233.233,0,0,1-.131.04m49.268-.408h-1.41a.233.233,0,1,1,0-.467h1.41a.233.233,0,0,1,0,.467m-2.82,0h-1.41a.233.233,0,0,1,0-.467h1.41a.233.233,0,0,1,0,.467m-2.82,0h-1.41a.233.233,0,1,1,0-.467h1.41a.233.233,0,0,1,0,.467m-2.82,0H232.6a.233.233,0,1,1,0-.467h1.41a.233.233,0,0,1,0,.467m-2.82,0h-1.41a.233.233,0,1,1,0-.467h1.41a.233.233,0,0,1,0,.467m-2.82,0h-1.41a.233.233,0,1,1,0-.467h1.41a.233.233,0,0,1,0,.467m-2.82,0h-1.41a.233.233,0,1,1,0-.467h1.41a.233.233,0,1,1,0,.467m-2.82,0h-1.41a.233.233,0,0,1,0-.467h1.41a.233.233,0,1,1,0,.467m-2.82,0H218.5a.233.233,0,0,1,0-.467h1.41a.233.233,0,1,1,0,.467m-2.82,0h-1.41a.233.233,0,0,1,0-.467h1.41a.233.233,0,1,1,0,.467m-2.82,0h-1.41a.233.233,0,0,1,0-.467h1.41a.233.233,0,0,1,0,.467m-2.82,0h-1.41a.233.233,0,0,1,0-.467h1.41a.233.233,0,1,1,0,.467m-2.82,0h-1.41a.233.233,0,1,1,0-.467h1.41a.233.233,0,0,1,0,.467m-2.82,0H204.4a.233.233,0,0,1,0-.467h1.41a.233.233,0,0,1,0,.467m-2.82,0h-1.41a.233.233,0,1,1,0-.467h1.41a.233.233,0,1,1,0,.467m-2.82,0h-1.41a.233.233,0,1,1,0-.467h1.41a.233.233,0,0,1,0,.467m-2.82,0h-1.41a.233.233,0,1,1,0-.467h1.41a.233.233,0,0,1,0,.467" transform="translate(-152.713 -367.086)" fill="#151f2c"/>
      <path id="Trazado_603301" data-name="Trazado 603301" d="M741.632,776.05h-1.258a.207.207,0,0,1,0-.413h1.249a.211.211,0,0,1,.211.207.2.2,0,0,1-.2.207m-2.507,0h-1.249a.207.207,0,0,1,0-.413h1.249a.207.207,0,0,1,0,.413m-2.5,0h-1.249a.207.207,0,0,1,0-.413h1.249a.207.207,0,0,1,0,.413m-2.5,0h-1.249a.207.207,0,0,1,0-.413h1.249a.207.207,0,0,1,0,.413m-2.5,0h-1.249a.207.207,0,1,1,0-.413h1.249a.207.207,0,0,1,0,.413m-2.5,0h-1.249a.207.207,0,1,1,0-.413h1.249a.207.207,0,0,1,0,.413m-2.5,0h-1.249a.207.207,0,0,1,0-.413h1.249a.207.207,0,0,1,0,.413m-2.5,0h-1.249a.207.207,0,1,1,0-.413h1.249a.207.207,0,0,1,0,.413m-2.5,0h-1.249a.207.207,0,1,1,0-.413h1.249a.207.207,0,0,1,0,.413m-2.5,0H717.88a.207.207,0,0,1,.02-.413h1.239a.207.207,0,0,1,0,.413m23.3-.791h-.007a.207.207,0,0,1-.2-.214V773.8a.207.207,0,0,1,.414,0v1.256a.207.207,0,0,1-.207.2m-25.324-.033a.207.207,0,0,1-.207-.207V773.77a.207.207,0,0,1,.413,0v1.249a.207.207,0,0,1-.207.207m25.325-2.465a.207.207,0,0,1-.207-.207v-1.249a.207.207,0,0,1,.414,0v1.249a.207.207,0,0,1-.207.207m-25.325-.033a.207.207,0,0,1-.207-.207v-1.249a.207.207,0,0,1,.413,0v1.249a.207.207,0,0,1-.207.207m25.325-2.465a.207.207,0,0,1-.207-.207v-1.249a.207.207,0,0,1,.414,0v1.249a.207.207,0,0,1-.207.207m-25.325-.033a.207.207,0,0,1-.207-.207V768.8c0-.013,0-.026,0-.039a.2.2,0,0,1,.215-.2.207.207,0,0,1,.2.215v1.241a.207.207,0,0,1-.207.207m24.545-2.035h-1.249a.207.207,0,0,1,0-.414h1.258a.207.207,0,0,1-.009.413m-2.5,0h-1.249a.207.207,0,0,1,0-.414h1.249a.207.207,0,0,1,0,.414m-2.5,0h-1.249a.207.207,0,0,1,0-.414h1.249a.207.207,0,0,1,0,.414m-2.5,0h-1.249a.207.207,0,0,1,0-.414h1.249a.207.207,0,0,1,0,.414m-2.5,0h-1.249a.207.207,0,0,1,0-.414h1.249a.207.207,0,0,1,0,.414m-2.5,0h-1.249a.207.207,0,0,1,0-.414h1.249a.207.207,0,0,1,0,.414m-2.5,0h-1.249a.207.207,0,1,1,0-.414h1.249a.207.207,0,0,1,0,.414m-2.5,0h-1.249a.207.207,0,1,1,0-.414h1.249a.207.207,0,0,1,0,.414m-2.5,0h-1.249a.207.207,0,1,1,0-.414h1.249a.207.207,0,0,1,0,.414m-2.5,0h-1.244a.209.209,0,0,1-.209-.207.2.2,0,0,1,.2-.207h1.249a.207.207,0,0,1,0,.414" transform="translate(-570.452 -610.931)" fill="#151f2c"/>
      <path id="Trazado_603302" data-name="Trazado 603302" d="M322.724,368.982h-1.391a.233.233,0,0,1,0-.467h1.382a.237.237,0,0,1,.238.233.23.23,0,0,1-.229.233m-2.773,0h-1.382a.233.233,0,1,1,0-.467h1.382a.233.233,0,0,1,0,.467m-2.764,0H315.8a.233.233,0,0,1,0-.467h1.382a.233.233,0,0,1,0,.467m-2.764,0H313.04a.233.233,0,0,1,0-.467h1.382a.233.233,0,1,1,0,.467m-2.764,0h-1.382a.233.233,0,0,1,0-.467h1.382a.233.233,0,0,1,0,.467m-2.764,0h-1.382a.233.233,0,0,1,0-.467h1.382a.233.233,0,1,1,0,.467m-2.764,0h-1.382a.233.233,0,1,1,0-.467h1.382a.233.233,0,1,1,0,.467m-2.738-.149a.233.233,0,0,1-.115-.03,1.386,1.386,0,0,1-.7-1.2v-.169a.234.234,0,1,1,.467,0v.17a.917.917,0,0,0,.464.8.233.233,0,0,1-.115.437m20.4-.6a.233.233,0,0,1-.218-.316.909.909,0,0,0,.058-.322v-.969a.233.233,0,0,1,.467,0v.969a1.38,1.38,0,0,1-.088.487.233.233,0,0,1-.219.151m-20.982-1.956a.234.234,0,0,1-.234-.233v-1.382a.234.234,0,0,1,.467,0v1.382a.234.234,0,0,1-.233.233m21.055-.8a.233.233,0,0,1-.233-.234v-1.382a.233.233,0,1,1,.467,0v1.382a.234.234,0,0,1-.234.234m-21.055-1.965a.234.234,0,0,1-.234-.234V361.9a.234.234,0,1,1,.467,0v1.382a.234.234,0,0,1-.233.234m21.055-.8a.233.233,0,0,1-.233-.233V361.1a.233.233,0,0,1,.467,0v1.382a.233.233,0,0,1-.234.233m-21.055-1.965a.234.234,0,0,1-.234-.233v-1.382a.234.234,0,0,1,.467,0v1.382a.234.234,0,0,1-.233.233m21.055-.8a.233.233,0,0,1-.233-.234v-1.382a.233.233,0,0,1,.467,0v1.382a.234.234,0,0,1-.234.234m-21.055-1.965a.234.234,0,0,1-.234-.233v-1.382a.234.234,0,0,1,.467,0v1.382a.234.234,0,0,1-.233.233m21.055-.8a.233.233,0,0,1-.233-.233v-1.382a.233.233,0,1,1,.467,0v1.382a.234.234,0,0,1-.234.233m-21.055-1.965a.234.234,0,0,1-.234-.234v-1.382a.234.234,0,0,1,.467,0v1.382a.234.234,0,0,1-.233.234m21.055-.8a.233.233,0,0,1-.233-.234V352.81a.233.233,0,0,1,.467,0v1.382a.234.234,0,0,1-.234.234m-21.055-1.965a.234.234,0,0,1-.234-.233v-.964a1.38,1.38,0,0,1,.09-.492.233.233,0,1,1,.436.166.908.908,0,0,0-.059.325v.964a.234.234,0,0,1-.233.233m21.055-.8a.233.233,0,0,1-.233-.233v-.165a.917.917,0,0,0-.467-.8.233.233,0,0,1,.229-.407,1.385,1.385,0,0,1,.705,1.205v.165a.234.234,0,0,1-.234.233m-1.943-1.313h-1.382a.233.233,0,1,1,0-.467h1.382a.233.233,0,0,1,0,.467m-2.764,0h-1.382a.233.233,0,1,1,0-.467h1.382a.233.233,0,0,1,0,.467m-2.764,0H315.01a.233.233,0,1,1,0-.467h1.382a.233.233,0,1,1,0,.467m-2.764,0h-1.382a.233.233,0,1,1,0-.467h1.382a.233.233,0,0,1,0,.467m-2.764,0h-1.382a.233.233,0,0,1,0-.467h1.382a.233.233,0,1,1,0,.467m-2.764,0h-1.382a.233.233,0,1,1,0-.467H308.1a.233.233,0,1,1,0,.467m-2.764,0h-1.378a.235.235,0,0,1-.236-.234.232.232,0,0,1,.231-.233h1.382a.233.233,0,1,1,0,.467" transform="translate(-240.762 -278.405)" fill="#151f2c"/>
      <path id="Trazado_603303" data-name="Trazado 603303" d="M741.632,832.479h-1.258a.207.207,0,0,1,0-.414h1.249a.211.211,0,0,1,.211.207.2.2,0,0,1-.2.207m-2.507,0h-1.249a.207.207,0,0,1,0-.414h1.249a.207.207,0,0,1,0,.414m-2.5,0h-1.249a.207.207,0,0,1,0-.414h1.249a.207.207,0,0,1,0,.414m-2.5,0h-1.249a.207.207,0,0,1,0-.414h1.249a.207.207,0,0,1,0,.414m-2.5,0h-1.249a.207.207,0,1,1,0-.414h1.249a.207.207,0,0,1,0,.414m-2.5,0h-1.249a.207.207,0,1,1,0-.414h1.249a.207.207,0,0,1,0,.414m-2.5,0h-1.249a.207.207,0,0,1,0-.414h1.249a.207.207,0,0,1,0,.414m-2.5,0h-1.249a.207.207,0,1,1,0-.414h1.249a.207.207,0,0,1,0,.414m-2.5,0h-1.249a.207.207,0,1,1,0-.414h1.249a.207.207,0,0,1,0,.414m-2.5,0H717.88a.207.207,0,0,1-.2-.217.2.2,0,0,1,.217-.2h1.239a.207.207,0,0,1,0,.414m23.3-.791h-.007a.207.207,0,0,1-.2-.213v-1.242a.207.207,0,1,1,.414,0v1.256a.207.207,0,0,1-.207.2m-25.324-.033a.207.207,0,0,1-.207-.207V830.2a.207.207,0,0,1,.413,0v1.249a.207.207,0,0,1-.207.207m25.325-2.465a.207.207,0,0,1-.207-.207v-1.249a.207.207,0,1,1,.414,0v1.249a.207.207,0,0,1-.207.207m-25.325-.034a.207.207,0,0,1-.207-.207V827.7a.207.207,0,0,1,.413,0v1.249a.207.207,0,0,1-.207.207m25.325-2.465a.207.207,0,0,1-.207-.207v-1.249a.207.207,0,0,1,.414,0v1.249a.207.207,0,0,1-.207.207m-25.325-.033a.207.207,0,0,1-.207-.207v-1.218c0-.013,0-.026,0-.039a.2.2,0,0,1,.215-.2.207.207,0,0,1,.2.215v1.241a.207.207,0,0,1-.207.207m24.545-2.035h-1.249a.207.207,0,0,1,0-.413h1.258a.207.207,0,0,1-.009.413m-2.5,0h-1.249a.207.207,0,0,1,0-.413h1.249a.207.207,0,0,1,0,.413m-2.5,0h-1.249a.207.207,0,0,1,0-.413h1.249a.207.207,0,0,1,0,.413m-2.5,0h-1.249a.207.207,0,0,1,0-.413h1.249a.207.207,0,0,1,0,.413m-2.5,0h-1.249a.207.207,0,0,1,0-.413h1.249a.207.207,0,0,1,0,.413m-2.5,0h-1.249a.207.207,0,0,1,0-.413h1.249a.207.207,0,0,1,0,.413m-2.5,0h-1.249a.207.207,0,1,1,0-.413h1.249a.207.207,0,0,1,0,.413m-2.5,0h-1.249a.207.207,0,1,1,0-.413h1.249a.207.207,0,0,1,0,.413m-2.5,0h-1.249a.207.207,0,1,1,0-.413h1.249a.207.207,0,0,1,0,.413m-2.5,0h-1.244a.209.209,0,0,1-.209-.207.2.2,0,0,1,.2-.207h1.249a.207.207,0,0,1,0,.413" transform="translate(-570.452 -655.833)" fill="#151f2c"/>
      <path id="Trazado_603304" data-name="Trazado 603304" d="M197.815,698.747h-1.247a.207.207,0,1,1,0-.414h1.238a.21.21,0,0,1,.211.207.2.2,0,0,1-.2.207m-2.485,0h-1.238a.207.207,0,1,1,0-.414h1.238a.207.207,0,1,1,0,.414m-2.477,0h-1.238a.207.207,0,1,1,0-.414h1.238a.207.207,0,1,1,0,.414m-2.477,0h-1.238a.207.207,0,0,1,0-.414h1.238a.207.207,0,1,1,0,.414m-2.476,0h-1.238a.207.207,0,0,1,0-.414H187.9a.207.207,0,0,1,0,.414m-2.477,0h-1.238a.207.207,0,0,1,0-.414h1.238a.207.207,0,0,1,0,.414m-2.477,0h-1.238a.207.207,0,1,1,0-.414h1.238a.207.207,0,1,1,0,.414m-2.477,0h-1.238a.207.207,0,0,1,0-.414h1.238a.207.207,0,1,1,0,.414m-2.476,0h-1.238a.207.207,0,0,1,0-.414h1.238a.207.207,0,1,1,0,.414m-2.477,0h-1.238a.207.207,0,0,1,0-.414h1.238a.207.207,0,0,1,0,.414m-2.477,0H171.8a.207.207,0,0,1,0-.414h1.238a.207.207,0,0,1,0,.414m-2.477,0h-1.238a.207.207,0,1,1,0-.414h1.238a.207.207,0,0,1,0,.414m-2.477,0h-1.238a.207.207,0,0,1,0-.414h1.238a.207.207,0,1,1,0,.414m-2.476,0h-1.238a.207.207,0,0,1,0-.414h1.238a.207.207,0,0,1,0,.414m-2.477,0H161.9a.207.207,0,0,1,0-.414h1.238a.207.207,0,0,1,0,.414m-2.477,0h-.989a2.335,2.335,0,0,1-.273-.016.207.207,0,1,1,.049-.411,1.957,1.957,0,0,0,.225.013h.989a.207.207,0,1,1,0,.414m38.324-.357a.207.207,0,0,1-.116-.379,1.9,1.9,0,0,0,.7-.851.207.207,0,0,1,.382.159,2.314,2.314,0,0,1-.85,1.036.2.2,0,0,1-.115.035m-40.68-.146a.206.206,0,0,1-.134-.049,2.311,2.311,0,0,1-.726-1.126.207.207,0,0,1,.4-.114,1.9,1.9,0,0,0,.6.925.207.207,0,0,1-.134.364m41.614-2.015a.207.207,0,0,1-.207-.207v-1.238a.207.207,0,0,1,.414,0v1.238a.207.207,0,0,1-.207.207m-42.356-.241a.207.207,0,0,1-.207-.207v-1.238a.207.207,0,1,1,.413,0v1.238a.207.207,0,0,1-.207.207m42.356-2.235a.207.207,0,0,1-.207-.207v-1.238a.207.207,0,0,1,.414,0v1.238a.207.207,0,0,1-.207.207m-42.356-.241a.207.207,0,0,1-.207-.207v-1.238a.207.207,0,0,1,.413,0V693.3a.207.207,0,0,1-.207.207m42.356-2.235a.207.207,0,0,1-.207-.207v-1.238a.207.207,0,0,1,.414,0v1.238a.207.207,0,0,1-.207.207m-42.356-.242a.207.207,0,0,1-.207-.207V689.59a.207.207,0,0,1,.413,0v1.238a.207.207,0,0,1-.207.207m42.356-2.235a.207.207,0,0,1-.207-.207v-1.238a.207.207,0,0,1,.414,0v1.238a.207.207,0,0,1-.207.207m-42.356-.241a.207.207,0,0,1-.207-.207v-1.238a.207.207,0,1,1,.413,0v1.238a.207.207,0,0,1-.207.207m42.356-2.235a.207.207,0,0,1-.207-.207v-1.238a.207.207,0,0,1,.414,0v1.238a.207.207,0,0,1-.207.207m-42.356-.241a.207.207,0,0,1-.207-.207v-1.238a.207.207,0,0,1,.413,0v1.238a.207.207,0,0,1-.207.207m42.356-2.235a.207.207,0,0,1-.207-.207V682.4a.207.207,0,0,1,.414,0v1.238a.207.207,0,0,1-.207.207m-42.356-.241a.207.207,0,0,1-.207-.207V682.16a.207.207,0,1,1,.413,0V683.4a.207.207,0,0,1-.207.207m42.356-2.235a.207.207,0,0,1-.207-.207v-1.238a.207.207,0,0,1,.414,0v1.238a.207.207,0,0,1-.207.207m-42.356-.241a.207.207,0,0,1-.207-.207v-1.238a.207.207,0,0,1,.413,0v1.238a.207.207,0,0,1-.207.207m42.356-2.235a.207.207,0,0,1-.207-.207v-1.238a.207.207,0,0,1,.414,0v1.238a.207.207,0,0,1-.207.207m-42.356-.241a.207.207,0,0,1-.207-.207v-1.238a.207.207,0,0,1,.413,0v1.238a.207.207,0,0,1-.207.207m42.356-2.235a.207.207,0,0,1-.207-.207v-1.238a.207.207,0,0,1,.414,0v1.238a.207.207,0,0,1-.207.207m-42.356-.241a.207.207,0,0,1-.207-.207v-1.238a.207.207,0,0,1,.413,0v1.238a.207.207,0,0,1-.207.207m42.356-2.235a.207.207,0,0,1-.207-.207V672.5a.207.207,0,0,1,.414,0v1.238a.207.207,0,0,1-.207.207M157.56,673.7a.207.207,0,0,1-.207-.207v-1.238a.207.207,0,0,1,.413,0v1.238a.207.207,0,0,1-.207.207m42.356-2.235a.207.207,0,0,1-.207-.207v-1.238a.207.207,0,0,1,.414,0v1.238a.207.207,0,0,1-.207.207m-42.356-.241a.207.207,0,0,1-.207-.207v-1.238a.207.207,0,0,1,.413,0v1.238a.207.207,0,0,1-.207.207m42.274-2.227a.207.207,0,0,1-.2-.15,1.9,1.9,0,0,0-.6-.924.207.207,0,1,1,.268-.315,2.31,2.31,0,0,1,.729,1.125.207.207,0,0,1-.2.264m-42.112-.227a.207.207,0,0,1-.191-.287,2.314,2.314,0,0,1,.852-1.034.207.207,0,0,1,.23.344,1.9,1.9,0,0,0-.7.85.207.207,0,0,1-.191.127m40.33-1.283h-.024a1.952,1.952,0,0,0-.221-.013h-.993a.207.207,0,1,1,0-.413h.993a2.359,2.359,0,0,1,.268.015.207.207,0,0,1-.023.412m-2.476-.014h-1.238a.207.207,0,1,1,0-.413h1.238a.207.207,0,0,1,0,.413m-2.477,0h-1.238a.207.207,0,1,1,0-.413H193.1a.207.207,0,1,1,0,.413m-2.477,0h-1.238a.207.207,0,1,1,0-.413h1.238a.207.207,0,1,1,0,.413m-2.476,0h-1.238a.207.207,0,1,1,0-.413h1.238a.207.207,0,1,1,0,.413m-2.477,0h-1.238a.207.207,0,1,1,0-.413h1.238a.207.207,0,1,1,0,.413m-2.477,0h-1.238a.207.207,0,1,1,0-.413h1.238a.207.207,0,1,1,0,.413m-2.477,0h-1.238a.207.207,0,1,1,0-.413h1.238a.207.207,0,1,1,0,.413m-2.477,0H177a.207.207,0,1,1,0-.413h1.238a.207.207,0,1,1,0,.413m-2.476,0h-1.238a.207.207,0,1,1,0-.413h1.238a.207.207,0,1,1,0,.413m-2.477,0h-1.238a.207.207,0,1,1,0-.413h1.238a.207.207,0,1,1,0,.413m-2.477,0h-1.238a.207.207,0,1,1,0-.413h1.238a.207.207,0,1,1,0,.413m-2.477,0h-1.238a.207.207,0,1,1,0-.413h1.238a.207.207,0,1,1,0,.413m-2.477,0h-1.238a.207.207,0,1,1,0-.413h1.238a.207.207,0,1,1,0,.413m-2.476,0h-1.238a.207.207,0,1,1,0-.413h1.238a.207.207,0,1,1,0,.413m-2.477,0h-1.234a.209.209,0,0,1-.209-.207.2.2,0,0,1,.2-.207H160.9a.207.207,0,1,1,0,.413" transform="translate(-125.207 -530.785)" fill="#151f2c"/>
      <path id="Trazado_603305" data-name="Trazado 603305" d="M211.777,514.567H161.729a1.956,1.956,0,0,1-1.956-1.956V485.246a1.956,1.956,0,0,1,1.956-1.956h50.048a1.956,1.956,0,0,1,1.956,1.956v27.365a1.956,1.956,0,0,1-1.956,1.956" transform="translate(-127.133 -384.56)" fill="#e9e9e9"/>
      <path id="Trazado_603306" data-name="Trazado 603306" d="M262.033,525.668v12.408a.975.975,0,0,0,1.511.815l9.43-6.2a.975.975,0,0,0,0-1.629l-9.43-6.2a.975.975,0,0,0-1.511.814" transform="translate(-208.502 -417.504)" fill="#43a1f6"/>
      <path id="Trazado_603307" data-name="Trazado 603307" d="M173.5,618.807a.968.968,0,1,1,.969.968.969.969,0,0,1-.969-.968" transform="translate(-138.058 -491.621)" fill="#aec3ff"/>
      <path id="Trazado_603308" data-name="Trazado 603308" d="M222.305,621.824H178.5a.261.261,0,0,1,0-.522h43.8a.261.261,0,0,1,0,.522" transform="translate(-141.831 -494.377)" fill="#aec3ff"/>
      <rect id="Rectángulo_300655" data-name="Rectángulo 300655" width="27.916" height="41.672" transform="translate(83.102 136.479)" fill="#e9e9e9"/>
      <path id="Trazado_603309" data-name="Trazado 603309" d="M486.74,704.292h-.382v-1.717a1.118,1.118,0,0,1,1.117-1.117H492.2a.736.736,0,0,0,.711-.548l.747-2.84a.735.735,0,0,0-.711-.922h-6.163v-.382h6.163a1.117,1.117,0,0,1,1.08,1.4l-.747,2.84a1.118,1.118,0,0,1-1.08.833h-4.723a.736.736,0,0,0-.735.735Z" transform="translate(-387 -554.425)" fill="#384152"/>
      <path id="Trazado_603310" data-name="Trazado 603310" d="M473.516,693.038H465.4a1.24,1.24,0,0,1-1.24-1.24v-.742a1.24,1.24,0,0,1,1.24-1.24h8.116a1.24,1.24,0,0,1,1.24,1.24v.742a1.24,1.24,0,0,1-1.24,1.24" transform="translate(-369.337 -548.895)" fill="#43a1f6"/>
      <path id="Trazado_603311" data-name="Trazado 603311" d="M483.2,735.529h0a1.05,1.05,0,0,1-1.05-1.05v-6.364a1.05,1.05,0,0,1,2.1,0v6.364a1.05,1.05,0,0,1-1.05,1.05" transform="translate(-383.653 -578.533)" fill="#384152"/>
      <path id="Trazado_603312" data-name="Trazado 603312" d="M676.6,835.7a14.459,14.459,0,0,1,.661,2.734,9.908,9.908,0,0,1-.84,2.693c-.324.445-.484-1.813-.74-2.152s-.053.85-.233.96-.558-.875-.72-1.223.4-1.63.4-2.523,1.475-.489,1.475-.489" transform="translate(-536.864 -664.901)" fill="#ee805f"/>
      <path id="Trazado_603313" data-name="Trazado 603313" d="M600.794,736.179a3.159,3.159,0,0,1,4.76-2.974l.134.083c3.276,2.109,10.346,11.949,10.832,12.935s1.923,8.828,1.923,8.828-1.775.649-2.6-.024c0,0-2.878-7.438-3.3-7.81s-11.512-6.592-11.606-8.924c-.025-.617-.075-1.358-.134-2.115" transform="translate(-478.05 -583.057)" fill="#151f2c"/>
      <path id="Trazado_603314" data-name="Trazado 603314" d="M679.032,1029.252s1.321,1.206,1.063,2.062-1.45,1.428-1.611,2.475-.806,1.618-1.385,1.618h-2.765s-.427-.737.6-.959,1.42-1.453,1.355-2.594a20.112,20.112,0,0,1,.1-2.665l2.191-.508Z" transform="translate(-536.505 -818.533)" fill="#2a4a7c"/>
      <path id="Trazado_603315" data-name="Trazado 603315" d="M588.1,1042.6s.237,2.744-.343,3.029l-7.422-.015s0-.857,1.192-1.047,3.286-.889,3.641-2.443,2.932.476,2.932.476" transform="translate(-461.776 -828.766)" fill="#2a4a7c"/>
      <path id="Trazado_603316" data-name="Trazado 603316" d="M587.668,854.434s.392,4.809.852,10.59c.625,7.853,1.377,17.5,1.452,19.326.128,3.173.645,8.249.645,8.249a4.1,4.1,0,0,0,3.673.7,81.9,81.9,0,0,0,2.806-14.912c.01-.126.019-.252.029-.379.58-7.8,1.482-24.238,1.482-24.238Z" transform="translate(-467.613 -679.353)" fill="#43a1f6"/>
      <path id="Trazado_603317" data-name="Trazado 603317" d="M587.668,854.434s.392,4.809.852,10.59l8.576,13.361c.01-.126.019-.252.029-.379.58-7.8,1.482-24.238,1.482-24.238Z" transform="translate(-467.613 -679.353)" fill="#2b6eb2"/>
      <path id="Trazado_603318" data-name="Trazado 603318" d="M596.419,847.592s7.056,17.417,11.7,25.6,6.09,10.469,6.09,10.469,2.658-1.047,2.9-1.761c0,0-1.774-15.8-4.882-19.654-1.755-2.176-3.818-8.708-3.915-10.993s-.628-6.805-.628-6.805Z" transform="translate(-474.577 -671.939)" fill="#43a1f6"/>
      <path id="Trazado_603319" data-name="Trazado 603319" d="M597,709.591s-4.728,2.4-7.5,1.6a6.5,6.5,0,0,1,1.833-1.527c-.106-.551-.19-1.028-.24-1.434a13.305,13.305,0,0,1-.146-1.467l1.813-1.485,1.719-1.421A7.039,7.039,0,0,0,597,709.591" transform="translate(-469.077 -560.066)" fill="#ee805f"/>
      <path id="Trazado_603320" data-name="Trazado 603320" d="M592.412,750.532a19.475,19.475,0,0,1-5.831,2.512c-2.494.592-5.56.417-6.586.573a.426.426,0,0,1-.3-.076c-.081-.041-.533-3.084-.987-6.925-.02-.154-.041-.311-.05-.467l-.007-.052c-.177-1.5-.331-3.078-.465-4.659-.109-1.23-.2-2.446-.262-3.589-.079-1.429-.111-2.743-.079-3.823.014-.494.043-.938.087-1.323a9.412,9.412,0,0,1,2.348-5.04l.836-.951a4.583,4.583,0,0,0,2.892-.738c1.021-.672,2.123-1.395,2.331-1.274,1.565.856,2.839,3.074,3.748,6a33.448,33.448,0,0,1,1.178,5.627c.082.629.152,1.274.206,1.916.011.119.019.238.029.355.123,1.756.323,3.4.546,4.872.3,1.982.639,3.643.88,4.812.121.6.213,1.056.267,1.385.049.288-.527.7-.784.86" transform="translate(-459.79 -576.643)" fill="#384152"/>
      <path id="Trazado_603321" data-name="Trazado 603321" d="M600.185,710.88a6.328,6.328,0,0,1-3.447,2.883,13.3,13.3,0,0,1-.146-1.467l1.813-1.485Z" transform="translate(-474.714 -565.601)" fill="#de6b4d"/>
      <path id="Trazado_603322" data-name="Trazado 603322" d="M588.75,688.812s4.568.655,4.94-2.153,1.212-4.615-1.689-5.151-3.611.462-3.966,1.37-.464,5.692.715,5.934" transform="translate(-467.713 -542.164)" fill="#ee805f"/>
      <path id="Trazado_603323" data-name="Trazado 603323" d="M589.23,674.4c.04-.048.135-.088.347-.1a.86.86,0,0,0-.4-.1,1.068,1.068,0,0,0-.728-.93.637.637,0,0,1,.318.453c-.6-.592-1.869-1.007-5.353-.662-4.592.454-3.018,3.369-2.415,3.708s2.082-.653,3.193-.587,1.354,1.665,1.735,1.877.225-.173.73-.414.57.6.434,1.154.578,1.261.578,1.261l.692-.775c.692-.776,1.294-4.014.959-4.7l-.089-.182" transform="translate(-461.707 -535.46)" fill="#151f2c"/>
      <path id="Trazado_603324" data-name="Trazado 603324" d="M585.861,770.653a20.668,20.668,0,0,1-7.935,3.573c-.079-1.429-.111-2.743-.079-3.823Z" transform="translate(-459.789 -613.019)" fill="#151f2c"/>
      <path id="Trazado_603325" data-name="Trazado 603325" d="M484.9,743.343c-.061-.065-.846-2.691-2.2-2.5-.886.125-2.335.638-1.95,1.805.151.459,2.851,2.04,2.851,2.04Z" transform="translate(-382.487 -589.49)" fill="#ee805f"/>
      <path id="Trazado_603326" data-name="Trazado 603326" d="M519.72,738.814a3.159,3.159,0,0,1-.331,5.6l-.145.06c-3.616,1.451-15.733,1.518-16.818,1.344s-8.312-3.543-8.312-3.543.5-1.823,1.528-2.109c0,0,7.731,1.959,8.28,1.827s12.04-5.57,14-4.3c.517.336,1.15.725,1.8,1.115" transform="translate(-393.172 -586.842)" fill="#384152"/>
      <path id="Trazado_603327" data-name="Trazado 603327" d="M978.007,316.209h-9.645a.737.737,0,0,1,0-1.474h9.645a.737.737,0,1,1,0,1.474" transform="translate(-769.949 -250.439)" fill="#ebf3fa"/>
      <path id="Trazado_603328" data-name="Trazado 603328" d="M978.007,330.306h-9.645a.737.737,0,0,1,0-1.474h9.645a.737.737,0,1,1,0,1.474" transform="translate(-769.949 -261.656)" fill="#ebf3fa"/>
      <path id="Trazado_603329" data-name="Trazado 603329" d="M978.007,344.766h-9.645a.737.737,0,0,1,0-1.474h9.645a.737.737,0,1,1,0,1.474" transform="translate(-769.949 -273.162)" fill="#ebf3fa"/>
      <path id="Trazado_603330" data-name="Trazado 603330" d="M740.319,683.312H717.358a.977.977,0,1,1,0-1.955h22.962a.977.977,0,1,1,0,1.955" transform="translate(-570.031 -542.164)" fill="#ebf3fa"/>
      <path id="Trazado_603331" data-name="Trazado 603331" d="M190.9,354.923H167.936a.977.977,0,1,1,0-1.955H190.9a.977.977,0,0,1,0,1.955" transform="translate(-132.85 -280.861)" fill="#ebf3fa"/>
      <path id="Trazado_603332" data-name="Trazado 603332" d="M740.319,730.776H717.358a.977.977,0,1,1,0-1.955h22.962a.977.977,0,1,1,0,1.955" transform="translate(-570.031 -579.931)" fill="#ebf3fa"/>
      <path id="Trazado_603333" data-name="Trazado 603333" d="M722.788,707.044H695.326a.977.977,0,1,1,0-1.955h27.462a.977.977,0,1,1,0,1.955" transform="translate(-552.5 -561.048)" fill="#ebf3fa"/>
      <path id="Trazado_603334" data-name="Trazado 603334" d="M197.415,385.008H184.459a.746.746,0,0,1-.744-.744V383.8a.746.746,0,0,1,.744-.744h12.956a.746.746,0,0,1,.744.744v.466a.746.746,0,0,1-.744.744" transform="translate(-146.184 -304.8)" fill="#ebf3fa"/>
      <path id="Trazado_603335" data-name="Trazado 603335" d="M162.712,384.03a.977.977,0,1,1,.977.978.977.977,0,0,1-.977-.978" transform="translate(-129.472 -304.8)" fill="#ebf3fa"/>
      <path id="Trazado_603336" data-name="Trazado 603336" d="M199.874,404.049H184.521a.809.809,0,0,1-.806-.807V402.9a.809.809,0,0,1,.806-.807h15.353a.809.809,0,0,1,.807.807v.342a.809.809,0,0,1-.807.807" transform="translate(-146.184 -319.951)" fill="#ebf3fa"/>
      <path id="Trazado_603337" data-name="Trazado 603337" d="M162.712,403.071a.977.977,0,1,1,.977.977.977.977,0,0,1-.977-.977" transform="translate(-129.472 -319.951)" fill="#ebf3fa"/>
      <path id="Trazado_603338" data-name="Trazado 603338" d="M197.415,424.718H184.459a.746.746,0,0,1-.744-.744v-.466a.746.746,0,0,1,.744-.744h12.956a.746.746,0,0,1,.744.744v.466a.746.746,0,0,1-.744.744" transform="translate(-146.184 -336.398)" fill="#ebf3fa"/>
      <path id="Trazado_603339" data-name="Trazado 603339" d="M162.712,423.74a.977.977,0,1,1,.977.977.978.978,0,0,1-.977-.977" transform="translate(-129.472 -336.397)" fill="#ebf3fa"/>
      <path id="Trazado_603340" data-name="Trazado 603340" d="M350.861,376.608a3.493,3.493,0,0,1-.517.032,3.448,3.448,0,0,1-2.37-5.914h0a3.448,3.448,0,1,1,2.887,5.883m-2.49-5.476a2.88,2.88,0,1,0,4.073.047,2.884,2.884,0,0,0-4.073-.047" transform="translate(-276.062 -294.211)" fill="#151f2c"/>
      <rect id="Rectángulo_300656" data-name="Rectángulo 300656" width="4.706" height="0.568" transform="translate(68.495 84.278) rotate(-44.329)" fill="#151f2c"/>
      <path id="Trazado_603341" data-name="Trazado 603341" d="M329.966,408.235h0a.507.507,0,0,1,.008-.717l1.982-1.937a.507.507,0,1,1,.709.725l-1.982,1.937a.507.507,0,0,1-.717-.008" transform="translate(-262.442 -322.611)" fill="#151f2c"/>
      <path id="Trazado_603342" data-name="Trazado 603342" d="M1045.725,742.143h0a1.133,1.133,0,0,1-1.031-.71l-26.495-80.67a.531.531,0,0,1,.562-.719,1.132,1.132,0,0,1,1.031.71l26.495,80.67a.531.531,0,0,1-.562.719" transform="translate(-810.165 -525.205)" fill="#151f2c"/>
      <path id="Trazado_603343" data-name="Trazado 603343" d="M1150.248,741.538h0a1.133,1.133,0,0,1-1.031-.71l-26.495-80.67a.532.532,0,0,1,.562-.719,1.133,1.133,0,0,1,1.031.71l26.495,80.67a.531.531,0,0,1-.562.719" transform="translate(-893.334 -524.723)" fill="#151f2c"/>
      <path id="Trazado_603344" data-name="Trazado 603344" d="M1057.618,712.727l-21.442.124a1.073,1.073,0,0,1-.973-.67.5.5,0,0,1,.53-.679l21.442-.124a1.072,1.072,0,0,1,.973.67.5.5,0,0,1-.53.679" transform="translate(-823.696 -566.052)" fill="#151f2c"/>
      <path id="Trazado_603345" data-name="Trazado 603345" d="M1080.261,781.672l-21.442.124a1.073,1.073,0,0,1-.973-.67.5.5,0,0,1,.53-.679l21.442-.124a1.073,1.073,0,0,1,.973.67.5.5,0,0,1-.53.679" transform="translate(-841.714 -620.911)" fill="#151f2c"/>
      <path id="Trazado_603346" data-name="Trazado 603346" d="M1102.069,848.073l-21.442.124a1.073,1.073,0,0,1-.973-.67.5.5,0,0,1,.53-.679l21.442-.124a1.073,1.073,0,0,1,.973.67.5.5,0,0,1-.53.679" transform="translate(-859.066 -673.748)" fill="#151f2c"/>
      <path id="Trazado_603347" data-name="Trazado 603347" d="M1126.622,922.827l-21.442.124a1.073,1.073,0,0,1-.973-.671.5.5,0,0,1,.53-.679l21.442-.124a1.073,1.073,0,0,1,.973.67.5.5,0,0,1-.53.679" transform="translate(-878.603 -733.231)" fill="#151f2c"/>
      <path id="Trazado_603348" data-name="Trazado 603348" d="M1152.319,1001.07l-21.442.124a1.073,1.073,0,0,1-.973-.67.5.5,0,0,1,.53-.679l21.442-.124a1.073,1.073,0,0,1,.973.67.5.5,0,0,1-.53.679" transform="translate(-899.05 -795.489)" fill="#151f2c"/>
      <path id="Trazado_603349" data-name="Trazado 603349" d="M1011.025,473.4h0a.312.312,0,0,1-.365-.246l-.343-1.773a.311.311,0,0,1,.611-.118l.343,1.773a.312.312,0,0,1-.246.365" transform="translate(-803.915 -374.791)" fill="#151f2c"/>
      <rect id="Rectángulo_300657" data-name="Rectángulo 300657" width="0.214" height="2.61" transform="translate(205.965 93.258) rotate(-10.954)" fill="#151f2c"/>
      <path id="Trazado_603350" data-name="Trazado 603350" d="M998.217,372.239a8.237,8.237,0,0,0-.63-2.439,3.322,3.322,0,0,0-2.146-1.009c-.316.307.935,1.39.984,1.79s-.635.123-.306.9a6.082,6.082,0,0,0,1.192,1.511Z" transform="translate(-792.042 -293.441)" fill="#ee805f"/>
      <path id="Trazado_603351" data-name="Trazado 603351" d="M1002.945,382.993c.59-.463.715-.454.715-.454s5.452,4.723,5.983,5.144,8.72,2.8,8.72,2.8l1.3,6.657s-11.08-5.352-12.4-6.444c-2.188-1.8-4.949-6.856-4.949-6.856a2.089,2.089,0,0,1,.635-.843" transform="translate(-797.548 -304.391)" fill="#2b6eb2"/>
      <path id="Trazado_603352" data-name="Trazado 603352" d="M1056.006,694.2a8.277,8.277,0,0,1-.531,2.828l-6.078.035a.95.95,0,0,1,.908-.924,4.077,4.077,0,0,0,2.952-2.329c.677-1.476,2.748.39,2.748.39" transform="translate(-835.017 -551.618)" fill="#151f2c"/>
      <path id="Trazado_603353" data-name="Trazado 603353" d="M1112.271,692.724s.424,3.022-.152,3.075c-.077.007-2.449.045-3.477.062-1.208.02-3.194-.022-3.194-.022a.316.316,0,0,1-.286-.475,1.273,1.273,0,0,1,.913-.586,4.925,4.925,0,0,0,3.441-2.4c.651-1.488,2.754.341,2.754.341" transform="translate(-879.354 -550.473)" fill="#151f2c"/>
      <path id="Trazado_603354" data-name="Trazado 603354" d="M1066.277,522.14a119.911,119.911,0,0,0,6.533,16.182c4.844,10.269,5.053,15.218,5.053,15.218a4.252,4.252,0,0,0,1.706.156,4.589,4.589,0,0,0,1.8-.582s-.314-12.223-2.6-17.4-2.754-19.363-2.754-19.363Z" transform="translate(-848.448 -410.863)" fill="#151f2c"/>
      <path id="Trazado_603355" data-name="Trazado 603355" d="M1052.985,519.8a147.478,147.478,0,0,0,1.45,20.4c1.584,11.243.844,16.471.844,16.471a3.159,3.159,0,0,0,1.712.3,3.839,3.839,0,0,0,2.287-.631s2.267-11.247,1.617-16.874S1064,520.159,1064,520.159Z" transform="translate(-837.869 -413.613)" fill="#384152"/>
      <path id="Trazado_603356" data-name="Trazado 603356" d="M1072.6,397.281l-1.79,1.325-2.586-.544c.036-.236.206-1.213.362-2.1.01-.052.019-.1.028-.155.133-.753.248-1.4.248-1.4l2.416-1.2.9-.449c0,.016-.07.836-.079.956a7.735,7.735,0,0,0,.5,3.571" transform="translate(-849.998 -312.519)" fill="#ee805f"/>
      <path id="Trazado_603357" data-name="Trazado 603357" d="M1064.308,434.478c-.585,2.676-13.109,1.5-12.945-.132.006-.055.039-.811.084-1.83.095-2.2.24-5.65.258-5.919,0,0,0-.009,0-.014.225-2.275.442-4.5.456-5.953a20.65,20.65,0,0,1,.417-3.719c.213-1.08.474-2.06.7-2.824a3.121,3.121,0,0,1,1.83-2.006,2.692,2.692,0,0,1,.3-.106c1.474-.428,3.513-.957,4.066-.8,1.5.44,2.609,3.076,3.4,6.435,1.474,6.288,1.814,15.118,1.432,16.862" transform="translate(-836.579 -327.158)" fill="#43a1f6"/>
      <path id="Trazado_603358" data-name="Trazado 603358" d="M1073.328,395.5c-.531,1.015-2.507,1.893-3.332,2.216.01-.052.019-.1.028-.155.133-.753.248-1.4.248-1.4l2.416-1.2c.534-.008.859.127.64.544" transform="translate(-851.407 -314.267)" fill="#de6b4d"/>
      <path id="Trazado_603359" data-name="Trazado 603359" d="M1063.478,372.214s4.358,1.36,5.163-1.368,1.909-4.388-.839-5.372-3.6-.1-4.089.742-1.348,5.573-.235,6" transform="translate(-845.787 -290.468)" fill="#ee805f"/>
      <path id="Trazado_603360" data-name="Trazado 603360" d="M1065.993,360.155s.278,3.173.934,3.036,1.252-.24,1.155.717-1.006,2.061,1.017,2.23,4.93-5.047,4.375-6.035c-1.6-2.849-9.8-3.424-7.481.052" transform="translate(-847.895 -284.669)" fill="#151f2c"/>
      <path id="Trazado_603361" data-name="Trazado 603361" d="M1051.78,475.394c.095-2.2.24-5.65.258-5.919,0,0,0-.009,0-.014l7.4-4.424s.286,10.327-7.658,10.356" transform="translate(-836.912 -370.037)" fill="#2b6eb2"/>
      <path id="Trazado_603362" data-name="Trazado 603362" d="M1008.654,465.58a19.573,19.573,0,0,0-1.789-1.106,3.761,3.761,0,0,0-1.264-.111c-.043.074-.171.3-.008.376s.367.049.306.1-.676-.239-.818.074-.267,1.387.455,1.713a8.267,8.267,0,0,0,2.63.069c1.089.316.488-1.118.488-1.118" transform="translate(-799.667 -369.479)" fill="#ee805f"/>
      <path id="Trazado_603363" data-name="Trazado 603363" d="M1021.08,433.378s7.339,1.248,7.989.931c1.038-.505-.4-7.951-.4-7.951a2.141,2.141,0,0,1,1.909-2.085,4.743,4.743,0,0,1,3.365.937,3.868,3.868,0,0,1,1.311,2.837c-.426,3.306-1.088,10.031-3.3,11.062-2.853,1.33-11.106-3.687-11.106-3.687a1.443,1.443,0,0,1-.236-.962,2.243,2.243,0,0,1,.47-1.082" transform="translate(-812.107 -337.552)" fill="#43a1f6"/>
      <path id="Trazado_603364" data-name="Trazado 603364" d="M996.6,376.792s-.47-.934-.545-1.109.108-.138.288-.04.427.64.706.574c.221-.052-.45.574-.45.574" transform="translate(-792.555 -298.838)" fill="#ee805f"/>
    </g>
  </g>
</svg>
